<svg width="72" height="70" viewBox="0 0 72 70" fill="none" xmlns="http://www.w3.org/2000/svg">
<path d="M72 31.9653C72 55.4374 60.9721 69.9653 37.5 69.9653C14.0279 69.9653 0 52.9374 0 29.4653C0 5.99323 25.9943 0.034668 49.4664 0.034668C72.9385 0.034668 72 8.49323 72 31.9653Z" fill="url(#paint0_linear_6559_1438)"/>
<g clip-path="url(#clip0_6559_1438)">
<path d="M54.0633 22.9219C50.4047 22.9139 46.7464 22.9297 43.0957 22.9138C43.1035 22.6175 43.1035 22.3289 43.0957 22.0326C47.1832 22.0481 51.2705 22.0326 55.3502 22.0403C55.0774 22.3367 54.7888 22.6175 54.4921 22.8829C54.3519 22.9374 54.2036 22.9139 54.0633 22.9219ZM43.1114 29.3728C43.0957 27.3525 43.127 25.3323 43.0957 23.3118C46.879 23.3195 50.6701 23.304 54.4612 23.3195C54.4767 25.3242 54.4454 27.3369 54.4689 29.3416C50.6779 29.3728 46.8946 29.3572 43.1114 29.3728ZM43.1035 53.0394C43.1035 52.3374 43.0412 51.6277 43.1348 50.9335C43.0879 50.6994 43.0957 50.4575 43.0957 50.2234C43.1035 45.9332 43.0957 41.6429 43.0957 37.3528C43.0957 34.88 43.1192 32.4072 43.0801 29.9345C46.8712 29.9111 50.6624 29.9267 54.4531 29.9267C54.4531 37.6336 54.4454 45.3328 54.4612 53.0394C50.6779 53.0394 46.8946 53.0394 43.1035 53.0394ZM54.4531 60.2627C52.7528 60.2785 51.06 60.255 49.3597 60.2785C49.3439 59.6855 49.3516 59.0851 49.3439 58.4921C49.3439 57.8291 49.3829 57.1504 49.1646 56.5187C48.8447 55.52 48.0102 54.7087 47.0116 54.397C46.3642 54.1864 45.6387 54.2331 45.0225 54.5059C43.8758 54.9819 43.0567 56.1598 43.0177 57.3999C42.9865 58.3596 43.0177 59.3189 43.0021 60.2785C42.6901 60.2708 42.3703 60.2785 42.0583 60.2785C42.0661 59.3892 42.0583 58.4998 42.0739 57.6105C41.9881 57.6028 41.9023 57.595 41.8242 57.5873C41.8242 56.4329 41.8477 55.2782 41.8009 54.1238C46.0209 54.1084 50.2409 54.1238 54.4531 54.1238C54.4531 56.1598 54.4454 58.2113 54.4531 60.2627ZM42.6589 51.6899C42.6589 52.1504 42.6589 52.6028 42.6745 53.063C42.3469 53.063 42.0271 53.0552 41.6995 53.0475C41.9569 52.5561 42.2455 52.0647 42.6589 51.6899ZM41.4498 57.6186C41.4108 57.6186 41.325 57.6186 41.286 57.6105C41.2938 56.2066 41.2626 54.8026 41.3094 53.3983C40.9272 53.4686 40.5528 53.5466 40.1705 53.6011C40.1627 53.4763 40.1627 53.3593 40.1549 53.2345C40.584 53.2422 41.0052 53.2113 41.4342 53.2032C41.4888 54.6778 41.4576 56.1521 41.4498 57.6186ZM34.6166 52.8288C34.4996 52.5561 34.3514 52.2984 34.2344 52.0334C36.2469 52.0334 38.2672 52.0411 40.2798 52.0334C40.155 52.2984 40.0067 52.5638 39.8898 52.8288C38.1346 52.8524 36.3717 52.8601 34.6166 52.8288ZM39.7649 60.2627C39.6011 60.2627 39.4295 60.2627 39.2657 60.2627C39.2735 57.9149 39.2813 55.5668 39.2579 53.219C39.4295 53.2268 39.6011 53.2345 39.7727 53.2422C39.7727 55.5826 39.7805 57.9227 39.7649 60.2627ZM38.9693 53.8588C37.8382 53.8507 36.6993 53.8507 35.5605 53.8588C35.5448 53.656 35.537 53.4451 35.5448 53.2422C36.6915 53.2268 37.8382 53.219 38.9849 53.2422C38.9693 53.4451 38.9693 53.656 38.9693 53.8588ZM35.264 60.2627C35.0924 60.2627 34.9208 60.2627 34.7414 60.2627C34.7414 58.3438 34.7414 56.4248 34.7492 54.5059C34.7414 54.0848 34.757 53.656 34.7258 53.2345C34.9052 53.2345 35.0924 53.2268 35.2718 53.2268C35.264 55.5749 35.2952 57.9227 35.264 60.2627ZM34.3202 53.6401C33.9535 53.5308 33.5713 53.5076 33.1969 53.4296C33.2203 54.8181 33.2047 56.2143 33.2047 57.6028C33.1579 57.6028 33.0643 57.6105 33.0175 57.6105C33.0175 56.1443 33.0019 54.6697 33.0331 53.2032C33.4699 53.2113 33.9068 53.2113 34.3436 53.2268C34.3358 53.367 34.328 53.5076 34.3202 53.6401ZM31.8318 53.0552C31.824 52.5793 31.824 52.1037 31.8318 51.6277C32.2062 52.0488 32.5885 52.509 32.7601 53.0552C32.4481 53.063 32.136 53.0552 31.8318 53.0552ZM32.6665 57.5715C32.6119 57.5796 32.5105 57.5873 32.4559 57.595C32.4325 58.4844 32.4481 59.3814 32.4403 60.2708C32.136 60.2708 31.8318 60.2708 31.5276 60.2708C31.5276 59.3347 31.551 58.4063 31.5276 57.4703C31.4886 56.3549 30.8568 55.2859 29.8973 54.7168C29.2498 54.3031 28.4308 54.1474 27.6819 54.3502C26.8083 54.553 26.036 55.1534 25.607 55.9415C25.2872 56.5264 25.1546 57.1971 25.1546 57.8604C25.1468 58.6636 25.1624 59.4672 25.1624 60.2708C23.4463 60.2627 21.738 60.255 20.0219 60.2708C20.0141 58.219 20.0296 56.1598 20.0141 54.1084C24.2263 54.1084 28.4464 54.0925 32.6587 54.1003C32.6587 55.2627 32.6821 56.4171 32.6665 57.5715ZM31.3716 29.9189C31.395 37.6258 31.3482 45.3405 31.395 53.0475C27.6117 53.0475 23.8207 53.0394 20.0374 53.0475C20.0141 45.3405 20.0452 37.6258 20.0219 29.9189C23.8051 29.9189 27.5883 29.9189 31.3716 29.9189ZM20.0296 23.3118C23.8051 23.3118 27.5883 23.304 31.3716 23.3118C31.3794 25.34 31.3716 27.3603 31.3794 29.3806C27.5961 29.3338 23.8129 29.3728 20.0296 29.3416C20.0296 27.3369 20.0374 25.3242 20.0296 23.3118ZM19.0858 22.0481C23.181 22.0403 27.2763 22.0562 31.3716 22.0403C31.3716 22.3367 31.3794 22.6253 31.3794 22.9219C27.5727 22.9219 23.7661 22.9297 19.9594 22.9138C19.702 22.5943 19.3744 22.3444 19.0858 22.0481ZM23.1577 20.488C22.7676 20.488 22.3776 20.488 21.9876 20.488C21.9798 19.9731 21.9798 19.4662 21.972 18.9512C22.362 18.9512 22.7598 18.9512 23.1499 18.9435C23.1499 19.4662 23.1577 19.9731 23.1577 20.488ZM24.8425 20.4958C24.4681 20.4958 24.0937 20.4958 23.7271 20.488C23.7115 19.9812 23.7115 19.4662 23.7037 18.9593C24.0859 18.967 24.4681 18.967 24.8425 18.967C24.8425 19.4739 24.8504 19.9812 24.8425 20.4958ZM26.5431 20.488C26.1764 20.488 25.8176 20.488 25.451 20.4803C25.4432 19.9731 25.4588 19.4662 25.4276 18.967C25.7942 18.967 26.1686 18.967 26.5353 18.967C26.5353 19.4739 26.5431 19.9812 26.5431 20.488ZM28.345 20.4958C27.955 20.488 27.5649 20.488 27.1749 20.488C27.1671 19.9812 27.1749 19.4739 27.1671 18.9593C27.5571 18.967 27.9472 18.967 28.3372 18.9593C28.345 19.4739 28.3372 19.9812 28.345 20.4958ZM29.9831 20.4958C29.5853 20.488 29.1875 20.4958 28.7974 20.488C28.7974 19.9812 28.7974 19.4662 28.7818 18.9593C29.1796 18.9593 29.5853 18.9593 29.9831 18.9512C29.9831 19.4662 29.9831 19.9812 29.9831 20.4958ZM21.0593 17.9139C20.8877 17.9452 20.8019 17.7891 20.7083 17.6798C24.2731 17.6721 27.8301 17.6798 31.3872 17.6721C31.3872 17.7346 31.3872 17.8671 31.3872 17.9375C27.9472 17.9062 24.4993 17.9452 21.0593 17.9139ZM31.8006 20.3633C31.8006 20.2149 31.8006 20.0669 31.8006 19.9186C35.4279 19.9031 39.0629 19.9186 42.6901 19.9109C42.6901 20.0669 42.6901 20.2149 42.6901 20.371C39.0629 20.3787 35.4279 20.3945 31.8006 20.3633ZM33.938 52.0175C34.0628 52.2907 34.172 52.5638 34.2968 52.8288C33.8989 52.8134 33.5089 52.8056 33.1111 52.7898C32.9941 52.5248 32.8381 52.2675 32.6821 52.0256C33.0955 52.0334 33.5167 52.0411 33.938 52.0175ZM41.8555 52.0175C41.676 52.2594 41.52 52.5248 41.3875 52.7898C40.9974 52.8288 40.5996 52.7979 40.2018 52.8134C40.3656 52.5793 40.4748 52.3061 40.5918 52.0488C41.013 52.0256 41.4342 52.0566 41.8555 52.0175ZM42.6589 31.8144C42.6589 38.1406 42.6511 44.4667 42.6667 50.7929C40.818 50.7619 38.9771 50.7774 37.1362 50.7697C35.3654 50.7774 33.5947 50.7461 31.824 50.7851C31.824 42.2437 31.824 33.7099 31.824 25.1762C31.8318 23.6784 31.8162 22.1809 31.8084 20.6831C35.4356 20.6831 39.0707 20.6596 42.6979 20.6909C42.6433 24.4039 42.6745 28.1091 42.6589 31.8144ZM31.1454 12.4612C35.1938 12.4457 39.2423 12.4535 43.2908 12.4535C43.1035 12.8514 42.8539 13.2335 42.6745 13.6314C42.6355 15.6596 42.7057 17.6875 42.6667 19.7158C39.0473 19.7003 35.4279 19.7158 31.8084 19.7003C31.8084 17.6956 31.824 15.6987 31.8162 13.694C31.8084 13.5769 31.7148 13.4989 31.6602 13.3973C31.4496 13.1164 31.3014 12.7888 31.1454 12.4612ZM30.4823 11.4706C30.4355 11.3694 30.3887 11.2678 30.3419 11.1743C34.9442 11.2056 39.5543 11.1507 44.1566 11.1898C44.102 11.2836 44.0396 11.3771 43.9928 11.4784C39.4919 11.4706 34.9832 11.4861 30.4823 11.4706ZM45.6231 20.488C45.2097 20.488 44.7885 20.488 44.375 20.488C44.375 19.9731 44.375 19.4662 44.375 18.9512C44.7963 18.9512 45.2097 18.9593 45.6309 18.9593C45.6231 19.4662 45.6309 19.9812 45.6231 20.488ZM47.2066 20.4958C46.8166 20.488 46.4344 20.488 46.0443 20.488C46.0365 19.9812 46.0443 19.4662 46.021 18.9593C46.411 18.967 46.8088 18.967 47.1988 18.9593C47.23 19.4662 47.2222 19.9812 47.2066 20.4958ZM48.915 20.488C48.5484 20.488 48.174 20.488 47.8072 20.4803C47.7994 19.9731 47.7994 19.4662 47.7916 18.9593C48.1659 18.9748 48.5326 18.967 48.9073 18.9748C48.915 19.4739 48.915 19.9812 48.915 20.488ZM50.6933 20.488C50.3112 20.4803 49.9291 20.4803 49.5467 20.4803C49.5389 19.9731 49.5389 19.4662 49.5312 18.9593C49.9133 18.967 50.3035 18.9593 50.6856 18.967C50.7014 19.4739 50.6933 19.9812 50.6933 20.488ZM52.4094 18.9593C52.4094 19.4739 52.4175 19.9889 52.4094 20.5035C52.0119 20.5116 51.6139 20.4958 51.216 20.488C51.216 19.9812 51.216 19.4662 51.1847 18.9512C51.5981 18.9593 52.0038 18.9512 52.4094 18.9593ZM43.0801 17.6798C46.6372 17.6643 50.1942 17.6721 53.7512 17.6798C53.6032 17.9919 53.2365 17.9139 52.9557 17.9216C49.6637 17.8984 46.3719 17.9375 43.0801 17.9139C43.0801 17.8594 43.0801 17.7424 43.0801 17.6798ZM59.1413 60.3407C58.8372 60.2395 58.5096 60.2785 58.1897 60.2785C57.0508 60.2785 55.9042 60.2785 54.7653 60.2627C54.773 58.2425 54.7807 56.222 54.773 54.2019C54.7498 54.0693 54.8746 54.0068 54.9526 53.9365C55.3112 53.6401 55.6546 53.3203 56.0054 53.0162C55.592 53.0317 55.1864 53.0475 54.773 53.0394C54.7807 45.3247 54.7653 37.6102 54.7807 29.9033C54.8669 29.8877 54.9604 29.8721 55.0461 29.8565C55.1709 29.6926 55.249 29.4976 55.3425 29.3182C55.1474 29.326 54.9604 29.3416 54.7653 29.3494C54.7498 27.4149 54.773 25.488 54.7653 23.5536C54.773 23.4446 54.7417 23.3195 54.7966 23.2183C55.7326 22.2899 56.6997 21.3928 57.6438 20.4726C56.2163 20.5116 54.7888 20.4726 53.3613 20.488C53.3613 20.0511 53.3532 19.6064 53.3455 19.1699C53.3378 18.967 53.4784 18.7955 53.5641 18.6236C53.7824 18.2102 54.0946 17.8046 54.0865 17.3132C50.4125 17.329 46.7464 17.329 43.0723 17.329C43.1114 16.2055 43.0801 15.0824 43.0801 13.959C43.3298 13.959 43.5794 13.9667 43.8368 13.959C44.1722 12.9371 44.414 11.884 44.7573 10.8622C44.1098 10.8231 43.4624 10.8699 42.8149 10.8309C40.9194 9.06802 39.1019 7.22713 37.2142 5.46429C35.381 7.21167 33.5557 8.97452 31.707 10.6983C31.629 10.7609 31.5588 10.8544 31.4418 10.839C30.8568 10.8467 30.2639 10.8154 29.6789 10.8544C29.9909 11.8921 30.3107 12.9294 30.6461 13.9667C30.8957 13.959 31.1376 13.959 31.3872 13.9513C31.3872 15.0744 31.3638 16.1901 31.4028 17.3132C27.721 17.3367 24.0391 17.3212 20.3651 17.3212C20.3807 17.5318 20.3885 17.7578 20.5055 17.9452C20.7161 18.2883 20.8799 18.6626 21.0983 19.0061C21.1061 19.4975 21.0827 19.9966 21.0983 20.4958C19.7567 20.4726 18.4228 20.4958 17.0811 20.4803C16.9796 20.4726 16.8782 20.449 16.7846 20.4336C17.0498 20.7612 17.3853 21.0185 17.6739 21.3148C18.3291 21.931 18.9688 22.563 19.624 23.187C19.7332 23.265 19.702 23.4134 19.7098 23.5381C19.702 25.4725 19.741 27.4071 19.702 29.3416C19.507 29.326 19.3042 29.3182 19.1092 29.3104C19.195 29.4821 19.273 29.6693 19.39 29.8253C19.4758 29.8955 19.6084 29.8721 19.7098 29.9033C19.7098 33.7099 19.7098 37.5166 19.7098 41.3231C19.702 45.2312 19.7254 49.1393 19.702 53.0475C19.2886 53.0317 18.8752 53.0552 18.4695 53.0162C18.8674 53.3906 19.2574 53.7727 19.7098 54.0848C19.7176 56.1521 19.7098 58.2113 19.7176 60.2785C18.3759 60.2785 17.0265 60.255 15.6848 60.2862C14.7175 60.5436 13.7502 60.8402 12.7986 61.1443C14.1013 61.113 15.3962 61.1366 16.6988 61.1288C29.8817 61.1366 43.0645 61.1288 56.2473 61.1288C58.0962 61.1207 59.9449 61.152 61.7857 61.113C60.8964 60.8712 60.0229 60.5984 59.1413 60.3407Z" fill="white"/>
<path d="M34.5078 18.2726C34.6794 18.2804 34.6482 18.1166 34.656 17.9918C34.6014 17.9918 34.4922 17.9918 34.4376 17.9918C34.4376 16.8061 34.4454 15.6204 34.4298 14.4425C34.4922 14.4271 34.6092 14.4035 34.6716 14.388C34.6716 14.2864 34.6638 14.1929 34.6638 14.0914C34.0944 14.31 33.5094 14.5128 32.9555 14.7779C32.9477 14.9339 32.9867 15.0977 33.1817 14.9962C33.1895 16.1509 33.2208 17.3053 33.1661 18.4519C33.1115 18.4674 33.0101 18.4909 32.9555 18.5064C32.9477 18.6702 32.9399 18.8343 32.9321 18.9978C33.5172 18.7718 34.1334 18.6157 34.7029 18.3584C34.6248 18.3271 34.5624 18.3036 34.5078 18.2726Z" fill="white"/>
<path d="M38.8993 18.0698C38.8993 17.3443 38.8915 16.6188 38.9071 15.8932C38.9461 15.1681 38.4703 14.4425 37.7917 14.2007C37.4563 14.0682 37.074 14.0604 36.723 14.1539C36.0287 14.349 35.4905 15.012 35.4749 15.7375C35.4671 16.5175 35.4749 17.2898 35.4749 18.0698C36.6216 18.0621 37.7605 18.0698 38.8993 18.0698Z" fill="white"/>
<path d="M39.9831 14.4505C39.9831 15.6361 39.9831 16.814 39.9987 17.9997C39.9519 17.992 39.8583 17.9762 39.8115 17.9684C39.8115 18.109 39.8193 18.2493 39.8193 18.3976C40.3809 18.6159 40.9504 18.811 41.5198 19.0293C41.5198 18.8655 41.5198 18.694 41.5198 18.5301C41.434 18.5066 41.356 18.4757 41.2702 18.4521C41.2546 17.2977 41.2546 16.1434 41.2624 14.9886C41.317 14.9886 41.434 15.0044 41.4964 15.0044C41.4886 14.8951 41.5276 14.7468 41.395 14.7C40.8723 14.4582 40.3107 14.2944 39.7803 14.0684C39.7803 14.1773 39.7803 14.2867 39.7881 14.396C39.8271 14.4114 39.9285 14.435 39.9831 14.4505Z" fill="white"/>
<path d="M38.8679 27.4385C38.8679 27.2435 38.8679 27.0562 38.8679 26.8691C38.8055 26.8691 38.6885 26.8769 38.6339 26.8769C38.6183 25.5743 38.6495 24.2638 38.6261 22.9611C38.6807 22.9689 38.7977 22.9843 38.8601 22.9921C38.8601 22.9063 38.8679 22.7425 38.8679 22.6567C37.7525 22.6567 36.6448 22.649 35.5293 22.6645C35.5371 22.7815 35.5371 22.8908 35.5449 23.0079C35.6073 23.0156 35.8101 22.9063 35.7555 23.0778C35.7555 24.3496 35.7633 25.6133 35.7477 26.8846C35.6931 26.8846 35.5839 26.8768 35.5293 26.8768C35.5293 27.0641 35.5293 27.2591 35.5293 27.4463C36.637 27.4307 37.7525 27.4151 38.8679 27.4385Z" fill="white"/>
<path d="M34.4376 27.1579C34.422 25.8241 34.422 24.4901 34.422 23.1561C34.4922 23.1329 34.5702 23.1094 34.6405 23.0939C34.6405 22.9923 34.6405 22.8833 34.6405 22.7817C34.0788 22.9691 33.5015 23.1252 32.9477 23.3435C32.9399 23.437 32.9321 23.5308 32.9321 23.6243C32.9945 23.6166 33.1115 23.593 33.1739 23.5853C33.1739 24.9035 33.1973 26.2218 33.1583 27.5323C33.0803 27.5479 33.0101 27.5713 32.9321 27.5869C32.9321 27.7507 32.9321 27.9146 32.9321 28.0784C33.5172 27.9068 34.1022 27.7351 34.6872 27.5791C34.6794 27.4309 34.6794 27.2749 34.6794 27.1267C34.6014 27.1423 34.5156 27.1501 34.4376 27.1579Z" fill="white"/>
<path d="M39.9597 27.1572C39.9207 27.1651 39.8349 27.1807 39.7959 27.1807C39.7959 27.3133 39.8037 27.4459 39.8037 27.5785C40.3653 27.7501 40.927 27.9373 41.4886 28.1245C41.4886 27.9451 41.4964 27.7735 41.4886 27.6019C41.434 27.5941 41.317 27.5785 41.2624 27.5707C41.2312 26.2524 41.2468 24.9264 41.2468 23.6001C41.3092 23.6079 41.434 23.6237 41.4964 23.6314C41.4574 23.5144 41.5042 23.3273 41.3404 23.3038C40.8333 23.1087 40.3029 22.9685 39.7881 22.7888C39.7881 22.8981 39.7803 23.0075 39.7803 23.1164C39.8271 23.1245 39.9207 23.1477 39.9675 23.1555C39.9753 24.4972 40.0065 25.8312 39.9597 27.1572Z" fill="white"/>
<path d="M21.9642 24.5519C21.9408 25.8075 21.9642 27.0557 21.9564 28.3116C21.9018 28.3116 21.7926 28.296 21.738 28.296C21.738 28.4754 21.738 28.6548 21.738 28.8342C22.8301 28.8264 23.9144 28.8108 25.0064 28.8342C25.0142 28.6548 25.0064 28.4754 24.9908 28.296C24.9362 28.296 24.827 28.3038 24.7724 28.3116C24.7724 27.0557 24.7724 25.792 24.7724 24.5361C24.827 24.5361 24.9284 24.5361 24.983 24.5283C24.983 24.4113 24.9752 24.2942 24.9752 24.1694C23.8909 24.154 22.8067 24.1617 21.7224 24.1694C21.7224 24.2788 21.7224 24.3958 21.7302 24.5048C21.7848 24.5129 21.9018 24.5361 21.9642 24.5519Z" fill="white"/>
<path d="M27.4636 24.5361C27.4636 25.7843 27.4636 27.0323 27.4636 28.2804C27.1515 28.2726 27.2997 28.6392 27.2685 28.8342C28.3372 28.8264 29.4137 28.8264 30.4823 28.8264C30.4823 28.6626 30.4745 28.491 30.4745 28.3272C30.4199 28.3194 30.3185 28.3116 30.2639 28.3116C30.2873 27.0557 30.2717 25.792 30.2639 24.5361C30.3107 24.5283 30.4121 24.5129 30.4589 24.5129C30.4511 24.3958 30.4433 24.2865 30.4355 24.1694C29.3747 24.154 28.3138 24.1694 27.2529 24.1694C27.2607 24.2942 27.2763 24.419 27.2841 24.5519C27.3387 24.5361 27.4245 24.5361 27.4636 24.5361Z" fill="white"/>
<path d="M46.9729 28.3199C46.9963 27.0562 46.9729 25.7925 46.9885 24.5288C47.0353 24.5288 47.1289 24.5211 47.1757 24.5211C47.1757 24.404 47.1757 24.2792 47.1757 24.1622C46.1071 24.139 45.0384 24.1545 43.9697 24.1545C43.9775 24.2792 43.9853 24.404 43.9931 24.5366C44.0399 24.5366 44.1413 24.5366 44.1959 24.5443C44.1726 25.7458 44.1804 26.947 44.1959 28.1405C44.2349 28.2965 44.1179 28.3355 43.9853 28.3199C43.9853 28.4915 43.9775 28.6553 43.9775 28.8269C45.0462 28.8191 46.1148 28.8035 47.1835 28.8269C47.1835 28.6631 47.1835 28.4915 47.1835 28.3277C47.1367 28.3199 47.0275 28.3199 46.9729 28.3199Z" fill="white"/>
<path d="M52.5113 28.2962C52.5426 27.0481 52.5191 25.8 52.5345 24.5521C52.5816 24.544 52.6829 24.5208 52.7296 24.505C52.7296 24.3883 52.7296 24.279 52.7373 24.1619C51.661 24.1465 50.5766 24.1465 49.5002 24.1619C49.508 24.3412 49.469 24.5989 49.7421 24.5521C49.7266 25.8 49.7498 27.0481 49.7266 28.2962C49.6795 28.2884 49.5937 28.265 49.5547 28.2572C49.5393 28.4445 49.5393 28.6316 49.5315 28.8188C50.6079 28.811 51.6846 28.811 52.7609 28.811C52.7609 28.6316 52.7609 28.4522 52.7609 28.2806C52.6829 28.2884 52.5658 28.2962 52.5113 28.2962Z" fill="white"/>
<path d="M35.5219 30.184C35.5141 30.2854 35.5063 30.3868 35.4985 30.496C35.5609 30.496 35.6858 30.496 35.7481 30.496C35.756 31.8065 35.7638 33.1091 35.7403 34.4196C35.6858 34.4196 35.5843 34.4196 35.5375 34.4196C35.5141 34.6146 35.5141 34.8097 35.5141 35.0047C36.6296 35.0281 37.7529 35.0047 38.8683 35.0203C38.8683 34.8253 38.8683 34.6225 38.8683 34.4274C38.8059 34.4274 38.6889 34.4274 38.6343 34.4196C38.6265 33.1091 38.6499 31.7909 38.6343 30.4804C38.7123 30.496 38.7903 30.5038 38.8605 30.5194C38.8683 30.4024 38.8761 30.2854 38.8839 30.1684C37.7607 30.1918 36.6374 30.1762 35.5219 30.184Z" fill="white"/>
<path d="M32.9321 35.0281C32.9321 35.1919 32.9321 35.3479 32.9321 35.5117C33.5094 35.3635 34.0866 35.1841 34.6716 35.0671C34.6716 34.9033 34.6716 34.7395 34.6716 34.5757C34.617 34.5834 34.5 34.5912 34.4376 34.599C34.4376 33.2808 34.4376 31.9703 34.4376 30.652C34.5078 30.6286 34.578 30.6052 34.656 30.574C34.656 30.4804 34.656 30.379 34.656 30.2854C34.0788 30.4492 33.5016 30.5896 32.9477 30.8158C32.9477 30.9094 32.9477 31.003 32.9477 31.0966C33.0101 31.0888 33.1271 31.0654 33.1817 31.0576C33.1661 32.3681 33.2052 33.6708 33.1584 34.9813C33.1037 34.9891 32.9867 35.0203 32.9321 35.0281Z" fill="white"/>
<path d="M39.9753 34.5992C39.9285 34.6148 39.8349 34.6382 39.7881 34.646C39.7881 34.7942 39.7959 34.9424 39.8037 35.0906C40.3731 35.2388 40.927 35.4104 41.4886 35.582C41.4886 35.4026 41.4886 35.2232 41.4808 35.0438C41.4184 35.036 41.3014 35.0126 41.2468 35.0048C41.2312 33.6943 41.2468 32.3838 41.2468 31.0734C41.3092 31.0811 41.4262 31.0889 41.4886 31.0967C41.4808 31.0031 41.4808 30.9173 41.473 30.8237C40.9348 30.5897 40.3497 30.4805 39.7959 30.3089C39.7881 30.4181 39.7803 30.5273 39.7803 30.6365C39.8271 30.6443 39.9285 30.6599 39.9753 30.6755C39.9831 31.9704 39.9831 33.2809 39.9753 34.5992Z" fill="white"/>
<path d="M24.9906 36.6506C24.9906 36.4634 24.9906 36.2761 24.9828 36.0889C24.936 36.0889 24.8346 36.0889 24.7878 36.0889C24.7878 34.8643 24.7722 33.6396 24.78 32.4227C24.7098 32.2199 25.0608 32.3993 25.014 32.1731C24.9594 32.1653 24.8423 32.1575 24.7878 32.1497C24.8346 32.1497 24.9282 32.1497 24.9828 32.1497C24.9828 32.1029 24.9828 32.0171 24.9828 31.9703C23.8985 31.9703 22.8142 31.9781 21.73 31.9703C21.7378 32.0873 21.7378 32.2121 21.7456 32.3369C21.8002 32.3369 21.9016 32.3291 21.9562 32.3291C21.9406 33.5928 21.9484 34.8564 21.9484 36.1279C21.8938 36.1279 21.7767 36.1201 21.7222 36.1201C21.7222 36.2996 21.7222 36.4712 21.7144 36.6506C22.8064 36.6584 23.8985 36.6428 24.9906 36.6506Z" fill="white"/>
<path d="M27.4794 32.3372C27.4716 33.6009 27.4872 34.8568 27.4716 36.1205C27.4248 36.1205 27.3312 36.1126 27.2844 36.1048C27.2766 36.2843 27.2688 36.4715 27.2688 36.6509C28.3297 36.6587 29.3905 36.6431 30.4514 36.6587C30.4514 36.4715 30.4514 36.2843 30.4514 36.0892C30.4046 36.0892 30.311 36.0892 30.2564 36.0892C30.2642 34.8411 30.2486 33.5853 30.2642 32.3372C30.311 32.3294 30.4046 32.3138 30.4514 32.306C30.4514 32.189 30.4436 32.0798 30.4436 31.9628C29.3827 31.9628 28.3219 31.9706 27.261 31.9628C27.2844 32.1344 27.2064 32.4308 27.4794 32.3372Z" fill="white"/>
<path d="M46.988 32.2904C47.0348 32.2982 47.1441 32.306 47.1908 32.306C47.183 32.189 47.1752 32.0798 47.1752 31.9706C46.1066 31.9628 45.0457 31.9628 43.9771 31.9784C43.9849 32.0954 43.9927 32.2124 44.0005 32.3294C44.0472 32.3294 44.1409 32.3294 44.1954 32.3294C44.1876 33.5385 44.1954 34.7398 44.1954 35.941C44.2267 36.0892 44.1174 36.1283 43.9927 36.1205C43.9927 36.2999 43.9927 36.4715 43.9849 36.6509C45.0535 36.6509 46.1222 36.6431 47.1908 36.6587C47.1908 36.4793 47.1986 36.2921 47.1986 36.1126C47.1441 36.1126 47.0348 36.1048 46.9803 36.1048C46.9958 34.8334 46.9803 33.5619 46.988 32.2904Z" fill="white"/>
<path d="M49.7102 32.3216C49.7337 33.5853 49.7179 34.849 49.7024 36.1205C49.6557 36.1205 49.5541 36.1126 49.5073 36.1048C49.4996 36.2843 49.4996 36.4715 49.5073 36.6509C50.584 36.6509 51.6604 36.6509 52.7367 36.6587C52.7367 36.4715 52.729 36.2765 52.7212 36.0892C52.6668 36.097 52.5574 36.1048 52.5029 36.1126C52.5339 34.8489 52.5261 33.5853 52.5107 32.3294C52.5652 32.3294 52.6667 32.3294 52.7135 32.3294C52.7135 32.2124 52.7058 32.0954 52.7058 31.9784C51.6291 31.9706 50.5605 31.9784 49.4841 31.9706C49.5151 32.1266 49.4528 32.4152 49.7102 32.3216Z" fill="white"/>
<path d="M32.9321 42.579C32.9321 42.7351 32.9321 42.8911 32.9321 43.0549C33.5094 42.8989 34.0866 42.7505 34.6716 42.6338C34.6716 42.4777 34.6716 42.3139 34.6716 42.1579C34.6092 42.1656 34.4844 42.1811 34.4298 42.1811C34.422 40.8316 34.4376 39.4822 34.4298 38.1328C34.5 38.1094 34.5624 38.0859 34.6327 38.0626C34.6327 37.969 34.6327 37.8754 34.6327 37.7817C34.0632 37.9299 33.4938 38.0704 32.9399 38.281C32.9399 38.3824 32.9399 38.476 32.9477 38.5774C33.0257 38.554 33.1037 38.5384 33.1817 38.5228C33.1817 39.8255 33.1973 41.1283 33.1661 42.4387C33.1895 42.5635 33.0023 42.5245 32.9321 42.579Z" fill="white"/>
<path d="M38.8759 37.7112C37.7526 37.719 36.6372 37.7034 35.5139 37.7268C35.5139 37.8048 35.5217 37.9608 35.5217 38.0388C35.5841 38.0388 35.7011 38.0388 35.7557 38.031C35.7401 39.3415 35.7635 40.6443 35.7401 41.9547C35.6933 41.9547 35.5997 41.947 35.5529 41.947C35.4905 42.134 35.5295 42.3368 35.5139 42.5319C36.6294 42.5319 37.7448 42.5242 38.8681 42.5474C38.8681 42.3526 38.8603 42.1575 38.8603 41.9624C38.7979 41.9547 38.6809 41.9392 38.6263 41.9392C38.6263 40.6365 38.6497 39.3259 38.6263 38.0232C38.6887 38.031 38.8057 38.0388 38.8603 38.0466C38.8681 37.9296 38.8681 37.8204 38.8759 37.7112Z" fill="white"/>
<path d="M39.7961 37.7819C39.7961 37.8911 39.7961 37.9925 39.7883 38.1017C39.8351 38.1095 39.9209 38.1329 39.9599 38.1407C39.9989 39.4824 39.9755 40.824 39.9677 42.1657C39.9209 42.1812 39.8351 42.2047 39.7883 42.2125C39.7883 42.3531 39.7961 42.4933 39.7961 42.6339C40.3577 42.7819 40.9194 42.9457 41.4732 43.1018C41.4811 42.9225 41.4811 42.7506 41.4811 42.5791C41.4264 42.5714 41.3094 42.5478 41.247 42.5401C41.2158 41.2064 41.2392 39.8724 41.2392 38.5385C41.3016 38.5463 41.4342 38.5541 41.4966 38.5619C41.4888 38.4683 41.4732 38.3747 41.4654 38.2811C40.935 38.0627 40.3577 37.9457 39.7961 37.7819Z" fill="white"/>
<path d="M21.9642 39.2713C21.9408 40.5349 21.9486 41.7986 21.9564 43.0623C21.9018 43.0623 21.7848 43.07 21.7302 43.07C21.7302 43.2497 21.7302 43.4289 21.7302 43.6005C22.8145 43.6318 23.9066 43.6082 24.9908 43.624C24.983 43.4289 24.983 43.2416 24.9752 43.0468C24.9284 43.0468 24.8192 43.0468 24.7724 43.0468C24.7802 41.7831 24.7724 40.5194 24.7802 39.2557C24.827 39.2557 24.9362 39.2635 24.983 39.2635C24.983 39.1855 24.9908 39.0217 24.9908 38.9437C23.8987 38.9281 22.8145 38.9281 21.7224 38.9437C21.7302 39.0529 21.738 39.1621 21.7614 39.2635C21.8082 39.2713 21.9096 39.2713 21.9642 39.2713Z" fill="white"/>
<path d="M49.5155 43.0392C49.4923 43.2265 49.5 43.4216 49.5 43.6086C50.5845 43.6167 51.6685 43.6167 52.7452 43.6167C52.7371 43.4293 52.7371 43.2343 52.7217 43.0472C52.6672 43.0472 52.5579 43.055 52.5034 43.055C52.5343 41.7913 52.5266 40.5198 52.5188 39.2561C52.5733 39.2561 52.6904 39.2639 52.7452 39.2639C52.7371 39.1547 52.7294 39.0455 52.7139 38.9363C51.6295 38.9363 50.5532 38.9207 49.4688 38.9363C49.4846 39.0455 49.4923 39.1547 49.5078 39.2717C49.5545 39.2717 49.6484 39.2561 49.6951 39.2561C49.7264 40.512 49.7029 41.7758 49.6951 43.0314C49.6561 43.0472 49.5626 43.0392 49.5155 43.0392Z" fill="white"/>
<path d="M27.4791 39.2794C27.4791 40.5353 27.4713 41.7989 27.4713 43.0549C27.4245 43.0549 27.3231 43.0472 27.2685 43.0472C27.2607 43.2342 27.2607 43.4215 27.2607 43.6085C28.3294 43.6398 29.3981 43.6008 30.4667 43.6321C30.4667 43.4447 30.4589 43.25 30.4589 43.0626C30.4121 43.0626 30.3029 43.0704 30.2561 43.0704C30.2795 41.8225 30.2717 40.5743 30.2639 39.334C30.5057 39.3262 30.4589 39.1156 30.4511 38.944C29.3825 38.9596 28.3216 38.9362 27.2529 38.9518C27.2607 39.061 27.2685 39.178 27.2841 39.2872C27.3309 39.2872 27.4245 39.2794 27.4791 39.2794Z" fill="white"/>
<path d="M46.9883 39.3184C47.1209 39.2326 47.1053 39.0688 47.0663 38.9362C46.0366 38.9596 45.007 38.9206 43.9851 38.9518C43.9851 39.0298 43.9929 39.1858 44.0007 39.2716C44.0553 39.2716 44.1567 39.2794 44.2113 39.2872C44.1801 40.5431 44.2113 41.7989 44.1957 43.0549C44.1489 43.0626 44.0475 43.0781 44.0007 43.0862C43.9851 43.2654 43.9929 43.4447 43.9929 43.6243C45.0616 43.6398 46.1302 43.6243 47.1989 43.6321C47.1989 43.4447 47.1989 43.25 47.2067 43.0626C47.1521 43.0626 47.0507 43.0626 46.9961 43.0626C46.9961 41.8067 46.9805 40.5665 46.9883 39.3184Z" fill="white"/>
<path d="M34.4295 45.715C34.4841 45.7073 34.5777 45.6837 34.6324 45.6683C34.6402 45.5589 34.648 45.4577 34.6557 45.3484C34.0785 45.4809 33.5013 45.6293 32.9397 45.8166C32.9397 45.9178 32.9397 46.0272 32.9397 46.1284C33.0177 46.1129 33.0957 46.0894 33.1737 46.0739C33.1737 47.3998 33.1893 48.7261 33.1503 50.052C33.0957 50.0597 32.9786 50.0833 32.9162 50.091C32.9006 50.2784 32.9006 50.4654 32.9006 50.645C33.4857 50.5044 34.0785 50.4032 34.6636 50.2707C34.6714 50.1068 34.6714 49.935 34.6714 49.7712C34.609 49.787 34.4841 49.8102 34.4217 49.826C34.4374 48.4607 34.4374 47.088 34.4295 45.715Z" fill="white"/>
<path d="M38.8757 45.3165C37.7602 45.3323 36.6369 45.3242 35.5214 45.3165C35.5137 45.418 35.5137 45.5193 35.5059 45.6209C35.5604 45.6286 35.6775 45.6363 35.7321 45.6441C35.7711 46.9703 35.7399 48.2963 35.7477 49.6225C35.693 49.6225 35.5917 49.6148 35.5448 49.6148C35.537 49.8095 35.537 50.0046 35.5448 50.1997C36.6525 50.1607 37.768 50.1997 38.8757 50.1842C38.8679 49.9814 38.8679 49.7863 38.8601 49.5835C38.8055 49.5835 38.6884 49.5912 38.6339 49.5912C38.6495 48.2731 38.6417 46.9468 38.6417 45.6209C38.6962 45.6209 38.8133 45.6286 38.8757 45.6286C38.8679 45.5193 38.8757 45.418 38.8757 45.3165Z" fill="white"/>
<path d="M41.2625 50.068C41.2391 48.734 41.2469 47.4 41.2547 46.0664C41.3171 46.0819 41.4341 46.0973 41.4887 46.1131C41.4731 46.0038 41.4654 45.9026 41.4498 45.7933C40.9037 45.6295 40.3499 45.4889 39.796 45.3409L39.7882 45.4969C39.8272 45.4969 39.9052 45.5047 39.9521 45.5047C39.9052 45.5047 39.8116 45.5124 39.7648 45.5201C39.7492 45.6607 39.8662 45.6917 39.9755 45.723C39.9833 47.0882 39.9833 48.4532 39.9755 49.8185C39.9364 49.8185 39.8506 49.8262 39.8116 49.8262C39.8116 49.9823 39.8116 50.138 39.8116 50.2941C40.3733 50.4189 40.9271 50.5595 41.4887 50.6765C41.4965 50.4814 41.4965 50.2863 41.4887 50.099C41.4263 50.0835 41.3171 50.0758 41.2625 50.068Z" fill="white"/>
<path d="M24.7337 45.8787C23.7352 45.8865 22.7289 45.871 21.7305 45.8942C21.7383 45.9722 21.7461 46.1441 21.7539 46.2218C21.8085 46.2218 21.9177 46.2063 21.9723 46.2063C21.9411 47.4778 21.9723 48.7415 21.9567 50.0129C21.9021 50.0129 21.7929 50.0052 21.7461 50.0052C21.7383 50.1848 21.7383 50.3718 21.7383 50.5514C22.8226 50.5746 23.9068 50.5669 24.9989 50.5669C24.9911 50.3795 24.9833 50.1848 24.9833 49.9974C24.9365 49.9974 24.8429 49.9897 24.7883 49.982C24.7727 48.726 24.7883 47.4778 24.7883 46.2218C24.9365 46.2454 25.0067 46.1986 25.0145 46.0661C24.9599 46.058 24.8507 46.0425 24.7961 46.0348C24.8507 46.0348 24.9521 46.0348 24.9989 46.0425C25.0769 45.8242 24.8351 45.8942 24.7337 45.8787Z" fill="white"/>
<path d="M30.2637 50.0053C30.2637 48.7494 30.2637 47.5015 30.2637 46.2533C30.5133 46.2923 30.4353 46.0427 30.4509 45.8866C29.39 45.8712 28.3292 45.8944 27.2683 45.8712C27.2683 45.9882 27.2683 46.1053 27.2683 46.222C27.3229 46.222 27.4321 46.2142 27.4867 46.2142C27.4711 47.4779 27.4945 48.7416 27.4711 49.9976C27.4243 50.0053 27.3385 50.0131 27.2995 50.0131C27.2683 50.1927 27.2761 50.3642 27.2761 50.5435C28.337 50.5593 29.4056 50.5435 30.4665 50.5435C30.4665 50.3565 30.4587 50.1691 30.4509 49.9741C30.4041 49.9899 30.3105 49.9976 30.2637 50.0053Z" fill="white"/>
<path d="M47.1908 50.0053C47.1363 50.0053 47.0348 50.0053 46.9803 50.0053C46.9803 48.7416 46.988 47.4779 46.9803 46.2142C47.0348 46.2142 47.1363 46.2142 47.1908 46.2219V46.0662C47.1519 46.0581 47.0739 46.0504 47.0348 46.0504H47.183L47.1752 45.8943C46.1066 45.9024 45.0457 45.8711 43.9771 45.8943C43.9849 45.9804 43.9849 46.1519 43.9927 46.2377C44.0472 46.2377 44.1565 46.2377 44.2111 46.2377C44.1721 47.4937 44.2111 48.7574 44.1876 50.013C44.1409 50.0211 44.0472 50.0288 44.0005 50.0365C43.9849 50.2158 43.9927 50.3873 43.9927 50.567C45.0613 50.5824 46.1222 50.567 47.1908 50.5747C47.183 50.3719 47.183 50.1849 47.1908 50.0053Z" fill="white"/>
<path d="M52.7918 46.0893C52.6979 46.0739 52.6122 46.058 52.5264 46.0426C52.5731 46.0426 52.6747 46.0348 52.7292 46.0348V45.8865C51.6529 45.8788 50.5843 45.871 49.5076 45.8942C49.5153 45.9804 49.5234 46.1519 49.5234 46.2377C49.5779 46.2377 49.6791 46.2299 49.7262 46.2218C49.7339 47.4855 49.7339 48.7492 49.7104 50.0129C49.6636 50.0052 49.5701 50.0052 49.5234 49.9975C49.5234 50.1848 49.5234 50.3718 49.5234 50.5592C50.5997 50.5669 51.6761 50.5747 52.7528 50.5592C52.745 50.3718 52.745 50.1926 52.7369 50.0052C52.6825 50.0052 52.5812 50.0052 52.5264 49.9975C52.5341 48.7415 52.5499 47.4855 52.5264 46.2299C52.6357 46.2299 52.7215 46.1828 52.7918 46.0893Z" fill="white"/>
<path d="M24.2883 57.8524C24.2883 57.1037 24.3117 56.355 24.2961 55.6059C24.3039 55.1925 23.9607 54.8259 23.5551 54.7869C23.2431 54.7556 22.9232 54.7324 22.619 54.8336C22.307 54.9507 22.0964 55.2705 22.1042 55.5982C22.1042 56.355 22.1042 57.1037 22.0964 57.8605C22.0496 57.8682 21.9482 57.8837 21.9014 57.8914C21.8857 58.0633 21.8936 58.2349 21.8936 58.4064C22.7672 58.4064 23.6409 58.3987 24.5145 58.4219C24.5145 58.2349 24.5067 58.0552 24.5067 57.8682C24.4599 57.8605 24.3507 57.8524 24.2883 57.8524Z" fill="white"/>
<path d="M52.3474 57.8519C52.3552 57.1032 52.3474 56.3463 52.3552 55.5976C52.3787 55.1997 52.0511 54.8099 51.6532 54.7786C51.2553 54.7473 50.7951 54.7006 50.4753 54.9814C50.2647 55.1452 50.1789 55.4183 50.1867 55.6757C50.1789 56.4089 50.1867 57.1422 50.1789 57.8677C50.1164 57.8754 49.9993 57.8832 49.9448 57.8832C49.9448 58.0628 49.9448 58.2343 49.9448 58.4136C50.8264 58.4059 51.7154 58.4372 52.597 58.3981C52.5893 58.2266 52.5815 58.047 52.5735 57.8754C52.5112 57.8754 52.4019 57.86 52.3474 57.8519Z" fill="white"/>
</g>
<defs>
<linearGradient id="paint0_linear_6559_1438" x1="18.2803" y1="10.2847" x2="54.2803" y2="51.7847" gradientUnits="userSpaceOnUse">
<stop stop-color="#8695F0"/>
<stop offset="1" stop-color="#7AC5EC"/>
</linearGradient>
<clipPath id="clip0_6559_1438">
<rect width="48.9872" height="55.68" fill="white" transform="translate(12.8003 5.46533)"/>
</clipPath>
</defs>
</svg>
