<svg width="16" height="16" viewBox="0 0 16 16" fill="none" xmlns="http://www.w3.org/2000/svg">
<path d="M1.33398 8C1.33398 5.17157 1.33398 3.75736 2.3103 2.87868C3.28661 2 4.85795 2 8.00065 2C11.1433 2 12.7147 2 13.691 2.87868C14.6673 3.75736 14.6673 5.17157 14.6673 8C14.6673 10.8284 14.6673 12.2426 13.691 13.1213C12.7147 14 11.1433 14 8.00065 14C4.85795 14 3.28661 14 2.3103 13.1213C1.33398 12.2426 1.33398 10.8284 1.33398 8Z" stroke="#876DF8" stroke-width="1.25" stroke-linecap="round" stroke-linejoin="round"/>
<path d="M5.6 5.33301H5.06667C4.56384 5.33301 4.31242 5.33301 4.15621 5.48922C4 5.64543 4 5.89684 4 6.39967V6.93301C4 7.43584 4 7.68725 4.15621 7.84346C4.31242 7.99967 4.56384 7.99967 5.06667 7.99967H5.6C6.10283 7.99967 6.35425 7.99967 6.51046 7.84347C6.66667 7.68726 6.66667 7.43584 6.66667 6.93301V6.39967C6.66667 5.89684 6.66667 5.64543 6.51046 5.48922C6.35425 5.33301 6.10283 5.33301 5.6 5.33301Z" stroke="#876DF8" stroke-width="1.25" stroke-linejoin="round"/>
<path d="M4 10.667H6.66667" stroke="#876DF8" stroke-width="1.25" stroke-linecap="round" stroke-linejoin="round"/>
<path d="M9.33398 5.33301H12.0007" stroke="#876DF8" stroke-width="1.25" stroke-linecap="round" stroke-linejoin="round"/>
<path d="M9.33398 8H12.0007" stroke="#876DF8" stroke-width="1.25" stroke-linecap="round" stroke-linejoin="round"/>
<path d="M9.33398 10.667H12.0007" stroke="#876DF8" stroke-width="1.25" stroke-linecap="round" stroke-linejoin="round"/>
</svg>
