<svg width="898" height="177" viewBox="0 0 898 177" fill="none" xmlns="http://www.w3.org/2000/svg">
<g clip-path="url(#clip0_321_7607)">
<path d="M467.574 245.572V-0.28775H98.7598V245.572H467.574Z" stroke="#EBEBEB" stroke-width="0.0491817"/>
<path d="M509.886 -69.7814C443.191 -73.9068 410.186 -62.2178 385.433 21.6681C373.95 60.5826 347.616 66.361 274.044 67.7361C225.448 68.6445 225.165 92.5891 207.98 116.204C181.646 152.393 141.573 166.412 106.368 166.412C99.9702 166.412 69.4887 166.109 47.6504 152.885" stroke="#EBEBEB" stroke-width="0.491817" stroke-miterlimit="10" stroke-linecap="round" stroke-linejoin="round"/>
<path d="M507.485 -74.6208C440.758 -79.5394 407.355 -67.3955 382.894 15.0567C371.369 53.7903 346.188 60.5429 272.325 61.3628C238.011 61.7439 225.564 72.7941 217.075 88.816C214.189 94.2634 206.745 108.897 198.983 117.236C175.525 142.438 143.495 160.181 106.368 160.181C86.6565 160.181 60.8455 156.218 34.4561 137.008" stroke="#EBEBEB" stroke-width="0.491817" stroke-miterlimit="10" stroke-linecap="round" stroke-linejoin="round"/>
<path d="M212.369 87.7227C212.374 87.7177 212.379 87.7128 212.379 87.703C222.397 69.4467 232.258 55.125 270.605 54.9873C344.757 54.7266 368.787 47.0002 380.354 8.44662C404.522 -72.5754 438.325 -85.1708 505.079 -79.4608" stroke="#EBEBEB" stroke-width="0.491817" stroke-miterlimit="10" stroke-linecap="round" stroke-linejoin="round"/>
<path d="M223.091 53.6695C232.145 46.4447 245.109 41.9937 267.167 42.2445C341.904 43.0905 363.628 33.4115 375.279 -4.7781C398.861 -82.9279 433.456 -96.4381 500.274 -89.1395" stroke="#EBEBEB" stroke-width="0.491817" stroke-miterlimit="10" stroke-linecap="round" stroke-linejoin="round"/>
<path d="M224.124 44.6493C233.173 38.8852 245.744 35.5015 265.447 35.8703C340.473 37.272 361.046 26.6192 372.736 -11.3884C396.029 -88.107 431.027 -102.07 497.874 -93.9793" stroke="#EBEBEB" stroke-width="0.491817" stroke-miterlimit="10" stroke-linecap="round" stroke-linejoin="round"/>
<path d="M224.458 36.5195C233.463 31.7144 245.65 29.0242 263.73 29.4964C339.047 31.4538 358.547 19.8518 370.198 -17.9985C393.358 -93.2367 428.592 -107.706 495.474 -98.8188" stroke="#EBEBEB" stroke-width="0.491817" stroke-miterlimit="10" stroke-linecap="round" stroke-linejoin="round"/>
<path d="M224.271 28.8966C233.223 24.7702 245.075 22.5571 262.009 23.1226C337.621 25.6358 355.975 13.065 367.661 -24.6132C390.55 -98.4054 426.158 -113.337 493.069 -103.658" stroke="#EBEBEB" stroke-width="0.491817" stroke-miterlimit="10" stroke-linecap="round" stroke-linejoin="round"/>
<path d="M223.637 21.6126C232.548 17.9633 244.155 16.0993 260.292 16.7485C336.189 19.8175 353.403 6.27775 365.123 -31.2233C387.732 -103.579 423.728 -118.968 490.669 -108.498" stroke="#EBEBEB" stroke-width="0.491817" stroke-miterlimit="10" stroke-linecap="round" stroke-linejoin="round"/>
<path d="M222.595 14.5649C231.506 11.2501 242.956 9.632 258.571 10.3746C334.764 13.9993 350.831 -0.514174 362.586 -37.8333C384.914 -108.753 421.294 -124.605 488.265 -113.337" stroke="#EBEBEB" stroke-width="0.491817" stroke-miterlimit="10" stroke-linecap="round" stroke-linejoin="round"/>
<path d="M221.144 7.70389C230.095 4.61036 241.495 3.16442 256.854 4.00051C333.337 8.18096 348.259 -7.30146 360.043 -44.4484C382.091 -113.927 418.859 -130.236 485.864 -118.177" stroke="#EBEBEB" stroke-width="0.491817" stroke-miterlimit="10" stroke-linecap="round" stroke-linejoin="round"/>
<path d="M219.305 0.990875C228.349 -1.98954 239.813 -3.31744 255.134 -2.37315C331.906 2.36305 345.687 -14.0932 357.505 -51.0581C379.268 -119.101 416.43 -135.867 483.46 -123.016" stroke="#EBEBEB" stroke-width="0.491817" stroke-miterlimit="10" stroke-linecap="round" stroke-linejoin="round"/>
<path d="M220.878 64.5974C229.849 54.8889 242.985 48.515 268.884 48.6183C343.331 48.9084 366.205 40.2033 377.817 1.83169C401.69 -77.7542 435.891 -90.807 502.679 -84.3003" stroke="#EBEBEB" stroke-width="0.491817" stroke-miterlimit="10" stroke-linecap="round" stroke-linejoin="round"/>
<path d="M212.379 87.7024C212.379 87.7125 212.374 87.7176 212.369 87.7227" stroke="#EBEBEB" stroke-width="0.491817" stroke-miterlimit="10" stroke-linecap="round" stroke-linejoin="round"/>
<path d="M131.711 280.2C131.711 280.2 152.707 235.898 196.341 215.566C256.854 187.375 313.236 205.941 336.76 179.589C345.593 169.694 349.488 159.317 351.529 149.49" stroke="#EBEBEB" stroke-width="0.491817" stroke-miterlimit="10" stroke-linecap="round" stroke-linejoin="round"/>
<path d="M137.26 283.643C137.26 283.643 157.144 239.596 202.863 219.505C262.978 193.09 319.045 211.69 342.648 185.142C351.972 174.671 355.681 163.571 357.505 153.139" stroke="#EBEBEB" stroke-width="0.491817" stroke-miterlimit="10" stroke-linecap="round" stroke-linejoin="round"/>
<path d="M142.807 287.086C142.807 287.086 161.54 243.284 209.384 223.44C269.032 198.701 324.848 217.434 348.534 190.699C358.503 179.466 361.926 167.422 363.475 156.218" stroke="#EBEBEB" stroke-width="0.491817" stroke-miterlimit="10" stroke-linecap="round" stroke-linejoin="round"/>
<path d="M148.359 290.529C148.359 290.529 165.898 246.958 215.901 227.374C275.027 204.225 330.656 223.179 354.421 196.257C365.187 184.094 368.157 170.865 369.392 158.766" stroke="#EBEBEB" stroke-width="0.491817" stroke-miterlimit="10" stroke-linecap="round" stroke-linejoin="round"/>
<path d="M153.907 293.971C153.907 293.971 170.221 250.613 222.422 231.309C280.968 209.664 336.46 228.928 360.308 201.81C371.999 188.57 374.31 173.914 375.21 160.822" stroke="#EBEBEB" stroke-width="0.491817" stroke-miterlimit="10" stroke-linecap="round" stroke-linejoin="round"/>
<path d="M159.455 297.414C159.455 297.414 174.519 254.252 228.944 235.248C286.865 215.025 342.269 234.673 366.195 207.367C378.929 192.903 380.306 176.579 380.901 162.44" stroke="#EBEBEB" stroke-width="0.491817" stroke-miterlimit="10" stroke-linecap="round" stroke-linejoin="round"/>
<path d="M165.003 300.857C165.003 300.857 178.789 257.862 235.466 239.183C292.723 220.312 348.072 240.422 372.083 212.925C385.976 197.098 386.065 178.827 386.478 163.649" stroke="#EBEBEB" stroke-width="0.491817" stroke-miterlimit="10" stroke-linecap="round" stroke-linejoin="round"/>
<path d="M170.55 304.299C170.55 304.299 183.027 261.442 241.981 243.117C298.55 225.535 353.88 246.167 377.969 218.477C393.137 201.15 391.514 180.637 391.991 164.515" stroke="#EBEBEB" stroke-width="0.491817" stroke-miterlimit="10" stroke-linecap="round" stroke-linejoin="round"/>
<path d="M519.77 93.6492C521.083 129.158 500.899 141.975 464.755 143.426" stroke="#EBEBEB" stroke-width="0.491817" stroke-miterlimit="10" stroke-linecap="round" stroke-linejoin="round"/>
<path d="M176.098 307.742C176.098 307.742 187.247 264.993 248.503 247.057C304.349 230.699 359.688 251.911 383.856 224.035C400.42 205.051 396.53 181.93 397.504 165.051" stroke="#EBEBEB" stroke-width="0.491817" stroke-miterlimit="10" stroke-linecap="round" stroke-linejoin="round"/>
<path d="M524.31 98.1788C525.962 137.662 501.101 149.215 458.111 148.457" stroke="#EBEBEB" stroke-width="0.491817" stroke-miterlimit="10" stroke-linecap="round" stroke-linejoin="round"/>
<path d="M181.646 311.185C181.646 311.185 191.447 268.51 255.025 250.991C310.123 235.804 365.492 257.66 389.743 229.592C407.867 208.764 400.986 182.56 403.209 165.268" stroke="#EBEBEB" stroke-width="0.491817" stroke-miterlimit="10" stroke-linecap="round" stroke-linejoin="round"/>
<path d="M528.849 102.709C530.875 146.146 500.894 155.933 451.014 152.908" stroke="#EBEBEB" stroke-width="0.491817" stroke-miterlimit="10" stroke-linecap="round" stroke-linejoin="round"/>
<path d="M187.193 314.627C187.193 314.627 195.633 271.992 261.546 254.926C315.877 240.86 371.3 263.405 395.63 235.145C415.559 212.177 404.616 182.191 409.426 165.125" stroke="#EBEBEB" stroke-width="0.491817" stroke-miterlimit="10" stroke-linecap="round" stroke-linejoin="round"/>
<path d="M533.389 107.238C535.808 154.403 500.599 162.076 444.374 156.966C443.986 156.931 443.602 156.897 443.224 156.872" stroke="#EBEBEB" stroke-width="0.491817" stroke-miterlimit="10" stroke-linecap="round" stroke-linejoin="round"/>
<path d="M192.741 318.07C192.741 318.07 199.794 275.43 268.068 258.86C321.617 245.867 377.104 269.149 401.518 240.703C423.777 214.966 406.682 179.786 417.133 164.382" stroke="#EBEBEB" stroke-width="0.491817" stroke-miterlimit="10" stroke-linecap="round" stroke-linejoin="round"/>
<path d="M198.29 321.514C198.29 321.514 203.946 278.823 274.586 262.798C327.339 250.831 382.854 274.848 407.404 246.258C437.737 210.934 393.212 156.814 449.046 161.89C504.881 166.966 540.596 159.472 537.926 111.766" stroke="#EBEBEB" stroke-width="0.491817" stroke-miterlimit="10" stroke-linecap="round" stroke-linejoin="round"/>
<path d="M203.838 324.958C203.838 324.958 208.083 282.17 281.106 266.734C333.053 255.753 388.658 280.593 413.291 251.814C443.356 216.689 398.272 161.773 453.717 166.814C509.162 171.855 545.382 164.538 542.464 116.294" stroke="#EBEBEB" stroke-width="0.491817" stroke-miterlimit="10" stroke-linecap="round" stroke-linejoin="round"/>
<path d="M209.387 328.4C209.387 328.4 212.21 285.466 287.627 270.669C338.759 260.638 394.464 286.339 419.179 257.37C448.976 222.443 403.333 166.733 458.388 171.738C513.444 176.743 550.169 169.604 547.004 120.823" stroke="#EBEBEB" stroke-width="0.491817" stroke-miterlimit="10" stroke-linecap="round" stroke-linejoin="round"/>
<path d="M214.935 331.843C214.935 331.843 216.325 288.708 294.147 274.605C344.458 265.488 400.27 292.085 425.065 262.926C454.596 228.199 408.393 171.691 463.059 176.661C517.725 181.631 554.954 174.67 551.543 125.351" stroke="#EBEBEB" stroke-width="0.491817" stroke-miterlimit="10" stroke-linecap="round" stroke-linejoin="round"/>
<path d="M220.482 335.286C220.482 335.286 220.434 291.892 300.667 278.542C350.153 270.307 406.076 297.832 430.953 268.482C460.217 233.955 413.453 176.651 467.73 181.586C522.006 186.52 559.742 179.736 556.081 129.88" stroke="#EBEBEB" stroke-width="0.491817" stroke-miterlimit="10" stroke-linecap="round" stroke-linejoin="round"/>
<path d="M226.031 338.729C226.031 338.729 224.536 295.015 307.188 282.477C355.846 275.095 411.883 303.579 436.84 274.038C465.839 239.712 418.514 181.611 472.401 186.509C526.289 191.408 564.528 184.802 560.621 134.409" stroke="#EBEBEB" stroke-width="0.491817" stroke-miterlimit="10" stroke-linecap="round" stroke-linejoin="round"/>
<path d="M231.579 342.171C231.579 342.171 228.634 298.074 313.708 286.413C361.539 279.857 417.75 309.376 442.727 279.594C471.529 245.526 423.573 186.569 477.071 191.433C530.569 196.297 569.314 189.868 565.159 138.937" stroke="#EBEBEB" stroke-width="0.491817" stroke-miterlimit="10" stroke-linecap="round" stroke-linejoin="round"/>
<path d="M237.128 345.614C237.128 345.614 232.729 301.064 320.229 290.349C367.233 284.593 423.557 315.122 448.614 285.149C477.149 251.281 428.634 191.529 481.743 196.357C534.851 201.185 574.101 194.934 569.699 143.466" stroke="#EBEBEB" stroke-width="0.491817" stroke-miterlimit="10" stroke-linecap="round" stroke-linejoin="round"/>
<path d="M242.675 349.057C242.675 349.057 236.823 303.981 326.749 294.284C372.929 289.305 429.362 320.869 454.501 290.705C482.769 257.036 433.694 196.488 486.414 201.281C539.132 206.074 578.886 200 574.237 147.994" stroke="#EBEBEB" stroke-width="0.491817" stroke-miterlimit="10" stroke-linecap="round" stroke-linejoin="round"/>
<path d="M248.223 352.5C248.223 352.5 240.919 306.821 333.269 298.221C378.63 293.996 435.169 326.615 460.387 296.262C488.388 262.791 438.755 201.448 491.084 206.205C543.413 210.962 583.673 205.067 578.776 152.523" stroke="#EBEBEB" stroke-width="0.491817" stroke-miterlimit="10" stroke-linecap="round" stroke-linejoin="round"/>
<path d="M253.771 355.943C253.771 355.943 245.019 309.58 339.79 302.157C384.337 298.667 440.975 332.361 466.275 301.817C494.008 268.546 443.815 206.407 495.755 211.129C547.695 215.851 588.459 210.133 583.315 157.052" stroke="#EBEBEB" stroke-width="0.491817" stroke-miterlimit="10" stroke-linecap="round" stroke-linejoin="round"/>
<path d="M259.32 359.385C259.32 359.385 249.124 312.254 346.311 306.092C390.051 303.319 446.782 338.108 472.162 307.373C499.629 274.301 448.876 211.366 500.426 216.053C551.977 220.739 593.248 215.199 587.854 161.58" stroke="#EBEBEB" stroke-width="0.491817" stroke-miterlimit="10" stroke-linecap="round" stroke-linejoin="round"/>
<path d="M264.868 362.829C264.868 362.829 253.238 314.839 352.831 310.028C395.774 307.954 452.588 343.854 478.049 312.929C505.249 280.056 453.936 216.325 505.097 220.977C556.259 225.627 598.034 220.266 592.392 166.109" stroke="#EBEBEB" stroke-width="0.491817" stroke-miterlimit="10" stroke-linecap="round" stroke-linejoin="round"/>
<path d="M270.416 366.271C270.416 366.271 257.839 324.367 359.351 313.964C401.31 309.665 458.394 349.601 483.936 318.485C510.868 285.812 458.996 221.285 509.768 225.9C560.539 230.516 602.819 225.332 596.932 170.638" stroke="#EBEBEB" stroke-width="0.491817" stroke-miterlimit="10" stroke-linecap="round" stroke-linejoin="round"/>
<path d="M275.964 369.714C275.964 369.714 261.752 325.322 365.872 317.9C407.152 314.957 464.201 355.347 489.823 324.041C516.488 291.567 464.057 226.244 514.439 230.824C564.821 235.405 607.604 230.398 601.471 175.166" stroke="#EBEBEB" stroke-width="0.491817" stroke-miterlimit="10" stroke-linecap="round" stroke-linejoin="round"/>
<path d="M404.011 -25.2231H404.055C456.66 -25.2231 499.305 17.4175 499.305 70.0272C499.305 122.632 456.66 165.273 404.055 165.273C351.45 165.273 308.805 122.632 308.805 70.0272C308.805 68.8222 308.829 67.6271 308.869 66.432" stroke="#EBEBEB" stroke-width="0.491817" stroke-miterlimit="10" stroke-linecap="round" stroke-linejoin="round"/>
<path d="M401.184 -19.8574C402.138 -19.887 403.097 -19.9017 404.056 -19.9017C453.719 -19.9017 493.985 20.3585 493.985 70.0271C493.985 119.691 453.719 159.951 404.056 159.951C354.387 159.951 314.127 119.691 314.127 70.0271C314.127 68.6894 314.156 67.3615 314.215 66.0385" stroke="#EBEBEB" stroke-width="0.491817" stroke-miterlimit="10" stroke-linecap="round" stroke-linejoin="round"/>
<path d="M398.562 -14.4031C400.377 -14.5211 402.211 -14.5801 404.056 -14.5801C450.783 -14.5801 488.663 23.2997 488.663 70.0272C488.663 116.75 450.783 154.635 404.056 154.635C357.328 154.635 319.448 116.75 319.448 70.0272C319.448 68.5272 319.488 67.0419 319.561 65.5615" stroke="#EBEBEB" stroke-width="0.491817" stroke-miterlimit="10" stroke-linecap="round" stroke-linejoin="round"/>
<path d="M396.132 -8.87016C398.739 -9.13083 401.38 -9.26362 404.055 -9.26362C447.842 -9.26362 483.341 26.2358 483.341 70.0272C483.341 113.814 447.842 149.313 404.055 149.313C360.264 149.313 324.77 113.814 324.77 70.0272C324.77 68.3304 324.824 66.6435 324.932 64.9762" stroke="#EBEBEB" stroke-width="0.491817" stroke-miterlimit="10" stroke-linecap="round" stroke-linejoin="round"/>
<path d="M393.85 -3.24379C397.185 -3.7061 400.593 -3.94215 404.055 -3.94215C444.906 -3.94215 478.02 29.1768 478.02 70.0272C478.02 110.873 444.906 143.992 404.055 143.992C363.205 143.992 330.091 110.873 330.091 70.0272C330.091 68.0845 330.165 66.1615 330.312 64.2581" stroke="#EBEBEB" stroke-width="0.491817" stroke-miterlimit="10" stroke-linecap="round" stroke-linejoin="round"/>
<path d="M391.691 2.49076C395.704 1.75795 399.835 1.37925 404.055 1.37925C441.964 1.37925 472.698 32.1129 472.698 70.0271C472.698 107.936 441.964 138.67 404.055 138.67C366.146 138.67 335.412 107.936 335.412 70.0271C335.412 67.7795 335.52 65.5614 335.732 63.3679" stroke="#EBEBEB" stroke-width="0.491817" stroke-miterlimit="10" stroke-linecap="round" stroke-linejoin="round"/>
<path d="M389.64 8.35321C394.268 7.27121 399.097 6.7007 404.055 6.7007C439.028 6.7007 467.376 35.054 467.376 70.0271C467.376 104.995 439.028 133.349 404.055 133.349C369.082 133.349 340.733 104.995 340.733 70.0271C340.733 67.3959 340.896 64.7991 341.206 62.2515" stroke="#EBEBEB" stroke-width="0.491817" stroke-miterlimit="10" stroke-linecap="round" stroke-linejoin="round"/>
<path d="M387.663 14.373C392.862 12.8435 398.36 12.0221 404.056 12.0221C436.088 12.0221 462.056 37.9901 462.056 70.027C462.056 102.059 436.088 128.027 404.056 128.027C372.024 128.027 346.056 102.059 346.056 70.027C346.056 66.8991 346.302 63.8252 346.784 60.8301" stroke="#EBEBEB" stroke-width="0.491817" stroke-miterlimit="10" stroke-linecap="round" stroke-linejoin="round"/>
<path d="M385.745 20.6141C391.445 18.4993 397.618 17.3435 404.056 17.3435C433.151 17.3435 456.734 40.9311 456.734 70.027C456.734 99.118 433.151 122.706 404.056 122.706C374.96 122.706 351.377 99.118 351.377 70.027C351.377 66.2302 351.78 62.5268 352.547 58.9562" stroke="#EBEBEB" stroke-width="0.491817" stroke-miterlimit="10" stroke-linecap="round" stroke-linejoin="round"/>
<path d="M383.576 27.3126C389.778 24.3322 396.722 22.665 404.055 22.665C430.21 22.665 451.412 43.8672 451.412 70.027C451.412 96.1818 430.21 117.384 404.055 117.384C377.901 117.384 356.693 96.1818 356.693 70.027C356.693 65.2613 357.397 60.6628 358.705 56.3298" stroke="#EBEBEB" stroke-width="0.491817" stroke-miterlimit="10" stroke-linecap="round" stroke-linejoin="round"/>
<path d="M379.941 35.5903C386.768 30.8 395.084 27.9868 404.055 27.9868C427.269 27.9868 446.091 46.8086 446.091 70.0273C446.091 93.2411 427.269 112.063 404.055 112.063C380.836 112.063 362.015 93.2411 362.015 70.0273C362.015 63.5304 363.49 57.3778 366.121 51.8842" stroke="#EBEBEB" stroke-width="0.491817" stroke-miterlimit="10" stroke-linecap="round" stroke-linejoin="round"/>
<path d="M404.054 33.3087C424.332 33.3087 440.771 49.7472 440.771 70.0248C440.771 90.3029 424.332 106.741 404.054 106.741C383.776 106.741 367.338 90.3029 367.338 70.0248C367.338 49.7472 383.776 33.3087 404.054 33.3087Z" stroke="#EBEBEB" stroke-width="0.491817" stroke-miterlimit="10" stroke-linecap="round" stroke-linejoin="round"/>
<path d="M404.054 38.6296C421.394 38.6296 435.45 52.6858 435.45 70.0248C435.45 87.3643 421.394 101.42 404.054 101.42C386.715 101.42 372.659 87.3643 372.659 70.0248C372.659 52.6858 386.715 38.6296 404.054 38.6296Z" stroke="#EBEBEB" stroke-width="0.491817" stroke-miterlimit="10" stroke-linecap="round" stroke-linejoin="round"/>
<path d="M404.054 43.9509C418.455 43.9509 430.128 55.6242 430.128 70.0246C430.128 84.425 418.455 96.0988 404.054 96.0988C389.654 96.0988 377.98 84.425 377.98 70.0246C377.98 55.6242 389.654 43.9509 404.054 43.9509Z" stroke="#EBEBEB" stroke-width="0.491817" stroke-miterlimit="10" stroke-linecap="round" stroke-linejoin="round"/>
<path d="M404.054 49.2719C415.516 49.2719 424.807 58.5633 424.807 70.0246C424.807 81.4859 415.516 90.7773 404.054 90.7773C392.593 90.7773 383.302 81.4859 383.302 70.0246C383.302 58.5633 392.593 49.2719 404.054 49.2719Z" stroke="#EBEBEB" stroke-width="0.491817" stroke-miterlimit="10" stroke-linecap="round" stroke-linejoin="round"/>
<path d="M404.054 54.5935C412.577 54.5935 419.486 61.5026 419.486 70.0248C419.486 78.5475 412.577 85.4565 404.054 85.4565C395.532 85.4565 388.623 78.5475 388.623 70.0248C388.623 61.5026 395.532 54.5935 404.054 54.5935Z" stroke="#EBEBEB" stroke-width="0.491817" stroke-miterlimit="10" stroke-linecap="round" stroke-linejoin="round"/>
<path d="M414.165 70.0247C414.165 75.6088 409.639 80.135 404.055 80.135C398.471 80.135 393.944 75.6088 393.944 70.0247C393.944 64.4411 398.471 59.9145 404.055 59.9145C409.639 59.9145 414.165 64.4411 414.165 70.0247Z" stroke="#EBEBEB" stroke-width="0.491817" stroke-miterlimit="10" stroke-linecap="round" stroke-linejoin="round"/>
<path d="M409.691 70.0248C409.691 73.138 407.167 75.6615 404.054 75.6615C400.941 75.6615 398.418 73.138 398.418 70.0248C398.418 66.9121 400.941 64.3886 404.054 64.3886C407.167 64.3886 409.691 66.9121 409.691 70.0248Z" stroke="#EBEBEB" stroke-width="0.491817" stroke-miterlimit="10" stroke-linecap="round" stroke-linejoin="round"/>
<path d="M224.461 35.6122C224.461 100.834 171.589 153.706 106.368 153.706C41.1458 153.706 -11.7266 100.834 -11.7266 35.6122C-11.7266 -29.6091 41.1458 -82.4815 106.368 -82.4815C171.589 -82.4815 224.461 -29.6091 224.461 35.6122Z" stroke="#EBEBEB" stroke-width="0.491817" stroke-miterlimit="10" stroke-linecap="round" stroke-linejoin="round"/>
<path d="M106.368 -75.8844C167.946 -75.8844 217.864 -25.9654 217.864 35.6121C217.864 97.1901 167.946 147.109 106.368 147.109C44.7901 147.109 -5.12891 97.1901 -5.12891 35.6121C-5.12891 -25.9654 44.7901 -75.8844 106.368 -75.8844Z" stroke="#EBEBEB" stroke-width="0.491817" stroke-miterlimit="10" stroke-linecap="round" stroke-linejoin="round"/>
<path d="M106.368 -69.2865C164.302 -69.2865 211.267 -22.3218 211.267 35.6123C211.267 93.5464 164.302 140.512 106.368 140.512C48.4339 140.512 1.46875 93.5464 1.46875 35.6123C1.46875 -22.3218 48.4339 -69.2865 106.368 -69.2865Z" stroke="#EBEBEB" stroke-width="0.491817" stroke-miterlimit="10" stroke-linecap="round" stroke-linejoin="round"/>
<path d="M106.367 -62.6892C160.658 -62.6892 204.669 -18.678 204.669 35.6123C204.669 89.903 160.658 133.914 106.367 133.914C52.0766 133.914 8.06543 89.903 8.06543 35.6123C8.06543 -18.678 52.0766 -62.6892 106.367 -62.6892Z" stroke="#EBEBEB" stroke-width="0.491817" stroke-miterlimit="10" stroke-linecap="round" stroke-linejoin="round"/>
<path d="M106.367 -56.0922C157.014 -56.0922 198.071 -15.0348 198.071 35.6121C198.071 86.259 157.014 127.316 106.367 127.316C55.7202 127.316 14.6631 86.259 14.6631 35.6121C14.6631 -15.0348 55.7202 -56.0922 106.367 -56.0922Z" stroke="#EBEBEB" stroke-width="0.491817" stroke-miterlimit="10" stroke-linecap="round" stroke-linejoin="round"/>
<path d="M106.368 -49.4945C153.371 -49.4945 191.474 -11.3909 191.474 35.6121C191.474 82.6151 153.371 120.719 106.368 120.719C59.3643 120.719 21.2607 82.6151 21.2607 35.6121C21.2607 -11.3909 59.3643 -49.4945 106.368 -49.4945Z" stroke="#EBEBEB" stroke-width="0.491817" stroke-miterlimit="10" stroke-linecap="round" stroke-linejoin="round"/>
<path d="M106.368 -42.897C149.727 -42.897 184.877 -7.74731 184.877 35.6123C184.877 78.9719 149.727 114.122 106.368 114.122C63.0082 114.122 27.8584 78.9719 27.8584 35.6123C27.8584 -7.74731 63.0082 -42.897 106.368 -42.897Z" stroke="#EBEBEB" stroke-width="0.491817" stroke-miterlimit="10" stroke-linecap="round" stroke-linejoin="round"/>
<path d="M106.368 -36.2994C146.084 -36.2994 178.28 -4.10358 178.28 35.6121C178.28 75.3279 146.084 107.524 106.368 107.524C66.652 107.524 34.4561 75.3279 34.4561 35.6121C34.4561 -4.10358 66.652 -36.2994 106.368 -36.2994Z" stroke="#EBEBEB" stroke-width="0.491817" stroke-miterlimit="10" stroke-linecap="round" stroke-linejoin="round"/>
<path d="M106.367 -29.702C142.44 -29.702 171.682 -0.459503 171.682 35.6123C171.682 71.6847 142.44 100.927 106.367 100.927C70.2951 100.927 41.0527 71.6847 41.0527 35.6123C41.0527 -0.459503 70.2951 -29.702 106.367 -29.702Z" stroke="#EBEBEB" stroke-width="0.491817" stroke-miterlimit="10" stroke-linecap="round" stroke-linejoin="round"/>
<path d="M106.368 -23.1048C138.796 -23.1048 165.085 3.18385 165.085 35.6123C165.085 68.0408 138.796 94.3294 106.368 94.3294C73.9392 94.3294 47.6504 68.0408 47.6504 35.6123C47.6504 3.18385 73.9392 -23.1048 106.368 -23.1048Z" stroke="#EBEBEB" stroke-width="0.491817" stroke-miterlimit="10" stroke-linecap="round" stroke-linejoin="round"/>
<path d="M106.368 -16.5072C135.153 -16.5072 158.487 6.82759 158.487 35.6122C158.487 64.3973 135.153 87.732 106.368 87.732C77.5827 87.732 54.248 64.3973 54.248 35.6122C54.248 6.82759 77.5827 -16.5072 106.368 -16.5072Z" stroke="#EBEBEB" stroke-width="0.491817" stroke-miterlimit="10" stroke-linecap="round" stroke-linejoin="round"/>
<path d="M106.367 -9.90997C131.508 -9.90997 151.889 10.471 151.889 35.6122C151.889 60.7534 131.508 81.1343 106.367 81.1343C81.2257 81.1343 60.8447 60.7534 60.8447 35.6122C60.8447 10.471 81.2257 -9.90997 106.367 -9.90997Z" stroke="#EBEBEB" stroke-width="0.491817" stroke-miterlimit="10" stroke-linecap="round" stroke-linejoin="round"/>
<path d="M106.367 -3.3125C127.865 -3.3125 145.292 14.1146 145.292 35.6124C145.292 57.1097 127.865 74.5373 106.367 74.5373C84.8698 74.5373 67.4424 57.1097 67.4424 35.6124C67.4424 14.1146 84.8698 -3.3125 106.367 -3.3125Z" stroke="#EBEBEB" stroke-width="0.491817" stroke-miterlimit="10" stroke-linecap="round" stroke-linejoin="round"/>
<path d="M106.367 3.28472C124.221 3.28472 138.695 17.7584 138.695 35.6124C138.695 53.4663 124.221 67.9395 106.367 67.9395C88.5133 67.9395 74.04 53.4663 74.04 35.6124C74.04 17.7584 88.5133 3.28472 106.367 3.28472Z" stroke="#EBEBEB" stroke-width="0.491817" stroke-miterlimit="10" stroke-linecap="round" stroke-linejoin="round"/>
<path d="M106.368 9.88227C120.578 9.88227 132.098 21.4021 132.098 35.6122C132.098 49.8223 120.578 61.3421 106.368 61.3421C92.1575 61.3421 80.6377 49.8223 80.6377 35.6122C80.6377 21.4021 92.1575 9.88227 106.368 9.88227Z" stroke="#EBEBEB" stroke-width="0.491817" stroke-miterlimit="10" stroke-linecap="round" stroke-linejoin="round"/>
<path d="M106.367 16.4802C116.934 16.4802 125.499 25.0457 125.499 35.6124C125.499 46.1791 116.934 54.7451 106.367 54.7451C95.8003 54.7451 87.2344 46.1791 87.2344 35.6124C87.2344 25.0457 95.8003 16.4802 106.367 16.4802Z" stroke="#EBEBEB" stroke-width="0.491817" stroke-miterlimit="10" stroke-linecap="round" stroke-linejoin="round"/>
<path d="M118.902 35.6123C118.902 42.5351 113.29 48.1477 106.367 48.1477C99.4439 48.1477 93.832 42.5351 93.832 35.6123C93.832 28.6894 99.4439 23.0768 106.367 23.0768C113.29 23.0768 118.902 28.6894 118.902 35.6123Z" stroke="#EBEBEB" stroke-width="0.491817" stroke-miterlimit="10" stroke-linecap="round" stroke-linejoin="round"/>
<path d="M113.836 35.6123C113.836 39.7372 110.492 43.0805 106.368 43.0805C102.243 43.0805 98.8994 39.7372 98.8994 35.6123C98.8994 31.4879 102.243 28.1445 106.368 28.1445C110.492 28.1445 113.836 31.4879 113.836 35.6123Z" stroke="#EBEBEB" stroke-width="0.491817" stroke-miterlimit="10" stroke-linecap="round" stroke-linejoin="round"/>
<path d="M185.344 221.453C182.949 214.784 181.646 207.588 181.646 200.093C181.646 165.159 209.964 136.84 244.898 136.84C277.638 136.84 304.565 161.712 307.821 193.591" stroke="#EBEBEB" stroke-width="0.491817" stroke-miterlimit="10" stroke-linecap="round" stroke-linejoin="round"/>
<path d="M190.199 218.659C188.222 212.831 187.149 206.585 187.149 200.093C187.149 168.199 213.004 142.339 244.899 142.339C274.909 142.339 299.579 165.233 302.382 194.511" stroke="#EBEBEB" stroke-width="0.491817" stroke-miterlimit="10" stroke-linecap="round" stroke-linejoin="round"/>
<path d="M195.161 216.131C193.528 211.08 192.647 205.69 192.647 200.093C192.647 171.238 216.043 147.843 244.898 147.843C272.12 147.843 294.483 168.666 296.923 195.249" stroke="#EBEBEB" stroke-width="0.491817" stroke-miterlimit="10" stroke-linecap="round" stroke-linejoin="round"/>
<path d="M200.202 213.83C198.869 209.487 198.151 204.874 198.151 200.093C198.151 174.273 219.078 153.341 244.899 153.341C269.288 153.341 289.32 172.02 291.459 195.854" stroke="#EBEBEB" stroke-width="0.491817" stroke-miterlimit="10" stroke-linecap="round" stroke-linejoin="round"/>
<path d="M205.312 211.71C204.23 208.026 203.649 204.126 203.649 200.093C203.649 177.312 222.117 158.845 244.898 158.845C266.43 158.845 284.106 175.34 285.98 196.385" stroke="#EBEBEB" stroke-width="0.491817" stroke-miterlimit="10" stroke-linecap="round" stroke-linejoin="round"/>
<path d="M210.476 209.757C209.616 206.683 209.153 203.442 209.153 200.093C209.153 180.351 225.157 164.348 244.899 164.348C263.558 164.348 278.883 178.645 280.501 196.881" stroke="#EBEBEB" stroke-width="0.491817" stroke-miterlimit="10" stroke-linecap="round" stroke-linejoin="round"/>
<path d="M215.694 207.977C215.01 205.464 214.651 202.818 214.651 200.093C214.651 183.386 228.191 169.846 244.898 169.846C260.685 169.846 273.645 181.94 275.022 197.368" stroke="#EBEBEB" stroke-width="0.491817" stroke-miterlimit="10" stroke-linecap="round" stroke-linejoin="round"/>
<path d="M220.957 206.364C220.436 204.362 220.155 202.262 220.155 200.093C220.155 186.426 231.231 175.35 244.899 175.35C257.819 175.35 268.427 185.245 269.544 197.875" stroke="#EBEBEB" stroke-width="0.491817" stroke-miterlimit="10" stroke-linecap="round" stroke-linejoin="round"/>
<path d="M31.6709 176.097C78.3936 222.156 117.321 196.832 139.256 261.708C139.669 262.933 140.087 264.143 140.505 265.333" stroke="#EBEBEB" stroke-width="0.491817" stroke-miterlimit="10" stroke-linecap="round" stroke-linejoin="round"/>
<path d="M37.4102 172.365C83.8476 218.133 122.529 192.972 144.336 257.444C144.528 258.005 144.715 258.56 144.907 259.116" stroke="#EBEBEB" stroke-width="0.491817" stroke-miterlimit="10" stroke-linecap="round" stroke-linejoin="round"/>
<path d="M43.1553 168.627C89.3024 214.115 127.743 189.106 149.412 253.18C149.422 253.214 149.437 253.244 149.447 253.278" stroke="#EBEBEB" stroke-width="0.491817" stroke-miterlimit="10" stroke-linecap="round" stroke-linejoin="round"/>
<path d="M48.8945 164.889C94.4859 209.826 132.508 185.53 154.109 247.804" stroke="#EBEBEB" stroke-width="0.491817" stroke-miterlimit="10" stroke-linecap="round" stroke-linejoin="round"/>
<path d="M54.6387 161.156C99.7285 205.602 137.367 181.886 158.884 242.689" stroke="#EBEBEB" stroke-width="0.491817" stroke-miterlimit="10" stroke-linecap="round" stroke-linejoin="round"/>
<path d="M62.9209 159.858C106.462 200.595 142.772 179.299 163.773 237.899" stroke="#EBEBEB" stroke-width="0.491817" stroke-miterlimit="10" stroke-linecap="round" stroke-linejoin="round"/>
<path d="M77.543 163.689C116.795 193.99 149.353 179.496 168.78 233.433" stroke="#EBEBEB" stroke-width="0.491817" stroke-miterlimit="10" stroke-linecap="round" stroke-linejoin="round"/>
<path d="M91.4414 165.691C126.778 188.304 155.978 179.398 173.9 229.297" stroke="#EBEBEB" stroke-width="0.491817" stroke-miterlimit="10" stroke-linecap="round" stroke-linejoin="round"/>
<path d="M104.839 166.404C136.541 183.371 162.667 179.161 179.138 225.466" stroke="#EBEBEB" stroke-width="0.491817" stroke-miterlimit="10" stroke-linecap="round" stroke-linejoin="round"/>
<path d="M117.291 165.961C145.846 179.132 169.335 178.601 184.483 221.974" stroke="#EBEBEB" stroke-width="0.491817" stroke-miterlimit="10" stroke-linecap="round" stroke-linejoin="round"/>
<path d="M128.52 164.564C149.845 173.427 168.052 176.515 181.646 200.024" stroke="#EBEBEB" stroke-width="0.491817" stroke-miterlimit="10" stroke-linecap="round" stroke-linejoin="round"/>
<path d="M138.548 162.489C155.687 169.192 170.629 173.265 182.546 189.406" stroke="#EBEBEB" stroke-width="0.491817" stroke-miterlimit="10" stroke-linecap="round" stroke-linejoin="round"/>
<path d="M147.504 159.916C161.58 165.282 174.072 169.507 184.479 181.31" stroke="#EBEBEB" stroke-width="0.491817" stroke-miterlimit="10" stroke-linecap="round" stroke-linejoin="round"/>
<path d="M155.564 156.99C167.334 161.446 177.927 165.479 187.051 174.474" stroke="#EBEBEB" stroke-width="0.491817" stroke-miterlimit="10" stroke-linecap="round" stroke-linejoin="round"/>
<path d="M162.868 153.774C172.911 157.59 182.064 161.309 190.125 168.44" stroke="#EBEBEB" stroke-width="0.491817" stroke-miterlimit="10" stroke-linecap="round" stroke-linejoin="round"/>
<path d="M193.666 162.991C186.421 157.094 178.336 153.685 169.537 150.321" stroke="#EBEBEB" stroke-width="0.491817" stroke-miterlimit="10" stroke-linecap="round" stroke-linejoin="round"/>
<path d="M197.684 157.999C191.005 152.884 183.628 149.726 175.665 146.662" stroke="#EBEBEB" stroke-width="0.491817" stroke-miterlimit="10" stroke-linecap="round" stroke-linejoin="round"/>
<path d="M202.194 153.434C195.835 148.733 188.846 145.728 181.331 142.826" stroke="#EBEBEB" stroke-width="0.491817" stroke-miterlimit="10" stroke-linecap="round" stroke-linejoin="round"/>
<path d="M207.235 149.269C200.925 144.646 194 141.685 186.554 138.818" stroke="#EBEBEB" stroke-width="0.491817" stroke-miterlimit="10" stroke-linecap="round" stroke-linejoin="round"/>
<path d="M212.856 145.546C206.34 140.677 199.154 137.642 191.403 134.671" stroke="#EBEBEB" stroke-width="0.491817" stroke-miterlimit="10" stroke-linecap="round" stroke-linejoin="round"/>
<path d="M219.127 142.31H219.122C212.133 136.816 204.348 133.614 195.898 130.388" stroke="#EBEBEB" stroke-width="0.491817" stroke-miterlimit="10" stroke-linecap="round" stroke-linejoin="round"/>
<path d="M226.072 139.693H226.067C218.365 133.078 209.635 129.611 200.069 125.981" stroke="#EBEBEB" stroke-width="0.491817" stroke-miterlimit="10" stroke-linecap="round" stroke-linejoin="round"/>
<path d="M233.665 137.839H233.66C225.048 129.424 215.045 125.667 203.935 121.462" stroke="#EBEBEB" stroke-width="0.491817" stroke-miterlimit="10" stroke-linecap="round" stroke-linejoin="round"/>
<path d="M241.81 136.914H241.805C232.17 125.775 220.583 121.806 207.516 116.838" stroke="#EBEBEB" stroke-width="0.491817" stroke-miterlimit="10" stroke-linecap="round" stroke-linejoin="round"/>
<path d="M250.299 137.072H250.294C239.621 121.998 226.214 118.029 210.815 112.087" stroke="#EBEBEB" stroke-width="0.491817" stroke-miterlimit="10" stroke-linecap="round" stroke-linejoin="round"/>
<path d="M213.85 107.228C231.87 114.369 247.269 117.945 258.885 138.395" stroke="#EBEBEB" stroke-width="0.491817" stroke-miterlimit="10" stroke-linecap="round" stroke-linejoin="round"/>
<path d="M216.732 102.271C237.571 110.858 255.045 113.499 267.404 140.967" stroke="#EBEBEB" stroke-width="0.491817" stroke-miterlimit="10" stroke-linecap="round" stroke-linejoin="round"/>
<path d="M219.604 97.2639C243.345 107.533 262.894 108.6 275.731 144.852" stroke="#EBEBEB" stroke-width="0.491817" stroke-miterlimit="10" stroke-linecap="round" stroke-linejoin="round"/>
<path d="M222.629 92.2669C247.677 103.692 268.235 103.352 281.396 142.275C282.38 145.177 283.363 147.97 284.362 150.665" stroke="#EBEBEB" stroke-width="0.491817" stroke-miterlimit="10" stroke-linecap="round" stroke-linejoin="round"/>
<path d="M225.998 87.3685C251.833 99.7672 273.031 98.277 286.472 138.011C289.821 147.916 293.234 156.572 296.933 164.117C296.933 164.122 296.938 164.126 296.938 164.131" stroke="#EBEBEB" stroke-width="0.491817" stroke-miterlimit="10" stroke-linecap="round" stroke-linejoin="round"/>
<path d="M303.007 175.064V175.069C307.094 181.537 311.594 186.942 316.738 191.442" stroke="#EBEBEB" stroke-width="0.491817" stroke-miterlimit="10" stroke-linecap="round" stroke-linejoin="round"/>
<path d="M229.933 82.7061C256.294 95.8671 277.934 93.4966 291.547 133.747C300.474 160.148 309.838 177.583 323.968 188.762" stroke="#EBEBEB" stroke-width="0.491817" stroke-miterlimit="10" stroke-linecap="round" stroke-linejoin="round"/>
<path d="M234.693 78.4273C261.212 91.9425 282.98 89.1342 296.623 129.478C305.795 156.607 315.43 174.199 330.303 185.23" stroke="#EBEBEB" stroke-width="0.491817" stroke-miterlimit="10" stroke-linecap="round" stroke-linejoin="round"/>
<path d="M240.512 74.6945C266.706 87.944 288.208 85.3128 301.699 125.214C310.896 152.402 320.555 169.94 335.565 180.863" stroke="#EBEBEB" stroke-width="0.491817" stroke-miterlimit="10" stroke-linecap="round" stroke-linejoin="round"/>
<path d="M247.696 71.6303C272.941 83.8766 293.666 82.1896 306.773 120.95C315.798 147.631 325.271 164.948 339.887 175.807" stroke="#EBEBEB" stroke-width="0.491817" stroke-miterlimit="10" stroke-linecap="round" stroke-linejoin="round"/>
<path d="M256.662 69.3387C280.161 79.8292 299.445 79.9964 311.849 116.686C320.579 142.497 329.736 159.474 343.63 170.299" stroke="#EBEBEB" stroke-width="0.491817" stroke-miterlimit="10" stroke-linecap="round" stroke-linejoin="round"/>
<path d="M268.181 67.9712C288.778 76.1551 305.696 79.1945 316.93 112.417C325.236 136.988 333.932 153.488 346.798 164.274" stroke="#EBEBEB" stroke-width="0.491817" stroke-miterlimit="10" stroke-linecap="round" stroke-linejoin="round"/>
<path d="M331.178 131.352C336.411 142.378 342.239 150.98 349.385 157.61" stroke="#EBEBEB" stroke-width="0.491817" stroke-miterlimit="10" stroke-linecap="round" stroke-linejoin="round"/>
<path d="M282.744 67.5434C293.053 71.4926 302.23 75.5108 309.971 84.9684" stroke="#EBEBEB" stroke-width="0.491817" stroke-miterlimit="10" stroke-linecap="round" stroke-linejoin="round"/>
<path d="M351.391 150.129C350.801 149.505 350.221 148.87 349.65 148.216" stroke="#EBEBEB" stroke-width="0.491817" stroke-miterlimit="10" stroke-linecap="round" stroke-linejoin="round"/>
<path d="M308.913 74.6107C305.072 71.4336 300.95 69.0926 296.578 67.0859" stroke="#EBEBEB" stroke-width="0.491817" stroke-miterlimit="10" stroke-linecap="round" stroke-linejoin="round"/>
<path d="M308.859 66.8008C308.677 66.6877 308.495 66.5746 308.313 66.4664" stroke="#EBEBEB" stroke-width="0.491817" stroke-miterlimit="10" stroke-linecap="round" stroke-linejoin="round"/>
<path d="M663.223 32.4284V278.288H1032.04V32.4284H663.223Z" stroke="#EBEBEB" stroke-width="0.0491817"/>
<path d="M620.91 347.781C687.606 351.907 720.611 340.218 745.364 256.332C756.847 217.417 783.181 211.639 856.753 210.264C905.349 209.356 905.632 185.411 922.816 161.796C949.151 125.607 989.224 111.588 1024.43 111.588C1030.83 111.588 1061.31 111.891 1083.15 125.115" stroke="#EBEBEB" stroke-width="0.491817" stroke-miterlimit="10" stroke-linecap="round" stroke-linejoin="round"/>
<path d="M623.312 352.621C690.039 357.539 723.442 345.395 747.903 262.943C759.428 224.21 784.609 217.457 858.472 216.637C892.786 216.256 905.233 205.206 913.722 189.184C916.608 183.737 924.052 169.103 931.814 160.764C955.272 135.562 987.302 117.819 1024.43 117.819C1044.14 117.819 1069.95 121.782 1096.34 140.992" stroke="#EBEBEB" stroke-width="0.491817" stroke-miterlimit="10" stroke-linecap="round" stroke-linejoin="round"/>
<path d="M999.086 -2.20035C999.086 -2.20035 978.09 42.1024 934.456 62.4343C873.943 90.6252 817.561 72.0591 794.037 98.4106C785.204 108.306 781.309 118.683 779.268 128.51" stroke="#EBEBEB" stroke-width="0.491817" stroke-miterlimit="10" stroke-linecap="round" stroke-linejoin="round"/>
<path d="M993.537 -5.64296C993.537 -5.64296 973.653 38.4041 927.934 58.4948C867.819 84.9103 811.752 66.3097 788.149 92.8581C778.824 103.329 775.116 114.429 773.292 124.861" stroke="#EBEBEB" stroke-width="0.491817" stroke-miterlimit="10" stroke-linecap="round" stroke-linejoin="round"/>
<path d="M987.99 -9.08556C987.99 -9.08556 969.257 34.7156 921.413 54.5604C861.765 79.2988 805.949 60.5656 782.263 87.3007C772.294 98.5338 768.871 110.578 767.322 121.782" stroke="#EBEBEB" stroke-width="0.491817" stroke-miterlimit="10" stroke-linecap="round" stroke-linejoin="round"/>
<path d="M982.438 -12.5285C982.438 -12.5285 964.899 31.0415 914.896 50.6256C855.77 73.7754 800.14 54.8209 776.376 81.7429C765.61 93.9056 762.639 107.135 761.405 119.234" stroke="#EBEBEB" stroke-width="0.491817" stroke-miterlimit="10" stroke-linecap="round" stroke-linejoin="round"/>
<path d="M976.89 -15.9711C976.89 -15.9711 960.576 27.3874 908.375 46.6912C849.829 68.3362 794.337 49.0717 770.489 76.1905C758.798 89.4302 756.487 104.086 755.587 117.178" stroke="#EBEBEB" stroke-width="0.491817" stroke-miterlimit="10" stroke-linecap="round" stroke-linejoin="round"/>
<path d="M971.342 -19.4141C971.342 -19.4141 956.277 23.7478 901.853 42.7515C843.932 62.9752 788.528 43.3271 764.601 70.6328C751.868 85.0971 750.491 101.421 749.896 115.56" stroke="#EBEBEB" stroke-width="0.491817" stroke-miterlimit="10" stroke-linecap="round" stroke-linejoin="round"/>
<path d="M965.794 -22.8567C965.794 -22.8567 952.008 20.1381 895.331 38.8171C838.074 57.6883 782.725 37.5778 758.714 65.0754C744.82 80.9021 744.732 99.173 744.319 114.351" stroke="#EBEBEB" stroke-width="0.491817" stroke-miterlimit="10" stroke-linecap="round" stroke-linejoin="round"/>
<path d="M960.247 -26.2993C960.247 -26.2993 947.77 16.5577 888.816 34.8827C832.247 52.4652 776.917 31.8334 752.828 59.5229C737.66 76.8495 739.283 97.3633 738.806 113.485" stroke="#EBEBEB" stroke-width="0.491817" stroke-miterlimit="10" stroke-linecap="round" stroke-linejoin="round"/>
<path d="M611.027 184.351C609.714 148.842 629.898 136.025 666.042 134.574" stroke="#EBEBEB" stroke-width="0.491817" stroke-miterlimit="10" stroke-linecap="round" stroke-linejoin="round"/>
<path d="M954.699 -29.7422C954.699 -29.7422 943.55 13.0066 882.294 30.9431C826.448 47.3008 771.109 26.089 746.941 53.965C730.376 72.9491 734.267 96.0695 733.293 112.949" stroke="#EBEBEB" stroke-width="0.491817" stroke-miterlimit="10" stroke-linecap="round" stroke-linejoin="round"/>
<path d="M606.487 179.821C604.834 140.338 629.696 128.785 672.686 129.543" stroke="#EBEBEB" stroke-width="0.491817" stroke-miterlimit="10" stroke-linecap="round" stroke-linejoin="round"/>
<path d="M949.151 -33.1848C949.151 -33.1848 939.349 9.49025 875.772 27.0087C820.674 42.1961 765.305 20.3396 741.054 48.4076C722.93 69.2362 729.811 95.4402 727.588 112.732" stroke="#EBEBEB" stroke-width="0.491817" stroke-miterlimit="10" stroke-linecap="round" stroke-linejoin="round"/>
<path d="M601.948 175.291C599.922 131.854 629.903 122.067 679.783 125.092" stroke="#EBEBEB" stroke-width="0.491817" stroke-miterlimit="10" stroke-linecap="round" stroke-linejoin="round"/>
<path d="M943.604 -36.6274C943.604 -36.6274 935.164 6.00825 869.251 23.0743C814.92 37.1403 759.497 14.5952 735.166 42.8552C715.238 65.823 726.181 95.8091 721.371 112.875" stroke="#EBEBEB" stroke-width="0.491817" stroke-miterlimit="10" stroke-linecap="round" stroke-linejoin="round"/>
<path d="M597.408 170.762C594.989 123.597 630.198 115.924 686.422 121.034C686.811 121.069 687.195 121.103 687.573 121.128" stroke="#EBEBEB" stroke-width="0.491817" stroke-miterlimit="10" stroke-linecap="round" stroke-linejoin="round"/>
<path d="M938.056 -40.0704C938.056 -40.0704 931.003 2.57026 862.729 19.1395C809.18 32.1333 753.693 8.85077 729.279 37.2974C707.02 63.0342 724.115 98.2139 713.664 113.618" stroke="#EBEBEB" stroke-width="0.491817" stroke-miterlimit="10" stroke-linecap="round" stroke-linejoin="round"/>
<path d="M932.507 -43.5145C932.507 -43.5145 926.851 -0.823345 856.211 15.2016C803.457 27.169 747.943 3.15158 723.392 31.7415C693.06 67.0663 737.585 121.186 681.751 116.11C625.916 111.034 590.201 118.528 592.871 166.234" stroke="#EBEBEB" stroke-width="0.491817" stroke-miterlimit="10" stroke-linecap="round" stroke-linejoin="round"/>
<path d="M926.959 -46.9578C926.959 -46.9578 922.714 -4.16971 849.691 11.2661C797.744 22.2468 742.138 -2.59339 717.506 26.1858C687.441 61.3114 732.525 116.227 677.08 111.186C621.635 106.145 585.415 113.462 588.332 161.706" stroke="#EBEBEB" stroke-width="0.491817" stroke-miterlimit="10" stroke-linecap="round" stroke-linejoin="round"/>
<path d="M921.41 -50.4004C921.41 -50.4004 918.587 -7.4657 843.17 7.33067C792.038 17.3616 736.333 -8.33907 711.618 20.6303C681.821 55.5569 727.464 111.267 672.409 106.262C617.353 101.257 580.628 108.396 583.793 157.177" stroke="#EBEBEB" stroke-width="0.491817" stroke-miterlimit="10" stroke-linecap="round" stroke-linejoin="round"/>
<path d="M915.862 -53.843C915.862 -53.843 914.471 -10.7076 836.65 3.39472C786.339 12.512 730.527 -14.085 705.731 15.0744C676.201 49.8011 722.404 106.308 667.738 101.339C613.072 96.3688 575.842 103.33 579.254 152.648" stroke="#EBEBEB" stroke-width="0.491817" stroke-miterlimit="10" stroke-linecap="round" stroke-linejoin="round"/>
<path d="M910.314 -57.2859C910.314 -57.2859 910.363 -13.8923 830.13 -0.541584C780.644 7.69291 724.721 -19.8316 699.844 9.51819C670.58 44.0451 717.344 101.349 663.067 96.4144C608.791 91.4799 571.055 98.2636 574.715 148.12" stroke="#EBEBEB" stroke-width="0.491817" stroke-miterlimit="10" stroke-linecap="round" stroke-linejoin="round"/>
<path d="M904.766 -60.7285C904.766 -60.7285 906.26 -17.0153 823.609 -4.47699C774.951 2.9047 718.913 -25.5789 693.957 3.96211C664.958 38.2884 712.283 96.3894 658.396 91.4909C604.508 86.5919 566.269 93.1975 570.176 143.591" stroke="#EBEBEB" stroke-width="0.491817" stroke-miterlimit="10" stroke-linecap="round" stroke-linejoin="round"/>
<path d="M899.218 -64.1711C899.218 -64.1711 902.163 -20.0738 817.089 -8.41274C769.258 -1.85696 713.047 -31.3763 688.07 -1.59379C659.268 32.4744 707.223 91.4305 653.726 86.5669C600.228 81.7033 561.483 88.1319 565.638 139.063" stroke="#EBEBEB" stroke-width="0.491817" stroke-miterlimit="10" stroke-linecap="round" stroke-linejoin="round"/>
<path d="M893.669 -67.6145C893.669 -67.6145 898.068 -23.0637 810.568 -12.3489C763.564 -6.59312 707.24 -37.1223 682.183 -7.14946C653.648 26.719 702.163 86.4709 649.054 81.6427C595.946 76.8151 556.696 83.0656 561.098 134.534" stroke="#EBEBEB" stroke-width="0.491817" stroke-miterlimit="10" stroke-linecap="round" stroke-linejoin="round"/>
<path d="M888.122 -71.0571C888.122 -71.0571 893.974 -25.9805 804.048 -16.2843C757.868 -11.3052 701.435 -42.8686 676.296 -12.7054C648.028 20.964 697.103 81.512 644.383 76.7187C591.665 71.926 551.911 77.9996 556.56 130.006" stroke="#EBEBEB" stroke-width="0.491817" stroke-miterlimit="10" stroke-linecap="round" stroke-linejoin="round"/>
<path d="M882.574 -74.5C882.574 -74.5 889.878 -28.821 797.528 -20.2206C752.167 -15.9963 695.628 -48.6152 670.41 -18.2617C642.409 15.2089 692.042 76.5523 639.713 71.795C587.384 67.0376 547.124 72.933 552.021 125.477" stroke="#EBEBEB" stroke-width="0.491817" stroke-miterlimit="10" stroke-linecap="round" stroke-linejoin="round"/>
<path d="M877.026 -77.9426C877.026 -77.9426 885.778 -31.5805 791.007 -24.1565C746.46 -20.6666 689.822 -54.3615 664.522 -23.8172C636.788 9.45374 686.981 71.5929 635.042 66.871C583.102 62.1491 542.338 67.8669 547.482 120.948" stroke="#EBEBEB" stroke-width="0.491817" stroke-miterlimit="10" stroke-linecap="round" stroke-linejoin="round"/>
<path d="M871.476 -81.3852C871.476 -81.3852 881.673 -34.2544 784.486 -28.0924C740.746 -25.3186 684.015 -60.1077 658.635 -29.3731C631.168 3.69927 681.921 66.6342 630.37 61.9471C578.82 57.261 537.549 62.8013 542.942 116.42" stroke="#EBEBEB" stroke-width="0.491817" stroke-miterlimit="10" stroke-linecap="round" stroke-linejoin="round"/>
<path d="M865.929 -84.8286C865.929 -84.8286 877.559 -36.8395 777.966 -32.028C735.023 -29.9535 678.209 -65.8542 652.748 -34.9293C625.548 -2.05609 676.86 61.6746 625.7 57.0235C574.538 52.3728 532.763 57.7345 538.404 111.891" stroke="#EBEBEB" stroke-width="0.491817" stroke-miterlimit="10" stroke-linecap="round" stroke-linejoin="round"/>
<path d="M860.381 -88.2715C860.381 -88.2715 872.958 -46.3667 771.446 -35.9643C729.487 -31.6648 672.402 -71.6009 646.861 -40.4851C619.929 -7.81172 671.8 56.7153 621.029 52.0995C570.257 47.4839 527.978 52.6681 533.865 107.362" stroke="#EBEBEB" stroke-width="0.491817" stroke-miterlimit="10" stroke-linecap="round" stroke-linejoin="round"/>
<path d="M854.833 -91.7141C854.833 -91.7141 869.045 -47.3222 764.925 -39.9002C723.645 -36.9571 666.596 -77.3467 640.974 -46.041C614.308 -13.5669 666.74 51.7559 616.358 47.1757C565.976 42.5952 523.193 47.602 529.326 102.834" stroke="#EBEBEB" stroke-width="0.491817" stroke-miterlimit="10" stroke-linecap="round" stroke-linejoin="round"/>
<path d="M849.285 -95.1567C849.285 -95.1567 865.057 -47.9654 758.405 -43.8361C717.82 -42.2637 660.79 -83.0934 635.087 -51.5969C608.689 -19.3214 661.68 46.7966 611.688 42.2516C561.694 37.7068 518.408 42.5364 524.787 98.3055" stroke="#EBEBEB" stroke-width="0.491817" stroke-miterlimit="10" stroke-linecap="round" stroke-linejoin="round"/>
<path d="M843.737 -98.5997C843.737 -98.5997 860.958 -46.197 751.885 -47.7718C712.019 -48.3473 654.984 -88.8396 629.2 -57.1532C603.069 -25.0769 656.62 41.8372 607.017 37.3279C557.413 32.8183 513.622 37.47 520.247 93.7766" stroke="#EBEBEB" stroke-width="0.491817" stroke-miterlimit="10" stroke-linecap="round" stroke-linejoin="round"/>
<path d="M838.188 -102.042C838.188 -102.042 856.753 -48.2694 745.364 -51.7072C706.231 -52.9156 649.177 -94.5858 623.313 -62.7092C597.449 -30.8316 651.56 36.8778 602.346 32.4038C553.132 27.9298 508.832 32.4038 515.708 89.2481" stroke="#EBEBEB" stroke-width="0.491817" stroke-miterlimit="10" stroke-linecap="round" stroke-linejoin="round"/>
<path d="M726.786 303.223H726.742C674.137 303.223 631.492 260.583 631.492 207.973C631.492 155.368 674.137 112.727 726.742 112.727C779.347 112.727 821.992 155.368 821.992 207.973C821.992 209.178 821.968 210.373 821.928 211.568" stroke="#EBEBEB" stroke-width="0.491817" stroke-miterlimit="10" stroke-linecap="round" stroke-linejoin="round"/>
<path d="M729.613 297.857C728.659 297.887 727.7 297.902 726.741 297.902C677.077 297.902 636.812 257.642 636.812 207.973C636.812 158.309 677.077 118.049 726.741 118.049C776.41 118.049 816.67 158.309 816.67 207.973C816.67 209.311 816.64 210.639 816.581 211.962" stroke="#EBEBEB" stroke-width="0.491817" stroke-miterlimit="10" stroke-linecap="round" stroke-linejoin="round"/>
<path d="M732.235 292.403C730.42 292.521 728.586 292.58 726.741 292.58C680.014 292.58 642.134 254.7 642.134 207.973C642.134 161.25 680.014 123.365 726.741 123.365C773.469 123.365 811.349 161.25 811.349 207.973C811.349 209.473 811.309 210.958 811.236 212.438" stroke="#EBEBEB" stroke-width="0.491817" stroke-miterlimit="10" stroke-linecap="round" stroke-linejoin="round"/>
<path d="M734.665 286.87C732.058 287.131 729.417 287.264 726.741 287.264C682.955 287.264 647.456 251.764 647.456 207.973C647.456 164.186 682.955 128.687 726.741 128.687C770.533 128.687 806.027 164.186 806.027 207.973C806.027 209.67 805.973 211.357 805.865 213.024" stroke="#EBEBEB" stroke-width="0.491817" stroke-miterlimit="10" stroke-linecap="round" stroke-linejoin="round"/>
<path d="M736.947 281.244C733.612 281.706 730.204 281.942 726.742 281.942C685.891 281.942 652.777 248.823 652.777 207.973C652.777 167.127 685.891 134.008 726.742 134.008C767.592 134.008 800.706 167.127 800.706 207.973C800.706 209.916 800.632 211.839 800.485 213.742" stroke="#EBEBEB" stroke-width="0.491817" stroke-miterlimit="10" stroke-linecap="round" stroke-linejoin="round"/>
<path d="M739.106 275.509C735.093 276.242 730.962 276.621 726.742 276.621C688.833 276.621 658.099 245.887 658.099 207.973C658.099 170.064 688.833 139.33 726.742 139.33C764.651 139.33 795.385 170.064 795.385 207.973C795.385 210.22 795.277 212.439 795.065 214.632" stroke="#EBEBEB" stroke-width="0.491817" stroke-miterlimit="10" stroke-linecap="round" stroke-linejoin="round"/>
<path d="M741.157 269.647C736.529 270.729 731.7 271.299 726.742 271.299C691.769 271.299 663.421 242.946 663.421 207.973C663.421 173.005 691.769 144.651 726.742 144.651C761.715 144.651 790.063 173.005 790.063 207.973C790.063 210.604 789.901 213.201 789.591 215.749" stroke="#EBEBEB" stroke-width="0.491817" stroke-miterlimit="10" stroke-linecap="round" stroke-linejoin="round"/>
<path d="M743.133 263.627C737.935 265.157 732.436 265.978 726.741 265.978C694.709 265.978 668.741 240.01 668.741 207.973C668.741 175.941 694.709 149.973 726.741 149.973C758.773 149.973 784.741 175.941 784.741 207.973C784.741 211.101 784.495 214.175 784.013 217.17" stroke="#EBEBEB" stroke-width="0.491817" stroke-miterlimit="10" stroke-linecap="round" stroke-linejoin="round"/>
<path d="M745.052 257.386C739.352 259.501 733.179 260.656 726.741 260.656C697.645 260.656 674.063 237.069 674.063 207.973C674.063 178.882 697.645 155.294 726.741 155.294C755.837 155.294 779.42 178.882 779.42 207.973C779.42 211.77 779.017 215.473 778.249 219.044" stroke="#EBEBEB" stroke-width="0.491817" stroke-miterlimit="10" stroke-linecap="round" stroke-linejoin="round"/>
<path d="M747.221 250.687C741.019 253.668 734.075 255.335 726.742 255.335C700.587 255.335 679.384 234.133 679.384 207.973C679.384 181.818 700.587 160.616 726.742 160.616C752.896 160.616 774.104 181.818 774.104 207.973C774.104 212.739 773.4 217.337 772.092 221.67" stroke="#EBEBEB" stroke-width="0.491817" stroke-miterlimit="10" stroke-linecap="round" stroke-linejoin="round"/>
<path d="M750.855 242.41C744.029 247.2 735.712 250.013 726.742 250.013C703.528 250.013 684.706 231.191 684.706 207.973C684.706 184.759 703.528 165.937 726.742 165.937C749.96 165.937 768.782 184.759 768.782 207.973C768.782 214.47 767.307 220.622 764.676 226.116" stroke="#EBEBEB" stroke-width="0.491817" stroke-miterlimit="10" stroke-linecap="round" stroke-linejoin="round"/>
<path d="M726.743 244.691C706.465 244.691 690.026 228.253 690.026 207.975C690.026 187.697 706.465 171.259 726.743 171.259C747.02 171.259 763.459 187.697 763.459 207.975C763.459 228.253 747.02 244.691 726.743 244.691Z" stroke="#EBEBEB" stroke-width="0.491817" stroke-miterlimit="10" stroke-linecap="round" stroke-linejoin="round"/>
<path d="M726.743 239.37C709.403 239.37 695.347 225.314 695.347 207.975C695.347 190.636 709.403 176.58 726.743 176.58C744.082 176.58 758.138 190.636 758.138 207.975C758.138 225.314 744.082 239.37 726.743 239.37Z" stroke="#EBEBEB" stroke-width="0.491817" stroke-miterlimit="10" stroke-linecap="round" stroke-linejoin="round"/>
<path d="M864.623 79.7954C869.669 79.279 874.862 78.6788 880.179 77.9067" stroke="#EBEBEB" stroke-width="0.491817" stroke-miterlimit="10" stroke-linecap="round" stroke-linejoin="round"/>
<path d="M945.453 56.5472C947.848 63.2164 949.151 70.4117 949.151 77.9069C949.151 112.841 920.833 141.16 885.899 141.16C853.158 141.16 826.231 116.288 822.976 84.4088" stroke="#EBEBEB" stroke-width="0.491817" stroke-miterlimit="10" stroke-linecap="round" stroke-linejoin="round"/>
<path d="M940.598 59.3407C942.575 65.1687 943.647 71.4148 943.647 77.9068C943.647 109.801 917.793 135.661 885.898 135.661C855.888 135.661 831.218 112.767 828.415 83.489" stroke="#EBEBEB" stroke-width="0.491817" stroke-miterlimit="10" stroke-linecap="round" stroke-linejoin="round"/>
<path d="M935.636 61.8687C937.269 66.9196 938.149 72.31 938.149 77.9067C938.149 106.762 914.754 130.157 885.899 130.157C858.677 130.157 836.314 109.334 833.874 82.7512" stroke="#EBEBEB" stroke-width="0.491817" stroke-miterlimit="10" stroke-linecap="round" stroke-linejoin="round"/>
<path d="M930.595 64.1701C931.927 68.5129 932.646 73.1262 932.646 77.9066C932.646 103.727 911.719 124.659 885.898 124.659C861.509 124.659 841.477 105.98 839.338 82.1462" stroke="#EBEBEB" stroke-width="0.491817" stroke-miterlimit="10" stroke-linecap="round" stroke-linejoin="round"/>
<path d="M925.485 66.29C926.567 69.9738 927.147 73.8738 927.147 77.9067C927.147 100.688 908.68 119.155 885.899 119.155C864.367 119.155 846.691 102.66 844.817 81.615" stroke="#EBEBEB" stroke-width="0.491817" stroke-miterlimit="10" stroke-linecap="round" stroke-linejoin="round"/>
<path d="M920.321 68.2427C921.181 71.3166 921.644 74.5578 921.644 77.9069C921.644 97.6485 905.64 113.652 885.898 113.652C867.239 113.652 851.914 99.3552 850.296 81.1186" stroke="#EBEBEB" stroke-width="0.491817" stroke-miterlimit="10" stroke-linecap="round" stroke-linejoin="round"/>
<path d="M915.103 70.0229C915.786 72.5362 916.146 75.1823 916.146 77.9068C916.146 94.6139 902.606 108.154 885.899 108.154C870.111 108.154 857.152 96.0599 855.775 80.6316" stroke="#EBEBEB" stroke-width="0.491817" stroke-miterlimit="10" stroke-linecap="round" stroke-linejoin="round"/>
<path d="M909.84 71.636C910.361 73.6376 910.642 75.7379 910.642 77.9067C910.642 91.5743 899.566 102.65 885.898 102.65C872.978 102.65 862.37 92.7547 861.253 80.1249" stroke="#EBEBEB" stroke-width="0.491817" stroke-miterlimit="10" stroke-linecap="round" stroke-linejoin="round"/>
<path d="M904.539 73.092C904.932 74.6314 905.144 76.2446 905.144 77.9068C905.144 88.535 896.527 97.1517 885.899 97.1517C875.831 97.1517 867.569 89.4203 866.723 79.5742" stroke="#EBEBEB" stroke-width="0.491817" stroke-miterlimit="10" stroke-linecap="round" stroke-linejoin="round"/>
<path d="M899.187 74.3953C899.482 75.5167 899.64 76.692 899.64 77.9067C899.64 85.4955 893.487 91.6482 885.898 91.6482C878.664 91.6482 872.727 86.0562 872.196 78.9594" stroke="#EBEBEB" stroke-width="0.491817" stroke-miterlimit="10" stroke-linecap="round" stroke-linejoin="round"/>
<path d="M893.802 75.5609C894.024 76.3037 894.142 77.0906 894.142 77.9069C894.142 82.4611 890.453 86.1498 885.899 86.1498C881.463 86.1498 877.848 82.653 877.666 78.2609" stroke="#EBEBEB" stroke-width="0.491817" stroke-miterlimit="10" stroke-linecap="round" stroke-linejoin="round"/>
<path d="M1122.09 86.9555C1074.21 39.7602 1034.32 65.708 1011.84 -0.770515C989.362 -67.2489 964.697 -88.5623 894.092 -91.9234" stroke="#EBEBEB" stroke-width="0.491817" stroke-miterlimit="10" stroke-linecap="round" stroke-linejoin="round"/>
<path d="M1116.35 90.6916C1068.76 43.7812 1029.11 69.572 1006.77 3.49479C984.422 -62.5828 959.906 -83.7678 889.727 -87.1087" stroke="#EBEBEB" stroke-width="0.491817" stroke-miterlimit="10" stroke-linecap="round" stroke-linejoin="round"/>
<path d="M1110.61 94.4275C1063.31 47.8022 1023.9 73.4366 1001.69 7.76039C979.482 -57.9164 955.114 -78.9726 885.361 -82.2933" stroke="#EBEBEB" stroke-width="0.491817" stroke-miterlimit="10" stroke-linecap="round" stroke-linejoin="round"/>
<path d="M897.132 140.161H897.137C905.749 148.576 915.752 152.333 926.862 156.538" stroke="#EBEBEB" stroke-width="0.491817" stroke-miterlimit="10" stroke-linecap="round" stroke-linejoin="round"/>
<path d="M888.987 141.086H888.992C898.626 152.225 910.214 156.194 923.281 161.162" stroke="#EBEBEB" stroke-width="0.491817" stroke-miterlimit="10" stroke-linecap="round" stroke-linejoin="round"/>
<path d="M880.498 140.928H880.503C891.176 156.002 904.583 159.971 919.981 165.913" stroke="#EBEBEB" stroke-width="0.491817" stroke-miterlimit="10" stroke-linecap="round" stroke-linejoin="round"/>
<path d="M916.947 170.772C898.927 163.631 883.528 160.055 871.912 139.605" stroke="#EBEBEB" stroke-width="0.491817" stroke-miterlimit="10" stroke-linecap="round" stroke-linejoin="round"/>
<path d="M914.064 175.729C893.226 167.142 875.752 164.501 863.393 137.033" stroke="#EBEBEB" stroke-width="0.491817" stroke-miterlimit="10" stroke-linecap="round" stroke-linejoin="round"/>
<path d="M911.192 180.736C887.452 170.467 867.903 169.4 855.066 133.148" stroke="#EBEBEB" stroke-width="0.491817" stroke-miterlimit="10" stroke-linecap="round" stroke-linejoin="round"/>
<path d="M908.168 185.733C883.12 174.308 862.562 174.648 849.401 135.725C848.417 132.823 847.433 130.03 846.435 127.335" stroke="#EBEBEB" stroke-width="0.491817" stroke-miterlimit="10" stroke-linecap="round" stroke-linejoin="round"/>
<path d="M904.799 190.631C878.964 178.233 857.766 179.723 844.325 139.989C840.976 130.084 837.562 121.428 833.864 113.883C833.864 113.878 833.859 113.874 833.859 113.869" stroke="#EBEBEB" stroke-width="0.491817" stroke-miterlimit="10" stroke-linecap="round" stroke-linejoin="round"/>
<path d="M827.79 102.936V102.931C823.703 96.4632 819.203 91.0582 814.058 86.558" stroke="#EBEBEB" stroke-width="0.491817" stroke-miterlimit="10" stroke-linecap="round" stroke-linejoin="round"/>
<path d="M900.864 195.294C874.503 182.133 852.863 184.503 839.249 144.253C830.323 117.852 820.959 100.417 806.829 89.2384" stroke="#EBEBEB" stroke-width="0.491817" stroke-miterlimit="10" stroke-linecap="round" stroke-linejoin="round"/>
<path d="M896.104 199.573C869.585 186.058 847.817 188.866 834.174 148.522C825.001 121.393 815.367 103.801 800.494 92.7696" stroke="#EBEBEB" stroke-width="0.491817" stroke-miterlimit="10" stroke-linecap="round" stroke-linejoin="round"/>
<path d="M890.285 203.306C864.091 190.056 842.589 192.687 829.098 152.786C819.901 125.598 810.242 108.06 795.232 97.1369" stroke="#EBEBEB" stroke-width="0.491817" stroke-miterlimit="10" stroke-linecap="round" stroke-linejoin="round"/>
<path d="M883.101 206.37C857.856 194.123 837.13 195.81 824.023 157.05C814.999 130.369 805.526 113.052 790.909 102.193" stroke="#EBEBEB" stroke-width="0.491817" stroke-miterlimit="10" stroke-linecap="round" stroke-linejoin="round"/>
<path d="M874.135 208.661C850.636 198.171 831.352 198.004 818.948 161.314C810.218 135.503 801.061 118.526 787.167 107.701" stroke="#EBEBEB" stroke-width="0.491817" stroke-miterlimit="10" stroke-linecap="round" stroke-linejoin="round"/>
<path d="M862.616 210.029C842.019 201.845 825.1 198.805 813.867 165.583C805.56 141.012 796.865 124.512 783.999 113.726" stroke="#EBEBEB" stroke-width="0.491817" stroke-miterlimit="10" stroke-linecap="round" stroke-linejoin="round"/>
<path d="M799.619 146.648C794.386 135.622 788.558 127.02 781.412 120.39" stroke="#EBEBEB" stroke-width="0.491817" stroke-miterlimit="10" stroke-linecap="round" stroke-linejoin="round"/>
<path d="M779.405 127.871C779.996 128.495 780.576 129.13 781.146 129.784" stroke="#EBEBEB" stroke-width="0.491817" stroke-miterlimit="10" stroke-linecap="round" stroke-linejoin="round"/>
</g>
<defs>
<clipPath id="clip0_321_7607">
<rect width="898" height="177" fill="white"/>
</clipPath>
</defs>
</svg>
