<svg width="1000" height="227" viewBox="0 0 869 227" fill="none" xmlns="http://www.w3.org/2000/svg">
<g clip-path="url(#clip0_21_657)">
<path fill-rule="evenodd" clip-rule="evenodd" d="M513.899 298.999L513.902 302.382L513.287 302.383L513.284 299L479.443 299.031L479.442 298.415L513.283 298.385L513.237 247.31L479.396 247.34L479.395 246.725L513.236 246.694L513.19 195.619L479.349 195.65L479.348 195.034L513.189 195.003L513.143 143.928L479.302 143.959L479.302 143.343L513.143 143.313L513.096 92.2378L479.256 92.2684L479.255 91.6531L513.096 91.6224L513.049 40.5472L479.208 40.5779L479.208 39.9625L513.049 39.9319L513.003 -11.1433L479.162 -11.1127L479.161 -11.728L513.002 -11.7587L512.974 -42.8367L513.589 -42.8373L513.617 -11.7592L565.312 -11.8061L565.281 -46.2669L565.896 -46.2674L565.928 -11.8067L617.003 -11.853L616.972 -46.3139L617.587 -46.3145L617.619 -11.8535L668.694 -11.8998L668.663 -46.3605L669.278 -46.3611L669.309 -11.9003L720.384 -11.9466L720.353 -46.4075L720.968 -46.4081L720.999 -11.9472L823.765 -12.0403L823.734 -46.5013L824.349 -46.5018L824.381 -12.0409L824.381 -12.0409L824.381 -11.4255L824.381 -11.4255L824.474 91.3402L824.475 91.3402L824.475 91.9556L824.475 91.9556L824.521 143.031L824.521 143.031L824.522 143.646L824.522 143.646L824.568 194.721L824.568 194.721L824.569 195.337L824.568 195.337L824.615 246.412L824.615 246.412L824.616 247.027L824.615 247.027L824.662 298.102L824.662 298.102L824.662 298.718L824.662 298.718L824.047 298.718L721.281 298.811L721.281 298.811L720.666 298.812L720.666 298.812L669.591 298.858L669.591 298.858L668.976 298.859L668.976 298.859L617.9 298.905L617.285 298.906L566.209 298.952L566.209 298.952L565.594 298.953L565.594 298.953L513.899 298.999ZM513.899 298.384L565.593 298.337L565.547 247.262L513.852 247.309L513.899 298.384ZM513.852 246.694L565.547 246.647L565.5 195.571L513.805 195.618L513.852 246.694ZM513.805 195.003L565.5 194.956L565.453 143.881L513.759 143.928L513.805 195.003ZM513.758 143.312L565.453 143.265L565.407 92.1904L513.712 92.2372L513.758 143.312ZM513.711 91.6218L565.406 91.575L565.36 40.4998L513.665 40.5467L513.711 91.6218ZM513.664 39.9313L565.359 39.8845L565.313 -11.1907L513.618 -11.1439L513.664 39.9313ZM565.928 -11.1913L565.975 39.8839L617.05 39.8376L617.004 -11.2376L565.928 -11.1913ZM617.619 -11.2382L617.665 39.837L668.741 39.7908L668.694 -11.2844L617.619 -11.2382ZM669.31 -11.285L669.356 39.7902L720.431 39.7439L720.385 -11.3313L669.31 -11.285ZM721 -11.3318L721.046 39.7434L823.812 39.6502L823.766 -11.425L721 -11.3318ZM823.813 40.2656L721.047 40.3587L721.093 91.4339L823.859 91.3408L823.813 40.2656ZM823.859 91.9561L721.094 92.0493L721.14 143.124L823.906 143.031L823.859 91.9561ZM823.906 143.647L721.141 143.74L721.187 194.815L823.953 194.722L823.906 143.647ZM823.953 195.337L721.187 195.43L721.234 246.506L823.999 246.413L823.953 195.337ZM824 247.028L721.234 247.121L721.281 298.196L824.046 298.103L824 247.028ZM720.665 298.197L720.619 247.122L669.544 247.168L669.59 298.243L720.665 298.197ZM668.975 298.243L668.929 247.168L617.853 247.215L617.9 298.29L668.975 298.243ZM617.284 298.29L617.238 247.215L566.163 247.262L566.209 298.337L617.284 298.29ZM566.162 246.646L617.238 246.6L617.191 195.525L566.116 195.571L566.162 246.646ZM566.115 194.956L617.191 194.909L617.144 143.834L566.069 143.88L566.115 194.956ZM566.068 143.265L617.144 143.219L617.098 92.1435L566.022 92.1898L566.068 143.265ZM566.021 91.5744L617.097 91.5281L617.051 40.453L565.975 40.4993L566.021 91.5744ZM617.666 40.4524L617.712 91.5276L668.788 91.4813L668.741 40.4061L617.666 40.4524ZM669.357 40.4056L669.403 91.4808L720.478 91.4345L720.431 40.3593L669.357 40.4056ZM720.478 92.0498L669.404 92.0961L669.45 143.171L720.525 143.125L720.478 92.0498ZM720.525 143.74L669.45 143.787L669.497 194.862L720.571 194.816L720.525 143.74ZM720.572 195.431L669.497 195.477L669.544 246.552L720.618 246.506L720.572 195.431ZM668.928 246.553L668.882 195.478L617.807 195.524L617.853 246.599L668.928 246.553ZM617.806 194.909L668.881 194.862L668.835 143.787L617.76 143.833L617.806 194.909ZM617.759 143.218L668.834 143.172L668.788 92.0967L617.713 92.143L617.759 143.218Z" fill="url(#paint0_linear_21_657)"/>
</g>
<g clip-path="url(#clip1_21_657)">
<path fill-rule="evenodd" clip-rule="evenodd" d="M720.009 298.758L720.012 302.141L719.396 302.142L719.393 298.759L685.552 298.789L685.552 298.174L719.393 298.143L719.346 247.068L685.506 247.099L685.505 246.484L719.346 246.453L719.3 195.378L685.459 195.408L685.458 194.793L719.299 194.762L719.253 143.687L685.412 143.718L685.411 143.102L719.252 143.072L719.206 91.9966L685.365 92.0272L685.364 91.4119L719.205 91.3812L719.159 40.306L685.318 40.3367L685.317 39.7213L719.158 39.6907L719.112 -11.3845L685.271 -11.3539L685.271 -11.9692L719.112 -11.9999L719.083 -43.078L719.699 -43.0785L719.727 -12.0005L771.422 -12.0473L771.391 -46.5081L772.006 -46.5086L772.037 -12.0479L823.113 -12.0942L823.082 -46.5551L823.697 -46.5557L823.728 -12.0947L874.803 -12.141L874.772 -46.6017L875.388 -46.6023L875.419 -12.1415L926.494 -12.1878L926.462 -46.6487L927.078 -46.6493L927.109 -12.1884L978.185 -12.2347L978.153 -46.6955L978.769 -46.6961L978.8 -12.2353L1029.87 -12.2815L1029.84 -46.7425L1030.46 -46.7431L1030.49 -12.2821L1030.49 -12.2821L1030.49 -11.6667L1030.49 -11.6667L1030.58 91.099L1030.58 91.099L1030.58 91.7144L1030.58 91.7144L1030.63 142.789L1030.63 142.789L1030.63 143.405L1030.63 143.405L1030.68 194.48L1030.68 194.48L1030.68 195.095L1030.68 195.095L1030.72 246.171L1030.72 246.171L1030.73 246.786L1030.72 246.786L1030.77 297.861L1030.77 297.861L1030.77 298.477L1030.77 298.477L1030.16 298.477L979.082 298.523L979.082 298.524L978.466 298.524L978.466 298.524L927.391 298.57L927.391 298.57L926.775 298.571L926.775 298.571L875.7 298.617L875.7 298.617L875.085 298.618L875.085 298.618L824.01 298.664L823.394 298.664L772.319 298.711L772.319 298.711L771.704 298.711L771.704 298.711L720.009 298.758ZM720.008 298.143L771.703 298.096L771.657 247.021L719.962 247.068L720.008 298.143ZM719.961 246.452L771.656 246.406L771.61 195.33L719.915 195.377L719.961 246.452ZM719.914 194.762L771.609 194.715L771.563 143.64L719.868 143.686L719.914 194.762ZM719.867 143.071L771.562 143.024L771.516 91.9491L719.821 91.996L719.867 143.071ZM719.821 91.3806L771.516 91.3338L771.469 40.2586L719.774 40.3055L719.821 91.3806ZM719.774 39.6901L771.469 39.6432L771.422 -11.432L719.727 -11.3851L719.774 39.6901ZM772.038 -11.4325L772.084 39.6427L823.16 39.5964L823.113 -11.4788L772.038 -11.4325ZM823.729 -11.4794L823.775 39.5958L874.85 39.5496L874.804 -11.5256L823.729 -11.4794ZM875.419 -11.5262L875.466 39.549L926.54 39.5027L926.494 -11.5725L875.419 -11.5262ZM927.109 -11.573L927.156 39.5022L978.231 39.4559L978.185 -11.6193L927.109 -11.573ZM978.8 -11.6199L978.847 39.4553L1029.92 39.409L1029.88 -11.6662L978.8 -11.6199ZM1029.92 40.0244L978.847 40.0707L978.894 91.1459L1029.97 91.0996L1029.92 40.0244ZM1029.97 91.7149L978.894 91.7612L978.94 142.836L1030.02 142.79L1029.97 91.7149ZM1030.02 143.405L978.941 143.452L978.987 194.527L1030.06 194.481L1030.02 143.405ZM1030.06 195.096L978.988 195.142L979.034 246.218L1030.11 246.171L1030.06 195.096ZM1030.11 246.787L979.035 246.833L979.081 297.908L1030.16 297.862L1030.11 246.787ZM978.466 297.909L978.419 246.834L927.344 246.88L927.39 297.955L978.466 297.909ZM926.775 297.955L926.728 246.88L875.654 246.927L875.7 298.002L926.775 297.955ZM875.085 298.002L875.038 246.927L823.963 246.973L824.009 298.049L875.085 298.002ZM823.394 298.049L823.348 246.974L772.272 247.02L772.318 298.095L823.394 298.049ZM772.271 246.405L823.347 246.359L823.301 195.283L772.225 195.33L772.271 246.405ZM772.225 194.714L823.3 194.668L823.254 143.593L772.178 143.639L772.225 194.714ZM772.178 143.024L823.253 142.977L823.207 91.9023L772.131 91.9486L772.178 143.024ZM772.131 91.3332L823.206 91.2869L823.16 40.2117L772.085 40.258L772.131 91.3332ZM823.776 40.2112L823.822 91.2864L874.897 91.2401L874.851 40.1649L823.776 40.2112ZM875.466 40.1644L875.513 91.2395L926.587 91.1932L926.541 40.1181L875.466 40.1644ZM927.156 40.1175L927.203 91.1927L978.278 91.1464L978.232 40.0712L927.156 40.1175ZM978.279 91.7618L927.203 91.808L927.249 142.883L978.325 142.837L978.279 91.7618ZM978.326 143.452L927.25 143.498L927.296 194.574L978.372 194.527L978.326 143.452ZM978.372 195.143L927.297 195.189L927.343 246.264L978.419 246.218L978.372 195.143ZM926.728 246.265L926.682 195.19L875.607 195.236L875.653 246.311L926.728 246.265ZM875.038 246.312L874.991 195.237L823.916 195.283L823.962 246.358L875.038 246.312ZM823.916 194.667L874.991 194.621L874.945 143.546L823.869 143.592L823.916 194.667ZM823.869 142.977L874.944 142.931L874.898 91.8555L823.822 91.9018L823.869 142.977ZM875.513 91.8549L875.559 142.93L926.634 142.884L926.588 91.8086L875.513 91.8549ZM926.635 143.499L875.56 143.545L875.606 194.621L926.681 194.574L926.635 143.499Z" fill="url(#paint1_linear_21_657)"/>
</g>
<g clip-path="url(#clip2_21_657)">
<path fill-rule="evenodd" clip-rule="evenodd" d="M243.602 298.999L243.605 302.382L242.99 302.383L242.987 299L209.146 299.031L209.145 298.415L242.986 298.385L242.94 247.31L209.099 247.34L209.098 246.725L242.939 246.694L242.893 195.619L209.052 195.65L209.051 195.034L242.892 195.003L242.846 143.928L209.005 143.959L209.005 143.343L242.846 143.313L242.799 92.2378L208.958 92.2684L208.958 91.6531L242.799 91.6224L242.752 40.5472L208.911 40.5779L208.911 39.9625L242.752 39.9319L242.706 -11.1433L208.865 -11.1127L208.864 -11.728L242.705 -11.7587L242.677 -42.8367L243.292 -42.8373L243.32 -11.7592L295.015 -11.8061L294.984 -46.2669L295.599 -46.2674L295.631 -11.8067L346.706 -11.853L346.675 -46.3139L347.29 -46.3145L347.322 -11.8535L398.397 -11.8998L398.366 -46.3605L398.981 -46.3611L399.012 -11.9003L450.087 -11.9466L450.056 -46.4075L450.671 -46.4081L450.702 -11.9472L501.778 -11.9935L501.747 -46.4543L502.362 -46.4548L502.393 -11.994L553.468 -12.0403L553.437 -46.5013L554.052 -46.5018L554.083 -12.0409L554.084 -12.0409L554.084 -11.4255L554.084 -11.4255L554.177 91.3402L554.177 91.3402L554.178 91.9556L554.178 91.9556L554.224 143.031L554.224 143.031L554.225 143.646L554.225 143.646L554.271 194.721L554.271 194.721L554.271 195.337L554.271 195.337L554.318 246.412L554.318 246.412L554.318 247.027L554.318 247.027L554.365 298.102L554.365 298.102L554.365 298.718L554.365 298.718L553.75 298.718L502.675 298.765L502.675 298.765L502.06 298.765L502.06 298.765L450.984 298.811L450.984 298.811L450.369 298.812L450.369 298.812L399.294 298.858L399.294 298.858L398.678 298.859L398.678 298.859L347.603 298.905L346.988 298.906L295.912 298.952L295.912 298.952L295.297 298.953L295.297 298.953L243.602 298.999ZM243.601 298.384L295.296 298.337L295.25 247.262L243.555 247.309L243.601 298.384ZM243.555 246.694L295.249 246.647L295.203 195.571L243.508 195.618L243.555 246.694ZM243.508 195.003L295.203 194.956L295.156 143.881L243.461 143.928L243.508 195.003ZM243.461 143.312L295.156 143.265L295.109 92.1904L243.415 92.2372L243.461 143.312ZM243.414 91.6218L295.109 91.575L295.063 40.4998L243.368 40.5467L243.414 91.6218ZM243.367 39.9313L295.062 39.8845L295.016 -11.1907L243.321 -11.1439L243.367 39.9313ZM295.631 -11.1913L295.677 39.8839L346.753 39.8376L346.707 -11.2376L295.631 -11.1913ZM347.322 -11.2382L347.368 39.837L398.444 39.7908L398.397 -11.2844L347.322 -11.2382ZM399.013 -11.285L399.059 39.7902L450.134 39.7439L450.088 -11.3313L399.013 -11.285ZM450.703 -11.3318L450.749 39.7434L501.825 39.6971L501.778 -11.3781L450.703 -11.3318ZM502.394 -11.3787L502.44 39.6965L553.515 39.6502L553.469 -11.425L502.394 -11.3787ZM553.515 40.2656L502.441 40.3119L502.487 91.3871L553.562 91.3408L553.515 40.2656ZM553.562 91.9561L502.488 92.0024L502.534 143.077L553.609 143.031L553.562 91.9561ZM553.609 143.647L502.534 143.693L502.581 194.768L553.655 194.722L553.609 143.647ZM553.656 195.337L502.581 195.383L502.628 246.459L553.702 246.413L553.656 195.337ZM553.703 247.028L502.628 247.074L502.674 298.149L553.749 298.103L553.703 247.028ZM502.059 298.15L502.013 247.075L450.937 247.121L450.983 298.196L502.059 298.15ZM450.368 298.197L450.322 247.122L399.247 247.168L399.293 298.243L450.368 298.197ZM398.678 298.243L398.632 247.168L347.556 247.215L347.603 298.29L398.678 298.243ZM346.987 298.29L346.941 247.215L295.865 247.262L295.912 298.337L346.987 298.29ZM295.865 246.646L346.94 246.6L346.894 195.525L295.819 195.571L295.865 246.646ZM295.818 194.956L346.894 194.909L346.847 143.834L295.772 143.88L295.818 194.956ZM295.771 143.265L346.847 143.219L346.8 92.1435L295.725 92.1898L295.771 143.265ZM295.724 91.5744L346.8 91.5281L346.754 40.453L295.678 40.4993L295.724 91.5744ZM347.369 40.4524L347.415 91.5276L398.491 91.4813L398.444 40.4061L347.369 40.4524ZM399.06 40.4056L399.106 91.4808L450.181 91.4345L450.134 40.3593L399.06 40.4056ZM450.75 40.3587L450.796 91.4339L501.872 91.3876L501.825 40.3124L450.75 40.3587ZM501.872 92.003L450.797 92.0493L450.843 143.124L501.918 143.078L501.872 92.003ZM501.919 143.693L450.843 143.74L450.89 194.815L501.965 194.769L501.919 143.693ZM501.966 195.384L450.89 195.43L450.937 246.506L502.012 246.459L501.966 195.384ZM450.321 246.506L450.275 195.431L399.2 195.477L399.246 246.552L450.321 246.506ZM398.631 246.553L398.585 195.478L347.509 195.524L347.556 246.599L398.631 246.553ZM347.509 194.909L398.584 194.862L398.538 143.787L347.463 143.833L347.509 194.909ZM347.462 143.218L398.537 143.172L398.491 92.0967L347.416 92.143L347.462 143.218ZM399.106 92.0961L399.153 143.171L450.228 143.125L450.181 92.0498L399.106 92.0961ZM450.228 143.74L399.153 143.787L399.2 194.862L450.274 194.816L450.228 143.74Z" fill="url(#paint2_linear_21_657)"/>
</g>
<g clip-path="url(#clip3_21_657)">
<path fill-rule="evenodd" clip-rule="evenodd" d="M-26.4909 298.999L-26.4878 302.382L-27.1032 302.383L-27.1063 299L-60.9473 299.031L-60.9478 298.415L-27.1068 298.385L-27.1531 247.31L-60.994 247.34L-60.9946 246.725L-27.1537 246.694L-27.2 195.619L-61.041 195.65L-61.0416 195.034L-27.2005 195.003L-27.2468 143.928L-61.0878 143.959L-61.0883 143.343L-27.2474 143.313L-27.2937 92.2378L-61.1345 92.2684L-61.1351 91.6531L-27.2942 91.6224L-27.3405 40.5472L-61.1818 40.5779L-61.1824 39.9625L-27.3411 39.9319L-27.3874 -11.1433L-61.2283 -11.1127L-61.2288 -11.728L-27.3879 -11.7587L-27.4161 -42.8367L-26.8008 -42.8373L-26.7726 -11.7592L24.9223 -11.8061L24.8911 -46.2669L25.5064 -46.2674L25.5377 -11.8067L76.6132 -11.853L76.582 -46.3139L77.1974 -46.3145L77.2286 -11.8535L128.304 -11.8998L128.273 -46.3605L128.888 -46.3611L128.919 -11.9003L179.994 -11.9466L179.963 -46.4075L180.578 -46.4081L180.609 -11.9472L231.685 -11.9935L231.654 -46.4543L232.269 -46.4548L232.3 -11.994L283.375 -12.0403L283.344 -46.5013L283.959 -46.5018L283.99 -12.0409L283.991 -12.0409L283.991 -11.4255L283.991 -11.4255L284.084 91.3402L284.084 91.3402L284.085 91.9556L284.085 91.9556L284.131 143.031L284.131 143.031L284.132 143.646L284.132 143.646L284.178 194.721L284.178 194.721L284.179 195.337L284.178 195.337L284.225 246.412L284.225 246.412L284.226 247.027L284.225 247.027L284.272 298.102L284.272 298.102L284.272 298.718L284.272 298.718L283.657 298.718L232.582 298.765L232.582 298.765L231.967 298.765L231.967 298.765L180.891 298.811L180.891 298.811L180.276 298.812L180.276 298.812L129.201 298.858L129.201 298.858L128.586 298.859L128.586 298.859L77.5103 298.905L76.8949 298.906L25.8193 298.952L25.8193 298.952L25.204 298.953L25.204 298.953L-26.4909 298.999ZM-26.4915 298.384L25.2034 298.337L25.1571 247.262L-26.5378 247.309L-26.4915 298.384ZM-26.5383 246.694L25.1566 246.647L25.1103 195.571L-26.5846 195.618L-26.5383 246.694ZM-26.5852 195.003L25.1097 194.956L25.0634 143.881L-26.6315 143.928L-26.5852 195.003ZM-26.632 143.312L25.0629 143.265L25.0166 92.1904L-26.6783 92.2372L-26.632 143.312ZM-26.6789 91.6218L25.016 91.575L24.9697 40.4998L-26.7252 40.5467L-26.6789 91.6218ZM-26.7257 39.9313L24.9692 39.8845L24.9229 -11.1907L-26.772 -11.1439L-26.7257 39.9313ZM25.5382 -11.1913L25.5845 39.8839L76.6601 39.8376L76.6138 -11.2376L25.5382 -11.1913ZM77.2292 -11.2382L77.2755 39.837L128.351 39.7908L128.304 -11.2844L77.2292 -11.2382ZM128.92 -11.285L128.966 39.7902L180.041 39.7439L179.995 -11.3313L128.92 -11.285ZM180.61 -11.3318L180.656 39.7434L231.732 39.6971L231.686 -11.3781L180.61 -11.3318ZM232.301 -11.3787L232.347 39.6965L283.422 39.6502L283.376 -11.425L232.301 -11.3787ZM283.423 40.2656L232.348 40.3119L232.394 91.3871L283.469 91.3408L283.423 40.2656ZM283.469 91.9561L232.395 92.0024L232.441 143.077L283.516 143.031L283.469 91.9561ZM283.516 143.647L232.441 143.693L232.488 194.768L283.563 194.722L283.516 143.647ZM283.563 195.337L232.488 195.383L232.535 246.459L283.609 246.413L283.563 195.337ZM283.61 247.028L232.535 247.074L232.581 298.149L283.656 298.103L283.61 247.028ZM231.966 298.15L231.92 247.075L180.844 247.121L180.891 298.196L231.966 298.15ZM180.275 298.197L180.229 247.122L129.154 247.168L129.2 298.243L180.275 298.197ZM128.585 298.243L128.539 247.168L77.4634 247.215L77.5097 298.29L128.585 298.243ZM76.8943 298.29L76.848 247.215L25.7725 247.262L25.8188 298.337L76.8943 298.29ZM25.7719 246.646L76.8475 246.6L76.8012 195.525L25.7256 195.571L25.7719 246.646ZM25.7251 194.956L76.8006 194.909L76.7543 143.834L25.6788 143.88L25.7251 194.956ZM25.6782 143.265L76.7538 143.219L76.7075 92.1435L25.6319 92.1898L25.6782 143.265ZM25.6314 91.5744L76.7069 91.5281L76.6606 40.453L25.5851 40.4993L25.6314 91.5744ZM77.276 40.4524L77.3223 91.5276L128.398 91.4813L128.351 40.4061L77.276 40.4524ZM128.967 40.4056L129.013 91.4808L180.088 91.4345L180.041 40.3593L128.967 40.4056ZM180.657 40.3587L180.703 91.4339L231.779 91.3876L231.732 40.3124L180.657 40.3587ZM231.779 92.003L180.704 92.0493L180.75 143.124L231.826 143.078L231.779 92.003ZM231.826 143.693L180.751 143.74L180.797 194.815L231.872 194.769L231.826 143.693ZM231.873 195.384L180.797 195.43L180.844 246.506L231.919 246.459L231.873 195.384ZM180.228 246.506L180.182 195.431L129.107 195.477L129.154 246.552L180.228 246.506ZM128.538 246.553L128.492 195.478L77.4166 195.524L77.4629 246.599L128.538 246.553ZM77.416 194.909L128.491 194.862L128.445 143.787L77.3697 143.833L77.416 194.909ZM77.3691 143.218L128.444 143.172L128.398 92.0967L77.3229 92.143L77.3691 143.218ZM129.014 92.0961L129.06 143.171L180.135 143.125L180.088 92.0498L129.014 92.0961ZM180.135 143.74L129.06 143.787L129.107 194.862L180.181 194.816L180.135 143.74Z" fill="url(#paint3_linear_21_657)"/>
</g>
<defs>
<linearGradient id="paint0_linear_21_657" x1="651.739" y1="-46.3453" x2="652.052" y2="298.874" gradientUnits="userSpaceOnUse">
<stop offset="0.15" stop-color="#F6F5F8"/>
<stop offset="0.5" stop-color="#CACACE"/>
<stop offset="0.85" stop-color="#F6F5F8"/>
</linearGradient>
<linearGradient id="paint1_linear_21_657" x1="857.849" y1="-46.5865" x2="858.162" y2="298.633" gradientUnits="userSpaceOnUse">
<stop offset="0.15" stop-color="#F6F5F8"/>
<stop offset="0.5" stop-color="#CACACE"/>
<stop offset="0.85" stop-color="#F6F5F8"/>
</linearGradient>
<linearGradient id="paint2_linear_21_657" x1="381.442" y1="-46.3453" x2="381.755" y2="298.874" gradientUnits="userSpaceOnUse">
<stop offset="0.15" stop-color="#F6F5F8"/>
<stop offset="0.5" stop-color="#CACACE"/>
<stop offset="0.85" stop-color="#F6F5F8"/>
</linearGradient>
<linearGradient id="paint3_linear_21_657" x1="111.349" y1="-46.3453" x2="111.662" y2="298.874" gradientUnits="userSpaceOnUse">
<stop offset="0.15" stop-color="#F6F5F8"/>
<stop offset="0.5" stop-color="#CACACE"/>
<stop offset="0.85" stop-color="#F6F5F8"/>
</linearGradient>
<clipPath id="clip0_21_657">
<rect width="225.309" height="265.954" fill="white" transform="translate(540.595 225.821) rotate(-90.0519)"/>
</clipPath>
<clipPath id="clip1_21_657">
<rect width="225.309" height="110.623" fill="white" transform="translate(746.704 225.58) rotate(-90.0519)"/>
</clipPath>
<clipPath id="clip2_21_657">
<rect width="225.309" height="270.093" fill="white" transform="translate(270.297 225.821) rotate(-90.0519)"/>
</clipPath>
<clipPath id="clip3_21_657">
<rect width="225.309" height="270.093" fill="white" transform="translate(0.204224 225.821) rotate(-90.0519)"/>
</clipPath>
</defs>
</svg>
