<svg width="850" height="158" viewBox="0 0 850 158" fill="none" xmlns="http://www.w3.org/2000/svg">
<g clip-path="url(#clip0_204_6963)">
<g clip-path="url(#clip1_204_6963)">
<path fill-rule="evenodd" clip-rule="evenodd" d="M513.507 230.829L513.51 234.211L512.895 234.212L512.892 230.829L479.052 230.86L479.051 230.244L512.891 230.214L512.845 179.139L479.005 179.169L479.004 178.554L512.844 178.523L512.798 127.448L478.958 127.479L478.957 126.863L512.798 126.833L512.751 75.7573L478.911 75.788L478.911 75.1726L512.751 75.142L512.704 24.0669L478.864 24.0976L478.864 23.4822L512.704 23.4516L512.658 -27.6236L478.817 -27.5929L478.817 -28.2083L512.657 -28.239L512.611 -79.3142L478.771 -79.2835L478.77 -79.8988L512.61 -79.9295L512.582 -111.008L513.197 -111.008L513.225 -79.9301L564.92 -79.9769L564.889 -114.438L565.505 -114.438L565.536 -79.9775L616.612 -80.0238L616.58 -114.485L617.196 -114.485L617.227 -80.0243L668.302 -80.0706L668.271 -114.531L668.886 -114.532L668.917 -80.0712L719.992 -80.1175L719.961 -114.578L720.577 -114.579L720.608 -80.118L771.683 -80.1643L771.652 -114.625L772.267 -114.626L772.298 -80.1649L823.373 -80.2112L823.342 -114.672L823.957 -114.673L823.989 -80.2117L823.99 -80.2117L823.99 -79.5964L823.989 -79.5964L824.035 -28.5212L824.036 -28.5212L824.037 -27.9058L824.036 -27.9058L824.082 23.1694L824.083 23.1694L824.084 23.7847L824.083 23.7847L824.129 74.8598L824.13 74.8598L824.131 75.4751L824.13 75.4751L824.176 126.55L824.177 126.55L824.177 127.166L824.177 127.166L824.223 178.241L824.224 178.241L824.224 178.856L824.223 178.856L824.27 229.932L824.271 229.932L824.271 230.547L772.58 230.594L772.58 230.594L771.965 230.594L771.965 230.594L720.89 230.641L720.274 230.641L669.199 230.687L669.199 230.688L668.584 230.688L668.584 230.688L617.509 230.734L616.893 230.735L565.817 230.781L565.817 230.781L565.202 230.782L565.202 230.782L513.507 230.829ZM513.507 230.213L565.202 230.166L565.155 179.091L513.46 179.138L513.507 230.213ZM513.46 178.523L565.155 178.476L565.108 127.401L513.413 127.447L513.46 178.523ZM513.413 126.832L565.108 126.785L565.062 75.7099L513.367 75.7568L513.413 126.832ZM513.366 75.1414L565.061 75.0946L565.015 24.0195L513.32 24.0664L513.366 75.1414ZM513.319 23.451L565.014 23.4042L564.968 -27.671L513.273 -27.6242L513.319 23.451ZM513.272 -28.2395L564.967 -28.2864L564.921 -79.3616L513.226 -79.3147L513.272 -28.2395ZM565.536 -79.3621L565.583 -28.2869L616.658 -28.3332L616.612 -79.4084L565.536 -79.3621ZM617.228 -79.409L617.274 -28.3338L668.349 -28.38L668.303 -79.4552L617.228 -79.409ZM668.918 -79.4558L668.964 -28.3806L720.039 -28.4269L719.993 -79.5021L668.918 -79.4558ZM720.608 -79.5027L720.655 -28.4275L771.73 -28.4738L771.684 -79.549L720.608 -79.5027ZM772.299 -79.5495L772.345 -28.4743L823.42 -28.5206L823.374 -79.5958L772.299 -79.5495ZM823.421 -27.9052L772.346 -27.859L772.392 23.2162L823.467 23.1699L823.421 -27.9052ZM823.467 23.7853L772.393 23.8316L772.439 74.9066L823.514 74.8603L823.467 23.7853ZM823.514 75.4757L772.44 75.522L772.486 126.597L823.561 126.551L823.514 75.4757ZM823.561 127.166L772.486 127.213L772.533 178.288L823.607 178.242L823.561 127.166ZM823.608 178.857L772.533 178.903L772.58 229.978L823.654 229.932L823.608 178.857ZM771.964 229.979L771.918 178.904L720.843 178.95L720.889 230.025L771.964 229.979ZM720.274 230.026L720.227 178.951L669.152 178.997L669.198 230.072L720.274 230.026ZM668.583 230.073L668.537 178.998L617.462 179.044L617.508 230.119L668.583 230.073ZM616.893 230.119L616.846 179.044L565.771 179.091L565.817 230.166L616.893 230.119ZM565.77 178.475L616.846 178.429L616.8 127.354L565.724 127.4L565.77 178.475ZM565.723 126.785L616.799 126.738L616.753 75.6631L565.677 75.7094L565.723 126.785ZM565.676 75.094L616.752 75.0477L616.706 23.9727L565.63 24.019L565.676 75.094ZM565.629 23.4036L616.705 23.3573L616.659 -27.7179L565.583 -27.6716L565.629 23.4036ZM617.274 -27.7184L617.321 23.3567L668.396 23.3105L668.349 -27.7647L617.274 -27.7184ZM668.965 -27.7652L669.011 23.3099L720.086 23.2636L720.04 -27.8115L668.965 -27.7652ZM720.655 -27.8121L720.702 23.2631L771.777 23.2168L771.73 -27.8584L720.655 -27.8121ZM771.777 23.8321L720.702 23.8784L720.748 74.9535L771.824 74.9072L771.777 23.8321ZM771.824 75.5225L720.749 75.5688L720.795 126.644L771.87 126.598L771.824 75.5225ZM771.871 127.213L720.796 127.259L720.842 178.335L771.917 178.289L771.871 127.213ZM720.227 178.335L720.18 127.26L669.105 127.306L669.152 178.382L720.227 178.335ZM668.536 178.382L668.49 127.307L617.415 127.353L617.461 178.428L668.536 178.382ZM617.414 126.738L668.489 126.692L668.443 75.6162L617.368 75.6625L617.414 126.738ZM617.368 75.0472L668.443 75.0009L668.396 23.9258L617.321 23.9721L617.368 75.0472ZM669.012 23.9253L669.058 75.0003L720.133 74.954L720.087 23.879L669.012 23.9253ZM720.134 75.5694L669.058 75.6157L669.105 126.691L720.18 126.645L720.134 75.5694Z" fill="url(#paint0_linear_204_6963)"/>
</g>
<g clip-path="url(#clip2_204_6963)">
<path fill-rule="evenodd" clip-rule="evenodd" d="M720.509 230.829L720.512 234.211L719.896 234.212L719.893 230.829L686.053 230.86L686.052 230.244L719.893 230.214L719.846 179.139L686.006 179.169L686.005 178.554L719.846 178.523L719.799 127.448L685.959 127.479L685.958 126.863L719.799 126.833L719.753 75.7573L685.912 75.788L685.912 75.1726L719.752 75.142L719.706 24.0669L685.865 24.0976L685.864 23.4822L719.705 23.4515L719.659 -27.6236L685.818 -27.5929L685.818 -28.2083L719.658 -28.239L719.612 -79.3142L685.771 -79.2835L685.771 -79.8989L719.612 -79.9296L719.583 -111.008L720.199 -111.008L720.227 -79.9301L771.921 -79.977L771.89 -114.438L772.505 -114.438L772.537 -79.9775L823.613 -80.0238L823.581 -114.485L824.197 -114.485L824.228 -80.0244L875.303 -80.0707L875.272 -114.531L875.887 -114.532L875.918 -80.0712L926.993 -80.1175L926.962 -114.578L927.578 -114.579L927.609 -80.1181L978.684 -80.1644L978.653 -114.625L979.268 -114.626L979.299 -80.1649L1030.37 -80.2112L1030.34 -114.672L1030.96 -114.673L1030.99 -80.2118L1030.99 -80.2118L1030.99 -79.5964L1030.99 -79.5964L1031.04 -28.5212L1031.04 -28.5212L1031.04 -27.9058L1031.04 -27.9058L1031.08 23.1693L1031.08 23.1693L1031.08 23.7847L1031.08 23.7847L1031.13 74.8598L1031.13 74.8598L1031.13 75.4751L1031.13 75.4751L1031.18 126.55L1031.18 126.55L1031.18 127.166L1031.18 127.166L1031.22 178.241L1031.22 178.241L1031.23 178.856L1031.22 178.856L1031.27 229.932L1031.27 229.932L1031.27 230.547L1031.27 230.547L1030.66 230.547L979.581 230.594L979.581 230.594L978.966 230.594L978.966 230.594L927.89 230.641L927.89 230.641L927.275 230.641L927.275 230.641L876.2 230.687L876.2 230.688L875.585 230.688L875.585 230.688L824.51 230.734L823.894 230.735L772.818 230.781L772.818 230.781L772.203 230.782L772.203 230.782L720.509 230.829ZM720.508 230.213L772.202 230.166L772.156 179.091L720.462 179.138L720.508 230.213ZM720.461 178.523L772.156 178.476L772.109 127.401L720.415 127.447L720.461 178.523ZM720.414 126.832L772.109 126.785L772.062 75.7099L720.368 75.7568L720.414 126.832ZM720.367 75.1414L772.062 75.0946L772.016 24.0195L720.321 24.0663L720.367 75.1414ZM720.321 23.451L772.015 23.4041L771.969 -27.671L720.274 -27.6242L720.321 23.451ZM720.274 -28.2395L771.968 -28.2864L771.922 -79.3616L720.227 -79.3148L720.274 -28.2395ZM772.537 -79.3622L772.584 -28.2869L823.659 -28.3332L823.613 -79.4085L772.537 -79.3622ZM824.229 -79.409L824.275 -28.3338L875.35 -28.38L875.303 -79.4553L824.229 -79.409ZM875.919 -79.4559L875.965 -28.3806L927.04 -28.4269L926.994 -79.5022L875.919 -79.4559ZM927.609 -79.5027L927.656 -28.4275L978.731 -28.4738L978.685 -79.549L927.609 -79.5027ZM979.3 -79.5496L979.346 -28.4743L1030.42 -28.5206L1030.37 -79.5959L979.3 -79.5496ZM1030.42 -27.9052L979.347 -27.859L979.393 23.2162L1030.47 23.1699L1030.42 -27.9052ZM1030.47 23.7853L979.394 23.8315L979.44 74.9066L1030.51 74.8603L1030.47 23.7853ZM1030.52 75.4757L979.441 75.522L979.487 126.597L1030.56 126.551L1030.52 75.4757ZM1030.56 127.166L979.487 127.213L979.534 178.288L1030.61 178.242L1030.56 127.166ZM1030.61 178.857L979.534 178.903L979.58 229.978L1030.66 229.932L1030.61 178.857ZM978.965 229.979L978.919 178.904L927.844 178.95L927.89 230.025L978.965 229.979ZM927.275 230.026L927.228 178.951L876.153 178.997L876.199 230.072L927.275 230.026ZM875.584 230.073L875.538 178.998L824.463 179.044L824.509 230.119L875.584 230.073ZM823.894 230.119L823.847 179.044L772.772 179.091L772.818 230.166L823.894 230.119ZM772.771 178.475L823.847 178.429L823.801 127.354L772.725 127.4L772.771 178.475ZM772.724 126.785L823.8 126.738L823.754 75.6631L772.678 75.7094L772.724 126.785ZM772.677 75.094L823.753 75.0477L823.707 23.9726L772.631 24.0189L772.677 75.094ZM772.63 23.4036L823.706 23.3573L823.66 -27.7179L772.584 -27.6716L772.63 23.4036ZM824.275 -27.7184L824.322 23.3567L875.397 23.3104L875.35 -27.7647L824.275 -27.7184ZM875.966 -27.7652L876.012 23.3099L927.087 23.2636L927.041 -27.8115L875.966 -27.7652ZM927.656 -27.8121L927.703 23.263L978.778 23.2167L978.731 -27.8584L927.656 -27.8121ZM978.778 23.8321L927.703 23.8784L927.749 74.9535L978.825 74.9072L978.778 23.8321ZM978.825 75.5225L927.75 75.5688L927.796 126.644L978.871 126.598L978.825 75.5225ZM978.872 127.213L927.797 127.259L927.843 178.335L978.918 178.289L978.872 127.213ZM927.228 178.335L927.181 127.26L876.106 127.306L876.153 178.382L927.228 178.335ZM875.537 178.382L875.491 127.307L824.416 127.353L824.462 178.428L875.537 178.382ZM824.415 126.738L875.49 126.692L875.444 75.6162L824.369 75.6625L824.415 126.738ZM824.369 75.0472L875.443 75.0009L875.397 23.9258L824.322 23.9721L824.369 75.0472ZM876.013 23.9252L876.059 75.0003L927.134 74.954L927.088 23.8789L876.013 23.9252ZM927.135 75.5694L876.059 75.6157L876.106 126.691L927.181 126.645L927.135 75.5694Z" fill="url(#paint1_linear_204_6963)"/>
</g>
<g clip-path="url(#clip3_204_6963)">
<path fill-rule="evenodd" clip-rule="evenodd" d="M243.508 230.829L243.511 234.211L242.896 234.212L242.893 230.829L209.053 230.86L209.052 230.244L242.892 230.214L242.846 179.139L209.006 179.169L209.005 178.554L242.845 178.523L242.799 127.448L208.959 127.479L208.958 126.863L242.799 126.833L242.752 75.7573L208.912 75.788L208.912 75.1726L242.752 75.142L242.705 24.0669L208.865 24.0976L208.865 23.4822L242.705 23.4516L242.659 -27.6236L208.818 -27.5929L208.818 -28.2083L242.658 -28.239L242.612 -79.3142L208.772 -79.2835L208.771 -79.8988L242.611 -79.9295L242.583 -111.008L243.198 -111.008L243.226 -79.9301L294.921 -79.9769L294.89 -114.438L295.505 -114.438L295.537 -79.9775L346.612 -80.0238L346.581 -114.485L347.196 -114.485L347.228 -80.0243L398.303 -80.0706L398.272 -114.531L398.887 -114.532L398.918 -80.0712L449.993 -80.1175L449.962 -114.578L450.577 -114.579L450.608 -80.118L501.684 -80.1643L501.653 -114.625L502.268 -114.626L502.299 -80.1649L553.374 -80.2112L553.343 -114.672L553.958 -114.673L553.99 -80.2117L553.991 -80.2117L553.991 -79.5964L553.99 -79.5964L554.036 -28.5212L554.037 -28.5212L554.038 -27.9058L554.037 -27.9058L554.083 23.1694L554.084 23.1694L554.085 23.7847L554.084 23.7847L554.13 74.8598L554.131 74.8598L554.132 75.4751L554.131 75.4751L554.177 126.55L554.178 126.55L554.178 127.166L554.177 127.166L554.224 178.241L554.225 178.241L554.225 178.856L554.224 178.856L554.271 229.932L554.272 229.932L554.272 230.547L502.581 230.594L502.581 230.594L501.966 230.594L501.966 230.594L450.89 230.641L450.275 230.641L399.2 230.687L399.2 230.688L398.585 230.688L398.585 230.688L295.818 230.781L295.818 230.781L295.203 230.782L295.203 230.782L243.508 230.829ZM243.508 230.213L295.202 230.166L295.156 179.091L243.461 179.138L243.508 230.213ZM243.461 178.523L295.156 178.476L295.109 127.401L243.414 127.447L243.461 178.523ZM243.414 126.832L295.109 126.785L295.062 75.7099L243.368 75.7568L243.414 126.832ZM243.367 75.1414L295.062 75.0946L295.016 24.0195L243.321 24.0664L243.367 75.1414ZM243.32 23.451L295.015 23.4042L294.969 -27.671L243.274 -27.6242L243.32 23.451ZM243.273 -28.2395L294.968 -28.2864L294.922 -79.3616L243.227 -79.3147L243.273 -28.2395ZM295.537 -79.3621L295.584 -28.2869L346.659 -28.3332L346.613 -79.4084L295.537 -79.3621ZM347.228 -79.409L347.274 -28.3338L398.35 -28.38L398.303 -79.4552L347.228 -79.409ZM398.919 -79.4558L398.965 -28.3806L450.04 -28.4269L449.994 -79.5021L398.919 -79.4558ZM450.609 -79.5027L450.655 -28.4275L501.731 -28.4738L501.685 -79.549L450.609 -79.5027ZM502.3 -79.5495L502.346 -28.4743L553.421 -28.5206L553.375 -79.5958L502.3 -79.5495ZM553.422 -27.9052L502.347 -27.859L502.393 23.2162L553.468 23.1699L553.422 -27.9052ZM553.468 23.7853L502.394 23.8316L502.44 74.9066L553.515 74.8603L553.468 23.7853ZM553.515 75.4757L502.441 75.522L502.487 126.597L553.562 126.551L553.515 75.4757ZM553.562 127.166L502.487 127.213L502.534 178.288L553.608 178.242L553.562 127.166ZM553.609 178.857L502.534 178.903L502.58 229.978L553.655 229.932L553.609 178.857ZM501.965 229.979L501.919 178.904L450.843 178.95L450.89 230.025L501.965 229.979ZM450.274 230.026L450.228 178.951L399.153 178.997L399.199 230.072L450.274 230.026ZM398.584 230.073L398.538 178.998L347.462 179.044L347.509 230.119L398.584 230.073ZM346.893 230.119L346.847 179.044L295.772 179.091L295.818 230.166L346.893 230.119ZM295.771 178.475L346.847 178.429L346.8 127.354L295.725 127.4L295.771 178.475ZM295.724 126.785L346.8 126.738L346.753 75.6631L295.678 75.7094L295.724 126.785ZM295.677 75.094L346.753 75.0477L346.707 23.9727L295.631 24.019L295.677 75.094ZM295.63 23.4036L346.706 23.3573L346.66 -27.7179L295.584 -27.6716L295.63 23.4036ZM347.275 -27.7184L347.321 23.3567L398.397 23.3105L398.35 -27.7647L347.275 -27.7184ZM398.966 -27.7652L399.012 23.3099L450.087 23.2636L450.041 -27.8115L398.966 -27.7652ZM450.656 -27.8121L450.702 23.2631L501.778 23.2168L501.731 -27.8584L450.656 -27.8121ZM501.778 23.8321L450.703 23.8784L450.749 74.9535L501.825 74.9072L501.778 23.8321ZM501.825 75.5225L450.75 75.5688L450.796 126.644L501.871 126.598L501.825 75.5225ZM501.872 127.213L450.796 127.259L450.843 178.335L501.918 178.289L501.872 127.213ZM450.227 178.335L450.181 127.26L399.106 127.306L399.153 178.382L450.227 178.335ZM398.537 178.382L398.491 127.307L347.416 127.353L347.462 178.428L398.537 178.382ZM347.415 126.738L398.49 126.692L398.444 75.6162L347.369 75.6625L347.415 126.738ZM347.368 75.0472L398.443 75.0009L398.397 23.9258L347.322 23.9721L347.368 75.0472ZM399.013 23.9253L399.059 75.0003L450.134 74.954L450.087 23.879L399.013 23.9253ZM450.134 75.5694L399.059 75.6157L399.106 126.691L450.18 126.645L450.134 75.5694Z" fill="url(#paint2_linear_204_6963)"/>
</g>
<g clip-path="url(#clip4_204_6963)">
<path fill-rule="evenodd" clip-rule="evenodd" d="M-26.493 230.828L-26.4899 234.211L-27.1053 234.212L-27.1083 230.829L-60.9493 230.86L-60.9499 230.244L-27.1089 230.214L-27.1552 179.139L-60.9961 179.169L-60.9967 178.554L-27.1558 178.523L-27.202 127.448L-61.0431 127.479L-61.0437 126.863L-27.2026 126.833L-27.2489 75.7573L-61.0899 75.788L-61.0904 75.1726L-27.2495 75.1419L-27.2958 24.0669L-61.1366 24.0975L-61.1371 23.4822L-27.2963 23.4515L-27.3426 -27.6237L-61.1839 -27.593L-61.1844 -28.2083L-27.3432 -28.239L-27.3895 -79.3142L-61.2304 -79.2835L-61.2309 -79.8989L-27.39 -79.9296L-27.4182 -111.008L-26.8028 -111.008L-26.7747 -79.9301L24.9202 -79.977L24.889 -114.438L25.5044 -114.438L25.5356 -79.9776L76.6112 -80.0238L76.5799 -114.485L77.1953 -114.485L77.2265 -80.0244L128.302 -80.0707L128.271 -114.531L128.886 -114.532L128.917 -80.0712L179.992 -80.1175L179.961 -114.578L180.576 -114.579L180.607 -80.1181L231.683 -80.1644L231.652 -114.625L232.267 -114.626L232.298 -80.1649L283.373 -80.2112L283.342 -114.672L283.957 -114.673L283.988 -80.2118L283.989 -80.2118L283.989 -79.5964L283.989 -79.5964L284.082 23.1693L284.082 23.1693L284.083 23.7847L284.083 23.7847L284.129 74.8597L284.129 74.8597L284.13 75.4751L284.13 75.4751L284.176 126.55L284.176 126.55L284.176 127.166L284.176 127.166L284.223 178.241L284.223 178.241L284.223 178.856L284.223 178.856L284.27 229.931L284.27 229.931L284.27 230.547L284.27 230.547L283.655 230.547L232.58 230.594L232.58 230.594L231.965 230.594L231.965 230.594L180.889 230.641L180.889 230.641L180.274 230.641L180.274 230.641L129.199 230.687L129.199 230.688L128.583 230.688L128.583 230.688L77.5082 230.734L76.8928 230.735L25.8173 230.781L25.8173 230.781L25.2019 230.782L25.2019 230.782L-26.493 230.828ZM-26.4935 230.213L25.2013 230.166L25.1551 179.091L-26.5398 179.138L-26.4935 230.213ZM-26.5404 178.523L25.1545 178.476L25.1082 127.401L-26.5867 127.447L-26.5404 178.523ZM-26.5873 126.832L25.1076 126.785L25.0613 75.7099L-26.6335 75.7567L-26.5873 126.832ZM-26.6341 75.1413L25.0608 75.0945L25.0145 24.0195L-26.6804 24.0663L-26.6341 75.1413ZM-26.681 23.4509L25.0139 23.4041L24.9676 -27.6711L-26.7273 -27.6242L-26.681 23.4509ZM-26.7278 -28.2396L24.9671 -28.2864L24.9208 -79.3616L-26.7741 -79.3148L-26.7278 -28.2396ZM25.5361 -79.3622L25.5824 -28.287L76.658 -28.3333L76.6117 -79.4085L25.5361 -79.3622ZM77.2271 -79.409L77.2734 -28.3338L128.349 -28.3801L128.302 -79.4553L77.2271 -79.409ZM128.918 -79.4559L128.964 -28.3807L180.039 -28.427L179.993 -79.5022L128.918 -79.4559ZM180.608 -79.5027L180.654 -28.4275L231.73 -28.4738L231.683 -79.549L180.608 -79.5027ZM232.299 -79.5496L232.345 -28.4744L283.42 -28.5207L283.374 -79.5959L232.299 -79.5496ZM283.42 -27.9053L232.346 -27.859L232.392 23.2162L283.467 23.1699L283.42 -27.9053ZM283.467 23.7852L232.393 23.8315L232.439 74.9066L283.514 74.8603L283.467 23.7852ZM283.514 75.4756L232.439 75.5219L232.486 126.597L283.56 126.551L283.514 75.4756ZM283.561 127.166L232.486 127.213L232.533 178.288L283.607 178.242L283.561 127.166ZM283.608 178.857L232.533 178.903L232.579 229.978L283.654 229.932L283.608 178.857ZM231.964 229.979L231.918 178.904L180.842 178.95L180.888 230.025L231.964 229.979ZM180.273 230.026L180.227 178.951L129.152 178.997L129.198 230.072L180.273 230.026ZM128.583 230.073L128.537 178.998L77.4613 179.044L77.5076 230.119L128.583 230.073ZM76.8923 230.119L76.846 179.044L25.7704 179.091L25.8167 230.166L76.8923 230.119ZM25.7699 178.475L76.8454 178.429L76.7991 127.354L25.7236 127.4L25.7699 178.475ZM25.723 126.785L76.7986 126.738L76.7523 75.663L25.6767 75.7093L25.723 126.785ZM25.6761 75.0939L76.7517 75.0477L76.7054 23.9726L25.6299 24.0189L25.6761 75.0939ZM25.6293 23.4035L76.7049 23.3572L76.6586 -27.7179L25.583 -27.6716L25.6293 23.4035ZM77.2739 -27.7185L77.3202 23.3567L128.396 23.3104L128.349 -27.7648L77.2739 -27.7185ZM128.965 -27.7653L129.011 23.3099L180.086 23.2636L180.039 -27.8116L128.965 -27.7653ZM180.655 -27.8122L180.701 23.263L231.777 23.2167L231.73 -27.8585L180.655 -27.8122ZM231.777 23.8321L180.702 23.8784L180.748 74.9534L231.823 74.9071L231.777 23.8321ZM231.824 75.5225L180.748 75.5688L180.795 126.644L231.87 126.598L231.824 75.5225ZM231.871 127.213L180.795 127.259L180.842 178.335L231.917 178.288L231.871 127.213ZM180.226 178.335L180.18 127.26L129.105 127.306L129.151 178.382L180.226 178.335ZM128.536 178.382L128.49 127.307L77.4145 127.353L77.4608 178.428L128.536 178.382ZM77.4139 126.738L128.489 126.691L128.443 75.6162L77.3676 75.6625L77.4139 126.738ZM77.3671 75.0471L128.442 75.0008L128.396 23.9258L77.3208 23.9721L77.3671 75.0471ZM129.011 23.9252L129.058 75.0003L180.133 74.954L180.086 23.8789L129.011 23.9252ZM180.133 75.5693L129.058 75.6156L129.105 126.691L180.179 126.645L180.133 75.5693Z" fill="url(#paint3_linear_204_6963)"/>
</g>
</g>
<defs>
<linearGradient id="paint0_linear_204_6963" x1="651.999" y1="-19.5001" x2="651.999" y2="166.5" gradientUnits="userSpaceOnUse">
<stop stop-color="#F6F5F8"/>
<stop offset="0.5" stop-color="#D2D2D6"/>
<stop offset="1" stop-color="#F6F5F8"/>
</linearGradient>
<linearGradient id="paint1_linear_204_6963" x1="859" y1="-19.5001" x2="859" y2="166.5" gradientUnits="userSpaceOnUse">
<stop stop-color="#F6F5F8"/>
<stop offset="0.5" stop-color="#D2D2D6"/>
<stop offset="1" stop-color="#F6F5F8"/>
</linearGradient>
<linearGradient id="paint2_linear_204_6963" x1="382" y1="-19.5001" x2="382" y2="166.5" gradientUnits="userSpaceOnUse">
<stop stop-color="#F6F5F8"/>
<stop offset="0.5" stop-color="#D2D2D6"/>
<stop offset="1" stop-color="#F6F5F8"/>
</linearGradient>
<linearGradient id="paint3_linear_204_6963" x1="111.998" y1="-19.5001" x2="111.998" y2="166.5" gradientUnits="userSpaceOnUse">
<stop stop-color="#F6F5F8"/>
<stop offset="0.5" stop-color="#D2D2D6"/>
<stop offset="1" stop-color="#F6F5F8"/>
</linearGradient>
<clipPath id="clip0_204_6963">
<rect width="850" height="158" fill="white"/>
</clipPath>
<clipPath id="clip1_204_6963">
<rect width="225.309" height="270.093" fill="white" transform="translate(540.203 157.65) rotate(-90.0519)"/>
</clipPath>
<clipPath id="clip2_204_6963">
<rect width="225.309" height="103.062" fill="white" transform="translate(747.204 157.65) rotate(-90.0519)"/>
</clipPath>
<clipPath id="clip3_204_6963">
<rect width="225.309" height="270.093" fill="white" transform="translate(270.203 157.65) rotate(-90.0519)"/>
</clipPath>
<clipPath id="clip4_204_6963">
<rect width="225.309" height="270.093" fill="white" transform="translate(0.203125 157.65) rotate(-90.0519)"/>
</clipPath>
</defs>
</svg>
