<svg class="absolute top-1/4 -left-20 h-1/3 opacity-60 md:-left-48 md:h-2/3" viewBox="0 0 357 388" fill="none" xmlns="http://www.w3.org/2000/svg"><g opacity="0.5"><mask id="mask0_4607_167189" maskUnits="userSpaceOnUse" x="1" y="1" width="356" height="387" style="mask-type: luminance;"><path d="M1.19807 118.281L192.253 1.56758L356.71 270.777L165.655 387.49L1.19807 118.281Z" fill="white"></path></mask><g mask="url(#mask0_4607_167189)"><path d="M333.042 233.16C335.763 239.54 336.775 246.964 335.801 254.037C334.065 266.276 327.373 278.413 315.767 290.209C309.137 297.008 301.616 302.972 293.335 308.031C289.625 310.298 285.688 312.509 281.716 314.347C268.94 320.387 255.285 324.015 241.349 325.268C228.164 326.457 214.556 325.357 201.548 324.278C192.107 323.574 182.199 322.754 172.677 322.882C162.178 323.018 146.005 324.461 131.666 331.456L131.056 330.458C145.541 323.374 161.996 321.759 172.582 321.763C182.335 321.695 192.009 322.451 201.54 323.301C214.547 324.38 227.927 325.425 241.113 324.236C259.145 322.64 277.029 316.622 292.584 307.12C300.719 302.15 308.096 296.266 314.815 289.614C326.221 278.134 332.92 265.999 334.541 254.219C336.599 239.618 330.105 225.146 318.921 219.029C309.554 213.961 299.06 215.07 287.884 216.014C280.428 216.645 272.83 217.362 265.68 216.241C257.692 215.038 250.087 211.246 242.837 205.473C236.628 200.442 230.804 193.798 226.004 185.94C220.102 176.596 215.768 166.294 211.609 156.28C209.265 150.845 206.837 145.262 204.352 139.914C185.459 100.647 153.055 68.4506 114.049 49.5125L115.193 48.8136C115.969 49.1215 116.603 49.5235 117.379 49.8314C129.944 56.2819 141.945 64.053 153.006 73.1867C163.986 82.1762 174.171 92.4342 182.847 103.42C191.832 114.604 199.394 126.665 205.444 139.448C208.011 144.94 210.44 150.515 212.782 155.957C217.082 165.885 221.414 176.182 227.088 185.471C233.163 195.098 246.162 211.879 265.954 215.091C273.112 216.214 280.56 215.581 287.789 214.896C298.597 213.983 309.692 212.894 319.516 218.077C325.308 220.817 329.97 226.205 333.042 233.16Z" fill="#7B7F93"></path></g><mask id="mask1_4607_167189" maskUnits="userSpaceOnUse" x="0" y="36" width="279" height="320" style="mask-type: luminance;"><path d="M0.836807 117.693L133.314 36.7642L278.335 274.158L145.858 355.086L0.836807 117.693Z" fill="white"></path></mask><g mask="url(#mask1_4607_167189)"><path d="M269.815 270.805C268.769 276.151 265.252 280.659 259.828 283.972L259.687 284.058C254.979 286.934 248.964 288.644 243.114 288.687C234.564 288.809 226.305 286.2 218.14 283.734C215.434 282.84 212.584 282.027 209.97 281.271C176.846 272.278 139.544 278.585 110.491 297.116L109.881 296.118C121.838 288.419 135.245 282.776 149.448 279.401C169.832 274.597 190.81 274.924 210.248 280.118C213.007 280.792 215.713 281.687 218.417 282.589C226.356 284.992 234.611 287.604 243.019 287.569C253.605 287.573 266.235 281.623 268.521 270.613C270.734 260.436 263.22 250.706 254.805 246.234C245.524 241.307 234.214 240.762 225.034 240.487C214.698 239.928 204.078 239.55 194.745 234.855C186.365 230.756 179.762 223.799 174.222 213.451C169.468 204.388 166.252 193.992 163.071 183.968C161.955 180.532 160.833 177.099 159.803 173.804C145.442 131.374 113.952 94.8951 74.7188 73.3415L76.1453 72.4701C89.0011 79.7255 101.152 88.3877 112.313 98.637C134.901 119.569 151.815 145.33 161.118 173.395C162.239 176.829 163.355 180.265 164.39 183.557C170.702 203.836 177.216 224.765 195.395 233.676C204.501 238.316 215.121 238.694 225.223 239.188C234.492 239.609 245.944 240.068 255.541 245.195C264.416 249.775 272.135 260.168 269.815 270.805Z" fill="#535565"></path></g><mask id="mask2_4607_167189" maskUnits="userSpaceOnUse" x="0" y="82" width="144" height="175" style="mask-type: luminance;"><path d="M0.836807 117.693L58.5335 82.4466L143.406 221.379L85.7091 256.626L0.836807 117.693Z" fill="white"></path></mask><g mask="url(#mask2_4607_167189)"><path d="M117.59 185.863C122.963 203.96 119.007 224.427 107.286 239.242C102.938 244.646 97.7011 249.216 91.8491 252.791C89.8482 254.013 87.7659 255.091 85.6805 256.164L85.0708 255.166C93.3011 251.315 100.626 245.664 106.334 238.647C117.768 224.008 121.758 203.914 116.416 186.185C112.401 172.553 103.609 161.05 95.5296 151.666C77.8484 131.072 56.782 112.948 33.8203 98.1347L34.9644 97.4358C41.6256 101.61 48.177 106.238 54.446 111.039C69.8641 122.807 83.9194 136.195 96.4933 150.683C104.526 160.296 113.399 171.943 117.59 185.863Z" fill="#535565"></path></g><mask id="mask3_4607_167189" maskUnits="userSpaceOnUse" x="0" y="103" width="81" height="108" style="mask-type: luminance;"><path d="M0.836807 117.693L23.636 103.765L80.3375 196.583L57.5383 210.511L0.836807 117.693Z" fill="white"></path></mask><g mask="url(#mask3_4607_167189)"><path d="M63.561 179.234C64.9936 188.955 63.0468 199.557 58.2426 208.382C57.9866 208.926 57.6523 209.331 57.3964 209.875L56.7004 208.735C61.7273 199.969 63.875 189.05 62.3012 179.415C59.8701 163.244 50.3559 147.67 32.2775 130.267C25.5675 123.77 18.2859 117.629 10.8945 111.942L12.0337 111.246C19.43 116.93 26.393 122.878 33.1001 129.37C41.5178 137.372 47.7788 144.731 52.6908 152.126C58.6478 161.243 62.2489 170.027 63.561 179.234Z" fill="#7B7F93"></path></g><path d="M145.389 182.61C143.485 181.42 140.986 181.181 138.78 181.74C136.522 182.531 134.702 184.038 133.914 186.284C132.793 188.934 133.759 191.479 134.639 193.883C134.849 194.544 135.051 195.203 135.258 195.859C137.68 203.993 136.909 214.277 133.054 223.692C130.949 228.903 128.119 233.573 124.479 237.562C121.721 240.423 118.644 243.091 115.711 245.665C110.04 250.5 104.09 255.512 101.077 262.454C99.1386 266.974 98.8431 273.231 103.001 276.186C106.98 278.857 112.305 276.981 116.397 275.658C127.978 271.525 140.128 269.591 152.465 269.903C153.673 269.954 154.878 270 155.851 269.994C160.072 270.163 164.521 270.387 168.875 269.493C171.535 269.044 173.853 268.022 175.995 266.714C178.848 264.971 180.981 262.685 182.106 260.039C183.903 255.605 183.198 249.952 180.198 244.725C178.332 241.353 175.527 238.359 173.037 235.562C172.192 234.507 171.3 233.682 170.455 232.627C161.938 222.527 155.867 210.345 152.889 197.449C152.769 196.934 152.648 196.42 152.532 195.902C152.055 193.84 151.63 191.546 150.784 189.516C149.38 186.255 147.609 184.001 145.389 182.61ZM149.524 189.697C150.37 191.728 150.706 193.876 151.181 195.945C151.302 196.46 151.423 196.974 151.538 197.492C154.461 210.615 160.618 222.938 169.37 233.095C170.207 234.148 171.194 235.117 171.947 236.034C174.44 238.823 177.017 241.761 179.025 245.047C181.938 250.134 182.528 255.269 180.924 259.384C179.04 263.677 174.589 266.984 168.604 268.087C164.391 268.895 160.178 268.728 155.957 268.559C154.749 268.508 153.69 268.373 152.571 268.468C140.088 268.245 127.94 270.171 116.127 274.252C112.262 275.63 107.459 277.388 103.793 274.921C100.359 272.506 100.252 266.882 102.141 262.586C105.097 255.88 110.619 251.129 116.577 246.119C119.507 243.54 122.814 240.932 125.486 237.929C129.267 233.854 132.243 229.095 134.4 223.652C138.31 214.01 138.994 203.584 136.543 195.074C136.336 194.418 136.129 193.762 135.924 193.098C135.131 190.835 134.34 188.578 135.208 186.476C136.022 184.601 137.563 183.272 139.539 182.654C141.368 182.125 143.404 182.251 145.222 183.3C147.332 185.146 148.76 187.811 149.524 189.697Z" fill="#373943"></path><path d="M153.097 232.439C149.35 230.804 146.347 231.655 143 232.918C140.168 234.06 137.456 235.716 135.152 237.712C133.272 239.449 131.765 241.152 130.951 243.026C129.936 245.217 129.698 247.716 130.175 249.778C130.828 252.127 132.505 254.238 134.665 254.884C136.908 255.666 139.114 255.108 141.089 254.489C141.462 254.455 141.745 254.282 142.121 254.253C143.72 253.664 145.408 253.221 146.99 253.238C148.566 253.257 150.263 253.792 151.816 254.408C152.138 254.606 152.595 254.72 152.823 254.775C154.752 255.362 157.139 256.063 159.397 255.272C159.77 255.238 160.199 254.976 160.627 254.714C162.341 253.667 163.531 251.763 164.027 249.696C164.44 247.484 164.161 245.101 162.964 242.496C161.233 238.065 157.615 234.385 153.097 232.439ZM162.021 242.878C163.043 245.196 163.233 247.433 162.879 249.414C162.468 251.631 160.909 253.566 159.075 254.098C157.099 254.717 155.031 254.209 153.332 253.682C153.015 253.481 152.642 253.515 152.325 253.315C150.628 252.78 148.931 252.246 147.122 252.174C145.313 252.102 143.573 252.778 141.88 253.224C141.598 253.396 141.221 253.425 140.853 253.457C139.019 253.989 136.954 254.461 135.029 253.872C133.246 253.196 131.685 251.603 131.207 249.542C130.675 247.707 130.94 245.58 131.903 243.621C132.665 241.979 134.023 240.361 135.762 238.71C137.925 236.801 140.495 235.23 143.323 234.091C146.531 232.92 149.163 232.095 152.588 233.532C156.879 235.424 160.322 238.816 162.021 242.878Z" fill="#373943"></path></g></svg>
