<svg width="20" height="23" viewBox="0 0 20 23" fill="none" xmlns="http://www.w3.org/2000/svg">
<path d="M2.69144 11.6089C1.84875 9.95581 1.44186 8.60598 1.19652 7.23772C0.833659 5.21408 1.66405 3.23731 3.03967 1.97598C3.62106 1.44289 4.28753 1.62502 4.63133 2.3189L5.40749 3.88541C6.0227 5.12707 6.3303 5.7479 6.26929 6.4061C6.20828 7.06429 5.79343 7.60037 4.96375 8.67251L2.69144 11.6089ZM2.69144 11.6089C4.39711 14.9548 7.07385 17.9678 10.0515 19.8889M10.0515 19.8889C11.5208 20.8369 12.7207 21.2947 13.9369 21.5707C15.7357 21.9789 17.4928 21.0447 18.614 19.4971C19.0879 18.8431 18.926 18.0933 18.3092 17.7065L16.9167 16.8333C15.813 16.1412 15.2612 15.7952 14.6761 15.8638C14.0911 15.9324 13.6146 16.3991 12.6615 17.3325L10.0515 19.8889Z" stroke="#5B5FC7" stroke-width="1.5" stroke-linejoin="round"/>
</svg>
