<svg xmlns="http://www.w3.org/2000/svg" width="15" height="16" viewBox="0 0 15 16" fill="none">
  <g clip-path="url(#clip0_8760_15596)">
    <path d="M2.36101 8.4464C1.7685 7.41324 1.48241 6.5696 1.3099 5.71443C1.05476 4.44966 1.63863 3.21418 2.60586 2.42584C3.01465 2.09266 3.48327 2.2065 3.725 2.64017L4.27074 3.61924C4.70331 4.39528 4.91959 4.78329 4.87669 5.19467C4.83379 5.60604 4.54211 5.94109 3.95873 6.61118L2.36101 8.4464Z" fill="#3D7DC3"/>
    <path d="M7.53603 13.6214C8.56918 14.2139 9.41283 14.5 10.268 14.6725C11.5328 14.9277 12.7682 14.3438 13.5566 13.3766C13.8898 12.9678 13.7759 12.4992 13.3423 12.2574L12.3632 11.7117C11.5871 11.2791 11.1991 11.0628 10.7878 11.1057C10.3764 11.1486 10.0413 11.4403 9.37125 12.0237L7.53603 13.6214Z" fill="#3D7DC3"/>
    <path d="M2.36102 8.4464C1.7685 7.41324 1.48241 6.5696 1.3099 5.71443C1.05476 4.44966 1.63863 3.21418 2.60586 2.42584C3.01465 2.09266 3.48327 2.2065 3.725 2.64017L4.27074 3.61924C4.70331 4.39528 4.91959 4.78329 4.87669 5.19467C4.83379 5.60604 4.54211 5.94109 3.95873 6.61118L2.36102 8.4464ZM2.36102 8.4464C3.56032 10.5376 5.4424 12.4207 7.53603 13.6214M7.53603 13.6214C8.56918 14.2139 9.41283 14.5 10.268 14.6725C11.5328 14.9277 12.7682 14.3438 13.5566 13.3766C13.8898 12.9678 13.7759 12.4992 13.3423 12.2574L12.3632 11.7117C11.5871 11.2791 11.1991 11.0628 10.7878 11.1057C10.3764 11.1486 10.0413 11.4403 9.37125 12.0237L7.53603 13.6214Z" stroke="#3D7DC3" stroke-width="1.5" stroke-linejoin="round"/>
  </g>
  <defs>
    <clipPath id="clip0_8760_15596">
      <rect width="15" height="15" fill="white" transform="translate(0 0.570312)"/>
    </clipPath>
  </defs>
</svg>