<svg width="16" height="16" viewBox="0 0 16 16" fill="none" xmlns="http://www.w3.org/2000/svg">
<g clip-path="url(#clip0_8836_4785)">
<path d="M1.66675 8.00002C1.66675 5.01446 1.66675 3.52168 2.59424 2.59418C3.52174 1.66669 5.01452 1.66669 8.00008 1.66669C10.9856 1.66669 12.4784 1.66669 13.4059 2.59418C14.3334 3.52168 14.3334 5.01446 14.3334 8.00002C14.3334 10.9856 14.3334 12.4784 13.4059 13.4059C12.4784 14.3334 10.9856 14.3334 8.00008 14.3334C5.01452 14.3334 3.52174 14.3334 2.59424 13.4059C1.66675 12.4784 1.66675 10.9856 1.66675 8.00002Z" fill="#A693FC" stroke="#A693FC"/>
<path d="M10 6L6 9.99974M10 10L6 6.00026" stroke="white" stroke-linecap="round" stroke-linejoin="round"/>
</g>
<defs>
<clipPath id="clip0_8836_4785">
<rect width="16" height="16" fill="white"/>
</clipPath>
</defs>
</svg>
