<svg width="30" height="18" viewBox="0 0 30 18" fill="none" xmlns="http://www.w3.org/2000/svg">
<path d="M27.2186 0.551182L24.7713 2.99849L24.5981 3.17167L16.6684 11.1017L16.4009 13.8789L19.1791 13.6129L27.1089 5.68245L27.2824 5.50926L29.7297 3.06196C30.09 2.70165 30.09 2.11753 29.7297 1.75722L28.5233 0.551182C28.163 0.190874 27.5789 0.190874 27.2186 0.551182ZM26.4121 5.50926L18.9007 13.0214L17.0848 13.1957L17.2598 11.3802L24.7713 3.86843L26.4121 5.50926Z" fill="#606062"/>
<path d="M21.3393 12.239V16.0318C21.3393 16.4527 20.9334 16.795 20.4348 16.795H1.82796C1.32896 16.795 0.922781 16.4527 0.922781 16.0318V8.17402H3.52823C4.53797 8.17402 5.35619 7.41928 5.35619 6.48769V3.4192H20.4348C20.9334 3.4192 21.3393 3.76153 21.3393 4.18238V5.8566L22.2624 4.93382V4.18238C22.2624 3.25116 21.4442 2.49605 20.4348 2.49605H4.43304L0 7.25086V16.0318C0 16.963 0.818584 17.7178 1.82796 17.7178H20.4348C21.4442 17.7178 22.2624 16.963 22.2624 16.0318V11.3166L21.3393 12.239ZM4.43304 3.4192V6.48769C4.43304 6.90853 4.02723 7.25086 3.52823 7.25086H0.922781L4.43304 3.4192Z" fill="#606062"/>
<path d="M11.3468 14.6474C11.0786 14.7483 11.2694 14.1469 11.2775 14.0768C11.2811 14.0343 11.2716 14.0035 11.2345 13.9796C10.9593 13.8061 10.4681 14.3487 10.2773 14.4958C10.0164 14.698 9.81091 14.9648 9.56838 15.1875C9.07342 15.6428 9.01875 15.0514 8.87345 14.6437C9.80027 13.5947 10.69 12.1997 10.8203 10.8722C10.8434 10.71 10.6508 10.7064 10.6056 10.844C10.2351 11.988 9.72248 13.0385 8.9982 13.9976C8.90867 14.1157 8.81805 14.2298 8.72558 14.341C8.08826 13.3636 6.54613 14.1121 6.08528 14.9978C5.90036 15.3544 6.53108 15.6549 6.74205 15.7599C7.32398 16.0497 7.94039 15.6017 8.33665 15.2124C8.43682 15.1141 8.53846 15.0084 8.64009 14.9002C8.64669 14.9163 8.65367 14.9306 8.65991 14.9475C8.80043 15.3394 8.80814 16.1811 9.42822 15.6861C9.67919 15.4854 9.89713 15.2315 10.0865 14.9736C10.2673 14.7281 10.5139 14.541 10.7579 14.3645C11.192 14.0497 11.0096 14.5443 10.9656 14.8235C10.9509 14.916 11.0386 14.9842 11.1193 14.9251C11.2811 14.807 11.2448 14.8397 11.3743 14.6944C11.3934 14.6731 11.3754 14.6367 11.3468 14.6474ZM7.76317 15.284C6.62575 16.1704 6.12491 14.9424 6.77067 14.5505C7.42708 14.1517 8.1 14.0559 8.48783 14.61C8.26658 14.8507 8.03029 15.0759 7.76317 15.284Z" fill="#606062"/>
<path d="M11.5512 14.5727C11.5211 14.6927 11.3816 15.0699 11.6444 15.0211C11.6623 15.0181 11.6766 14.9818 11.6543 14.9748C11.5211 14.933 11.6473 14.678 11.6719 14.5877C11.6957 14.5004 11.5713 14.4901 11.5512 14.5727Z" fill="#606062"/>
<path d="M16.5368 13.4428C16.3827 13.4659 16.2282 13.496 16.0715 13.5422C15.5322 13.7014 15.0423 13.8963 14.5712 14.2008C14.427 14.2936 14.2825 14.4632 14.1309 14.6224C14.6219 13.9018 15.1579 13.1654 15.4023 12.3512C15.4254 12.2738 15.3524 12.1619 15.2636 12.1868C14.489 12.4059 13.72 13.1441 13.1164 13.6548C12.7818 13.9388 12.3129 14.4775 12.4178 14.9508C12.4215 14.9688 12.4387 14.9856 12.4574 14.9871C12.4835 14.9886 12.5095 14.9908 12.536 14.9926C12.5631 14.9944 12.5767 14.9603 12.5602 14.9412C12.1247 14.4334 14.5712 12.8968 14.9224 12.6403C15.2427 12.407 14.9103 12.7761 14.8541 12.884C14.6765 13.223 14.4645 13.5451 14.2575 13.8669C13.9948 14.2771 13.7071 14.6701 13.4624 15.092C13.392 15.2131 13.5145 15.3713 13.6473 15.3126C13.8352 15.2304 13.9559 15.0719 14.1174 14.9464C14.6479 14.5358 15.213 14.2118 15.8437 13.9832C16.0715 13.9003 16.3034 13.8427 16.5368 13.8012V13.4428Z" fill="#606062"/>
<path d="M18.3069 6.16895H7.30908V4.55453H18.3069V6.16895Z" fill="#606062"/>
<path d="M15.4226 8.0293H7.30908V7.23347H15.4226V8.0293Z" fill="#606062"/>
<path d="M15.4226 9.75391H7.30908V8.95808H15.4226V9.75391Z" fill="#606062"/>
</svg>
