<svg width="16" height="16" viewBox="0 0 16 16" fill="none" xmlns="http://www.w3.org/2000/svg">
<g clip-path="url(#clip0_7517_1343)">
<path d="M5.00098 8.00098H9.00098M5.00098 5.33431H7.00098" stroke="#0E0A1F" stroke-linecap="round" stroke-linejoin="round"/>
<path d="M5.66699 13.334C6.36725 13.9138 7.20999 14.2832 8.176 14.3465C8.93711 14.3965 9.73176 14.3964 10.4913 14.3465C10.7529 14.3294 11.038 14.2678 11.2835 14.168C11.5567 14.057 11.6933 14.0014 11.7628 14.0099C11.8322 14.0183 11.9329 14.0916 12.1344 14.2382C12.4896 14.4967 12.937 14.6823 13.6006 14.6664C13.9362 14.6583 14.104 14.6543 14.1791 14.5279C14.2542 14.4015 14.1606 14.2266 13.9735 13.8767C13.7141 13.3914 13.5497 12.8359 13.7988 12.3908C14.2278 11.755 14.5923 11.002 14.6455 10.1888C14.6741 9.75188 14.6741 9.29938 14.6455 8.86244C14.61 8.32059 14.4785 7.80549 14.2678 7.33398" stroke="#0E0A1F" stroke-linecap="round" stroke-linejoin="round"/>
<path d="M8.23066 11.6585C10.601 11.5024 12.4892 9.60527 12.6445 7.2236C12.6749 6.75752 12.6749 6.27486 12.6445 5.80878C12.4892 3.42711 10.601 1.52999 8.23066 1.37389C7.42198 1.32063 6.57767 1.32074 5.77064 1.37389C3.40027 1.52999 1.51215 3.42711 1.35679 5.80878C1.32638 6.27486 1.32638 6.75752 1.35679 7.2236C1.41337 8.09103 1.8006 8.89419 2.25647 9.57236C2.52116 10.0471 2.34647 10.6397 2.07077 11.1573C1.87198 11.5305 1.77259 11.7171 1.8524 11.8519C1.9322 11.9867 2.11046 11.991 2.46699 11.9996C3.17206 12.0166 3.64751 11.8186 4.0249 11.5429C4.23895 11.3865 4.34597 11.3083 4.41973 11.2994C4.49349 11.2904 4.63865 11.3496 4.92892 11.468C5.18981 11.5745 5.49273 11.6402 5.77064 11.6585C6.57767 11.7116 7.42198 11.7117 8.23066 11.6585Z" stroke="#0E0A1F" stroke-linejoin="round"/>
</g>
<defs>
<clipPath id="clip0_7517_1343">
<rect width="16" height="16" fill="white"/>
</clipPath>
</defs>
</svg>
