<svg width="16" height="16" viewBox="0 0 16 16" fill="none" xmlns="http://www.w3.org/2000/svg">
<g clip-path="url(#clip0_8836_4713)">
<g clip-path="url(#clip1_8836_4713)">
<path d="M13.344 1.33331C12.6017 1.33331 12 3.12417 12 5.33331H13.344C13.9918 5.33331 14.3156 5.33331 14.5161 5.10968C14.7166 4.88604 14.6817 4.59153 14.6119 4.00252C14.4276 2.4476 13.9295 1.33331 13.344 1.33331Z" fill="white" stroke="#A693FC"/>
<path d="M1.33325 12.4305V5.36949C1.33325 3.46682 1.33325 2.51548 1.91904 1.9244C2.50482 1.33331 3.44763 1.33331 5.33325 1.33331H13.3333L11.9999 5.36949V12.4305C11.9999 13.4383 11.9999 13.9422 11.6919 14.1405C11.1887 14.4647 10.4106 13.7849 10.0193 13.5382C9.69602 13.3343 9.53436 13.2323 9.35494 13.2264C9.16107 13.2201 8.99654 13.3178 8.64717 13.5382L7.37325 14.3416C7.02961 14.5583 6.85778 14.6666 6.66659 14.6666C6.47539 14.6666 6.30356 14.5583 5.95992 14.3416L4.686 13.5382C4.36268 13.3343 4.20103 13.2323 4.02161 13.2264C3.82773 13.2201 3.6632 13.3178 3.31384 13.5382C2.92255 13.7849 2.1445 14.4647 1.64122 14.1405C1.33325 13.9422 1.33325 13.4383 1.33325 12.4305Z" fill="#A693FC" stroke="#A693FC" stroke-linecap="round" stroke-linejoin="round"/>
<path d="M7.35401 10L4.45801 7.76004V6.92004H6.65001C6.86334 6.92004 7.05001 6.87737 7.21001 6.79204C7.37001 6.70671 7.49534 6.58937 7.58601 6.44004C7.67667 6.28537 7.72201 6.10404 7.72201 5.89604C7.72201 5.68804 7.67667 5.50937 7.58601 5.36004C7.49534 5.20537 7.37001 5.08804 7.21001 5.00804C7.05001 4.92271 6.86334 4.88004 6.65001 4.88004H4.45801V4.04004H9.13801V4.65604H7.80201L8.03401 4.48004C8.23134 4.64004 8.38334 4.84004 8.49001 5.08004C8.60201 5.32004 8.65801 5.59471 8.65801 5.90404C8.65801 6.28804 8.57001 6.61871 8.39401 6.89604C8.22334 7.17337 7.98601 7.38671 7.68201 7.53604C7.37801 7.68537 7.02601 7.76004 6.62601 7.76004H5.47401L5.56201 7.49604L8.74601 10H7.35401ZM4.45801 6.20804V5.58404H9.13801V6.20804H4.45801Z" fill="white"/>
</g>
</g>
<defs>
<clipPath id="clip0_8836_4713">
<rect width="16" height="16" fill="white"/>
</clipPath>
<clipPath id="clip1_8836_4713">
<rect width="16" height="16" fill="white"/>
</clipPath>
</defs>
</svg>
