<svg width="16" height="16" viewBox="0 0 16 16" fill="none" xmlns="http://www.w3.org/2000/svg">
<g clip-path="url(#clip0_8737_2300)">
<path d="M13.344 1.33301C12.6017 1.33301 12 3.12387 12 5.33301H13.344C13.9918 5.33301 14.3156 5.33301 14.5161 5.10937C14.7166 4.88574 14.6817 4.59123 14.6119 4.00221C14.4276 2.4473 13.9295 1.33301 13.344 1.33301Z" stroke="#876DF8" stroke-width="1.25"/>
<path d="M12.0007 5.36918V12.4302C12.0007 13.438 12.0007 13.9419 11.6927 14.1402C11.1894 14.4644 10.4114 13.7846 10.0201 13.5379C9.69675 13.334 9.53509 13.232 9.35567 13.2261C9.1618 13.2197 8.99727 13.3175 8.6479 13.5379L7.37398 14.3413C7.03035 14.558 6.85851 14.6663 6.66732 14.6663C6.47612 14.6663 6.30429 14.558 5.96065 14.3413L4.68673 13.5379C4.36342 13.334 4.20176 13.232 4.02234 13.2261C3.82846 13.2197 3.66393 13.3175 3.31457 13.5379C2.92328 13.7846 2.14523 14.4644 1.64195 14.1402C1.33398 13.9419 1.33398 13.438 1.33398 12.4302V5.36918C1.33398 3.46651 1.33398 2.51518 1.91977 1.92409C2.50556 1.33301 3.44837 1.33301 5.33398 1.33301H13.334" stroke="#876DF8" stroke-width="1.25" stroke-linecap="round" stroke-linejoin="round"/>
<path d="M7.35498 10L4.45898 7.76004V6.92004H6.65098C6.86432 6.92004 7.05098 6.87737 7.21098 6.79204C7.37098 6.70671 7.49632 6.58937 7.58698 6.44004C7.67765 6.28537 7.72298 6.10404 7.72298 5.89604C7.72298 5.68804 7.67765 5.50937 7.58698 5.36004C7.49632 5.20537 7.37098 5.08804 7.21098 5.00804C7.05098 4.92271 6.86432 4.88004 6.65098 4.88004H4.45898V4.04004H9.13898V4.65604H7.80298L8.03498 4.48004C8.23232 4.64004 8.38432 4.84004 8.49098 5.08004C8.60298 5.32004 8.65899 5.59471 8.65899 5.90404C8.65899 6.28804 8.57098 6.61871 8.39498 6.89604C8.22432 7.17337 7.98698 7.38671 7.68298 7.53604C7.37898 7.68537 7.02698 7.76004 6.62698 7.76004H5.47498L5.56298 7.49604L8.74698 10H7.35498ZM4.45898 6.20804V5.58404H9.13898V6.20804H4.45898Z" fill="#876DF8"/>
</g>
<defs>
<clipPath id="clip0_8737_2300">
<rect width="16" height="16" fill="white"/>
</clipPath>
</defs>
</svg>
