<svg width="18" height="18" viewBox="0 0 18 18" fill="none" xmlns="http://www.w3.org/2000/svg">
<path d="M17.3327 8.99935C17.3327 13.6017 13.6017 17.3327 8.99935 17.3327C4.39698 17.3327 0.666016 13.6017 0.666016 8.99935C0.666016 4.39698 4.39698 0.666016 8.99935 0.666016C13.6017 0.666016 17.3327 4.39698 17.3327 8.99935Z" fill="#DFF6E0" stroke="#DFF6E0" stroke-width="1.25"/>
<path d="M9.85926 12.3328L6.23926 9.53281V8.48281H8.97926C9.24592 8.48281 9.47926 8.42948 9.67926 8.32281C9.87926 8.21615 10.0359 8.06948 10.1493 7.88281C10.2626 7.68948 10.3193 7.46281 10.3193 7.20281C10.3193 6.94281 10.2626 6.71948 10.1493 6.53281C10.0359 6.33948 9.87926 6.19281 9.67926 6.09281C9.47926 5.98615 9.24592 5.93281 8.97926 5.93281H6.23926V4.88281H12.0893V5.65281H10.4193L10.7093 5.43281C10.9559 5.63281 11.1459 5.88281 11.2793 6.18281C11.4193 6.48281 11.4893 6.82615 11.4893 7.21281C11.4893 7.69281 11.3793 8.10615 11.1593 8.45281C10.9459 8.79948 10.6493 9.06615 10.2693 9.25281C9.88926 9.43948 9.44926 9.53281 8.94926 9.53281H7.50926L7.61926 9.20281L11.5993 12.3328H9.85926ZM6.23926 7.59281V6.81281H12.0893V7.59281H6.23926Z" fill="#1B6600"/>
</svg>
