<svg width="30" height="28" viewBox="0 0 30 28" fill="none" xmlns="http://www.w3.org/2000/svg">
<path d="M28.0104 14.5207C27.9618 14.5034 27.3495 14.2884 27.3981 14.3057L27.1969 11.3564L28.9099 11.9606L28.0104 14.5207ZM26.3993 19.2752C26.3374 19.2863 27.6962 19.1899 2.44324 20.9061C1.80222 20.9432 1.23806 20.4589 1.19593 19.8151C1.03185 17.3909 0.588526 10.8424 0.26147 6.01136C0.215384 5.36763 0.700963 4.81162 1.34754 4.76467C6.08112 4.44589 0.563814 4.81903 25.2364 3.1473C25.8869 3.10035 26.4361 3.59582 26.4788 4.23337L27.4177 18.0359C27.4591 18.6512 27.0134 19.1949 26.3993 19.2752ZM4.12028 3.23997C4.16896 3.25727 6.92217 4.22719 6.74833 4.16541L3.72131 4.37051L4.12028 3.23997ZM16.0499 24.068C14.8901 23.5021 14.998 22.0021 15.7047 22.2999C15.92 22.3913 16.1253 22.6582 16.182 22.9201C16.268 23.3192 16.2061 23.7072 16.0499 24.068ZM11.4257 26.1066C10.2698 25.4876 10.3337 24.2137 10.9465 24.2137C11.4322 24.2137 11.9491 25.1343 11.4257 26.1066ZM29.0874 8.04757L26.9189 7.28275L26.7104 4.21854C26.6584 3.42407 25.9643 2.85695 25.2206 2.91502L16.2321 3.52415L6.43511 0.0769119C5.72367 -0.171436 4.94292 0.201704 4.69259 0.910921C4.67603 0.956636 3.41612 4.53732 3.46876 4.38782L1.3316 4.53238C0.556154 4.58798 -0.0256757 5.25642 0.0298013 6.02742L0.491657 12.849L0.0729226 14.0364C-0.13873 14.6529 0.124199 15.3387 0.682182 15.6649L0.964139 19.83C1.01233 20.5713 1.63196 21.1409 2.36589 21.1409C2.39678 21.1409 2.42779 21.1397 2.45868 21.1372L13.9366 20.3575L18.9284 22.1133C18.5113 23.6256 17.3908 24.2063 16.7163 24.2199C16.56 24.2175 16.4101 24.1989 16.2648 24.1532C16.8739 22.741 15.8868 21.7278 15.2532 22.117C14.6877 22.4667 14.874 23.7467 15.9481 24.2755C15.6211 24.8723 15.0488 25.3801 14.5 25.7113C13.6328 26.2351 12.5844 26.5885 11.6411 26.208C12.2644 25.0366 11.5409 23.7813 10.778 24.0049C10.0325 24.2249 10.0623 25.626 11.3035 26.3031C10.631 27.2458 9.26444 27.2026 8.48134 26.4699C7.89358 25.9201 7.64288 25.028 7.8423 24.1965C7.85725 24.1334 7.8187 24.0717 7.75643 24.0556C7.69416 24.0408 7.63102 24.0791 7.61607 24.1421C7.25133 25.6631 8.25264 27.2471 9.87864 27.2471C10.5345 27.2471 11.1347 26.9654 11.5194 26.4069C12.5386 26.8418 13.6726 26.4823 14.62 25.9102C15.2054 25.5568 15.8151 25.0119 16.163 24.3633C16.342 24.425 16.5328 24.4522 16.7209 24.4522C17.4638 24.4374 18.6923 23.8122 19.1469 22.1899L23.5634 23.743C24.2792 23.9926 25.0577 23.6133 25.306 22.9053L26.5068 19.4889C27.1995 19.3592 27.6975 18.7315 27.6493 18.0211L27.5483 16.5359C27.7715 15.9008 29.1902 11.863 29.1677 11.9273L29.9206 9.78973C30.1739 9.08051 29.8015 8.29716 29.0874 8.04757Z" fill="#0E0A1F"/>
<path d="M3.05029 8.22708L3.27292 10.6904L5.79306 10.4628L5.57079 7.99829L3.05029 8.22708Z" fill="#0E0A1F"/>
<path d="M5.54904 7.76702C5.55239 7.61654 5.42341 7.22363 5.70262 6.84624L5.91711 6.56201L3.48824 6.78056C3.16985 6.80803 2.94378 7.08868 2.97447 7.3968L3.02869 7.99512L5.54904 7.76702Z" fill="#0E0A1F"/>
<path d="M5.81338 10.6952L3.29346 10.9243L3.34653 11.5122C3.37329 11.822 3.65056 12.0511 3.96464 12.0254L6.3637 11.8068L6.19912 11.6794C5.76826 11.3392 5.85348 10.8787 5.81338 10.6952Z" fill="#0E0A1F"/>
<path d="M6.70303 11.7744L9.75058 11.4981C10.062 11.467 10.2943 11.1906 10.2681 10.8808L10.0965 9.00979C10.0157 9.01457 7.57955 9.17009 7.50359 9.17487C7.35441 9.17487 7.34795 8.95237 7.49629 8.9428L10.0754 8.7789L9.89126 6.76795C9.8653 6.4617 9.59853 6.23081 9.27816 6.25474L6.23349 6.52869L6.18408 6.59449L6.65111 11.7349L6.70303 11.7744Z" fill="#0E0A1F"/>
<path d="M4.83425 18.2828C4.80703 18.0601 4.7058 17.8902 4.60828 17.9026L2.66673 18.0747C2.56921 18.0871 2.5123 18.2771 2.53952 18.4987L2.58451 18.8643C2.61173 19.087 2.71295 19.2568 2.81047 19.2456L4.75202 19.0723C4.84954 19.06 4.90645 18.8699 4.87924 18.6483L4.83425 18.2828Z" fill="#0E0A1F"/>
<path d="M7.91324 17.9246C7.88608 17.7026 7.78488 17.5324 7.6874 17.5448L5.74576 17.7173C5.64828 17.7297 5.59137 17.919 5.61864 18.141L5.66361 18.5073C5.69088 18.7293 5.79208 18.8995 5.88967 18.8871L7.83108 18.7146C7.92868 18.7022 7.98559 18.5129 7.95832 18.2909L7.91324 17.9246Z" fill="#0E0A1F"/>
<path d="M11.0599 17.5244C11.0327 17.303 10.9315 17.1325 10.834 17.1449L8.89243 17.3177C8.79484 17.329 8.73781 17.5187 8.76514 17.7412L8.8102 18.1071C8.83742 18.3285 8.93862 18.499 9.0362 18.4878L10.9778 18.3138C11.0752 18.3025 11.1322 18.1128 11.1048 17.8903L11.0599 17.5244Z" fill="#0E0A1F"/>
<path d="M9.98093 15.9092C10.0445 15.9012 10.0908 15.8443 10.0835 15.7805C10.0768 15.7168 10.0212 15.6633 9.95543 15.6781L2.54906 16.4875C2.40414 16.5034 2.41621 16.7197 2.56181 16.7197C2.56591 16.7197 8.3589 16.0856 9.98093 15.9092Z" fill="#0E0A1F"/>
<path d="M3.05241 14.9619C10.7448 14.1332 6.98252 14.5384 8.06043 14.4224C8.12447 14.4156 8.17085 14.3582 8.16407 14.2939C8.15673 14.2308 8.09865 14.1837 8.03586 14.1906L3.04024 14.7289C2.9762 14.7369 2.92983 14.7943 2.93671 14.8575C2.94349 14.9171 2.99387 14.9619 3.05241 14.9619Z" fill="#0E0A1F"/>
<path d="M20.8264 6.23697C21.8306 6.36752 22.1043 7.63113 21.2698 8.18328C21.1735 8.24676 21.2189 8.39648 21.3339 8.39648C21.3561 8.39648 21.3785 8.39049 21.398 8.37731C21.8831 8.05632 22.1074 7.45387 21.9439 6.91249C21.7975 6.42861 21.3712 6.07288 20.8564 6.00581C20.7942 5.99623 20.7343 6.04294 20.7261 6.10642C20.7179 6.1699 20.7628 6.22858 20.8264 6.23697Z" fill="#0E0A1F"/>
<path d="M21.4857 5.05604C21.6624 5.12833 22.5595 5.53922 22.8443 6.57068C23.1745 7.76722 22.3573 8.69023 22.3224 8.72879C22.2187 8.84326 22.3926 8.99749 22.495 8.88423C22.5336 8.84205 23.4325 7.82626 23.0687 6.50923C22.7543 5.37173 21.7677 4.91987 21.5729 4.84034C21.5143 4.81624 21.4456 4.84516 21.4216 4.9042C21.3975 4.96445 21.4261 5.03194 21.4857 5.05604Z" fill="#0E0A1F"/>
<path d="M22.5772 3.8628C22.5245 3.82647 22.4509 3.83979 22.4155 3.89429C22.3796 3.94636 22.3933 4.01903 22.4468 4.05536C24.2323 5.26398 24.6917 7.61825 23.5878 9.40212C23.5543 9.45783 23.5711 9.52927 23.6256 9.56318C23.6804 9.59588 23.7514 9.58014 23.786 9.52443C24.9581 7.62915 24.4617 5.13803 22.5772 3.8628Z" fill="#0E0A1F"/>
<path d="M20.3228 17.6296L21.7385 13.1774L23.556 12.2907L20.3228 17.6296ZM15.8253 12.6818L17.7422 13.3441L19.4678 17.7107L15.8253 12.6818ZM16.6247 10.9941L18.0274 11.4921L17.7401 13.0975C17.6858 13.0787 15.5635 12.3447 15.6954 12.3905L16.6247 10.9941ZM17.9258 10.1826L21.1843 10.0487L22.4243 10.6054L21.2607 11.175C19.8536 11.2313 18.1202 11.3006 18.177 11.2983L16.8501 10.8273L17.9258 10.1826ZM21.716 12.9296C21.7024 12.8826 21.2485 11.3112 21.2762 11.4063H21.292C21.3389 11.4052 21.2617 11.4286 22.6629 10.7475L23.6764 11.9736L21.716 12.9296ZM18.2573 11.5273L21.0361 11.4145L21.4897 12.9848L17.9706 13.1292C17.9791 13.0822 18.2748 11.4298 18.2573 11.5273ZM19.9031 18.1804L17.9989 13.3617L21.4815 13.2173L19.9031 18.1804ZM23.9518 11.9477C23.95 11.9454 23.9516 11.9407 23.9499 11.9383C23.2073 11.0469 22.7653 10.5032 22.7434 10.4938C21.1773 9.79383 21.2492 9.81145 21.2025 9.81498C17.6508 9.96648 17.8721 9.94299 17.8312 9.96765C17.2435 10.3235 16.5041 10.7545 16.4817 10.7898C15.4218 12.3881 15.3787 12.4116 15.4047 12.4892C15.4145 12.5185 19.824 18.6126 19.8671 18.6326C19.9179 18.6572 19.9829 18.6396 20.0147 18.5868C23.9779 12.0311 23.9636 12.084 23.9738 12.037C23.9748 12.0335 23.9702 12.0288 23.9707 12.0253C23.9737 11.9971 23.9684 11.9712 23.9518 11.9477Z" fill="#0E0A1F"/>
</svg>
