<svg width="17" height="17" viewBox="0 0 17 17" fill="none" xmlns="http://www.w3.org/2000/svg">
<path d="M8.79687 9.29188L11.3215 11.8165C11.3941 11.8891 11.4833 11.928 11.5891 11.9332C11.6949 11.9384 11.7892 11.8995 11.8722 11.8165C11.9552 11.7336 11.9967 11.6418 11.9967 11.5412C11.9967 11.4406 11.9552 11.3488 11.8722 11.2659L9.34754 8.74121L11.8722 6.21654C11.9448 6.14395 11.9837 6.05477 11.9889 5.94899C11.9941 5.84321 11.9552 5.74884 11.8722 5.66588C11.7892 5.58291 11.6975 5.54143 11.5969 5.54143C11.4963 5.54143 11.4045 5.58291 11.3215 5.66588L8.79687 8.19054L6.27221 5.66588C6.19962 5.59328 6.11043 5.5544 6.00465 5.54921C5.89887 5.54403 5.8045 5.58291 5.72154 5.66588C5.63858 5.74884 5.5971 5.84062 5.5971 5.94121C5.5971 6.0418 5.63858 6.13358 5.72154 6.21654L8.24621 8.74121L5.72154 11.2659C5.64895 11.3385 5.61006 11.4279 5.60487 11.5342C5.59969 11.6395 5.63858 11.7336 5.72154 11.8165C5.8045 11.8995 5.89628 11.941 5.99687 11.941C6.09747 11.941 6.18924 11.8995 6.27221 11.8165L8.79687 9.29188ZM8.79921 15.7412C7.83113 15.7412 6.92113 15.5577 6.06921 15.1905C5.21728 14.8229 4.47606 14.3241 3.84554 13.6941C3.21502 13.0641 2.71595 12.3237 2.34832 11.4728C1.98069 10.6219 1.79688 9.71214 1.79688 8.74354C1.79687 7.77495 1.98069 6.86495 2.34832 6.01354C2.71543 5.16162 3.21347 4.4204 3.84243 3.78988C4.47139 3.15936 5.2121 2.66028 6.06454 2.29266C6.91699 1.92503 7.82699 1.74121 8.79454 1.74121C9.7621 1.74121 10.6721 1.92503 11.5245 2.29266C12.3765 2.65977 13.1177 3.15806 13.7482 3.78754C14.3787 4.41703 14.8778 5.15773 15.2454 6.00965C15.6131 6.86158 15.7969 7.77132 15.7969 8.73888C15.7969 9.70643 15.6133 10.6164 15.2462 11.4689C14.8791 12.3213 14.3803 13.0625 13.7498 13.6925C13.1192 14.3225 12.3788 14.8216 11.5284 15.1898C10.6781 15.5579 9.76832 15.7417 8.79921 15.7412ZM8.79687 14.9634C10.5339 14.9634 12.0052 14.3607 13.2108 13.1551C14.4163 11.9495 15.0191 10.4782 15.0191 8.74121C15.0191 7.00417 14.4163 5.53288 13.2108 4.32732C12.0052 3.12177 10.5339 2.51899 8.79687 2.51899C7.05984 2.51899 5.58854 3.12177 4.38299 4.32732C3.17743 5.53288 2.57465 7.00417 2.57465 8.74121C2.57465 10.4782 3.17743 11.9495 4.38299 13.1551C5.58854 14.3607 7.05984 14.9634 8.79687 14.9634Z" fill="#960000"/>
</svg>
