<svg width="31" height="31" viewBox="0 0 31 31" fill="none" xmlns="http://www.w3.org/2000/svg">
<path d="M24.125 26.9414L17.2813 20.0977L19.9063 17.4727L26.75 24.3164L24.125 26.9414ZM6.875 26.9414L4.25 24.3164L12.875 15.6914L10.75 13.5664L9.875 14.4414L8.28125 12.8477V15.4102L7.40625 16.2852L3.625 12.5039L4.5 11.6289H7.0625L5.5 10.0664L9.9375 5.62891C10.3542 5.21224 10.8021 4.91016 11.2813 4.72266C11.7604 4.53516 12.25 4.44141 12.75 4.44141C13.25 4.44141 13.7396 4.53516 14.2188 4.72266C14.6979 4.91016 15.1458 5.21224 15.5625 5.62891L12.6875 8.50391L14.25 10.0664L13.375 10.9414L15.5 13.0664L18.3125 10.2539C18.2292 10.0247 18.1615 9.78516 18.1094 9.53516C18.0573 9.28516 18.0313 9.03516 18.0313 8.78516C18.0313 7.55599 18.4531 6.51953 19.2969 5.67578C20.1406 4.83203 21.1771 4.41016 22.4063 4.41016C22.7188 4.41016 23.0156 4.44141 23.2969 4.50391C23.5781 4.56641 23.8646 4.66016 24.1563 4.78516L21.0625 7.87891L23.3125 10.1289L26.4063 7.03516C26.5521 7.32682 26.651 7.61328 26.7031 7.89453C26.7552 8.17578 26.7813 8.47266 26.7813 8.78516C26.7813 10.0143 26.3594 11.0508 25.5156 11.8945C24.6719 12.7383 23.6354 13.1602 22.4063 13.1602C22.1563 13.1602 21.9063 13.1393 21.6563 13.0977C21.4063 13.056 21.1667 12.9831 20.9375 12.8789L6.875 26.9414Z" fill="#484848"/>
</svg>
