<svg width="22" height="28" viewBox="0 0 22 28" fill="none" xmlns="http://www.w3.org/2000/svg">
<path d="M5.28147 1.12439C5.4956 1.31378 5.71059 1.50232 5.92557 1.69597C6.04757 1.80432 6.21819 1.77275 6.30521 1.66697C6.58417 1.32828 6.85973 0.993008 7.1532 0.650057C7.17453 0.622757 7.21377 0.623617 7.23851 0.648357C7.44667 0.873579 7.65654 1.09965 7.86726 1.33681C7.97389 1.45198 8.14196 1.45198 8.24433 1.34876C8.56681 1.03567 8.89355 0.72172 9.21943 0.412895C9.24503 0.389008 9.28086 0.389011 9.30304 0.412045C10.0811 1.24297 10.0538 1.29501 10.2278 1.29501C10.2287 1.29501 10.2287 1.29501 10.2295 1.29501C10.302 1.29501 10.3694 1.26516 10.4198 1.21141C10.662 0.951212 10.9282 0.676504 11.3147 0.274689C11.3249 0.263599 11.3386 0.257627 11.3531 0.257627C11.3633 0.26104 11.3787 0.259335 11.3906 0.272131C12.3145 1.21055 12.4638 1.19946 12.5278 1.18922C12.5704 1.18496 12.6063 1.16363 12.6268 1.13206C12.7018 1.02457 13.171 0.486263 13.4005 0.231184C13.4125 0.218388 13.427 0.211563 13.4423 0.211563C13.4509 0.21327 13.4722 0.216679 13.485 0.229475C13.729 0.474318 13.9696 0.722574 14.2118 0.977655C14.3142 1.08003 14.4882 1.08259 14.5957 0.975098C14.8184 0.73452 15.047 0.494791 15.2748 0.257627C15.297 0.234592 15.3362 0.234596 15.3576 0.256777C15.6152 0.535744 15.8677 0.814707 16.1211 1.09794C16.2209 1.21226 16.3958 1.21823 16.4999 1.11415L17.1056 0.541719C17.1465 0.506742 17.2114 0.532333 17.2054 0.586933C16.6782 5.32425 16.3873 10.6647 16.3489 12.893C16.3566 13.0637 16.4965 16.0743 16.4896 15.9335C16.447 15.9344 6.93566 16.1272 6.75395 16.1221C6.72835 15.9497 6.30777 13.1362 6.30265 12.992C6.29326 12.6636 6.15933 10.2245 6.01856 8.46284L5.99297 8.16681C5.96311 7.77097 5.92814 7.37428 5.88975 6.98697C5.88975 6.98526 5.88804 6.9844 5.88804 6.98355C5.69609 4.93097 5.46063 2.97649 5.18849 1.17643C5.18081 1.12354 5.23797 1.08856 5.28147 1.12439ZM6.17895 13.6694C5.30451 13.6881 4.50771 14.2324 4.34988 15.0181C4.053 16.2398 5.29001 17.4094 6.66437 17.3804L17.1073 17.1518C17.98 17.1518 18.8058 16.5657 18.9056 15.6878C19.0737 14.6522 18.0585 13.5013 16.6483 13.5013L16.5894 13.503L16.563 12.9425C16.5843 12.4656 16.4888 14.6692 16.7652 8.28028H19.8466C20.3013 8.28028 20.6707 8.65052 20.6707 9.10438V18.5176C20.6707 18.9715 20.3013 19.3417 19.8466 19.3417H3.10519C2.65134 19.3417 2.28194 18.9715 2.28194 18.5176V9.10438C2.28194 8.65052 2.65134 8.28028 3.10519 8.28028H5.79078C6.08596 12.2174 6.08766 12.963 6.0979 13.1183L6.17895 13.6694ZM5.18167 15.3602C5.02981 15.1214 4.9991 14.8996 5.08867 14.7016C5.2593 14.3237 5.82747 14.0865 6.22758 14.0012L6.53811 16.1024C6.06293 16.0393 5.46661 15.8167 5.18167 15.3602ZM16.6022 13.7939C17.0339 13.8093 17.6064 13.962 17.9433 14.3587C18.2291 14.6931 18.1634 15.2672 17.9084 15.5027C17.8657 15.53 17.5193 15.9122 16.8113 15.9267C16.8095 15.9267 16.772 15.9267 16.7004 15.9284C16.6978 15.8858 16.5963 13.654 16.6022 13.7939ZM21.7883 7.92539V21.3764C21.7883 21.8311 21.4189 22.2005 20.9642 22.2005C10.9649 22.2005 12.0108 22.2005 1.98762 22.2005C1.53376 22.2005 1.16352 21.8311 1.16352 21.3764V7.92539C1.16352 7.47153 1.53376 7.10213 1.98762 7.10213H5.68756C5.71827 7.41779 5.74642 7.73941 5.77201 8.07042H3.10519C2.53617 8.07042 2.07122 8.5345 2.07122 9.10438V18.5176C2.07122 19.0875 2.53617 19.5516 3.10519 19.5516H19.8466C20.4165 19.5516 20.8806 19.0875 20.8806 18.5176V9.10438C20.8806 8.5345 20.4165 8.07042 19.8466 8.07042H16.778C16.7865 7.92539 16.8096 7.51931 16.8403 7.10213H20.9642C21.4189 7.10213 21.7883 7.47153 21.7883 7.92539ZM14.7169 25.4431H8.73743L9.52996 22.4112H14.0173C14.0276 22.453 14.7638 25.6462 14.7169 25.4431ZM1.03214 6.89141C0.463112 6.89141 -0.000976562 7.35636 -0.000976562 7.92539V21.3764C-0.000976562 21.9471 0.463112 22.4112 1.03214 22.4112H1.98762H8.80397C7.86811 26.0207 7.99181 25.4457 7.99351 25.5481H7.09093C6.68314 25.5481 6.35213 25.8808 6.35213 26.2877C6.35213 26.71 6.68314 27.041 7.09093 27.041H8.28613C8.25115 26.9642 8.28102 27.1929 8.26993 25.6539H8.4849C8.47296 27.1963 8.50282 26.9625 8.46784 27.041H10.5776C10.5426 26.9634 10.5733 27.1954 10.5614 25.6539H10.7764C10.7644 27.1954 10.7951 26.9634 10.7601 27.041H13.0704C13.0473 27.0214 13.032 26.995 13.032 26.9634V25.6539H13.247V26.9634C13.247 26.995 13.2308 27.0214 13.2077 27.041H15.268C15.1946 26.9779 15.245 27.0018 15.2296 25.5498C15.2296 25.5489 15.2296 25.5489 15.2296 25.5481H14.9472C14.9481 25.4704 14.5224 23.6781 14.234 22.4112H20.9642C21.5349 22.4112 21.999 21.9471 21.999 21.3764V7.92539C21.999 7.35636 21.5349 6.89141 20.9642 6.89141H16.8565C16.9947 4.81324 17.1815 2.70094 17.4144 0.609968C17.4426 0.363419 17.1457 0.217533 16.9623 0.3873V0.388159C16.3438 0.963156 16.3625 0.977655 16.3182 0.977655C16.2721 0.976803 16.3438 1.01519 15.5111 0.113457C15.4096 0.00596428 15.2219 0.00681305 15.1221 0.112598C14.8935 0.349762 14.6657 0.591192 14.4439 0.82921C14.4208 0.853098 14.3842 0.852245 14.3628 0.830919C14.1205 0.576691 13.88 0.326735 13.6334 0.0810394C13.5814 0.0281467 13.4995 0.00169754 13.4389 0.000844955C13.3664 0.00169754 13.2982 0.0332661 13.2444 0.089571C13.0729 0.280668 12.6344 0.779737 12.4868 0.968273C12.387 0.917088 12.1064 0.699541 11.5407 0.124544C11.4904 0.0742111 11.4247 0.0469151 11.3539 0.0469151C11.3531 0.0469151 11.3522 0.0469151 11.3497 0.0469151C11.1765 0.0486221 11.1227 0.192793 10.9257 0.376213C10.2244 1.10392 10.2713 1.08429 10.2295 1.08429C10.1749 1.08429 10.2099 1.07321 9.4566 0.268724C9.35508 0.159525 9.18531 0.156961 9.07526 0.259335C8.08138 1.20202 8.10527 1.21397 8.06347 1.21397C8.06091 1.25662 7.89626 1.05017 7.39207 0.505028C7.27264 0.377914 7.08069 0.400953 6.99026 0.516975C6.10814 1.54327 6.138 1.60213 6.06549 1.539C5.8505 1.34534 5.63552 1.15595 5.41883 0.965708C5.22859 0.803617 4.9445 0.959743 4.97948 1.20715C5.2465 2.97052 5.47769 4.88319 5.66708 6.89141H1.98762H1.03214Z" fill="#606062"/>
<path d="M9.79058 11.2097C9.79216 10.901 9.79295 10.5924 9.79533 10.2846C9.79533 10.2536 9.81358 10.2132 9.84532 10.2092C11.6114 9.97911 13.4156 9.95055 15.2048 10.1275C15.2373 10.1307 15.2611 10.1576 15.2611 10.2013C15.2413 12.23 15.2666 12.203 15.2341 12.2459C15.2317 12.2482 15.2317 12.253 15.2294 12.2554C15.1508 12.3236 13.2728 11.8777 10.0365 12.1657C9.97385 12.1713 9.91117 12.1737 9.84849 12.1792C9.83263 12.18 9.81755 12.1753 9.80645 12.1657C9.80565 12.1649 9.80485 12.1633 9.80406 12.1618C9.77788 12.134 9.78661 12.2006 9.79058 11.2097ZM15.227 9.91723C15.2262 9.91723 15.2262 9.91723 15.2262 9.91723C13.3315 9.73157 11.4186 9.78473 9.81596 10.0005C9.72948 10.014 9.62872 10.0886 9.59857 10.1965C9.57556 10.4377 9.58588 9.94023 9.57715 12.1435C9.58984 12.3038 9.70409 12.4101 9.86833 12.4022C12.8936 12.1062 15.0056 12.4902 15.1984 12.4902C15.3436 12.4902 15.4586 12.3712 15.4586 12.2252C15.4594 12.1745 15.4729 10.0584 15.4713 10.1902C15.4713 10.0497 15.3666 9.9323 15.227 9.91723Z" fill="#606062"/>
<path d="M15.4067 27.0391H16.1154C16.5237 27.0391 16.8553 26.7074 16.8553 26.2999C16.8553 25.8784 16.5237 25.5459 16.1154 25.5459H15.4451C15.4451 25.5467 15.4458 25.5467 15.4458 25.5467C15.4302 27.0101 15.4803 26.9757 15.4067 27.0391Z" fill="#606062"/>
<path d="M12.0201 24.875C12.5177 24.7296 12.8047 24.204 12.6593 23.7034C12.426 22.9045 11.331 22.7772 10.9243 23.5156C10.5161 24.257 11.2197 25.1112 12.0201 24.875Z" fill="#606062"/>
<path d="M17.1567 20.7982H12.5507C12.3219 20.7982 12.1362 20.9822 12.1362 21.2087C12.1362 21.4376 12.3219 21.624 12.5507 21.624H17.1567C17.3848 21.624 17.5712 21.4376 17.5712 21.2087C17.5712 20.9822 17.3848 20.7982 17.1567 20.7982Z" fill="#606062"/>
<path d="M8.48227 21.1564H5.46066C5.40199 21.1564 5.35359 21.1072 5.35359 21.0486C5.35359 20.9899 5.40199 20.9415 5.46066 20.9415H8.48227C8.54168 20.9415 8.59008 20.9899 8.59008 21.0486C8.59008 21.1072 8.54168 21.1564 8.48227 21.1564ZM8.4918 20.7948H3.88605C3.65869 20.7948 3.47314 20.9803 3.47314 21.2077C3.47314 21.4358 3.65869 21.625 3.88605 21.625H8.4918C8.71989 21.625 8.90911 21.4358 8.90911 21.2077C8.90911 20.9803 8.71989 20.7948 8.4918 20.7948Z" fill="#606062"/>
<path d="M8.93324 2.87787C8.91797 2.82018 8.95275 2.76164 9.00959 2.74637C9.06643 2.7311 9.12582 2.76503 9.14109 2.82187L9.19709 3.03651C9.27005 3.01445 9.34555 2.99748 9.42106 2.989C10.037 2.91774 10.2135 3.29357 10.0243 3.35889C9.96657 3.37925 9.90634 3.34787 9.88852 3.29187C9.87325 3.2503 9.69085 3.1714 9.44482 3.20194C8.88743 3.26557 8.47511 3.71692 9.04523 3.90441C9.26496 3.97737 9.5831 3.99688 9.83762 4.05881C10.8642 4.30145 10.8345 5.10657 9.88258 5.31272L9.925 5.45949C9.94112 5.51633 9.90888 5.57572 9.85289 5.59269C9.79435 5.60881 9.73496 5.57657 9.71885 5.51972L9.66794 5.34581C9.61704 5.3509 9.56613 5.35599 9.51608 5.35599C9.25478 5.35599 8.92815 5.28133 8.8204 5.05821C8.73811 4.88514 8.8501 4.6671 8.9833 4.74515C9.03505 4.77569 9.05117 4.84102 9.02147 4.89192C8.94766 5.01409 9.20218 5.10911 9.3515 5.12947C9.63486 5.17019 9.99202 5.09978 10.2007 4.96573C10.3687 4.85714 10.4264 4.71716 10.3568 4.5916C10.048 4.0427 8.70248 4.38289 8.5625 3.7237C8.50396 3.45052 8.73896 3.23673 8.99518 3.11456L8.93324 2.87787ZM6.84707 4.72394C7.04559 6.06948 8.21466 7.07227 9.57801 7.07227C9.59328 7.07227 9.60855 7.07227 9.62467 7.07142C10.9965 7.03918 12.0748 5.83108 12.079 4.32181C12.079 4.31926 12.079 4.31757 12.079 4.31502C12.079 4.31332 12.079 4.31078 12.079 4.30908C12.0833 3.52348 11.7584 2.78284 11.1865 2.27636C9.48893 0.770479 6.72575 2.20255 6.82332 4.46094C6.82671 4.54918 6.83434 4.63656 6.84707 4.72394Z" fill="#606062"/>
<path d="M11.846 10.5559C11.8049 10.6793 11.7518 10.7988 11.6901 10.9127C11.7052 10.7877 11.7598 10.6603 11.846 10.5559ZM10.8444 12.0267C11.1411 11.8684 11.4014 11.654 11.6102 11.4016C11.8777 11.745 12.3706 11.7561 12.6103 11.3668C12.8358 11.5789 13.1776 11.4895 13.3959 11.245C13.5249 11.4705 13.877 11.5322 14.1167 11.2798C14.229 11.3692 14.4078 11.3289 14.4569 11.1904C14.4775 11.1366 14.4427 11.0733 14.3881 11.0535C14.3351 11.0337 14.267 11.0591 14.2465 11.1129C14.2433 11.1105 14.2417 11.1073 14.2401 11.1034C14.2536 11.0773 14.267 11.0504 14.2789 11.0219C14.3184 10.9269 14.2108 10.8391 14.1254 10.8921C14.0732 10.9253 14.0384 10.9823 14.0289 11.0496C13.8445 11.351 13.536 11.2371 13.5518 11.0274C13.5755 10.9886 13.5977 10.9507 13.619 10.9127C13.6744 10.8154 13.5589 10.7094 13.4671 10.7742C13.4086 10.8162 13.369 10.8779 13.3508 10.9523C13.3018 11.0306 13.2464 11.1049 13.1807 11.1635C12.9774 11.3423 12.7511 11.2885 12.6894 11.1216C12.6981 11.0171 12.687 10.9032 12.5826 10.9008C12.4758 10.8842 12.4552 11.0274 12.4758 11.1334C12.4671 11.188 12.4441 11.2426 12.4085 11.2909C12.2218 11.5456 11.8816 11.4641 11.7439 11.2244C11.8816 11.0258 11.9892 10.8075 12.0604 10.5772C12.0723 10.5393 12.1016 10.4404 12.0406 10.3597C11.8302 10.0946 11.3483 10.684 11.5042 11.1967C11.3048 11.4594 11.0445 11.6817 10.7463 11.8407C10.6948 11.8684 10.6751 11.9317 10.702 11.9832C10.7289 12.0338 10.7922 12.0544 10.8444 12.0267Z" fill="#606062"/>
<path d="M18.1646 18.9497L18.518 18.6307C18.5404 18.6115 18.574 18.6115 18.5948 18.6323L19.2218 19.2384C19.2442 19.2592 19.2793 19.2592 19.3009 19.2376L19.6896 18.849C19.712 18.8258 19.7112 18.789 19.688 18.7674L18.9723 18.1157C18.9507 18.0957 18.9475 18.0613 18.9667 18.0381L19.1818 17.7734C19.2082 17.7406 19.1922 17.6926 19.1514 17.683L17.8895 17.372C17.8503 17.3624 17.8135 17.3968 17.8207 17.4368L18.071 18.9169C18.0782 18.9609 18.131 18.9793 18.1646 18.9497Z" fill="#606062"/>
<path d="M11.2752 14.1322C11.2752 14.0747 11.2276 14.0287 11.1709 14.0287C11.1701 14.0287 11.1701 14.0287 11.1693 14.0287L8.18168 14.0594C8.12415 14.0594 8.07812 14.1069 8.07812 14.166C8.07812 14.2235 8.12568 14.2695 8.18321 14.2695C8.18398 14.2695 8.18397 14.2695 8.18474 14.2695L11.1716 14.2388C11.2299 14.2381 11.2759 14.1905 11.2752 14.1322Z" fill="#606062"/>
<path d="M12.6866 15.2707C12.6859 15.2707 12.6851 15.2707 12.6851 15.2707L9.56315 15.3101C9.42418 15.3117 9.42646 15.5205 9.56467 15.5205C9.60644 15.5205 12.7292 15.4833 12.6874 15.481C12.7459 15.4803 12.7922 15.4332 12.7914 15.3747C12.7907 15.317 12.7436 15.2707 12.6866 15.2707Z" fill="#606062"/>
<path d="M11.8363 6.94453C11.8428 7.00219 11.8915 7.03955 11.9532 7.0363C13.9649 6.79429 15.6557 7.03711 15.6135 7.03711C15.7442 7.03711 15.7564 6.84301 15.6265 6.82758C14.3994 6.67896 13.1552 6.67896 11.9281 6.82758C11.8704 6.83408 11.829 6.88687 11.8363 6.94453Z" fill="#606062"/>
<path d="M13.0983 5.74023C13.1024 5.74023 13.1057 5.74024 13.1106 5.73942C13.7876 5.65827 14.4737 5.65827 15.1483 5.73942C15.291 5.75335 15.309 5.54679 15.1746 5.5304C14.4836 5.44679 13.7803 5.44679 13.0852 5.5304C13.0278 5.53777 12.9868 5.59023 12.9934 5.64761C12.9999 5.70089 13.045 5.74023 13.0983 5.74023Z" fill="#606062"/>
<path d="M15.6259 8.22975C14.246 8.06259 12.8461 8.06259 11.4638 8.22975C11.3312 8.24502 11.3432 8.44835 11.4895 8.4379C12.8533 8.27395 14.2372 8.27395 15.6002 8.4379C15.7432 8.45076 15.7609 8.24502 15.6259 8.22975Z" fill="#606062"/>
</svg>
