<svg width="18" height="19" viewBox="0 0 18 19" fill="none" xmlns="http://www.w3.org/2000/svg">
<path d="M14.625 4.58154L14.1602 12.1004C14.0415 14.0214 13.9821 14.9819 13.5006 15.6724C13.2625 16.0139 12.956 16.302 12.6005 16.5186C11.8816 16.9565 10.9192 16.9565 8.99456 16.9565C7.06734 16.9565 6.10373 16.9565 5.38429 16.5177C5.0286 16.3008 4.722 16.0121 4.48401 15.6702C4.00266 14.9785 3.94459 14.0166 3.82846 12.0929L3.375 4.58154" stroke="#960000" stroke-width="1.125" stroke-linecap="round"/>
<path d="M2.25 4.58154H15.75M12.0418 4.58154L11.5298 3.52534C11.1897 2.82374 11.0196 2.47293 10.7263 2.25415C10.6612 2.20562 10.5923 2.16245 10.5203 2.12507C10.1954 1.95654 9.80559 1.95654 9.0259 1.95654C8.22662 1.95654 7.82699 1.95654 7.49676 2.13213C7.42357 2.17105 7.35374 2.21596 7.28797 2.26642C6.99123 2.49407 6.82547 2.85771 6.49395 3.58499L6.03969 4.58154" stroke="#960000" stroke-width="1.125" stroke-linecap="round"/>
<path d="M7.125 12.8315L7.125 8.33154" stroke="#960000" stroke-width="1.125" stroke-linecap="round"/>
<path d="M10.875 12.8315L10.875 8.33154" stroke="#960000" stroke-width="1.125" stroke-linecap="round"/>
</svg>
