<svg width="20" height="20" viewBox="0 0 20 20" fill="none" xmlns="http://www.w3.org/2000/svg">
<path d="M16.25 4.5835L15.7336 12.9377C15.6016 15.0722 15.5356 16.1394 15.0006 16.9067C14.7361 17.2861 14.3955 17.6062 14.0006 17.8468C13.2018 18.3335 12.1325 18.3335 9.99395 18.3335C7.8526 18.3335 6.78192 18.3335 5.98254 17.8459C5.58733 17.6049 5.24666 17.2842 4.98224 16.9042C4.4474 16.1357 4.38288 15.0669 4.25384 12.9295L3.75 4.5835" stroke="#606062" stroke-width="1.25" stroke-linecap="round"/>
<path d="M2.5 4.58329L17.5 4.58329M13.3798 4.58329L12.8109 3.40973C12.433 2.63017 12.244 2.24039 11.9181 1.9973C11.8458 1.94338 11.7692 1.89541 11.6892 1.85388C11.3283 1.66663 10.8951 1.66663 10.0288 1.66663C9.14069 1.66663 8.69665 1.66663 8.32974 1.86173C8.24842 1.90497 8.17082 1.95487 8.09774 2.01093C7.76803 2.26388 7.58386 2.66792 7.2155 3.47601L6.71077 4.58329" stroke="#606062" stroke-width="1.25" stroke-linecap="round"/>
<path d="M7.91602 13.7501L7.91602 8.75012" stroke="#606062" stroke-width="1.25" stroke-linecap="round"/>
<path d="M12.084 13.7501L12.084 8.75012" stroke="#606062" stroke-width="1.25" stroke-linecap="round"/>
</svg>
