<svg width="20" height="20" viewBox="0 0 20 20" fill="none" xmlns="http://www.w3.org/2000/svg">
<path d="M10.416 1.66663H10.6433C13.361 1.66663 14.7198 1.66663 15.6635 2.33149C15.9338 2.52198 16.1739 2.7479 16.3763 3.00237C17.0827 3.89052 17.0827 5.16942 17.0827 7.72723V9.84844C17.0827 12.3178 17.0827 13.5524 16.6919 14.5385C16.0637 16.1238 14.7351 17.3742 13.0507 17.9655C12.003 18.3333 10.6912 18.3333 8.06753 18.3333C6.56831 18.3333 5.8187 18.3333 5.22 18.1231C4.25751 17.7853 3.49831 17.0707 3.13932 16.1648C2.91602 15.6014 2.91602 14.8958 2.91602 13.4848V9.99996" stroke="#606062" stroke-width="1.25" stroke-linecap="round" stroke-linejoin="round"/>
<path d="M17.0833 10.0001C17.0833 11.5342 15.8397 12.7779 14.3056 12.7779C13.7507 12.7779 13.0966 12.6807 12.5572 12.8252C12.0779 12.9537 11.7035 13.328 11.5751 13.8073C11.4306 14.3468 11.5278 15.0009 11.5278 15.5557C11.5278 17.0898 10.2841 18.3335 8.75 18.3335" stroke="#606062" stroke-width="1.25" stroke-linecap="round" stroke-linejoin="round"/>
<path d="M3.75 3.75008C4.15961 3.32867 5.24981 1.66675 5.83333 1.66675M7.91667 3.75008C7.50706 3.32867 6.41686 1.66675 5.83333 1.66675M5.83333 1.66675L5.83333 8.33341" stroke="#606062" stroke-width="1.25" stroke-linecap="round" stroke-linejoin="round"/>
</svg>
