<svg width="13" height="14" viewBox="0 0 13 14" fill="none" xmlns="http://www.w3.org/2000/svg">
<path d="M7.8157 2.50613C8.2284 2.05899 8.43476 1.83542 8.65403 1.705C9.18313 1.39034 9.83462 1.38055 10.3725 1.67919C10.5955 1.80296 10.8082 2.02024 11.2336 2.4548C11.659 2.88936 11.8717 3.10664 11.9928 3.33437C12.2852 3.88388 12.2756 4.5494 11.9676 5.08989C11.8399 5.31389 11.621 5.52469 11.1833 5.94629L5.97527 10.9625C5.14577 11.7614 4.73102 12.1609 4.21267 12.3634C3.69432 12.5658 3.12447 12.5509 1.98478 12.5211L1.82971 12.5171C1.48275 12.508 1.30927 12.5035 1.20843 12.389C1.10759 12.2746 1.12135 12.0979 1.14889 11.7444L1.16384 11.5525C1.24134 10.5578 1.28009 10.0604 1.47433 9.61332C1.66858 9.16622 2.00365 8.8032 2.67378 8.07715L7.8157 2.50613Z" stroke="#5B5FC7" stroke-width="1.5" stroke-linejoin="round"/>
<path d="M7.22168 2.56934L11.0985 6.44615" stroke="#5B5FC7" stroke-width="1.5" stroke-linejoin="round"/>
<path d="M7.77539 12.5386L12.206 12.5386" stroke="#5B5FC7" stroke-width="1.5" stroke-linecap="round" stroke-linejoin="round"/>
</svg>
