<svg width="25" height="24" viewBox="0 0 25 24" fill="none" xmlns="http://www.w3.org/2000/svg">
<rect x="0.667969" width="24" height="24" rx="12" fill="white"/>
<path d="M13.8157 7.50613C14.2284 7.05899 14.4348 6.83542 14.654 6.705C15.1831 6.39034 15.8346 6.38055 16.3725 6.67919C16.5955 6.80296 16.8082 7.02024 17.2336 7.4548C17.659 7.88936 17.8717 8.10664 17.9928 8.33437C18.2852 8.88388 18.2756 9.5494 17.9676 10.0899C17.8399 10.3139 17.621 10.5247 17.1833 10.9463L11.9753 15.9625C11.1458 16.7614 10.731 17.1609 10.2127 17.3634C9.69432 17.5658 9.12447 17.5509 7.98478 17.5211L7.82971 17.5171C7.48275 17.508 7.30927 17.5035 7.20843 17.389C7.10759 17.2746 7.12135 17.0979 7.14889 16.7444L7.16384 16.5525C7.24134 15.5578 7.28009 15.0604 7.47433 14.6133C7.66858 14.1662 8.00365 13.8032 8.67378 13.0771L13.8157 7.50613Z" stroke="#5B5FC7" stroke-width="1.5" stroke-linejoin="round"/>
<path d="M13.2217 7.56934L17.0985 11.4462" stroke="#5B5FC7" stroke-width="1.5" stroke-linejoin="round"/>
<path d="M13.7754 17.5386L18.206 17.5386" stroke="#5B5FC7" stroke-width="1.5" stroke-linecap="round" stroke-linejoin="round"/>
</svg>
