<svg width="18" height="18" viewBox="0 0 18 18" fill="none" xmlns="http://www.w3.org/2000/svg">
<path d="M10.666 0.666656H7.33268C4.59999 0.666656 3.23365 0.666656 2.2651 1.34484C1.90677 1.59574 1.5951 1.90741 1.3442 2.26574C0.666016 3.23429 0.666016 4.60063 0.666016 7.33332C0.666016 10.066 0.666016 11.4324 1.3442 12.4009C1.5951 12.7592 1.90677 13.0709 2.2651 13.3218C3.23365 14 4.59999 14 7.33268 14H10.666C13.3987 14 14.7651 14 15.7336 13.3218C16.0919 13.0709 16.4036 12.7592 16.6545 12.4009C17.3327 11.4324 17.3327 10.066 17.3327 7.33332C17.3327 4.60063 17.3327 3.23429 16.6545 2.26574C16.4036 1.90741 16.0919 1.59574 15.7336 1.34484C14.7651 0.666656 13.3987 0.666656 10.666 0.666656Z" stroke="#0E0A1F" stroke-width="1.25" stroke-linecap="round"/>
<path d="M11.0827 17.3333L10.8198 16.9843C10.2271 16.1974 10.0801 14.9953 10.455 14M6.91602 17.3333L7.17893 16.9843C7.77163 16.1974 7.91856 14.9953 7.54371 14" stroke="#0E0A1F" stroke-width="1.25" stroke-linecap="round"/>
<path d="M4.83301 17.3333H13.1663" stroke="#0E0A1F" stroke-width="1.25" stroke-linecap="round"/>
<path d="M5.66602 10.6667C7.19807 8.50385 10.765 8.38579 12.3327 10.6667M10.666 5.66665C10.666 6.58713 9.91982 7.33332 8.99935 7.33332C8.07887 7.33332 7.33268 6.58713 7.33268 5.66665C7.33268 4.74618 8.07887 3.99998 8.99935 3.99998C9.91982 3.99998 10.666 4.74618 10.666 5.66665Z" stroke="#0E0A1F" stroke-width="1.25" stroke-linecap="round"/>
</svg>
