<svg width="18" height="18" viewBox="0 0 18 18" fill="none" xmlns="http://www.w3.org/2000/svg">
<path d="M5.62728 3C5.61315 2.72138 5.66389 2.50617 5.80185 2.325C6.1445 1.875 6.84252 1.875 8.23853 1.875H9.76147C11.1575 1.875 11.8555 1.875 12.1982 2.325C12.3361 2.50617 12.3868 2.72138 12.3727 3" stroke="#F25533" stroke-width="1.5" stroke-linecap="round" stroke-linejoin="round"/>
<path d="M3.75 6C3.77838 5.80528 3.84358 5.63695 3.95226 5.48573C4.3912 4.875 5.30107 4.875 7.12083 4.875H10.8792C12.6989 4.875 13.6088 4.875 14.0477 5.48573C14.1564 5.63695 14.2216 5.80528 14.25 6" stroke="#F25533" stroke-width="1.5" stroke-linecap="round" stroke-linejoin="round"/>
<path d="M2.86315 11.7846L3.40231 13.512C4.07395 15.6639 4.64797 16.125 6.9077 16.125H11.0923C13.352 16.125 13.9261 15.6639 14.5977 13.512L15.1369 11.7846C15.6946 9.99771 15.9735 9.10424 15.5326 8.48962C15.0917 7.875 14.172 7.875 12.3325 7.875H5.66747C3.828 7.875 2.90827 7.875 2.46741 8.48962C2.02655 9.10424 2.30542 9.9977 2.86315 11.7846Z" stroke="#F25533" stroke-width="1.5" stroke-linecap="round" stroke-linejoin="round"/>
</svg>
