<svg xmlns="http://www.w3.org/2000/svg" width="16" height="16" viewBox="0 0 16 16" fill="none">
  <path d="M5.1894 3.07031C5.17763 2.83813 5.21991 2.65879 5.33487 2.50781C5.62042 2.13281 6.2021 2.13281 7.36545 2.13281H8.63455C9.79791 2.13281 10.3796 2.13281 10.6651 2.50781C10.7801 2.65879 10.8224 2.83813 10.8106 3.07031" stroke="#3D7DC3" stroke-width="1.25" stroke-linecap="round" stroke-linejoin="round"/>
  <path d="M3.625 5.57031C3.64865 5.40805 3.70299 5.26777 3.79355 5.14175C4.15933 4.63281 4.91756 4.63281 6.43402 4.63281H9.56598C11.0824 4.63281 11.8407 4.63281 12.2064 5.14175C12.297 5.26777 12.3513 5.40805 12.375 5.57031" stroke="#3D7DC3" stroke-width="1.25" stroke-linecap="round" stroke-linejoin="round"/>
  <path d="M2.88596 10.3908L3.33526 11.8303C3.89496 13.6236 4.37331 14.0078 6.25642 14.0078H9.74358C11.6267 14.0078 12.105 13.6236 12.6647 11.8303L13.114 10.3908C13.5788 8.90173 13.8112 8.15718 13.4438 7.645C13.0764 7.13281 12.31 7.13281 10.7771 7.13281H5.22289C3.69 7.13281 2.92356 7.13281 2.55618 7.645C2.18879 8.15718 2.42118 8.90173 2.88596 10.3908Z" fill="#3D7DC3" stroke="#3D7DC3" stroke-width="1.25" stroke-linecap="round" stroke-linejoin="round"/>
</svg>