<svg width="19" height="18" viewBox="0 0 19 18" fill="none" xmlns="http://www.w3.org/2000/svg">
<path d="M5.75 6C5.75 5.80109 5.82902 5.61032 5.96967 5.46967C6.11032 5.32902 6.30109 5.25 6.5 5.25H12.5C12.6989 5.25 12.8897 5.32902 13.0303 5.46967C13.171 5.61032 13.25 5.80109 13.25 6C13.25 6.19891 13.171 6.38968 13.0303 6.53033C12.8897 6.67098 12.6989 6.75 12.5 6.75H6.5C6.30109 6.75 6.11032 6.67098 5.96967 6.53033C5.82902 6.38968 5.75 6.19891 5.75 6ZM9.5 12C9.89782 12 10.2794 11.842 10.5607 11.5607C10.842 11.2794 11 10.8978 11 10.5C11 10.1022 10.842 9.72064 10.5607 9.43934C10.2794 9.15804 9.89782 9 9.5 9C9.10217 9 8.72064 9.15804 8.43934 9.43934C8.15804 9.72064 8 10.1022 8 10.5C8 10.8978 8.15804 11.2794 8.43934 11.5607C8.72064 11.842 9.10217 12 9.5 12Z" fill="#606062"/>
<path fill-rule="evenodd" clip-rule="evenodd" d="M5 2.25C4.40326 2.25 3.83097 2.48705 3.40901 2.90901C2.98705 3.33097 2.75 3.90326 2.75 4.5V13.5C2.75 14.0967 2.98705 14.669 3.40901 15.091C3.83097 15.5129 4.40326 15.75 5 15.75H14C14.5967 15.75 15.169 15.5129 15.591 15.091C16.0129 14.669 16.25 14.0967 16.25 13.5V4.5C16.25 3.90326 16.0129 3.33097 15.591 2.90901C15.169 2.48705 14.5967 2.25 14 2.25H5ZM14 3.75H5C4.80109 3.75 4.61032 3.82902 4.46967 3.96967C4.32902 4.11032 4.25 4.30109 4.25 4.5V13.5C4.25 13.6989 4.32902 13.8897 4.46967 14.0303C4.61032 14.171 4.80109 14.25 5 14.25H14C14.1989 14.25 14.3897 14.171 14.5303 14.0303C14.671 13.8897 14.75 13.6989 14.75 13.5V4.5C14.75 4.30109 14.671 4.11032 14.5303 3.96967C14.3897 3.82902 14.1989 3.75 14 3.75Z" fill="#606062"/>
</svg>
