<svg xmlns="http://www.w3.org/2000/svg" width="30" height="31" viewBox="0 0 30 31" fill="none">
  <path d="M13.2718 3.72889C14.0432 2.40436 15.9568 2.40436 16.7282 3.7289L19.4057 8.32576C19.6883 8.81096 20.1618 9.15502 20.7106 9.27385L25.9098 10.3997C27.408 10.7241 27.9993 12.544 26.9779 13.687L23.4334 17.6539C23.0593 18.0726 22.8784 18.6293 22.935 19.188L23.4709 24.4806C23.6253 26.0057 22.0772 27.1304 20.6746 26.5123L15.8065 24.3671C15.2927 24.1407 14.7073 24.1407 14.1935 24.3671L9.32544 26.5123C7.92277 27.1304 6.37471 26.0057 6.52912 24.4807L7.065 19.188C7.12157 18.6293 6.94069 18.0726 6.56656 17.6539L3.02205 13.687C2.00074 12.544 2.59205 10.7241 4.09016 10.3997L9.2894 9.27385C9.83819 9.15502 10.3117 8.81096 10.5943 8.32576L13.2718 3.72889Z" fill="#E7FBFD" stroke="#5CA9E3" stroke-width="1.5"/>
  <path d="M12 18.0117C12.6841 18.9226 13.7732 19.5117 15 19.5117C16.2268 19.5117 17.3159 18.9226 18 18.0117" stroke="#5CA9E3" stroke-width="0.75" stroke-linecap="round" stroke-linejoin="round"/>
  <path d="M17.25 12.7617C17.25 12.7617 16.5 13.5117 16.5 14.2617C17.0625 13.5117 18.1875 13.5117 18.75 14.2617" stroke="#5CA9E3" stroke-width="0.75" stroke-linecap="round" stroke-linejoin="round"/>
  <path d="M12.75 12.7617C12.75 12.7617 13.5 13.5117 13.5 14.2617C12.9375 13.5117 11.8125 13.5117 11.25 14.2617" stroke="#5CA9E3" stroke-width="0.75" stroke-linecap="round" stroke-linejoin="round"/>
</svg>