<svg width="70" height="71" viewBox="0 0 70 71" fill="none" xmlns="http://www.w3.org/2000/svg">
<path d="M32.1082 5.46499C33.3991 3.24864 36.6009 3.24865 37.8918 5.465L45.5726 18.6521C46.0455 19.464 46.8379 20.0397 47.7562 20.2385L62.6714 23.4684C65.1781 24.0112 66.1676 27.0564 64.4586 28.969L54.2904 40.3489C53.6644 41.0495 53.3617 41.981 53.4564 42.9158L54.9937 58.099C55.2521 60.6509 52.6617 62.5329 50.3146 61.4986L36.3495 55.3447C35.4897 54.9658 34.5103 54.9658 33.6505 55.3447L19.6854 61.4986C17.3383 62.5329 14.7479 60.6509 15.0063 58.099L16.5436 42.9158C16.6383 41.981 16.3356 41.0495 15.7096 40.3489L5.54138 28.969C3.83242 27.0564 4.82186 24.0112 7.32864 23.4684L22.2438 20.2385C23.1621 20.0397 23.9545 19.464 24.4274 18.6521L32.1082 5.46499Z" fill="#FDE7E2" stroke="#94B5ED" stroke-width="3.5"/>
<path d="M28 40.75C29.5962 42.8753 32.1376 44.25 35 44.25C37.8624 44.25 40.4038 42.8753 42 40.75" stroke="#94B5ED" stroke-width="1.75" stroke-linecap="round" stroke-linejoin="round"/>
<path d="M40.25 28.5C40.25 28.5 38.5 30.25 38.5 32C39.8125 30.25 42.4375 30.25 43.75 32" stroke="#94B5ED" stroke-width="1.75" stroke-linecap="round" stroke-linejoin="round"/>
<path d="M29.75 28.5C29.75 28.5 31.5 30.25 31.5 32C30.1875 30.25 27.5625 30.25 26.25 32" stroke="#94B5ED" stroke-width="1.75" stroke-linecap="round" stroke-linejoin="round"/>
</svg>
