<svg width="41" height="9" viewBox="0 0 41 9" fill="none" xmlns="http://www.w3.org/2000/svg">
<g clip-path="url(#clip0_1501_6868)">
<path d="M40.5 0.383789H0.5V8.11712H40.5V0.383789Z" fill="white"/>
<path d="M1.09961 0.949895H39.9252V7.43457H1.09961V0.949895Z" fill="#004C8F"/>
<path d="M7.58691 0.949895H39.925V7.43457H7.58691V0.949895Z" fill="#004C8F"/>
<path d="M9.61719 5.70215V2.63306H10.6076V3.67259H11.5486V2.63306H12.539V5.70215H11.5486V4.51412H10.6076V5.70215H9.61719Z" fill="white"/>
<path d="M14.1731 3.42471H14.4207C14.6188 3.42471 14.7673 3.42471 14.8168 3.47421C14.8664 3.52372 14.9159 3.52371 14.9654 3.62271C15.0149 3.67221 15.0645 3.77122 15.0645 3.87022C15.0645 3.96922 15.114 4.06823 15.114 4.16723C15.114 4.36523 15.114 4.51374 15.015 4.61274C14.9654 4.71174 14.8664 4.81074 14.8168 4.86024C14.7178 4.90975 14.5692 4.95925 14.3712 4.95925H14.1235V3.42471H14.1731ZM14.5692 5.70177C14.8168 5.70177 15.0149 5.70177 15.1635 5.65227C15.3121 5.60277 15.4606 5.55327 15.5597 5.50377C15.6587 5.45427 15.7578 5.35527 15.8568 5.25626C15.9559 5.15726 16.0054 5.00876 16.0549 4.81076C16.1044 4.61275 16.154 4.41474 16.154 4.21673C16.154 3.87022 16.1044 3.57321 15.9559 3.37521C15.8073 3.1277 15.6587 2.97919 15.4111 2.88019C15.1635 2.78119 14.9159 2.73169 14.6188 2.73169H13.1826V5.80078L14.5692 5.70177Z" fill="white"/>
<path d="M16.6006 5.70215V2.63306H18.9777V3.37558H17.591V3.87059H18.7301V4.61311H17.591V5.70215H16.6006Z" fill="white"/>
<path d="M22.3946 3.82073H21.4537C21.4537 3.67222 21.4042 3.52371 21.3051 3.47421C21.2061 3.37521 21.107 3.32572 20.9585 3.32572C20.7604 3.32572 20.6118 3.37521 20.5128 3.52372C20.4137 3.67222 20.3642 3.87022 20.3642 4.21673C20.3642 4.41474 20.4137 4.61274 20.4137 4.71175C20.4632 4.81075 20.5128 4.90975 20.6118 4.95925C20.7108 5.00875 20.8099 5.05826 20.9089 5.05826C21.0575 5.05826 21.2061 5.00875 21.2556 4.90975C21.3546 4.81075 21.4042 4.71175 21.4042 4.51374H22.3946C22.3946 4.71175 22.3451 4.86025 22.2956 5.00876C22.246 5.15726 22.147 5.25626 21.9984 5.40476C21.8499 5.55327 21.7013 5.65227 21.5527 5.70177C21.3546 5.75127 21.1566 5.80078 20.9089 5.80078C20.6613 5.80078 20.4632 5.75127 20.2651 5.70177C20.0671 5.65227 19.9185 5.55327 19.7699 5.40476C19.6214 5.25626 19.5223 5.10776 19.4728 4.95925C19.3738 4.71175 19.3242 4.46424 19.3242 4.21673C19.3242 3.96923 19.3737 3.77123 19.4233 3.57322C19.5223 3.37522 19.6214 3.17721 19.7204 3.07821C19.869 2.92971 20.0175 2.8307 20.1661 2.7812C20.3642 2.6822 20.6118 2.63269 20.8594 2.63269C21.107 2.63269 21.3051 2.68219 21.5032 2.73169C21.7013 2.7812 21.8499 2.8802 21.9984 3.0287C22.147 3.17721 22.246 3.32571 22.2956 3.47421C22.3451 3.52371 22.3451 3.67222 22.3946 3.82073Z" fill="white"/>
<path d="M25.6135 3.32639C25.762 3.32639 25.8611 3.32639 25.9106 3.32639C25.9601 3.32639 26.0097 3.37588 26.0592 3.42539C26.1087 3.47489 26.1087 3.5244 26.1087 3.5739C26.1087 3.6729 26.0592 3.7224 26.0097 3.7719C25.9601 3.8214 25.8611 3.87089 25.663 3.87089H25.2668V3.32639H25.6135ZM25.8611 5.70245C26.1087 5.70245 26.2573 5.70245 26.3563 5.65294C26.4554 5.65294 26.5544 5.60345 26.6535 5.55395C26.7525 5.50445 26.8515 5.45494 26.9011 5.40544C27.0001 5.35594 27.0496 5.25693 27.0991 5.15793C27.1487 5.05893 27.1487 4.91043 27.1487 4.81143C27.1487 4.61343 27.0991 4.46491 27.0001 4.36591C26.9011 4.2174 26.802 4.1679 26.6039 4.1184C26.8515 3.9699 27.0001 3.7224 27.0001 3.47489C27.0001 3.17788 26.9011 2.97988 26.6535 2.83138C26.4554 2.73238 26.2077 2.68287 25.8116 2.68287H24.2764V5.75195H25.8611V5.70245ZM25.7125 4.41541C25.9106 4.41541 26.0592 4.41542 26.1087 4.51442C26.1582 4.56392 26.2077 4.61342 26.2077 4.71242C26.2077 4.81143 26.1582 4.86092 26.1087 4.91042C26.0592 4.95993 25.9106 5.00943 25.7125 5.00943H25.3163V4.41541H25.7125Z" fill="white"/>
<path d="M29.3277 4.66262H28.6839L28.981 3.5736L29.3277 4.66262ZM28.3867 5.70215L28.4858 5.30614H29.4762L29.5753 5.70215H30.5657L29.4762 2.63306H28.5353L27.4458 5.70215H28.3867Z" fill="white"/>
<path d="M31.0605 5.70215V2.63306H32.0015L33.0414 4.26661V2.63306H33.9824V5.70215H33.0414L32.0015 4.1181V5.70215H31.0605Z" fill="white"/>
<path d="M34.6758 5.70215V2.63306H35.6662V3.62309L36.5576 2.63306H37.7462L36.6072 3.7716L37.8452 5.70215H36.6567L35.9138 4.46462L35.6662 4.71212V5.65264L34.6758 5.70215Z" fill="white"/>
<path d="M1.09961 0.949895H7.58704V7.43457H1.09961V0.949895Z" fill="#ED232A"/>
<path d="M2.23828 2.08829H6.44768V6.2959H2.23828V2.08829Z" fill="white"/>
<path d="M4.02148 0.949895H4.66527V7.43457H4.02148V0.949895Z" fill="white"/>
<path d="M1.09961 3.87015H7.58704V4.51367H1.09961V3.87015Z" fill="white"/>
<path d="M3.37793 3.22717H5.3093V5.15771H3.37793V3.22717Z" fill="#004C8F"/>
</g>
<defs>
<clipPath id="clip0_1501_6868">
<rect width="40" height="7.73333" fill="white" transform="translate(0.5 0.383301)"/>
</clipPath>
</defs>
</svg>
