<svg width="31" height="34" viewBox="0 0 31 34" fill="none" xmlns="http://www.w3.org/2000/svg">
<g clip-path="url(#clip0_1501_6774)">
<path d="M8.98137 7.55306C16.4258 0.166431 25.4251 -1.74176 29.0147 3.30535C32.6037 8.3508 29.4619 18.4921 22.016 25.8773C14.5745 33.2626 5.57452 35.1698 1.98484 30.1245C-1.60406 25.0767 1.53837 14.9376 8.98137 7.55306Z" fill="#F58220"/>
<path d="M13.9081 3.61405C13.107 4.21576 12.255 4.91923 11.4509 5.72345C4.92633 12.1535 2.21718 20.9949 5.42958 25.4149C8.74033 29.837 16.7688 28.2292 23.3924 21.7C26.9559 18.2316 29.3652 14.163 30.3678 10.3964C30.6693 7.63372 30.2674 5.17076 29.0125 3.31306C26.1533 -0.606091 20.0307 -0.305096 13.9081 3.61405Z" fill="#B02A30"/>
<path d="M17.5974 29.5215C14.1118 32.1403 10.5127 33.4389 6.99951 32.8949C8.47352 32.9715 9.66506 31.3347 10.6409 29.1349C11.6321 26.8819 12.2264 24.7922 12.7019 22.8367C13.393 19.7409 13.447 17.528 13.0944 17.054C12.4988 16.2659 11.1441 16.47 9.61112 17.3516C8.87637 17.7584 7.90114 17.485 9.05401 16.0887C10.2221 14.6763 14.8591 11.2838 16.5276 10.7537C18.3592 10.2251 20.4464 10.9448 19.74 12.9527C19.2389 14.4183 12.8235 31.271 17.5974 29.5215ZM22.8468 3.38232C23.7135 4.25068 23.1847 6.1523 21.707 7.64405C20.2163 9.12417 18.2747 9.65352 17.4342 8.79815C16.54 7.94299 17.0687 6.01515 18.5602 4.50803C20.0655 3.00249 22.0049 2.5393 22.8468 3.38232Z" fill="white"/>
</g>
<defs>
<clipPath id="clip0_1501_6774">
<rect width="30" height="32.5352" fill="white" transform="translate(0.5 0.482422)"/>
</clipPath>
</defs>
</svg>
