<svg width="20" height="20" viewBox="0 0 20 20" fill="none" xmlns="http://www.w3.org/2000/svg">
<path d="M11.666 1.66666H8.33268C5.59999 1.66666 4.23365 1.66666 3.2651 2.34484C2.90677 2.59574 2.5951 2.90741 2.3442 3.26574C1.66602 4.23429 1.66602 5.60063 1.66602 8.33332C1.66602 11.066 1.66602 12.4324 2.3442 13.4009C2.5951 13.7592 2.90677 14.0709 3.2651 14.3218C4.23365 15 5.59999 15 8.33268 15H11.666C14.3987 15 15.7651 15 16.7336 14.3218C17.0919 14.0709 17.4036 13.7592 17.6545 13.4009C18.3327 12.4324 18.3327 11.066 18.3327 8.33332C18.3327 5.60063 18.3327 4.23429 17.6545 3.26574C17.4036 2.90741 17.0919 2.59574 16.7336 2.34484C15.7651 1.66666 14.3987 1.66666 11.666 1.66666Z" stroke="#0E0A1F" stroke-width="1.25" stroke-linecap="round"/>
<path d="M12.0827 18.3333L11.8198 17.9843C11.2271 17.1974 11.0801 15.9953 11.455 15M7.91602 18.3333L8.17893 17.9843C8.77163 17.1974 8.91856 15.9953 8.54371 15" stroke="#0E0A1F" stroke-width="1.25" stroke-linecap="round"/>
<path d="M5.83301 18.3333H14.1663" stroke="#0E0A1F" stroke-width="1.25" stroke-linecap="round"/>
<path d="M6.66602 11.6667C8.19807 9.50385 11.765 9.38579 13.3327 11.6667M11.666 6.66665C11.666 7.58713 10.9198 8.33332 9.99935 8.33332C9.07887 8.33332 8.33268 7.58713 8.33268 6.66665C8.33268 5.74618 9.07887 4.99998 9.99935 4.99998C10.9198 4.99998 11.666 5.74618 11.666 6.66665Z" stroke="#0E0A1F" stroke-width="1.25" stroke-linecap="round"/>
</svg>
