<svg width="41" height="12" viewBox="0 0 41 12" fill="none" xmlns="http://www.w3.org/2000/svg">
<g clip-path="url(#clip0_1501_6750)">
<path fill-rule="evenodd" clip-rule="evenodd" d="M0.589355 5.99983C0.589355 2.69401 3.70535 0.0136719 7.54958 0.0136719C11.3938 0.0136719 14.5095 2.69401 14.5095 5.99983C14.5095 9.30565 11.3935 11.986 7.54958 11.986C3.70562 11.986 0.589355 9.30605 0.589355 5.99983Z" fill="#003874"/>
<path fill-rule="evenodd" clip-rule="evenodd" d="M6.70493 1.93614L8.322 1.40186L8.32996 10.1434L6.69922 10.6897L6.70493 1.93614ZM23.5257 9.46026C25.0797 9.46026 26.2632 8.55655 26.2632 7.00134C26.2632 5.43763 25.0797 4.53232 23.5257 4.53232C21.9726 4.53232 20.7889 5.43497 20.7889 7.00134C20.7889 8.55668 21.9724 9.46026 23.5257 9.46026ZM23.5257 8.32159C22.7762 8.32159 22.4694 7.6977 22.4694 7.00134C22.4694 6.29581 22.7747 5.67391 23.5257 5.67391C24.2766 5.67391 24.5827 6.297 24.5827 7.00134C24.5827 7.6977 24.2774 8.32159 23.5257 8.32159ZM26.1139 5.7809H27.0431V7.6977C27.0431 8.81805 27.3954 9.46026 28.8492 9.46026C29.2558 9.46026 29.5633 9.40716 29.8713 9.36999L29.8182 8.31257C29.6557 8.33951 29.4841 8.37562 29.3217 8.37562C28.8067 8.37562 28.6709 8.08624 28.6709 7.51678V5.7809H29.8092V4.64197H28.6709L28.6705 3.01322L27.0725 3.58401V4.64197H26.1149V5.7809M35.4998 9.35207H37.1259V7.01979H37.1437L38.4449 9.35207H40.4126L38.6419 6.80275L40.2767 4.64223H38.4976L37.1425 6.62196H37.1247V3.01932L35.4985 3.58441V9.3534" fill="#ED1C24"/>
<path fill-rule="evenodd" clip-rule="evenodd" d="M16.459 9.35215H18.0856V7.01986H18.1034L19.4045 9.35215H21.3735L19.6027 6.80283L21.2377 4.64244H19.4586L18.1037 6.62216H18.0859V3.01953L16.4592 3.55581V9.35215M34.9211 9.37405C34.8477 8.99932 34.8282 8.62405 34.8282 8.24866V6.47389C34.8282 5.01903 33.7764 4.49603 32.5607 4.49603C31.8569 4.49603 31.2441 4.59638 30.6593 4.83452L30.6858 5.95049C31.1422 5.69469 31.6727 5.59208 32.203 5.59208C32.7975 5.59208 33.2816 5.76624 33.2907 6.41575C33.037 6.37404 32.7803 6.35269 32.5231 6.3519C31.647 6.3519 30.0642 6.52606 30.0642 7.98065C30.0642 9.01445 30.9052 9.48064 31.8466 9.48064C32.5231 9.48064 32.98 9.21516 33.3551 8.62087H33.377C33.377 8.86777 33.4044 9.11494 33.4135 9.37086H34.9224L34.9211 9.37405ZM31.602 7.86477C31.602 7.40707 32.041 7.23344 32.5985 7.23344C32.8454 7.23344 33.0835 7.25163 33.2933 7.26079C33.2933 7.8191 32.9003 8.38578 32.2791 8.38578C31.8948 8.38578 31.602 8.19384 31.602 7.86477Z" fill="#ED1C24"/>
<path fill-rule="evenodd" clip-rule="evenodd" d="M12.7838 6.60224C12.6321 7.85267 11.9307 9.11598 10.3991 9.11837C9.50491 9.11997 8.80642 8.50776 8.32271 7.75869V6.89108C8.92801 7.19161 9.49376 7.51418 10.1802 7.524C11.0257 7.53648 11.7903 7.21139 12.1065 6.6021H12.7839L12.7838 6.60224ZM7.66391 7.38741C6.9613 8.23431 6.28232 9.09939 5.01012 9.09939C3.21318 9.09939 2.36084 7.36206 2.36084 5.90959C2.36084 4.51393 3.02694 2.86182 4.77755 2.86182C5.53684 2.86182 6.26772 3.32615 6.70338 3.8173L6.70205 5.00203C6.33807 4.75698 5.52277 4.51659 4.99047 4.50796C3.88034 4.48937 2.90163 4.97056 2.91862 6.06635C2.93017 6.82073 3.67765 7.33352 4.42127 7.33352C5.5602 7.33352 6.2502 6.29308 6.82683 5.50339C7.05802 5.20195 7.28657 4.89849 7.51245 4.59305C8.15293 3.69809 8.89403 2.88106 10.1662 2.88106C11.6649 2.88106 12.5062 4.08902 12.7441 5.33255H12.0671C11.795 4.92928 11.2716 4.68251 10.756 4.68251C9.57858 4.68251 8.87505 5.76569 8.2862 6.56321L7.66231 7.38728" fill="white"/>
</g>
<defs>
<clipPath id="clip0_1501_6750">
<rect width="40" height="11.9723" fill="white" transform="translate(0.5 0.0136719)"/>
</clipPath>
</defs>
</svg>
