<svg width="16" height="16" viewBox="0 0 16 16" fill="none" xmlns="http://www.w3.org/2000/svg">
<g clip-path="url(#clip0_8836_4731)">
<path d="M2 9.33331V6.66665C2 4.15249 2 2.89541 2.78105 2.11436C3.5621 1.33331 4.81918 1.33331 7.33333 1.33331H8.66667C11.1808 1.33331 12.4379 1.33331 13.219 2.11436C14 2.89541 14 4.15249 14 6.66665V9.33331C14 11.8475 14 13.1045 13.219 13.8856C12.4379 14.6666 11.1808 14.6666 8.66667 14.6666H7.33333C4.81918 14.6666 3.5621 14.6666 2.78105 13.8856C2 13.1045 2 11.8475 2 9.33331Z" fill="#A693FC" stroke="#A693FC"/>
<path d="M7.40733 4.21164C7.40733 4.21164 8.33366 4.92633 9.03696 5.62963C9.74025 6.33293 10.4549 7.25926 10.4549 7.25926L9.1851 8.5291C9.1851 8.5291 8.25877 7.81441 7.55547 7.11111C6.85218 6.40781 6.13748 5.48148 6.13748 5.48148L7.40733 4.21164Z" fill="#A693FC"/>
<path d="M7.55547 7.11111C8.25877 7.81441 9.1851 8.5291 9.1851 8.5291L10.4549 7.25926C10.4549 7.25926 9.74025 6.33293 9.03696 5.62963C8.33366 4.92633 7.40733 4.21164 7.40733 4.21164L6.13748 5.48148C6.13748 5.48148 6.85218 6.40781 7.55547 7.11111ZM7.55547 7.11111L5.33325 9.33333M10.6666 7.04762L8.97346 8.74074M7.61897 4L5.92584 5.69312" stroke="white" stroke-linecap="round" stroke-linejoin="round"/>
<path d="M5.33325 12H10.6666" stroke="white" stroke-linecap="round"/>
</g>
<defs>
<clipPath id="clip0_8836_4731">
<rect width="16" height="16" fill="white"/>
</clipPath>
</defs>
</svg>
