<svg width="36" height="42" viewBox="0 0 36 42" fill="none" xmlns="http://www.w3.org/2000/svg">
<path d="M0.00094223 29.0856C0.00094223 44.7344 12.6869 57.4199 28.3354 57.4199C43.9841 57.4199 56.6699 44.7344 56.6699 29.0856C56.6699 13.4371 43.9841 0.751148 28.3354 0.751148C12.6869 0.751148 0.00094223 13.4371 0.00094223 29.0856Z" fill="#F9F0EC"/>
<path d="M6.3596 45.7038C2.48977 40.461 7.8087 24.5129 10.7887 21.4606L27.8056 15.6328C36.7803 24.0247 33.6426 42.4039 28.0553 46.762C22.5103 51.0871 11.5679 52.76 6.3596 45.7038Z" fill="#F1DDD2" stroke="#EED4C9" stroke-width="0.108263"/>
<path d="M16.1857 9.27746C14.8143 9.63834 14.1936 9.91261 13.0532 10.6632C10.325 12.4821 8.83818 15.6145 9.32897 18.5304C9.47332 19.3387 9.47332 19.5986 9.3434 19.6419C9.24236 19.6708 8.89592 19.9017 8.56391 20.1616C8.11642 20.4936 7.9432 20.739 7.91433 21.071C7.87102 21.4751 7.92876 21.5329 8.36182 21.6772C9.38671 22.0237 11.3788 21.4751 18.1344 19.0212C20.1553 18.285 23.2156 17.1879 24.9189 16.5961C29.5526 14.9793 31.4869 14.2431 32.9304 13.5358C34.5183 12.7708 35.0668 12.3088 34.9946 11.7747C34.8792 10.8076 33.3346 10.9952 28.903 12.4676C27.243 13.0162 25.8716 13.4636 25.8572 13.4348C25.8428 13.4059 25.6695 13.1028 25.4963 12.7419C24.7313 11.2118 22.5804 9.68164 20.5595 9.20529C19.3181 8.91658 17.4271 8.94545 16.1857 9.27746ZM23.0712 12.1645C22.999 12.381 22.6237 12.6264 21.9597 12.9007C21.4256 13.1316 20.9493 13.2904 20.9204 13.2616C20.8771 13.2327 20.8915 13.0739 20.9348 12.9151C20.9926 12.7419 21.4112 12.4676 22.0752 12.1934C22.6382 11.948 23.129 11.7747 23.1578 11.7892C23.1723 11.818 23.1434 11.9768 23.0712 12.1645ZM23.5187 13.045C23.793 13.2038 23.7208 13.2471 22.7681 13.6224C21.8298 13.9977 21.0214 14.0699 21.0214 13.7668C21.0214 13.6657 22.7392 12.9151 23.0135 12.9007C23.1145 12.8862 23.3455 12.9584 23.5187 13.045ZM23.8218 13.9256C23.7064 14.3442 23.8218 14.2576 22.6382 14.7484C21.9308 15.0371 21.5988 15.1237 21.5988 14.9938C21.5988 14.6473 21.9741 14.3442 22.8258 13.9977C23.9085 13.5358 23.9518 13.5358 23.8218 13.9256Z" fill="black"/>
<path d="M27.1124 23.3229C26.5783 23.8858 26.7083 24.7375 27.3723 25.0839C27.8486 25.3293 28.5848 25.1417 28.8158 24.7231C29.4365 23.5683 27.993 22.3846 27.1124 23.3229Z" fill="black"/>
<path d="M23.2588 24.0727C22.3349 24.9821 23.4898 26.5123 24.5724 25.8194C25.2941 25.343 25.3086 24.4336 24.6013 23.9428C24.1393 23.6108 23.663 23.6541 23.2588 24.0727Z" fill="black"/>
</svg>
