<svg width="37" height="56" viewBox="0 0 37 56" fill="none" xmlns="http://www.w3.org/2000/svg">
<path d="M22.1045 15.476C22.1045 19.7489 18.6407 23.2129 14.3677 23.2129C10.0947 23.2129 6.63086 19.7489 6.63086 15.476C6.63086 11.203 10.0947 7.73921 14.3677 7.73921C18.6407 7.73921 22.1045 11.203 22.1045 15.476Z" fill="#FDE7E2"/>
<path d="M18.1575 18.0439C18.1489 18.8375 17.7214 19.2772 16.9266 19.2824C15.2227 19.2931 13.519 19.2931 11.8152 19.2824C11.0173 19.2781 10.5853 18.8398 10.5812 18.0493C10.5736 16.3306 10.5736 14.6117 10.5812 12.893C10.5843 12.1056 11.0247 11.6534 11.811 11.648C13.5146 11.6363 15.2186 11.6363 16.9222 11.648C17.7105 11.6534 18.1489 12.1033 18.1575 12.8886C18.1673 13.7481 18.1596 14.6074 18.1596 15.4667C18.1596 16.3252 18.1673 17.1846 18.1575 18.0439ZM18.9813 12.9263C18.9759 11.6705 18.1919 10.8586 16.9472 10.8467C15.2249 10.8294 13.5017 10.8285 11.7798 10.8467C10.5618 10.8596 9.77246 11.6663 9.75388 12.8821C9.74214 13.7416 9.75176 14.6019 9.75176 15.4614C9.75176 16.3024 9.74654 17.1446 9.7529 17.9857C9.76366 19.2693 10.5465 20.0902 11.8175 20.1031C13.5213 20.1213 15.2261 20.1225 16.9297 20.1031C18.1759 20.089 18.9738 19.2693 18.9803 18.0289C18.9899 16.3283 18.9888 14.6267 18.9813 12.9263Z" fill="white"/>
<path d="M14.3435 17.069C13.485 17.0517 12.771 16.3334 12.7625 15.4816C12.7539 14.6027 13.4787 13.8801 14.3693 13.8801C15.2578 13.8801 15.9846 14.6028 15.9771 15.4805C15.9698 16.3517 15.2148 17.0863 14.3435 17.069ZM14.3735 13.052C13.0599 13.0488 11.9818 14.1161 11.9689 15.4363C11.9558 16.7717 12.9898 17.8488 14.3113 17.8745C15.6647 17.9005 16.757 16.846 16.7699 15.4987C16.7839 14.1504 15.7122 13.0551 14.3735 13.052Z" fill="white"/>
<path d="M17.5026 12.9964C17.4768 13.3347 17.2602 13.5112 16.9276 13.4951C16.5622 13.4778 16.376 13.2538 16.4029 12.8942C16.4277 12.557 16.6475 12.4008 16.9845 12.3814C17.3272 12.4396 17.5295 12.6346 17.5026 12.9964Z" fill="white"/>
<path d="M15.4737 34.2612C15.4737 38.5343 12.0099 41.998 7.73684 41.998C3.46392 41.998 0 38.5343 0 34.2612C0 29.9881 3.46392 26.5244 7.73684 26.5244C12.0099 26.5244 15.4737 29.9881 15.4737 34.2612Z" fill="#FDE7E2"/>
<path d="M7.55101 32.1163C7.53342 32.6085 7.54515 33.1066 7.54515 33.6398H9.46726C9.38517 34.2726 9.31481 34.8586 9.22116 35.4388C9.21529 35.4974 9.0687 35.5677 8.98678 35.5737C8.52372 35.5852 8.06082 35.5794 7.55687 35.5794L7.55687 41.9902C6.84787 41.9783 6.16802 41.8671 5.51765 41.6738L5.51765 35.5911H3.83594V33.6574H5.48247C5.48833 33.5108 5.50006 33.3937 5.50006 33.2823C5.51178 32.7725 5.49419 32.2627 5.5411 31.7588C5.64665 30.6514 6.32633 29.872 7.42217 29.7195C8.10186 29.6259 8.81087 29.7019 9.52573 29.7019L9.52573 31.4599C9.27376 31.4599 9.01593 31.4542 8.76396 31.4599C8.5413 31.4657 8.30692 31.4542 8.09014 31.5068C7.77953 31.5771 7.56274 31.7881 7.55101 32.1163Z" fill="white"/>
<path d="M29.8428 51.9487C29.8428 56.2217 26.379 59.6855 22.106 59.6855C17.833 59.6855 14.3691 56.2217 14.3691 51.9487C14.3691 47.6757 17.833 44.2119 22.106 44.2119C26.379 44.2119 29.8428 47.6757 29.8428 51.9487Z" fill="#FDE7E2"/>
<path d="M19.0756 47.8922L19.1079 47.9022C19.3453 47.9201 19.5503 48.0104 19.7192 48.1783C19.8699 48.3284 19.9644 48.5095 19.9951 48.7202C20.0473 49.078 19.9368 49.3797 19.6672 49.6199C19.5359 49.7371 19.3794 49.8068 19.2062 49.8391C19.1168 49.8558 19.0262 49.8595 18.9368 49.8512C18.5236 49.8133 18.1975 49.5246 18.0926 49.1589C18.0735 49.0922 18.0601 49.0246 18.057 48.9552L18.041 48.9199C18.041 48.8918 18.041 48.8637 18.041 48.8353L18.057 48.7998C18.0598 48.7719 18.0612 48.7436 18.0656 48.716C18.0968 48.5251 18.1746 48.3555 18.306 48.2129C18.4816 48.0225 18.7001 47.9203 18.9584 47.9017L18.9913 47.8922C19.0192 47.8922 19.0475 47.8922 19.0756 47.8922Z" fill="white"/>
<path d="M22.5539 51.3034L22.5785 51.2706C22.6612 51.1492 22.7545 51.0363 22.863 50.9367C23.0894 50.7281 23.3521 50.5874 23.6507 50.5138C23.7947 50.4787 23.9413 50.4629 24.089 50.4543C24.1888 50.4485 24.2885 50.4506 24.3876 50.458C24.6761 50.4796 24.9566 50.5354 25.2184 50.6645C25.4871 50.7969 25.6919 50.9975 25.8405 51.2572C25.9344 51.4214 25.9971 51.5974 26.0468 51.7788C26.0811 51.9032 26.1058 52.0298 26.1227 52.1576C26.1313 52.2212 26.1348 52.2857 26.139 52.3501C26.1462 52.4692 26.1524 52.5886 26.1589 52.708L26.1594 52.7186C26.1624 52.8322 26.1671 52.9458 26.168 53.0596C26.1705 53.4407 26.1726 53.8218 26.1731 54.2029C26.174 54.7788 26.1736 55.3548 26.1736 55.9308C26.1736 55.9951 26.1708 55.9979 26.1055 55.9981C25.8619 55.9981 25.6178 55.9979 25.3737 55.9981C25.1464 55.9983 24.9185 55.9983 24.6912 55.9993C24.6547 55.9993 24.6185 56.0023 24.5823 56.0039H24.5648C24.4838 55.9997 24.4829 55.9809 24.4829 55.9208C24.4833 55.443 24.4838 54.9656 24.4838 54.4883C24.4836 54.0145 24.4838 53.5405 24.4819 53.0668C24.4812 52.8868 24.4654 52.7087 24.4125 52.5354C24.3818 52.4339 24.3426 52.3361 24.2824 52.2481C24.1784 52.0951 24.0335 52.0033 23.8535 51.9646C23.7871 51.9502 23.7197 51.9416 23.6514 51.9432C23.579 51.9448 23.5058 51.9425 23.4341 51.9513C23.1152 51.9903 22.8795 52.1473 22.7483 52.4469C22.6921 52.5751 22.6593 52.7103 22.64 52.8494C22.6194 52.9971 22.6124 53.1457 22.6124 53.2944C22.6126 54.1625 22.6126 55.0306 22.6124 55.8987L22.6115 55.9584C22.6094 55.9851 22.5978 55.9955 22.5713 55.9974L22.5253 55.9981C22.2487 55.9981 21.9719 55.9979 21.6948 55.9981C21.5202 55.9981 21.3453 55.9983 21.1707 55.9993C21.1191 55.9995 21.0675 56.0023 21.0162 56.0039L20.9951 56.0037C20.9268 55.9967 20.9212 55.9793 20.9219 55.9287C20.9224 55.9031 20.9222 55.8771 20.9222 55.8513C20.9224 54.7075 20.9226 53.5638 20.9226 52.42C20.9226 51.8431 20.9224 51.266 20.9222 50.6886L20.9226 50.6431C20.9245 50.6048 20.938 50.5911 20.9767 50.5888L21.0051 50.5883C21.4905 50.5883 21.9761 50.5883 22.4617 50.5883L22.4898 50.5888C22.5269 50.5911 22.5411 50.6032 22.5416 50.6408C22.542 50.7065 22.5388 50.7722 22.5388 50.8377C22.5388 50.9339 22.5399 51.0298 22.5406 51.1259C22.5411 51.1717 22.5416 51.2177 22.542 51.2632L22.5437 51.3004L22.5539 51.3034Z" fill="white"/>
<path d="M18.186 53.2906C18.186 52.4156 18.186 51.5405 18.186 50.6654L18.1881 50.6199L18.2208 50.5899L18.2596 50.5888C18.7722 50.5885 19.2847 50.5885 19.7973 50.5883L19.808 50.5885C19.867 50.5892 19.8821 50.6039 19.8823 50.6645C19.8825 50.8626 19.8823 51.0609 19.8823 51.259C19.8823 52.8074 19.8823 54.3557 19.8823 55.904L19.8783 55.96C19.8746 55.9816 19.8614 55.9967 19.8384 55.9981C19.7987 56.0002 19.759 56.0011 19.7193 56.0018L19.674 55.999C19.2434 55.9988 18.8131 55.9988 18.3825 55.9993C18.3486 55.9993 18.3147 56.0023 18.2808 56.0039L18.2596 56.0037C18.2027 55.9974 18.1855 55.9909 18.1855 55.9263C18.186 55.0478 18.1858 54.1692 18.1858 53.2906H18.186Z" fill="white"/>
<path d="M23.2099 32.0543C23.2099 36.3271 26.6738 39.791 30.9467 39.791C35.2197 39.791 38.6836 36.3271 38.6836 32.0543C38.6836 27.7812 35.2197 24.3173 30.9467 24.3173C26.6738 24.3173 23.2099 27.7812 23.2099 32.0543Z" fill="#FDE7E2"/>
<path d="M35.1699 35.6849C34.1408 35.7044 33.2168 35.4544 32.3826 34.8257C33.5356 34.4757 33.9952 34.1235 34.163 33.468C33.9045 33.4554 33.647 33.4427 33.3894 33.43C34.2994 33.0806 34.8342 32.4692 34.904 31.4706C34.6252 31.5446 34.3667 31.6128 34.108 31.6814C34.9431 30.631 35.112 29.8165 34.6134 29.056C33.5343 30.2878 32.1918 30.9872 30.5245 31.1009C30.532 30.9704 30.5393 30.8727 30.543 30.7747C30.5759 29.9137 30.2148 29.2628 29.4477 28.8835C28.6827 28.5053 27.9386 28.6068 27.2752 29.1457C27.1277 29.2656 27.0042 29.2983 26.8368 29.2355C26.5263 29.1189 26.2141 29.0065 25.8717 28.8812C26.0144 29.2956 26.2825 29.6039 26.6307 29.8544C26.6234 29.8733 26.6161 29.8919 26.6089 29.9106C26.2903 29.8288 25.9716 29.7469 25.653 29.6651L25.6147 29.7031C25.8616 29.952 26.0985 30.2122 26.3597 30.4445C26.4968 30.5668 26.568 30.6756 26.5675 30.8709C26.5592 33.7893 28.7617 36.2175 31.6589 36.4779C32.8285 36.583 33.9431 36.372 34.9791 35.8003C35.0441 35.7645 35.1064 35.7236 35.1699 35.6849Z" fill="white"/>
<path d="M41.9991 7.73573C41.9991 12.0088 38.535 15.4727 34.2622 15.4727C29.9893 15.4727 26.5254 12.0088 26.5254 7.73573C26.5254 3.46285 29.9893 -0.00102901 34.2622 -0.00102901C38.535 -0.00102901 41.9991 3.46285 41.9991 7.73573Z" fill="#FDE7E2"/>
<path d="M30.5311 11.5062C31.0216 11.3795 31.4356 11.2588 31.8568 11.1718C31.9943 11.1431 32.1703 11.1635 32.294 11.2281C32.923 11.5575 33.5835 11.7363 34.2947 11.749C36.8498 11.794 38.9079 9.42071 38.4212 6.93181C38.0847 5.2107 37.0267 4.08164 35.3186 3.69058C33.5657 3.28925 32.0747 3.85395 31.0144 5.30175C29.978 6.71746 29.9505 8.24296 30.797 9.78637C30.8711 9.92106 30.8908 10.1186 30.8592 10.2716C30.7776 10.6698 30.6531 11.0592 30.5311 11.5062ZM29.3281 12.6738C29.5421 11.9026 29.7324 11.186 29.9441 10.4757C30.0127 10.2449 29.9941 10.061 29.8847 9.84028C28.3917 6.83082 30.3727 3.19332 33.7182 2.78434C36.7941 2.40859 39.3964 4.72826 39.3304 7.78723C39.2764 10.2942 37.1488 12.4556 34.6324 12.5684C33.7735 12.6069 32.9569 12.4564 32.1715 12.1031C32.0348 12.0417 31.8472 12.0323 31.6996 12.0674C30.9287 12.2515 30.1632 12.4579 29.3281 12.6738Z" fill="white"/>
<path d="M32.1745 5.67237C32.5118 5.21811 32.9641 5.30802 33.2003 5.80935C33.2925 6.00561 33.3145 6.07158 33.4054 6.29537C33.5415 6.63285 33.5109 6.85974 33.2674 7.07783C33.0902 7.23647 33.1068 7.37621 33.2298 7.5588C33.6124 8.12609 34.1072 8.55218 34.7348 8.82988C34.9255 8.91441 35.0511 8.89552 35.1908 8.72873C35.6262 8.20802 35.6329 8.2134 36.2481 8.50299C36.3189 8.53638 36.3893 8.57058 36.46 8.6043C36.9326 8.83102 37.004 9.25596 36.6193 9.63025C36.2267 10.0125 35.7511 10.0997 35.2309 9.96773C33.9035 9.63107 32.9529 8.79568 32.2185 7.67835C31.9949 7.3381 31.8271 6.97684 31.8406 6.55565C31.8844 6.16589 31.9908 5.91978 32.1745 5.67237Z" fill="white"/>
</svg>
