<svg width="40" height="57" viewBox="0 0 40 57" fill="none" xmlns="http://www.w3.org/2000/svg">
<circle cx="34.2402" cy="42.6523" r="7.5" fill="#FDE7E2"/>
<path d="M38.2008 41.2008V45.7008C38.2008 46.0816 38.056 46.4482 37.7958 46.7262C37.5355 47.0042 37.1792 47.1728 36.7992 47.1978L36.7008 47.2008H31.3008C30.92 47.2008 30.5534 47.056 30.2754 46.7958C29.9974 46.5355 29.8288 46.1792 29.8038 45.7992L29.8008 45.7008V41.2008H38.2008ZM34.9104 41.9412C34.592 41.9412 34.339 42.0264 34.1514 42.1968C33.9634 42.3672 33.8696 42.5976 33.87 42.888C33.87 43.0556 33.9126 43.2046 33.9978 43.335C34.083 43.465 34.199 43.5676 34.3458 43.6428C34.171 43.7212 34.035 43.833 33.9378 43.9782C33.841 44.1239 33.7904 44.2953 33.7926 44.4702C33.7926 44.7686 33.8946 45.0062 34.0986 45.183C34.3026 45.3598 34.574 45.448 34.9128 45.4476C35.2504 45.4476 35.5208 45.3596 35.724 45.1836C35.9272 45.0084 36.0288 44.7706 36.0288 44.4702C36.0288 44.289 35.9808 44.1266 35.8848 43.983C35.7825 43.8329 35.6398 43.715 35.4732 43.6428C35.6154 43.5729 35.7367 43.4667 35.8248 43.335C35.9108 43.2042 35.9538 43.0552 35.9538 42.888C35.9538 42.5976 35.8598 42.3672 35.6718 42.1968C35.4846 42.0264 35.2308 41.9412 34.9104 41.9412ZM33.0984 41.9766H33.0258L31.6944 42.4662V42.9468L32.5314 42.6612V45.4008H33.0984V41.9766ZM34.908 43.8774C35.074 43.8774 35.2072 43.9294 35.3076 44.0334C35.408 44.1374 35.4584 44.2736 35.4588 44.442C35.4588 44.616 35.4108 44.7512 35.3148 44.8476C35.2188 44.9448 35.0848 44.9932 34.9128 44.9928C34.7412 44.9928 34.6066 44.9428 34.509 44.8428C34.4114 44.7428 34.3624 44.6092 34.362 44.442C34.362 44.272 34.4116 44.1354 34.5108 44.0322C34.61 43.929 34.7424 43.8774 34.908 43.8774ZM34.9104 42.3984C35.056 42.3984 35.1718 42.4464 35.2578 42.5424C35.3438 42.6384 35.3866 42.7608 35.3862 42.9096C35.3862 43.0656 35.3438 43.1896 35.259 43.2816C35.1738 43.374 35.0584 43.4202 34.9128 43.4202C34.7676 43.4202 34.6524 43.3742 34.5672 43.2822C34.482 43.1902 34.4394 43.066 34.4394 42.9096C34.4394 42.7516 34.4816 42.627 34.566 42.5358C34.65 42.4438 34.7648 42.398 34.9104 42.3984ZM36.7008 38.8008C37.0816 38.8007 37.4482 38.9455 37.7262 39.2058C38.0042 39.4661 38.1728 39.8224 38.1978 40.2024L38.2008 40.3008V40.6008H29.8008V40.3008C29.8007 39.92 29.9455 39.5534 30.2058 39.2754C30.4661 38.9974 30.8224 38.8288 31.2024 38.8038L31.3008 38.8008H36.7008Z" fill="white"/>
<circle cx="34.4902" cy="20.5488" r="7.5" fill="#FDE7E2"/>
<path d="M38.4508 19.0953V23.5953C38.4508 23.9761 38.306 24.3427 38.0458 24.6207C37.7855 24.8987 37.4292 25.0673 37.0492 25.0923L36.9508 25.0953H31.5508C31.17 25.0954 30.8034 24.9506 30.5254 24.6903C30.2474 24.43 30.0788 24.0737 30.0538 23.6937L30.0508 23.5953V19.0953H38.4508ZM35.1604 19.8357C34.842 19.8357 34.589 19.9209 34.4014 20.0913C34.2134 20.2617 34.1196 20.4921 34.12 20.7825C34.12 20.9501 34.1626 21.0991 34.2478 21.2295C34.333 21.3595 34.449 21.4621 34.5958 21.5373C34.421 21.6157 34.285 21.7275 34.1878 21.8727C34.091 22.0184 34.0404 22.1898 34.0426 22.3647C34.0426 22.6631 34.1446 22.9007 34.3486 23.0775C34.5526 23.2543 34.824 23.3425 35.1628 23.3421C35.5004 23.3421 35.7708 23.2541 35.974 23.0781C36.1772 22.9029 36.2788 22.6651 36.2788 22.3647C36.2788 22.1835 36.2308 22.0211 36.1348 21.8775C36.0325 21.7275 35.8898 21.6095 35.7232 21.5373C35.8654 21.4675 35.9867 21.3613 36.0748 21.2295C36.1608 21.0987 36.2038 20.9497 36.2038 20.7825C36.2038 20.4921 36.1098 20.2617 35.9218 20.0913C35.7346 19.9209 35.4808 19.8357 35.1604 19.8357ZM33.3484 19.8711H33.2758L31.9444 20.3607V20.8413L32.7814 20.5557V23.2953H33.3484V19.8711ZM35.158 21.7719C35.324 21.7719 35.4572 21.8239 35.5576 21.9279C35.658 22.0319 35.7084 22.1681 35.7088 22.3365C35.7088 22.5105 35.6608 22.6457 35.5648 22.7421C35.4688 22.8393 35.3348 22.8877 35.1628 22.8873C34.9912 22.8873 34.8566 22.8373 34.759 22.7373C34.6614 22.6373 34.6124 22.5037 34.612 22.3365C34.612 22.1665 34.6616 22.0299 34.7608 21.9267C34.86 21.8235 34.9924 21.7719 35.158 21.7719ZM35.1604 20.2929C35.306 20.2929 35.4218 20.3409 35.5078 20.4369C35.5938 20.5329 35.6366 20.6553 35.6362 20.8041C35.6362 20.9601 35.5938 21.0841 35.509 21.1761C35.4238 21.2685 35.3084 21.3147 35.1628 21.3147C35.0176 21.3147 34.9024 21.2687 34.8172 21.1767C34.732 21.0847 34.6894 20.9605 34.6894 20.8041C34.6894 20.6461 34.7316 20.5215 34.816 20.4303C34.9 20.3383 35.0148 20.2925 35.1604 20.2929ZM36.9508 16.6953C37.3316 16.6953 37.6982 16.8401 37.9762 17.1003C38.2542 17.3606 38.4228 17.7169 38.4478 18.0969L38.4508 18.1953V18.4953H30.0508V18.1953C30.0507 17.8145 30.1955 17.4479 30.4558 17.1699C30.7161 16.8919 31.0724 16.7233 31.4524 16.6983L31.5508 16.6953H36.9508Z" fill="white"/>
<circle cx="10.75" cy="28" r="10" fill="#FDE7E2"/>
<path d="M4.12 31.5043C3.69333 31.5043 3.31667 31.4243 2.99 31.2643C2.67 31.0976 2.40333 30.8743 2.19 30.5943L3.11 29.7143C3.23 29.8876 3.37333 30.021 3.54 30.1143C3.71333 30.201 3.90333 30.2443 4.11 30.2443C4.31667 30.2443 4.49667 30.201 4.65 30.1143C4.81 30.0276 4.93 29.901 5.01 29.7343C5.09667 29.5676 5.14 29.3643 5.14 29.1243V24.3743H6.51V29.0443C6.51 29.5376 6.41 29.971 6.21 30.3443C6.01667 30.711 5.74 30.9976 5.38 31.2043C5.02667 31.4043 4.60667 31.5043 4.12 31.5043ZM9.72695 31.5043C9.28695 31.5043 8.89029 31.3943 8.53695 31.1743C8.18362 30.9543 7.90695 30.6543 7.70695 30.2743C7.50695 29.8943 7.40695 29.4676 7.40695 28.9943C7.40695 28.5143 7.50695 28.0843 7.70695 27.7043C7.90695 27.3243 8.18362 27.0243 8.53695 26.8043C8.89029 26.5843 9.28695 26.4743 9.72695 26.4743C10.0736 26.4743 10.3836 26.5443 10.657 26.6843C10.9303 26.8243 11.147 27.021 11.307 27.2743C11.4736 27.521 11.5636 27.801 11.577 28.1143V29.8543C11.5636 30.1743 11.4736 30.4576 11.307 30.7043C11.147 30.951 10.9303 31.1476 10.657 31.2943C10.3836 31.4343 10.0736 31.5043 9.72695 31.5043ZM9.96695 30.2943C10.3336 30.2943 10.6303 30.1743 10.857 29.9343C11.0836 29.6876 11.197 29.371 11.197 28.9843C11.197 28.731 11.1436 28.5076 11.037 28.3143C10.937 28.1143 10.7936 27.961 10.607 27.8543C10.427 27.741 10.2136 27.6843 9.96695 27.6843C9.72695 27.6843 9.51362 27.741 9.32695 27.8543C9.14695 27.961 9.00362 28.1143 8.89695 28.3143C8.79695 28.5076 8.74695 28.731 8.74695 28.9843C8.74695 29.2443 8.79695 29.4743 8.89695 29.6743C9.00362 29.8676 9.14695 30.021 9.32695 30.1343C9.51362 30.241 9.72695 30.2943 9.96695 30.2943ZM11.127 31.4043V30.1043L11.337 28.9243L11.127 27.7643V26.5743H12.427V31.4043H11.127ZM16.8359 31.4043V28.6343C16.8359 28.3476 16.7459 28.1143 16.5659 27.9343C16.3859 27.7543 16.1525 27.6643 15.8659 27.6643C15.6792 27.6643 15.5125 27.7043 15.3659 27.7843C15.2192 27.8643 15.1025 27.9776 15.0159 28.1243C14.9359 28.271 14.8959 28.441 14.8959 28.6343L14.3859 28.3743C14.3859 27.9943 14.4659 27.6643 14.6259 27.3843C14.7925 27.0976 15.0192 26.8743 15.3059 26.7143C15.5992 26.5543 15.9292 26.4743 16.2959 26.4743C16.6492 26.4743 16.9659 26.5643 17.2459 26.7443C17.5259 26.9176 17.7459 27.1476 17.9059 27.4343C18.0659 27.7143 18.1459 28.0176 18.1459 28.3443V31.4043H16.8359ZM13.5859 31.4043V26.5743H14.8959V31.4043H13.5859Z" fill="white"/>
<circle cx="19" cy="8" r="8" fill="#FDE7E2"/>
<path d="M13.0888 10.7227V5.09866H14.1608V10.7227H13.0888ZM11.9848 6.04266V5.09866H14.0808V6.04266H11.9848ZM16.7303 10.8027C16.3516 10.8027 16.0049 10.736 15.6903 10.6027C15.3756 10.464 15.1116 10.2667 14.8983 10.0107L15.6183 9.29866C15.7249 9.45866 15.8769 9.58666 16.0743 9.68266C16.2716 9.77866 16.4849 9.82666 16.7143 9.82666C16.9276 9.82666 17.1116 9.78932 17.2663 9.71466C17.4209 9.63466 17.5409 9.52532 17.6263 9.38666C17.7169 9.24266 17.7623 9.07732 17.7623 8.89066C17.7623 8.69332 17.7169 8.52532 17.6263 8.38666C17.5409 8.24799 17.4156 8.14132 17.2503 8.06666C17.0849 7.99199 16.8876 7.95466 16.6583 7.95466C16.5569 7.95466 16.4529 7.96266 16.3463 7.97866C16.2396 7.98932 16.1489 8.00799 16.0743 8.03466L16.5543 7.42666C16.6876 7.38399 16.8183 7.34932 16.9463 7.32266C17.0796 7.29066 17.2023 7.27466 17.3143 7.27466C17.6023 7.27466 17.8609 7.34399 18.0903 7.48266C18.3249 7.61599 18.5089 7.80799 18.6423 8.05866C18.7809 8.30399 18.8503 8.59466 18.8503 8.93066C18.8503 9.30399 18.7623 9.63199 18.5863 9.91466C18.4103 10.192 18.1623 10.4107 17.8423 10.5707C17.5276 10.7253 17.1569 10.8027 16.7303 10.8027ZM16.0743 8.03466V7.41066L17.5143 5.73866L18.7623 5.72266L17.2743 7.42666L16.0743 8.03466ZM15.2103 6.04266V5.09866H18.7623V5.72266L17.8743 6.04266H15.2103ZM19.1847 11.0987L21.2887 4.73866H22.2327L20.1287 11.0987H19.1847ZM24.2693 10.8027C23.8907 10.8027 23.544 10.736 23.2293 10.6027C22.9147 10.464 22.6507 10.2667 22.4373 10.0107L23.1573 9.29866C23.264 9.45866 23.416 9.58666 23.6133 9.68266C23.8107 9.77866 24.024 9.82666 24.2533 9.82666C24.4667 9.82666 24.6507 9.78932 24.8053 9.71466C24.96 9.63466 25.08 9.52532 25.1653 9.38666C25.256 9.24266 25.3013 9.07732 25.3013 8.89066C25.3013 8.69332 25.256 8.52532 25.1653 8.38666C25.08 8.24799 24.9547 8.14132 24.7893 8.06666C24.624 7.99199 24.4267 7.95466 24.1973 7.95466C24.096 7.95466 23.992 7.96266 23.8853 7.97866C23.7787 7.98932 23.688 8.00799 23.6133 8.03466L24.0933 7.42666C24.2267 7.38399 24.3573 7.34932 24.4853 7.32266C24.6187 7.29066 24.7413 7.27466 24.8533 7.27466C25.1413 7.27466 25.4 7.34399 25.6293 7.48266C25.864 7.61599 26.048 7.80799 26.1813 8.05866C26.32 8.30399 26.3893 8.59466 26.3893 8.93066C26.3893 9.30399 26.3013 9.63199 26.1253 9.91466C25.9493 10.192 25.7013 10.4107 25.3813 10.5707C25.0667 10.7253 24.696 10.8027 24.2693 10.8027ZM23.6133 8.03466V7.41066L25.0533 5.73866L26.3013 5.72266L24.8133 7.42666L23.6133 8.03466ZM22.7493 6.04266V5.09866H26.3013V5.72266L25.4133 6.04266H22.7493Z" fill="white"/>
<circle cx="16" cy="52.4043" r="10" fill="#FDE7E2"/>
<path d="M10.97 55.8086V48.7786H12.33V55.8086H10.97ZM11.97 52.9286V51.7186H15.51V52.9286H11.97ZM11.97 49.9786V48.7786H15.68V49.9786H11.97ZM16.6113 55.8086V50.9786H17.9213V55.8086H16.6113ZM17.9213 53.1386L17.4113 52.7986C17.4713 52.2053 17.6446 51.7386 17.9313 51.3986C18.2179 51.0519 18.6313 50.8786 19.1713 50.8786C19.4046 50.8786 19.6146 50.9186 19.8013 50.9986C19.9879 51.0719 20.1579 51.1953 20.3113 51.3686L19.4913 52.3086C19.4179 52.2286 19.3279 52.1686 19.2213 52.1286C19.1213 52.0886 19.0046 52.0686 18.8713 52.0686C18.5913 52.0686 18.3613 52.1586 18.1813 52.3386C18.0079 52.5119 17.9213 52.7786 17.9213 53.1386ZM20.7714 55.8086V50.9786H22.0914V55.8086H20.7714ZM21.4314 50.1986C21.2181 50.1986 21.0414 50.1286 20.9014 49.9886C20.7614 49.8419 20.6914 49.6619 20.6914 49.4486C20.6914 49.2419 20.7614 49.0653 20.9014 48.9186C21.0414 48.7719 21.2181 48.6986 21.4314 48.6986C21.6514 48.6986 21.8281 48.7719 21.9614 48.9186C22.1014 49.0653 22.1714 49.2419 22.1714 49.4486C22.1714 49.6619 22.1014 49.8419 21.9614 49.9886C21.8281 50.1286 21.6514 50.1986 21.4314 50.1986Z" fill="white"/>
</svg>
