<svg width="40" height="59" viewBox="0 0 40 59" fill="none" xmlns="http://www.w3.org/2000/svg">
<g clip-path="url(#clip0_7710_6034)">
<path d="M0.950161 36.9528C0.950161 52.6015 13.6361 65.2871 29.2846 65.2871C44.9333 65.2871 57.6191 52.6015 57.6191 36.9528C57.6191 21.3043 44.9333 8.61834 29.2846 8.61834C13.6361 8.61834 0.950161 21.3043 0.950161 36.9528Z" fill="#F9F0EC"/>
<path d="M5.01006 54.9883H8.32227V55.0228H5.01006V54.9883Z" fill="#EBEBEB"/>
<path d="M16.8787 55.3633H17.748V55.3978H16.8787V55.3633Z" fill="#EBEBEB"/>
<path d="M8.4226 53.707H10.3418V53.7415H8.4226V53.707Z" fill="#EBEBEB"/>
<path d="M38.9116 53.9395H39.5449V53.974H38.9116V53.9395Z" fill="#EBEBEB"/>
<path d="M27.4859 54.5215H36.8535V54.556H27.4859V54.5215Z" fill="#EBEBEB"/>
<path d="M26.299 46.6131H45.6089C45.9236 46.6131 46.1797 46.2597 46.1797 45.8254L46.1797 8.36778C46.1797 7.9335 45.9236 7.58008 45.6089 7.58008L26.299 7.58008C25.9844 7.58008 25.7283 7.9335 25.7283 8.36778L25.7283 45.8254C25.7283 46.2597 25.9843 46.6131 26.299 46.6131ZM45.6089 7.61472C45.9099 7.61472 46.1547 7.95254 46.1547 8.36792L46.1547 45.8254C46.1547 46.2408 45.9099 46.5786 45.6089 46.5786H26.299C25.9981 46.5786 25.7533 46.2408 25.7533 45.8254L25.7533 8.36778C25.7533 7.95254 25.9981 7.61458 26.299 7.61458L45.6089 7.61472Z" fill="#EBEBEB"/>
<path d="M4.66823 46.6131H23.9781C24.2927 46.6131 24.5488 46.2597 24.5488 45.8254L24.5488 8.36778C24.5488 7.9335 24.2927 7.58008 23.9781 7.58008L4.66823 7.58008C4.35343 7.58008 4.09743 7.9335 4.09743 8.36778L4.09743 45.8254C4.09743 46.2597 4.35353 46.6131 4.66823 46.6131ZM23.9781 7.61472C24.279 7.61472 24.5238 7.95254 24.5238 8.36792L24.5238 45.8254C24.5238 46.2408 24.279 46.5786 23.9781 46.5786H4.66823C4.36723 46.5786 4.12243 46.2408 4.12243 45.8254L4.12243 8.36778C4.12243 7.95254 4.36723 7.61458 4.66823 7.61458L23.9781 7.61472Z" fill="#EBEBEB"/>
<path d="M0 52.7676L50 52.7676V52.8021L0 52.8021V52.7676Z" fill="#EBEBEB"/>
<path d="M10.6534 14.959H16.873V24.0496H10.6534V14.959Z" fill="white"/>
<path d="M11.8471 17.4785H11.0508V16.0916H11.8471V17.4785Z" fill="#F7DACD"/>
<path d="M13.39 17.4785H12.5938V16.0916H13.39V17.4785Z" fill="#F7DACD"/>
<path d="M14.933 17.4785H14.1367V16.0916H14.933V17.4785Z" fill="#F7DACD"/>
<path d="M16.476 17.4785H15.6797V16.0916H16.476V17.4785Z" fill="#F7DACD"/>
<path d="M11.8471 19.998H11.0508V18.6111H11.8471V19.998Z" fill="#F7DACD"/>
<path d="M13.39 19.998H12.5938V18.6111H13.39V19.998Z" fill="#F7DACD"/>
<path d="M14.933 19.998H14.1367V18.6111H14.933V19.998Z" fill="#F7DACD"/>
<path d="M16.476 19.998H15.6797V18.6111H16.476V19.998Z" fill="#F7DACD"/>
<path d="M11.8471 22.5195H11.0508V21.1326H11.8471V22.5195Z" fill="#F7DACD"/>
<path d="M13.39 22.5195H12.5938V21.1326H13.39V22.5195Z" fill="#F7DACD"/>
<path d="M14.933 22.5195H14.1367V21.1326H14.933V22.5195Z" fill="#F7DACD"/>
<path d="M16.476 22.5195H15.6797V21.1326H16.476V22.5195Z" fill="#F7DACD"/>
<path d="M5.00891 43.7344H11.2285L11.2285 52.825H5.00891L5.00891 43.7344Z" fill="#F0F0F0"/>
<path d="M6.20255 46.2539H5.40625V44.867H6.20255V46.2539Z" fill="#FAFAFA"/>
<path d="M7.74552 46.2539H6.94922V44.867H7.74552V46.2539Z" fill="#FAFAFA"/>
<path d="M9.28849 46.2539H8.49219V44.867H9.28849V46.2539Z" fill="#FAFAFA"/>
<path d="M10.8315 46.2539H10.0352V44.867H10.8315V46.2539Z" fill="#FAFAFA"/>
<path d="M6.20255 48.7734H5.40625V47.3865H6.20255V48.7734Z" fill="#FAFAFA"/>
<path d="M7.74552 48.7734H6.94922V47.3865H7.74552V48.7734Z" fill="#FAFAFA"/>
<path d="M9.28849 48.7734H8.49219V47.3865H9.28849V48.7734Z" fill="#FAFAFA"/>
<path d="M10.8315 48.7734H10.0352V47.3865H10.8315V48.7734Z" fill="#FAFAFA"/>
<path d="M6.20255 51.2949H5.40625V49.908H6.20255V51.2949Z" fill="#FAFAFA"/>
<path d="M7.74552 51.2949H6.94922V49.908H7.74552V51.2949Z" fill="#FAFAFA"/>
<path d="M9.28849 51.2949H8.49219V49.908H9.28849V51.2949Z" fill="#FAFAFA"/>
<path d="M10.8315 51.2949H10.0352V49.908H10.8315V51.2949Z" fill="#FAFAFA"/>
<path d="M10.6534 22.5117H16.873V31.6023H10.6534V22.5117Z" fill="#F0F0F0"/>
<path d="M11.8471 25.0312H11.0508V23.6443H11.8471V25.0312Z" fill="#FAFAFA"/>
<path d="M13.39 25.0312H12.5938V23.6443H13.39V25.0312Z" fill="#FAFAFA"/>
<path d="M14.933 25.0312H14.1367V23.6443H14.933V25.0312Z" fill="#FAFAFA"/>
<path d="M16.476 25.0312H15.6797V23.6443H16.476V25.0312Z" fill="#FAFAFA"/>
<path d="M11.8471 27.5508H11.0508V26.1639H11.8471V27.5508Z" fill="#FAFAFA"/>
<path d="M13.39 27.5508H12.5938V26.1639H13.39V27.5508Z" fill="#FAFAFA"/>
<path d="M14.933 27.5508H14.1367V26.1639H14.933V27.5508Z" fill="#FAFAFA"/>
<path d="M16.476 27.5508H15.6797V26.1639H16.476V27.5508Z" fill="#FAFAFA"/>
<path d="M11.8471 30.0723H11.0508V28.6854H11.8471V30.0723Z" fill="#FAFAFA"/>
<path d="M13.39 30.0723H12.5938V28.6854H13.39V30.0723Z" fill="#FAFAFA"/>
<path d="M14.933 30.0723H14.1367V28.6854H14.933V30.0723Z" fill="#FAFAFA"/>
<path d="M16.476 30.0723H15.6797V28.6854H16.476V30.0723Z" fill="#FAFAFA"/>
<path d="M5.00891 27.9199H11.2285L11.2285 43.7332H5.00891L5.00891 27.9199Z" fill="#F7DACD"/>
<path d="M5.40749 28.6133H7.74609L7.74609 32.5202H5.40749V28.6133Z" fill="white"/>
<path d="M8.49148 28.6133H10.8301V32.5202H8.49148V28.6133Z" fill="white"/>
<path d="M5.40749 33.6543H7.74609L7.74609 37.5612H5.40749V33.6543Z" fill="white"/>
<path d="M8.49148 33.6543H10.8301V37.5612H8.49148V33.6543Z" fill="white"/>
<path d="M5.40749 38.6934H7.74609L7.74609 42.6003H5.40749V38.6934Z" fill="white"/>
<path d="M8.49148 38.6934H10.8301V42.6003H8.49148V38.6934Z" fill="white"/>
<path d="M18.3786 20.7012H23.957V34.8843H18.3786V20.7012Z" fill="#F7DACD"/>
<path d="M18.7365 21.3242H20.834V24.8283H18.7365V21.3242Z" fill="white"/>
<path d="M21.5021 21.3242H23.5996V24.8283H21.5021V21.3242Z" fill="white"/>
<path d="M18.7365 25.8438H20.834V29.3478H18.7365V25.8438Z" fill="white"/>
<path d="M21.5021 25.8438H23.5996V29.3478H21.5021V25.8438Z" fill="white"/>
<path d="M18.7365 30.3633H20.834V33.8674H18.7365V30.3633Z" fill="white"/>
<path d="M21.5021 30.3633H23.5996V33.8674H21.5021V30.3633Z" fill="white"/>
<path d="M18.2221 35.0039H24.1113L24.1113 52.7405H18.2221V35.0039Z" fill="#EBEBEB"/>
<path d="M19.3517 36.9746H18.5977V35.6614H19.3517V36.9746Z" fill="#FAFAFA"/>
<path d="M20.8126 36.9746H20.0586V35.6614H20.8126V36.9746Z" fill="#FAFAFA"/>
<path d="M22.2735 36.9746H21.5195V35.6614H22.2735V36.9746Z" fill="#FAFAFA"/>
<path d="M23.7345 36.9746H22.9805V35.6614H23.7345V36.9746Z" fill="#FAFAFA"/>
<path d="M19.3517 39.3594H18.5977V38.0462H19.3517V39.3594Z" fill="#FAFAFA"/>
<path d="M20.8126 39.3594H20.0586V38.0462H20.8126V39.3594Z" fill="#FAFAFA"/>
<path d="M22.2735 39.3594H21.5195V38.0462H22.2735V39.3594Z" fill="#FAFAFA"/>
<path d="M23.7345 39.3594H22.9805V38.0462H23.7345V39.3594Z" fill="#FAFAFA"/>
<path d="M19.3517 41.7461H18.5977V40.4329H19.3517V41.7461Z" fill="#FAFAFA"/>
<path d="M20.8126 41.7461H20.0586V40.4329H20.8126V41.7461Z" fill="#FAFAFA"/>
<path d="M22.2735 41.7461H21.5195V40.4329H22.2735V41.7461Z" fill="#FAFAFA"/>
<path d="M23.7345 41.7461H22.9805V40.4329H23.7345V41.7461Z" fill="#FAFAFA"/>
<path d="M19.3517 44.1328H18.5977V42.8196H19.3517V44.1328Z" fill="#FAFAFA"/>
<path d="M20.8126 44.1328H20.0586V42.8196H20.8126V44.1328Z" fill="#FAFAFA"/>
<path d="M22.2735 44.1328H21.5195V42.8196H22.2735V44.1328Z" fill="#FAFAFA"/>
<path d="M23.7345 44.1328H22.9805V42.8196H23.7345V44.1328Z" fill="#FAFAFA"/>
<path d="M19.3517 46.5176H18.5977V45.2044H19.3517V46.5176Z" fill="#FAFAFA"/>
<path d="M20.8126 46.5176H20.0586V45.2044H20.8126V46.5176Z" fill="#FAFAFA"/>
<path d="M22.2735 46.5176H21.5195V45.2044H22.2735V46.5176Z" fill="#FAFAFA"/>
<path d="M23.7345 46.5176H22.9805V45.2044H23.7345V46.5176Z" fill="#FAFAFA"/>
<path d="M19.3517 48.9043H18.5977V47.5911H19.3517V48.9043Z" fill="#FAFAFA"/>
<path d="M20.8126 48.9043H20.0586V47.5911H20.8126V48.9043Z" fill="#FAFAFA"/>
<path d="M22.2735 48.9043H21.5195V47.5911H22.2735V48.9043Z" fill="#FAFAFA"/>
<path d="M23.7345 48.9043H22.9805V47.5911H23.7345V48.9043Z" fill="#FAFAFA"/>
<path d="M19.3517 51.291H18.5977V49.9778H19.3517V51.291Z" fill="#FAFAFA"/>
<path d="M20.8126 51.291H20.0586V49.9778H20.8126V51.291Z" fill="#FAFAFA"/>
<path d="M22.2735 51.291H21.5195V49.9778H22.2735V51.291Z" fill="#FAFAFA"/>
<path d="M23.7345 51.291H22.9805V49.9778H23.7345V51.291Z" fill="#FAFAFA"/>
<path d="M18.1001 34.75H24.2324V35.0179H18.1001V34.75Z" fill="#F5F5F5"/>
<path d="M10.263 31.6562H17.2637L17.2637 52.7404H10.263L10.263 31.6562Z" fill="#EBEBEB"/>
<path d="M11.6072 33.998H10.7109V32.437H11.6072V33.998Z" fill="#FAFAFA"/>
<path d="M13.3436 33.998H12.4473V32.437H13.3436V33.998Z" fill="#FAFAFA"/>
<path d="M15.0799 33.998H14.1836V32.437H15.0799V33.998Z" fill="#FAFAFA"/>
<path d="M16.8162 33.998H15.9199V32.437H16.8162V33.998Z" fill="#FAFAFA"/>
<path d="M11.6072 36.834H10.7109V35.2728H11.6072V36.834Z" fill="#FAFAFA"/>
<path d="M13.3436 36.834H12.4473V35.2728H13.3436V36.834Z" fill="#FAFAFA"/>
<path d="M15.0799 36.834H14.1836V35.2728H15.0799V36.834Z" fill="#FAFAFA"/>
<path d="M16.8162 36.834H15.9199V35.2728H16.8162V36.834Z" fill="#FAFAFA"/>
<path d="M11.6072 39.6699H10.7109V38.1089H11.6072V39.6699Z" fill="#FAFAFA"/>
<path d="M13.3436 39.6699H12.4473V38.1089H13.3436V39.6699Z" fill="#FAFAFA"/>
<path d="M15.0799 39.6699H14.1836V38.1089H15.0799V39.6699Z" fill="#FAFAFA"/>
<path d="M16.8162 39.6699H15.9199V38.1089H16.8162V39.6699Z" fill="#FAFAFA"/>
<path d="M11.6072 42.5078H10.7109V40.9468H11.6072V42.5078Z" fill="#FAFAFA"/>
<path d="M13.3436 42.5078H12.4473V40.9468H13.3436V42.5078Z" fill="#FAFAFA"/>
<path d="M15.0799 42.5078H14.1836V40.9468H15.0799V42.5078Z" fill="#FAFAFA"/>
<path d="M16.8162 42.5078H15.9199V40.9468H16.8162V42.5078Z" fill="#FAFAFA"/>
<path d="M11.6072 45.3438H10.7109V43.7827H11.6072V45.3438Z" fill="#FAFAFA"/>
<path d="M13.3436 45.3438H12.4473V43.7827H13.3436V45.3438Z" fill="#FAFAFA"/>
<path d="M15.0799 45.3438H14.1836V43.7827H15.0799V45.3438Z" fill="#FAFAFA"/>
<path d="M16.8162 45.3438H15.9199V43.7827H16.8162V45.3438Z" fill="#FAFAFA"/>
<path d="M11.6072 48.1797H10.7109V46.6186H11.6072V48.1797Z" fill="#FAFAFA"/>
<path d="M13.3436 48.1797H12.4473V46.6186H13.3436V48.1797Z" fill="#FAFAFA"/>
<path d="M15.0799 48.1797H14.1836V46.6186H15.0799V48.1797Z" fill="#FAFAFA"/>
<path d="M16.8162 48.1797H15.9199V46.6186H16.8162V48.1797Z" fill="#FAFAFA"/>
<path d="M11.6072 51.0156H10.7109V49.4546H11.6072V51.0156Z" fill="#FAFAFA"/>
<path d="M13.3436 51.0156H12.4473V49.4546H13.3436V51.0156Z" fill="#FAFAFA"/>
<path d="M15.0799 51.0156H14.1836V49.4546H15.0799V51.0156Z" fill="#FAFAFA"/>
<path d="M16.8162 51.0156H15.9199V49.4546H16.8162V51.0156Z" fill="#FAFAFA"/>
<path d="M10.1185 31.3535H17.4082V31.6719H10.1185V31.3535Z" fill="#F5F5F5"/>
<path d="M26.048 43.7324H32.2676V52.823H26.048V43.7324Z" fill="white"/>
<path d="M27.2416 46.252H26.4453V44.8651H27.2416V46.252Z" fill="#F7DACD"/>
<path d="M28.7846 46.252H27.9883V44.8651H28.7846V46.252Z" fill="#F7DACD"/>
<path d="M30.3275 46.252H29.5312V44.8651H30.3275V46.252Z" fill="#F7DACD"/>
<path d="M31.8686 46.252H31.0723V44.8651H31.8686V46.252Z" fill="#F7DACD"/>
<path d="M27.2416 48.7715H26.4453V47.3846H27.2416V48.7715Z" fill="#F7DACD"/>
<path d="M28.7846 48.7715H27.9883V47.3846H28.7846V48.7715Z" fill="#F7DACD"/>
<path d="M30.3275 48.7715H29.5312V47.3846H30.3275V48.7715Z" fill="#F7DACD"/>
<path d="M31.8686 48.7715H31.0723V47.3846H31.8686V48.7715Z" fill="#F7DACD"/>
<path d="M27.2416 51.293H26.4453V49.9061H27.2416V51.293Z" fill="#F7DACD"/>
<path d="M28.7846 51.293H27.9883V49.9061H28.7846V51.293Z" fill="#F7DACD"/>
<path d="M30.3275 51.293H29.5312V49.9061H30.3275V51.293Z" fill="#F7DACD"/>
<path d="M31.8686 51.293H31.0723V49.9061H31.8686V51.293Z" fill="#F7DACD"/>
<path d="M30.7539 27.9464V24.5391H30.9534V27.9464H30.7539Z" fill="#EBEBEB"/>
<path d="M26.248 27.9464V24.5391H26.4475V27.9464H26.248Z" fill="#EBEBEB"/>
<path d="M28.502 27.9464V24.5391H28.7015V27.9464H28.502Z" fill="#EBEBEB"/>
<path d="M26.0479 27.5977H31.1543V27.9451H26.0479V27.5977Z" fill="#F5F5F5"/>
<path d="M26.0479 24.3652H31.1543V24.7127H26.0479V24.3652Z" fill="#F5F5F5"/>
<path d="M30.7539 24.712V21.3047H30.9534V24.712H30.7539Z" fill="#EBEBEB"/>
<path d="M26.248 24.712V21.3047H26.4475V24.712H26.248Z" fill="#EBEBEB"/>
<path d="M28.502 24.712V21.3047H28.7015V24.712H28.502Z" fill="#EBEBEB"/>
<path d="M26.0479 21.1309H31.1543V21.4783H26.0479V21.1309Z" fill="#F5F5F5"/>
<path d="M26.048 27.9199H32.2676V43.7332H26.048V27.9199Z" fill="#F7DACD"/>
<path d="M26.4466 28.6133H28.7852V32.5202H26.4466V28.6133Z" fill="white"/>
<path d="M29.5305 28.6133H31.8691V32.5202H29.5305V28.6133Z" fill="white"/>
<path d="M26.4466 33.6543H28.7852V37.5612H26.4466V33.6543Z" fill="white"/>
<path d="M29.5305 33.6543H31.8691V37.5612H29.5305V33.6543Z" fill="white"/>
<path d="M26.4466 38.6934H28.7852V42.6003H26.4466V38.6934Z" fill="white"/>
<path d="M29.5305 38.6934H31.8691V42.6003H29.5305V38.6934Z" fill="white"/>
<path d="M39.2769 35.0039H45.166V52.7405H39.2769V35.0039Z" fill="#EBEBEB"/>
<path d="M40.4063 36.9746H39.6523V35.6614H40.4063V36.9746Z" fill="#FAFAFA"/>
<path d="M40.4063 39.3594H39.6523V38.0462H40.4063V39.3594Z" fill="#FAFAFA"/>
<path d="M40.4063 41.7461H39.6523V40.4329H40.4063V41.7461Z" fill="#FAFAFA"/>
<path d="M40.4063 44.1328H39.6523V42.8196H40.4063V44.1328Z" fill="#FAFAFA"/>
<path d="M40.4063 46.5176H39.6523V45.2044H40.4063V46.5176Z" fill="#FAFAFA"/>
<path d="M40.4063 48.9043H39.6523V47.5911H40.4063V48.9043Z" fill="#FAFAFA"/>
<path d="M40.4063 51.291H39.6523V49.9778H40.4063V51.291Z" fill="#FAFAFA"/>
<path d="M39.1548 34.75H45.2871V35.0179H39.1548V34.75Z" fill="#F5F5F5"/>
<path d="M31.2903 31.6562H38.291V52.7404H31.2903L31.2903 31.6562Z" fill="#EBEBEB"/>
<path d="M32.6354 28.709V31.6554H33.1875H36.3953H36.9473V28.709H32.6354Z" fill="#EBEBEB"/>
<path d="M32.6346 33.998H31.7383V32.437H32.6346V33.998Z" fill="#F7DACD"/>
<path d="M34.3709 33.998H33.4746V32.437H34.3709V33.998Z" fill="#F7DACD"/>
<path d="M36.1072 33.998H35.2109V32.437H36.1072V33.998Z" fill="#F7DACD"/>
<path d="M37.8436 33.998H36.9473V32.437H37.8436V33.998Z" fill="#F7DACD"/>
<path d="M32.6346 36.834H31.7383V35.2728H32.6346V36.834Z" fill="#F7DACD"/>
<path d="M34.3709 36.834H33.4746V35.2728H34.3709V36.834Z" fill="#F7DACD"/>
<path d="M36.1072 36.834H35.2109V35.2728H36.1072V36.834Z" fill="#F7DACD"/>
<path d="M37.8436 36.834H36.9473V35.2728H37.8436V36.834Z" fill="#F7DACD"/>
<path d="M32.6346 39.6699H31.7383V38.1089H32.6346V39.6699Z" fill="#F7DACD"/>
<path d="M34.3709 39.6699H33.4746V38.1089H34.3709V39.6699Z" fill="#F7DACD"/>
<path d="M36.1072 39.6699H35.2109V38.1089H36.1072V39.6699Z" fill="#F7DACD"/>
<path d="M34.3709 31.5469H33.4746V29.9858H34.3709V31.5469Z" fill="#F7DACD"/>
<path d="M36.1072 31.5469H35.2109V29.9858H36.1072V31.5469Z" fill="#F7DACD"/>
<path d="M37.8436 39.6699H36.9473V38.1089H37.8436V39.6699Z" fill="#F7DACD"/>
<path d="M32.6346 42.5078H31.7383V40.9468H32.6346V42.5078Z" fill="#F7DACD"/>
<path d="M34.3709 42.5078H33.4746V40.9468H34.3709V42.5078Z" fill="#F7DACD"/>
<path d="M36.1072 42.5078H35.2109V40.9468H36.1072V42.5078Z" fill="#F7DACD"/>
<path d="M37.8436 42.5078H36.9473V40.9468H37.8436V42.5078Z" fill="#F7DACD"/>
<path d="M32.6346 45.3438H31.7383V43.7827H32.6346V45.3438Z" fill="#F7DACD"/>
<path d="M34.3709 45.3438H33.4746V43.7827H34.3709V45.3438Z" fill="#F7DACD"/>
<path d="M36.1072 45.3438H35.2109V43.7827H36.1072V45.3438Z" fill="#F7DACD"/>
<path d="M37.8436 45.3438H36.9473V43.7827H37.8436V45.3438Z" fill="#F7DACD"/>
<path d="M32.6346 48.1797H31.7383V46.6186H32.6346V48.1797Z" fill="#F7DACD"/>
<path d="M34.3709 48.1797H33.4746V46.6186H34.3709V48.1797Z" fill="#F7DACD"/>
<path d="M36.1072 48.1797H35.2109V46.6186H36.1072V48.1797Z" fill="#F7DACD"/>
<path d="M37.8436 48.1797H36.9473V46.6186H37.8436V48.1797Z" fill="#F7DACD"/>
<path d="M32.6346 51.0156H31.7383V49.4546H32.6346V51.0156Z" fill="#F7DACD"/>
<path d="M34.3709 51.0156H33.4746V49.4546H34.3709V51.0156Z" fill="#F7DACD"/>
<path d="M36.1072 51.0156H35.2109V49.4546H36.1072V51.0156Z" fill="#F7DACD"/>
<path d="M37.8436 51.0156H36.9473V49.4546H37.8436V51.0156Z" fill="#F7DACD"/>
<path d="M31.1458 31.3535H38.4355V31.6719H31.1458V31.3535Z" fill="#F5F5F5"/>
<path d="M36.7637 28.7094V25.5879H36.9465V28.7094H36.7637Z" fill="#EBEBEB"/>
<path d="M32.6328 28.7095V25.5879H32.8156V28.7095H32.6328Z" fill="#EBEBEB"/>
<path d="M34.6992 28.7094V25.5879H34.882V28.7094H34.6992Z" fill="#EBEBEB"/>
<path d="M32.4508 28.3906H37.1289V28.709H32.4508V28.3906Z" fill="#F5F5F5"/>
<path d="M32.4508 25.4297H37.1289V25.7481H32.4508V25.4297Z" fill="#F5F5F5"/>
<path d="M36.7637 25.7485V22.627H36.9465V25.7485H36.7637Z" fill="#EBEBEB"/>
<path d="M32.6348 25.7485V22.627H32.8176V25.7485H32.6348Z" fill="#EBEBEB"/>
<path d="M34.6992 25.7485V22.627H34.882V25.7485H34.6992Z" fill="#EBEBEB"/>
<path d="M32.4508 22.4668H37.1289V22.7852H32.4508V22.4668Z" fill="#F5F5F5"/>
<path d="M36.7637 22.7856V19.6641H36.9465V22.7856H36.7637Z" fill="#EBEBEB"/>
<path d="M32.6348 22.7856V19.6641H32.8176V22.7856H32.6348Z" fill="#EBEBEB"/>
<path d="M34.6992 22.7856V19.6641H34.882V22.7856H34.6992Z" fill="#EBEBEB"/>
<path d="M32.4508 19.5039H37.1289V19.8223H32.4508V19.5039Z" fill="#F5F5F5"/>
<path d="M32.6328 19.8227V16.7012H32.8156V19.8227H32.6328Z" fill="#EBEBEB"/>
<path d="M34.6992 19.8227V16.7012H34.882V19.8227H34.6992Z" fill="#EBEBEB"/>
<path d="M35.5708 20.0488V19.4831C35.5708 19.3963 35.4933 19.3962 35.4933 19.4831V20.1041C35.4933 20.1433 35.5111 20.1679 35.532 20.1716C35.6544 20.1931 35.7437 20.458 35.6422 20.6349C35.5448 20.8045 35.3894 20.6709 35.3763 20.4431C35.3713 20.3575 35.2938 20.3565 35.2988 20.4431C35.3182 20.7784 35.5434 21.0007 35.697 20.7304C35.8395 20.4795 35.7418 20.124 35.5708 20.0489V20.0488Z" fill="#EBEBEB"/>
<path d="M29.9629 15.9874V27.6253H29.0308V15.9874H29.0825L29.119 15.9238L29.8596 17.2137V15.9874H29.9629ZM29.1341 26.0018H29.7865L29.1341 24.8655V26.0018ZM29.1341 23.1149H29.7865L29.1341 21.9786V23.1149ZM29.1341 20.2279H29.7865L29.1341 19.0916V20.2279ZM29.1341 17.3409H29.7865L29.1341 16.2047V17.3409ZM29.1341 17.5209V18.6572L29.7865 17.5209H29.1341ZM29.2071 18.7844H29.8595V17.6481L29.2071 18.7844ZM29.1341 20.4079V21.5442L29.7865 20.4079H29.1341ZM29.2071 21.6714H29.8595V20.5351L29.2071 21.6714ZM29.1341 23.2948V24.4311L29.7865 23.2948H29.1341ZM29.2071 24.5583H29.8595V23.4221L29.2071 24.5583ZM29.1341 26.1818V27.3181L29.7865 26.1818H29.1341ZM29.8595 27.4453V26.309L29.2071 27.4453H29.8595ZM29.8595 24.7383H29.2071L29.8595 25.8746V24.7383ZM29.8595 21.8513H29.2071L29.8595 22.9876V21.8513ZM29.8595 18.9644H29.2071L29.8595 20.1007V18.9644Z" fill="#EBEBEB"/>
<path d="M29.8594 12.1543V14.4095H29.8077L29.7712 14.4731L29.2378 13.5441V14.4095H29.1345V12.1543H29.8594ZM29.2378 12.3342V13.1097L29.683 12.3342H29.2378ZM29.756 13.4169H29.3108L29.756 14.1923V13.4169ZM29.756 13.2369V12.4615L29.3108 13.2369H29.756Z" fill="#EBEBEB"/>
<path d="M27.4345 18.1543H26.1914V15.9891H27.4345V18.1543Z" fill="#F0F0F0"/>
<path d="M35.5488 19.1121H35.48V14.9496L29.6914 11.6063H29.3085L26.209 14.9573L26.1727 14.8553L29.2889 11.4863H29.7026L29.7079 11.4894L35.5488 14.8631V19.1121Z" fill="#E6E6E6"/>
<path d="M34.8408 16.079H26.1388V14.8164L35.6387 14.8164L34.9117 16.0826H34.8407L34.8408 16.079ZM34.9441 15.7718L35.3893 14.9964H34.9441V15.7718ZM26.6873 15.899L26.2421 15.1236V15.899H26.6873ZM26.7604 14.9964H26.3152L26.7604 15.7718V14.9964ZM26.8637 15.7718L27.3089 14.9964H26.8637V15.7718ZM27.382 15.1236L26.9368 15.899H27.382V15.1236ZM27.9305 15.899L27.4853 15.1236V15.899H27.9305ZM28.0035 14.9964H27.5583L28.0035 15.7718V14.9964ZM28.1068 15.7718L28.552 14.9964L28.1068 14.9964V15.7718ZM28.6251 15.1236L28.1799 15.899H28.6251V15.1236ZM29.1736 15.899L28.7284 15.1236V15.899H29.1736ZM29.2467 14.9964H28.8015L29.2467 15.7718V14.9964ZM29.35 15.7718L29.7952 14.9964H29.35V15.7718ZM29.8682 15.1236L29.423 15.899H29.8682V15.1236ZM30.4167 15.899L29.9715 15.1236V15.899H30.4167ZM30.4898 14.9964H30.0446L30.4898 15.7718V14.9964ZM30.5931 15.7718L31.0383 14.9964H30.5931V15.7718ZM31.1113 15.1236L30.6661 15.899H31.1113V15.1236ZM31.6598 15.899L31.2146 15.1236V15.899H31.6598ZM31.7329 14.9964H31.2877L31.7329 15.7718V14.9964ZM31.8362 15.7718L32.2814 14.9964H31.8362V15.7718ZM32.3544 15.1236L31.9092 15.899H32.3544V15.1236ZM32.9029 15.899L32.4577 15.1236V15.899H32.9029ZM32.976 14.9964H32.5308L32.976 15.7718V14.9964ZM33.0793 15.7718L33.5245 14.9964H33.0793V15.7718ZM33.5975 15.1236L33.1523 15.899H33.5975V15.1236ZM33.7008 15.7718L34.146 14.9964H33.7008V15.7718ZM34.2191 15.1236L33.7739 15.899H34.2191V15.1236ZM34.7676 15.899L34.3224 15.1236V15.899H34.7676ZM34.8407 15.7718V14.9964H34.3955L34.8407 15.7718Z" fill="#EBEBEB"/>
<path d="M30.4237 16.4799H28.5121L28.5821 15.0789C28.601 14.7006 28.7828 14.4102 29.0009 14.4102H29.9116C30.125 14.4102 30.3045 14.6888 30.3291 15.0579L30.4238 16.4799H30.4237Z" fill="#EBEBEB"/>
<path d="M29.1873 15.6309H28.8203V14.9916H29.1873V15.6309Z" fill="#FAFAFA"/>
<path d="M29.6522 15.6309H29.2852V14.9916H29.6522V15.6309Z" fill="#FAFAFA"/>
<path d="M30.1151 15.6309H29.748V14.9916H30.1151V15.6309Z" fill="#FAFAFA"/>
<path d="M29.748 11.809C29.748 12.0498 29.6359 12.2449 29.4977 12.2449C29.3595 12.2449 29.2474 12.0498 29.2474 11.809C29.2474 11.5682 29.3595 11.373 29.4977 11.373C29.6359 11.373 29.748 11.5682 29.748 11.809Z" fill="#E6E6E6"/>
<path d="M35.5322 19.8563C35.4141 19.8563 35.3184 19.6895 35.3184 19.4838V19.1113H35.7461V19.4838C35.7461 19.6895 35.6504 19.8563 35.5323 19.8563H35.5322Z" fill="#E6E6E6"/>
<path d="M23.0303 13.1983C23.0303 13.1983 16.3085 14.2453 16.9785 11.6285C17.4934 9.61743 18.4528 11.4938 18.9148 11.2756C19.3188 11.0849 19.1619 9.67415 20.2654 9.83271C21.3689 9.99128 20.9621 11.4853 21.3147 11.881C21.6955 12.3084 23.0714 11.2756 23.0303 13.1983Z" fill="#F5F5F5"/>
<path d="M18.8355 13.6958C18.8355 13.6958 15.5387 14.2093 15.8673 12.9259C16.1199 11.9394 16.5904 12.8598 16.817 12.7528C17.0152 12.6593 16.9382 11.9673 17.4794 12.0452C18.0206 12.123 17.8211 12.8558 17.9941 13.0498C18.1809 13.2594 18.8557 12.7528 18.8355 13.6958Z" fill="#FAFAFA"/>
<path d="M9.61489 12.9321C9.61489 12.9321 6.31809 13.4456 6.64669 12.1622C6.89929 11.1758 7.36979 12.0961 7.59639 11.9891C7.79459 11.8956 7.71759 11.2037 8.25879 11.2815C8.79999 11.3593 8.60049 12.092 8.77339 12.2861C8.96019 12.4957 9.63499 11.9893 9.61479 12.9322L9.61489 12.9321Z" fill="#F5F5F5"/>
<path d="M42.946 13.7171C42.946 13.7171 36.7437 14.8029 36.254 12.7672C35.7884 10.8319 36.6998 12.2733 37.8412 12.2043C38.2962 12.1769 37.927 10.3326 39.0852 10.3677C40.2179 10.4019 39.91 12.1691 40.3721 12.2043C40.6082 12.2223 40.4972 11.4597 41.1872 11.5423C41.9356 11.632 41.7338 12.7296 42.0023 13.004C42.2184 13.2251 43.0054 12.6825 42.946 13.7171Z" fill="#F5F5F5"/>
<path d="M45.3933 15.3245C45.3933 15.3245 39.191 16.4103 38.7012 14.3746C38.2356 12.4393 39.147 13.8807 40.2884 13.8117C40.7434 13.7843 40.3742 11.9401 41.5324 11.9751C42.6651 12.0092 42.3572 13.7766 42.8193 13.8117C43.0554 13.8297 42.9444 13.0671 43.6344 13.1498C44.3829 13.2395 44.181 14.337 44.4495 14.6115C44.6656 14.8325 45.4526 14.2899 45.3933 15.3245Z" fill="#FAFAFA"/>
<path d="M25.4822 58.4709C14.774 58.4709 6.0933 57.7713 6.0933 56.9083C6.0933 56.0453 14.774 55.3457 25.4822 55.3457C36.1904 55.3457 44.8711 56.0453 44.8711 56.9083C44.8711 57.7713 36.1904 58.4709 25.4822 58.4709Z" fill="#F5F5F5"/>
<path d="M43.7589 35.0449H37.4238V34.5677H43.7589V35.0449Z" fill="#EFD3C6"/>
<path opacity="0.2" d="M43.7589 35.0449H37.4238V34.5677H43.7589V35.0449Z" fill="white"/>
<path d="M43.9744 34.5664H37.209V34.0892H43.9744V34.5664Z" fill="#EFD3C6"/>
<path opacity="0.4" d="M43.9744 34.5664H37.209V34.0892H43.9744V34.5664Z" fill="white"/>
<path d="M43.5109 56.4082H37.6738V35.0441H43.5109V56.4082Z" fill="#EFD3C6"/>
<path opacity="0.5" d="M43.5109 56.4082H37.6738V35.0441H43.5109V56.4082Z" fill="white"/>
<path opacity="0.2" d="M39.5219 56.4082H37.6738V35.0441H39.5219V56.4082Z" fill="black"/>
<path opacity="0.2" d="M39.5295 35.0449H37.4238V34.5677H39.5295V35.0449Z" fill="black"/>
<path opacity="0.2" d="M39.5298 34.5664H37.209V34.0892H39.5298V34.5664Z" fill="black"/>
<path d="M40.685 38.0762H39.9023V35.6686H40.685V38.0762Z" fill="#EFD3C6"/>
<path d="M40.685 40.9766H39.9023V38.569H40.685V40.9766Z" fill="#EFD3C6"/>
<path d="M40.685 45.2773H39.9023V42.8698H40.685V45.2773Z" fill="#EFD3C6"/>
<path d="M40.685 48.1777H39.9023V45.7702H40.685V48.1777Z" fill="#EFD3C6"/>
<path d="M40.685 52.4785H39.9023V50.0708H40.685V52.4785Z" fill="#EFD3C6"/>
<g opacity="0.2">
<path d="M40.685 38.0762H39.9023V35.6686H40.685V38.0762Z" fill="white"/>
<path d="M40.685 40.9766H39.9023V38.569H40.685V40.9766Z" fill="white"/>
<path d="M40.685 45.2773H39.9023V42.8698H40.685V45.2773Z" fill="white"/>
<path d="M40.685 48.1777H39.9023V45.7702H40.685V48.1777Z" fill="white"/>
<path d="M40.685 52.4785H39.9023V50.0708H40.685V52.4785Z" fill="white"/>
</g>
<path d="M40.8079 38.2422H39.7852V38.0767H40.8079V38.2422Z" fill="#EFD3C6"/>
<path d="M40.8079 41.1426H39.7852V40.9771H40.8079V41.1426Z" fill="#EFD3C6"/>
<path d="M40.8079 45.4434H39.7852V45.2779H40.8079V45.4434Z" fill="#EFD3C6"/>
<path d="M40.8079 48.3438H39.7852V48.1783H40.8079V48.3438Z" fill="#EFD3C6"/>
<path d="M40.8079 52.6445H39.7852V52.4791H40.8079V52.6445Z" fill="#EFD3C6"/>
<path opacity="0.3" d="M38.083 39.3164H37.6738V39.0014H38.083V39.3164Z" fill="black"/>
<path opacity="0.3" d="M38.4776 39.9297H38.0684V39.6146H38.4776V39.9297Z" fill="black"/>
<path opacity="0.3" d="M38.6826 39.3164H38.2734V39.0014H38.6826V39.3164Z" fill="black"/>
<path opacity="0.3" d="M38.5869 36.9531H38.1777V36.6381H38.5869V36.9531Z" fill="black"/>
<path opacity="0.3" d="M38.9815 37.5664H38.5723V37.2514H38.9815V37.5664Z" fill="black"/>
<path opacity="0.3" d="M38.9815 36.3047H38.5723V35.9896H38.9815V36.3047Z" fill="black"/>
<path opacity="0.3" d="M39.1865 36.9531H38.7773V36.6381H39.1865V36.9531Z" fill="black"/>
<path opacity="0.3" d="M39.128 53.5977H38.7188V53.2826H39.128V53.5977Z" fill="black"/>
<path opacity="0.3" d="M39.5225 52.9512H39.1133V52.6361H39.5225V52.9512Z" fill="black"/>
<path opacity="0.3" d="M38.083 43.832H37.6738V43.517H38.083V43.832Z" fill="black"/>
<path opacity="0.3" d="M38.4776 44.4453H38.0684V44.1303H38.4776V44.4453Z" fill="black"/>
<path opacity="0.3" d="M38.4776 43.1836H38.0684V42.8685H38.4776V43.1836Z" fill="black"/>
<path opacity="0.3" d="M38.6826 43.832H38.2734V43.517H38.6826V43.832Z" fill="black"/>
<path opacity="0.3" d="M38.9326 47.8613H38.5234V47.5463H38.9326V47.8613Z" fill="black"/>
<path opacity="0.3" d="M39.3272 48.4746H38.918V48.1596H39.3272V48.4746Z" fill="black"/>
<path opacity="0.3" d="M39.3272 47.2129H38.918V46.8978H39.3272V47.2129Z" fill="black"/>
<path opacity="0.3" d="M38.0908 46.4492H37.6816V46.1342H38.0908V46.4492Z" fill="black"/>
<path opacity="0.3" d="M38.4854 45.8008H38.0762V45.4857H38.4854V45.8008Z" fill="black"/>
<path opacity="0.3" d="M39.5303 47.8613H39.1211V47.5463H39.5303V47.8613Z" fill="black"/>
<path opacity="0.3" d="M38.0908 51.0332H37.6816V50.7181H38.0908V51.0332Z" fill="black"/>
<path opacity="0.3" d="M38.4854 51.6465H38.0762V51.3314H38.4854V51.6465Z" fill="black"/>
<path opacity="0.3" d="M38.4854 50.3848H38.0762V50.0697H38.4854V50.3848Z" fill="black"/>
<path opacity="0.3" d="M38.0908 55.3359H37.6816V55.0209H38.0908V55.3359Z" fill="black"/>
<path opacity="0.3" d="M38.4854 55.9492H38.0762V55.6342H38.4854V55.9492Z" fill="black"/>
<path opacity="0.3" d="M38.4854 54.6875H38.0762V54.3724H38.4854V54.6875Z" fill="black"/>
<path opacity="0.3" d="M38.6885 51.0332H38.2793V50.7181H38.6885V51.0332Z" fill="black"/>
<path d="M43.7589 42.2441H37.4238V41.7669H43.7589V42.2441Z" fill="#EFD3C6"/>
<path opacity="0.2" d="M43.7589 42.2441H37.4238V41.7669H43.7589V42.2441Z" fill="white"/>
<path opacity="0.2" d="M39.5295 42.2441H37.4238V41.7669H39.5295V42.2441Z" fill="black"/>
<path d="M43.7589 49.4434H37.4238V48.9662H43.7589V49.4434Z" fill="#EFD3C6"/>
<path opacity="0.2" d="M43.7589 49.4434H37.4238V48.9662H43.7589V49.4434Z" fill="white"/>
<path opacity="0.2" d="M39.5295 49.4434H37.4238V48.9662H39.5295V49.4434Z" fill="black"/>
<path d="M43.7589 56.7227H37.4238V56.2455H43.7589V56.7227Z" fill="#EFD3C6"/>
<path opacity="0.2" d="M43.7589 56.7227H37.4238V56.2455H43.7589V56.7227Z" fill="white"/>
<path opacity="0.2" d="M39.5295 56.7227H37.4238V56.2455H39.5295V56.7227Z" fill="black"/>
<path d="M7.32923 51.9219H11.9531V56.7265H7.32923L7.32923 51.9219Z" fill="#EFD3C6"/>
<path d="M7.32923 42.3301H11.9531V47.1347H7.32923L7.32923 42.3301Z" fill="#EFD3C6"/>
<path d="M7.32923 32.7383H11.9531V37.5429H7.32923L7.32923 32.7383Z" fill="#EFD3C6"/>
<g opacity="0.7">
<path d="M7.32923 51.9219H11.9531V56.7265H7.32923L7.32923 51.9219Z" fill="white"/>
<path d="M7.32923 42.3301H11.9531V47.1347H7.32923L7.32923 42.3301Z" fill="white"/>
<path d="M7.32923 32.7383H11.9531V37.5429H7.32923L7.32923 32.7383Z" fill="white"/>
</g>
<path d="M7.32923 47.123H11.9531V51.9277H7.32923L7.32923 47.123Z" fill="#EFD3C6"/>
<path d="M7.32923 37.5312H11.9531V42.336H7.32923L7.32923 37.5312Z" fill="#EFD3C6"/>
<g opacity="0.2">
<path d="M7.32923 47.123H11.9531V51.9277H7.32923L7.32923 47.123Z" fill="white"/>
<path d="M7.32923 37.5312H11.9531V42.336H7.32923L7.32923 37.5312Z" fill="white"/>
</g>
<path opacity="0.1" d="M10.3691 51.9199H11.9531V56.7245H10.3691V51.9199Z" fill="black"/>
<path opacity="0.1" d="M10.3691 47.125H11.9531V51.9296H10.3691V47.125Z" fill="black"/>
<path opacity="0.1" d="M10.3691 42.3281H11.9531V47.1327H10.3691V42.3281Z" fill="black"/>
<path opacity="0.1" d="M10.3691 37.5332H11.9531V42.338H10.3691V37.5332Z" fill="black"/>
<path opacity="0.1" d="M10.3691 32.7363H11.9531V37.5409H10.3691V32.7363Z" fill="black"/>
<path d="M8.80331 33.5176H9.87891V36.8536H8.80331V33.5176Z" fill="#EFD3C6"/>
<path opacity="0.2" d="M8.80331 33.5176H9.87891V36.8536H8.80331V33.5176Z" fill="black"/>
<path d="M7.72909 33.5176H8.80469V36.8536H7.72909V33.5176Z" fill="#EFD3C6"/>
<path d="M7.55763 33.3184H10.0156V33.5174H7.55763V33.3184Z" fill="#EFD3C6"/>
<path opacity="0.2" d="M7.55763 33.3184H10.0156V33.5174H7.55763V33.3184Z" fill="white"/>
<path opacity="0.4" d="M8.89193 34.1413L9.82812 35.7961V35.6821L8.89193 34.0273V34.1413Z" fill="white"/>
<path opacity="0.4" d="M8.89193 34.5978L9.82812 36.2526V36.0532L8.89193 34.3984V34.5978Z" fill="white"/>
<path opacity="0.4" d="M8.89193 34.9682L9.82812 36.6229V36.3676L8.89193 34.7129V34.9682Z" fill="white"/>
<path opacity="0.4" d="M7.79808 33.8269L8.73438 35.4816V35.3676L7.79808 33.7129V33.8269Z" fill="white"/>
<path opacity="0.4" d="M7.79808 35.1081L8.73438 36.7629V36.6489L7.79808 34.9941V35.1081Z" fill="white"/>
<path opacity="0.4" d="M8.73438 35.7387L7.79808 34.084V34.6535L8.73438 36.3081V35.7387Z" fill="white"/>
<path opacity="0.2" d="M9.64033 33.3184H10.0156V33.5174H9.64033V33.3184Z" fill="black"/>
<path d="M7.55763 36.8535H10.0156V37.0525H7.55763V36.8535Z" fill="#EFD3C6"/>
<path opacity="0.2" d="M7.55763 36.8535H10.0156V37.0525H7.55763V36.8535Z" fill="white"/>
<path opacity="0.2" d="M9.64033 36.8535H10.0156V37.0525H9.64033V36.8535Z" fill="black"/>
<path d="M8.80331 38.3223H9.87891V41.6583H8.80331V38.3223Z" fill="#EFD3C6"/>
<path opacity="0.2" d="M8.80331 38.3223H9.87891V41.6583H8.80331V38.3223Z" fill="black"/>
<path d="M7.72909 38.3223H8.80469V41.6583H7.72909V38.3223Z" fill="#EFD3C6"/>
<path d="M7.55763 38.123H10.0156V38.322H7.55763V38.123Z" fill="#EFD3C6"/>
<path opacity="0.2" d="M7.55763 38.123H10.0156V38.322H7.55763V38.123Z" fill="white"/>
<path opacity="0.4" d="M8.89193 38.9459L9.82812 40.6006V40.4867L8.89193 38.832V38.9459Z" fill="white"/>
<path opacity="0.4" d="M8.89193 39.4025L9.82812 41.0572V40.8579L8.89193 39.2031V39.4025Z" fill="white"/>
<path opacity="0.4" d="M8.89193 39.773L9.82812 41.4278V41.1723L8.89193 39.5176V39.773Z" fill="white"/>
<path opacity="0.4" d="M7.79808 38.6316L8.73438 40.2863V40.1723L7.79808 38.5176V38.6316Z" fill="white"/>
<path opacity="0.4" d="M7.79808 39.9128L8.73438 41.5676V41.4536L7.79808 39.7988V39.9128Z" fill="white"/>
<path opacity="0.4" d="M8.73438 40.5433L7.79808 38.8887V39.4581L8.73438 41.1128V40.5433Z" fill="white"/>
<path opacity="0.2" d="M9.64033 38.123H10.0156V38.322H9.64033V38.123Z" fill="black"/>
<path d="M7.55763 41.6582H10.0156V41.8572H7.55763V41.6582Z" fill="#EFD3C6"/>
<path opacity="0.2" d="M7.55763 41.6582H10.0156V41.8572H7.55763V41.6582Z" fill="white"/>
<path opacity="0.2" d="M9.64033 41.6582H10.0156V41.8572H9.64033V41.6582Z" fill="black"/>
<path d="M8.80331 43.1309H9.87891V46.4669H8.80331V43.1309Z" fill="#EFD3C6"/>
<path opacity="0.2" d="M8.80331 43.1309H9.87891V46.4669H8.80331V43.1309Z" fill="black"/>
<path d="M7.72909 43.1309H8.80469V46.4669H7.72909V43.1309Z" fill="#EFD3C6"/>
<path d="M7.55763 42.9316H10.0156V43.1306H7.55763V42.9316Z" fill="#EFD3C6"/>
<path opacity="0.2" d="M7.55763 42.9316H10.0156V43.1306H7.55763V42.9316Z" fill="white"/>
<path opacity="0.4" d="M8.89193 43.7546L9.82812 45.4094V45.2954L8.89193 43.6406V43.7546Z" fill="white"/>
<path opacity="0.4" d="M8.89193 44.211L9.82812 45.8657V45.6663L8.89193 44.0117V44.211Z" fill="white"/>
<path opacity="0.4" d="M8.89193 44.5815L9.82812 46.2362V45.9809L8.89193 44.3262V44.5815Z" fill="white"/>
<path opacity="0.4" d="M7.79808 43.4402L8.73438 45.0948V44.9809L7.79808 43.3262V43.4402Z" fill="white"/>
<path opacity="0.4" d="M7.79808 44.7214L8.73438 46.3762V46.2622L7.79808 44.6074V44.7214Z" fill="white"/>
<path opacity="0.4" d="M8.73438 45.352L7.79808 43.6973V44.2668L8.73438 45.9216V45.352Z" fill="white"/>
<path opacity="0.2" d="M9.64033 42.9316H10.0156V43.1306H9.64033V42.9316Z" fill="black"/>
<path d="M7.55763 46.4668H10.0156V46.6658H7.55763V46.4668Z" fill="#EFD3C6"/>
<path opacity="0.2" d="M7.55763 46.4668H10.0156V46.6658H7.55763V46.4668Z" fill="white"/>
<path opacity="0.2" d="M9.64033 46.4668H10.0156V46.6658H9.64033V46.4668Z" fill="black"/>
<path d="M8.80331 47.9395H9.87891V51.2755H8.80331V47.9395Z" fill="#EFD3C6"/>
<path opacity="0.2" d="M8.80331 47.9395H9.87891V51.2755H8.80331V47.9395Z" fill="black"/>
<path d="M7.72909 47.9395H8.80469V51.2755H7.72909V47.9395Z" fill="#EFD3C6"/>
<path d="M7.55763 47.7402H10.0156V47.9392H7.55763V47.7402Z" fill="#EFD3C6"/>
<path opacity="0.2" d="M7.55763 47.7402H10.0156V47.9392H7.55763V47.7402Z" fill="white"/>
<path opacity="0.4" d="M8.89193 48.5632L9.82812 50.218V50.104L8.89193 48.4492V48.5632Z" fill="white"/>
<path opacity="0.4" d="M8.89193 49.0197L9.82812 50.6743V50.4751L8.89193 48.8203V49.0197Z" fill="white"/>
<path opacity="0.4" d="M8.89193 49.3901L9.82812 51.0448V50.7894L8.89193 49.1348V49.3901Z" fill="white"/>
<path opacity="0.4" d="M7.79808 48.2488L8.73438 49.9035V49.7895L7.79808 48.1348V48.2488Z" fill="white"/>
<path opacity="0.4" d="M7.79808 49.53L8.73438 51.1848V51.0708L7.79808 49.416V49.53Z" fill="white"/>
<path opacity="0.4" d="M8.73438 50.1606L7.79808 48.5059V49.0754L8.73438 50.7301V50.1606Z" fill="white"/>
<path opacity="0.2" d="M9.64033 47.7402H10.0156V47.9392H9.64033V47.7402Z" fill="black"/>
<path d="M7.55763 51.2754H10.0156V51.4744H7.55763V51.2754Z" fill="#EFD3C6"/>
<path opacity="0.2" d="M7.55763 51.2754H10.0156V51.4744H7.55763V51.2754Z" fill="white"/>
<path opacity="0.2" d="M9.64033 51.2754H10.0156V51.4744H9.64033V51.2754Z" fill="black"/>
<path d="M8.80331 52.7441H9.87891V56.0801H8.80331V52.7441Z" fill="#EFD3C6"/>
<path opacity="0.2" d="M8.80331 52.7441H9.87891V56.0801H8.80331V52.7441Z" fill="black"/>
<path d="M7.72909 52.7441H8.80469V56.0801H7.72909V52.7441Z" fill="#EFD3C6"/>
<path d="M7.55763 52.5449H10.0156V52.7439H7.55763V52.5449Z" fill="#EFD3C6"/>
<path opacity="0.2" d="M7.55763 52.5449H10.0156V52.7439H7.55763V52.5449Z" fill="white"/>
<path opacity="0.4" d="M8.89193 53.3678L9.82812 55.0225V54.9085L8.89193 53.2539V53.3678Z" fill="white"/>
<path opacity="0.4" d="M8.89193 53.8243L9.82812 55.479V55.2798L8.89193 53.625V53.8243Z" fill="white"/>
<path opacity="0.4" d="M8.89193 54.1948L9.82812 55.8495V55.5941L8.89193 53.9395V54.1948Z" fill="white"/>
<path opacity="0.4" d="M7.79808 53.0534L8.73438 54.7082V54.5942L7.79808 52.9395V53.0534Z" fill="white"/>
<path opacity="0.4" d="M7.79808 54.3347L8.73438 55.9894V55.8755L7.79808 54.2207V54.3347Z" fill="white"/>
<path opacity="0.4" d="M8.73438 54.9652L7.79808 53.3105V53.8799L8.73438 55.5347V54.9652Z" fill="white"/>
<path opacity="0.2" d="M9.64033 52.5449H10.0156V52.7439H9.64033V52.5449Z" fill="black"/>
<path d="M7.55763 56.0801H10.0156V56.2791H7.55763V56.0801Z" fill="#EFD3C6"/>
<path opacity="0.2" d="M7.55763 56.0801H10.0156V56.2791H7.55763V56.0801Z" fill="white"/>
<path opacity="0.2" d="M9.64033 56.0801H10.0156V56.2791H9.64033V56.0801Z" fill="black"/>
<path d="M26.7871 23.584H25.0692H23.2151H21.361V15.8496L26.7871 23.584Z" fill="#EFD3C6"/>
<path d="M21.3609 23.584H26.7871L26.7871 56.7225H21.3609L21.3609 23.584Z" fill="#EFD3C6"/>
<path opacity="0.2" d="M21.3609 23.584H26.7871L26.7871 56.7225H21.3609L21.3609 23.584Z" fill="white"/>
<path opacity="0.2" d="M25.0691 23.584H26.7871L26.7871 56.7225H25.0691L25.0691 23.584Z" fill="black"/>
<path d="M23.9873 24.6875H24.7148L24.7148 56.4955H23.9873L23.9873 24.6875Z" fill="#EFD3C6"/>
<path d="M25.5655 24.6875H26.293L26.293 56.4955H25.5655L25.5655 24.6875Z" fill="#EFD3C6"/>
<path d="M22.8526 24.6875H23.5801L23.5801 56.4955H22.8526L22.8526 24.6875Z" fill="#EFD3C6"/>
<path d="M21.7178 24.6875H22.4453L22.4453 56.4955H21.7178L21.7178 24.6875Z" fill="#EFD3C6"/>
<g opacity="0.2">
<path d="M23.9873 24.6875H24.7148L24.7148 56.4955H23.9873L23.9873 24.6875Z" fill="black"/>
<path d="M25.5655 24.6875H26.293L26.293 56.4955H25.5655L25.5655 24.6875Z" fill="black"/>
<path d="M22.8526 24.6875H23.5801L23.5801 56.4955H22.8526L22.8526 24.6875Z" fill="black"/>
<path d="M21.7178 24.6875H22.4453L22.4453 56.4955H21.7178L21.7178 24.6875Z" fill="black"/>
</g>
<path opacity="0.2" d="M21.3621 23.584H25.0703L21.3621 15.8496V23.584Z" fill="black"/>
<path opacity="0.4" d="M25.0703 23.584H23.2162L21.3621 15.8496L25.0703 23.584Z" fill="white"/>
<path d="M21.0698 27.7539H25.0703V28.2086H21.0698V27.7539Z" fill="#EFD3C6"/>
<path opacity="0.4" d="M21.0698 27.7539H25.0703V28.2086H21.0698V27.7539Z" fill="white"/>
<path opacity="0.1" d="M24.5164 27.7539H25.0703V28.2086H24.5164V27.7539Z" fill="black"/>
<path d="M27.1527 28.209H25.5645V27.7543H27.1527V28.209Z" fill="#EFD3C6"/>
<path opacity="0.4" d="M27.1527 28.209H25.5645V27.7543H27.1527V28.209Z" fill="white"/>
<path opacity="0.1" d="M25.7844 28.209H25.5645V27.7543H25.7844V28.209Z" fill="black"/>
<path d="M21.0698 31.8027H25.0703V32.2574H21.0698V31.8027Z" fill="#EFD3C6"/>
<path opacity="0.4" d="M21.0698 31.8027H25.0703V32.2574H21.0698V31.8027Z" fill="white"/>
<path opacity="0.1" d="M24.5164 31.8027H25.0703V32.2574H24.5164V31.8027Z" fill="black"/>
<path d="M27.1527 32.2578H25.5645V31.8031H27.1527V32.2578Z" fill="#EFD3C6"/>
<path opacity="0.4" d="M27.1527 32.2578H25.5645V31.8031H27.1527V32.2578Z" fill="white"/>
<path opacity="0.1" d="M25.7844 32.2578H25.5645V31.8031H25.7844V32.2578Z" fill="black"/>
<path d="M21.0698 35.8516H25.0703V36.3063H21.0698V35.8516Z" fill="#EFD3C6"/>
<path opacity="0.4" d="M21.0698 35.8516H25.0703V36.3063H21.0698V35.8516Z" fill="white"/>
<path opacity="0.1" d="M24.5164 35.8516H25.0703V36.3063H24.5164V35.8516Z" fill="black"/>
<path d="M27.1527 36.3066H25.5645V35.8519H27.1527V36.3066Z" fill="#EFD3C6"/>
<path opacity="0.4" d="M27.1527 36.3066H25.5645V35.8519H27.1527V36.3066Z" fill="white"/>
<path opacity="0.1" d="M25.7844 36.3066H25.5645V35.8519H25.7844V36.3066Z" fill="black"/>
<path d="M21.0698 39.9082H25.0703V40.3629H21.0698V39.9082Z" fill="#EFD3C6"/>
<path opacity="0.4" d="M21.0698 39.9082H25.0703V40.3629H21.0698V39.9082Z" fill="white"/>
<path opacity="0.1" d="M24.5164 39.9082H25.0703V40.3629H24.5164V39.9082Z" fill="black"/>
<path d="M27.1527 40.3633H25.5645V39.9086H27.1527V40.3633Z" fill="#EFD3C6"/>
<path opacity="0.4" d="M27.1527 40.3652H25.5645V39.9105H27.1527V40.3652Z" fill="white"/>
<path opacity="0.1" d="M25.7844 40.3652H25.5645V39.9105H25.7844V40.3652Z" fill="black"/>
<path d="M21.0698 43.959H25.0703V44.4137H21.0698V43.959Z" fill="#EFD3C6"/>
<path opacity="0.4" d="M21.0698 43.9609H25.0703V44.4156H21.0698V43.9609Z" fill="white"/>
<path opacity="0.1" d="M24.5164 43.9609H25.0703V44.4156H24.5164V43.9609Z" fill="black"/>
<path d="M27.1527 44.4141H25.5645V43.9594H27.1527V44.4141Z" fill="#EFD3C6"/>
<path opacity="0.4" d="M27.1527 44.4141H25.5645V43.9594H27.1527V44.4141Z" fill="white"/>
<path opacity="0.1" d="M25.7844 44.4141H25.5645V43.9594H25.7844V44.4141Z" fill="black"/>
<path d="M21.0698 48.0078H25.0703V48.4625H21.0698V48.0078Z" fill="#EFD3C6"/>
<path opacity="0.4" d="M21.0698 48.0078H25.0703V48.4625H21.0698V48.0078Z" fill="white"/>
<path opacity="0.1" d="M24.5164 48.0078H25.0703V48.4625H24.5164V48.0078Z" fill="black"/>
<path d="M27.1527 48.4629H25.5645V48.0082H27.1527V48.4629Z" fill="#EFD3C6"/>
<path opacity="0.4" d="M27.1527 48.4629H25.5645V48.0082H27.1527V48.4629Z" fill="white"/>
<path opacity="0.1" d="M25.7844 48.4629H25.5645V48.0082H25.7844V48.4629Z" fill="black"/>
<path d="M21.0698 52.0566H25.0703V52.5113H21.0698V52.0566Z" fill="#EFD3C6"/>
<path opacity="0.4" d="M21.0698 52.0566H25.0703V52.5113H21.0698V52.0566Z" fill="white"/>
<path opacity="0.1" d="M24.5164 52.0566H25.0703V52.5113H24.5164V52.0566Z" fill="black"/>
<path d="M27.1527 52.5117H25.5645V52.057H27.1527V52.5117Z" fill="#EFD3C6"/>
<path opacity="0.4" d="M27.1527 52.5117H25.5645V52.057H27.1527V52.5117Z" fill="white"/>
<path opacity="0.1" d="M25.7844 52.5117H25.5645V52.057H25.7844V52.5117Z" fill="black"/>
<path d="M21.0698 56.2676H25.0703V56.7223H21.0698V56.2676Z" fill="#EFD3C6"/>
<path opacity="0.4" d="M21.0698 56.2676H25.0703V56.7223H21.0698V56.2676Z" fill="white"/>
<path opacity="0.1" d="M24.5164 56.2676H25.0703V56.7223H24.5164V56.2676Z" fill="black"/>
<path d="M27.1527 56.7227H25.5645V56.2679H27.1527V56.7227Z" fill="#EFD3C6"/>
<path opacity="0.4" d="M27.1527 56.7227H25.5645V56.2679H27.1527V56.7227Z" fill="white"/>
<path opacity="0.1" d="M25.7844 56.7227H25.5645V56.2679H25.7844V56.7227Z" fill="black"/>
<path d="M23.9483 48.1738H32.1738V56.7209H23.9483V48.1738Z" fill="#EFD3C6"/>
<path opacity="0.7" d="M23.9483 48.1738H32.1738V56.7209H23.9483V48.1738Z" fill="white"/>
<path opacity="0.2" d="M29.356 48.1738H32.1738V56.7209H29.356V48.1738Z" fill="black"/>
<path d="M26.5729 50.7852H28.4863V56.7196H26.5729V50.7852Z" fill="#EFD3C6"/>
<path opacity="0.2" d="M26.5729 50.7852H28.4863V56.7196H26.5729V50.7852Z" fill="black"/>
<path d="M24.6608 50.7852H26.5742V56.7196H24.6608V50.7852Z" fill="#EFD3C6"/>
<path d="M24.3559 50.4316H28.7285V50.7856H24.3559V50.4316Z" fill="#EFD3C6"/>
<path opacity="0.3" d="M24.3559 50.4316H28.7285V50.7856H24.3559V50.4316Z" fill="white"/>
<g opacity="0.3">
<path d="M26.7289 51.8962L28.3945 54.8398V54.637L26.7289 51.6934V51.8962Z" fill="white"/>
<path d="M26.7289 52.7062L28.3945 55.6498V55.2952L26.7289 52.3516V52.7062Z" fill="white"/>
<path d="M26.7289 53.3645L28.3945 56.308V55.8537L26.7289 52.9102V53.3645Z" fill="white"/>
<path d="M24.7836 51.3375L26.4492 54.2812V54.0784L24.7836 51.1348V51.3375Z" fill="white"/>
<path d="M24.7836 53.6148L26.4492 56.5584V56.3557L24.7836 53.4121V53.6148Z" fill="white"/>
<path d="M26.4492 54.7366L24.7836 51.793V52.806L26.4492 55.7497V54.7366Z" fill="white"/>
</g>
<path d="M25.4039 30.5742H30.8301L30.8301 48.0006H25.4039V30.5742Z" fill="#EFD3C6"/>
<path opacity="0.6" d="M25.4039 30.5742H30.8301L30.8301 48.0006H25.4039V30.5742Z" fill="white"/>
<path opacity="0.2" d="M29.1121 30.5742H30.8301L30.8301 48.0006H29.1121L29.1121 30.5742Z" fill="black"/>
<path d="M28.0303 31.1543H28.7578L28.7578 47.8811H28.0303L28.0303 31.1543Z" fill="#EFD3C6"/>
<path d="M26.8936 31.1543H27.6211L27.6211 47.8811H26.8936L26.8936 31.1543Z" fill="#EFD3C6"/>
<path d="M25.7588 31.1543H26.4863L26.4863 47.8811H25.7588L25.7588 31.1543Z" fill="#EFD3C6"/>
<path d="M25.11 34.8984H28.5566V35.1376H25.11V34.8984Z" fill="#EFD3C6"/>
<path d="M25.1108 34.8984H29.1113V35.1376H25.1108V34.8984Z" fill="#EFD3C6"/>
<path opacity="0.5" d="M25.1108 34.8984H29.1113V35.1376H25.1108V34.8984Z" fill="white"/>
<path opacity="0.1" d="M28.5575 34.8984H29.1113V35.1376H28.5575V34.8984Z" fill="black"/>
<path d="M25.11 39.1855H28.5566V39.4247H25.11V39.1855Z" fill="#EFD3C6"/>
<path d="M25.1108 39.1855H29.1113V39.4247H25.1108V39.1855Z" fill="#EFD3C6"/>
<path opacity="0.5" d="M25.1108 39.1855H29.1113V39.4247H25.1108V39.1855Z" fill="white"/>
<path opacity="0.1" d="M28.5575 39.1855H29.1113V39.4247H28.5575V39.1855Z" fill="black"/>
<path d="M25.11 43.4746H28.5566V43.7138H25.11V43.4746Z" fill="#EFD3C6"/>
<path d="M25.1108 43.4746H29.1113V43.7138H25.1108V43.4746Z" fill="#EFD3C6"/>
<path opacity="0.5" d="M25.1108 43.4746H29.1113V43.7138H25.1108V43.4746Z" fill="white"/>
<path opacity="0.1" d="M28.5575 43.4746H29.1113V43.7138H28.5575V43.4746Z" fill="black"/>
<path d="M25.11 47.7637H28.5566V48.0028H25.11V47.7637Z" fill="#EFD3C6"/>
<path d="M25.1108 47.7637H29.1113V48.0028H25.1108V47.7637Z" fill="#EFD3C6"/>
<path opacity="0.5" d="M25.1108 47.7637H29.1113V48.0028H25.1108V47.7637Z" fill="white"/>
<path opacity="0.1" d="M28.5575 47.7637H29.1113V48.0028H28.5575V47.7637Z" fill="black"/>
<path d="M23.7245 47.9512H32.3965V48.1729H23.7245V47.9512Z" fill="#EFD3C6"/>
<path opacity="0.3" d="M23.7245 47.9512H32.3965V48.1729H23.7245V47.9512Z" fill="white"/>
<path opacity="0.2" d="M29.4216 47.9512H32.3965V48.1729H29.4216V47.9512Z" fill="black"/>
<path opacity="0.2" d="M28.0608 50.4316H28.7285V50.7856H28.0608V50.4316Z" fill="black"/>
<path d="M30.4378 18.8438H34.6562V23.2948H30.4378V18.8438Z" fill="#EFD3C6"/>
<path opacity="0.3" d="M30.4378 18.8438H34.6562V23.2948H30.4378V18.8438Z" fill="white"/>
<path opacity="0.2" d="M33.5055 18.8438H34.6562V23.2948H33.5055V18.8438Z" fill="black"/>
<path d="M29.8843 23.2949H35.3105L35.3105 56.7122H29.8843L29.8843 23.2949Z" fill="#EFD3C6"/>
<path opacity="0.3" d="M29.8843 23.2949H35.3105L35.3105 56.7122H29.8843L29.8843 23.2949Z" fill="white"/>
<path opacity="0.2" d="M33.5925 23.2949H35.3105L35.3105 56.7122H33.5925L33.5925 23.2949Z" fill="black"/>
<path d="M31.6544 53.4629H32.7051V56.7216H31.6544V53.4629Z" fill="#EFD3C6"/>
<path opacity="0.2" d="M31.6544 53.4629H32.7051V56.7216H31.6544V53.4629Z" fill="black"/>
<path d="M30.6036 53.4629H31.6543V56.7216H30.6036V53.4629Z" fill="#EFD3C6"/>
<path d="M30.4368 53.2695H32.8379V53.464H30.4368V53.2695Z" fill="#EFD3C6"/>
<path opacity="0.4" d="M30.4368 53.2695H32.8379V53.464H30.4368V53.2695Z" fill="white"/>
<path d="M33.0137 22.8166V18.8438H33.5053V22.8166H33.0137Z" fill="#EFD3C6"/>
<path d="M32.0293 22.8166V18.8438H32.521V22.8166H32.0293Z" fill="#EFD3C6"/>
<path d="M34.1641 22.8166V18.8438H34.6558V22.8166H34.1641Z" fill="#EFD3C6"/>
<path d="M31.0469 22.8166V18.8438H31.5386V22.8166H31.0469Z" fill="#EFD3C6"/>
<path d="M33.5925 51.7891H35.3105V52.4675H33.5925V51.7891Z" fill="#EFD3C6"/>
<path d="M33.5925 50.4316H35.3105V51.1102H33.5925V50.4316Z" fill="#EFD3C6"/>
<path d="M33.5925 49.0762H35.3105V49.7546H33.5925V49.0762Z" fill="#EFD3C6"/>
<path d="M33.5925 47.7188H35.3105V48.3973H33.5925V47.7188Z" fill="#EFD3C6"/>
<path d="M33.5925 46.3613H35.3105V47.0397H33.5925V46.3613Z" fill="#EFD3C6"/>
<path d="M33.5925 45.0039H35.3105V45.6825H33.5925V45.0039Z" fill="#EFD3C6"/>
<path d="M33.5925 43.6465H35.3105V44.3249H33.5925V43.6465Z" fill="#EFD3C6"/>
<path d="M33.5925 42.291H35.3105V42.9696H33.5925V42.291Z" fill="#EFD3C6"/>
<path d="M33.5925 40.9336H35.3105V41.612H33.5925V40.9336Z" fill="#EFD3C6"/>
<path d="M33.5925 39.5762H35.3105V40.2546H33.5925V39.5762Z" fill="#EFD3C6"/>
<path d="M33.5925 38.2188H35.3105V38.8973H33.5925V38.2188Z" fill="#EFD3C6"/>
<path d="M33.5925 36.8633H35.3105V37.5418H33.5925V36.8633Z" fill="#EFD3C6"/>
<path d="M33.5925 35.5059H35.3105V36.1843H33.5925V35.5059Z" fill="#EFD3C6"/>
<path d="M33.5925 34.1484H35.3105V34.8268H33.5925V34.1484Z" fill="#EFD3C6"/>
<path d="M33.5925 32.791H35.3105V33.4694H33.5925V32.791Z" fill="#EFD3C6"/>
<path d="M33.5925 31.4355H35.3105V32.1141H33.5925V31.4355Z" fill="#EFD3C6"/>
<path d="M33.5925 30.0781H35.3105V30.7565H33.5925V30.0781Z" fill="#EFD3C6"/>
<path d="M33.5925 28.7207H35.3105V29.3992H33.5925V28.7207Z" fill="#EFD3C6"/>
<path d="M33.5925 27.3633H35.3105V28.0417H33.5925V27.3633Z" fill="#EFD3C6"/>
<path d="M33.5925 26.0078H35.3105V26.6864H33.5925V26.0078Z" fill="#EFD3C6"/>
<path d="M33.5925 24.6504H35.3105V25.3289H33.5925V24.6504Z" fill="#EFD3C6"/>
<path d="M33.5925 23.293H35.3105V23.9715H33.5925V23.293Z" fill="#EFD3C6"/>
<path d="M29.8836 23.2949H33.5918V23.9735H29.8836V23.2949Z" fill="#EFD3C6"/>
<path d="M29.8836 24.6523H33.5918V25.3309H29.8836V24.6523Z" fill="#EFD3C6"/>
<path d="M29.8836 26.0078H33.5918V26.6864H29.8836V26.0078Z" fill="#EFD3C6"/>
<path d="M29.8836 27.3652H33.5918V28.0436H29.8836V27.3652Z" fill="#EFD3C6"/>
<path d="M29.8836 28.7227H33.5918V29.4012H29.8836V28.7227Z" fill="#EFD3C6"/>
<path d="M29.8836 30.0801H33.5918V30.7585H29.8836V30.0801Z" fill="#EFD3C6"/>
<path d="M29.8836 31.4355H33.5918V32.1141H29.8836V31.4355Z" fill="#EFD3C6"/>
<path d="M29.8836 32.793H33.5918V33.4714H29.8836V32.793Z" fill="#EFD3C6"/>
<path d="M29.8836 34.1504H33.5918V34.8288H29.8836V34.1504Z" fill="#EFD3C6"/>
<path d="M29.8836 35.5078H33.5918V36.1862H29.8836V35.5078Z" fill="#EFD3C6"/>
<path d="M29.8836 36.8652H33.5918V37.5438H29.8836V36.8652Z" fill="#EFD3C6"/>
<path d="M29.8836 38.2207H33.5918V38.8992H29.8836V38.2207Z" fill="#EFD3C6"/>
<path d="M29.8836 39.5781H33.5918V40.2565H29.8836V39.5781Z" fill="#EFD3C6"/>
<path d="M29.8836 40.9355H33.5918V41.614H29.8836V40.9355Z" fill="#EFD3C6"/>
<path d="M29.8836 42.293H33.5918V42.9715H29.8836V42.293Z" fill="#EFD3C6"/>
<path d="M29.8836 43.6484H33.5918V44.3268H29.8836V43.6484Z" fill="#EFD3C6"/>
<path d="M29.8836 45.0059H33.5918V45.6844H29.8836V45.0059Z" fill="#EFD3C6"/>
<path d="M29.8836 46.3633H33.5918V47.0417H29.8836V46.3633Z" fill="#EFD3C6"/>
<path d="M29.8836 47.7207H33.5918V48.3992H29.8836V47.7207Z" fill="#EFD3C6"/>
<path d="M29.8836 49.0762H33.5918V49.7546H29.8836V49.0762Z" fill="#EFD3C6"/>
<path d="M29.8836 50.4336H33.5918V51.1121H29.8836V50.4336Z" fill="#EFD3C6"/>
<path d="M29.8836 51.791H33.5918V52.4694H29.8836V51.791Z" fill="#EFD3C6"/>
<path opacity="0.2" d="M32.4713 53.2695H32.8379V53.464H32.4713V53.2695Z" fill="black"/>
<path d="M31.7464 35.2832H37.7324V56.723H31.7464L31.7464 35.2832Z" fill="#EFD3C6"/>
<path opacity="0.7" d="M31.7464 35.2832H37.7324V56.723H31.7464L31.7464 35.2832Z" fill="white"/>
<path opacity="0.2" d="M35.8372 35.2832H37.7324V56.723H35.8372V35.2832Z" fill="black"/>
<path d="M36.1302 39.582H37.6152V39.8311H36.1302V39.582Z" fill="#EFD3C6"/>
<path d="M33.8197 39.582H35.3047V39.8311H33.8197V39.582Z" fill="#EFD3C6"/>
<path d="M32.017 39.582H33.502V39.8311H32.017V39.582Z" fill="#EFD3C6"/>
<path d="M36.1302 44.6484H37.6152V44.8975H36.1302V44.6484Z" fill="#EFD3C6"/>
<path d="M33.8197 44.6484H35.3047V44.8975H33.8197V44.6484Z" fill="#EFD3C6"/>
<path d="M32.017 44.6484H33.502V44.8975H32.017V44.6484Z" fill="#EFD3C6"/>
<path d="M36.1302 49.7168H37.6152V49.9659H36.1302V49.7168Z" fill="#EFD3C6"/>
<path d="M33.8197 49.7168H35.3047V49.9659H33.8197V49.7168Z" fill="#EFD3C6"/>
<path d="M32.017 49.7168H33.502V49.9659H32.017V49.7168Z" fill="#EFD3C6"/>
<path d="M34.5256 36.2422H34.7716C35.0644 36.2422 35.3027 36.571 35.3027 36.9751V39.5811H33.9945V36.9751C33.9945 36.571 34.2328 36.2422 34.5256 36.2422Z" fill="#EFD3C6"/>
<path d="M32.7249 36.2422H32.9709C33.2637 36.2422 33.502 36.571 33.502 36.9751V39.5811H32.1938V36.9751C32.1938 36.571 32.4321 36.2422 32.7249 36.2422Z" fill="#EFD3C6"/>
<path d="M34.5256 41.3105H34.7716C35.0644 41.3105 35.3027 41.6394 35.3027 42.0435V44.6495H33.9945V42.0435C33.9945 41.6394 34.2328 41.3105 34.5256 41.3105Z" fill="#EFD3C6"/>
<path d="M32.7249 41.3105H32.9709C33.2637 41.3105 33.502 41.6394 33.502 42.0435V44.6495H32.1938V42.0435C32.1938 41.6394 32.4321 41.3105 32.7249 41.3105Z" fill="#EFD3C6"/>
<path d="M34.5256 46.377H34.7716C35.0644 46.377 35.3027 46.7058 35.3027 47.1099V49.7159H33.9945V47.1099C33.9945 46.7058 34.2328 46.377 34.5256 46.377Z" fill="#EFD3C6"/>
<path d="M32.7249 46.377H32.9709C33.2637 46.377 33.502 46.7058 33.502 47.1099V49.7159H32.1938V47.1099C32.1938 46.7058 32.4321 46.377 32.7249 46.377Z" fill="#EFD3C6"/>
<path d="M36.6604 36.2422H36.9064C37.1992 36.2422 37.4375 36.571 37.4375 36.9751V39.5811H36.1293V36.9751C36.1293 36.571 36.3676 36.2422 36.6604 36.2422Z" fill="#EFD3C6"/>
<path d="M36.6604 41.3105H36.9064C37.1992 41.3105 37.4375 41.6394 37.4375 42.0435V44.6495H36.1293V42.0435C36.1293 41.6394 36.3676 41.3105 36.6604 41.3105Z" fill="#EFD3C6"/>
<path d="M36.6604 46.377H36.9064C37.1992 46.377 37.4375 46.7058 37.4375 47.1099V49.7159H36.1293V47.1099C36.1293 46.7058 36.3676 46.377 36.6604 46.377Z" fill="#EFD3C6"/>
<path d="M36.6604 51.4453H36.9064C37.1992 51.4453 37.4375 51.7742 37.4375 52.1782V54.7842H36.1293V52.1782C36.1293 51.7742 36.3676 51.4453 36.6604 51.4453Z" fill="#EFD3C6"/>
<path d="M33.5961 52.0195H33.9416C34.3528 52.0195 34.6875 52.4813 34.6875 53.0489V56.7086H32.8502V53.0489C32.8502 52.4814 33.1848 52.0195 33.5961 52.0195Z" fill="#EFD3C6"/>
<g opacity="0.2">
<path d="M34.5256 36.2422H34.7716C35.0644 36.2422 35.3027 36.571 35.3027 36.9751V39.5811H33.9945V36.9751C33.9945 36.571 34.2328 36.2422 34.5256 36.2422Z" fill="white"/>
<path d="M32.7249 36.2422H32.9709C33.2637 36.2422 33.502 36.571 33.502 36.9751V39.5811H32.1938V36.9751C32.1938 36.571 32.4321 36.2422 32.7249 36.2422Z" fill="white"/>
<path d="M34.5256 41.3105H34.7716C35.0644 41.3105 35.3027 41.6394 35.3027 42.0435V44.6495H33.9945V42.0435C33.9945 41.6394 34.2328 41.3105 34.5256 41.3105Z" fill="white"/>
<path d="M32.7249 41.3105H32.9709C33.2637 41.3105 33.502 41.6394 33.502 42.0435V44.6495H32.1938V42.0435C32.1938 41.6394 32.4321 41.3105 32.7249 41.3105Z" fill="white"/>
<path d="M34.5256 46.377H34.7716C35.0644 46.377 35.3027 46.7058 35.3027 47.1099V49.7159H33.9945V47.1099C33.9945 46.7058 34.2328 46.377 34.5256 46.377Z" fill="white"/>
<path d="M32.7249 46.377H32.9709C33.2637 46.377 33.502 46.7058 33.502 47.1099V49.7159H32.1938V47.1099C32.1938 46.7058 32.4321 46.377 32.7249 46.377Z" fill="white"/>
<path d="M36.6604 36.2422H36.9064C37.1992 36.2422 37.4375 36.571 37.4375 36.9751V39.5811H36.1293V36.9751C36.1293 36.571 36.3676 36.2422 36.6604 36.2422Z" fill="white"/>
<path d="M36.6604 41.3105H36.9064C37.1992 41.3105 37.4375 41.6394 37.4375 42.0435V44.6495H36.1293V42.0435C36.1293 41.6394 36.3676 41.3105 36.6604 41.3105Z" fill="white"/>
<path d="M36.6604 46.377H36.9064C37.1992 46.377 37.4375 46.7058 37.4375 47.1099V49.7159H36.1293V47.1099C36.1293 46.7058 36.3676 46.377 36.6604 46.377Z" fill="white"/>
<path d="M36.6604 51.4453H36.9064C37.1992 51.4453 37.4375 51.7742 37.4375 52.1782V54.7842H36.1293V52.1782C36.1293 51.7742 36.3676 51.4453 36.6604 51.4453Z" fill="white"/>
<path d="M33.5961 52.0195H33.9416C34.3528 52.0195 34.6875 52.4813 34.6875 53.0489V56.7086H32.8502V53.0489C32.8502 52.4814 33.1848 52.0195 33.5961 52.0195Z" fill="white"/>
</g>
<g opacity="0.7">
<path opacity="0.8" d="M34.2201 36.9766V37.3171H34.5859V36.5547H34.5257C34.3572 36.5547 34.22 36.7439 34.22 36.9764L34.2201 36.9766Z" fill="white"/>
<path opacity="0.8" d="M34.2201 37.4902H34.5859V38.2659H34.2201V37.4902Z" fill="white"/>
<path opacity="0.8" d="M34.7123 37.4902H35.0781V38.2659H34.7123V37.4902Z" fill="white"/>
<path opacity="0.8" d="M34.7725 36.5547H34.7123V37.3171H35.0781V36.9766C35.0781 36.744 34.941 36.5548 34.7725 36.5548V36.5547Z" fill="white"/>
<path opacity="0.8" d="M34.7123 38.4395H35.0781V39.2712H34.7123V38.4395Z" fill="white"/>
<path opacity="0.8" d="M34.2201 38.4395H34.5859V39.2712H34.2201V38.4395Z" fill="white"/>
<path opacity="0.8" d="M32.4194 36.9766V37.3171H32.7852V36.5547H32.725C32.5565 36.5547 32.4194 36.7439 32.4194 36.9764V36.9766Z" fill="white"/>
<path opacity="0.8" d="M32.4194 37.4902H32.7852V38.2659H32.4194V37.4902Z" fill="white"/>
<path opacity="0.8" d="M32.9096 37.4902H33.2754V38.2659H32.9096V37.4902Z" fill="white"/>
<path opacity="0.8" d="M32.9698 36.5547H32.9096V37.3171H33.2754V36.9766C33.2754 36.744 33.1383 36.5548 32.9697 36.5548L32.9698 36.5547Z" fill="white"/>
<path opacity="0.8" d="M32.9096 38.4395H33.2754V39.2712H32.9096V38.4395Z" fill="white"/>
<path opacity="0.8" d="M32.4194 38.4395H32.7852V39.2712H32.4194V38.4395Z" fill="white"/>
<path opacity="0.8" d="M34.2201 42.0449V42.3855H34.5859V41.623H34.5257C34.3572 41.623 34.22 41.8122 34.22 42.0449H34.2201Z" fill="white"/>
<path opacity="0.8" d="M34.2201 42.5586H34.5859V43.3343H34.2201V42.5586Z" fill="white"/>
<path opacity="0.8" d="M34.7123 42.5586H35.0781V43.3343H34.7123V42.5586Z" fill="white"/>
<path opacity="0.8" d="M34.7725 41.623H34.7123V42.3855H35.0781V42.0449C35.0781 41.8124 34.941 41.623 34.7725 41.623Z" fill="white"/>
<path opacity="0.8" d="M34.7123 43.5078H35.0781V44.3395H34.7123V43.5078Z" fill="white"/>
<path opacity="0.8" d="M34.2201 43.5078H34.5859V44.3395H34.2201V43.5078Z" fill="white"/>
<g opacity="0.8">
<path d="M32.4174 42.0449V42.3855H32.7832V41.623H32.723C32.5545 41.623 32.4174 41.8122 32.4174 42.0449Z" fill="white"/>
<path d="M32.4174 42.5586H32.7832V43.3343H32.4174V42.5586Z" fill="white"/>
<path d="M32.9096 42.5586H33.2754V43.3343H32.9096V42.5586Z" fill="white"/>
<path d="M32.9698 41.623H32.9096V42.3855H33.2754V42.0449C33.2754 41.8124 33.1383 41.623 32.9697 41.623H32.9698Z" fill="white"/>
<path d="M32.9096 43.5078H33.2754V44.3395H32.9096V43.5078Z" fill="white"/>
<path d="M32.4174 43.5078H32.7832V44.3395H32.4174V43.5078Z" fill="white"/>
</g>
<path d="M34.2201 47.1133V47.4539H34.5859V46.6914H34.5257C34.3572 46.6914 34.22 46.8806 34.22 47.1133H34.2201Z" fill="white"/>
<path d="M34.2201 47.627H34.5859V48.4027H34.2201V47.627Z" fill="white"/>
<path d="M34.7123 47.627H35.0781V48.4027H34.7123V47.627Z" fill="white"/>
<path d="M34.7725 46.6914H34.7123V47.4539H35.0781V47.1133C35.0781 46.8807 34.941 46.6914 34.7725 46.6914Z" fill="white"/>
<path d="M34.7123 48.5762H35.0781V49.4079H34.7123V48.5762Z" fill="white"/>
<path d="M34.2201 48.5762H34.5859V49.4079H34.2201V48.5762Z" fill="white"/>
<path d="M32.4174 47.1133V47.4539H32.7832V46.6914H32.723C32.5545 46.6914 32.4174 46.8806 32.4174 47.1133Z" fill="white"/>
<path d="M32.4174 47.627H32.7832V48.4027H32.4174V47.627Z" fill="white"/>
<path d="M32.9096 47.627H33.2754V48.4027H32.9096V47.627Z" fill="white"/>
<path d="M32.9698 46.6914H32.9096V47.4539H33.2754V47.1133C33.2754 46.8807 33.1383 46.6914 32.9697 46.6914H32.9698Z" fill="white"/>
<path d="M32.9096 48.5762H33.2754V49.4079H32.9096V48.5762Z" fill="white"/>
<path d="M32.4174 48.5762H32.7832V49.4079H32.4174V48.5762Z" fill="white"/>
<path opacity="0.8" d="M36.3549 36.9766V37.3171H36.7207V36.5547H36.6605C36.492 36.5547 36.3548 36.7439 36.3548 36.9764L36.3549 36.9766Z" fill="white"/>
<path opacity="0.8" d="M36.3549 37.4902H36.7207V38.2659H36.3549V37.4902Z" fill="white"/>
<path opacity="0.8" d="M36.8471 37.4902H37.2129V38.2659H36.8471V37.4902Z" fill="white"/>
<path opacity="0.8" d="M36.9073 36.5547H36.8471V37.3171H37.2129V36.9766C37.2129 36.744 37.0758 36.5548 36.9073 36.5548V36.5547Z" fill="white"/>
<path opacity="0.8" d="M36.8471 38.4395H37.2129V39.2712H36.8471V38.4395Z" fill="white"/>
<path opacity="0.8" d="M36.3549 38.4395H36.7207V39.2712H36.3549V38.4395Z" fill="white"/>
<path opacity="0.8" d="M36.3549 42.0449V42.3855H36.7207V41.623H36.6605C36.492 41.623 36.3548 41.8122 36.3548 42.0449H36.3549Z" fill="white"/>
<path opacity="0.8" d="M36.3549 42.5586H36.7207V43.3343H36.3549V42.5586Z" fill="white"/>
<path opacity="0.8" d="M36.8471 42.5586H37.2129V43.3343H36.8471V42.5586Z" fill="white"/>
<path opacity="0.8" d="M36.9073 41.623H36.8471V42.3855H37.2129V42.0449C37.2129 41.8124 37.0758 41.623 36.9073 41.623Z" fill="white"/>
<path opacity="0.8" d="M36.8471 43.5078H37.2129V44.3395H36.8471V43.5078Z" fill="white"/>
<path opacity="0.8" d="M36.3549 43.5078H36.7207V44.3395H36.3549V43.5078Z" fill="white"/>
<g opacity="0.8">
<path d="M36.3549 47.1133V47.4539H36.7207V46.6914H36.6605C36.492 46.6914 36.3548 46.8806 36.3548 47.1133H36.3549Z" fill="white"/>
<path d="M36.3549 47.627H36.7207V48.4027H36.3549V47.627Z" fill="white"/>
<path d="M36.8471 47.627H37.2129V48.4027H36.8471V47.627Z" fill="white"/>
<path d="M36.9073 46.6914H36.8471V47.4539H37.2129V47.1133C37.2129 46.8807 37.0758 46.6914 36.9073 46.6914Z" fill="white"/>
<path d="M36.8471 48.5762H37.2129V49.4079H36.8471V48.5762Z" fill="white"/>
<path d="M36.3549 48.5762H36.7207V49.4079H36.3549V48.5762Z" fill="white"/>
</g>
<path d="M36.3549 52.1777V52.5183H36.7207V51.7559H36.6605C36.492 51.7559 36.3548 51.9451 36.3548 52.1776L36.3549 52.1777Z" fill="white"/>
<path d="M36.3549 52.6914H36.7207V53.4671H36.3549V52.6914Z" fill="white"/>
<path d="M36.8471 52.6914H37.2129V53.4671H36.8471V52.6914Z" fill="white"/>
<path d="M36.9073 51.7559H36.8471V52.5183H37.2129V52.1777C37.2129 51.9452 37.0758 51.756 36.9073 51.756V51.7559Z" fill="white"/>
<path d="M36.8471 53.6406H37.2129V54.4723H36.8471V53.6406Z" fill="white"/>
<path d="M36.3549 53.6406H36.7207V54.4723H36.3549V53.6406Z" fill="white"/>
<path d="M33.1678 53.0514V53.5297H33.6816V52.459H33.5971C33.3604 52.459 33.1679 52.7246 33.1679 53.0513L33.1678 53.0514Z" fill="white"/>
<path d="M33.1678 53.7734H33.6816V54.8628H33.1678V53.7734Z" fill="white"/>
<path d="M33.8573 53.7734H34.3711V54.8628H33.8573V53.7734Z" fill="white"/>
<path d="M33.9418 52.459H33.8573V53.5297H34.3711V53.0514C34.3711 52.7248 34.1785 52.459 33.9418 52.459Z" fill="white"/>
<path d="M33.8573 55.1055H34.3711V56.2735H33.8573V55.1055Z" fill="white"/>
<path d="M33.1678 55.1055H33.6816V56.2735H33.1678V55.1055Z" fill="white"/>
</g>
<path d="M36.1302 54.7852H37.6152V55.0342H36.1302V54.7852Z" fill="#EFD3C6"/>
<path d="M32.6603 56.4727H34.6875V56.7217H32.6603V56.4727Z" fill="#EFD3C6"/>
<path d="M12.2658 21.3574H16.8418V23.5829H12.2658V21.3574Z" fill="#EFD3C6"/>
<path opacity="0.5" d="M12.2658 21.3574H16.8418V23.5829H12.2658V21.3574Z" fill="white"/>
<path d="M13.04 19.8848H16.0684V21.3575H13.04V19.8848Z" fill="#EFD3C6"/>
<path opacity="0.4" d="M13.04 19.8848H16.0684V21.3575H13.04V19.8848Z" fill="white"/>
<path d="M13.5948 18.9531H15.5117V19.8855H13.5948V18.9531Z" fill="#EFD3C6"/>
<path opacity="0.3" d="M13.5948 18.9531H15.5117V19.8855H13.5948V18.9531Z" fill="white"/>
<path d="M14.057 18.4863H15.0508V18.9696H14.057V18.4863Z" fill="#EFD3C6"/>
<path opacity="0.2" d="M14.057 18.4863H15.0508V18.9696H14.057V18.4863Z" fill="white"/>
<path d="M11.9097 23.584H17.3359L17.3359 56.7225H11.9097L11.9097 23.584Z" fill="#EFD3C6"/>
<path opacity="0.7" d="M11.9097 23.584H17.3359L17.3359 56.7225H11.9097L11.9097 23.584Z" fill="white"/>
<path opacity="0.1" d="M15.6179 23.584H17.3359L17.3359 56.7225H15.6179L15.6179 23.584Z" fill="black"/>
<path d="M14.5362 24.6855H15.2637L15.2637 56.4936H14.5362L14.5362 24.6855Z" fill="#EFD3C6"/>
<path d="M16.1143 24.6855H16.8418L16.8418 56.4936H16.1143L16.1143 24.6855Z" fill="#EFD3C6"/>
<path d="M13.4014 24.6855H14.1289L14.1289 56.4936H13.4014L13.4014 24.6855Z" fill="#EFD3C6"/>
<path d="M12.2666 24.6855H12.9941L12.9941 56.4936H12.2666L12.2666 24.6855Z" fill="#EFD3C6"/>
<path opacity="0.2" d="M15.619 21.3574H16.8418V23.5829H15.619V21.3574Z" fill="black"/>
<path opacity="0.2" d="M15.2592 19.8848H16.0684V21.3575H15.2592V19.8848Z" fill="black"/>
<path opacity="0.2" d="M14.9995 18.9531H15.5117V19.8855H14.9995V18.9531Z" fill="black"/>
<path opacity="0.2" d="M14.7852 18.4863H15.0508V18.9696H14.7852V18.4863Z" fill="black"/>
<path d="M11.6186 27.7539H15.6191V28.2086H11.6186V27.7539Z" fill="#EFD3C6"/>
<path opacity="0.3" d="M11.6186 27.7539H15.6191V28.2086H11.6186V27.7539Z" fill="white"/>
<path opacity="0.2" d="M15.0652 27.7539H15.6191V28.2086H15.0652V27.7539Z" fill="black"/>
<path d="M17.7015 28.209H16.1133V27.7543H17.7015V28.209Z" fill="#EFD3C6"/>
<path opacity="0.3" d="M17.7015 28.209H16.1133V27.7543H17.7015V28.209Z" fill="white"/>
<path opacity="0.2" d="M16.3332 28.209H16.1133V27.7543H16.3332V28.209Z" fill="black"/>
<path d="M11.6186 31.8125H15.6191V32.2672H11.6186V31.8125Z" fill="#EFD3C6"/>
<path opacity="0.3" d="M11.6186 31.8125H15.6191V32.2672H11.6186V31.8125Z" fill="white"/>
<path opacity="0.2" d="M15.0652 31.8125H15.6191V32.2672H15.0652V31.8125Z" fill="black"/>
<path d="M17.7015 32.2676H16.1133V31.8129H17.7015V32.2676Z" fill="#EFD3C6"/>
<path opacity="0.3" d="M17.7015 32.2676H16.1133V31.8129H17.7015V32.2676Z" fill="white"/>
<path opacity="0.2" d="M16.3332 32.2676H16.1133V31.8129H16.3332V32.2676Z" fill="black"/>
<path d="M11.6186 35.875H15.6191V36.3297H11.6186V35.875Z" fill="#EFD3C6"/>
<path opacity="0.3" d="M11.6186 35.875H15.6191V36.3297H11.6186V35.875Z" fill="white"/>
<path opacity="0.2" d="M15.0652 35.875H15.6191V36.3297H15.0652V35.875Z" fill="black"/>
<path d="M17.7015 36.3301H16.1133V35.8754H17.7015V36.3301Z" fill="#EFD3C6"/>
<path opacity="0.3" d="M17.7015 36.3301H16.1133V35.8754H17.7015V36.3301Z" fill="white"/>
<path opacity="0.2" d="M16.3332 36.3301H16.1133V35.8754H16.3332V36.3301Z" fill="black"/>
<path d="M11.6186 39.9336H15.6191V40.3883H11.6186V39.9336Z" fill="#EFD3C6"/>
<path opacity="0.3" d="M11.6186 39.9336H15.6191V40.3883H11.6186V39.9336Z" fill="white"/>
<path opacity="0.2" d="M15.0652 39.9336H15.6191V40.3883H15.0652V39.9336Z" fill="black"/>
<path d="M17.7015 40.3887H16.1133V39.934H17.7015V40.3887Z" fill="#EFD3C6"/>
<path opacity="0.3" d="M17.7015 40.3887H16.1133V39.934H17.7015V40.3887Z" fill="white"/>
<path opacity="0.2" d="M16.3332 40.3887H16.1133V39.934H16.3332V40.3887Z" fill="black"/>
<path d="M11.6186 43.9961H15.6191V44.4508H11.6186V43.9961Z" fill="#EFD3C6"/>
<path opacity="0.3" d="M11.6186 43.9961H15.6191V44.4508H11.6186V43.9961Z" fill="white"/>
<path opacity="0.2" d="M15.0652 43.9961H15.6191V44.4508H15.0652V43.9961Z" fill="black"/>
<path d="M17.7015 44.4512H16.1133V43.9965H17.7015V44.4512Z" fill="#EFD3C6"/>
<path opacity="0.3" d="M17.7015 44.4512H16.1133V43.9965H17.7015V44.4512Z" fill="white"/>
<path opacity="0.2" d="M16.3332 44.4512H16.1133V43.9965H16.3332V44.4512Z" fill="black"/>
<path d="M11.6186 48.0547H15.6191V48.5094H11.6186V48.0547Z" fill="#EFD3C6"/>
<path opacity="0.3" d="M11.6186 48.0547H15.6191V48.5094H11.6186V48.0547Z" fill="white"/>
<path opacity="0.2" d="M15.0652 48.0547H15.6191V48.5094H15.0652V48.0547Z" fill="black"/>
<path d="M17.7015 48.5098H16.1133V48.0551H17.7015V48.5098Z" fill="#EFD3C6"/>
<path opacity="0.3" d="M17.7015 48.5098H16.1133V48.0551H17.7015V48.5098Z" fill="white"/>
<path opacity="0.2" d="M16.3332 48.5098H16.1133V48.0551H16.3332V48.5098Z" fill="black"/>
<path d="M11.6186 52.1172H15.6191V52.5719H11.6186V52.1172Z" fill="#EFD3C6"/>
<path opacity="0.3" d="M11.6186 52.1172H15.6191V52.5719H11.6186V52.1172Z" fill="white"/>
<path opacity="0.2" d="M15.0652 52.1172H15.6191V52.5719H15.0652V52.1172Z" fill="black"/>
<path d="M17.7015 52.5723H16.1133V52.1176H17.7015V52.5723Z" fill="#EFD3C6"/>
<path opacity="0.3" d="M17.7015 52.5723H16.1133V52.1176H17.7015V52.5723Z" fill="white"/>
<path opacity="0.2" d="M16.3332 52.5723H16.1133V52.1176H16.3332V52.5723Z" fill="black"/>
<path d="M17.0837 36.7051H22.5098L22.5098 56.5651H17.0837L17.0837 36.7051Z" fill="#EFD3C6"/>
<path opacity="0.7" d="M17.0837 36.7051H22.5098L22.5098 56.5651H17.0837L17.0837 36.7051Z" fill="white"/>
<path opacity="0.2" d="M20.7918 36.7051H22.5098L22.5098 56.5651H20.7918L20.7918 36.7051Z" fill="black"/>
<path opacity="0.2" d="M19.71 37.1465H20.4375V39.3846H19.71V37.1465Z" fill="black"/>
<path opacity="0.2" d="M18.5733 37.1465H19.3008V39.3846H18.5733V37.1465Z" fill="black"/>
<path opacity="0.2" d="M17.4385 37.1465H18.166V39.3846H17.4385V37.1465Z" fill="black"/>
<path opacity="0.2" d="M19.71 39.8438H20.4375V42.0818H19.71V39.8438Z" fill="black"/>
<path opacity="0.2" d="M18.5733 39.8438H19.3008V42.0818H18.5733V39.8438Z" fill="black"/>
<path opacity="0.2" d="M21.2881 37.1465H22.0156V39.3846H21.2881V37.1465Z" fill="black"/>
<path opacity="0.2" d="M21.2881 39.8438H22.0156V42.0818H21.2881V39.8438Z" fill="black"/>
<path opacity="0.2" d="M17.4385 39.8438H18.166V42.0818H17.4385V39.8438Z" fill="black"/>
<path opacity="0.2" d="M19.71 43.8418H20.4375V46.0799H19.71V43.8418Z" fill="black"/>
<path opacity="0.2" d="M18.5733 43.8418H19.3008V46.0799H18.5733V43.8418Z" fill="black"/>
<path opacity="0.2" d="M17.4385 43.8418H18.166V46.0799H17.4385V43.8418Z" fill="black"/>
<path opacity="0.2" d="M19.71 46.5371H20.4375V48.7752H19.71V46.5371Z" fill="black"/>
<path opacity="0.2" d="M18.5733 46.5371H19.3008V48.7752H18.5733V46.5371Z" fill="black"/>
<path opacity="0.2" d="M21.2881 43.8418H22.0156V46.0799H21.2881V43.8418Z" fill="black"/>
<path opacity="0.2" d="M21.2881 46.5371H22.0156V48.7752H21.2881V46.5371Z" fill="black"/>
<path opacity="0.2" d="M17.4385 46.5371H18.166V48.7752H17.4385V46.5371Z" fill="black"/>
<path d="M19.8405 46.7227H20.3027V48.5946H19.8405V46.7227Z" fill="#EFD3C6"/>
<path d="M18.7058 46.7227H19.168V48.5946H18.7058V46.7227Z" fill="#EFD3C6"/>
<path d="M21.4187 46.7227H21.8809V48.5946H21.4187V46.7227Z" fill="#EFD3C6"/>
<path d="M17.571 46.7227H18.0332V48.5946H17.571V46.7227Z" fill="#EFD3C6"/>
<path d="M21.1587 53.5215H21.5391V53.8143H21.1587V53.5215Z" fill="#EFD3C6"/>
<path d="M20.7915 52.9199H21.1719V53.2129H20.7915V52.9199Z" fill="#EFD3C6"/>
<path d="M20.018 52.1602H20.3984V52.4531H20.018V52.1602Z" fill="#EFD3C6"/>
<path d="M19.6509 52.7305H20.0312V53.0233H19.6509V52.7305Z" fill="#EFD3C6"/>
<path d="M19.6509 51.5566H20.0312V51.8496H19.6509V51.5566Z" fill="#EFD3C6"/>
<path d="M19.4614 52.1602H19.8418V52.4531H19.4614V52.1602Z" fill="#EFD3C6"/>
<path d="M18.6626 51.0078H19.043V51.3008H18.6626V51.0078Z" fill="#EFD3C6"/>
<path d="M18.2954 51.5781H18.6758V51.8711H18.2954V51.5781Z" fill="#EFD3C6"/>
<path d="M18.2954 50.4043H18.6758V50.6973H18.2954V50.4043Z" fill="#EFD3C6"/>
<path d="M18.1059 51.0078H18.4863V51.3008H18.1059V51.0078Z" fill="#EFD3C6"/>
<path d="M18.1157 52.2832H18.4961V52.5762H18.1157V52.2832Z" fill="#EFD3C6"/>
<path d="M17.7505 52.8555H18.1309V53.1483H17.7505V52.8555Z" fill="#EFD3C6"/>
<path d="M17.7505 51.6816H18.1309V51.9746H17.7505V51.6816Z" fill="#EFD3C6"/>
<path d="M17.0708 51.0547H17.4512V51.3477H17.0708V51.0547Z" fill="#EFD3C6"/>
<path d="M17.5591 52.2832H17.9395V52.5762H17.5591V52.2832Z" fill="#EFD3C6"/>
<path d="M22.1235 51.1387H22.5039V51.4316H22.1235V51.1387Z" fill="#EFD3C6"/>
<path d="M21.7563 51.709H22.1367V52.002H21.7563V51.709Z" fill="#EFD3C6"/>
<path d="M21.7563 50.5352H22.1367V50.8281H21.7563V50.5352Z" fill="#EFD3C6"/>
<path d="M22.1235 55.1367H22.5039V55.4297H22.1235V55.1367Z" fill="#EFD3C6"/>
<path d="M21.7563 55.707H22.1367V56H21.7563V55.707Z" fill="#EFD3C6"/>
<path d="M21.7563 54.5352H22.1367V54.8281H21.7563V54.5352Z" fill="#EFD3C6"/>
<path d="M21.5649 51.1387H21.9453V51.4316H21.5649V51.1387Z" fill="#EFD3C6"/>
<path d="M19.8833 50.5723H20.2637V50.8652H19.8833V50.5723Z" fill="#EFD3C6"/>
<path d="M16.8531 36.3203H22.7422V36.7638H16.8531V36.3203Z" fill="#EFD3C6"/>
<path opacity="0.2" d="M16.8531 36.3203H22.7422V36.7638H16.8531V36.3203Z" fill="white"/>
<path d="M16.6523 35.877H22.9414V36.3205H16.6523V35.877Z" fill="#EFD3C6"/>
<path opacity="0.4" d="M16.6523 35.877H22.9414V36.3205H16.6523V35.877Z" fill="white"/>
<path opacity="0.2" d="M20.7848 36.3203H22.7422V36.7638H20.7848V36.3203Z" fill="black"/>
<path opacity="0.2" d="M20.784 35.877H22.9414V36.3205H20.784V35.877Z" fill="black"/>
<path d="M16.8511 42.8164H22.7402V43.2599H16.8511V42.8164Z" fill="#EFD3C6"/>
<path opacity="0.2" d="M16.8511 42.8164H22.7402V43.2599H16.8511V42.8164Z" fill="white"/>
<path opacity="0.2" d="M20.7828 42.8164H22.7402V43.2599H20.7828V42.8164Z" fill="black"/>
<path d="M16.8511 49.5117H22.7402V49.9552H16.8511V49.5117Z" fill="#EFD3C6"/>
<path opacity="0.2" d="M16.8511 49.5117H22.7402V49.9552H16.8511V49.5117Z" fill="white"/>
<path opacity="0.2" d="M20.7828 49.5117H22.7402V49.9552H20.7828V49.5117Z" fill="black"/>
<path d="M16.8511 56.2773H22.7402V56.7209H16.8511V56.2773Z" fill="#EFD3C6"/>
<path opacity="0.2" d="M16.8511 56.2773H22.7402V56.7209H16.8511V56.2773Z" fill="white"/>
<path opacity="0.2" d="M20.7828 56.2773H22.7402V56.7209H20.7828V56.2773Z" fill="black"/>
<path d="M19.8405 37.3301H20.3027V39.202H19.8405V37.3301Z" fill="#EFD3C6"/>
<path d="M18.7058 37.3301H19.168V39.202H18.7058V37.3301Z" fill="#EFD3C6"/>
<path d="M17.571 37.3301H18.0332V39.202H17.571V37.3301Z" fill="#EFD3C6"/>
<path d="M19.8405 40.0273H20.3027V41.8993H19.8405V40.0273Z" fill="#EFD3C6"/>
<path d="M18.7058 40.0273H19.168V41.8993H18.7058V40.0273Z" fill="#EFD3C6"/>
<path d="M21.4187 37.3301H21.8809V39.202H21.4187V37.3301Z" fill="#EFD3C6"/>
<path d="M21.4187 40.0273H21.8809V41.8993H21.4187V40.0273Z" fill="#EFD3C6"/>
<path d="M17.571 40.0273H18.0332V41.8993H17.571V40.0273Z" fill="#EFD3C6"/>
<path d="M19.8405 44.0254H20.3027V45.8974H19.8405V44.0254Z" fill="#EFD3C6"/>
<path d="M18.7058 44.0254H19.168V45.8974H18.7058V44.0254Z" fill="#EFD3C6"/>
<path d="M17.571 44.0254H18.0332V45.8974H17.571V44.0254Z" fill="#EFD3C6"/>
<path d="M21.4187 44.0254H21.8809V45.8974H21.4187V44.0254Z" fill="#EFD3C6"/>
<path d="M18.9381 53.8691H19.8477V56.6674H18.9381V53.8691Z" fill="#EFD3C6"/>
<path opacity="0.2" d="M19.1037 54.0977H19.6816V56.438H19.1037V54.0977Z" fill="black"/>
<path d="M18.0279 53.8691H18.9375V56.6674H18.0279V53.8691Z" fill="#EFD3C6"/>
<path opacity="0.2" d="M18.1936 54.0977H18.7715V56.438H18.1936V54.0977Z" fill="black"/>
<path d="M19.5962 39.3848H20.5469V39.5386H19.5962V39.3848Z" fill="#EFD3C6"/>
<path d="M18.4613 39.3848H19.4121V39.5386H18.4613V39.3848Z" fill="#EFD3C6"/>
<path d="M17.3266 39.3848H18.2773V39.5386H17.3266V39.3848Z" fill="#EFD3C6"/>
<path d="M19.5962 42.082H20.5469V42.2359H19.5962V42.082Z" fill="#EFD3C6"/>
<path d="M21.1743 39.3848H22.125V39.5386H21.1743V39.3848Z" fill="#EFD3C6"/>
<path d="M21.1743 42.082H22.125V42.2359H21.1743V42.082Z" fill="#EFD3C6"/>
<path d="M18.4613 42.082H19.4121V42.2359H18.4613V42.082Z" fill="#EFD3C6"/>
<path d="M17.3266 42.082H18.2773V42.2359H17.3266V42.082Z" fill="#EFD3C6"/>
<path d="M19.5962 46.0801H20.5469V46.2339H19.5962V46.0801Z" fill="#EFD3C6"/>
<path d="M18.4613 46.0801H19.4121V46.2339H18.4613V46.0801Z" fill="#EFD3C6"/>
<path d="M17.3266 46.0801H18.2773V46.2339H17.3266V46.0801Z" fill="#EFD3C6"/>
<path d="M19.5962 48.7754H20.5469V48.9293H19.5962V48.7754Z" fill="#EFD3C6"/>
<path d="M21.1743 46.0801H22.125V46.2339H21.1743V46.0801Z" fill="#EFD3C6"/>
<path d="M21.1743 48.7754H22.125V48.9293H21.1743V48.7754Z" fill="#EFD3C6"/>
<path d="M18.4613 48.7754H19.4121V48.9293H18.4613V48.7754Z" fill="#EFD3C6"/>
<path d="M17.3266 48.7754H18.2773V48.9293H17.3266V48.7754Z" fill="#EFD3C6"/>
<path d="M17.8018 53.7148H20.0137V53.8687H17.8018V53.7148Z" fill="#EFD3C6"/>
<path d="M42.536 53.2933C42.536 53.2933 43.3421 53.8151 43.4245 52.6264C43.4245 52.6264 44.0313 51.727 43.2297 51.4893C43.2297 51.4893 43.2147 50.5589 42.6229 51.0241C42.6229 51.0241 42.6679 49.8869 41.9162 50.3557C41.9162 50.3557 41.432 49.4373 41.0612 50.3548C41.0612 50.3548 40.563 50.3521 40.7428 51.2204C40.7428 51.2204 39.8064 51.7372 40.3158 52.3576C40.3158 52.3576 40.1942 53.3952 40.8679 53.3503C40.8679 53.3503 41.372 53.9806 41.814 53.2776C41.814 53.2776 42.2393 53.7948 42.536 53.2933Z" fill="#EFD3C6"/>
<path opacity="0.3" d="M42.536 53.2933C42.536 53.2933 43.3421 53.8151 43.4245 52.6264C43.4245 52.6264 44.0313 51.727 43.2297 51.4893C43.2297 51.4893 43.2147 50.5589 42.6229 51.0241C42.6229 51.0241 42.6679 49.8869 41.9162 50.3557C41.9162 50.3557 41.432 49.4373 41.0612 50.3548C41.0612 50.3548 40.563 50.3521 40.7428 51.2204C40.7428 51.2204 39.8064 51.7372 40.3158 52.3576C40.3158 52.3576 40.1942 53.3952 40.8679 53.3503C40.8679 53.3503 41.372 53.9806 41.814 53.2776C41.814 53.2776 42.2393 53.7948 42.536 53.2933Z" fill="black"/>
<path d="M20.5699 52.9493C20.5699 52.9493 19.6843 53.5226 19.5938 52.2165C19.5938 52.2165 18.9272 51.2284 19.8078 50.9673C19.8078 50.9673 19.8243 49.9452 20.4744 50.4563C20.4744 50.4563 20.425 49.2072 21.2508 49.7222C21.2508 49.7222 21.7828 48.7133 22.1902 49.7211C22.1902 49.7211 22.7375 49.7182 22.54 50.6722C22.54 50.6722 23.5687 51.24 23.0091 51.9213C23.0091 51.9213 23.1427 53.0612 22.4026 53.012C22.4026 53.012 21.8488 53.7043 21.3632 52.9321C21.3632 52.9321 20.896 53.5003 20.57 52.9493H20.5699Z" fill="#EFD3C6"/>
<path opacity="0.3" d="M20.5699 52.9493C20.5699 52.9493 19.6843 53.5226 19.5938 52.2165C19.5938 52.2165 18.9272 51.2284 19.8078 50.9673C19.8078 50.9673 19.8243 49.9452 20.4744 50.4563C20.4744 50.4563 20.425 49.2072 21.2508 49.7222C21.2508 49.7222 21.7828 48.7133 22.1902 49.7211C22.1902 49.7211 22.7375 49.7182 22.54 50.6722C22.54 50.6722 23.5687 51.24 23.0091 51.9213C23.0091 51.9213 23.1427 53.0612 22.4026 53.012C22.4026 53.012 21.8488 53.7043 21.3632 52.9321C21.3632 52.9321 20.896 53.5003 20.57 52.9493H20.5699Z" fill="black"/>
<path opacity="0.2" d="M22.4997 52.2763C22.4997 52.2763 21.8798 52.9801 21.3363 52.1951C21.3363 52.1951 20.8134 52.7727 20.4485 52.2126C20.4485 52.2126 19.646 52.6336 19.3559 51.4678L19.3544 51.457C19.323 51.8157 19.5931 52.2167 19.5931 52.2167C19.6836 53.5228 20.5692 52.9495 20.5692 52.9495C20.8952 53.5005 21.3624 52.9323 21.3624 52.9323C21.8479 53.7045 22.4018 53.0122 22.4018 53.0122C23.0151 53.053 23.0283 52.279 23.0149 52.0119C22.9305 52.1757 22.7754 52.293 22.4997 52.2763Z" fill="black"/>
<path d="M20.383 52.0877C20.383 52.0877 20.7392 52.7085 20.8152 52.9485C20.9073 53.2393 20.9576 53.8349 20.9878 54.1953C21.0302 54.7017 21.0263 55.7416 20.9263 56.2323C20.8963 56.3796 20.7315 56.7817 20.7315 56.7817H21.5585C21.5585 56.7817 21.4265 56.1512 21.4028 55.9354C21.3594 55.5403 21.3569 54.7315 21.4028 54.3369C21.4333 54.0746 21.5577 53.5652 21.6438 53.3276C21.7328 53.0822 21.9402 52.6104 22.0641 52.3957C22.1564 52.2357 22.4844 51.819 22.4844 51.819H22.3745L21.9787 52.2981L21.8702 51.7344H21.7681L21.9085 52.4215L21.5075 53.2088L21.2182 53.8665C21.2182 53.8665 20.9488 53.0681 20.9656 52.785C20.9721 52.6758 21.1106 52.3957 21.1106 52.3957H21.0085L20.8369 52.6917L20.4531 52.0162L20.3831 52.0877H20.383Z" fill="#263238"/>
<path d="M7.31283 53.2926C7.31283 53.2926 6.50643 53.8147 6.42393 52.6254C6.42393 52.6254 5.81693 51.7256 6.61873 51.4878C6.61873 51.4878 6.63373 50.5572 7.22573 51.0225C7.22573 51.0225 7.18073 49.885 7.93273 50.3539C7.93273 50.3539 8.41713 49.4352 8.78813 50.3529C8.78813 50.3529 9.28653 50.3503 9.10663 51.2189C9.10663 51.2189 10.0433 51.736 9.53373 52.3564C9.53373 52.3564 9.65543 53.3944 8.98143 53.3496C8.98143 53.3496 8.47713 53.98 8.03493 53.2769C8.03493 53.2769 7.60953 53.7944 7.31263 53.2926H7.31283Z" fill="#EFD3C6"/>
<path opacity="0.3" d="M7.31283 53.2926C7.31283 53.2926 6.50643 53.8147 6.42393 52.6254C6.42393 52.6254 5.81693 51.7256 6.61873 51.4878C6.61873 51.4878 6.63373 50.5572 7.22573 51.0225C7.22573 51.0225 7.18073 49.885 7.93273 50.3539C7.93273 50.3539 8.41713 49.4352 8.78813 50.3529C8.78813 50.3529 9.28653 50.3503 9.10663 51.2189C9.10663 51.2189 10.0433 51.736 9.53373 52.3564C9.53373 52.3564 9.65543 53.3944 8.98143 53.3496C8.98143 53.3496 8.47713 53.98 8.03493 53.2769C8.03493 53.2769 7.60953 53.7944 7.31263 53.2926H7.31283Z" fill="black"/>
<path opacity="0.2" d="M9.07121 52.6796C9.07121 52.6796 8.50671 53.3205 8.01181 52.6057C8.01181 52.6057 7.53561 53.1317 7.20341 52.6217C7.20341 52.6217 6.47261 53.0052 6.20851 51.9434L6.20712 51.9336C6.17852 52.2602 6.42451 52.6254 6.42451 52.6254C6.50691 53.8147 7.31341 53.2926 7.31341 53.2926C7.61031 53.7944 8.03571 53.2769 8.03571 53.2769C8.47781 53.9801 8.98221 53.3496 8.98221 53.3496C9.54071 53.3867 9.55271 52.682 9.54051 52.4388C9.46371 52.588 9.32241 52.6948 9.07131 52.6796H9.07121Z" fill="black"/>
<path d="M7.14129 52.5072C7.14129 52.5072 7.46569 53.0726 7.53479 53.2911C7.61869 53.5559 7.66449 54.0982 7.69199 54.4265C7.73059 54.8876 7.72709 55.8345 7.63599 56.2814C7.60869 56.4154 7.45859 56.7816 7.45859 56.7816H8.21169C8.21169 56.7816 8.09149 56.2074 8.06989 56.0109C8.03029 55.6511 8.02809 54.9146 8.06989 54.5554C8.09769 54.3165 8.21089 53.8527 8.28929 53.6363C8.37029 53.4129 8.55919 52.9832 8.67199 52.7878C8.75599 52.6421 9.05469 52.2626 9.05469 52.2626H8.95459L8.59419 52.6989L8.49539 52.1855H8.40239L8.53029 52.8112L8.16519 53.5281L7.90169 54.1271C7.90169 54.1271 7.65639 53.4001 7.67159 53.1423C7.67749 53.0429 7.80369 52.7878 7.80369 52.7878H7.71069L7.55439 53.0573L7.20489 52.4422L7.14109 52.5074L7.14129 52.5072Z" fill="#263238"/>
<path d="M10.126 51.4186H10.2129C10.2129 50.0668 9.41589 48.9668 8.43619 48.9668V49.0867C9.36799 49.0867 10.126 50.1328 10.126 51.4186Z" fill="black"/>
<path d="M10.1256 51.4186H10.2125C10.2125 50.1329 10.9705 49.0867 11.9023 49.0867V48.9668C10.9226 48.9668 10.1256 50.0667 10.1256 51.4186Z" fill="#263238"/>
<g opacity="0.3">
<path d="M10.1256 51.4186H10.2125C10.2125 50.1329 10.9705 49.0867 11.9023 49.0867V48.9668C10.9226 48.9668 10.1256 50.0667 10.1256 51.4186Z" fill="white"/>
</g>
<path d="M10.126 51.4186H10.2129C10.2129 50.0668 9.41589 48.9668 8.43619 48.9668V49.0867C9.36799 49.0867 10.126 50.1328 10.126 51.4186Z" fill="#263238"/>
<g opacity="0.3">
<path d="M10.126 51.4186H10.2129C10.2129 50.0668 9.41589 48.9668 8.43619 48.9668V49.0867C9.36799 49.0867 10.126 50.1328 10.126 51.4186Z" fill="white"/>
</g>
<path d="M8.56045 49.1787H7.51905C7.51905 48.9792 7.64125 48.8215 7.78545 48.8348L8.46705 48.8976C8.51965 48.9024 8.56055 48.9627 8.56055 49.0354V49.1787H8.56045Z" fill="#263238"/>
<path opacity="0.5" d="M8.56045 49.1787H7.51905C7.51905 48.9792 7.64125 48.8215 7.78545 48.8348L8.46705 48.8976C8.51965 48.9024 8.56055 48.9627 8.56055 49.0354V49.1787H8.56045Z" fill="white"/>
<path d="M8.45915 49.3196H7.62055C7.56455 49.3196 7.51915 49.257 7.51915 49.1797H8.56055C8.56055 49.257 8.51515 49.3196 8.45915 49.3196Z" fill="#EFD3C6"/>
<path d="M11.7789 49.1787H12.8203C12.8203 48.9792 12.6981 48.8215 12.5539 48.8348L11.8723 48.8976C11.8197 48.9024 11.7788 48.9627 11.7788 49.0354V49.1787H11.7789Z" fill="#263238"/>
<path opacity="0.5" d="M11.7789 49.1787H12.8203C12.8203 48.9792 12.6981 48.8215 12.5539 48.8348L11.8723 48.8976C11.8197 48.9024 11.7788 48.9627 11.7788 49.0354V49.1787H11.7789Z" fill="white"/>
<path d="M11.8803 49.3196H12.7189C12.7749 49.3196 12.8203 49.257 12.8203 49.1797H11.7789C11.7789 49.257 11.8243 49.3196 11.8803 49.3196Z" fill="#EFD3C6"/>
<path opacity="0.8" d="M8.45915 49.3196H7.62055C7.56455 49.3196 7.51915 49.257 7.51915 49.1797H8.56055C8.56055 49.257 8.51515 49.3196 8.45915 49.3196Z" fill="white"/>
<path opacity="0.8" d="M11.8803 49.3196H12.7189C12.7749 49.3196 12.8203 49.257 12.8203 49.1797H11.7789C11.7789 49.257 11.8243 49.3196 11.8803 49.3196Z" fill="white"/>
<path d="M9.89741 56.8051H10.4414L10.3767 55.0142C10.374 54.9395 10.3294 54.8809 10.2752 54.8809H10.0635C10.0093 54.8809 9.96471 54.9395 9.96201 55.0142L9.89731 56.8051H9.89741Z" fill="#263238"/>
<path d="M10.209 51.1328H10.1298C10.0931 51.1328 10.0633 51.1739 10.0633 51.2246V55.0316H10.2754V51.2247C10.2754 51.1741 10.2456 51.1329 10.2089 51.1329L10.209 51.1328Z" fill="#263238"/>
<path d="M23.3975 51.4186H23.4844C23.4844 50.0668 22.6874 48.9668 21.7077 48.9668V49.0867C22.6395 49.0867 23.3975 50.1328 23.3975 51.4186Z" fill="black"/>
<path d="M23.3971 51.4186H23.484C23.484 50.1329 24.242 49.0867 25.1738 49.0867V48.9668C24.1941 48.9668 23.3971 50.0667 23.3971 51.4186Z" fill="#263238"/>
<g opacity="0.3">
<path d="M23.3991 51.4186H23.486C23.486 50.1329 24.244 49.0867 25.1758 49.0867V48.9668C24.1961 48.9668 23.3991 50.0667 23.3991 51.4186Z" fill="white"/>
</g>
<path d="M23.3975 51.4186H23.4844C23.4844 50.0668 22.6874 48.9668 21.7077 48.9668V49.0867C22.6395 49.0867 23.3975 50.1328 23.3975 51.4186Z" fill="#263238"/>
<g opacity="0.3">
<path d="M23.3975 51.4186H23.4844C23.4844 50.0668 22.6874 48.9668 21.7077 48.9668V49.0867C22.6395 49.0867 23.3975 50.1328 23.3975 51.4186Z" fill="white"/>
</g>
<path d="M21.8319 49.1787H20.7905C20.7905 48.9792 20.9127 48.8215 21.0569 48.8348L21.7385 48.8976C21.7911 48.9024 21.832 48.9627 21.832 49.0354L21.8319 49.1787Z" fill="#263238"/>
<path opacity="0.5" d="M21.8319 49.1787H20.7905C20.7905 48.9792 20.9127 48.8215 21.0569 48.8348L21.7385 48.8976C21.7911 48.9024 21.832 48.9627 21.832 49.0354L21.8319 49.1787Z" fill="white"/>
<path d="M21.7306 49.3196H20.892C20.836 49.3196 20.7906 49.257 20.7906 49.1797H21.832C21.832 49.257 21.7866 49.3196 21.7306 49.3196Z" fill="#EFD3C6"/>
<path d="M25.0504 49.1787H26.0918C26.0918 48.9792 25.9696 48.8215 25.8254 48.8348L25.1438 48.8976C25.0912 48.9024 25.0503 48.9627 25.0503 49.0354L25.0504 49.1787Z" fill="#263238"/>
<path opacity="0.5" d="M25.0504 49.1787H26.0918C26.0918 48.9792 25.9696 48.8215 25.8254 48.8348L25.1438 48.8976C25.0912 48.9024 25.0503 48.9627 25.0503 49.0354L25.0504 49.1787Z" fill="white"/>
<path d="M25.1518 49.3196H25.9904C26.0464 49.3196 26.0918 49.257 26.0918 49.1797H25.0504C25.0504 49.257 25.0958 49.3196 25.1518 49.3196Z" fill="#EFD3C6"/>
<path opacity="0.8" d="M21.7306 49.3196H20.892C20.836 49.3196 20.7906 49.257 20.7906 49.1797H21.832C21.832 49.257 21.7866 49.3196 21.7306 49.3196Z" fill="white"/>
<path opacity="0.8" d="M25.1518 49.3196H25.9904C26.0464 49.3196 26.0918 49.257 26.0918 49.1797H25.0504C25.0504 49.257 25.0958 49.3196 25.1518 49.3196Z" fill="white"/>
<path d="M23.1689 56.8051H23.7129L23.6482 55.0142C23.6455 54.9395 23.6009 54.8809 23.5467 54.8809H23.335C23.2808 54.8809 23.2362 54.9395 23.2335 55.0142L23.1688 56.8051H23.1689Z" fill="#263238"/>
<path d="M23.4805 51.1328H23.4013C23.3646 51.1328 23.3348 51.1739 23.3348 51.2246V55.0314H23.5469V51.2246C23.5469 51.1739 23.5171 51.1328 23.4804 51.1328H23.4805Z" fill="#263238"/>
<path d="M37.6885 51.4186H37.7754C37.7754 50.0668 36.9784 48.9668 35.9987 48.9668V49.0867C36.9305 49.0867 37.6885 50.1328 37.6885 51.4186Z" fill="black"/>
<path d="M37.6881 51.4186H37.775C37.775 50.1329 38.533 49.0867 39.4648 49.0867V48.9668C38.4851 48.9668 37.6881 50.0667 37.6881 51.4186Z" fill="#263238"/>
<g opacity="0.3">
<path d="M37.6881 51.4186H37.775C37.775 50.1329 38.533 49.0867 39.4648 49.0867V48.9668C38.4851 48.9668 37.6881 50.0667 37.6881 51.4186Z" fill="white"/>
</g>
<path d="M37.6885 51.4186H37.7754C37.7754 50.0668 36.9784 48.9668 35.9987 48.9668V49.0867C36.9305 49.0867 37.6885 50.1328 37.6885 51.4186Z" fill="#263238"/>
<g opacity="0.3">
<path d="M37.6885 51.4186H37.7754C37.7754 50.0668 36.9784 48.9668 35.9987 48.9668V49.0867C36.9305 49.0867 37.6885 50.1328 37.6885 51.4186Z" fill="white"/>
</g>
<path d="M36.1229 49.1787H35.0815C35.0815 48.9792 35.2037 48.8215 35.3479 48.8348L36.0295 48.8976C36.0821 48.9024 36.123 48.9627 36.123 49.0354V49.1787H36.1229Z" fill="#263238"/>
<path opacity="0.5" d="M36.1229 49.1787H35.0815C35.0815 48.9792 35.2037 48.8215 35.3479 48.8348L36.0295 48.8976C36.0821 48.9024 36.123 48.9627 36.123 49.0354V49.1787H36.1229Z" fill="white"/>
<path d="M36.0216 49.3196H35.183C35.127 49.3196 35.0816 49.257 35.0816 49.1797H36.123C36.123 49.257 36.0776 49.3196 36.0216 49.3196Z" fill="#EFD3C6"/>
<path d="M39.3414 49.1787H40.3828C40.3828 48.9792 40.2606 48.8215 40.1164 48.8348L39.4348 48.8976C39.3822 48.9024 39.3413 48.9627 39.3413 49.0354L39.3414 49.1787Z" fill="#263238"/>
<path opacity="0.5" d="M39.3414 49.1787H40.3828C40.3828 48.9792 40.2606 48.8215 40.1164 48.8348L39.4348 48.8976C39.3822 48.9024 39.3413 48.9627 39.3413 49.0354L39.3414 49.1787Z" fill="white"/>
<path d="M39.4428 49.3196H40.2814C40.3374 49.3196 40.3828 49.257 40.3828 49.1797H39.3414C39.3414 49.257 39.3868 49.3196 39.4428 49.3196Z" fill="#EFD3C6"/>
<path opacity="0.8" d="M36.0216 49.3196H35.183C35.127 49.3196 35.0816 49.257 35.0816 49.1797H36.123C36.123 49.257 36.0776 49.3196 36.0216 49.3196Z" fill="white"/>
<path opacity="0.8" d="M39.4428 49.3196H40.2814C40.3374 49.3196 40.3828 49.257 40.3828 49.1797H39.3414C39.3414 49.257 39.3868 49.3196 39.4428 49.3196Z" fill="white"/>
<path d="M37.4599 56.8051H38.0039L37.9392 55.0142C37.9365 54.9395 37.8919 54.8809 37.8377 54.8809H37.626C37.5718 54.8809 37.5272 54.9395 37.5245 55.0142L37.4599 56.8051Z" fill="#263238"/>
<path d="M37.7715 51.1328H37.6923C37.6556 51.1328 37.6258 51.1739 37.6258 51.2246V55.0314H37.8379V51.2246C37.8379 51.1739 37.8082 51.1328 37.7715 51.1328Z" fill="#263238"/>
<path d="M40.8017 56.7188H39.0676C39.0163 56.7188 38.9747 56.7762 38.9747 56.847V56.9952H40.8945V56.847C40.8945 56.7762 40.853 56.7188 40.8017 56.7188Z" fill="#EFD3C6"/>
<path opacity="0.2" d="M40.8017 56.7188H39.0676C39.0163 56.7188 38.9747 56.7762 38.9747 56.847V56.9952H40.8945V56.847C40.8945 56.7762 40.853 56.7188 40.8017 56.7188Z" fill="black"/>
<path d="M38.8818 56.7188H37.1477C37.0964 56.7188 37.0548 56.7762 37.0548 56.847V56.9952H38.9746V56.847C38.9746 56.7762 38.9331 56.7188 38.8818 56.7188Z" fill="#EFD3C6"/>
<path opacity="0.6" d="M38.8818 56.7188H37.1477C37.0964 56.7188 37.0548 56.7762 37.0548 56.847V56.9952H38.9746V56.847C38.9746 56.7762 38.9331 56.7188 38.8818 56.7188Z" fill="white"/>
<path d="M36.9521 56.7188H35.218C35.1667 56.7188 35.1251 56.7762 35.1251 56.847V56.9952H37.0449V56.847C37.0449 56.7762 37.0034 56.7188 36.9521 56.7188Z" fill="#EFD3C6"/>
<path opacity="0.2" d="M36.9521 56.7188H35.218C35.1667 56.7188 35.1251 56.7762 35.1251 56.847V56.9952H37.0449V56.847C37.0449 56.7762 37.0034 56.7188 36.9521 56.7188Z" fill="black"/>
<path d="M35.0322 56.7188H33.2981C33.2468 56.7188 33.2052 56.7762 33.2052 56.847V56.9952H35.125V56.847C35.125 56.7762 35.0835 56.7188 35.0322 56.7188Z" fill="#EFD3C6"/>
<path opacity="0.6" d="M35.0322 56.7188H33.2981C33.2468 56.7188 33.2052 56.7762 33.2052 56.847V56.9952H35.125V56.847C35.125 56.7762 35.0835 56.7188 35.0322 56.7188Z" fill="white"/>
<path d="M33.1006 56.7188H31.3665C31.3152 56.7188 31.2736 56.7762 31.2736 56.847V56.9952H33.1934V56.847C33.1934 56.7762 33.1519 56.7188 33.1006 56.7188Z" fill="#EFD3C6"/>
<path opacity="0.2" d="M33.1006 56.7188H31.3665C31.3152 56.7188 31.2736 56.7762 31.2736 56.847V56.9952H33.1934V56.847C33.1934 56.7762 33.1519 56.7188 33.1006 56.7188Z" fill="black"/>
<path d="M31.1806 56.7188H29.4465C29.3952 56.7188 29.3536 56.7762 29.3536 56.847V56.9952H31.2734V56.847C31.2734 56.7762 31.2319 56.7188 31.1806 56.7188Z" fill="#EFD3C6"/>
<path opacity="0.6" d="M31.1806 56.7188H29.4465C29.3952 56.7188 29.3536 56.7762 29.3536 56.847V56.9952H31.2734V56.847C31.2734 56.7762 31.2319 56.7188 31.1806 56.7188Z" fill="white"/>
<path d="M29.2509 56.7188H27.5168C27.4655 56.7188 27.424 56.7762 27.424 56.847V56.9952H29.3438V56.847C29.3438 56.7762 29.3022 56.7188 29.2509 56.7188Z" fill="#EFD3C6"/>
<path opacity="0.2" d="M29.2509 56.7188H27.5168C27.4655 56.7188 27.424 56.7762 27.424 56.847V56.9952H29.3438V56.847C29.3438 56.7762 29.3022 56.7188 29.2509 56.7188Z" fill="black"/>
<path d="M27.331 56.7188H25.5969C25.5456 56.7188 25.504 56.7762 25.504 56.847V56.9952H27.4238V56.847C27.4238 56.7762 27.3822 56.7188 27.3309 56.7188H27.331Z" fill="#EFD3C6"/>
<path opacity="0.6" d="M27.331 56.7188H25.5969C25.5456 56.7188 25.504 56.7762 25.504 56.847V56.9952H27.4238V56.847C27.4238 56.7762 27.3822 56.7188 27.3309 56.7188H27.331Z" fill="white"/>
<path d="M25.4013 56.7188H23.6672C23.6159 56.7188 23.5743 56.7762 23.5743 56.847V56.9952H25.4941V56.847C25.4941 56.7762 25.4526 56.7188 25.4013 56.7188Z" fill="#EFD3C6"/>
<path opacity="0.2" d="M25.4013 56.7188H23.6672C23.6159 56.7188 23.5743 56.7762 23.5743 56.847V56.9952H25.4941V56.847C25.4941 56.7762 25.4526 56.7188 25.4013 56.7188Z" fill="black"/>
<path d="M23.4814 56.7188H21.7473C21.696 56.7188 21.6544 56.7762 21.6544 56.847V56.9952H23.5742V56.847C23.5742 56.7762 23.5326 56.7188 23.4813 56.7188H23.4814Z" fill="#EFD3C6"/>
<path opacity="0.6" d="M23.4814 56.7188H21.7473C21.696 56.7188 21.6544 56.7762 21.6544 56.847V56.9952H23.5742V56.847C23.5742 56.7762 23.5326 56.7188 23.4813 56.7188H23.4814Z" fill="white"/>
<path d="M21.5498 56.7188H19.8157C19.7644 56.7188 19.7228 56.7762 19.7228 56.847V56.9952H21.6426V56.847C21.6426 56.7762 21.6011 56.7188 21.5498 56.7188Z" fill="#EFD3C6"/>
<path opacity="0.2" d="M21.5498 56.7188H19.8157C19.7644 56.7188 19.7228 56.7762 19.7228 56.847V56.9952H21.6426V56.847C21.6426 56.7762 21.6011 56.7188 21.5498 56.7188Z" fill="black"/>
<path d="M19.6299 56.7188H17.8958C17.8445 56.7188 17.8029 56.7762 17.8029 56.847V56.9952H19.7227V56.847C19.7227 56.7762 19.6811 56.7188 19.6298 56.7188H19.6299Z" fill="#EFD3C6"/>
<path opacity="0.6" d="M19.6299 56.7188H17.8958C17.8445 56.7188 17.8029 56.7762 17.8029 56.847V56.9952H19.7227V56.847C19.7227 56.7762 19.6811 56.7188 19.6298 56.7188H19.6299Z" fill="white"/>
<path d="M17.7002 56.7188H15.9661C15.9148 56.7188 15.8732 56.7762 15.8732 56.847V56.9952H17.793V56.847C17.793 56.7762 17.7514 56.7188 17.7001 56.7188H17.7002Z" fill="#EFD3C6"/>
<path opacity="0.2" d="M17.7002 56.7188H15.9661C15.9148 56.7188 15.8732 56.7762 15.8732 56.847V56.9952H17.793V56.847C17.793 56.7762 17.7514 56.7188 17.7001 56.7188H17.7002Z" fill="black"/>
<path d="M15.7802 56.7188H14.0461C13.9948 56.7188 13.9532 56.7762 13.9532 56.847V56.9952H15.873V56.847C15.873 56.7762 15.8314 56.7188 15.7801 56.7188H15.7802Z" fill="#EFD3C6"/>
<path opacity="0.6" d="M15.7802 56.7188H14.0461C13.9948 56.7188 13.9532 56.7762 13.9532 56.847V56.9952H15.873V56.847C15.873 56.7762 15.8314 56.7188 15.7801 56.7188H15.7802Z" fill="white"/>
<path d="M13.8506 56.7188H12.1165C12.0652 56.7188 12.0236 56.7762 12.0236 56.847V56.9952H13.9434V56.847C13.9434 56.7762 13.9018 56.7188 13.8505 56.7188H13.8506Z" fill="#EFD3C6"/>
<path opacity="0.2" d="M13.8506 56.7188H12.1165C12.0652 56.7188 12.0236 56.7762 12.0236 56.847V56.9952H13.9434V56.847C13.9434 56.7762 13.9018 56.7188 13.8505 56.7188H13.8506Z" fill="black"/>
<path d="M11.9306 56.7188H10.1965C10.1452 56.7188 10.1036 56.7762 10.1036 56.847V56.9952H12.0234V56.847C12.0234 56.7762 11.9818 56.7188 11.9305 56.7188H11.9306Z" fill="#EFD3C6"/>
<path opacity="0.6" d="M11.9306 56.7188H10.1965C10.1452 56.7188 10.1036 56.7762 10.1036 56.847V56.9952H12.0234V56.847C12.0234 56.7762 11.9818 56.7188 11.9305 56.7188H11.9306Z" fill="white"/>
<path d="M9.999 56.7188H8.2649C8.2136 56.7188 8.172 56.7762 8.172 56.847V56.9952H10.0918V56.847C10.0918 56.7762 10.0502 56.7188 9.9989 56.7188H9.999Z" fill="#EFD3C6"/>
<path opacity="0.2" d="M9.999 56.7188H8.2649C8.2136 56.7188 8.172 56.7762 8.172 56.847V56.9952H10.0918V56.847C10.0918 56.7762 10.0502 56.7188 9.9989 56.7188H9.999Z" fill="black"/>
<path d="M8.07908 56.7188H6.34498C6.29368 56.7188 6.25208 56.7762 6.25208 56.847V56.9952H8.17188V56.847C8.17188 56.7762 8.13028 56.7188 8.07898 56.7188H8.07908Z" fill="#EFD3C6"/>
<path opacity="0.6" d="M8.07908 56.7188H6.34498C6.29368 56.7188 6.25208 56.7762 6.25208 56.847V56.9952H8.17188V56.847C8.17188 56.7762 8.13028 56.7188 8.07898 56.7188H8.07908Z" fill="white"/>
</g>
<defs>
<clipPath id="clip0_7710_6034">
<rect width="50" height="69" fill="white" transform="matrix(-1 0 0 1 50 0)"/>
</clipPath>
</defs>
</svg>
