<svg width="18" height="18" viewBox="0 0 18 18" fill="none" xmlns="http://www.w3.org/2000/svg">
<path d="M9.74858 5.25H8.25142C6.09897 5.25 4.64776 7.55182 5.49565 9.62102C5.61376 9.90926 5.88475 10.0962 6.18459 10.0962H6.71183C6.88954 10.0962 7.04444 10.2227 7.08754 10.403L7.76629 13.2425C7.90782 13.8346 8.41647 14.25 9 14.25C9.58353 14.25 10.0922 13.8346 10.2337 13.2425L10.9125 10.403C10.9556 10.2227 11.1105 10.0962 11.2882 10.0962H11.8154C12.1152 10.0962 12.3862 9.90926 12.5044 9.62102C13.3522 7.55182 11.901 5.25 9.74858 5.25Z" stroke="#5B5FC7" stroke-width="1.125"/>
<path d="M10.875 3.375C10.875 4.41053 10.0355 5.25 9 5.25C7.96447 5.25 7.125 4.41053 7.125 3.375C7.125 2.33947 7.96447 1.5 9 1.5C10.0355 1.5 10.875 2.33947 10.875 3.375Z" stroke="#5B5FC7" stroke-width="1.125"/>
<path d="M14.25 14.25C14.25 15.4926 11.8995 16.5 9 16.5C6.10051 16.5 3.75 15.4926 3.75 14.25" stroke="#5B5FC7" stroke-width="1.125" stroke-linecap="round"/>
</svg>
