<svg xmlns="http://www.w3.org/2000/svg" width="16" height="16" viewBox="0 0 16 16" fill="none">
  <path d="M8.62382 4.79102H7.37618C5.58248 4.79102 4.37313 6.7092 5.07971 8.43353C5.17813 8.67374 5.40396 8.82948 5.65383 8.82948H6.09319C6.24128 8.82948 6.37037 8.93489 6.40629 9.08515L6.97191 11.4515C7.08985 11.9449 7.51372 12.291 8 12.291C8.48628 12.291 8.91015 11.9449 9.02809 11.4515L9.59371 9.08515C9.62963 8.93489 9.75872 8.82948 9.90681 8.82948H10.3462C10.596 8.82948 10.8219 8.67374 10.9203 8.43353C11.6269 6.7092 10.4175 4.79102 8.62382 4.79102Z" fill="#3D7DC3" stroke="#3D7DC3" stroke-width="0.9375"/>
  <path d="M9.5625 3.22852C9.5625 4.09146 8.86294 4.79102 8 4.79102C7.13706 4.79102 6.4375 4.09146 6.4375 3.22852C6.4375 2.36557 7.13706 1.66602 8 1.66602C8.86294 1.66602 9.5625 2.36557 9.5625 3.22852Z" fill="#3D7DC3" stroke="#3D7DC3" stroke-width="0.9375"/>
  <path d="M12.375 12.291C12.375 13.3265 10.4162 14.166 8 14.166C5.58375 14.166 3.625 13.3265 3.625 12.291" stroke="#3D7DC3" stroke-width="0.9375" stroke-linecap="round"/>
</svg>