<svg width="16" height="16" viewBox="0 0 16 16" fill="none" xmlns="http://www.w3.org/2000/svg">
<path d="M1.33398 3.99951L5.94267 6.61082C7.64172 7.57352 8.35959 7.57352 10.0586 6.61082L14.6673 3.99951" stroke="#141B34" stroke-linejoin="round"/>
<path d="M1.34449 8.98342C1.38808 11.0271 1.40987 12.049 2.16396 12.8059C2.91804 13.5629 3.96754 13.5892 6.06654 13.642C7.36019 13.6745 8.64111 13.6745 9.93477 13.642C12.0338 13.5892 13.0833 13.5629 13.8374 12.8059C14.5914 12.049 14.6132 11.0271 14.6568 8.98342C14.6708 8.3263 14.6708 7.67306 14.6568 7.01594C14.6132 4.97225 14.5914 3.9504 13.8374 3.19345C13.0833 2.4365 12.0338 2.41013 9.93477 2.35739C8.64111 2.32488 7.36019 2.32488 6.06653 2.35738C3.96754 2.41012 2.91804 2.43648 2.16395 3.19344C1.40987 3.95039 1.38808 4.97224 1.34449 7.01593C1.33048 7.67305 1.33048 8.3263 1.34449 8.98342Z" stroke="#141B34" stroke-linejoin="round"/>
</svg>
