<svg width="20" height="20" viewBox="0 0 20 20" fill="none" xmlns="http://www.w3.org/2000/svg">
<path d="M16.6663 18.3335V14.1669C16.6663 12.5955 16.6663 11.8099 16.1782 11.3217C15.69 10.8335 14.9044 10.8335 13.333 10.8335L9.99967 18.3335L6.66634 10.8335C5.09499 10.8335 4.30932 10.8335 3.82116 11.3217C3.33301 11.8099 3.33301 12.5955 3.33301 14.1669V18.3335" stroke="#141B34" stroke-width="1.25" stroke-linecap="round" stroke-linejoin="round"/>
<path d="M9.99935 12.5L9.58268 15.8333L9.99935 17.0833L10.416 15.8333L9.99935 12.5ZM9.99935 12.5L9.16602 10.8333H10.8327L9.99935 12.5Z" stroke="#141B34" stroke-width="1.25" stroke-linecap="round" stroke-linejoin="round"/>
<path d="M12.9163 5.41676V4.58343C12.9163 2.9726 11.6105 1.66676 9.99967 1.66676C8.38884 1.66676 7.08301 2.9726 7.08301 4.58343V5.41676C7.08301 7.02759 8.38884 8.33343 9.99967 8.33343C11.6105 8.33343 12.9163 7.02759 12.9163 5.41676Z" stroke="#141B34" stroke-width="1.25" stroke-linecap="round" stroke-linejoin="round"/>
</svg>
