<svg width="14" height="14" viewBox="0 0 14 14" fill="none" xmlns="http://www.w3.org/2000/svg">
<path d="M7 12.25C6.27356 12.25 5.59106 12.1123 4.9525 11.837C4.31394 11.5617 3.75842 11.1876 3.28592 10.7147C2.81342 10.2418 2.43931 9.68644 2.16358 9.04867C1.88786 8.41089 1.75 7.72858 1.75 7.00175C1.75 6.27492 1.88786 5.59242 2.16358 4.95425C2.43931 4.31608 2.81342 3.76017 3.28592 3.2865C3.75842 2.81283 4.31394 2.43853 4.9525 2.16358C5.59106 1.88864 6.27356 1.75078 7 1.75C7.504 1.75 7.99031 1.82039 8.45892 1.96117C8.92753 2.10194 9.37339 2.30417 9.7965 2.56783C9.87506 2.61567 9.92697 2.67983 9.95225 2.76033C9.97714 2.84161 9.96353 2.91647 9.91142 2.98492C9.85892 3.05375 9.78989 3.09458 9.70433 3.10742C9.61878 3.12025 9.53925 3.10275 9.46575 3.05492C9.09475 2.81925 8.70042 2.64017 8.28275 2.51767C7.86508 2.39517 7.4375 2.33372 7 2.33333C5.69722 2.33333 4.59375 2.78542 3.68958 3.68958C2.78542 4.59375 2.33333 5.69722 2.33333 7C2.33333 8.30278 2.78542 9.40625 3.68958 10.3104C4.59375 11.2146 5.69722 11.6667 7 11.6667C7.30644 11.6667 7.60706 11.6379 7.90183 11.5803C8.19661 11.5228 8.48419 11.4364 8.76458 11.3213C8.84742 11.2949 8.93103 11.2904 9.01542 11.3079C9.10019 11.3258 9.16456 11.3709 9.2085 11.4432C9.24739 11.5105 9.25517 11.5842 9.23183 11.6643C9.2085 11.7444 9.15483 11.7995 9.07083 11.8294C8.74028 11.9706 8.40194 12.076 8.05583 12.1456C7.70972 12.2152 7.35778 12.25 7 12.25ZM11.375 9.625H9.91667C9.83383 9.625 9.76461 9.597 9.709 9.541C9.65339 9.485 9.62539 9.41558 9.625 9.33275C9.62461 9.24992 9.65261 9.18069 9.709 9.12508C9.76539 9.06947 9.83461 9.04167 9.91667 9.04167H11.375V7.58333C11.375 7.5005 11.403 7.43128 11.459 7.37567C11.515 7.32006 11.5844 7.29206 11.6672 7.29167C11.7501 7.29128 11.8193 7.31928 11.8749 7.37567C11.9305 7.43206 11.9583 7.50128 11.9583 7.58333V9.04167H13.4167C13.4995 9.04167 13.5687 9.06967 13.6243 9.12567C13.6799 9.18167 13.7079 9.25108 13.7083 9.33392C13.7087 9.41675 13.6807 9.48597 13.6243 9.54158C13.5679 9.59719 13.4987 9.625 13.4167 9.625H11.9583V11.0833C11.9583 11.1662 11.9303 11.2354 11.8743 11.291C11.8183 11.3466 11.7489 11.3746 11.6661 11.375C11.5833 11.3754 11.514 11.3474 11.4584 11.291C11.4028 11.2346 11.375 11.1654 11.375 11.0833V9.625ZM6.16058 8.45367L11.6317 2.98083C11.6861 2.92639 11.753 2.89722 11.8323 2.89333C11.9117 2.88944 11.9822 2.91861 12.0441 2.98083C12.1059 3.04306 12.137 3.11189 12.1374 3.18733C12.1378 3.26278 12.1067 3.33142 12.0441 3.39325L6.49133 8.9495C6.39683 9.04361 6.28678 9.09067 6.16117 9.09067C6.03556 9.09067 5.92569 9.04361 5.83158 8.9495L4.29275 7.41067C4.23831 7.35622 4.20914 7.28914 4.20525 7.20942C4.20136 7.13047 4.23053 7.05989 4.29275 6.99767C4.35497 6.93544 4.42381 6.90433 4.49925 6.90433C4.57469 6.90433 4.64353 6.93544 4.70575 6.99767L6.16058 8.45367Z" fill="black" stroke="black" stroke-width="0.5"/>
</svg>
