<svg width="25" height="25" viewBox="0 0 25 25" fill="none" xmlns="http://www.w3.org/2000/svg">
<path d="M9.60742 5.94824C10.2054 4.19824 12.623 4.14506 13.332 5.78906L13.3926 5.94922L14.1992 8.30859C14.3842 8.84982 14.6826 9.34581 15.0752 9.76172C15.4678 10.1776 15.9459 10.5039 16.4756 10.7197L16.6924 10.8008L19.0518 11.6074C20.8018 12.2054 20.8549 14.623 19.2119 15.332L19.0518 15.3916L16.6924 16.1992C16.151 16.384 15.6553 16.6826 15.2393 17.0752C14.8233 17.4677 14.4962 17.945 14.2803 18.4746L14.1992 18.6914L13.3936 21.0518C12.7956 22.8018 10.3769 22.8549 9.66895 21.2119L9.60742 21.0518L8.80078 18.6924C8.61598 18.151 8.31739 17.6553 7.9248 17.2393C7.53226 16.8233 7.05505 16.4962 6.52539 16.2803L6.30957 16.1992L3.94922 15.3926C2.19825 14.7946 2.14509 12.377 3.78906 11.6689L3.94922 11.6074L6.30957 10.8008C6.85061 10.6158 7.34593 10.3173 7.76172 9.9248C8.17751 9.5323 8.50394 9.0549 8.71973 8.52539L8.80078 8.30859L9.60742 5.94824ZM10.6943 8.9541C10.4128 9.77932 9.95421 10.5329 9.35156 11.1631C8.74887 11.7932 8.01599 12.2845 7.2041 12.6025L6.9541 12.6943L4.59375 13.5L6.9541 14.3057C7.7794 14.5873 8.53387 15.0457 9.16406 15.6484C9.79415 16.2511 10.2855 16.984 10.6035 17.7959L10.6943 18.0459L11.5 20.4062L12.3057 18.0459C12.5872 17.2207 13.0458 16.4671 13.6484 15.8369C14.2511 15.2068 14.9841 14.7155 15.7959 14.3975L16.0459 14.3066L18.4062 13.5L16.0459 12.6943C15.2207 12.4127 14.4671 11.9542 13.8369 11.3516C13.2068 10.7489 12.7155 10.016 12.3975 9.2041L12.3066 8.9541L11.5 6.59375L10.6943 8.9541ZM19.5 2.5C19.6871 2.5 19.8706 2.55238 20.0293 2.65137C20.188 2.75032 20.3161 2.89167 20.3984 3.05957L20.4463 3.17676L20.7959 4.20312L21.8232 4.55273C22.0106 4.61639 22.1746 4.73458 22.2949 4.8916C22.4152 5.04867 22.4863 5.23812 22.499 5.43555C22.5117 5.63315 22.4656 5.8307 22.3662 6.00195C22.2668 6.17311 22.1192 6.3114 21.9414 6.39844L21.8232 6.44629L20.7969 6.7959L20.4473 7.82324C20.3835 8.01049 20.2655 8.17468 20.1084 8.29492C19.9511 8.41522 19.7611 8.48649 19.5635 8.49902C19.366 8.51149 19.1692 8.46465 18.998 8.36523C18.8271 8.26587 18.6895 8.11803 18.6025 7.94043L18.5537 7.82324L18.2041 6.79688L17.1768 6.44727C16.9895 6.38358 16.8254 6.26542 16.7051 6.1084C16.5848 5.95133 16.5137 5.76188 16.501 5.56445C16.4883 5.36685 16.5344 5.1693 16.6338 4.99805C16.7332 4.82683 16.8818 4.68861 17.0596 4.60156L17.1768 4.55371L18.2031 4.2041L18.5527 3.17676C18.6202 2.97923 18.7482 2.80791 18.918 2.68652C19.0878 2.56514 19.2913 2.4999 19.5 2.5Z" fill="url(#paint0_linear_7495_11021)"/>
<path d="M9.60742 5.94824C10.2054 4.19824 12.623 4.14506 13.332 5.78906L13.3926 5.94922L14.1992 8.30859C14.3842 8.84982 14.6826 9.34581 15.0752 9.76172C15.4678 10.1776 15.9459 10.5039 16.4756 10.7197L16.6924 10.8008L19.0518 11.6074C20.8018 12.2054 20.8549 14.623 19.2119 15.332L19.0518 15.3916L16.6924 16.1992C16.151 16.384 15.6553 16.6826 15.2393 17.0752C14.8233 17.4677 14.4962 17.945 14.2803 18.4746L14.1992 18.6914L13.3936 21.0518C12.7956 22.8018 10.3769 22.8549 9.66895 21.2119L9.60742 21.0518L8.80078 18.6924C8.61598 18.151 8.31739 17.6553 7.9248 17.2393C7.53226 16.8233 7.05505 16.4962 6.52539 16.2803L6.30957 16.1992L3.94922 15.3926C2.19825 14.7946 2.14509 12.377 3.78906 11.6689L3.94922 11.6074L6.30957 10.8008C6.85061 10.6158 7.34593 10.3173 7.76172 9.9248C8.17751 9.5323 8.50394 9.0549 8.71973 8.52539L8.80078 8.30859L9.60742 5.94824ZM10.6943 8.9541C10.4128 9.77932 9.95421 10.5329 9.35156 11.1631C8.74887 11.7932 8.01599 12.2845 7.2041 12.6025L6.9541 12.6943L4.59375 13.5L6.9541 14.3057C7.7794 14.5873 8.53387 15.0457 9.16406 15.6484C9.79415 16.2511 10.2855 16.984 10.6035 17.7959L10.6943 18.0459L11.5 20.4062L12.3057 18.0459C12.5872 17.2207 13.0458 16.4671 13.6484 15.8369C14.2511 15.2068 14.9841 14.7155 15.7959 14.3975L16.0459 14.3066L18.4062 13.5L16.0459 12.6943C15.2207 12.4127 14.4671 11.9542 13.8369 11.3516C13.2068 10.7489 12.7155 10.016 12.3975 9.2041L12.3066 8.9541L11.5 6.59375L10.6943 8.9541ZM19.5 2.5C19.6871 2.5 19.8706 2.55238 20.0293 2.65137C20.188 2.75032 20.3161 2.89167 20.3984 3.05957L20.4463 3.17676L20.7959 4.20312L21.8232 4.55273C22.0106 4.61639 22.1746 4.73458 22.2949 4.8916C22.4152 5.04867 22.4863 5.23812 22.499 5.43555C22.5117 5.63315 22.4656 5.8307 22.3662 6.00195C22.2668 6.17311 22.1192 6.3114 21.9414 6.39844L21.8232 6.44629L20.7969 6.7959L20.4473 7.82324C20.3835 8.01049 20.2655 8.17468 20.1084 8.29492C19.9511 8.41522 19.7611 8.48649 19.5635 8.49902C19.366 8.51149 19.1692 8.46465 18.998 8.36523C18.8271 8.26587 18.6895 8.11803 18.6025 7.94043L18.5537 7.82324L18.2041 6.79688L17.1768 6.44727C16.9895 6.38358 16.8254 6.26542 16.7051 6.1084C16.5848 5.95133 16.5137 5.76188 16.501 5.56445C16.4883 5.36685 16.5344 5.1693 16.6338 4.99805C16.7332 4.82683 16.8818 4.68861 17.0596 4.60156L17.1768 4.55371L18.2031 4.2041L18.5527 3.17676C18.6202 2.97923 18.7482 2.80791 18.918 2.68652C19.0878 2.56514 19.2913 2.4999 19.5 2.5Z" stroke="url(#paint1_linear_7495_11021)"/>
<defs>
<linearGradient id="paint0_linear_7495_11021" x1="2.59473" y1="12.4528" x2="22.5014" y2="12.4528" gradientUnits="userSpaceOnUse">
<stop stop-color="#69499F"/>
<stop offset="1" stop-color="#FCAE42"/>
</linearGradient>
<linearGradient id="paint1_linear_7495_11021" x1="2.59473" y1="12.4528" x2="22.5014" y2="12.4528" gradientUnits="userSpaceOnUse">
<stop stop-color="#69499F"/>
<stop offset="1" stop-color="#FCAE42"/>
</linearGradient>
</defs>
</svg>
