<svg width="25" height="24" viewBox="0 0 25 24" fill="none" xmlns="http://www.w3.org/2000/svg">
<path d="M11.9922 1.98438C12.2046 1.61968 12.7117 1.59693 12.9609 1.91602L13.0078 1.98438L15.6406 6.50586C15.8518 6.86832 16.1884 7.13779 16.583 7.26758L16.7549 7.31445L21.8691 8.42188C22.2813 8.51132 22.4596 8.98666 22.2334 9.32227L22.1826 9.3877L18.6963 13.2891C18.4167 13.602 18.2632 14.0054 18.2617 14.4209L18.2705 14.5986L18.7979 19.8047C18.8404 20.2247 18.4431 20.5416 18.0537 20.4297L17.9766 20.4014L13.1885 18.291C12.8047 18.122 12.3739 18.1007 11.9785 18.2275L11.8115 18.291L7.02344 20.4014C6.63708 20.5716 6.21301 20.2916 6.19922 19.8867L6.20215 19.8047L6.72949 14.5986C6.77163 14.1815 6.65872 13.7655 6.41602 13.4287L6.30371 13.2891L2.81738 9.3877C2.53626 9.07302 2.67139 8.58386 3.05176 8.44531L3.13086 8.42188L8.24512 7.31445C8.65482 7.22568 9.01538 6.99012 9.26074 6.65527L9.35938 6.50586L11.9922 1.98438Z" fill="#FDE7E2" stroke="#94B5ED" stroke-width="1.12"/>
<path fill-rule="evenodd" clip-rule="evenodd" d="M10.105 10.1992H10.0996H10.105Z" fill="#FDE7E2"/>
<path fill-rule="evenodd" clip-rule="evenodd" d="M14.8996 10.1992H14.8942H14.8996Z" fill="#FDE7E2"/>
<path d="M10.105 10.1992H10.0996M14.8996 10.1992H14.8942" stroke="#94B5ED" stroke-width="1.2" stroke-linecap="round" stroke-linejoin="round"/>
<path d="M10.6992 13.8008H14.2992" stroke="#94B5ED" stroke-width="0.6" stroke-linecap="round" stroke-linejoin="round"/>
</svg>
