<svg width="28" height="33" viewBox="0 0 28 33" fill="none" xmlns="http://www.w3.org/2000/svg">
<path d="M0.314423 4.77539C0.383593 4.77539 0.713165 4.66663 1.3119 4.65802C1.38068 4.65724 1.43584 4.60013 1.43483 4.53127C1.43389 4.4632 1.37825 4.40842 1.30995 4.40842C1.03256 4.40842 0.648533 4.44754 0.287116 4.52892C0.141892 4.56178 0.166382 4.77539 0.314423 4.77539Z" fill="#606062"/>
<path d="M5.82705 23.5549L9.40398 1.20631C9.50108 0.602253 10.0112 0.176598 10.5269 0.261103L21.9327 2.08814C22.4803 2.17812 22.798 2.7634 22.7064 3.33928L20.8802 14.7616C20.5865 14.6247 20.2364 14.5175 19.9208 14.4502L21.4259 4.90655C21.5784 3.94257 21.102 3.16637 20.4801 3.06387C19.4643 2.89877 17.415 2.56544 17.5432 2.58578C17.4939 2.57717 17.4427 2.60143 17.4159 2.64525C17.3817 2.70315 16.5608 4.05602 15.3701 3.96447C14.5345 3.89953 13.8282 3.13507 13.5702 2.01615C13.5589 1.96686 13.5189 1.9293 13.4687 1.92069L11.5619 1.61005C10.8081 1.48408 10.2179 2.27593 10.0932 3.05917L7.0192 22.5345C6.87531 23.4414 7.29924 24.2685 7.96504 24.3772L16.8822 25.831C17.6422 25.9578 18.2282 25.1558 18.3514 24.3819L19.4142 17.645C19.6979 17.8492 20.0033 18.0354 20.3319 18.1974C19.0582 26.1198 19.1416 25.7473 19.0491 25.9734C18.8103 26.3897 18.4833 26.705 18.0065 26.6338L6.60606 24.806C6.07978 24.7192 5.73003 24.1574 5.82705 23.5549ZM23.0235 4.95976L22.2152 11.3532C22.2075 11.4158 22.154 11.4612 22.0929 11.4612C22.0882 11.4612 22.0828 11.4612 22.0776 11.4604C22.0103 11.4518 21.9621 11.39 21.9708 11.3227L22.779 4.92924C22.7998 4.76023 23.0438 4.80249 23.0235 4.95976ZM17.5412 15.163C17.5609 15.7522 18.376 16.7702 18.8718 17.2177C18.8911 17.2357 19.164 17.4658 19.187 17.4838L18.1046 24.3428C18.0006 25.0001 17.5175 25.68 16.9227 25.5845L8.00549 24.1307C7.47483 24.0439 7.14314 23.3452 7.26607 22.5737L10.34 3.09829C10.435 2.50128 10.8511 1.84793 11.4132 1.84793C11.5247 1.84793 11.4324 1.84479 13.3468 2.15386C13.9335 4.47933 16.173 5.01922 17.5851 2.84556L20.4391 3.31034C20.6175 3.33929 20.7706 3.44257 20.8944 3.58967C21.1818 3.93161 21.2462 4.43943 21.1791 4.86743L19.6758 14.4001C18.8921 14.2859 17.5091 14.3766 17.5412 15.163ZM22.4144 28.3654L21.5652 26.5548C21.5363 26.493 21.5627 26.4194 21.6243 26.3913C21.6854 26.3631 21.7591 26.3889 21.7885 26.4507L22.6376 28.2606C22.7068 28.4084 22.4837 28.5125 22.4144 28.3654ZM6.56561 25.0525L17.9685 26.8811C18.2572 26.9233 18.5335 26.8498 18.7719 26.6917C19.7618 26.4961 20.1499 25.6072 20.1533 25.5979C20.1628 25.5728 20.1612 25.5462 20.154 25.5212C20.2633 25.2504 20.2043 25.3404 20.708 22.2787C20.8698 22.5126 21.0571 22.7348 21.2782 22.9328C21.3997 23.0423 21.5678 22.8577 21.4449 22.7474C21.0815 22.4211 20.9331 22.1637 20.8405 22.0385C20.3351 21.2529 20.1776 20.3116 20.4552 19.328C20.6572 18.6082 20.8186 18.4517 20.9191 18.447C21.0531 18.4407 21.0841 18.2545 20.9581 18.206C19.9043 17.7991 18.872 17.0691 18.2343 16.1066C18.0933 15.8883 17.8002 15.4353 17.791 15.1536C17.7783 14.8492 18.2041 14.7209 18.388 14.6802C18.7665 14.5949 19.1751 14.5863 19.6009 14.645C20.7974 14.8109 21.8335 15.5128 22.7141 16.3539C25.4064 18.8953 25.3505 21.4195 24.0399 22.9516C23.4361 23.6589 22.6444 24.2567 21.7518 24.6785C21.6038 24.7481 21.7076 24.975 21.8581 24.9046C22.8997 24.4124 24.017 23.5666 24.6141 22.5713L25.0482 23.6253C24.6709 23.9735 24.2661 24.3287 23.8253 24.691C23.8704 24.6879 23.9153 24.7012 23.9396 24.7434L24.9606 26.5172C25.0077 26.5994 24.948 26.7011 24.8538 26.7011C24.8113 26.7011 24.7696 26.6792 24.747 26.6393L23.7259 24.8663C23.7111 24.8397 23.7103 24.8107 23.7154 24.7833C23.0853 25.2943 22.3931 25.8123 21.6271 26.3224C20.9749 26.7567 20.3358 27.1409 19.7182 27.4844C20.083 28.1972 20.3721 28.9483 20.573 29.7222C20.5898 29.7879 20.5505 29.8552 20.4845 29.8724C20.4224 29.8896 20.3523 29.8529 20.3344 29.7848C20.1384 29.0289 19.8565 28.2958 19.5007 27.6002C19.2048 27.7614 18.9153 27.9116 18.6306 28.0556C18.3348 27.6072 17.9882 27.2011 17.5978 26.8678C17.5461 26.8224 17.4675 26.8287 17.4217 26.8819C17.3773 26.9343 17.3832 27.0125 17.4358 27.0571C17.8008 27.3693 18.127 27.748 18.4061 28.1651C18.2731 28.2308 18.1375 28.2997 18.0081 28.3607C17.6934 28.5086 17.5692 28.8748 17.7225 29.1839L18.9782 31.7159C19.1448 32.0523 19.5702 32.1932 19.9031 32.0156C22.5725 30.5962 25.205 28.9522 27.7546 27.0673C28.0091 26.8787 28.0727 26.5384 27.91 26.2637C27.3779 25.3678 26.8459 24.4719 26.3138 23.5752C26.0961 23.2082 25.5808 23.1292 25.2746 23.4195C25.2652 23.4281 25.2543 23.4375 25.2449 23.4461C24.6627 22.0651 24.8239 22.382 24.7589 22.3029C25.2711 21.2709 25.3028 20.0518 24.8126 18.8319C24.2497 17.4392 23.0262 16.1489 21.8213 15.3007L23.6868 3.63506C23.7902 2.99501 23.391 2.39408 22.7999 2.30018L22.677 2.27984C22.6468 2.2415 22.6224 2.19769 22.5878 2.16247C22.4156 1.99033 22.2029 1.87922 21.9727 1.84167L10.5664 0.0138435C9.91179 -0.0910072 9.2762 0.426983 9.15719 1.16719L5.58026 23.5149C5.46172 24.2536 5.90365 24.9429 6.56561 25.0525Z" fill="#606062"/>
<path d="M14.4822 2.31476C14.4828 2.31476 14.4837 2.31476 14.4842 2.31476C14.6715 2.31476 16.495 2.61914 16.5344 2.61914C16.687 2.61914 16.7052 2.39536 16.5543 2.3711C14.5544 2.04482 14.4705 2.06203 14.4427 2.06907C14.3754 2.08472 14.3252 2.1528 14.3407 2.22009C14.3564 2.28738 14.4139 2.32806 14.4822 2.31476Z" fill="#606062"/>
<path d="M10.6603 10.7058C10.6666 10.7073 10.6727 10.7026 10.6737 10.6964L10.9134 9.21282C10.9144 9.20577 10.9204 9.20186 10.9269 9.20265L12.3861 9.43895C12.3926 9.43973 12.3987 9.43504 12.3997 9.42878L12.5224 8.6698C12.5233 8.66354 12.5189 8.65727 12.5126 8.65649L10.2464 8.2903C10.24 8.28874 10.2339 8.29344 10.233 8.2997L9.86687 10.5657C9.86577 10.5727 9.87015 10.5782 9.87665 10.5798L10.6603 10.7058Z" fill="#606062"/>
<path d="M9.82336 16.0311C9.81695 16.0296 9.81249 16.0241 9.81358 16.017L10.0475 14.5695C10.0485 14.5632 10.0441 14.557 10.0378 14.5562L9.25412 14.4294C9.24763 14.4286 9.24168 14.4326 9.24059 14.4388L8.87854 16.6798C8.87761 16.686 8.88199 16.6923 8.88833 16.6931L11.1546 17.0593C11.1609 17.0608 11.167 17.0561 11.1679 17.0499L11.2923 16.2799C11.2933 16.2737 11.2891 16.2674 11.2826 16.2666L9.82336 16.0311Z" fill="#606062"/>
<path d="M16.8763 15.673L16.6424 17.1205C16.6413 17.1276 16.6354 17.1315 16.6289 17.1307L15.1312 16.8889C15.1247 16.8874 15.1187 16.8921 15.1176 16.8983L14.9933 17.6683C14.9922 17.6745 14.9966 17.6808 15.0031 17.6816L17.2693 18.0478C17.2757 18.0485 17.2816 18.0446 17.2828 18.0376L17.6447 15.7974C17.6458 15.7904 17.6414 15.7849 17.635 15.7833L16.8899 15.6628C16.8835 15.662 16.8774 15.6667 16.8763 15.673Z" fill="#606062"/>
<path d="M18.6271 9.64305L16.3609 9.27686C16.3545 9.27608 16.3484 9.27999 16.3475 9.28703L16.2248 10.046C16.2237 10.0523 16.2281 10.0585 16.2345 10.0593L17.7323 10.3011C17.7387 10.3027 17.7431 10.3081 17.7421 10.3152L17.5024 11.7987C17.5013 11.805 17.5057 11.8112 17.5121 11.812L18.2572 11.9325C18.2635 11.9333 18.2697 11.9294 18.2707 11.9231L18.6369 9.65635C18.638 9.65009 18.6335 9.64383 18.6271 9.64305Z" fill="#606062"/>
<path d="M13.6596 10.7256C13.6698 10.6575 13.6141 10.5808 13.5464 10.5699L11.8045 10.2882C11.7708 10.2835 11.7279 10.2913 11.7005 10.3109C11.6732 10.3305 11.6498 10.368 11.6445 10.4009L11.3577 12.1763C11.3474 12.2436 11.4031 12.321 11.4708 12.332L13.2166 12.6137C13.2219 12.6145 13.2278 12.6152 13.2342 12.6152C13.2635 12.6152 13.2966 12.6051 13.3191 12.5886C13.3453 12.5691 13.3673 12.5331 13.3727 12.501L13.6596 10.7264V10.7256Z" fill="#606062"/>
<path d="M13.0375 13.7135L11.2962 13.4318C11.2625 13.4256 11.2196 13.435 11.1923 13.4545C11.165 13.4741 11.1416 13.5116 11.1362 13.5445L10.8562 15.2769C10.8459 15.3449 10.902 15.4216 10.9693 15.4318L12.7166 15.7143C12.7215 15.715 12.7268 15.7158 12.7317 15.7158C12.7951 15.7158 12.8609 15.6634 12.8712 15.6008L13.1507 13.87C13.1556 13.8371 13.1468 13.7972 13.1288 13.7706C13.1093 13.7425 13.0712 13.7182 13.0375 13.7135Z" fill="#606062"/>
<path d="M14.5251 12.8242L16.3171 13.1137C16.3225 13.1152 16.3284 13.1152 16.3337 13.1152C16.3972 13.1152 16.4625 13.0628 16.4728 13.001L16.7596 11.2264C16.7596 11.2264 16.7596 11.2256 16.7596 11.2248C16.7698 11.1575 16.7138 11.0808 16.6464 11.0699L14.8533 10.7804C14.788 10.7718 14.7099 10.8273 14.6987 10.8938L14.4119 12.6692C14.4016 12.7373 14.4577 12.814 14.5251 12.8242Z" fill="#606062"/>
<path d="M15.2826 15.5297L15.185 16.1369C15.1748 16.2042 15.231 16.2809 15.2982 16.2918L16.0421 16.4123C16.0475 16.4131 16.0533 16.4131 16.0587 16.4131C16.1221 16.4131 16.1879 16.3607 16.1982 16.2988L16.4342 14.8372C16.4445 14.7707 16.3903 14.694 16.3235 14.6815L14.9477 14.428L15.0519 13.7801C15.0592 13.7473 15.0509 13.7034 15.0319 13.6753C15.0124 13.6471 14.9738 13.6221 14.9397 13.6166L14.1749 13.493C14.112 13.4836 14.0304 13.5407 14.0193 13.6072L13.8963 14.3717C13.8865 14.4389 13.9426 14.5164 14.01 14.5266L14.6616 14.6322L14.5758 15.1627L13.8729 15.0493C13.8046 15.0406 13.729 15.0962 13.7178 15.1635L13.5944 15.928C13.5846 15.9953 13.6407 16.0727 13.7081 16.0829L14.471 16.2065C14.4768 16.2073 14.4831 16.2081 14.4894 16.2081C14.5183 16.2081 14.5505 16.1987 14.5724 16.183C14.5998 16.1635 14.6232 16.1259 14.6285 16.0931L14.7332 15.4413L15.2826 15.5297Z" fill="#606062"/>
<path d="M15.6491 6.17284L20.106 6.80977C20.1119 6.81055 20.1177 6.81055 20.1236 6.81055C20.185 6.81055 20.2382 6.76595 20.247 6.70336C20.2567 6.63528 20.2094 6.5719 20.1411 6.56251L15.6843 5.92559C15.6131 5.91698 15.5526 5.96315 15.5433 6.032C15.5336 6.10008 15.5808 6.16345 15.6491 6.17284Z" fill="#606062"/>
<path d="M0.207955 6.99328C1.41333 6.70221 2.59766 6.48859 3.72682 6.36027C3.8884 6.34149 3.86579 6.0958 3.69858 6.11145C2.7162 6.22413 1.69282 6.39861 0.650435 6.63335C1.46356 6.16466 2.3396 5.71319 3.07519 5.58799C3.19812 5.56765 3.36642 5.5387 3.51908 5.39629C3.65272 5.27031 3.72244 5.106 3.73269 4.89395C3.79224 3.60133 3.45468 2.5411 3.10594 1.58416C3.11126 1.56303 3.15563 1.5239 3.16838 1.52077C3.92791 1.77194 4.37274 2.40338 4.95168 2.92528C5.0473 3.01057 5.21506 3.05987 5.37851 2.91668C5.44729 2.85643 5.48774 2.78523 5.52389 2.71637C5.89603 2.00512 6.18671 1.30873 6.39015 0.639729L6.55603 3.2946C6.56088 3.36268 6.62184 3.41589 6.68866 3.41119C6.75744 3.40728 6.80963 3.34781 6.80571 3.27896L6.61112 0.169475C6.60674 0.0920115 6.55016 0.0333242 6.47356 0.0254998C6.3853 0.0184574 6.28382 0.085752 6.2594 0.181212C5.93922 1.42845 5.29573 2.65769 5.21459 2.72811C5.16874 2.76802 5.14292 2.76176 5.11897 2.73985C4.54833 2.22499 4.07251 1.55598 3.24639 1.28369C3.05 1.21953 2.79812 1.45505 2.86886 1.65067C3.22542 2.64204 3.54099 3.63498 3.48301 4.88221C3.47855 4.97454 3.46008 5.10834 3.34788 5.21397C3.25031 5.30474 3.14006 5.32352 3.03325 5.3423C2.12983 5.49488 1.09479 6.07703 0.111869 6.65996C-0.0891445 6.77889 0.00388998 7.04101 0.207955 6.99328Z" fill="#606062"/>
<path d="M4.73453 1.46582C4.735 1.46582 4.73602 1.46582 4.73649 1.46582C4.8048 1.46582 4.86035 1.41105 4.86137 1.34297C4.86669 0.998692 4.83649 0.653633 4.77162 0.318741C4.73978 0.155207 4.49526 0.204502 4.52671 0.365688C4.58821 0.684149 4.61693 1.01199 4.61161 1.33906C4.61059 1.40792 4.66576 1.46426 4.73453 1.46582Z" fill="#606062"/>
<path d="M4.70565 22.6263C4.65643 22.5778 4.5774 22.5786 4.52904 22.6271L2.88964 24.2882C2.84081 24.3375 2.84183 24.4166 2.89058 24.4651C2.93972 24.5136 3.01874 24.5128 3.06718 24.4635L4.70666 22.8031C4.75541 22.7538 4.75439 22.6748 4.70565 22.6263Z" fill="#606062"/>
<path d="M5.50796 25.0931L5.61773 27.424C5.6211 27.4913 5.67626 27.543 5.74262 27.543C5.74449 27.543 5.74645 27.543 5.74841 27.543C5.81718 27.5398 5.87039 27.4812 5.86749 27.4123L5.75772 25.0814C5.74942 24.9139 5.50099 24.9296 5.50796 25.0931Z" fill="#606062"/>
<path d="M4.40685 24.8815L3.44982 26.16C3.40835 26.2148 3.41954 26.293 3.47518 26.3345C3.53065 26.376 3.6089 26.3642 3.64982 26.3095L4.60684 25.0317C4.64831 24.9761 4.63705 24.8979 4.58149 24.8564C4.5268 24.8157 4.44832 24.8267 4.40685 24.8815Z" fill="#606062"/>
</svg>
