<svg width="61" height="59" viewBox="0 0 61 59" fill="none" xmlns="http://www.w3.org/2000/svg">
<g opacity="0.1">
<path d="M48.2066 47.7717C47.3521 49.4682 45.2587 50.1389 43.5301 49.2901C41.7925 48.432 41.0774 46.3605 41.9319 44.664C42.7864 42.9675 44.8815 42.2873 46.6084 43.1456C48.3442 44.0038 49.0593 46.0752 48.2066 47.7717ZM41.6441 50.6223C40.5536 49.5071 39.3809 47.6337 39.3613 45.6803C39.3416 43.9438 40.3534 42.3664 41.8729 41.7439C42.15 41.6071 42.386 42.0494 42.0606 42.1978C40.7306 42.7401 39.8386 44.1418 39.8582 45.6697C39.8779 47.1798 40.6913 48.9447 42.0016 50.2769C42.2233 50.5223 41.8622 50.8382 41.6441 50.6223ZM34.531 47.5641C34.3612 52.0935 34.009 55.9697 31.4044 57.5473C30.8145 57.9021 30.1119 58.1401 29.4594 58.2085C28.5299 57.3598 26.8781 56.4468 26.483 54.405C26.2309 53.1538 26.3328 51.7523 26.6868 50.6677C26.6868 50.6486 26.6868 50.6382 26.6957 50.6285C26.7458 50.5349 27.1534 48.8679 28.596 47.1914C28.6997 47.0883 28.6675 46.885 28.5174 46.8198C26.3239 45.6687 23.7443 45.9257 21.7922 47.5243C20.026 46.4238 17.7914 46.3394 15.8482 47.5148C14.4521 46.19 12.4356 46.1721 10.9304 47.3167L10.6873 47.3051C10.2618 46.9776 9.66118 46.6785 9.17136 46.5228C10.3315 28.9609 7.053 21.8507 8.22748 12.0413C8.70658 8.19964 9.25896 6.81957 9.53783 5.74877C10.6194 2.16095 11.0269 1.59963 11.1181 1.53348C12.5304 1.42265 13.8461 1.98039 14.79 2.95109C14.8829 3.04762 15.0349 3.04583 15.1242 2.95109C16.9423 1.07405 20.0421 0.805904 22.2355 2.69188C22.3428 2.78305 22.4947 2.7598 22.5734 2.65791C23.9857 0.839863 26.5688 0.748688 28.099 2.27892C28.217 2.39691 28.3797 2.35043 28.4512 2.25211C29.4898 0.838074 31.5581 0.627144 32.7416 2.37368C32.8327 2.50776 33.0526 2.51311 33.1384 2.35223C33.1456 2.33971 33.782 1.18309 35.0905 1.05438C35.8825 0.972145 36.4885 1.31538 36.7888 1.53168C33.9375 6.26718 33.0115 10.5861 32.9811 14.7508L30.6482 10.7685C30.2371 10.0695 29.5095 9.60652 28.5924 9.60652L27.2714 9.62618C27.1015 9.62797 26.9889 9.80674 27.0658 9.96405L33.3619 22.4689C33.3851 22.7531 33.4102 23.0533 33.4352 23.3491L29.8134 21.5979L29.615 16.4579C29.6096 16.3231 29.4845 16.2062 29.3307 16.2389L26.5634 16.8539C26.5402 15.5219 26.5223 13.6109 26.5652 13.3981C26.6278 13.0924 26.1684 13.0138 26.1076 13.307C26.0379 13.652 26.0915 16.5675 26.1022 17.1486C26.1076 17.2961 26.2435 17.4035 26.3865 17.3719L29.1591 16.7548C29.4022 21.8296 29.2431 21.8423 29.4845 21.9571L33.4799 23.8883C34.1502 31.6588 34.9118 37.458 34.531 47.5641ZM22.2534 56.2309C12.6126 56.2856 16.4829 56.2636 6.36653 56.3204C6.04475 56.3204 6.03939 55.8338 6.36475 55.8308C16.2004 55.7759 12.4177 55.797 22.2534 55.7412C22.5734 55.7412 22.5788 56.2287 22.2534 56.2309ZM42.1214 34.4315C41.7013 35.3046 40.3319 35.0591 40.3766 33.9987C40.3999 33.5691 40.6537 33.2479 41.0166 33.1226C41.8014 32.8467 42.5093 33.6628 42.1214 34.4315ZM50.7826 32.3296C51.8516 29.7212 55.6396 29.7391 56.7337 32.3739C57.0572 33.1542 57.059 34.0103 56.7355 34.7853C56.7355 34.7853 56.7355 34.7853 56.7355 34.7863C55.67 37.3885 51.8945 37.379 50.7933 34.7517C50.4679 33.9703 50.4626 33.1099 50.7826 32.3296ZM42.3002 31.6041C41.8658 31.8737 39.2504 33.4953 39.3916 33.407C37.9919 30.6268 41.6191 37.8318 27.6503 10.0874C27.7505 10.0856 27.2892 10.0928 28.6264 10.0731C29.2968 10.0731 29.901 10.4199 30.2442 11.0045C30.8234 11.993 27.1695 5.74877 42.3002 31.6041ZM33.9232 23.5851L38.1546 31.9885L34.6365 31.5062C34.3558 28.4239 34.0984 25.6153 33.9232 23.5851ZM34.6776 31.9831L38.4102 32.4949L38.5228 32.7214C37.9937 33.7028 37.865 34.6337 37.9883 35.6657L34.8885 35.0348C34.8313 34.0809 34.758 32.971 34.6776 31.9831ZM58.3747 28.5365C54.424 24.796 47.8079 26.9559 46.9731 32.4928L43.4443 32.2548C42.2161 30.5383 42.3985 30.7205 42.2841 30.652L33.4513 15.5576C33.4066 12.1629 33.7748 9.74059 34.7598 6.93934C35.4087 5.08018 36.2632 3.28358 37.2929 1.59961C37.3537 1.50308 37.3341 1.37617 37.2482 1.30109C35.9862 0.203468 34.0591 0.325027 32.9239 1.83381C31.6243 0.214191 29.4684 0.346481 28.2349 1.77482C26.3918 0.228497 23.8802 0.451946 22.3571 2.18776C20.0743 0.391167 17.0049 0.561001 14.958 2.46306C13.9301 1.49952 12.5768 0.954285 11.0824 1.0687C10.7463 1.09193 10.3441 1.4584 9.08912 5.61469C9.00152 5.95435 8.27038 7.9297 7.76447 11.9859C6.5739 21.9138 9.85425 28.8283 8.70657 46.4132C7.2979 46.1331 6.04117 46.528 5.08835 47.3684C4.42692 46.708 3.43477 46.3269 2.32643 46.5554C2.26744 46.5648 2.20845 46.6049 2.16912 46.6533C-0.113716 50.0211 -0.10299 54.5977 2.5624 58.04C2.92351 58.5098 3.47231 58.774 4.06939 58.774C6.94394 58.7972 12.7413 58.7804 16.4149 58.755C30.3175 58.7055 29.4559 58.813 29.5953 58.6551C34.4452 58.057 34.817 52.4367 34.9976 47.5831C35.1442 43.6647 35.1138 39.6073 34.9118 35.5152L38.0509 36.1542C38.0688 36.2638 38.0867 36.3913 38.2386 36.4313L40.1836 36.9546C41.9373 40.8352 41.5958 40.2487 41.7496 40.3876C37.0373 42.9686 37.2196 49.7377 41.9909 52.1019C47.5827 54.8629 53.6661 49.0944 51.0096 43.3699C51.0239 43.3583 51.0454 43.3624 51.0579 43.3467C51.2527 43.0898 51.0132 43.1139 48.2924 39.1387C52.8938 40.3749 53.0404 40.5056 53.1155 40.2591C59.4956 40.773 63.0387 32.9551 58.3747 28.5365Z" fill="#100F0D"/>
<path d="M16.7695 15.1957C16.4644 15.3567 16.075 15.4609 15.6703 15.5039L15.7224 15.8841C15.7653 16.2045 15.2824 16.275 15.238 15.95L15.1766 15.5223C14.8945 15.5177 14.614 15.4839 14.3641 15.4165C12.6915 14.9519 13.3645 13.543 13.803 13.8987C13.9072 13.9846 13.921 14.1394 13.8352 14.2436C13.6037 14.5227 14.1173 14.8385 14.4944 14.9428C15.1306 15.1206 16.0091 15.0424 16.5426 14.7618C16.9734 14.5349 17.162 14.2007 17.0363 13.888C16.5089 12.5879 13.3783 12.9282 13.3062 11.32C13.2771 10.6654 13.8658 10.2438 14.5051 10.0445L14.4653 9.45882C14.4423 9.13994 14.9313 9.097 14.9528 9.42662L14.988 9.93561C15.1475 9.91415 15.3115 9.90342 15.4756 9.90955C16.1088 9.92948 16.7879 10.1932 16.8692 10.6577C16.9259 10.972 16.4476 11.0671 16.3878 10.742C16.3694 10.6347 15.9938 10.4155 15.4603 10.3986C14.8317 10.3603 13.7692 10.7052 13.7938 11.3001C13.8459 12.4131 16.8615 12.1571 17.4886 13.704C17.7155 14.2605 17.4334 14.8477 16.7695 15.1957ZM17.3766 7.34159C12.7651 5.75023 8.5352 10.9674 10.5129 15.3904C12.4983 19.7628 18.7825 19.2492 20.4812 14.4307C21.5482 11.4059 20.0948 8.30438 17.3766 7.34159Z" fill="#100F0D"/>
<path d="M11.8107 25.8284C11.9041 25.8284 17.0273 25.7651 16.9338 25.7636C17.2216 25.7606 17.2623 25.3327 16.9278 25.2965L11.8077 25.3613C11.4988 25.3658 11.5048 25.8284 11.8107 25.8284Z" fill="#100F0D"/>
<path d="M16.7373 29.521C17.0459 29.5165 17.0414 29.0543 16.7343 29.0543C16.6409 29.0543 11.5177 29.1175 11.6111 29.119C11.304 29.1235 11.3085 29.5872 11.6141 29.5872C11.7074 29.5872 16.8306 29.524 16.7373 29.521Z" fill="#100F0D"/>
<path d="M31.9217 25.7305C32.227 25.7273 32.2286 25.2637 31.9185 25.2637C31.8258 25.2637 21.6745 25.3564 21.5817 25.366C21.2764 25.3676 21.2748 25.8312 21.5849 25.8312C21.5849 25.8312 31.829 25.7385 31.9217 25.7305Z" fill="#100F0D"/>
<path d="M21.8163 28.8374C21.5107 28.8406 21.5091 29.3046 21.8195 29.3046C21.9123 29.3046 32.0632 29.2118 32.156 29.2022C32.4616 29.2006 32.4632 28.735 32.1528 28.735C32.06 28.735 21.9091 28.8278 21.8163 28.8374Z" fill="#100F0D"/>
<path d="M17.1077 35.5454C17.0142 35.5454 11.8908 35.6087 11.9842 35.6102C11.6767 35.6147 11.6812 36.0761 11.9873 36.0761C12.0807 36.0761 17.2041 36.0128 17.1107 36.0128C17.4182 36.0083 17.4137 35.5454 17.1077 35.5454Z" fill="#100F0D"/>
<path d="M16.9096 39.3028L11.7894 39.3676C11.482 39.3721 11.4881 39.8347 11.7925 39.8347C11.8874 39.8347 17.0106 39.7714 16.9157 39.7714C17.1854 39.7669 17.2637 39.3495 16.9096 39.3028Z" fill="#100F0D"/>
<path d="M32.1 35.9778C32.4055 35.9758 32.4071 35.5114 32.0968 35.5114C32.004 35.5114 21.8537 35.6029 21.7609 35.6134C21.457 35.6155 21.4538 36.0799 21.7625 36.0799C21.8569 36.0799 32.0072 35.9873 32.1 35.9778Z" fill="#100F0D"/>
<path d="M32.3327 38.9836C32.2382 38.9836 22.0884 39.0754 21.9956 39.0859C21.6913 39.088 21.6881 39.5524 21.9988 39.5524C22.0916 39.5524 32.2415 39.4597 32.3359 39.4502C32.6401 39.4481 32.6417 38.9836 32.3327 38.9836Z" fill="#100F0D"/>
</g>
</svg>
