<svg width="16" height="16" viewBox="0 0 16 16" fill="none" xmlns="http://www.w3.org/2000/svg">
<path d="M12 5.83671L12 4.53301C12 3.02451 12 2.27027 11.4831 1.80164C10.9663 1.33301 10.1344 1.33301 8.47059 1.33301L5.52941 1.33301C3.86563 1.33301 3.03374 1.33301 2.51687 1.80164C2 2.27027 2 3.02451 2 4.53301L2 8.79967C2 10.3082 2 11.0624 2.51687 11.531C3.03374 11.9997 3.86563 11.9997 5.52941 11.9997L8.47059 11.9997" stroke="#876DF8" stroke-width="1.25" stroke-linecap="round"/>
<path d="M4 4H10" stroke="#876DF8" stroke-width="1.25" stroke-linecap="round" stroke-linejoin="round"/>
<path d="M4 6.66699H4.66667" stroke="#876DF8" stroke-width="1.25" stroke-linecap="round" stroke-linejoin="round"/>
<path d="M6.66602 6.66699H7.33268" stroke="#876DF8" stroke-width="1.25" stroke-linecap="round" stroke-linejoin="round"/>
<path d="M9.33398 6.66699H10.0007" stroke="#876DF8" stroke-width="1.25" stroke-linecap="round" stroke-linejoin="round"/>
<path d="M4 9.33301H4.66667" stroke="#876DF8" stroke-width="1.25" stroke-linecap="round" stroke-linejoin="round"/>
<path d="M6.66602 9.33301H7.33268" stroke="#876DF8" stroke-width="1.25" stroke-linecap="round" stroke-linejoin="round"/>
<path d="M12.687 14L9.79102 11.76L9.79102 10.92H11.983C12.1963 10.92 12.383 10.8774 12.543 10.792C12.703 10.7067 12.8283 10.5894 12.919 10.44C13.0097 10.2854 13.055 10.104 13.055 9.89604C13.055 9.68804 13.0097 9.50937 12.919 9.36004C12.8283 9.20537 12.703 9.08804 12.543 9.00804C12.383 8.92271 12.1963 8.88004 11.983 8.88004H9.79102V8.04004L14.471 8.04004V8.65604L13.135 8.65604L13.367 8.48004C13.5643 8.64004 13.7163 8.84004 13.823 9.08004C13.935 9.32004 13.991 9.59471 13.991 9.90404C13.991 10.288 13.903 10.6187 13.727 10.896C13.5563 11.1734 13.319 11.3867 13.015 11.536C12.711 11.6854 12.359 11.76 11.959 11.76H10.807L10.895 11.496L14.079 14H12.687ZM9.79102 10.208V9.58404L14.471 9.58404V10.208L9.79102 10.208Z" fill="#876DF8"/>
</svg>
