<svg width="61" height="59" viewBox="0 0 61 59" fill="none" xmlns="http://www.w3.org/2000/svg">
<g opacity="0.1">
<path d="M50.8467 19.3099C56.3875 20.2047 56.6125 20.2534 56.7071 20.2534C57.0482 20.2534 57.1076 19.7573 56.814 19.5968C54.8079 18.4831 52.9637 16.725 52.8815 16.5207C52.8642 16.4769 52.8244 16.3772 52.9523 16.2921C54.279 15.407 55.8139 14.7747 56.8578 13.3133C57.0983 12.9728 56.815 12.3771 56.4099 12.433C54.3578 12.7029 52.3339 12.8902 50.0945 12.2506C49.5661 12.1023 49.4827 11.74 49.5792 11.205C49.9092 9.40066 49.545 7.15865 49.1432 5.01875C49.0654 4.60536 48.5358 4.58833 48.4901 4.99686C48.2075 7.45288 47.7988 9.82622 47.2728 12.0537C47.2027 12.3479 47.6512 12.4695 47.7253 12.1607C48.1903 10.1934 48.5645 8.10943 48.8417 5.95738C49.792 11.3849 48.726 11.0518 49.1751 12.0561C49.3195 12.3795 49.5785 12.5886 49.9673 12.6981C52.2891 13.3619 54.4521 13.1601 56.4281 12.8877C56.4617 12.9096 56.4935 13.0118 56.479 13.0434C55.4985 14.4173 54.0349 15.0106 52.6943 15.9055C52.3392 16.1414 52.2449 16.6058 52.7234 17.0678C53.8009 18.1159 54.91 18.9913 56.0291 19.677L50.9211 18.8503C50.6212 18.7943 50.5395 19.2612 50.8467 19.3099Z" fill="#100F0D"/>
<path d="M60.5206 15.1425C59.9538 15.1283 59.3943 15.0525 58.8592 14.9175C58.5536 14.8488 58.4527 15.2965 58.7464 15.3699C59.7456 15.6186 60.608 15.6068 60.5142 15.6068C60.8174 15.6068 60.8248 15.152 60.5206 15.1425Z" fill="#100F0D"/>
<path d="M54.7564 8.89059L55.5743 6.50916C55.6748 6.21602 55.2334 6.06824 55.1346 6.35654L54.317 8.74038C54.2167 9.03352 54.6583 9.18373 54.7564 8.89059Z" fill="#100F0D"/>
<path d="M14.9584 17.5838C16.1032 17.9041 17.8539 17.3888 17.4973 16.5243C17.1452 15.6188 15.3861 15.4527 14.5303 14.9879C13.3823 14.357 13.5853 13.0999 14.9767 12.7098L14.9399 12.115C14.9168 11.7899 15.3839 11.7899 15.4046 12.0861L15.442 12.6087C16.115 12.4955 17.2001 12.6978 17.3114 13.3143C17.3299 13.4347 17.2464 13.5575 17.1252 13.584C16.9952 13.6032 16.8741 13.519 16.8553 13.3889C16.8025 13.0735 15.4725 12.8086 14.6141 13.3793C14.058 13.7429 14.1705 14.2606 14.7537 14.5785C15.2587 14.8554 15.9645 14.9879 16.4649 15.1854C18.7704 16.0667 18.3447 17.8704 16.1208 18.1232L16.1675 18.5134C16.215 18.8216 15.7367 18.8722 15.7114 18.5784L15.6466 18.1425C13.9025 18.0847 13.496 17.0974 13.9352 16.5797C14.1363 16.334 14.4828 16.6374 14.2976 16.8686C14.046 17.1552 14.582 17.4827 14.9584 17.5838ZM15.5908 20.9961C19.6287 20.9961 22.5165 16.3942 20.6969 12.6256C18.711 8.43546 12.7061 8.96524 10.9311 13.4925C9.51346 17.1263 11.8551 20.9961 15.5908 20.9961Z" fill="#100F0D"/>
<path d="M20.9657 26.5549L15.2816 27.7519C14.9784 27.8162 15.0794 28.2734 15.3779 28.209L21.0619 27.0098C21.3636 26.9478 21.2673 26.4906 20.9657 26.5549Z" fill="#100F0D"/>
<path d="M15.9386 32.4364C16.0322 32.4364 16.305 32.3637 21.67 31.2348C21.9694 31.1712 21.879 30.717 21.5737 30.7783L15.8905 31.9776C15.6186 32.0344 15.6601 32.4364 15.9386 32.4364Z" fill="#100F0D"/>
<path d="M27.2808 12.2485L32.964 11.0509C33.2649 10.9886 33.1702 10.5311 32.8675 10.5958L27.1845 11.7934C26.8861 11.8557 26.9747 12.3084 27.2808 12.2485Z" fill="#100F0D"/>
<path d="M27.8412 16.4776C27.9343 16.4776 28.1108 16.4255 33.5733 15.2763C33.8751 15.2124 33.7777 14.7551 33.4771 14.8214L27.7928 16.0179C27.5208 16.0748 27.5625 16.4776 27.8412 16.4776Z" fill="#100F0D"/>
<path d="M16.9561 36.8032C17.0511 36.8032 17.639 36.6618 22.6876 35.6001C22.9886 35.535 22.8938 35.0816 22.5913 35.1467L16.9081 36.3431C16.6349 36.4014 16.6791 36.8032 16.9561 36.8032Z" fill="#100F0D"/>
<path d="M26.2533 26.063L37.7312 23.6756C38.0397 23.6131 37.928 23.1495 37.6369 23.2213L26.1588 25.6087C25.8535 25.6713 25.9583 26.1325 26.2533 26.063Z" fill="#100F0D"/>
<path d="M27.2325 29.8798C27.3261 29.8798 27.3555 29.8569 38.757 27.489C39.064 27.4248 38.9546 26.9613 38.6625 27.0324L27.1852 29.4186C26.9129 29.4737 26.9533 29.8798 27.2325 29.8798Z" fill="#100F0D"/>
<path d="M23.8127 42.8325L35.2909 40.4449C35.583 40.3851 35.5106 39.9355 35.1963 39.9887L23.7183 42.3763C23.4228 42.4383 23.5024 42.8857 23.8127 42.8325Z" fill="#100F0D"/>
<path d="M7.74718 7.67765C7.84116 7.75883 10.2787 9.85247 10.1845 9.77128C10.4214 9.97301 10.6081 9.59659 10.7196 9.46128C10.7867 9.36779 13.4949 5.62831 13.4275 5.7218C13.6563 5.39706 14.0834 5.29373 14.4421 5.47578C18.3963 7.53004 18.1968 7.46361 18.3068 7.46361C18.311 7.46361 18.3715 7.44886 18.3771 7.4464C18.4249 7.43164 18.4694 7.40703 18.4994 7.36275C18.5624 7.26926 20.8135 3.93816 20.7505 4.03165L20.5579 3.90126L20.8194 4.01934C21.1328 4.33917 24.3342 7.60384 24.1308 7.39473C24.2171 7.48329 24.4317 7.49314 24.507 7.33077L26.7479 2.59736C26.7487 2.59736 26.8161 2.58507 26.8168 2.58261C26.9246 2.71054 30.5123 6.91499 30.3236 6.69357C30.4242 6.81412 30.6535 6.80676 30.7194 6.62224C30.9143 6.07854 32.244 2.36118 32.1596 2.59736C32.4927 1.7363 32.4561 1.64774 32.5527 1.62314C32.6593 1.601 32.4423 1.50012 36.4354 5.14365C36.5774 5.27158 36.8 5.18548 36.8234 5.00097L37.3349 0.813728C37.357 0.614452 37.5359 0.45454 37.73 0.493904C38.3123 0.60461 39.069 1.18277 39.4378 2.41533C39.9594 14.2242 40.9383 20.7462 41.9256 28.3998C39.8814 28.9509 38.2621 30.4467 37.5363 32.405L28.5901 34.2649C28.3175 34.3215 28.3584 34.7249 28.6376 34.7249C28.6529 34.7249 28.6691 34.7225 28.6848 34.72L37.3686 32.9142C36.1921 37.1531 39.4851 41.4511 44.1178 41.119C44.1395 41.4708 45.0694 45.7835 45.2402 46.5584L20.7899 50.8146C19.8321 50.9843 19.1905 52.0988 19.311 53.4027C19.5408 55.6931 18.4411 57.4398 16.9886 58.0893C14.2042 58.1484 13.4105 54.5344 13.1623 51.7519C12.4139 43.5472 13.0809 50.6202 8.44193 12.6202L7.34444 7.93597C7.29106 7.69487 7.56242 7.51773 7.74718 7.67765ZM45.9743 31.8539C46.1625 31.6128 46.5305 31.9007 46.3394 32.1417C45.0805 33.7433 44.0625 35.5122 43.3158 37.4065C43.2617 37.5443 43.0917 37.5935 42.9716 37.5148L40.9587 36.1838C40.7011 36.0141 40.9604 35.6254 41.2151 35.7976L42.9908 36.9686C43.7427 35.1333 44.7454 33.4137 45.9743 31.8539ZM45.7814 50.4529L24.7896 54.1727C24.5562 54.2908 24.3542 53.7938 24.7057 53.7176L45.6978 49.9978C45.9895 49.9289 46.087 50.3816 45.7814 50.4529ZM8.66261 45.3234C9.02303 46.8118 9.52245 49.2548 9.83022 50.7506C10.3892 53.4642 11.5233 56.9699 14.3043 57.184C15.0384 58.1557 15.9226 58.5641 17.014 58.5641H17.0514C17.1293 58.5518 48.9149 53.0263 48.9806 52.982C50.2929 52.0323 51.0487 50.507 51.3151 48.8808C51.5737 47.3162 50.4718 45.6629 49.1017 45.8868L45.6985 46.4797C45.2918 44.6321 44.9157 42.8386 44.5695 41.0722C47.7776 40.6122 50.1596 37.8371 50.1059 34.5577C50.0439 30.582 46.4115 27.5068 42.3718 28.2916C41.5435 23.2925 40.3459 12.4012 39.8939 2.33904C39.3433 0.466843 38.1652 0.105194 37.819 0.0387688C37.3486 -0.054718 36.9233 0.302006 36.8733 0.759598L36.4165 4.49418L32.9525 1.30084C32.6561 1.03514 32.1911 1.14585 32.0486 1.52718L31.7773 2.28492C31.1098 2.25785 30.5976 2.49895 27.9807 3.23209L27.1684 2.28001C26.9187 1.99463 26.4721 2.07581 26.3282 2.3981L25.6108 3.91356L22.3002 4.86566L21.1436 3.68477C20.8991 3.46089 20.5406 3.51502 20.3652 3.77088L18.9806 5.82021L17.1259 6.35162L14.6546 5.06247C14.0925 4.77463 13.414 4.93701 13.0496 5.44873L11.1526 8.07128L9.47841 8.55101L8.0515 7.32584C7.53117 6.87563 6.73801 7.35783 6.89128 8.0393L7.15403 9.15868C5.41787 9.56707 3.53755 9.98038 1.98025 10.7086C0.242131 11.5254 0.680044 13.1639 1.2454 14.918C1.63632 16.1308 -0.00191945 9.65318 8.66261 45.3234Z" fill="#100F0D"/>
</g>
</svg>
