<svg width="61" height="59" viewBox="0 0 61 59" fill="none" xmlns="http://www.w3.org/2000/svg">
<g opacity="0.1">
<path d="M16.5333 5.58444C16.184 5.56116 15.8452 5.40281 15.5168 5.24912C15.2362 5.11872 15.0395 5.5402 15.3177 5.67177C15.6682 5.83594 16.0652 6.02223 16.5042 6.05017C17.3774 6.11305 18.0667 5.44122 17.7768 4.61106C17.2319 3.03806 14.6191 3.11025 13.5701 4.92543C13.0066 5.90113 12.9507 7.20635 13.4164 8.5069C13.8251 9.64561 14.5411 10.6248 15.2327 11.5714C15.4132 11.8147 15.7928 11.547 15.61 11.2955C14.937 10.3745 14.2419 9.42322 13.8554 8.34971C13.4362 7.1784 13.4804 6.01524 13.9753 5.15829C14.8543 3.62953 16.9385 3.62255 17.3367 4.76475C17.3984 4.94173 17.3902 5.10241 17.3122 5.24213C17.1667 5.5041 16.8151 5.59725 16.5333 5.58444Z" fill="#100F0D"/>
<path d="M12.117 11.148L11.0834 8.78121C10.9613 8.50076 10.5305 8.6817 10.6549 8.96893L11.6884 11.3346C11.8117 11.615 12.2403 11.433 12.117 11.148Z" fill="#100F0D"/>
<path d="M6.0076 10.5224C8.0372 10.1515 10.2904 11.7473 10.7343 14.7659C10.7759 15.0715 11.2423 15.003 11.1951 14.6984C10.722 11.4529 8.24736 9.64242 5.92445 10.0638C3.50264 10.5077 2.55751 13.215 3.79707 14.5343C4.28593 15.0547 5.09058 15.2154 5.66934 14.9007C6.80101 14.2849 6.21214 12.6452 5.75138 13.0329C5.65361 13.115 5.64012 13.2622 5.72216 13.3622C5.99637 13.6926 5.83117 14.2804 5.44683 14.4905C5.05687 14.7029 4.48148 14.5816 4.13759 14.2152C3.81619 13.8736 3.66671 13.3375 3.73751 12.7835C3.87574 11.69 4.83098 10.7392 6.0076 10.5224Z" fill="#100F0D"/>
<path d="M34.9562 10.873L34.5602 10.0671C34.4243 9.78851 34.8445 9.58358 34.9804 9.86103L35.3545 10.6209C37.3404 9.5053 38.5734 10.5495 38.0634 10.8672C37.9541 10.9375 37.8102 10.9018 37.7411 10.7913C37.611 10.5783 36.9145 10.5126 36.2134 10.7417C35.3177 11.0376 34.0939 11.9667 34.4462 12.7864C35.107 14.3221 38.9349 12.5055 40.5052 14.131C41.0406 14.6871 40.9692 15.5045 40.3222 16.2148C40.001 16.5671 39.5313 16.8883 39.0109 17.1324L39.3137 17.6527C39.468 17.9221 39.0639 18.1547 38.9108 17.8887L38.5746 17.3108C36.6255 18.0246 35.2693 17.2763 35.5997 16.2862C35.6976 15.9938 36.142 16.1411 36.043 16.4347C35.9992 16.5671 36.0165 16.6834 36.0982 16.7858C36.6704 17.5111 38.9603 17.0172 39.9768 15.8994C40.4511 15.379 40.5248 14.8264 40.1679 14.4568C38.7553 12.9936 34.8664 14.953 34.0156 12.9706C33.676 12.182 34.2493 11.3911 34.9562 10.873ZM39.5647 22.5317C43.7932 21.2423 46.1234 16.597 44.7706 12.1578C43.4156 7.7197 38.8912 5.16853 34.6626 6.46024C30.4341 7.74964 28.1039 12.3949 29.4578 16.833C30.8105 21.2723 35.3361 23.8234 39.5647 22.5317Z" fill="#100F0D"/>
<path d="M28.2894 9.57526C30.7806 4.5951 36.7846 2.61054 41.7496 5.18838C46.6806 7.75919 48.6734 13.9095 46.1938 18.8967C43.7072 23.8862 37.6927 25.845 32.7441 23.273C27.8038 20.7081 25.8063 14.5624 28.2894 9.57526ZM32.5277 23.6873C37.7418 26.395 44.0244 24.2992 46.6116 19.1061C49.2046 13.8908 47.1206 7.46197 41.9649 4.77414C36.7952 2.08865 30.4916 4.12939 27.8728 9.36697C25.2751 14.58 27.3626 21.0053 32.5277 23.6873Z" fill="#100F0D"/>
<path d="M23.2496 47.3311C22.8022 47.2716 22.3632 47.0931 21.8861 46.8992C21.8861 46.898 21.8849 46.898 21.8849 46.898C21.597 46.7814 21.4221 47.2133 21.7077 47.3299C22.4417 47.6368 22.4334 48.6267 22.0027 49.268C21.44 50.1293 20.3823 49.9592 19.3437 49.7117C19.101 49.6629 18.9499 49.9996 19.1855 50.1496C19.3282 50.2376 19.7054 50.4755 19.6709 50.6124C19.6161 50.842 19.4424 51.0597 19.2057 51.1977C18.5704 51.5844 17.8161 51.3095 17.088 51.043C16.1826 50.7075 15.364 50.5422 13.2368 49.5309C7.67364 46.898 7.21678 44.5079 5.85216 42.6554C5.95448 42.5638 12.2362 32.8592 12.2696 32.7736C12.4956 32.9592 12.755 33.253 12.9727 33.3542C15.05 34.3047 17.3164 32.5332 19.1355 32.1382L17.6174 34.2167C17.3461 34.131 17.0713 34.043 16.7953 33.9716C16.4836 33.905 16.3884 34.3511 16.6775 34.4249C19.3151 35.1019 22.2323 36.5057 24.7296 38.4878C27.2471 40.4437 26.8544 41.135 26.9401 41.3241C26.9889 42.6245 25.6493 43.518 24.3275 43.8095C24.1062 43.8583 24.0788 44.1652 24.2858 44.2521C24.6998 44.4293 24.8462 44.9124 24.9437 45.4085C25.2245 46.879 24.3394 47.4774 23.2496 47.3311ZM3.24665 39.0161L4.68266 40.4307C4.83137 40.5782 4.72429 40.8304 4.51728 40.8304C4.34477 40.8304 4.41259 40.7864 2.9171 39.348C2.69581 39.1279 3.02893 38.7983 3.24665 39.0161ZM4.94797 36.6033L6.19956 37.8311C6.42323 38.0488 6.08535 38.3796 5.87239 38.1642L4.62079 36.9376C4.3995 36.7199 4.72787 36.388 4.94797 36.6033ZM6.12936 34.0882L8.45053 35.9014C8.69324 36.0929 8.4065 36.4582 8.16142 36.2714L5.84026 34.457C5.59756 34.2679 5.88071 33.8979 6.12936 34.0882ZM7.63794 31.6255C8.42435 30.7046 10.0019 31.0996 10.2411 32.4381C10.3363 32.9699 10.1768 33.5528 9.81514 33.9978C9.6236 34.2357 9.25478 33.9442 9.45227 33.7039C9.72829 33.3637 9.85322 32.9199 9.78065 32.5201C9.61765 31.6088 8.55284 31.2769 7.99486 31.9289C7.74144 32.2251 7.71051 32.6986 7.92586 32.9865C8.14001 33.2732 8.59925 33.3506 8.89073 33.1459C9.05848 33.027 9.15722 32.82 9.11558 32.6617C9.08465 32.5392 8.91333 32.444 8.81458 32.5071C8.55641 32.6701 8.303 32.2774 8.56712 32.1109C8.94308 31.8717 9.46061 32.1275 9.57006 32.5463C9.6581 32.8937 9.48917 33.2982 9.15842 33.529C8.65517 33.8824 7.91991 33.761 7.55109 33.2673C7.20726 32.8057 7.24652 32.0847 7.63794 31.6255ZM25.8301 8.29251C28.996 1.95364 36.6519 -0.586433 42.9848 2.71031C49.2808 5.98682 51.8233 13.8188 48.6538 20.1684C44.585 28.3513 33.9238 29.5078 27.9335 23.0225C27.9335 23.0225 27.9335 23.0225 27.9323 23.0225C24.2715 19.0381 23.4256 13.1204 25.8301 8.29251ZM29.4255 29.8433C29.2315 29.246 28.8675 28.6987 28.3345 28.2966C27.1471 27.4864 26.7438 26.8392 25.5541 26.6393L27.786 23.5472C29.0126 24.8214 30.6628 25.9314 31.7656 26.4049L31.887 26.5049L29.4255 29.8433ZM24.908 44.1367C26.6439 43.5834 27.4457 42.3806 27.4077 41.3075C27.3672 39.9548 26.0407 38.9352 25.0116 38.1154L28.9876 32.6748C29.473 32.0145 29.6479 31.2174 29.5563 30.4536L32.3617 26.6453C38.9576 29.3864 46.059 26.4371 49.0714 20.3754C52.3539 13.801 49.7198 5.68938 43.1989 2.29509C36.6768 -1.10278 28.7128 1.47537 25.4125 8.08431C22.9509 13.0264 23.7826 19.0703 27.466 23.1927L25.0104 26.5953C24.0848 26.6072 23.1734 27.0236 22.5809 27.829L19.8255 31.5886C17.5995 31.6374 15.2498 33.886 13.169 32.9306C13.0322 32.8664 12.567 32.3536 12.2529 32.2144C12.0982 31.8206 12.1292 32.0312 8.83362 29.6624C8.38152 29.0723 7.8854 29.1663 7.7117 29.4566C0.44603 40.7828 0.325875 40.4318 0.556682 40.8661C0.658999 41.0921 0.940955 41.2409 1.31453 41.2777C5.3489 42.9386 5.00746 42.9208 5.40483 42.8446C6.75636 44.4793 7.03237 47.1098 13.0357 49.9521C15.1487 50.9562 16.1576 51.2001 16.9262 51.4821C17.7947 51.7985 18.6465 52.0841 19.4448 51.5986C19.8707 51.35 20.2978 50.773 20.0777 50.3363C20.8891 50.4541 21.8219 50.3994 22.393 49.5261C22.7844 48.942 22.8581 48.1901 22.6511 47.6785C24.4036 48.1901 25.773 47.2514 25.4006 45.3204C25.3185 44.8993 25.1948 44.4543 24.908 44.1367Z" fill="#100F0D"/>
<path d="M16.1252 47.6194C13.8934 46.8085 11.8375 45.6278 10.0154 44.1111C9.77952 43.9142 9.4783 44.2702 9.71633 44.4703C12.4516 46.7463 15.7682 48.0723 16.0462 48.0723C16.3053 48.0723 16.3717 47.71 16.1252 47.6194Z" fill="#100F0D"/>
<path d="M30.5099 40.6475C30.5133 40.0185 31.0522 39.505 31.709 39.505C32.0363 39.5062 35.9622 39.5131 35.8662 39.5131C36.5288 39.5131 37.0527 40.0323 37.0469 40.6579L36.8596 56.0274H30.3214L30.5099 40.6475ZM52.9113 31.2947C52.9183 30.6656 53.4548 30.1522 54.1116 30.1522C54.4065 30.1534 58.3648 30.1603 58.27 30.1603C58.9395 30.1603 59.4553 30.6876 59.4507 31.3063L59.2587 56.0274C58.9453 56.0274 52.2961 56.0263 52.7205 56.0274L52.9113 31.2947ZM46.0956 40.5018L46.1684 52.6601C46.1684 52.9723 45.7013 52.963 45.7013 52.6693L45.6273 40.5111C45.6273 40.1977 46.0956 40.2081 46.0956 40.5018ZM59.7247 56.1211L59.9178 31.3086C59.9236 30.4043 59.172 29.6966 58.2712 29.6943C55.8219 29.6885 56.5493 29.6908 54.1116 29.6862C53.1993 29.6862 52.4522 30.4055 52.4453 31.2924L52.2533 56.0274H48.5263L48.7137 35.9838C48.731 35.1512 48.0302 34.3661 47.067 34.3661L42.9144 34.3568C41.9985 34.3568 41.2504 35.0865 41.2411 35.9653L41.0538 56.0274H37.3267L37.5141 40.6614C37.5222 39.7756 36.7879 39.0483 35.8674 39.0471C33.3997 39.0413 34.1663 39.0425 31.709 39.039C30.7955 39.039 30.0485 39.7594 30.0415 40.6441L29.853 56.0274H27.1043C26.4174 56.0274 25.8589 56.5848 25.8589 57.2706C25.8589 57.9574 26.4174 58.516 27.1043 58.516C36.6757 58.6131 59.1523 58.516 59.2576 58.516C60.6105 58.516 60.9921 56.6392 59.7247 56.1211Z" fill="#100F0D"/>
</g>
</svg>
