<svg width="16" height="16" viewBox="0 0 16 16" fill="none" xmlns="http://www.w3.org/2000/svg">
<g clip-path="url(#clip0_7369_13729)">
<path d="M2.51907 7.96125C1.88705 6.85921 1.58188 5.95933 1.39788 5.04715C1.12573 3.69806 1.74852 2.38021 2.78024 1.53932C3.21628 1.18393 3.71614 1.30535 3.97399 1.76794L4.55611 2.81228C5.01751 3.64005 5.24821 4.05394 5.20245 4.49274C5.15669 4.93153 4.84556 5.28892 4.2233 6.00368L2.51907 7.96125ZM2.51907 7.96125C3.79832 10.1919 5.80588 12.2005 8.03908 13.4813M8.03908 13.4813C9.14111 14.1133 10.041 14.4184 10.9532 14.6024C12.3023 14.8746 13.6201 14.2518 14.461 13.2201C14.8164 12.784 14.695 12.2842 14.2324 12.0263L13.188 11.4442C12.3603 10.9828 11.9464 10.7521 11.5076 10.7979C11.0688 10.8436 10.7114 11.1548 9.99665 11.777L8.03908 13.4813Z" stroke="#0E0A1F" stroke-linejoin="round"/>
</g>
<defs>
<clipPath id="clip0_7369_13729">
<rect width="16" height="16" fill="white"/>
</clipPath>
</defs>
</svg>
