<svg width="99" height="95" viewBox="0 0 99 95" fill="none" xmlns="http://www.w3.org/2000/svg">
<path d="M47.1825 8.73989L32.748 23.2046L33.513 23.9679L47.9474 9.50321L47.1825 8.73989Z" fill="#001B62"/>
<path d="M49.1441 9.02588L48.2319 9.60522L61.1024 29.8702L62.0146 29.2909L49.1441 9.02588Z" fill="#001B62"/>
<path d="M50.554 9.15505C50.4684 9.64056 50.2407 10.0898 49.8997 10.4458C49.5586 10.8018 49.1196 11.0486 48.6383 11.155C48.1569 11.2614 47.6548 11.2226 47.1954 11.0434C46.7361 10.8643 46.3403 10.5529 46.0581 10.1487C45.7758 9.7445 45.6198 9.26564 45.6099 8.77274C45.5999 8.27984 45.7365 7.79507 46.0022 7.3798C46.2678 6.96452 46.6508 6.63741 47.1025 6.43989C47.5542 6.24236 48.0543 6.18329 48.5396 6.27016C48.8615 6.32692 49.169 6.44662 49.4446 6.62242C49.7201 6.79821 49.9583 7.02665 50.1454 7.29463C50.3325 7.56262 50.465 7.86489 50.5351 8.18413C50.6052 8.50337 50.6116 8.83331 50.554 9.15505Z" fill="#001B62"/>
<path d="M48.3447 7.37252C48.6158 7.41379 48.8685 7.535 49.0703 7.72064C49.2722 7.90628 49.414 8.14792 49.4778 8.41464C49.5416 8.68136 49.5243 8.96103 49.4283 9.21789C49.3322 9.47475 49.1617 9.69712 48.9386 9.85655C48.7154 10.016 48.4498 10.1052 48.1757 10.1128C47.9016 10.1205 47.6314 10.0462 47.3997 9.89942C47.168 9.75266 46.9854 9.54014 46.8752 9.28902C46.765 9.03791 46.7322 8.75963 46.781 8.48977C46.8434 8.13583 47.0421 7.8205 47.3345 7.61157C47.6269 7.40264 47.9897 7.3168 48.3447 7.37252Z" fill="#CBC0FC"/>
<path d="M13.5005 72.3686C10.7516 71.8964 8.26495 70.5492 6.57895 68.6188C4.89295 66.6884 4.14328 64.3301 4.49225 62.0544L9.39146 28.2648C9.55348 27.1175 9.98745 26.0231 10.6685 25.0443C11.3496 24.0655 12.2645 23.2214 13.3608 22.5603C14.457 21.8992 15.7132 21.4342 17.0575 21.1917C18.4017 20.9492 19.8076 20.9341 21.1948 21.1472L83.7121 30.8566C85.0984 31.0652 86.4396 31.499 87.6579 32.1331C88.8763 32.7671 89.9476 33.5887 90.8101 34.5504C91.6725 35.5121 92.3089 36.5947 92.6824 37.7357C93.0559 38.8768 93.1592 40.0535 92.9862 41.1979L88.0859 74.9939C87.7466 77.3061 86.3112 79.3506 84.0949 80.6783C81.8786 82.0061 79.0625 82.5086 76.265 82.0756L13.763 72.4149L13.5005 72.3686ZM83.7847 31.9798L83.553 31.939L21.0435 22.231C19.8281 22.0439 18.5962 22.0567 17.4181 22.2686C16.2401 22.4806 15.1391 22.8875 14.178 23.4661C13.2168 24.0447 12.4145 24.7837 11.8167 25.6409C11.2189 26.4981 10.8375 27.4566 10.6942 28.4617L5.78726 62.2499C5.51221 64.2422 6.18231 66.2972 7.65655 67.9824C9.1308 69.6676 11.2942 70.8516 13.6915 71.2853L13.9155 71.3248L76.4383 81.0023C77.6524 81.1925 78.8838 81.1826 80.0617 80.9731C81.2397 80.7635 82.341 80.3585 83.3023 79.7814C84.2637 79.2042 85.0662 78.4661 85.6637 77.6097C86.2613 76.7532 86.6421 75.7952 86.7843 74.7907L91.6923 40.9961C91.9873 39.0036 91.3239 36.9422 89.8448 35.2558C88.3658 33.5694 86.1895 32.393 83.7847 31.9798Z" fill="#001B62"/>
<path d="M80.5332 30.1124L19.6616 24.9838C17.1158 24.7773 14.6463 25.4062 12.7947 26.7327C10.9431 28.0592 9.86041 29.9749 9.78403 32.0599L8.54284 64.6481C8.5031 65.6834 8.71303 66.7296 9.16061 67.7268C9.60819 68.7241 10.2846 69.6528 11.1512 70.4598C12.0178 71.2668 13.0576 71.9364 14.2109 72.4301C15.3643 72.9238 16.6087 73.232 17.8729 73.337L78.7445 78.4656C80.0082 78.5732 81.2674 78.4756 82.4502 78.1783C83.6329 77.8811 84.7159 77.3901 85.637 76.7334C86.5582 76.0767 87.2995 75.2673 87.8185 74.3515C88.3374 73.4357 88.6238 72.4315 88.6613 71.3964L89.9025 38.8081C89.9429 37.7699 89.7323 36.7206 89.2826 35.7206C88.8329 34.7207 88.1531 33.7898 87.2823 32.9816C86.4115 32.1734 85.3669 31.5039 84.2086 31.0114C83.0503 30.519 81.8012 30.2134 80.5332 30.1124Z" fill="#D7CEFD"/>
<path d="M74.2961 74.6453L76.7747 78.4005L61.9967 90.7758L62.6246 77.1539L74.2961 74.6453Z" fill="#D7CEFD"/>
</svg>
