<svg xmlns="http://www.w3.org/2000/svg" width="16" height="16" viewBox="0 0 16 16" fill="none">
  <path d="M5.34443 3.07031C5.34443 2.94599 5.29505 2.82676 5.20714 2.73886C5.11923 2.65095 5 2.60156 4.87568 2.60156C4.75136 2.60156 4.63213 2.65095 4.54423 2.73886C4.45632 2.82676 4.40693 2.94599 4.40693 3.07031V4.20531C3.95097 4.26997 3.52869 4.48207 3.20458 4.80923C2.88046 5.1364 2.67232 5.56064 2.61193 6.01719L2.55756 6.42531C2.54839 6.49406 2.53964 6.56323 2.53131 6.63281C2.52627 6.67611 2.53047 6.71999 2.54364 6.76154C2.55682 6.8031 2.57865 6.84138 2.60772 6.87387C2.63678 6.90636 2.67241 6.93232 2.71224 6.95002C2.75208 6.96772 2.79522 6.97677 2.83881 6.97656H13.1632C13.2068 6.97677 13.2499 6.96772 13.2897 6.95002C13.3296 6.93232 13.3652 6.90636 13.3943 6.87387C13.4233 6.84138 13.4452 6.8031 13.4583 6.76154C13.4715 6.71999 13.4757 6.67611 13.4707 6.63281L13.4444 6.42531L13.3901 6.01719C13.3297 5.56064 13.1215 5.1364 12.7974 4.80923C12.4733 4.48207 12.051 4.26997 11.5951 4.20531V3.07031C11.5951 2.94599 11.5457 2.82676 11.4578 2.73886C11.3699 2.65095 11.2506 2.60156 11.1263 2.60156C11.002 2.60156 10.8828 2.65095 10.7949 2.73886C10.7069 2.82676 10.6576 2.94599 10.6576 3.07031V4.11281C8.89021 3.95571 7.11241 3.95571 5.34506 4.11281L5.34443 3.07031ZM13.5913 8.21156C13.5884 8.13143 13.5544 8.05557 13.4965 8.00004C13.4387 7.94452 13.3615 7.91368 13.2813 7.91406H2.72006C2.63987 7.91368 2.56268 7.94452 2.50482 8.00004C2.44696 8.05557 2.41298 8.13143 2.41006 8.21156C2.3731 9.34261 2.44215 10.4746 2.61631 11.5928C2.6805 12.0048 2.87971 12.3837 3.18267 12.6702C3.48563 12.9566 3.87515 13.1343 4.29006 13.1753L5.03568 13.2491C7.00756 13.4428 8.99381 13.4428 10.9657 13.2491L11.7113 13.1753C12.1262 13.1343 12.5157 12.9566 12.8187 12.6702C13.1217 12.3837 13.3209 12.0048 13.3851 11.5928C13.5592 10.4746 13.6283 9.34261 13.5913 8.21156Z" fill="#3D7DC3"/>
</svg>