<svg width="26" height="28" viewBox="0 0 26 28" fill="none" xmlns="http://www.w3.org/2000/svg">
<path d="M2.96881 15.1132C3.50868 14.8944 4.26599 15.0755 4.44774 15.6227C4.57766 16.0132 4.35215 16.5093 3.94556 16.7281C3.37607 17.0337 2.46461 16.8829 1.82201 16.1249C2.14769 15.6874 2.49692 15.303 2.96881 15.1132ZM1.73935 20.2117C2.46259 19.7216 3.4454 20.0131 3.4656 20.9117C3.49185 22.1201 1.85641 22.5893 0.876157 21.5385C1.06249 20.9205 1.35288 20.4742 1.73935 20.2117ZM0.0259583 19.2955C-0.0752175 20.0676 0.117438 20.9676 0.63779 21.5916C0.051536 23.741 1.1191 26.1967 3.10344 27.2219C5.09868 28.2532 8.18713 27.5962 9.57653 25.8171C9.61288 25.7699 9.6048 25.7026 9.55836 25.6656C9.51056 25.6299 9.44392 25.638 9.40689 25.6844C8.08212 27.3828 5.12359 28.0243 3.20172 27.0314C1.37678 26.0877 0.341062 23.7733 0.811937 21.7781C1.94311 22.8552 3.70996 22.2675 3.68034 20.9077C3.6561 19.8293 2.47067 19.4564 1.61852 20.0339C1.21981 20.3046 0.916009 20.7435 0.713724 21.3412C0.300405 20.7737 0.150559 19.9969 0.239147 19.3231C0.384482 18.2137 1.02964 17.2275 1.689 16.308C2.39467 17.0983 3.39626 17.2673 4.04721 16.9172C4.55006 16.6466 4.81595 16.0482 4.6517 15.5547C4.42687 14.8796 3.53695 14.652 2.88803 14.9139C2.38982 15.1152 2.01467 15.515 1.68522 15.9492C0.811934 14.7194 0.935868 12.8035 2.7884 11.2041L2.54337 12.0543C2.52721 12.1115 2.55953 12.1715 2.61675 12.1876C2.67262 12.2038 2.7332 12.1721 2.75003 12.1142C3.09469 10.8521 3.16065 10.842 3.08728 10.7605C3.06305 10.7329 3.02603 10.7201 2.989 10.7262C2.48884 10.8117 1.91727 10.8931 1.83507 10.8797C1.69479 10.8507 1.65352 11.0614 1.79186 11.0897C1.89256 11.1106 2.34741 11.0473 2.70695 10.9907C0.682958 12.6945 0.558155 14.8264 1.54797 16.1357C0.860403 17.0801 0.175803 18.1545 0.0259583 19.2955Z" fill="#606062"/>
<path d="M13.8559 25.6529C13.3087 26.0548 12.5069 25.6192 12.5938 24.9535C12.6429 24.5785 12.9775 24.3059 13.3625 24.3059C14.1178 24.3059 14.4389 25.2227 13.8559 25.6529ZM13.4978 24.0999C12.9559 24.0292 12.4504 24.3988 12.381 24.9259C12.2693 25.7808 13.2851 26.3388 13.9832 25.8259C14.6846 25.3103 14.381 24.2164 13.4978 24.0999Z" fill="#606062"/>
<path d="M16.716 3.21453L19.9869 3.93481C19.9943 3.93683 20.0024 3.9375 20.0098 3.9375C20.0596 3.9375 20.104 3.90317 20.1148 3.85336C20.1276 3.79546 20.0906 3.73824 20.0334 3.72478L16.7618 3.0045C16.7046 2.99306 16.6467 3.02874 16.6339 3.08663C16.6211 3.14452 16.6575 3.20174 16.716 3.21453Z" fill="#606062"/>
<path d="M13.355 19.9698C13.4068 19.9348 13.4775 19.9483 13.5132 20.0001L14.115 20.888C14.6414 20.0694 15.4377 19.4481 16.3741 19.1398C16.4313 19.1203 16.4979 19.1526 16.5175 19.2125C16.5377 19.2717 16.5047 19.3364 16.4454 19.3559C15.503 19.6669 14.7141 20.3077 14.218 21.1552C14.1978 21.1889 14.1621 21.2104 14.123 21.2118C14.1224 21.2118 14.121 21.2118 14.1197 21.2118C14.0106 21.2118 14.0524 21.1694 13.3247 20.128C13.2897 20.0762 13.3031 20.0055 13.355 19.9698ZM16.4461 22.0781C16.9705 21.6917 17.3057 21.1303 17.3885 20.4982C17.6665 18.3785 15.1193 16.9911 13.3832 18.2681C12.8582 18.6545 12.5236 19.2159 12.4401 19.848C12.1601 21.9832 14.7168 23.3504 16.4461 22.0781Z" fill="#606062"/>
<path d="M11.8092 2.65621C11.9378 2.0773 12.4709 1.69629 12.9973 1.80601L24.2593 4.16274C24.7971 4.27516 25.1115 4.846 24.9903 5.41347C20.1005 28.0794 20.4155 26.659 20.3758 26.7519C20.2008 27.2272 19.7255 27.551 19.2388 27.4487L7.97689 25.0872C7.43635 24.9741 7.12467 24.4053 7.24584 23.8365L9.336 14.1241C9.57295 14.1585 9.82943 14.2016 10.1276 14.2574L8.61908 21.2616C8.46358 21.994 8.79344 22.7978 9.48948 22.9412C18.6249 24.8496 18.3886 24.826 18.5105 24.8092C19.0483 24.8072 19.6225 24.3548 19.7807 23.5995L23.4481 6.5915C23.6023 5.86247 23.2771 5.05266 22.5777 4.90793L20.0621 4.38488C20.0251 4.37748 19.9867 4.3896 19.9611 4.41652L19.4118 5.0089L16.6445 4.40575L16.5751 3.72788C16.5704 3.68143 16.5361 3.64374 16.4903 3.63364L13.7735 3.06011C13.1232 2.92884 12.4541 3.46064 12.2865 4.24891L11.6988 6.97587C11.4403 6.92673 11.1751 6.87692 10.9098 6.83518L11.8092 2.65621ZM8.82911 21.3068L10.3397 14.2998C12.1969 14.6452 14.0097 15.1958 15.7297 15.941C15.735 15.943 15.7418 15.943 15.7478 15.9444L15.6408 16.4741C15.6294 16.532 15.6671 16.5886 15.725 16.6007C15.7317 16.602 15.7391 16.6027 15.7458 16.6027C15.7963 16.6027 15.8407 16.5677 15.8515 16.5166C15.8603 16.4735 16.314 14.2231 16.3052 14.2662C17.4637 8.53558 17.4166 8.76378 17.4153 8.76917L17.5499 8.10207C17.5775 7.96407 17.3681 7.9183 17.3392 8.05966L17.2295 8.60357C15.519 7.91964 13.7331 7.38784 11.9088 7.0203L12.4965 4.29401C12.6399 3.62017 13.1959 3.16108 13.7297 3.27081L16.3692 3.82818L16.4385 4.50538C16.4439 4.55116 16.4769 4.58953 16.5226 4.59895L19.4253 5.23172C19.4644 5.24047 19.5014 5.22768 19.5276 5.20008L20.0776 4.60703L22.5346 5.11796C23.1135 5.23845 23.3673 5.93584 23.2388 6.5464L19.5707 23.5551C19.4139 24.3023 18.8181 24.682 18.3422 24.5776L9.53324 22.7305C8.95297 22.6107 8.69919 21.9173 8.82911 21.3068ZM10.5948 12.592C8.27577 12.1841 7.28488 12.2548 7.29296 12.1935C7.33739 11.6947 6.96513 11.2525 6.23879 11.2525C6.17888 11.2511 6.13849 11.2289 6.12099 11.2087C6.10888 11.1952 6.10955 11.1872 6.11022 11.1838C6.17619 10.475 6.24957 9.71496 6.34246 8.95092C6.36064 8.77927 6.38285 8.60223 6.40574 8.42316C6.4091 8.40701 6.45286 8.36325 6.52422 8.3545C6.87157 8.30267 7.15901 8.20371 7.39932 8.05427C7.8638 7.78501 7.95333 7.4868 7.99237 7.44304C8.02805 7.41343 8.0846 7.39794 8.13845 7.39996C11.2262 7.61874 14.3833 8.36998 17.0639 9.43156L16.1194 14.0992C14.4998 13.4725 12.5402 12.938 10.5948 12.592ZM5.70835 6.68103C5.71373 6.65343 5.79182 6.60698 5.88 6.60833C7.94323 6.61977 9.82942 6.83653 11.7587 7.20677C11.7587 7.20677 11.7587 7.20677 11.7594 7.20677C12.378 7.3589 14.316 7.66317 17.1871 8.81494L17.1069 9.21547C14.4338 8.1613 11.2633 7.40602 8.15191 7.18522C8.04084 7.17916 7.93381 7.21282 7.84764 7.28418C7.74129 7.38987 7.72782 7.61537 7.28892 7.8705C7.07149 8.00581 6.8103 8.09399 6.49527 8.14178C6.33303 8.16198 6.19975 8.27978 6.19234 8.4023C6.16946 8.57597 6.14724 8.75436 6.12839 8.92669C6.03617 9.69139 5.96212 10.4541 5.89615 11.1636C5.88269 11.3103 6.00992 11.4605 6.23543 11.4679C6.83656 11.4679 7.11188 11.8031 7.08024 12.1646C7.05668 12.2911 7.15631 12.419 7.32662 12.4278C10.1855 12.5725 13.5453 13.3291 16.077 14.3126L15.9531 14.9393C12.5214 13.457 8.66755 12.7825 5.13885 12.868C5.07019 12.868 5.0123 12.8492 4.97932 12.8149C4.96181 12.7967 4.95441 12.7758 4.95441 12.7563C5.17251 9.91084 5.47745 8.20371 5.60468 7.30437C5.60468 7.30437 5.60468 7.30437 5.60468 7.3037C5.63564 7.09569 5.67267 6.88701 5.70835 6.68103ZM5.49697 6.64199C5.46264 6.8372 5.42966 7.03242 5.39936 7.22629C5.33003 7.26937 5.27416 7.32591 5.25598 7.40198C4.90527 9.44502 4.65081 11.4961 4.49868 13.5048C4.49329 13.6805 4.63937 13.8428 4.89988 13.8428C6.32226 13.8118 7.74196 13.8986 9.12463 14.0959L7.03582 23.7914C6.88907 24.4793 7.27748 25.1599 7.93246 25.2979C19.8608 27.7906 19.2005 27.6829 19.4199 27.6829C19.8905 27.6829 20.989 27.3241 21.4091 26.5621C21.4192 26.5433 21.4226 26.5224 21.4205 26.5015C21.5612 26.2249 21.2247 27.5254 25.9731 5.57234C26.1051 4.95842 25.7368 4.362 25.1498 4.23948L24.7399 4.15332C24.3555 3.86588 24.7715 4.09071 13.0417 1.59531C12.3995 1.46068 11.7533 1.91641 11.5998 2.61044L10.6971 6.80287C9.10174 6.54101 7.48212 6.40234 5.88404 6.39359C5.68748 6.38686 5.52592 6.49524 5.49697 6.64199Z" fill="#606062"/>
<path d="M11.843 8.98643C11.61 9.17021 11.6309 9.39033 11.6491 9.58487C11.6518 9.61584 11.6545 9.6468 11.6565 9.67911C11.6659 9.80567 11.6249 9.93963 11.5528 10.0689C11.4485 10.05 11.3415 10.0319 11.229 10.0143C11.1711 10.0056 11.1153 10.0453 11.1059 10.1039C11.0964 10.1624 11.1361 10.217 11.1954 10.2264C11.2681 10.2378 11.3361 10.25 11.4054 10.2621C11.2916 10.3752 11.1543 10.4681 10.9847 10.5307C10.9833 10.5313 10.9827 10.5334 10.9806 10.534C10.9793 10.5347 10.9773 10.534 10.9753 10.5347C10.9658 10.5394 10.9571 10.5414 10.9389 10.5468C10.8844 10.565 10.8635 10.6215 10.879 10.6774C10.8945 10.734 10.9625 10.7663 11.017 10.7528C11.0244 10.7528 11.0298 10.7474 11.0365 10.7461C11.2795 10.703 11.4566 10.7218 11.5623 10.7454C11.6854 10.7737 11.7703 10.8134 11.8591 10.8558C11.95 10.8989 12.0436 10.9433 12.1809 10.9803C12.366 11.0315 12.5491 11.0503 12.7457 11.0436C12.8783 11.0389 12.8917 10.8383 12.7383 10.8289C12.4192 10.8417 12.191 10.7757 11.9513 10.6619C11.8557 10.6162 11.7568 10.569 11.6094 10.5354C11.5656 10.5259 11.5077 10.5179 11.4444 10.5125C11.5784 10.4075 11.5912 10.3947 11.6585 10.3078C11.9049 10.3556 12.1425 10.4081 12.4077 10.4748C12.4677 10.4889 12.5235 10.4519 12.5377 10.3967C12.5525 10.3388 12.5175 10.2802 12.4596 10.2661C12.2199 10.2055 12.0025 10.1571 11.7804 10.1126C12.0072 9.63603 11.7016 9.37215 11.9769 9.15472C12.123 9.03625 12.3445 8.99182 12.5282 9.04298C12.7706 9.10626 12.9187 9.32301 12.8655 9.53641C12.8305 9.67306 13.0392 9.72758 13.0735 9.58824C13.2303 8.96422 12.3896 8.54753 11.843 8.98643Z" fill="#606062"/>
<path d="M11.6136 12.133C11.3221 12.0697 11.0521 11.9364 10.8313 11.7459C10.3379 11.3346 10.1286 10.7106 10.2719 10.0779C10.49 9.12129 11.592 8.40775 12.6859 8.66153C12.7296 8.68172 13.3967 8.78135 13.7542 9.45114C14.4408 10.7382 13.1127 12.448 11.6136 12.133ZM12.7344 8.45217C11.5254 8.17214 10.3076 8.9557 10.0619 10.0301C9.77919 11.2815 10.7674 12.3848 11.9696 12.3848C12.8427 12.3848 13.6815 11.8032 14.0208 10.9112C14.4233 9.8584 13.8902 8.71605 12.7344 8.45217Z" fill="#606062"/>
<path d="M20.0096 14.5654C20.0594 14.5654 20.1045 14.5304 20.1153 14.4799L21.4198 8.10176C21.4313 8.04387 21.3943 7.98665 21.3357 7.97453C21.2798 7.96309 21.2213 8.00011 21.2091 8.05868L19.9045 14.4369C19.8911 14.5028 19.9409 14.5654 20.0096 14.5654Z" fill="#606062"/>
<path d="M7.78385 1.00613C7.62431 0.973817 7.47824 0.879575 7.33755 0.788026C7.28773 0.756387 7.22109 0.769849 7.18878 0.819662C7.15646 0.869476 7.1706 0.936119 7.22042 0.968431C7.3712 1.06604 7.54151 1.17644 7.74077 1.21683C8.1386 1.29693 8.49875 1.03709 8.41662 0.635217C8.26314 -0.119394 7.06088 -0.254024 6.46379 0.51607C6.14337 0.92939 6.03566 1.52581 6.16827 2.15319C6.28473 2.70383 6.55197 3.19793 6.81047 3.67588C6.82999 3.71155 6.86701 3.73242 6.90538 3.73242C6.98616 3.73242 7.03799 3.64491 6.99962 3.57356C6.74786 3.10908 6.48802 2.62844 6.3783 2.10876C6.25915 1.54331 6.35204 1.01151 6.63342 0.648007C6.95384 0.234687 7.54017 0.088613 7.94137 0.322872C8.13659 0.436636 8.29747 0.719362 8.16486 0.897749C8.08071 1.00949 7.91242 1.03373 7.78385 1.00613Z" fill="#606062"/>
<path d="M5.32794 3.41982C5.38516 3.40367 5.41815 3.34443 5.40199 3.28721L5.07551 2.13409C5.05935 2.07754 5.00079 2.04456 4.9429 2.06004C4.88568 2.0762 4.85269 2.13544 4.86885 2.19266L5.19533 3.34578C5.21081 3.40165 5.26871 3.43598 5.32794 3.41982Z" fill="#606062"/>
<path d="M2.63247 2.61434C3.59509 2.57665 4.52741 3.45108 4.5402 4.86337C4.5402 4.92193 4.58867 4.96973 4.64723 4.96973C4.64791 4.96973 4.64858 4.96973 4.64858 4.96973C4.70782 4.96905 4.75561 4.92059 4.75494 4.86068C4.74013 3.36828 3.75934 2.39826 2.69373 2.39826C1.52789 2.39826 0.861324 3.61197 1.36458 4.3208C1.55724 4.59074 1.91683 4.71393 2.20225 4.60622C2.51803 4.4864 2.6843 4.07443 2.50592 3.78833C2.47495 3.73852 2.40865 3.72304 2.3583 3.754C2.30794 3.78564 2.29246 3.85161 2.32389 3.9021C2.42958 4.07174 2.31602 4.33292 2.12585 4.40495C1.93279 4.47832 1.6751 4.38677 1.54 4.19627C1.41372 4.01855 1.37845 3.76276 1.44563 3.51167C1.57864 3.0169 2.07799 2.63992 2.63247 2.61434Z" fill="#606062"/>
</svg>
