<svg width="20" height="21" viewBox="0 0 20 21" fill="none" xmlns="http://www.w3.org/2000/svg">
<path d="M10.8602 14.0262L7.24023 11.2262V10.1762H9.98023C10.2469 10.1762 10.4802 10.1228 10.6802 10.0162C10.8802 9.90951 11.0369 9.76284 11.1502 9.57617C11.2636 9.38284 11.3202 9.15617 11.3202 8.89617C11.3202 8.63617 11.2636 8.41284 11.1502 8.22617C11.0369 8.03284 10.8802 7.88617 10.6802 7.78617C10.4802 7.67951 10.2469 7.62617 9.98023 7.62617H7.24023V6.57617H13.0902V7.34617H11.4202L11.7102 7.12617C11.9569 7.32617 12.1469 7.57617 12.2802 7.87617C12.4202 8.17617 12.4902 8.51951 12.4902 8.90617C12.4902 9.38617 12.3802 9.79951 12.1602 10.1462C11.9469 10.4928 11.6502 10.7595 11.2702 10.9462C10.8902 11.1328 10.4502 11.2262 9.95023 11.2262H8.51023L8.62023 10.8962L12.6002 14.0262H10.8602ZM7.24023 9.28617V8.50617H13.0902V9.28617H7.24023Z" fill="#606062"/>
</svg>
