<svg width="25" height="24" viewBox="0 0 25 24" fill="none" xmlns="http://www.w3.org/2000/svg">
<path d="M11.6081 1.70228C12.0507 0.942392 13.1485 0.942392 13.5911 1.70228L16.2245 6.22357C16.3866 6.50193 16.6583 6.69932 16.9732 6.7675L22.0869 7.87487C22.9464 8.06098 23.2856 9.10504 22.6997 9.76079L19.2135 13.6625C18.9988 13.9027 18.8951 14.2221 18.9275 14.5426L19.4546 19.7482C19.5432 20.6232 18.655 21.2684 17.8503 20.9138L13.0623 18.8039C12.7675 18.674 12.4317 18.674 12.1369 18.8039L7.3489 20.9138C6.54418 21.2684 5.65605 20.6232 5.74463 19.7482L6.2717 14.5426C6.30415 14.2221 6.20038 13.9027 5.98574 13.6625L2.49951 9.76079C1.91358 9.10504 2.25282 8.06098 3.11229 7.87487L8.22606 6.7675C8.5409 6.69932 8.81258 6.50193 8.97471 6.22357L11.6081 1.70228Z" fill="#FDE7E2" stroke="#F25533" stroke-width="1.12"/>
<path d="M10.2046 10.1992H10.1992M14.9992 10.1992H14.9938" stroke="#F25533" stroke-width="1.2" stroke-linecap="round" stroke-linejoin="round"/>
<path d="M10.7988 14.211C12.0558 13.3849 13.5012 13.8868 14.3988 15.0008" stroke="#F25533" stroke-width="0.6" stroke-linecap="round" stroke-linejoin="round"/>
</svg>
