<svg width="120" height="99" viewBox="0 0 120 99" fill="none" xmlns="http://www.w3.org/2000/svg">
<path d="M53.4635 9.71426L39.0291 24.179L39.794 24.9423L54.2284 10.4776L53.4635 9.71426Z" fill="#001B62"/>
<path d="M55.4251 10.0004L54.5129 10.5797L67.3834 30.8447L68.2956 30.2654L55.4251 10.0004Z" fill="#001B62"/>
<path d="M56.8353 10.1295C56.7497 10.615 56.522 11.0642 56.1809 11.4203C55.8399 11.7763 55.4009 12.0231 54.9195 12.1295C54.4381 12.2359 53.936 12.197 53.4767 12.0179C53.0174 11.8388 52.6216 11.5274 52.3393 11.1232C52.0571 10.719 51.9011 10.2401 51.8911 9.74722C51.8812 9.25433 52.0177 8.76956 52.2834 8.35428C52.5491 7.93901 52.932 7.6119 53.3837 7.41437C53.8354 7.21685 54.3356 7.15778 54.8209 7.24465C55.1428 7.3014 55.4503 7.42111 55.7258 7.5969C56.0014 7.7727 56.2395 8.00113 56.4267 8.26912C56.6138 8.5371 56.7462 8.83938 56.8163 9.15862C56.8864 9.47786 56.8929 9.8078 56.8353 10.1295Z" fill="#001B62"/>
<path d="M54.626 8.34689C54.8971 8.38816 55.1497 8.50937 55.3516 8.69501C55.5534 8.88065 55.6953 9.12228 55.759 9.389C55.8228 9.65572 55.8056 9.9354 55.7095 10.1923C55.6134 10.4491 55.4429 10.6715 55.2198 10.8309C54.9967 10.9903 54.7311 11.0796 54.4569 11.0872C54.1828 11.0949 53.9126 11.0205 53.681 10.8738C53.4493 10.727 53.2667 10.5145 53.1565 10.2634C53.0463 10.0123 53.0135 9.73399 53.0623 9.46414C53.1246 9.1102 53.3234 8.79486 53.6158 8.58593C53.9082 8.377 54.2709 8.29117 54.626 8.34689Z" fill="#CBC0FC"/>
<path d="M15.0742 76.5407C11.6403 75.9486 8.50657 74.4195 6.35146 72.2843C4.19635 70.1491 3.19331 67.5798 3.5595 65.1325L8.64555 28.7862C8.81286 27.5519 9.32007 26.383 10.1382 25.3461C10.9562 24.3093 12.0692 23.425 13.4132 22.7438C14.7573 22.0626 16.3062 21.5978 17.9713 21.3761C19.6363 21.1544 21.3849 21.18 23.117 21.4516L101.182 33.8042C102.913 34.0708 104.594 34.5795 106.129 35.3006C107.663 36.0217 109.021 36.941 110.122 38.0054C111.224 39.0697 112.048 40.258 112.547 41.5015C113.045 42.7449 113.209 44.0189 113.028 45.2497L107.941 81.6028C107.588 84.0899 105.863 86.255 103.145 87.6228C100.428 88.9906 96.9396 89.4492 93.4463 88.8981L15.4022 76.5985L15.0742 76.5407ZM101.306 35.0194L101.016 34.9684L22.9612 22.6175C21.4435 22.3792 19.9113 22.3562 18.4521 22.5499C16.9929 22.7437 15.6353 23.1502 14.4569 23.7465C13.2785 24.3427 12.3024 25.1169 11.5844 26.0248C10.8663 26.9327 10.4204 27.9565 10.2721 29.0377L5.17641 65.3823C4.89371 67.5257 5.7887 69.7651 7.67305 71.6292C9.5574 73.4932 12.2842 74.8365 15.2795 75.3764L15.5592 75.4257L93.6299 87.7441C95.146 87.9858 96.6776 88.0118 98.1368 87.8207C99.5959 87.6296 100.954 87.2251 102.133 86.6304C103.311 86.0358 104.288 85.2627 105.006 84.3555C105.723 83.4484 106.168 82.4251 106.315 81.3445L111.412 44.993C111.72 42.85 110.833 40.6039 108.942 38.7384C107.052 36.873 104.31 35.5374 101.306 35.0194Z" fill="#001B62"/>
<path d="M97.1579 32.9144L21.108 25.4991C17.9276 25.1976 14.8686 25.7965 12.6016 27.1647C10.3346 28.5328 9.0446 30.5584 9.01452 32.7974L8.48537 67.7917C8.46818 68.9034 8.76259 70.0346 9.35175 71.1207C9.94091 72.2067 10.8133 73.2262 11.9189 74.1209C13.0245 75.0155 14.3417 75.7678 15.795 76.3346C17.2484 76.9013 18.8094 77.2715 20.3888 77.4239L96.4388 84.8393C98.0176 84.9944 99.5844 84.9288 101.05 84.6463C102.515 84.3637 103.85 83.8697 104.978 83.1925C106.106 82.5154 107.005 81.6684 107.623 80.7001C108.241 79.7318 108.567 78.6612 108.581 77.5496L109.11 42.5553C109.128 41.4405 108.833 40.3059 108.241 39.2169C107.649 38.1278 106.773 37.1059 105.662 36.2099C104.551 35.3138 103.228 34.5614 101.768 33.9958C100.309 33.4302 98.742 33.0627 97.1579 32.9144Z" fill="#D7CEFD"/>
<path d="M92.8586 80.8316L95.3372 84.5868L80.5592 96.962L81.1871 83.3401L92.8586 80.8316Z" fill="#D7CEFD"/>
<path d="M22.1314 51.8744C21.4618 51.7563 20.9068 51.5407 20.4665 51.2274C20.0341 50.9156 19.6651 50.4972 19.3596 49.9722L20.6108 49.0961C20.798 49.4622 21.0372 49.7643 21.3283 50.0025C21.6207 50.2328 21.9994 50.3889 22.4642 50.4709C22.8818 50.5445 23.2272 50.5201 23.5007 50.3977C23.7819 50.2767 23.9483 50.0705 23.9997 49.779C24.0441 49.5269 24.0093 49.3095 23.8953 49.127C23.7813 48.9444 23.6158 48.7771 23.3989 48.6251C23.1899 48.4745 22.9512 48.3309 22.6829 48.1942C22.4238 48.0511 22.1629 47.8954 21.9001 47.7272C21.6452 47.5604 21.4148 47.3695 21.209 47.1545C21.0125 46.933 20.8676 46.6719 20.7744 46.3711C20.6826 46.0625 20.6743 45.6955 20.7493 45.27C20.8382 44.7658 21.036 44.358 21.3427 44.0465C21.6495 43.7351 22.0323 43.5223 22.491 43.4082C22.9498 43.2942 23.4471 43.2844 23.9828 43.3788C24.55 43.4788 25.0434 43.6755 25.4628 43.9688C25.8823 44.2621 26.2079 44.6038 26.4397 44.994L25.1885 45.87C24.9915 45.5591 24.7741 45.3177 24.5364 45.1458C24.3065 44.9753 24.03 44.8615 23.707 44.8046C23.3367 44.7393 23.0327 44.7588 22.795 44.8631C22.5573 44.9674 22.4148 45.1535 22.3676 45.4214C22.3273 45.6498 22.3656 45.8475 22.4824 46.0143C22.5992 46.1811 22.7628 46.3359 22.9732 46.4786C23.1915 46.6227 23.4302 46.7663 23.6892 46.9095C23.9562 47.054 24.2171 47.2097 24.472 47.3765C24.7348 47.5447 24.9638 47.7435 25.1589 47.9728C25.3619 48.2036 25.508 48.4812 25.597 48.8056C25.6874 49.1221 25.6944 49.497 25.618 49.9303C25.4819 50.7024 25.1031 51.2611 24.4817 51.6064C23.8603 51.9518 23.0768 52.0411 22.1314 51.8744ZM27.1788 52.6425L28.6437 44.3347L30.2509 44.6181L28.786 52.9259L27.1788 52.6425ZM28.3605 52.8509L28.6106 51.4328L33.2077 52.2434L32.9576 53.6615L28.3605 52.8509ZM28.9877 49.2938L29.2295 47.9229L33.4129 48.6606L33.1712 50.0314L28.9877 49.2938ZM29.5754 45.9612L29.8254 44.5431L34.3634 45.3432L34.1134 46.7614L29.5754 45.9612ZM38.6786 54.7921C38.072 54.6851 37.5274 54.4795 37.0449 54.175C36.5639 53.8628 36.1604 53.4789 35.8345 53.0234C35.5179 52.5614 35.2991 52.0516 35.1781 51.4941C35.065 50.9381 35.0612 50.3606 35.1667 49.7619C35.2723 49.1631 35.4734 48.6218 35.7699 48.1379C36.0743 47.6555 36.4536 47.2552 36.9077 46.9373C37.3697 46.6207 37.8762 46.3972 38.4272 46.2669C38.986 46.138 39.5727 46.1277 40.1873 46.2361C40.849 46.3528 41.4126 46.5659 41.8779 46.8754C42.3446 47.177 42.7377 47.551 43.057 47.9972L41.7781 48.8927C41.5941 48.6003 41.3491 48.354 41.0432 48.1539C40.7374 47.9537 40.3638 47.8147 39.9226 47.7369C39.5366 47.6689 39.1702 47.6733 38.8236 47.7503C38.4862 47.8208 38.1771 47.9613 37.8963 48.1717C37.6169 48.3742 37.3836 48.6377 37.1964 48.9622C37.0107 49.2787 36.8816 49.6418 36.8094 50.0515C36.7358 50.4691 36.7321 50.8583 36.7984 51.2193C36.8648 51.5803 36.9939 51.9077 37.1858 52.2015C37.3791 52.4874 37.6215 52.7251 37.913 52.9146C38.2124 53.1055 38.5551 53.235 38.9412 53.3031C39.406 53.385 39.8164 53.3843 40.1723 53.3008C40.536 53.2187 40.8551 53.0679 41.1294 52.8482L42.0249 54.1271C41.5708 54.4451 41.0689 54.6653 40.5193 54.7877C39.9697 54.9101 39.3561 54.9116 38.6786 54.7921ZM47.1879 56.3047C46.5813 56.1977 46.0335 55.9874 45.5445 55.6738C45.0634 55.3615 44.66 54.9776 44.3341 54.5221C44.0175 54.0601 43.7948 53.5496 43.6659 52.9908C43.5384 52.424 43.5274 51.8413 43.633 51.2425C43.7385 50.6437 43.9428 50.1071 44.2459 49.6325C44.5581 49.1514 44.9413 48.7519 45.3955 48.4339C45.8588 48.1094 46.3693 47.8867 46.9268 47.7656C47.4856 47.6367 48.0684 47.6258 48.675 47.7327C49.2896 47.8411 49.8374 48.0514 50.3184 48.3637C50.8009 48.6681 51.2004 49.0513 51.517 49.5133C51.8429 49.9688 52.0703 50.476 52.1992 51.0348C52.3281 51.5937 52.3397 52.1725 52.2342 52.7713C52.1286 53.3701 51.9197 53.91 51.6074 54.3911C51.2951 54.8722 50.9073 55.2749 50.4439 55.5994C49.9898 55.9174 49.4833 56.1408 48.9244 56.2697C48.3734 56.4 47.7946 56.4117 47.1879 56.3047ZM47.4289 54.7997C47.9647 54.8942 48.4503 54.858 48.8859 54.6911C49.3215 54.5242 49.6864 54.2514 49.9807 53.8727C50.2828 53.4955 50.4831 53.0271 50.5818 52.4678C50.654 52.0581 50.657 51.6727 50.5906 51.3117C50.5243 50.9507 50.3945 50.6273 50.2012 50.3414C50.0093 50.0476 49.7637 49.8053 49.4643 49.6144C49.1649 49.4235 48.8143 49.2926 48.4125 49.2218C47.8925 49.1301 47.4108 49.167 46.9673 49.3325C46.5331 49.4915 46.1649 49.7596 45.8628 50.1369C45.5686 50.5156 45.3729 50.9807 45.2756 51.5321C45.202 51.9497 45.1977 52.3429 45.2626 52.7118C45.3354 53.0821 45.4645 53.4095 45.6499 53.694C45.8432 53.9799 46.0896 54.2183 46.389 54.4092C46.6962 54.6015 47.0429 54.7316 47.4289 54.7997ZM53.4837 57.2808L54.9486 48.973L56.0713 49.1709L56.2724 50.8636L55.0909 57.5642L53.4837 57.2808ZM59.2271 58.2935L55.4244 51.043L56.0713 49.1709L59.8741 56.4214L59.2271 58.2935ZM59.2271 58.2935L59.0413 56.6523L60.2311 49.9044L61.8502 50.1899L60.3853 58.4977L59.2271 58.2935ZM63.8781 59.1136L64.1303 57.6837L66.2456 58.0567C66.7814 58.1511 67.2696 58.1235 67.7103 57.9737C68.1524 57.8161 68.5198 57.5519 68.8127 57.1811C69.1134 56.8117 69.3131 56.3474 69.4117 55.788C69.5075 55.2444 69.4767 54.7515 69.319 54.3094C69.1628 53.8595 68.9032 53.4888 68.5403 53.1973C68.1788 52.898 67.7341 52.7018 67.2063 52.6087L65.0554 52.2295L65.3076 50.7995L67.482 51.1829C68.0966 51.2913 68.6457 51.4937 69.1296 51.7903C69.6213 52.0882 70.0269 52.4603 70.3463 52.9065C70.6749 53.3462 70.9011 53.837 71.0249 54.3787C71.1566 54.9218 71.1697 55.4928 71.0641 56.0915C70.9585 56.6903 70.7503 57.2263 70.4394 57.6995C70.1378 58.1662 69.7606 58.5546 69.3079 58.8647C68.8565 59.1669 68.3489 59.3739 67.7849 59.4857C67.2288 59.5988 66.6474 59.6019 66.0408 59.4949L63.8781 59.1136ZM62.7791 58.9198L64.244 50.612L65.8512 50.8954L64.3863 59.2032L62.7791 58.9198ZM71.7023 60.4932L76.5116 52.7751L77.8233 53.0064L79.691 61.9019L77.9775 61.5997L76.6036 54.3266L77.1944 54.4308L73.3804 60.7891L71.7023 60.4932ZM73.7479 59.2577L73.9855 57.9105L78.4525 58.6981L78.215 60.0453L73.7479 59.2577ZM83.1757 58.9339L83.3966 57.6812L85.3229 58.0209C85.7168 58.0903 86.0375 58.0453 86.285 57.8859C86.5417 57.7199 86.7013 57.4597 86.7638 57.1052C86.8208 56.7821 86.7577 56.4948 86.5746 56.2432C86.4008 55.9851 86.1169 55.8213 85.723 55.7519L83.7967 55.4122L84.028 54.1004L86.0961 54.4651C86.6318 54.5596 87.0819 54.7486 87.4461 55.0321C87.8197 55.3092 88.0848 55.6484 88.2415 56.0497C88.4061 56.4524 88.4467 56.8901 88.3634 57.3628C88.2772 57.8513 88.088 58.2566 87.7956 58.5787C87.5125 58.8943 87.148 59.1185 86.7022 59.2511C86.2578 59.3758 85.7638 59.3902 85.2202 59.2944L83.1757 58.9339ZM81.3813 62.1999L82.8462 53.8921L84.4534 54.1755L82.9885 62.4833L81.3813 62.1999ZM85.9193 63.0001L83.8111 58.9241L85.3696 58.7236L87.8693 63.3439L85.9193 63.0001ZM92.1904 60.8037L89.8762 55.1316L91.7316 55.4588L93.5041 59.9874L92.4405 59.7998L95.655 56.1506L97.4868 56.4736L93.3367 61.0058L92.1904 60.8037ZM91.413 63.9688L92.1298 59.9035L93.7488 60.1889L93.032 64.2542L91.413 63.9688Z" fill="#001B62"/>
</svg>
