<svg width="71" height="62" viewBox="0 0 71 62" fill="none" xmlns="http://www.w3.org/2000/svg">
<path d="M2.14282 26.3677C3.18884 27.412 4.60315 27.9982 6.0814 27.9982C7.1888 27.9982 8.2655 27.6675 9.17342 27.0595L5.21184 31.0232C4.16581 32.0674 3.58012 33.4833 3.58012 34.9597C3.58012 36.4362 4.16581 37.852 5.21184 38.8963C6.25531 39.9405 7.67216 40.5267 9.14785 40.5267C10.2553 40.5267 11.332 40.196 12.2399 39.5881L10.1606 41.6678C9.11717 42.7121 8.52892 44.1282 8.52892 45.6057C8.52892 47.0821 9.11717 48.498 10.1606 49.5422C11.2041 50.5864 12.621 51.1726 14.0966 51.1726C15.2066 51.1726 16.2808 50.8419 17.1887 50.234L16.6823 50.7427C15.6388 51.7859 15.0506 53.2017 15.0506 54.6793C15.0506 56.1556 15.6388 57.5716 16.6823 58.6159C17.7258 59.6601 19.1426 60.2463 20.6183 60.2463C22.094 60.2463 23.5109 59.6601 24.5543 58.6159L29.8305 53.3398C29.2244 54.2493 28.8919 55.3237 28.8919 56.4337C28.8919 57.91 29.4801 59.326 30.5236 60.3702C31.567 61.4134 32.9839 62.0007 34.4596 62.0007C35.9353 62.0007 37.3522 61.4134 38.3956 60.3702L46.4135 52.3537C45.8048 53.2634 45.4748 54.3377 45.4748 55.4466C45.4748 56.924 46.0605 58.34 47.104 59.3842C48.15 60.4273 49.5643 61.0147 51.0426 61.0147C52.5183 61.0147 53.9351 60.4273 54.9786 59.3842L67.4567 46.9041C68.5027 45.8599 69.0884 44.444 69.0884 42.9676C69.0884 41.4914 68.5027 40.0753 67.4567 39.031C66.4133 37.9868 64.9989 37.4006 63.5207 37.4006C62.4107 37.4006 61.3366 37.7313 60.4287 38.3392L63.0399 35.726C64.0834 34.6827 64.6716 33.2669 64.6716 31.7894C64.6716 30.313 64.0834 28.8971 63.0399 27.8526C61.9964 26.8087 60.5795 26.2222 59.1039 26.2222C57.9939 26.2222 56.9197 26.5532 56.0093 27.1608L61.2854 21.8849C62.3315 20.8407 62.9171 19.4246 62.9171 17.9484C62.9171 16.4719 62.3315 15.0558 61.2854 14.0116C60.242 12.9676 58.8251 12.3812 57.3494 12.3812C56.2394 12.3812 55.1653 12.7121 54.2548 13.3198L57.6154 9.95972C58.6614 8.91549 59.2471 7.49964 59.2471 6.02318C59.2471 4.54698 58.6614 3.13089 57.6154 2.08665C56.5719 1.04242 55.1551 0.455208 53.6794 0.455208C52.2037 0.455208 50.7868 1.04242 49.7433 2.08665L42.2575 9.5697C42.8662 8.66127 43.1961 7.58583 43.1961 6.47689C43.1961 5.00069 42.6104 3.58459 41.567 2.54036C40.5235 1.49612 39.1066 0.909939 37.6309 0.909939C36.1527 0.909939 34.7384 1.49612 33.6949 2.54036L23.1886 13.0441C23.7948 12.1354 24.1272 11.0612 24.1272 9.95128C24.1272 8.47482 23.539 7.05873 22.4955 6.01475C21.4521 4.97051 20.0378 4.38408 18.5595 4.38408C17.0838 4.38408 15.667 4.97051 14.6235 6.01475L2.14282 18.4936C1.09935 19.5379 0.513672 20.9537 0.513672 22.4312C0.513672 23.9077 1.09935 25.3235 2.14282 26.3677Z" fill="white"/>
<path d="M68.9253 50.0963L68.5404 50.4821C68.3915 50.6319 68.3915 50.8765 68.5404 51.0274C68.6918 51.1784 68.9356 51.1784 69.087 51.0274L69.472 50.6417L69.857 51.0274C70.0084 51.1784 70.2496 51.1784 70.4011 51.0274C70.5525 50.8765 70.5525 50.6319 70.4011 50.4821L70.0161 50.0963L70.4011 49.7116C70.5525 49.5607 70.5525 49.3171 70.4011 49.1662C70.3266 49.0908 70.2291 49.053 70.129 49.053C70.0315 49.053 69.9314 49.0908 69.857 49.1662L69.472 49.5509L69.087 49.1662C69.01 49.0908 68.9125 49.053 68.8124 49.053C68.7149 49.053 68.6148 49.0908 68.5404 49.1662C68.3915 49.3171 68.3915 49.5607 68.5404 49.7116L68.9253 50.0963Z" fill="white"/>
<path d="M13.8781 58.3963L13.4948 58.781C13.3432 58.9319 13.3432 59.1765 13.4948 59.3263C13.6441 59.4772 13.8893 59.4772 14.0386 59.3263L14.4242 58.9415L14.8098 59.3263C14.9591 59.4772 15.2043 59.4772 15.3558 59.3263C15.5051 59.1765 15.5051 58.9319 15.3558 58.781L14.9702 58.3963L15.3558 58.0116C15.5051 57.8607 15.5051 57.6161 15.3558 57.4663C15.28 57.3908 15.1797 57.3532 15.0817 57.3532C14.9836 57.3532 14.8855 57.3908 14.8098 57.4663L14.4242 57.851L14.0386 57.4663C13.9651 57.3908 13.8648 57.3532 13.7667 57.3532C13.6686 57.3532 13.5706 57.3908 13.4948 57.4663C13.3432 57.6161 13.3432 57.8607 13.4948 58.0116L13.8781 58.3963Z" fill="white"/>
<path d="M4.02258 24.2504L3.63662 24.6364C3.48701 24.786 3.48701 25.0308 3.63662 25.1817C3.78841 25.3313 4.03343 25.3313 4.18305 25.1817L4.569 24.7958L4.9528 25.1817C5.10458 25.3313 5.34743 25.3313 5.49704 25.1817C5.64882 25.0308 5.64882 24.786 5.49704 24.6364L5.11324 24.2504L5.49704 23.8658C5.64882 23.7149 5.64882 23.4703 5.49704 23.3204C5.42332 23.245 5.32357 23.2075 5.226 23.2075C5.12626 23.2075 5.02869 23.245 4.9528 23.3204L4.569 23.7053L4.18305 23.3204C4.10715 23.245 4.00957 23.2075 3.90982 23.2075C3.81225 23.2075 3.71252 23.245 3.63662 23.3204C3.48701 23.4703 3.48701 23.7149 3.63662 23.8658L4.02258 24.2504Z" fill="white"/>
<path d="M50.3884 4.45385L50.0033 4.83869C49.8537 4.98953 49.8537 5.23309 50.0033 5.38394C50.1554 5.53478 50.3982 5.53478 50.5478 5.38394L50.9329 4.9991L51.3205 5.38394C51.4701 5.53478 51.7129 5.53478 51.865 5.38394C52.0146 5.23309 52.0146 4.98953 51.865 4.83869L51.4799 4.45385L51.865 4.06802C52.0146 3.91717 52.0146 3.67361 51.865 3.52277C51.789 3.44722 51.6908 3.4097 51.5927 3.4097C51.4922 3.4097 51.3941 3.44722 51.3205 3.52277L50.9329 3.90859L50.5478 3.52277C50.4743 3.44722 50.3737 3.4097 50.2756 3.4097C50.1775 3.4097 50.0794 3.44722 50.0033 3.52277C49.8537 3.67361 49.8537 3.91717 50.0033 4.06802L50.3884 4.45385Z" fill="white"/>
<path d="M43.3362 60.4139C43.5335 60.4139 43.6923 60.2545 43.6923 60.0595C43.6923 59.8633 43.5335 59.7038 43.3362 59.7038C43.1412 59.7038 42.9824 59.8633 42.9824 60.0595C42.9824 60.2545 43.1412 60.4139 43.3362 60.4139ZM43.3362 58.9322C43.957 58.9322 44.4624 59.4377 44.4624 60.0595C44.4624 60.6801 43.957 61.1855 43.3362 61.1855C42.7153 61.1855 42.21 60.6801 42.21 60.0595C42.21 59.4377 42.7153 58.9322 43.3362 58.9322Z" fill="white"/>
<path d="M64.564 24.5279C64.7593 24.5279 64.9191 24.3686 64.9191 24.1726C64.9191 23.9762 64.7593 23.8167 64.564 23.8167C64.3687 23.8167 64.2089 23.9762 64.2089 24.1726C64.2089 24.3686 64.3687 24.5279 64.564 24.5279ZM64.564 23.0463C65.1855 23.0463 65.6903 23.5516 65.6903 24.1726C65.6903 24.793 65.1855 25.2986 64.564 25.2986C63.9425 25.2986 63.4377 24.793 63.4377 24.1726C63.4377 23.5516 63.9425 23.0463 64.564 23.0463Z" fill="white"/>
<path d="M17.4141 6.4509C17.6096 6.4509 17.7691 6.29156 17.7691 6.09648C17.7691 5.90028 17.6096 5.74094 17.4141 5.74094C17.2185 5.74094 17.0589 5.90028 17.0589 6.09648C17.0589 6.29156 17.2185 6.4509 17.4141 6.4509ZM17.4141 4.9703C18.0366 4.9703 18.54 5.47462 18.54 6.09648C18.54 6.71722 18.0366 7.22266 17.4141 7.22266C16.7938 7.22266 16.2881 6.71722 16.2881 6.09648C16.2881 5.47462 16.7938 4.9703 17.4141 4.9703Z" fill="white"/>
<path d="M4.29359 41.6179C4.49078 41.6179 4.64897 41.4584 4.64897 41.2623C4.64897 41.0673 4.49078 40.9076 4.29359 40.9076C4.09856 40.9076 3.9382 41.0673 3.9382 41.2623C3.9382 41.4584 4.09856 41.6179 4.29359 41.6179ZM4.29359 40.1361C4.91549 40.1361 5.42038 40.6415 5.42038 41.2623C5.42038 41.884 4.91549 42.3884 4.29359 42.3884C3.67385 42.3884 3.16895 41.884 3.16895 41.2623C3.16895 40.6415 3.67385 40.1361 4.29359 40.1361Z" fill="white"/>
<path d="M2.14282 26.3677C3.18884 27.412 4.60315 27.9982 6.0814 27.9982C7.1888 27.9982 8.2655 27.6675 9.17342 27.0595L5.21184 31.0232C4.16581 32.0674 3.58012 33.4833 3.58012 34.9597C3.58012 36.4362 4.16581 37.852 5.21184 38.8963C6.25531 39.9405 7.67216 40.5267 9.14785 40.5267C10.2553 40.5267 11.332 40.196 12.2399 39.5881L10.1606 41.6678C9.11717 42.7121 8.52892 44.1282 8.52892 45.6057C8.52892 47.0821 9.11717 48.498 10.1606 49.5422C11.2041 50.5864 12.621 51.1726 14.0966 51.1726C15.2066 51.1726 16.2808 50.8419 17.1887 50.234L16.6823 50.7427C15.6388 51.7859 15.0506 53.2017 15.0506 54.6793C15.0506 56.1556 15.6388 57.5716 16.6823 58.6159C17.7258 59.6601 19.1426 60.2463 20.6183 60.2463C22.094 60.2463 23.5109 59.6601 24.5543 58.6159L29.8305 53.3398C29.2244 54.2493 28.8919 55.3237 28.8919 56.4337C28.8919 57.91 29.4801 59.326 30.5236 60.3702C31.567 61.4134 32.9839 62.0007 34.4596 62.0007C35.9353 62.0007 37.3522 61.4134 38.3956 60.3702L46.4135 52.3537C45.8048 53.2634 45.4748 54.3377 45.4748 55.4466C45.4748 56.924 46.0605 58.34 47.104 59.3842C48.15 60.4273 49.5643 61.0147 51.0426 61.0147C52.5183 61.0147 53.9351 60.4273 54.9786 59.3842L67.4567 46.9041C68.5027 45.8599 69.0884 44.444 69.0884 42.9676C69.0884 41.4914 68.5027 40.0753 67.4567 39.031C66.4133 37.9868 64.9989 37.4006 63.5207 37.4006C62.4107 37.4006 61.3366 37.7313 60.4287 38.3392L63.0399 35.726C64.0834 34.6827 64.6716 33.2669 64.6716 31.7894C64.6716 30.313 64.0834 28.8971 63.0399 27.8526C61.9964 26.8087 60.5795 26.2222 59.1039 26.2222C57.9939 26.2222 56.9197 26.5532 56.0093 27.1608L61.2854 21.8849C62.3315 20.8407 62.9171 19.4246 62.9171 17.9484C62.9171 16.4719 62.3315 15.0558 61.2854 14.0116C60.242 12.9676 58.8251 12.3812 57.3494 12.3812C56.2394 12.3812 55.1653 12.7121 54.2548 13.3198L57.6154 9.95972C58.6614 8.91549 59.2471 7.49964 59.2471 6.02318C59.2471 4.54698 58.6614 3.13089 57.6154 2.08665C56.5719 1.04242 55.1551 0.455208 53.6794 0.455208C52.2037 0.455208 50.7868 1.04242 49.7433 2.08665L42.2575 9.5697C42.8662 8.66127 43.1961 7.58583 43.1961 6.47689C43.1961 5.00069 42.6104 3.58459 41.567 2.54036C40.5235 1.49612 39.1066 0.909939 37.6309 0.909939C36.1527 0.909939 34.7384 1.49612 33.6949 2.54036L23.1886 13.0441C23.7948 12.1354 24.1272 11.0612 24.1272 9.95128C24.1272 8.47482 23.539 7.05873 22.4955 6.01475C21.4521 4.97051 20.0378 4.38408 18.5595 4.38408C17.0838 4.38408 15.667 4.97051 14.6235 6.01475L2.14282 18.4936C1.09935 19.5379 0.513672 20.9537 0.513672 22.4312C0.513672 23.9077 1.09935 25.3235 2.14282 26.3677Z" fill="#D3EBF8"/>
<path d="M68.9253 50.0963L68.5404 50.4821C68.3915 50.6319 68.3915 50.8765 68.5404 51.0274C68.6918 51.1784 68.9356 51.1784 69.087 51.0274L69.472 50.6417L69.857 51.0274C70.0084 51.1784 70.2496 51.1784 70.4011 51.0274C70.5525 50.8765 70.5525 50.6319 70.4011 50.4821L70.0161 50.0963L70.4011 49.7116C70.5525 49.5607 70.5525 49.3171 70.4011 49.1662C70.3266 49.0908 70.2291 49.053 70.129 49.053C70.0315 49.053 69.9314 49.0908 69.857 49.1662L69.472 49.5509L69.087 49.1662C69.01 49.0908 68.9125 49.053 68.8124 49.053C68.7149 49.053 68.6148 49.0908 68.5404 49.1662C68.3915 49.3171 68.3915 49.5607 68.5404 49.7116L68.9253 50.0963Z" fill="#91CEEE"/>
<path d="M13.8781 58.3963L13.4948 58.781C13.3432 58.9319 13.3432 59.1765 13.4948 59.3263C13.6441 59.4772 13.8893 59.4772 14.0386 59.3263L14.4242 58.9415L14.8098 59.3263C14.9591 59.4772 15.2043 59.4772 15.3558 59.3263C15.5051 59.1765 15.5051 58.9319 15.3558 58.781L14.9702 58.3963L15.3558 58.0116C15.5051 57.8607 15.5051 57.6161 15.3558 57.4663C15.28 57.3908 15.1797 57.3532 15.0817 57.3532C14.9836 57.3532 14.8855 57.3908 14.8098 57.4663L14.4242 57.851L14.0386 57.4663C13.9651 57.3908 13.8648 57.3532 13.7667 57.3532C13.6686 57.3532 13.5706 57.3908 13.4948 57.4663C13.3432 57.6161 13.3432 57.8607 13.4948 58.0116L13.8781 58.3963Z" fill="#91CEEE"/>
<path d="M4.02258 24.2504L3.63662 24.6364C3.48701 24.786 3.48701 25.0308 3.63662 25.1817C3.78841 25.3313 4.03343 25.3313 4.18305 25.1817L4.569 24.7958L4.9528 25.1817C5.10458 25.3313 5.34743 25.3313 5.49704 25.1817C5.64882 25.0308 5.64882 24.786 5.49704 24.6364L5.11324 24.2504L5.49704 23.8658C5.64882 23.7149 5.64882 23.4703 5.49704 23.3204C5.42332 23.245 5.32357 23.2075 5.226 23.2075C5.12626 23.2075 5.02869 23.245 4.9528 23.3204L4.569 23.7053L4.18305 23.3204C4.10715 23.245 4.00957 23.2075 3.90982 23.2075C3.81225 23.2075 3.71252 23.245 3.63662 23.3204C3.48701 23.4703 3.48701 23.7149 3.63662 23.8658L4.02258 24.2504Z" fill="#91CEEE"/>
<path d="M50.3884 4.45385L50.0033 4.83869C49.8537 4.98953 49.8537 5.23309 50.0033 5.38394C50.1554 5.53478 50.3982 5.53478 50.5478 5.38394L50.9329 4.9991L51.3205 5.38394C51.4701 5.53478 51.7129 5.53478 51.865 5.38394C52.0146 5.23309 52.0146 4.98953 51.865 4.83869L51.4799 4.45385L51.865 4.06802C52.0146 3.91717 52.0146 3.67361 51.865 3.52277C51.789 3.44722 51.6908 3.4097 51.5927 3.4097C51.4922 3.4097 51.3941 3.44722 51.3205 3.52277L50.9329 3.90859L50.5478 3.52277C50.4743 3.44722 50.3737 3.4097 50.2756 3.4097C50.1775 3.4097 50.0794 3.44722 50.0033 3.52277C49.8537 3.67361 49.8537 3.91717 50.0033 4.06802L50.3884 4.45385Z" fill="#91CEEE"/>
<path d="M43.3362 60.4139C43.5335 60.4139 43.6923 60.2545 43.6923 60.0595C43.6923 59.8633 43.5335 59.7038 43.3362 59.7038C43.1412 59.7038 42.9824 59.8633 42.9824 60.0595C42.9824 60.2545 43.1412 60.4139 43.3362 60.4139ZM43.3362 58.9322C43.957 58.9322 44.4624 59.4377 44.4624 60.0595C44.4624 60.6801 43.957 61.1855 43.3362 61.1855C42.7153 61.1855 42.21 60.6801 42.21 60.0595C42.21 59.4377 42.7153 58.9322 43.3362 58.9322Z" fill="#91CEEE"/>
<path d="M64.564 24.5279C64.7593 24.5279 64.9191 24.3686 64.9191 24.1726C64.9191 23.9762 64.7593 23.8167 64.564 23.8167C64.3687 23.8167 64.2089 23.9762 64.2089 24.1726C64.2089 24.3686 64.3687 24.5279 64.564 24.5279ZM64.564 23.0463C65.1855 23.0463 65.6903 23.5516 65.6903 24.1726C65.6903 24.793 65.1855 25.2986 64.564 25.2986C63.9425 25.2986 63.4377 24.793 63.4377 24.1726C63.4377 23.5516 63.9425 23.0463 64.564 23.0463Z" fill="#91CEEE"/>
<path d="M17.4141 6.4509C17.6096 6.4509 17.7691 6.29156 17.7691 6.09648C17.7691 5.90028 17.6096 5.74094 17.4141 5.74094C17.2185 5.74094 17.0589 5.90028 17.0589 6.09648C17.0589 6.29156 17.2185 6.4509 17.4141 6.4509ZM17.4141 4.9703C18.0366 4.9703 18.54 5.47462 18.54 6.09648C18.54 6.71722 18.0366 7.22266 17.4141 7.22266C16.7938 7.22266 16.2881 6.71722 16.2881 6.09648C16.2881 5.47462 16.7938 4.9703 17.4141 4.9703Z" fill="#91CEEE"/>
<path d="M4.29359 41.6179C4.49078 41.6179 4.64897 41.4584 4.64897 41.2623C4.64897 41.0673 4.49078 40.9076 4.29359 40.9076C4.09856 40.9076 3.9382 41.0673 3.9382 41.2623C3.9382 41.4584 4.09856 41.6179 4.29359 41.6179ZM4.29359 40.1361C4.91549 40.1361 5.42038 40.6415 5.42038 41.2623C5.42038 41.884 4.91549 42.3884 4.29359 42.3884C3.67385 42.3884 3.16895 41.884 3.16895 41.2623C3.16895 40.6415 3.67385 40.1361 4.29359 40.1361Z" fill="#91CEEE"/>
<path d="M37.8258 20.2166L34.8632 12.6442C34.7469 12.351 34.7977 12.0288 34.9988 11.7842C35.1611 11.5836 35.4034 11.4683 35.6601 11.4683C35.711 11.4683 35.7619 11.4727 35.8103 11.4814C36.4935 11.601 37.0797 11.7883 37.7047 11.9867C38.6543 12.2907 39.6403 12.6042 40.9096 12.6042C42.1814 12.6042 43.1674 12.2907 44.117 11.9867C44.7396 11.7883 45.3282 11.601 46.0113 11.4814C46.0598 11.4727 46.1107 11.4683 46.1615 11.4683C46.4183 11.4683 46.6606 11.5836 46.8253 11.7852C47.024 12.0289 47.0748 12.351 46.9585 12.6451L43.9959 20.2166H37.8258Z" fill="#B3B3B2"/>
<path d="M50.5594 37.9332L45.8577 40.636L45.4906 40.846C45.4832 40.4634 45.4098 40.0917 45.2703 39.7373V39.736V39.7351L45.2679 39.7329V39.7319V39.7306C45.2459 39.6768 45.2263 39.6274 45.2042 39.5809C45.0867 39.3278 44.9399 39.095 44.7686 38.8848C44.3574 38.3816 43.7994 38.013 43.1606 37.8341C42.8815 37.7555 42.5927 37.7166 42.299 37.7166H38.6987C38.3096 37.7166 37.918 37.6909 37.5337 37.6412C36.7285 37.5367 35.938 37.3201 35.1841 37L34.1072 36.541C33.9555 36.4762 33.7964 36.4138 33.6348 36.3545C33.1502 36.1756 32.646 36.0344 32.137 35.9353C31.9265 35.8932 31.716 35.8599 31.503 35.8318C31.3538 35.8124 31.202 35.7975 31.0527 35.7845V35.5721C31.0747 32.919 31.809 29.768 33.0695 26.9275C34.3397 24.0705 36.004 21.8312 37.7711 20.6028C37.8054 20.5779 37.8421 20.5532 37.8788 20.5294L37.9645 20.4702H43.8581L43.9462 20.5294C43.9805 20.5532 44.0172 20.5779 44.0539 20.6028C44.563 20.9572 45.0647 21.3949 45.5493 21.9079C46.7584 23.1859 47.872 24.9261 48.7801 26.9855C49.4115 28.4209 49.9108 29.9308 50.2486 31.4135C50.5888 32.8974 50.7699 34.3535 50.7699 35.682C50.7699 36.3029 50.7283 36.8913 50.6499 37.429C50.623 37.5991 50.5936 37.7685 50.5594 37.9332ZM51.0391 33.7154C50.7821 31.4869 50.1188 29.0676 49.1325 26.8303C47.8524 23.9261 46.1637 21.6362 44.3598 20.3463C44.2938 20.2989 44.2252 20.2526 44.1616 20.2083L44.0637 20.1437L44.0319 20.1231L43.9756 20.0845H37.847L37.7907 20.1231L37.6781 20.1988L37.6634 20.2083C37.5974 20.2526 37.5288 20.2989 37.4652 20.3463C35.6736 21.6266 33.9946 23.896 32.717 26.7701C31.4345 29.6581 30.688 32.8651 30.6685 35.5689V35.7608V36.1465V36.2748L31.3121 36.3501C31.4761 36.3695 31.6401 36.3922 31.7992 36.4192C32.2128 36.4904 32.6289 36.5895 33.0303 36.7165C33.324 36.8083 33.6128 36.9148 33.8943 37.0357L34.9736 37.4946C35.7152 37.8103 36.4911 38.0304 37.2816 38.1476C37.7466 38.2178 38.2239 38.2533 38.6987 38.2533H42.299C42.4459 38.2533 42.5952 38.2663 42.7396 38.29C43.114 38.3525 43.464 38.4915 43.7798 38.7049C44.2962 39.0517 44.6682 39.5605 44.8444 40.1499C44.8591 40.2038 44.8763 40.2576 44.8861 40.3127C44.9105 40.4086 44.9277 40.5065 44.9375 40.6059L45.0623 41.7124L45.1651 41.6532L45.936 41.2104L50.858 38.3816L50.8996 38.1821L50.9265 38.0636C50.9534 37.9386 50.9779 37.8094 50.9999 37.6789C51.0097 37.6153 51.022 37.5506 51.0293 37.486C51.115 36.929 51.1566 36.3222 51.1566 35.682C51.1566 35.0517 51.115 34.3921 51.0391 33.7154Z" fill="#91CEEE"/>
<path d="M50.7695 35.6811C50.7695 36.3017 50.728 36.8902 50.6497 37.4279C50.6228 37.5981 50.5935 37.7673 50.5593 37.9323L45.4905 40.845C45.4832 40.4626 45.4098 40.0906 45.2704 39.7361V39.7351V39.7339L45.268 39.7319V39.7307V39.7297C45.246 39.6757 45.224 39.6263 45.2044 39.5799C44.8108 38.7233 44.065 38.0864 43.1603 37.8331C42.8815 37.7543 42.5906 37.7157 42.2972 37.7157H38.6979C38.3091 37.7157 37.9155 37.6898 37.534 37.6401C36.7296 37.5357 35.9374 37.3191 35.1843 36.999L34.106 36.5398C33.9544 36.4753 33.7954 36.4127 33.6341 36.3535C33.1499 36.1745 32.6438 36.0334 32.1352 35.9342C31.7807 35.8642 31.4163 35.8136 31.0544 35.7835V35.5711C31.074 32.9181 31.8075 29.7671 33.0717 26.9263C34.3383 24.0697 36.0058 21.8304 37.7712 20.6017C37.8055 20.577 37.8421 20.5523 37.8788 20.5286L37.9644 20.4692H43.8571L43.9452 20.5286C43.9819 20.5523 44.0161 20.577 44.0528 20.6017C45.8328 21.839 47.5053 24.0997 48.7792 26.9845C49.4125 28.42 49.9089 29.9297 50.2487 31.4126C50.5886 32.8963 50.7695 34.3524 50.7695 35.6811Z" fill="#91CEEE"/>
<mask id="mask0_6503_10693" style="mask-type:luminance" maskUnits="userSpaceOnUse" x="38" y="23" width="7" height="14">
<path d="M42.2346 36.3188H40.8616V34.9804C39.1676 34.7757 38.2118 33.7401 38.104 32.0913H39.7355C39.8735 33.2325 40.5481 33.7994 41.56 33.7994C42.6602 33.7994 43.1678 33.2605 43.1678 32.3499C43.1678 31.421 42.7604 30.9609 41.2076 30.3919C39.2204 29.6548 38.3605 28.9285 38.3605 27.3971C38.3605 25.8863 39.3422 24.9067 40.8616 24.7149V23.6459H42.2346V24.7419C43.8532 25.0016 44.586 26.0706 44.6248 27.4176H43.0051C42.9318 26.645 42.5999 25.8971 41.4263 25.8917C41.422 25.8917 41.4188 25.8917 41.4145 25.8917C40.5394 25.8917 40.0437 26.424 40.0437 27.2129C40.0437 28.0136 40.4231 28.3907 41.9727 28.9511C44.0579 29.699 44.8597 30.5923 44.8597 32.1064C44.8597 33.7778 43.9071 34.7628 42.2346 34.975V36.3188Z" fill="white"/>
</mask>
<g mask="url(#mask0_6503_10693)">
<path d="M38.104 23.6464H44.8609V36.3192H38.104" fill="#78D0EA"/>
</g>
<path d="M41.6642 34.4059V35.7507H40.2907V34.4124C38.5973 34.2077 37.64 33.171 37.5317 31.5233H39.1626C39.3021 32.6644 39.978 33.2313 40.9883 33.2313C42.0899 33.2313 42.5975 32.6913 42.5975 31.7819C42.5975 30.8519 42.1886 30.3918 40.6347 29.8239C38.6502 29.0866 37.7891 28.3604 37.7891 26.8292C37.7891 25.3184 38.7705 24.3387 40.2907 24.1469V23.078H41.6642V24.1739C43.283 24.4337 44.0142 25.5026 44.0527 26.8496H42.4339C42.3618 26.077 42.0298 25.3289 40.856 25.3237C39.9732 25.3193 39.4729 25.8516 39.4729 26.6437C39.4729 27.4454 39.8505 27.8226 41.3996 28.3831C43.4851 29.1309 44.2885 30.0242 44.2885 31.5384C44.2885 33.2097 43.3359 34.1947 41.6642 34.4059Z" fill="white"/>
<path d="M54.2108 40.7335L41.8814 48.1465C41.4931 48.3825 41.0725 48.5668 40.6347 48.693C40.1671 48.8288 39.6798 48.8965 39.1875 48.8965C38.5171 48.8965 37.8615 48.7716 37.2456 48.5225L30.5787 45.8491C29.9133 45.5817 29.2107 45.4461 28.4933 45.4461H26.1036L22.3262 37.6601L23.9119 36.8895C24.4066 36.6493 24.9583 36.5209 25.5074 36.5209L30.2299 36.5222C30.2472 36.5222 30.2645 36.5222 30.2819 36.5222C30.4575 36.5232 30.6331 36.5286 30.8088 36.5395C31.2021 36.5642 31.6004 36.6149 31.9863 36.6914C32.4563 36.7839 32.9214 36.9133 33.3691 37.0783C33.5176 37.132 33.6635 37.1903 33.8045 37.2507L34.8831 37.7086C35.7019 38.0576 36.5603 38.2917 37.4336 38.4057C37.8492 38.4596 38.2747 38.4866 38.6977 38.4866H42.2995C42.5197 38.4866 42.7398 38.5168 42.9526 38.5762C43.4622 38.7184 43.9025 39.0212 44.2192 39.4318C44.3305 39.5761 44.4245 39.7334 44.5012 39.9026C44.5185 39.9372 44.5333 39.9748 44.5507 40.0169L44.5531 40.0191C44.6645 40.3024 44.7189 40.6019 44.7189 40.9092V41.4653L44.6521 41.5041L44.5432 41.5633C44.4789 41.5989 44.4121 41.6345 44.3429 41.6689C44.2563 41.7119 44.1672 41.753 44.0831 41.7906C43.3905 42.0924 42.6557 42.2455 41.9012 42.2455H35.2789C35.1107 42.2455 34.9697 42.3855 34.9697 42.5557C34.9697 42.7272 35.1107 42.8672 35.2789 42.8672H41.9012C42.8858 42.8672 43.8555 42.627 44.7263 42.1701C44.7956 42.1344 44.8623 42.0966 44.9291 42.058L51.2422 38.4295L52.447 37.7366C52.7117 37.5847 53.011 37.5038 53.3128 37.5038C53.4786 37.5038 53.6468 37.5285 53.8076 37.576C54.1959 37.6913 54.52 37.9285 54.7451 38.2551C54.7872 38.3174 54.8268 38.3832 54.8639 38.451C55.277 39.2624 54.99 40.2648 54.2108 40.7335ZM55.2053 38.2753C54.9381 37.7516 54.4804 37.3724 53.9164 37.2064C53.8843 37.1955 53.8496 37.1859 53.815 37.1785C53.6492 37.1374 53.481 37.1181 53.3128 37.1181C52.9442 37.1181 52.5781 37.2161 52.254 37.4016L51.9077 37.6007L51.3486 37.9231L51.0592 38.0891L50.9009 38.1806L45.9236 41.0418L45.1666 41.4772L45.1073 41.5115V40.9092C45.1073 40.8758 45.1048 40.8434 45.1048 40.811C45.0949 40.4889 45.0281 40.1764 44.9118 39.8769L44.9093 39.8737C44.8896 39.8252 44.8722 39.7819 44.8525 39.7411C44.5086 38.9878 43.8531 38.4272 43.0565 38.2043C43.0021 38.1893 42.9476 38.1764 42.8932 38.1645C42.6978 38.1225 42.4999 38.1009 42.2995 38.1009H38.6977C38.386 38.1009 38.0718 38.0858 37.7626 38.0544C37.6686 38.0448 37.5771 38.0341 37.4855 38.0223C36.6444 37.9134 35.8207 37.6881 35.034 37.3541L33.9554 36.895C33.8095 36.8324 33.6561 36.772 33.5027 36.7151C33.0352 36.5437 32.5503 36.4079 32.0605 36.3119C31.9344 36.2872 31.8082 36.2656 31.6795 36.2463C31.6202 36.2364 31.5608 36.228 31.499 36.2194C31.2788 36.1902 31.0537 36.1677 30.8335 36.1546C30.7989 36.1513 30.7618 36.1504 30.7271 36.1481C30.7073 36.1471 30.6875 36.1462 30.6678 36.1449C30.5391 36.1395 30.4105 36.1363 30.2819 36.1353C30.2645 36.1353 30.2472 36.1353 30.2299 36.1353H25.5074C24.8989 36.1353 24.2903 36.2765 23.7411 36.5427L22.3435 37.2225L22.1579 37.313L21.8116 37.4822L21.6755 37.548L25.6954 45.8328H28.4933C28.7976 45.8328 29.0994 45.8587 29.3962 45.9104C29.75 45.973 30.0988 46.072 30.4352 46.2078L37.0996 48.8815C37.112 48.8869 37.1268 48.8921 37.1392 48.8975C37.6488 49.0969 38.1831 49.2209 38.7274 49.2651C38.8807 49.277 39.0341 49.2834 39.1875 49.2834C39.7144 49.2834 40.2388 49.209 40.741 49.0648C40.9068 49.016 41.07 48.9601 41.2308 48.8975C41.5277 48.7813 41.8122 48.641 42.0818 48.4772L54.4087 41.0655C55.0692 40.6677 55.4403 39.9597 55.4378 39.2324C55.4378 38.9081 55.3636 38.5804 55.2053 38.2753Z" fill="white"/>
<path d="M54.2099 40.7344L41.883 48.1476C41.4923 48.3835 41.0719 48.5677 40.6342 48.6938C40.1669 48.8296 39.6797 48.8976 39.1901 48.8976C38.5175 48.8976 37.8622 48.7725 37.244 48.5237L30.5798 45.8499C29.9122 45.5828 29.2124 45.447 28.4928 45.447H26.1041L22.3281 37.661L23.9107 36.8904C24.4053 36.6501 24.9567 36.522 25.5081 36.522L30.2312 36.523C30.2485 36.523 30.2658 36.523 30.2806 36.523C30.4587 36.5242 30.6343 36.5296 30.8073 36.5403C31.203 36.565 31.6011 36.6157 31.9869 36.6921C32.4567 36.7848 32.9216 36.9142 33.3692 37.0791C33.5175 37.133 33.6634 37.1911 33.8044 37.2515L34.8825 37.7094C35.701 38.0586 36.5615 38.2925 37.4344 38.4067C37.8499 38.4607 38.2752 38.4876 38.698 38.4876H42.2984C42.521 38.4876 42.741 38.5178 42.9512 38.5771C43.6387 38.77 44.2049 39.2527 44.5017 39.9035C44.519 39.9382 44.5338 39.9757 44.5511 40.0178L44.5536 40.02C44.6649 40.3034 44.7217 40.6031 44.7217 40.91V41.4661L44.6525 41.5049L44.5437 41.5643C44.4794 41.5999 44.4127 41.6352 44.3434 41.6698C44.2569 41.7129 44.1678 41.7539 44.0838 41.7915C43.3914 42.0932 42.657 42.2463 41.9028 42.2463H35.2806C35.11 42.2463 34.9691 42.3865 34.9691 42.5566C34.9691 42.728 35.11 42.8682 35.2806 42.8682H41.9028C42.8845 42.8682 43.8563 42.6278 44.7267 42.1708C44.7959 42.1355 44.8627 42.0976 44.9319 42.0588L51.2425 38.4305L52.4468 37.7376C52.7114 37.5855 53.013 37.5047 53.3122 37.5047C53.4804 37.5047 53.6461 37.5296 53.8093 37.5769C54.2692 37.7139 54.6451 38.0242 54.8627 38.452C55.2781 39.2633 54.9913 40.2658 54.2099 40.7344Z" fill="white"/>
<path d="M26.1034 47.7807C26.0299 47.992 25.8783 48.1622 25.6785 48.2593L24.3602 48.8994L22.7687 49.6719L21.0233 50.518C20.9085 50.574 20.7845 50.602 20.6605 50.602C20.5663 50.602 20.4745 50.5869 20.3849 50.5556C20.3665 50.5492 20.3481 50.5428 20.3321 50.5352C20.1437 50.4564 19.9945 50.3143 19.9049 50.1301L19.6844 49.6719L19.3078 48.8994L14.632 39.2611C14.5355 39.0606 14.5217 38.8333 14.5952 38.622C14.6687 38.4109 14.8203 38.2405 15.0201 38.1436L19.6752 35.8849C19.7901 35.8289 19.9141 35.8009 20.0381 35.8009C20.13 35.8009 20.2241 35.8158 20.3137 35.847C20.525 35.9203 20.6949 36.0712 20.7914 36.2728L20.812 36.3137L21.2943 37.3051L25.6188 46.2204L26.0666 47.1418C26.1631 47.3423 26.1768 47.5696 26.1034 47.7807ZM26.4134 46.9725L26.0482 46.2204L25.8622 45.8346L21.8088 37.484L21.6411 37.1359L21.1405 36.1047C20.9981 35.8105 20.75 35.5896 20.44 35.4828L20.4193 35.4754C20.2953 35.4355 20.1667 35.415 20.0381 35.415C19.8521 35.415 19.6729 35.4559 19.5053 35.5379L14.8524 37.7954C14.5562 37.9378 14.3357 38.1865 14.2301 38.4959C14.1405 38.7524 14.1382 39.0239 14.2232 39.2772C14.2393 39.3288 14.2599 39.3796 14.2852 39.4301L17.962 47.0081L18.2468 47.5954L18.8806 48.8994L19.2527 49.6719L19.5581 50.2982C19.7005 50.5924 19.9485 50.8133 20.2586 50.9199C20.3895 50.9651 20.5227 50.9888 20.6605 50.9888C20.7018 50.9888 20.7408 50.9867 20.7799 50.9823C20.9223 50.9683 21.0601 50.9286 21.1933 50.865L23.6529 49.6719L25.2444 48.8994L25.8484 48.6063C26.1401 48.4639 26.3606 48.2161 26.4685 47.9068C26.5006 47.8154 26.5213 47.7214 26.5305 47.6277C26.5535 47.4047 26.5144 47.1794 26.4134 46.9725Z" fill="#DFDFDD"/>
<path d="M26.1048 47.7793C26.0337 47.9906 25.88 48.1609 25.6804 48.2579L21.0253 50.5166C20.9106 50.5726 20.7867 50.6006 20.6628 50.6006C20.5687 50.6006 20.477 50.5854 20.3852 50.5542C20.1741 50.4811 20.0043 50.3289 19.908 50.1287L14.6335 39.2596C14.5371 39.0591 14.5234 38.8317 14.5968 38.6206C14.6702 38.4093 14.8216 38.2391 15.0235 38.142L19.6763 35.8833C19.7933 35.8274 19.9172 35.7994 20.0411 35.7994C20.1328 35.7994 20.2246 35.8143 20.3164 35.8457C20.5274 35.9189 20.6972 36.0699 20.7936 36.2713L21.296 37.3037L25.6207 46.219L26.0681 47.1404C26.1644 47.3407 26.1782 47.568 26.1048 47.7793Z" fill="#DFDFDD"/>
<path d="M19.1478 41.6912C18.5508 41.6912 18.0262 41.3743 17.7345 40.9013C17.5898 40.6663 17.5016 40.3936 17.4903 40.1005C17.488 40.0779 17.488 40.0542 17.488 40.0304C17.488 39.1146 18.232 38.37 19.1478 38.37C19.1727 38.37 19.1953 38.3711 19.2202 38.372C19.5119 38.384 19.7833 38.4722 20.0184 38.6178C20.4911 38.9097 20.8077 39.4335 20.8077 40.0304C20.8077 40.9454 20.0637 41.6912 19.1478 41.6912ZM19.1478 39.1427C18.6571 39.1427 18.2591 39.5402 18.2591 40.0304C18.2591 40.134 18.2772 40.2331 18.3111 40.3258C18.3722 40.5035 18.4921 40.6566 18.6458 40.7611C18.7883 40.8604 18.9601 40.9185 19.1478 40.9185C19.6385 40.9185 20.0343 40.5209 20.0343 40.0304C20.0343 39.843 19.9778 39.6707 19.8783 39.5273C19.7742 39.3742 19.6205 39.2557 19.4441 39.1933C19.3514 39.161 19.2519 39.1427 19.1478 39.1427Z" fill="#BFBEBC"/>
<path d="M18.6067 40.7615C17.9052 40.7615 17.3323 40.1903 17.3323 39.4877C17.3323 38.7851 17.9052 38.214 18.6067 38.214C19.3105 38.214 19.8811 38.7851 19.8811 39.4877C19.8811 40.1903 19.3105 40.7615 18.6067 40.7615Z" fill="#91CEEE"/>
<path d="M21.1068 51.8196C20.9281 51.8196 20.7495 51.7896 20.5784 51.7303C20.241 51.6137 19.9606 51.3951 19.7671 51.1041C19.7274 51.0426 19.6902 50.9791 19.6579 50.9123L19.0551 49.6709L18.6805 48.8981L18.1123 47.7256L17.7626 47.0047L14.3861 40.0433C14.267 39.8007 14.2124 39.5377 14.2223 39.276C14.2397 39.3276 14.262 39.3785 14.2868 39.4291L17.9635 47.0069L18.2463 47.5942L18.8814 48.8981L19.2536 49.6709L19.5587 50.2968C19.7001 50.591 19.9507 50.8121 20.2583 50.9188C20.3898 50.9639 20.5238 50.9877 20.6602 50.9877C20.7024 50.9877 20.7421 50.9855 20.7818 50.9813C20.7992 50.9877 20.814 50.9942 20.8314 51.0006C20.9207 51.0309 21.015 51.047 21.1068 51.047C21.2308 51.047 21.3549 51.019 21.4715 50.9629L24.1334 49.6709L25.7262 48.8981L26.1256 48.7041C26.3265 48.6061 26.4779 48.4369 26.5498 48.2245C26.6193 48.0276 26.6118 47.8172 26.5325 47.6266C26.5548 47.4034 26.5151 47.1784 26.4134 46.9712L26.0487 46.2192L25.8626 45.8335H26.5201L26.5498 45.8925H28.9389C29.0927 45.8925 29.244 45.8992 29.3954 45.9109C29.7501 45.9734 30.0975 46.0726 30.4349 46.2083L37.101 48.882C37.1134 48.8874 37.1258 48.8926 37.1407 48.8981C37.6493 49.0976 38.1826 49.2214 38.7284 49.2655C39.0261 49.3174 39.3288 49.3432 39.634 49.3432C40.1252 49.3432 40.6114 49.2752 41.0803 49.1395C41.3061 49.0737 41.5294 48.9929 41.7427 48.8981C41.9461 48.8088 42.1397 48.7073 42.3282 48.5932L54.6557 41.1801C55.3305 40.774 55.6381 39.9679 55.4371 39.2328C55.4371 38.9086 55.3627 38.5809 55.2064 38.276C54.9385 37.7523 54.482 37.3729 53.9188 37.207C53.8841 37.196 53.8494 37.1864 53.8147 37.1789C54.0355 37.1831 54.2587 37.2176 54.4721 37.2824C54.7773 37.3719 55.0551 37.5141 55.2982 37.7017C55.586 37.9247 55.8242 38.2102 55.9953 38.5464C56.5957 39.7169 56.1814 41.165 55.0526 41.843L43.3206 48.8981L42.7276 49.2548C42.4646 49.4144 42.1868 49.5533 41.9015 49.6709H37.3615L35.4363 48.8981L30.7375 47.0124C30.1645 46.7817 29.5591 46.6653 28.9389 46.6653H26.9244L27.2073 47.2493C27.3958 47.6351 27.4206 48.0717 27.2817 48.4778C27.2271 48.6299 27.1551 48.7711 27.0633 48.8981C26.9095 49.1095 26.7036 49.2819 26.463 49.3992L25.9048 49.6709L21.8089 51.6581C21.5856 51.7645 21.3499 51.8196 21.1068 51.8196ZM19.906 50.1289L19.6852 49.6709L19.4744 49.2365L19.906 50.1289Z" fill="#C7C6C4"/>
<path d="M45.1647 41.4775V41.3556C45.1647 41.1703 45.1454 40.9882 45.1043 40.8114C45.0923 40.4892 45.0271 40.1768 44.9111 39.8771L44.9087 39.874C44.8894 39.8254 44.8725 39.7824 44.8532 39.7413C44.5078 38.988 43.8532 38.4276 43.0561 38.2047C43.0005 38.1895 42.9474 38.1767 42.8918 38.1648C43.1334 38.1754 43.3725 38.2134 43.6068 38.2791C43.7831 38.3286 43.9546 38.3933 44.1189 38.4708C44.3532 38.582 44.5706 38.7208 44.7686 38.8836C44.771 38.8856 44.7735 38.888 44.7735 38.8911C44.7759 38.8921 44.7758 38.8933 44.7783 38.8955C44.7783 38.8955 44.7783 38.8964 44.7807 38.8964C44.9474 39.1034 45.0899 39.3319 45.2034 39.5798C45.2251 39.6261 45.2444 39.6757 45.2662 39.7295L45.2686 39.7305V39.7317V39.7339V39.7348L45.271 39.736C45.4087 40.0906 45.4836 40.4623 45.4908 40.8449L45.8555 40.6348C45.8676 40.6865 45.8797 40.7382 45.8893 40.7911C45.9038 40.8739 45.9135 40.958 45.9232 41.042L45.1647 41.4775Z" fill="#78D0EA"/>
<path d="M45.4926 40.8448C45.4854 40.4623 45.4105 40.0906 45.2704 39.7361V39.7349V39.734L45.268 39.7318V39.7306V39.7296C45.2463 39.6758 45.2269 39.6262 45.2052 39.5799C45.0893 39.3319 44.9468 39.1034 44.7802 38.8967V38.8955C44.7778 38.8933 44.7753 38.8923 44.7753 38.8911C44.7729 38.888 44.7705 38.8858 44.7705 38.8836C45.1424 39.1874 45.4443 39.5765 45.6496 40.0259C45.6713 40.0723 45.693 40.1218 45.7148 40.1757V40.1769V40.1778L45.7172 40.18V40.1812V40.1822C45.7751 40.3297 45.821 40.4807 45.8573 40.6347L45.4926 40.8448Z" fill="#78D0EA"/>
<path d="M51.0585 38.0904C51.0732 38.0193 51.083 37.9469 51.0929 37.8748C51.1076 37.7853 51.1198 37.6948 51.1321 37.6033C51.1885 37.141 51.2155 36.6463 51.2155 36.1281C51.2155 35.3596 51.1542 34.5493 51.0365 33.7152C50.7814 31.4867 50.1192 29.0675 49.1332 26.8302C47.8529 23.9261 46.1631 21.6361 44.3604 20.3462C44.2918 20.2987 44.2255 20.2523 44.1593 20.2082L44.0637 20.1437H44.228L44.3384 19.8633L47.046 12.9504C47.1049 12.8027 47.0853 12.6433 46.9994 12.5138C47.0559 12.2585 46.9945 11.9934 46.8253 11.7854C46.7346 11.6733 46.6168 11.5882 46.4893 11.5345C46.5285 11.5301 46.5678 11.5291 46.607 11.5291C46.8302 11.5291 47.046 11.5882 47.2324 11.6981C47.36 11.7724 47.4728 11.8695 47.5709 11.9858C47.7107 12.1582 47.8014 12.3642 47.8382 12.5818C47.8726 12.7995 47.8456 13.0247 47.7671 13.2317L44.9834 20.3354L44.9491 20.4225C45.339 20.6921 45.7192 21.0057 46.0944 21.3601C46.6193 21.858 47.1294 22.4378 47.6224 23.0941C48.4293 24.1728 49.1602 25.4283 49.8003 26.8302L49.8028 26.8314L49.9303 27.1201C51.2376 30.0846 51.9881 33.3671 51.9881 36.1281C51.9881 36.4729 51.9758 36.8079 51.9513 37.1314C51.9415 37.2908 51.9268 37.448 51.9071 37.6023L51.3479 37.9243L51.0585 38.0904ZM31.0526 35.572C31.0722 32.9188 31.808 29.7679 33.0711 26.9273C34.3391 24.0705 36.0044 21.831 37.7703 20.6025C37.8046 20.5778 37.8414 20.553 37.8782 20.5294L37.964 20.4701H43.8577L43.9435 20.5294C43.9803 20.553 44.0171 20.5778 44.0514 20.6025C44.0588 20.6079 44.0661 20.6123 44.071 20.6168C44.0661 20.6123 44.0588 20.6069 44.0514 20.6025C44.0171 20.5778 43.9803 20.553 43.9435 20.5294L43.8577 20.4701H37.964L37.8782 20.5294C37.8414 20.553 37.8046 20.5778 37.7703 20.6025C36.0044 21.831 34.3391 24.0705 33.0711 26.9273C31.808 29.7679 31.0722 32.9188 31.0526 35.572ZM44.4365 20.887C44.4365 20.8861 44.434 20.8851 44.4316 20.8838C44.434 20.8851 44.434 20.8861 44.4365 20.887ZM44.3187 20.7956C44.3138 20.7933 44.3114 20.7902 44.3065 20.787C44.3089 20.7902 44.3138 20.7933 44.3187 20.7956ZM44.0931 20.6307C44.0857 20.6263 44.0809 20.6231 44.0759 20.6187C44.0809 20.6219 44.0857 20.6263 44.0931 20.6307ZM37.6771 20.1986L37.5324 19.83L34.9498 13.2317C34.8786 13.0485 34.8492 12.8513 34.8688 12.6583L37.7899 20.1221V20.123L37.6771 20.1986ZM40.1886 12.57C39.2517 12.4805 38.4693 12.2305 37.704 11.987C37.1596 11.8134 36.6396 11.6476 36.0633 11.5291C36.078 11.5291 36.0927 11.5291 36.1074 11.5291C36.1785 11.5291 36.2521 11.5345 36.3232 11.5472C37.032 11.6714 37.6329 11.8619 38.2681 12.0645C38.896 12.2661 39.5043 12.4589 40.1861 12.57C40.1885 12.57 40.1886 12.57 40.1886 12.57Z" fill="#C7C6C4"/>
<path d="M37.792 20.1206L34.8682 12.6571C34.8706 12.6311 34.873 12.6062 34.8779 12.5805C34.9118 12.3628 35.0062 12.1569 35.1443 11.9856C35.3744 11.7065 35.7063 11.5416 36.0624 11.5275C36.6413 11.6462 37.1597 11.8121 37.7048 11.9856C38.4678 12.229 39.2526 12.4793 40.1901 12.5687C40.5535 12.6278 40.9386 12.6624 41.3577 12.6624C42.5689 12.6624 43.4797 12.3715 44.4486 12.0643C45.0833 11.8606 45.684 11.67 46.3913 11.5459C46.4228 11.5406 46.4567 11.5362 46.4907 11.5331C46.6166 11.5869 46.7353 11.6719 46.825 11.784C46.9969 11.9921 47.0575 12.2571 46.9993 12.5125C46.9921 12.4996 46.9824 12.4868 46.9727 12.4737C46.8855 12.3693 46.7644 12.3078 46.6336 12.3003H46.6069C46.5803 12.3003 46.5512 12.3024 46.5246 12.3068C45.8681 12.4221 45.2916 12.6052 44.6812 12.8002C43.7025 13.1117 42.6876 13.4351 41.3577 13.4351C40.0278 13.4351 39.0153 13.1117 38.0342 12.7993C37.4238 12.6052 36.8472 12.4221 36.1908 12.3068C36.1641 12.3024 36.1351 12.3003 36.1084 12.3003C35.9679 12.3003 35.8347 12.3618 35.7427 12.4737C35.6336 12.6084 35.6046 12.7862 35.67 12.948L38.3104 19.696L38.3612 19.8285L38.463 20.0828H37.8477L37.792 20.1206Z" fill="#989998"/>
<path d="M31.5002 36.22C31.2776 36.1909 31.0549 36.1683 30.8323 36.1554C30.798 36.1522 30.7613 36.151 30.7271 36.1488V36.012C30.7271 35.929 30.7295 35.8461 30.7319 35.7632C30.7931 33.0604 31.5467 29.9051 32.8093 27.059C33.4772 25.5547 34.2528 24.2131 35.1117 23.0707C35.8848 22.0416 36.7021 21.2043 37.5536 20.5738C37.6245 20.5212 37.693 20.4705 37.764 20.4218L37.6783 20.1977L37.7909 20.1224V20.1214L37.8472 20.0834H38.4613L38.4833 20.1429H44.0644L44.1599 20.2075C44.2259 20.2518 44.292 20.298 44.3605 20.3455C46.1638 21.6354 47.8521 23.9254 49.1317 26.8295C50.1178 29.0668 50.7833 31.4859 51.0378 33.7145C50.9521 33.1057 50.8396 32.485 50.6952 31.8588C50.3551 30.3761 49.8584 28.8662 49.2247 27.4309C48.2069 25.1214 46.9296 23.2119 45.5472 21.908C45.2193 21.5589 44.8817 21.2452 44.5391 20.9682C44.5318 20.9618 44.5244 20.9552 44.5171 20.9489C44.5049 20.9393 44.4926 20.9305 44.4804 20.921V20.9198C44.4731 20.9144 44.4657 20.909 44.4584 20.9036C44.4584 20.9026 44.4559 20.9014 44.4535 20.9004C44.4486 20.896 44.4437 20.8919 44.4364 20.8865C44.4364 20.8853 44.4339 20.8843 44.4315 20.8831C44.429 20.8799 44.4266 20.8777 44.4217 20.8745C44.4192 20.8723 44.4168 20.8703 44.4143 20.8681C44.4094 20.8649 44.4046 20.8615 44.3997 20.8574C44.3972 20.8552 44.3948 20.8542 44.3923 20.852C44.3874 20.8476 44.3825 20.8444 44.3801 20.8412C44.3752 20.839 44.3727 20.8368 44.3703 20.8346C44.3678 20.8314 44.3629 20.8292 44.3605 20.826C44.3556 20.8238 44.3532 20.8207 44.3483 20.8175C44.3458 20.8153 44.3434 20.8131 44.3409 20.8109C44.336 20.8077 44.3312 20.8045 44.3263 20.8001C44.3238 20.7991 44.3214 20.7969 44.3189 20.7947C44.314 20.7928 44.3091 20.7893 44.3067 20.7862C44.3042 20.784 44.2993 20.7818 44.2993 20.7798C44.2944 20.7764 44.2895 20.7732 44.2871 20.771C44.2846 20.769 44.2822 20.7678 44.2798 20.7656C44.2749 20.7624 44.27 20.758 44.2626 20.7548C44.2626 20.7529 44.2602 20.7517 44.2578 20.7495C44.2529 20.7463 44.248 20.7421 44.2431 20.7387C44.2406 20.7367 44.2382 20.7355 44.2357 20.7345C44.2308 20.7301 44.2259 20.727 44.2211 20.7225C44.2186 20.7216 44.2186 20.7203 44.2162 20.7194C44.2113 20.7162 44.2064 20.7118 44.2015 20.7086C44.199 20.7074 44.199 20.7064 44.1966 20.7054C44.1917 20.701 44.1868 20.6969 44.1819 20.6925C44.1794 20.6912 44.177 20.6902 44.1746 20.6893C44.1697 20.6849 44.1648 20.6817 44.1574 20.6773C44.1574 20.6763 44.155 20.6751 44.155 20.6741C44.1476 20.6697 44.1428 20.6655 44.1354 20.6611C44.1354 20.6611 44.1354 20.6611 44.1354 20.6602C44.1281 20.6557 44.1232 20.6526 44.1183 20.6482C44.1158 20.6472 44.1158 20.6462 44.1134 20.645C44.1085 20.6406 44.1011 20.6374 44.0963 20.6332C44.0963 20.632 44.0938 20.631 44.0914 20.6298C44.0865 20.6257 44.0816 20.6213 44.0742 20.6181C44.0742 20.6171 44.0742 20.6159 44.0718 20.6159C44.0644 20.6117 44.0596 20.6073 44.0522 20.6019C44.018 20.5772 43.9812 20.5523 43.9445 20.5285L43.8565 20.4693H37.9646L37.879 20.5285C37.8423 20.5523 37.8056 20.5772 37.7689 20.6019C36.0048 21.8305 34.3385 24.0697 33.0711 26.9266C31.8085 29.7671 31.0745 32.918 31.0525 35.5713V35.7835C31.0598 35.7847 31.0671 35.7847 31.0769 35.7857C31.0794 35.7857 31.0843 35.7857 31.0867 35.7869C31.0892 35.7869 31.0941 35.7869 31.0965 35.7879C31.1063 35.7879 31.1136 35.7888 31.121 35.7888C31.121 35.7888 31.121 35.7888 31.121 35.7901C31.1944 35.7964 31.2678 35.804 31.3412 35.8116C31.3436 35.8116 31.3461 35.8126 31.3485 35.8126C31.3559 35.8138 31.3632 35.8138 31.3681 35.8148C31.3754 35.8158 31.3803 35.8158 31.3852 35.817C31.3877 35.817 31.3901 35.817 31.3926 35.817C31.4293 35.8224 31.466 35.8265 31.5027 35.8309C31.5002 35.8828 31.5002 35.9322 31.5002 35.9829C31.5002 35.9949 31.5002 36.0056 31.5002 36.0174V36.22Z" fill="#78D0EA"/>
<path d="M31.5033 35.8311C31.4671 35.8267 31.4309 35.8224 31.3923 35.8171C31.3899 35.8171 31.3899 35.8171 31.3874 35.8171C31.3826 35.8159 31.3778 35.8159 31.3706 35.8149C31.3633 35.8139 31.3561 35.8139 31.3488 35.8127C31.3488 35.8127 31.3464 35.8118 31.344 35.8118C31.2692 35.804 31.1968 35.7965 31.1244 35.79C31.122 35.7891 31.122 35.7891 31.122 35.7891C31.1148 35.7891 31.1075 35.7879 31.0979 35.7879C31.0955 35.7869 31.0906 35.7869 31.0882 35.7869C31.0858 35.7859 31.081 35.7859 31.0786 35.7859C31.0689 35.7847 31.0617 35.7847 31.0544 35.7838V35.5714C31.0762 32.9182 31.8098 29.7672 33.0718 26.9267C34.3411 24.0698 36.0061 21.8305 37.7725 20.6019C37.8063 20.5773 37.8449 20.5525 37.8787 20.5288L37.9656 20.4695H43.8584L43.9453 20.5288C43.9839 20.5525 44.0177 20.5773 44.0538 20.6019C44.0611 20.6063 44.0683 20.6116 44.0731 20.6159C44.0756 20.6159 44.0756 20.6172 44.078 20.6181C44.0828 20.6225 44.0876 20.6258 44.0949 20.6299C44.0949 20.6311 44.0973 20.6321 44.0973 20.6333C44.1045 20.6377 44.1093 20.6408 44.1166 20.6451C44.1166 20.6461 44.1166 20.6473 44.119 20.6483C44.1262 20.6526 44.1311 20.656 44.1383 20.6601C44.1383 20.6613 44.1383 20.6613 44.1383 20.6613C44.1455 20.6657 44.1504 20.67 44.1552 20.6741C44.1576 20.6753 44.1576 20.6763 44.16 20.6775C44.1673 20.6818 44.1721 20.685 44.1769 20.6893C44.1793 20.6903 44.1793 20.6915 44.1817 20.6924C44.189 20.6968 44.1938 20.7011 44.1986 20.7055C44.201 20.7064 44.2011 20.7076 44.2035 20.7086C44.2083 20.712 44.2131 20.7163 44.2179 20.7195C44.2203 20.7207 44.2204 20.7216 44.2228 20.7226C44.2276 20.7269 44.2324 20.7303 44.2397 20.7344C44.2397 20.7356 44.2421 20.7368 44.2445 20.7388C44.2493 20.7421 44.2541 20.7465 44.259 20.7496C44.2614 20.7518 44.2638 20.753 44.2662 20.7549C44.271 20.7583 44.2759 20.7627 44.2807 20.7658C44.2831 20.768 44.2855 20.7689 44.2879 20.7711C44.2903 20.7733 44.2952 20.7767 44.3 20.7798C44.3024 20.782 44.3048 20.7841 44.3096 20.7863C44.312 20.7894 44.3169 20.7928 44.3193 20.795C44.3217 20.7972 44.3241 20.7991 44.3289 20.8003C44.3314 20.8047 44.3362 20.8078 44.341 20.8112C44.3434 20.8131 44.3482 20.8153 44.3507 20.8174C44.3531 20.8208 44.3579 20.824 44.3603 20.8261C44.3651 20.8293 44.37 20.8317 44.3724 20.8348C44.3748 20.837 44.3772 20.8392 44.3796 20.8413C44.3844 20.8445 44.3893 20.8476 44.3941 20.8519C44.3965 20.8541 44.3989 20.8553 44.4013 20.8575C44.4062 20.8618 44.411 20.865 44.4158 20.8681C44.4182 20.8703 44.4206 20.8725 44.423 20.8746C44.4279 20.8778 44.4303 20.8799 44.4327 20.8833C44.4351 20.8843 44.4375 20.8855 44.4399 20.8864C44.4448 20.892 44.4496 20.8961 44.4568 20.9004C44.4593 20.9017 44.4593 20.9026 44.4617 20.9038C44.4665 20.9091 44.4737 20.9144 44.481 20.92C44.481 20.92 44.481 20.921 44.4834 20.921C44.493 20.9306 44.5051 20.9393 44.5172 20.949C44.5244 20.9555 44.5341 20.962 44.5413 20.9685C44.884 21.2453 45.2194 21.559 45.55 21.9082C45.55 21.907 45.55 21.907 45.55 21.907C45.2073 21.5826 44.855 21.295 44.5003 21.0481C44.4641 21.0233 44.4279 20.9987 44.3917 20.9738L44.3048 20.9157H38.412L38.3251 20.9738C38.2889 20.9987 38.2527 21.0233 38.219 21.0481C36.4526 22.2766 34.7875 24.516 33.5182 27.3726C32.2851 30.1477 31.5564 33.2179 31.5033 35.8311Z" fill="#78D0EA"/>
<path d="M37.7639 38.0552C37.6716 38.0455 37.5794 38.0346 37.4871 38.0228C36.6474 37.914 35.8219 37.6888 35.0343 37.3546L33.9581 36.8955C33.8114 36.833 33.66 36.7727 33.5039 36.7157C33.038 36.5442 32.5531 36.4084 32.0634 36.3126C31.9381 36.2878 31.8103 36.2663 31.6826 36.2469C31.9854 36.2769 32.2881 36.3211 32.5838 36.3793C33.0923 36.4796 33.5962 36.6208 34.0834 36.7997C34.2443 36.859 34.4027 36.9215 34.5541 36.986L35.6327 37.444C36.3187 37.7361 37.0354 37.9409 37.7639 38.0552Z" fill="#78D0EA"/>
<path d="M21.811 37.4832L21.641 37.135L21.1433 36.1039C20.9979 35.8097 20.7515 35.5887 20.4411 35.482L20.4214 35.4743C20.4436 35.4734 20.4633 35.4734 20.4854 35.4734C20.6653 35.4734 20.8427 35.5034 21.0152 35.5628C21.1458 35.6081 21.2689 35.6685 21.3798 35.7439C21.6164 35.9001 21.8085 36.1189 21.9342 36.3808L22.1757 36.8765L22.3457 37.2235L22.1584 37.3139L21.811 37.4832Z" fill="#C7C6C4"/>
<path d="M38.728 49.2661C38.1813 49.2218 37.6494 49.0979 37.1398 48.8988C37.125 48.8933 37.1126 48.8879 37.1002 48.8824L30.4359 46.209C30.097 46.0732 29.7507 45.974 29.3944 45.9114C29.9535 45.9567 30.5002 46.0861 31.0246 46.2961L37.5109 48.8988L37.689 48.9698C38.0254 49.1046 38.3718 49.2038 38.728 49.2661ZM26.5224 45.834H25.8619L21.8098 37.4833L22.1586 37.3141L22.3442 37.2235L22.4357 37.4123L24.0189 36.6417C24.6176 36.3508 25.2879 36.1954 25.9534 36.1954L30.28 36.1967H30.6758C30.6932 36.1967 30.7105 36.1967 30.7278 36.1967V36.1492C30.7624 36.1514 30.797 36.1524 30.8317 36.1556C31.0543 36.1687 31.277 36.1912 31.4996 36.2204V36.2301C31.559 36.2355 31.6208 36.2409 31.6802 36.2474C31.8088 36.2667 31.935 36.2882 32.0612 36.3129C32.551 36.4089 33.0358 36.5447 33.5009 36.7162C33.6567 36.773 33.8101 36.8337 33.9561 36.896L35.0346 37.3551C35.8213 37.6891 36.6451 37.9145 37.4861 38.0233C37.5777 38.0352 37.6692 38.0458 37.7607 38.0555C37.835 38.0663 37.9067 38.0772 37.9809 38.0869C38.3643 38.1363 38.7552 38.1611 39.1436 38.1611H42.7454C42.7924 38.1611 42.8419 38.1623 42.8913 38.1655C42.9482 38.1774 43.0027 38.1903 43.0571 38.2054C43.8536 38.4285 44.5067 38.9888 44.853 39.7421C44.8728 39.7829 44.8902 39.8262 44.91 39.8747V39.8779C45.0287 40.1775 45.093 40.4899 45.1054 40.8122C45.0782 40.6947 45.0435 40.5794 44.999 40.4662L44.9965 40.4642C44.9792 40.4221 44.9644 40.3843 44.9471 40.3486C44.9174 40.2809 44.8827 40.2141 44.8456 40.1495C44.6848 39.8692 44.4721 39.6268 44.2198 39.4338C43.9848 39.1288 43.6805 38.8832 43.3317 38.7194C43.3317 38.7182 43.3317 38.7182 43.3317 38.7182C43.3267 38.7162 43.3242 38.715 43.3193 38.714C43.3193 38.713 43.3193 38.713 43.3193 38.713C43.3119 38.7098 43.3069 38.7075 43.302 38.7043C43.2995 38.7043 43.2995 38.7033 43.297 38.7033C43.2946 38.7021 43.2921 38.7011 43.2896 38.6999C43.2872 38.6989 43.2847 38.6979 43.2847 38.6969C43.2822 38.6957 43.2797 38.6947 43.2773 38.6934C43.2748 38.6925 43.2723 38.6915 43.2698 38.6902C43.2673 38.6892 43.2649 38.688 43.2599 38.687C43.2575 38.686 43.255 38.6838 43.2525 38.6828C43.2501 38.6816 43.2476 38.6816 43.2451 38.6806C43.2451 38.6796 43.2401 38.6783 43.2377 38.6764C43.2352 38.6764 43.2352 38.6751 43.2327 38.6751C43.2278 38.6732 43.2253 38.6709 43.2179 38.6687C43.2129 38.6667 43.2105 38.6655 43.2055 38.6633C43.203 38.6633 43.2031 38.6623 43.2031 38.6623C43.1981 38.66 43.1932 38.6591 43.1907 38.6581C43.1907 38.6568 43.1882 38.6568 43.1882 38.6568C43.1832 38.6549 43.1783 38.6526 43.1734 38.6504C43.1684 38.6494 43.1635 38.6472 43.1585 38.645C43.1585 38.645 43.1585 38.645 43.156 38.644C43.1511 38.643 43.1461 38.6407 43.1437 38.6398C43.1437 38.6398 43.1437 38.6398 43.1412 38.6385C43.1313 38.6353 43.1214 38.6321 43.1115 38.6279C43.1115 38.6279 43.1115 38.6279 43.109 38.6279C43.0942 38.6224 43.0793 38.617 43.0645 38.6116C43.0645 38.6116 43.0645 38.6116 43.062 38.6116C43.0521 38.6083 43.0422 38.6051 43.0324 38.6019C43.0324 38.6009 43.0324 38.6009 43.0324 38.6009C43.0274 38.5997 43.0225 38.5987 43.0175 38.5965C43.0175 38.5965 43.0175 38.5965 43.015 38.5965C43.0051 38.5933 42.9952 38.59 42.9853 38.5868C42.9853 38.5868 42.9853 38.5868 42.9829 38.5858C42.9779 38.5846 42.9755 38.5836 42.9705 38.5826C42.968 38.5826 42.968 38.5826 42.968 38.5814C42.9631 38.5804 42.9581 38.5794 42.9507 38.5772C42.7404 38.5178 42.5203 38.4876 42.2976 38.4876H38.6983C38.2753 38.4876 37.8498 38.4607 37.4342 38.407C36.561 38.2927 35.7025 38.0587 34.8837 37.7096L33.8027 37.2517C33.6642 37.1914 33.5182 37.1332 33.3698 37.0793C32.922 36.9143 32.457 36.7849 31.9869 36.6924C31.601 36.616 31.2027 36.5653 30.8069 36.5405C30.6338 36.5296 30.4581 36.5242 30.28 36.5232C30.2652 36.5232 30.2479 36.5232 30.2306 36.5232L25.5081 36.522C24.9565 36.522 24.4048 36.6503 23.9101 36.8906L22.3268 37.6611L26.1043 45.4471H26.3344L26.5224 45.834ZM41.9018 42.8682H35.4478C35.4972 42.7648 35.6036 42.6925 35.7273 42.6925H42.3496C43.1016 42.6925 43.8363 42.5397 44.529 42.2379C44.5908 42.2099 44.6576 42.1797 44.7244 42.1483C44.7442 42.1377 44.7665 42.1268 44.7887 42.1162C44.858 42.0815 44.9248 42.0459 44.9891 42.0105L45.0955 41.9512L45.1672 41.9123V41.4782L45.9242 41.0428C45.9292 41.0977 45.9341 41.1539 45.9366 41.2098C45.9366 41.2367 45.939 41.2637 45.939 41.2907L51.0053 38.3778C51.0251 38.284 51.0424 38.1871 51.0598 38.0901L51.3467 37.9241L51.9083 37.602C51.8984 37.6945 51.8885 37.7873 51.8736 37.8778L52.5094 37.5135C52.8903 37.2948 53.3208 37.1785 53.7586 37.1785C53.776 37.1785 53.7958 37.1785 53.8156 37.1795C53.8477 37.1869 53.8823 37.1968 53.917 37.2074C54.481 37.3734 54.9386 37.7527 55.2058 38.2764C55.3641 38.5814 55.4383 38.9092 55.4383 39.2335C55.4062 39.1192 55.3641 39.0071 55.3097 38.8983C55.1736 38.6353 54.9807 38.4176 54.7457 38.2571C54.5255 37.935 54.2064 37.699 53.8254 37.5825C53.823 37.5815 53.8205 37.5815 53.818 37.5802C53.8155 37.5793 53.8106 37.5783 53.8081 37.577C53.6473 37.5298 53.4791 37.5048 53.3134 37.5048C53.0116 37.5048 52.7122 37.5857 52.4475 37.7376L51.2428 38.4305L44.9297 42.059C44.8629 42.0979 44.7937 42.1355 44.7244 42.1711C43.8561 42.628 42.8839 42.8682 41.9018 42.8682Z" fill="#DFDFDD"/>
<path d="M26.3352 45.4471H26.1055L22.3271 37.6612L23.9126 36.8907C24.4065 36.6504 24.9572 36.522 25.5079 36.522L30.2321 36.5232C30.2494 36.5232 30.2667 36.5232 30.2815 36.5232C30.4593 36.5242 30.6346 36.5297 30.8075 36.5405C31.2051 36.5652 31.6002 36.6159 31.988 36.6924C32.4572 36.785 32.9214 36.9144 33.3709 37.0794C33.5191 37.1332 33.6648 37.1913 33.8055 37.2518L34.8822 37.7096C35.7021 38.0588 36.5615 38.2927 37.4357 38.407C37.8506 38.4608 38.2778 38.4878 38.7001 38.4878H42.2982C42.5205 38.4878 42.7403 38.5179 42.9527 38.5772C42.9576 38.5794 42.9625 38.5804 42.9675 38.5814C42.9675 38.5826 42.9699 38.5826 42.9699 38.5826C42.9749 38.5836 42.9798 38.5848 42.9848 38.5858C42.9848 38.5868 42.9848 38.5868 42.9848 38.5868C42.9946 38.59 43.007 38.5932 43.0169 38.5964C43.0169 38.5964 43.0169 38.5964 43.0193 38.5964C43.0218 38.5986 43.0267 38.5999 43.0317 38.6009C43.0317 38.6009 43.0342 38.6009 43.0342 38.6019C43.044 38.6051 43.0539 38.6085 43.0638 38.6117C43.0638 38.6117 43.0638 38.6117 43.0663 38.6117C43.0811 38.6169 43.0959 38.6223 43.1107 38.6278C43.1132 38.6278 43.1132 38.6278 43.1132 38.6278C43.1231 38.6322 43.1329 38.6354 43.1428 38.6386C43.1428 38.6396 43.1428 38.6396 43.1428 38.6396C43.1477 38.6406 43.1527 38.6428 43.1576 38.6438C43.1576 38.6451 43.1576 38.6451 43.1601 38.6451C43.165 38.6473 43.17 38.6493 43.1724 38.6505C43.1799 38.6527 43.1823 38.6547 43.1873 38.6569C43.1897 38.6569 43.1897 38.6569 43.1897 38.6579C43.1947 38.6591 43.1996 38.6601 43.2021 38.6624C43.2046 38.6624 43.2045 38.6633 43.2045 38.6633C43.2095 38.6656 43.2144 38.6666 43.2194 38.6688C43.2243 38.671 43.2292 38.673 43.2342 38.6752C43.2342 38.6752 43.2367 38.6764 43.2391 38.6764C43.2416 38.6784 43.2441 38.6796 43.2465 38.6806C43.249 38.6816 43.2515 38.6816 43.2515 38.6829C43.2564 38.6838 43.2589 38.6861 43.2614 38.6871C43.2638 38.688 43.2663 38.6893 43.2688 38.6903C43.2737 38.6915 43.2737 38.6925 43.2786 38.6935C43.2811 38.6947 43.2811 38.6957 43.2861 38.6969C43.2861 38.6979 43.2885 38.6989 43.291 38.6999C43.2934 38.7011 43.2959 38.7021 43.2984 38.7034C43.2984 38.7034 43.3009 38.7043 43.3033 38.7043C43.3083 38.7075 43.3132 38.7098 43.3182 38.713C43.3206 38.713 43.3206 38.713 43.3206 38.714C43.3256 38.7152 43.328 38.7162 43.333 38.7184C43.333 38.7184 43.333 38.7184 43.333 38.7194C43.6812 38.8831 43.9849 39.1289 44.2195 39.4338C44.2195 39.4338 44.2195 39.4338 44.2195 39.4328C43.9775 39.2474 43.7009 39.1074 43.3996 39.0234C43.1873 38.9641 42.9675 38.9338 42.7452 38.9338H39.1446C38.7224 38.9338 38.2976 38.9068 37.8802 38.852C37.006 38.7389 36.1491 38.505 35.3292 38.1559L34.25 37.6978C34.1117 37.6375 33.9636 37.5792 33.8154 37.5254C33.3684 37.3604 32.9017 37.23 32.4349 37.1384C32.0472 37.0621 31.6496 37.0115 31.2545 36.9865C31.0816 36.9759 30.9038 36.9692 30.7285 36.9692C30.7112 36.9692 30.6939 36.9692 30.6766 36.9692L25.9549 36.9683C25.4042 36.9683 24.8535 37.0954 24.3571 37.3367L22.7717 38.1072L26.3352 45.4471ZM42.3501 43.3145H35.7268C35.5564 43.3145 35.4157 43.1744 35.4157 43.0031C35.4157 42.9544 35.428 42.9092 35.4478 42.8682H41.9031C42.886 42.8682 43.8565 42.6279 44.7258 42.1711C44.7949 42.1355 44.8641 42.0977 44.9308 42.0589L51.2429 38.4307L52.448 37.7378C52.7123 37.5856 53.0111 37.5049 53.3123 37.5049C53.4803 37.5049 53.6457 37.5296 53.8087 37.5772C53.8112 37.5782 53.8161 37.5792 53.8186 37.5805C53.8211 37.5814 53.8235 37.5814 53.826 37.5824C54.2063 37.699 54.5273 37.9348 54.7471 38.2571V38.2561C54.599 38.1549 54.4335 38.0761 54.2557 38.0232C54.0927 37.9748 53.9248 37.9511 53.7593 37.9511C53.458 37.9511 53.1592 38.0319 52.8925 38.1838L51.6874 38.8767L45.3777 42.5052C45.3086 42.544 45.2419 42.5817 45.1728 42.6173C44.3035 43.0742 43.333 43.3145 42.3501 43.3145Z" fill="#DFDFDD"/>
<path d="M20.6617 50.9888C20.5239 50.9888 20.3907 50.9651 20.2598 50.9199C19.9497 50.8133 19.7017 50.5924 19.5593 50.2982L19.2539 49.6719L18.8818 48.8993L18.248 47.5954L17.9632 47.0081L14.2864 39.4301C14.2611 39.3796 14.2404 39.3288 14.2244 39.2772C14.229 39.121 14.2588 38.9669 14.3117 38.8149C14.454 38.4086 14.7434 38.0811 15.1292 37.8946L19.7844 35.636C19.9865 35.5379 20.2001 35.4839 20.4205 35.4754L20.4412 35.4828C20.7512 35.5896 20.9993 35.8105 21.1416 36.1047L21.6423 37.1359L21.81 37.484L25.8634 45.8346L26.0494 46.2204L26.4146 46.9725C26.5156 47.1794 26.5547 47.4047 26.5317 47.6277C26.5248 47.6137 26.5202 47.6009 26.5133 47.5869L26.0655 46.6664L25.8496 46.2204L21.7411 37.7513L21.4815 37.2146L21.2404 36.719C21.1508 36.5346 21.0016 36.3925 20.8132 36.3137L20.7926 36.2728C20.6961 36.0712 20.5262 35.9203 20.3149 35.847C20.2253 35.8158 20.1311 35.8009 20.0393 35.8009C19.9153 35.8009 19.7913 35.8289 19.6764 35.8849L15.0213 38.1436C14.8215 38.2405 14.6699 38.4109 14.5964 38.622C14.5643 38.7115 14.5505 38.8029 14.5482 38.8946C14.5482 39.0206 14.5758 39.1458 14.6332 39.2611L19.4743 49.2376L19.6856 49.6719L19.9061 50.1301C19.9957 50.3143 20.1449 50.4564 20.3332 50.5352L20.3539 50.5761C20.4435 50.7614 20.5928 50.9038 20.7811 50.9823C20.742 50.9867 20.703 50.9888 20.6617 50.9888Z" fill="#BFBEBC"/>
<path d="M20.3314 50.5339C20.146 50.4552 19.9945 50.313 19.9063 50.1287L19.4744 49.2366L14.6328 39.2597C14.5763 39.1446 14.5469 39.0196 14.5469 38.8934C14.5491 38.8018 14.565 38.7102 14.5944 38.6207C14.669 38.4097 14.8182 38.2392 15.0218 38.1424L19.6756 35.8835C19.7909 35.8277 19.9153 35.7996 20.0374 35.7996C20.1302 35.7996 20.2229 35.8146 20.3133 35.846C20.5259 35.9193 20.6955 36.0701 20.7927 36.2716L20.8131 36.3125C20.795 36.305 20.7769 36.2985 20.7611 36.2922C20.6706 36.2607 20.5779 36.2456 20.4852 36.2456C20.3608 36.2456 20.2364 36.2736 20.1211 36.3297L15.465 38.5886C15.266 38.6853 15.1145 38.8556 15.0398 39.0668C14.9675 39.278 14.9811 39.5055 15.0783 39.7059L20.3314 50.5339Z" fill="#BFBEBC"/>
<path d="M35.2238 12.5038C35.1608 12.3411 35.1874 12.1644 35.299 12.0286C35.3887 11.9166 35.522 11.855 35.6627 11.855C35.6893 11.855 35.7184 11.8574 35.7475 11.8615C36.4022 11.9769 36.9792 12.16 37.5878 12.3552C38.5698 12.6677 39.5809 12.9899 40.912 12.9899C42.2431 12.9899 43.2566 12.6677 44.2361 12.3552C44.8472 12.16 45.4242 11.9769 46.0789 11.8615C46.108 11.8574 46.1346 11.855 46.1637 11.855C46.3019 11.855 46.4353 11.9166 46.5274 12.0295C46.5929 12.1093 46.6292 12.2031 46.6341 12.3013C46.6389 12.3692 46.6268 12.4371 46.6026 12.5038L43.7852 19.6969L43.7318 19.8296H38.0921L38.0412 19.6969L35.2238 12.5038ZM47.393 12.1353C47.3687 11.9813 47.3154 11.8324 47.2354 11.6979C47.2039 11.6428 47.1651 11.59 47.1263 11.5405C46.8862 11.2495 46.5371 11.0825 46.1637 11.0825C46.091 11.0825 46.0182 11.089 45.9455 11.1007C45.2399 11.2246 44.6386 11.4166 44.0034 11.6191C43.0359 11.9272 42.1243 12.2172 40.912 12.2172C39.7021 12.2172 38.7904 11.9263 37.823 11.6191C37.1878 11.4154 36.5864 11.2246 35.8785 11.1007C35.8081 11.089 35.7354 11.0825 35.6627 11.0825C35.2893 11.0825 34.9377 11.2495 34.7001 11.5405C34.5594 11.7117 34.4673 11.9175 34.4334 12.1353C34.3994 12.353 34.4237 12.5782 34.5037 12.7851L37.3187 19.9763L37.372 20.1118L37.4641 20.3458L37.5539 20.5742L37.566 20.6023H37.7721C37.806 20.5776 37.8424 20.5526 37.8788 20.5291L37.9661 20.4697H43.8579L43.9452 20.5291C43.984 20.5526 44.0179 20.5776 44.0543 20.6023H44.2604L44.3622 20.3458L44.4519 20.1118L44.5077 19.9763L47.3203 12.7851C47.4027 12.5782 47.4269 12.354 47.393 12.1353Z" fill="#2E2D2D"/>
<path d="M37.8759 20.5287L37.9641 20.4694H43.856L43.9442 20.5287C43.981 20.5525 44.0153 20.5772 44.052 20.602C44.5616 20.9564 45.0638 21.394 45.5464 21.907C46.7567 23.1851 47.8689 24.9255 48.7778 26.9849C49.4099 28.4202 49.9097 29.9299 50.2477 31.4128C50.5883 32.8967 50.7696 34.3526 50.7696 35.6812C50.7696 36.302 50.7279 36.8904 50.6471 37.4282C50.6226 37.5984 50.5907 37.7675 50.5564 37.9324C50.554 37.9485 50.5491 37.9647 50.5466 37.9819L50.5148 38.1318L45.887 40.7914L45.3798 41.0834L45.321 40.5618C45.3063 40.4486 45.2868 40.3345 45.2623 40.2245C45.1006 39.5196 44.6963 38.9033 44.1182 38.4713C44.0765 38.441 44.0373 38.4121 43.9957 38.3839C43.6331 38.1394 43.2313 37.9799 42.8026 37.9076C42.636 37.8807 42.4669 37.8667 42.2979 37.8667H38.6966C38.2409 37.8667 37.7852 37.8322 37.3394 37.7653C36.5799 37.6521 35.8351 37.4409 35.1247 37.1381L34.0467 36.679C33.7527 36.5541 33.4489 36.4421 33.1452 36.3473C32.7262 36.2157 32.2951 36.1111 31.8639 36.0379C31.7438 36.0175 31.6214 35.9992 31.4989 35.983C31.4523 35.9764 31.4058 35.971 31.3568 35.9656L31.053 35.9301V35.7836V35.5714C31.0726 32.9182 31.8075 29.7672 33.0692 26.9266C34.3383 24.0698 36.0042 21.8306 37.7681 20.602C37.8048 20.5772 37.8416 20.5525 37.8759 20.5287ZM49.4858 26.6732L49.3584 26.3846L49.356 26.3834C48.7141 24.9826 47.9816 23.726 47.1756 22.6474C46.8228 22.1785 46.4627 21.7485 46.0927 21.3607C45.7302 20.978 45.3602 20.6353 44.983 20.3347C44.8237 20.2075 44.6645 20.088 44.5052 19.9758C44.4611 19.9456 44.4171 19.9155 44.373 19.8863L44.3386 19.8628L44.2872 19.8283L44.1745 19.7528L44.0912 19.6967H37.7289L37.6456 19.7538L37.5353 19.8283L37.5329 19.8293L37.4472 19.8863C37.4031 19.9155 37.3614 19.9456 37.3173 19.9758C36.3937 20.6203 35.5019 21.5104 34.6641 22.6246C33.8066 23.7669 33.0325 25.1085 32.3637 26.613C31.0603 29.5474 30.3009 32.8104 30.2788 35.566V35.7503V35.9301V36.1361V36.1964V36.523C30.4552 36.5239 30.634 36.5293 30.8055 36.5401C31.2024 36.5648 31.5993 36.6156 31.9864 36.692C32.4543 36.7846 32.9198 36.914 33.3681 37.0788C33.5151 37.1327 33.6621 37.191 33.8017 37.2513L34.8821 37.7094C35.7004 38.0585 36.5578 38.2923 37.4324 38.4067C37.8489 38.4606 38.2752 38.4873 38.6966 38.4873H42.2979C42.5184 38.4873 42.7389 38.5176 42.952 38.5769C43.4592 38.719 43.9026 39.0218 44.2186 39.4324C44.3288 39.5767 44.4244 39.7343 44.5003 39.9033C44.515 39.9378 44.5322 39.9756 44.5493 40.0175L44.5518 40.0197C44.662 40.3031 44.7184 40.6027 44.7184 40.9099V41.4658L44.6498 41.5048L44.7233 42.1481V42.1719C44.7943 42.1351 44.8629 42.0974 44.9291 42.0587L51.2399 38.4302L51.2693 38.2945L51.3012 38.1448C51.3183 38.0715 51.333 37.998 51.3453 37.9238C51.3722 37.7976 51.3918 37.6705 51.4114 37.5423C51.4163 37.5056 51.4237 37.4691 51.4261 37.4314C51.5045 36.887 51.5413 36.2988 51.5413 35.6812C51.5413 32.9214 50.7916 29.6378 49.4858 26.6732Z" fill="#2E2D2D"/>
<path d="M44.7233 42.1481L44.6514 41.5048L44.5423 41.564C44.4804 41.5995 44.4135 41.6352 44.3441 41.6696C44.2574 41.7127 44.1681 41.7536 44.0839 41.7913C43.39 42.0931 42.6565 42.246 41.9031 42.246H35.2816C35.1106 42.246 34.9693 42.3863 34.9693 42.5565C34.9693 42.7278 35.1106 42.868 35.2816 42.868H41.9031C42.8845 42.868 43.8559 42.6277 44.7257 42.1719L44.7233 42.1481ZM44.7233 42.1481L44.6514 41.5048L44.5423 41.564C44.4804 41.5995 44.4135 41.6352 44.3441 41.6696C44.2574 41.7127 44.1681 41.7536 44.0839 41.7913C43.39 42.0931 42.6565 42.246 41.9031 42.246H35.2816C35.1106 42.246 34.9693 42.3863 34.9693 42.5565C34.9693 42.7278 35.1106 42.868 35.2816 42.868H41.9031C42.8845 42.868 43.8559 42.6277 44.7257 42.1719L44.7233 42.1481ZM25.9365 45.4468L22.1895 37.7276L22.3283 37.6607L23.9118 36.8903C24.4075 36.6499 24.9576 36.5218 25.5078 36.5218L30.2311 36.5228C30.2484 36.5228 30.2633 36.5228 30.2806 36.5228C30.4591 36.524 30.635 36.5292 30.8085 36.5401C31.205 36.5649 31.6015 36.6154 31.9881 36.692C32.4565 36.7847 32.9224 36.9141 33.3709 37.0789C33.5171 37.1329 33.6633 37.1909 33.8046 37.2513L34.8826 37.7093C35.7028 38.0585 36.5603 38.2924 37.435 38.4066C37.8514 38.4604 38.2776 38.4874 38.6989 38.4874H42.2996C42.5202 38.4874 42.7407 38.5177 42.9539 38.5769C43.4619 38.7191 43.903 39.022 44.2202 39.4324C44.3317 39.5768 44.4259 39.7342 44.5027 39.9034C44.5176 39.9379 44.5349 39.9756 44.5523 40.0174V40.0197C44.6638 40.3032 44.7208 40.6028 44.7208 40.9098V41.4659L44.6514 41.5048L44.5423 41.564C44.4804 41.5995 44.4135 41.6352 44.3441 41.6696C44.2574 41.7127 44.1681 41.7536 44.0839 41.7913C43.39 42.0931 42.6565 42.246 41.9031 42.246H35.2816C35.1106 42.246 34.9693 42.3863 34.9693 42.5565C34.9693 42.7278 35.1106 42.868 35.2816 42.868H41.9031C42.8845 42.868 43.8559 42.6277 44.7257 42.1719C44.7951 42.1353 44.8645 42.0973 44.9314 42.0587L51.2408 38.4302L52.4476 37.7373C52.7128 37.5854 53.0126 37.5046 53.3125 37.5046C53.4785 37.5046 53.647 37.5294 53.8081 37.5767C54.1972 37.691 54.5218 37.9291 54.7473 38.2557C54.7895 38.3182 54.8266 38.3838 54.8638 38.4517C55.2776 39.2633 54.9927 40.2655 54.2096 40.7341L41.8833 48.1472C41.4942 48.3831 41.073 48.5665 40.6343 48.6937C40.166 48.8295 39.6802 48.8974 39.1896 48.8974C38.5155 48.8974 37.8638 48.7722 37.2442 48.5234L30.5805 45.8497C29.9139 45.5824 29.2126 45.4468 28.4939 45.4468H25.9365ZM55.5503 38.1006C55.4784 37.9584 55.3941 37.8245 55.2975 37.7019C54.9803 37.289 54.5392 36.9874 54.0262 36.8365C53.7932 36.7674 53.5529 36.7319 53.3125 36.7319C52.8763 36.7319 52.4451 36.8484 52.0635 37.067L51.9545 37.1307L51.4291 37.4313L51.1317 37.6027L51.0004 37.6781L50.5593 37.9323L45.8583 40.635L45.494 40.8451C45.484 40.4628 45.4097 40.0908 45.2709 39.7364V39.7352V39.7342L45.2685 39.732V39.731V39.73C45.2462 39.676 45.2263 39.6264 45.204 39.58C45.0875 39.3268 44.9413 39.0941 44.7703 38.8839C44.359 38.3806 43.7989 38.0121 43.162 37.8332C42.882 37.7546 42.592 37.7157 42.2996 37.7157H38.6989C38.3098 37.7157 37.9183 37.69 37.5342 37.6404C36.7288 37.5358 35.9383 37.3192 35.1849 36.9991L34.1069 36.5401C33.9557 36.4754 33.7971 36.413 33.6361 36.3535C33.1503 36.1748 32.6448 36.0336 32.1368 35.9345C31.9286 35.8923 31.7155 35.8591 31.5024 35.8311C31.3537 35.8115 31.205 35.7964 31.0538 35.7835C30.9894 35.7781 30.9225 35.7739 30.8581 35.7697C30.8159 35.7664 30.7738 35.7642 30.7317 35.7632C30.7094 35.761 30.6896 35.76 30.6673 35.76C30.5409 35.7533 30.412 35.7513 30.2806 35.7501C30.2658 35.7501 30.2484 35.7501 30.2311 35.7501H25.5078C24.8411 35.7501 24.1721 35.9042 23.5723 36.1952L22.1747 36.8764L21.9913 36.9668L21.8525 37.0325L21.6419 37.1349L21.4808 37.2137L21.2949 37.3041L25.6217 46.2195H28.4939C29.1135 46.2195 29.7181 46.3367 30.293 46.5674L36.1018 48.8984L36.9568 49.2411C37.668 49.5256 38.4164 49.67 39.1896 49.67C39.7521 49.67 40.3122 49.5912 40.8499 49.4361C41.296 49.3067 41.7247 49.1258 42.1311 48.8984C42.1807 48.8694 42.2327 48.8391 42.2823 48.8089L54.6086 41.397C55.7361 40.719 56.15 39.2708 55.5503 38.1006Z" fill="#2E2D2D"/>
<path d="M20.3838 50.5549C20.3677 50.5485 20.3493 50.5421 20.3332 50.5345C20.1446 50.4558 19.9952 50.3135 19.9055 50.1294L19.6848 49.6714L19.3101 48.8986L14.6336 39.2615C14.5347 39.0598 14.5232 38.8325 14.5968 38.6212C14.6681 38.4101 14.8198 38.2397 15.0221 38.1427L19.6756 35.884C19.7906 35.8279 19.9147 35.8001 20.0389 35.8001C20.1309 35.8001 20.2251 35.815 20.3148 35.8463C20.5263 35.9197 20.6964 36.0705 20.793 36.2721L20.8137 36.313L21.2942 37.3044L25.619 46.2197L26.0673 47.1409C26.1639 47.3414 26.1776 47.5688 26.1041 47.7801C26.0305 47.9912 25.881 48.1615 25.6787 48.2585L24.3613 48.8986L22.7703 49.6714L21.0252 50.5172C20.9103 50.5733 20.7838 50.6014 20.6597 50.6014C20.5677 50.6014 20.4757 50.5862 20.3838 50.5549ZM26.7616 46.8036L26.4788 46.2197L26.2903 45.8339L26.1041 45.4469L22.3266 37.661L21.9886 36.9672L21.4874 35.9346C21.4552 35.8679 21.4184 35.8042 21.3793 35.744C21.1862 35.4529 20.9034 35.2331 20.5677 35.1168C20.3976 35.0575 20.2182 35.0274 20.0389 35.0274C19.7952 35.0274 19.5584 35.0823 19.3377 35.189L14.6819 37.4477C14.2979 37.6353 14.0059 37.9618 13.8657 38.3692C13.7254 38.7743 13.7507 39.2118 13.9392 39.5976L17.5328 47.0053L17.9053 47.7778L18.4502 48.8986L18.8249 49.6714L19.2112 50.4667C19.3377 50.7283 19.5308 50.9472 19.7676 51.1035C19.8803 51.1789 20.0021 51.2392 20.1332 51.2845C20.3033 51.3438 20.4803 51.3739 20.6597 51.3739C20.9034 51.3739 21.1402 51.3201 21.3609 51.2123L24.5383 49.6714L26.0167 48.9536C26.0512 48.9363 26.088 48.9179 26.1202 48.8986C26.4558 48.7046 26.7065 48.4018 26.8352 48.0321C26.9755 47.6258 26.9502 47.1894 26.7616 46.8036Z" fill="#2E2D2D"/>
<path d="M18.3126 40.3247C17.9671 40.2028 17.721 39.8742 17.721 39.4872C17.721 38.997 18.1184 38.5993 18.6084 38.5993C18.9945 38.5993 19.3241 38.847 19.4461 39.1921C19.4777 39.2835 19.4958 39.3838 19.4958 39.4872C19.4958 39.9776 19.0983 40.3753 18.6084 40.3753C18.5045 40.3753 18.4052 40.357 18.3126 40.3247ZM20.0219 38.6165C19.7283 38.1423 19.2045 37.8267 18.6084 37.8267C17.6916 37.8267 16.9487 38.5713 16.9487 39.4872C16.9487 40.0831 17.2626 40.6069 17.7368 40.9C17.9919 41.0563 18.29 41.1479 18.6084 41.1479C19.5229 41.1479 20.268 40.4021 20.268 39.4872C20.268 39.1684 20.1777 38.8699 20.0219 38.6165Z" fill="#2E2D2D"/>
<path d="M19.3108 48.8988L19.685 49.6716H11.6841C11.4722 49.6716 11.2986 49.498 11.2986 49.2848C11.2986 49.0713 11.4722 48.8988 11.6841 48.8988H19.3108Z" fill="#2E2D2D"/>
<path d="M57.6336 49.2841C57.6336 49.4975 57.4595 49.6709 57.2456 49.6709H22.77L24.3619 48.8984H57.2456C57.4595 48.8984 57.6336 49.0707 57.6336 49.2841Z" fill="#2E2D2D"/>
<path d="M10.091 49.6702H8.33265C8.11945 49.6702 7.9458 49.4978 7.9458 49.2844C7.9458 49.071 8.11945 48.8985 8.33265 48.8985H10.091C10.3042 48.8985 10.4778 49.071 10.4778 49.2844C10.4778 49.4978 10.3042 49.6702 10.091 49.6702Z" fill="#2E2D2D"/>
<path d="M17.9193 47.7781H16.1607C15.9474 47.7781 15.7744 47.6047 15.7744 47.3913C15.7744 47.178 15.9474 47.0055 16.1607 47.0055H17.9193C18.1327 47.0055 18.3056 47.178 18.3056 47.3913C18.3056 47.6047 18.1327 47.7781 17.9193 47.7781Z" fill="#2E2D2D"/>
<path d="M14.5662 47.7782H12.8081C12.5945 47.7782 12.4209 47.6048 12.4209 47.3914C12.4209 47.178 12.5945 47.0055 12.8081 47.0055H14.5662C14.7798 47.0055 14.9534 47.178 14.9534 47.3914C14.9534 47.6048 14.7798 47.7782 14.5662 47.7782Z" fill="#2E2D2D"/>
<path d="M52.7707 47.7773H51.0119C50.7979 47.7773 50.6233 47.6037 50.6233 47.3904C50.6233 47.1769 50.7979 47.0045 51.0119 47.0045H52.7707C52.9822 47.0045 53.1569 47.1769 53.1569 47.3904C53.1569 47.6037 52.9822 47.7773 52.7707 47.7773Z" fill="#2E2D2D"/>
<path d="M56.123 47.7782H54.3645C54.1512 47.7782 53.9775 47.6048 53.9775 47.3915C53.9775 47.178 54.1512 47.0056 54.3645 47.0056H56.123C56.3388 47.0056 56.51 47.178 56.51 47.3915C56.51 47.6048 56.3388 47.7782 56.123 47.7782Z" fill="#2E2D2D"/>
<path d="M60.5993 49.67H58.8388C58.6256 49.67 58.4551 49.4975 58.4551 49.2841C58.4551 49.0707 58.6256 48.8984 58.8388 48.8984H60.5993C60.8124 48.8984 60.9855 49.0707 60.9855 49.2841C60.9855 49.4975 60.8124 49.67 60.5993 49.67Z" fill="#2E2D2D"/>
</svg>
