<svg width="71" height="63" viewBox="0 0 71 63" fill="none" xmlns="http://www.w3.org/2000/svg">
<path d="M1.76714 26.8119C2.81219 27.8549 4.2274 28.4418 5.70396 28.4418C6.81241 28.4418 7.88815 28.1105 8.79822 27.5031L4.83479 31.4665C3.78974 32.5095 3.2028 33.9268 3.2028 35.4033C3.2028 36.8799 3.78974 38.2951 4.83479 39.3401C5.87779 40.3832 7.29505 40.9701 8.77162 40.9701C9.88006 40.9701 10.9558 40.6388 11.8638 40.0314L9.78394 42.1113C8.74094 43.1553 8.15401 44.5711 8.15401 46.0475C8.15401 47.5248 8.74094 48.9409 9.78394 49.9851C10.829 51.0283 12.2442 51.6157 13.7208 51.6157C14.8292 51.6157 15.9049 51.2838 16.813 50.677L16.3058 51.1856C15.2628 52.2288 14.6758 53.6446 14.6758 55.1222C14.6758 56.5984 15.2628 58.0144 16.3058 59.0586C17.3508 60.1028 18.766 60.6892 20.2426 60.6892C21.7192 60.6892 23.1344 60.1028 24.1794 59.0586L29.4558 53.7827C28.8464 54.6911 28.5171 55.7666 28.5171 56.8755C28.5171 58.3529 29.102 59.7689 30.147 60.8119C31.1921 61.8561 32.6073 62.4435 34.0839 62.4435C35.5604 62.4435 36.9777 61.8561 38.0207 60.8119L46.0354 52.7965C45.4281 53.705 45.0988 54.7805 45.0988 55.8893C45.0988 57.3657 45.6837 58.7827 46.7287 59.8259C47.7717 60.8702 49.189 61.4573 50.6655 61.4573C52.1421 61.4573 53.5573 60.8702 54.6003 59.8259L67.0816 47.3471C68.1246 46.3029 68.7115 44.8869 68.7115 43.4105C68.7115 41.9333 68.1246 40.5181 67.0816 39.4731C66.0365 38.4301 64.6213 37.8431 63.1448 37.8431C62.0343 37.8431 60.9606 38.1744 60.0505 38.7818L62.6621 36.1682C63.7072 35.1252 64.2941 33.7079 64.2941 32.2334C64.2941 30.7569 63.7072 29.3396 62.6621 28.2966C61.6191 27.2515 60.2039 26.6646 58.7273 26.6646C57.6169 26.6646 56.5411 26.9959 55.6331 27.6033L60.9095 22.329C61.9525 21.2839 62.5394 19.8687 62.5394 18.3922C62.5394 16.9156 61.9525 15.4983 60.9095 14.4553C59.8644 13.4103 58.4492 12.8254 56.9727 12.8254C55.8622 12.8254 54.7885 13.1547 53.8784 13.7641L57.2385 10.404C58.2836 9.35893 58.8705 7.94372 58.8705 6.46716C58.8705 4.98854 58.2836 3.57334 57.2385 2.52829C56.1955 1.48529 54.7782 0.898346 53.3037 0.898346C51.8272 0.898346 50.4099 1.48529 49.3669 2.52829L41.8818 10.0134C42.4892 9.10535 42.8205 8.02962 42.8205 6.92117C42.8205 5.44461 42.2336 4.02735 41.1906 2.98435C40.1455 1.9393 38.7303 1.3544 37.2538 1.3544C35.7772 1.3544 34.3599 1.9393 33.3169 2.98435L22.8133 13.488C23.4187 12.5779 23.752 11.5042 23.752 10.3938C23.752 8.91924 23.163 7.50199 22.12 6.45899C21.077 5.41394 19.6597 4.827 18.1832 4.827C16.7066 4.827 15.2914 5.41394 14.2464 6.45899L1.76714 18.9362C0.724136 19.9812 0.137207 21.3964 0.137207 22.873C0.137207 24.3516 0.724136 25.7668 1.76714 26.8119Z" fill="white"/>
<path d="M68.5478 50.5394L68.1637 50.9252C68.0138 51.0749 68.0138 51.3196 68.1637 51.4703C68.3137 51.6201 68.5581 51.6201 68.7081 51.4703L69.0942 51.0846L69.4783 51.4703C69.6303 51.6201 69.8727 51.6201 70.0247 51.4703C70.1747 51.3196 70.1747 51.0749 70.0247 50.9252L69.6386 50.5394L70.0247 50.1547C70.1747 50.0037 70.1747 49.7603 70.0247 49.6093C69.9487 49.534 69.8501 49.4962 69.7515 49.4962C69.653 49.4962 69.5543 49.534 69.4783 49.6093L69.0942 49.9941L68.7081 49.6093C68.6321 49.534 68.5355 49.4962 68.4349 49.4962C68.3363 49.4962 68.2377 49.534 68.1637 49.6093C68.0138 49.7603 68.0138 50.0037 68.1637 50.1547L68.5478 50.5394Z" fill="white"/>
<path d="M13.5043 58.8407L13.1181 59.2252C12.9688 59.3762 12.9688 59.62 13.1181 59.7693C13.2691 59.9203 13.5129 59.9203 13.6639 59.7693L14.0484 59.3848L14.4346 59.7693C14.5839 59.9203 14.8293 59.9203 14.9804 59.7693C15.1297 59.62 15.1297 59.3762 14.9804 59.2252L14.5942 58.8407L14.9804 58.4545C15.1297 58.3052 15.1297 58.0598 14.9804 57.9105C14.9048 57.8349 14.8053 57.7972 14.7075 57.7972C14.6079 57.7972 14.5084 57.8349 14.4346 57.9105L14.0484 58.2949L13.6639 57.9105C13.5884 57.8349 13.4888 57.7972 13.391 57.7972C13.2932 57.7972 13.1936 57.8349 13.1181 57.9105C12.9688 58.0598 12.9688 58.3052 13.1181 58.4545L13.5043 58.8407Z" fill="white"/>
<path d="M3.64799 24.6944L3.26216 25.0786C3.11313 25.2309 3.11313 25.4743 3.26216 25.625C3.41285 25.7757 3.65793 25.7757 3.80697 25.625L4.19279 25.2392L4.57861 25.625C4.7293 25.7757 4.97273 25.7757 5.12341 25.625C5.2741 25.4743 5.2741 25.2309 5.12341 25.0786L4.73924 24.6944L5.12341 24.3102C5.2741 24.1595 5.2741 23.9145 5.12341 23.7654C5.04724 23.6893 4.94954 23.6512 4.85019 23.6512C4.75249 23.6512 4.65313 23.6893 4.57861 23.7654L4.19279 24.1496L3.80697 23.7654C3.73245 23.6893 3.63474 23.6512 3.53539 23.6512C3.43604 23.6512 3.33834 23.6893 3.26216 23.7654C3.11313 23.9145 3.11313 24.1595 3.26216 24.3102L3.64799 24.6944Z" fill="white"/>
<path d="M50.0126 4.89591L49.6284 5.28203C49.4771 5.43338 49.4771 5.67594 49.6284 5.82728C49.7778 5.97863 50.0223 5.97863 50.1736 5.82728L50.5578 5.44115L50.944 5.82728C51.0934 5.97863 51.3378 5.97863 51.4892 5.82728C51.6386 5.67594 51.6386 5.43338 51.4892 5.28203L51.1031 4.89591L51.4892 4.51173C51.6386 4.36038 51.6386 4.11782 51.4892 3.96647C51.4135 3.8908 51.3146 3.85394 51.2156 3.85394C51.1167 3.85394 51.0196 3.8908 50.944 3.96647L50.5578 4.35066L50.1736 3.96647C50.098 3.8908 49.999 3.85394 49.9001 3.85394C49.8011 3.85394 49.7041 3.8908 49.6284 3.96647C49.4771 4.11782 49.4771 4.36038 49.6284 4.51173L50.0126 4.89591Z" fill="white"/>
<path d="M42.9588 60.8575C43.1558 60.8575 43.3149 60.698 43.3149 60.502C43.3149 60.3069 43.1558 60.1474 42.9588 60.1474C42.7637 60.1474 42.6046 60.3069 42.6046 60.502C42.6046 60.698 42.7637 60.8575 42.9588 60.8575ZM42.9588 59.3758C43.5819 59.3758 44.0857 59.8813 44.0857 60.502C44.0857 61.1238 43.5819 61.6282 42.9588 61.6282C42.3395 61.6282 41.8337 61.1238 41.8337 60.502C41.8337 59.8813 42.3395 59.3758 42.9588 59.3758Z" fill="white"/>
<path d="M64.1878 24.9699C64.3821 24.9699 64.5421 24.812 64.5421 24.6156C64.5421 24.4193 64.3821 24.2593 64.1878 24.2593C63.9915 24.2593 63.8315 24.4193 63.8315 24.6156C63.8315 24.812 63.9915 24.9699 64.1878 24.9699ZM64.1878 23.4881C64.8072 23.4881 65.3133 23.9942 65.3133 24.6156C65.3133 25.235 64.8072 25.7411 64.1878 25.7411C63.5664 25.7411 63.0603 25.235 63.0603 24.6156C63.0603 23.9942 63.5664 23.4881 64.1878 23.4881Z" fill="white"/>
<path d="M17.0398 6.8959C17.2359 6.8959 17.3955 6.73627 17.3955 6.54195C17.3955 6.34589 17.2359 6.18627 17.0398 6.18627C16.8438 6.18627 16.6859 6.34589 16.6859 6.54195C16.6859 6.73627 16.8438 6.8959 17.0398 6.8959ZM17.0398 5.4142C17.661 5.4142 18.1658 5.91909 18.1658 6.54195C18.1658 7.16134 17.661 7.66797 17.0398 7.66797C16.4187 7.66797 15.9138 7.16134 15.9138 6.54195C15.9138 5.91909 16.4187 5.4142 17.0398 5.4142Z" fill="white"/>
<path d="M3.91974 42.0594C4.11498 42.0594 4.27546 41.899 4.27546 41.7037C4.27546 41.5068 4.11498 41.3497 3.91974 41.3497C3.72451 41.3497 3.56402 41.5068 3.56402 41.7037C3.56402 41.899 3.72451 42.0594 3.91974 42.0594ZM3.91974 40.577C4.54184 40.577 5.04646 41.0833 5.04646 41.7037C5.04646 42.3258 4.54184 42.8304 3.91974 42.8304C3.2993 42.8304 2.79468 42.3258 2.79468 41.7037C2.79468 41.0833 3.2993 40.577 3.91974 40.577Z" fill="white"/>
<path d="M1.76714 26.8119C2.81219 27.8549 4.2274 28.4418 5.70396 28.4418C6.81241 28.4418 7.88815 28.1105 8.79822 27.5031L4.83479 31.4665C3.78974 32.5095 3.2028 33.9268 3.2028 35.4033C3.2028 36.8799 3.78974 38.2951 4.83479 39.3401C5.87779 40.3832 7.29505 40.9701 8.77162 40.9701C9.88006 40.9701 10.9558 40.6388 11.8638 40.0314L9.78394 42.1113C8.74094 43.1553 8.15401 44.5711 8.15401 46.0475C8.15401 47.5248 8.74094 48.9409 9.78394 49.9851C10.829 51.0283 12.2442 51.6157 13.7208 51.6157C14.8292 51.6157 15.9049 51.2838 16.813 50.677L16.3058 51.1856C15.2628 52.2288 14.6758 53.6446 14.6758 55.1222C14.6758 56.5984 15.2628 58.0144 16.3058 59.0586C17.3508 60.1028 18.766 60.6892 20.2426 60.6892C21.7192 60.6892 23.1344 60.1028 24.1794 59.0586L29.4558 53.7827C28.8464 54.6911 28.5171 55.7666 28.5171 56.8755C28.5171 58.3529 29.102 59.7689 30.147 60.8119C31.1921 61.8561 32.6073 62.4435 34.0839 62.4435C35.5604 62.4435 36.9777 61.8561 38.0207 60.8119L46.0354 52.7965C45.4281 53.705 45.0988 54.7805 45.0988 55.8893C45.0988 57.3657 45.6837 58.7827 46.7287 59.8259C47.7717 60.8702 49.189 61.4573 50.6655 61.4573C52.1421 61.4573 53.5573 60.8702 54.6003 59.8259L67.0816 47.3471C68.1246 46.3029 68.7115 44.8869 68.7115 43.4105C68.7115 41.9333 68.1246 40.5181 67.0816 39.4731C66.0365 38.4301 64.6213 37.8431 63.1448 37.8431C62.0343 37.8431 60.9606 38.1744 60.0505 38.7818L62.6621 36.1682C63.7072 35.1252 64.2941 33.7079 64.2941 32.2334C64.2941 30.7569 63.7072 29.3396 62.6621 28.2966C61.6191 27.2515 60.2039 26.6646 58.7273 26.6646C57.6169 26.6646 56.5411 26.9959 55.6331 27.6033L60.9095 22.329C61.9525 21.2839 62.5394 19.8687 62.5394 18.3922C62.5394 16.9156 61.9525 15.4983 60.9095 14.4553C59.8644 13.4103 58.4492 12.8254 56.9727 12.8254C55.8622 12.8254 54.7885 13.1547 53.8784 13.7641L57.2385 10.404C58.2836 9.35893 58.8705 7.94372 58.8705 6.46716C58.8705 4.98854 58.2836 3.57334 57.2385 2.52829C56.1955 1.48529 54.7782 0.898346 53.3037 0.898346C51.8272 0.898346 50.4099 1.48529 49.3669 2.52829L41.8818 10.0134C42.4892 9.10535 42.8205 8.02962 42.8205 6.92117C42.8205 5.44461 42.2336 4.02735 41.1906 2.98435C40.1455 1.9393 38.7303 1.3544 37.2538 1.3544C35.7772 1.3544 34.3599 1.9393 33.3169 2.98435L22.8133 13.488C23.4187 12.5779 23.752 11.5042 23.752 10.3938C23.752 8.91924 23.163 7.50199 22.12 6.45899C21.077 5.41394 19.6597 4.827 18.1832 4.827C16.7066 4.827 15.2914 5.41394 14.2464 6.45899L1.76714 18.9362C0.724136 19.9812 0.137207 21.3964 0.137207 22.873C0.137207 24.3516 0.724136 25.7668 1.76714 26.8119Z" fill="#D3EBF8"/>
<path d="M68.5478 50.5394L68.1637 50.9252C68.0138 51.0749 68.0138 51.3196 68.1637 51.4703C68.3137 51.6201 68.5581 51.6201 68.7081 51.4703L69.0942 51.0846L69.4783 51.4703C69.6303 51.6201 69.8727 51.6201 70.0247 51.4703C70.1747 51.3196 70.1747 51.0749 70.0247 50.9252L69.6386 50.5394L70.0247 50.1547C70.1747 50.0037 70.1747 49.7603 70.0247 49.6093C69.9487 49.534 69.8501 49.4962 69.7515 49.4962C69.653 49.4962 69.5543 49.534 69.4783 49.6093L69.0942 49.9941L68.7081 49.6093C68.6321 49.534 68.5355 49.4962 68.4349 49.4962C68.3363 49.4962 68.2377 49.534 68.1637 49.6093C68.0138 49.7603 68.0138 50.0037 68.1637 50.1547L68.5478 50.5394Z" fill="#91CEEE"/>
<path d="M13.5043 58.8407L13.1181 59.2252C12.9688 59.3762 12.9688 59.62 13.1181 59.7693C13.2691 59.9203 13.5129 59.9203 13.6639 59.7693L14.0484 59.3848L14.4346 59.7693C14.5839 59.9203 14.8293 59.9203 14.9804 59.7693C15.1297 59.62 15.1297 59.3762 14.9804 59.2252L14.5942 58.8407L14.9804 58.4545C15.1297 58.3052 15.1297 58.0598 14.9804 57.9105C14.9048 57.8349 14.8053 57.7972 14.7075 57.7972C14.6079 57.7972 14.5084 57.8349 14.4346 57.9105L14.0484 58.2949L13.6639 57.9105C13.5884 57.8349 13.4888 57.7972 13.391 57.7972C13.2932 57.7972 13.1936 57.8349 13.1181 57.9105C12.9688 58.0598 12.9688 58.3052 13.1181 58.4545L13.5043 58.8407Z" fill="#91CEEE"/>
<path d="M3.64799 24.6944L3.26216 25.0786C3.11313 25.2309 3.11313 25.4743 3.26216 25.625C3.41285 25.7757 3.65793 25.7757 3.80697 25.625L4.19279 25.2392L4.57861 25.625C4.7293 25.7757 4.97273 25.7757 5.12341 25.625C5.2741 25.4743 5.2741 25.2309 5.12341 25.0786L4.73924 24.6944L5.12341 24.3102C5.2741 24.1595 5.2741 23.9145 5.12341 23.7654C5.04724 23.6893 4.94954 23.6512 4.85019 23.6512C4.75249 23.6512 4.65313 23.6893 4.57861 23.7654L4.19279 24.1496L3.80697 23.7654C3.73245 23.6893 3.63474 23.6512 3.53539 23.6512C3.43604 23.6512 3.33834 23.6893 3.26216 23.7654C3.11313 23.9145 3.11313 24.1595 3.26216 24.3102L3.64799 24.6944Z" fill="#91CEEE"/>
<path d="M50.0126 4.89591L49.6284 5.28203C49.4771 5.43338 49.4771 5.67594 49.6284 5.82728C49.7778 5.97863 50.0223 5.97863 50.1736 5.82728L50.5578 5.44115L50.944 5.82728C51.0934 5.97863 51.3378 5.97863 51.4892 5.82728C51.6386 5.67594 51.6386 5.43338 51.4892 5.28203L51.1031 4.89591L51.4892 4.51173C51.6386 4.36038 51.6386 4.11782 51.4892 3.96647C51.4135 3.8908 51.3146 3.85394 51.2156 3.85394C51.1167 3.85394 51.0196 3.8908 50.944 3.96647L50.5578 4.35066L50.1736 3.96647C50.098 3.8908 49.999 3.85394 49.9001 3.85394C49.8011 3.85394 49.7041 3.8908 49.6284 3.96647C49.4771 4.11782 49.4771 4.36038 49.6284 4.51173L50.0126 4.89591Z" fill="#91CEEE"/>
<path d="M42.9588 60.8575C43.1558 60.8575 43.3149 60.698 43.3149 60.502C43.3149 60.3069 43.1558 60.1474 42.9588 60.1474C42.7637 60.1474 42.6046 60.3069 42.6046 60.502C42.6046 60.698 42.7637 60.8575 42.9588 60.8575ZM42.9588 59.3758C43.5819 59.3758 44.0857 59.8813 44.0857 60.502C44.0857 61.1238 43.5819 61.6282 42.9588 61.6282C42.3395 61.6282 41.8337 61.1238 41.8337 60.502C41.8337 59.8813 42.3395 59.3758 42.9588 59.3758Z" fill="#91CEEE"/>
<path d="M64.1878 24.9699C64.3821 24.9699 64.5421 24.812 64.5421 24.6156C64.5421 24.4193 64.3821 24.2593 64.1878 24.2593C63.9915 24.2593 63.8315 24.4193 63.8315 24.6156C63.8315 24.812 63.9915 24.9699 64.1878 24.9699ZM64.1878 23.4881C64.8072 23.4881 65.3133 23.9942 65.3133 24.6156C65.3133 25.235 64.8072 25.7411 64.1878 25.7411C63.5664 25.7411 63.0603 25.235 63.0603 24.6156C63.0603 23.9942 63.5664 23.4881 64.1878 23.4881Z" fill="#91CEEE"/>
<path d="M17.0398 6.8959C17.2359 6.8959 17.3955 6.73627 17.3955 6.54195C17.3955 6.34589 17.2359 6.18627 17.0398 6.18627C16.8438 6.18627 16.6859 6.34589 16.6859 6.54195C16.6859 6.73627 16.8438 6.8959 17.0398 6.8959ZM17.0398 5.4142C17.661 5.4142 18.1658 5.91909 18.1658 6.54195C18.1658 7.16134 17.661 7.66797 17.0398 7.66797C16.4187 7.66797 15.9138 7.16134 15.9138 6.54195C15.9138 5.91909 16.4187 5.4142 17.0398 5.4142Z" fill="#91CEEE"/>
<path d="M3.91974 42.0594C4.11498 42.0594 4.27546 41.899 4.27546 41.7037C4.27546 41.5068 4.11498 41.3497 3.91974 41.3497C3.72451 41.3497 3.56402 41.5068 3.56402 41.7037C3.56402 41.899 3.72451 42.0594 3.91974 42.0594ZM3.91974 40.577C4.54184 40.577 5.04646 41.0833 5.04646 41.7037C5.04646 42.3258 4.54184 42.8304 3.91974 42.8304C3.2993 42.8304 2.79468 42.3258 2.79468 41.7037C2.79468 41.0833 3.2993 40.577 3.91974 40.577Z" fill="#91CEEE"/>
<path d="M54.4415 21.1571V21.3157H45.0237V11.8998H45.1842L45.5777 12.2933L54.048 20.7617L54.4415 21.1571Z" fill="#91CEEE"/>
<path d="M53.6704 48.6594C53.6704 49.768 52.7691 50.6694 51.6605 50.6694H25.8617C25.4452 50.6694 25.0581 50.5423 24.7374 50.3253C24.2017 49.9636 23.8517 49.3516 23.8517 48.6594V44.3248H30.8728C31.8172 44.3248 32.5836 43.5583 32.5836 42.6159V20.7255C32.5836 20.3912 32.4878 20.0823 32.3216 19.8183C32.0186 19.3374 31.4829 19.0167 30.8728 19.0167H23.8517V14.682C23.8517 13.5734 24.7531 12.6701 25.8617 12.6701H44.8075V21.535H53.6704V48.6594ZM31.8113 34.715H23.9143V26.8179H31.8113V34.715ZM31.8113 42.6159C31.8113 43.1321 31.391 43.5525 30.8728 43.5525H23.9143V35.4873H31.8113V42.6159ZM45.1927 21.1479V12.283H25.8617C24.54 12.283 23.4646 13.3603 23.4646 14.682V19.789H30.8728C31.2737 19.789 31.6139 20.0393 31.7488 20.3912C31.7879 20.4948 31.8113 20.6082 31.8113 20.7255V26.0456H23.4646V48.6594C23.4646 48.9801 23.5272 49.2871 23.6425 49.5667C23.8302 50.0203 24.1509 50.4054 24.5595 50.6694C24.8626 50.8688 25.2165 50.9998 25.5938 51.0409C25.6818 51.0506 25.7717 51.0565 25.8617 51.0565H51.6605C52.1415 51.0565 52.5873 50.9138 52.9646 50.6694C53.3791 50.3996 53.7076 50.0027 53.8933 49.5334C53.9852 49.2968 54.0419 49.0427 54.0537 48.7767C54.0556 48.7376 54.0576 48.6985 54.0576 48.6594V21.1479H45.1927Z" fill="white"/>
<path d="M53.6712 21.5328V48.6575C53.6712 49.7667 52.769 50.6689 51.6598 50.6689H25.863C24.7538 50.6689 23.8516 49.7667 23.8516 48.6575V44.3242H30.8739C31.8171 44.3242 32.5846 43.5567 32.5846 42.6155V20.7243C32.5846 19.783 31.8171 19.0156 30.8739 19.0156H23.8516V14.6803C23.8516 13.5711 24.7538 12.6708 25.863 12.6708H44.8073V21.5328H53.6712Z" fill="white"/>
<path d="M37.7466 44.8885L46.6962 27.6115H48.3359L39.4113 44.8885H37.7466Z" fill="#91CEEE"/>
<path d="M48.6658 42.846C48.3347 43.2757 47.9127 43.4906 47.3996 43.4906C46.9079 43.4906 46.4955 43.2757 46.1587 42.846C45.8237 42.4142 45.6572 41.6805 45.6572 40.6409C45.6572 39.4909 45.8218 38.701 46.1529 38.2693C46.4858 37.8395 46.904 37.6246 47.4093 37.6246C47.9088 37.6246 48.325 37.8375 48.66 38.2654C48.9949 38.6913 49.1633 39.4309 49.1633 40.486C49.1633 41.6282 48.9968 42.4142 48.6658 42.846ZM49.9125 37.3284C49.2369 36.5946 48.3831 36.2268 47.3532 36.2268C46.2264 36.2268 45.3668 36.6353 44.7764 37.4503C44.1878 38.2673 43.8916 39.2624 43.8916 40.4395C43.8916 41.9225 44.2227 43.0357 44.8828 43.7772C45.5449 44.5167 46.3716 44.8884 47.3648 44.8884C48.3734 44.8884 49.2195 44.5128 49.9029 43.7656C50.5863 43.0163 50.927 41.9496 50.927 40.5634C50.927 39.1405 50.5882 38.0621 49.9125 37.3284Z" fill="#91CEEE"/>
<path d="M39.9122 34.2311C39.5791 34.6603 39.1593 34.8768 38.6511 34.8768C38.1579 34.8768 37.7438 34.6622 37.4088 34.2349C37.0719 33.8095 36.9043 33.0716 36.9043 32.0251C36.9043 30.875 37.07 30.0863 37.4031 29.6553C37.7344 29.2242 38.1504 29.0096 38.6511 29.0096C39.1518 29.0096 39.5697 29.2223 39.9047 29.6496C40.2417 30.0769 40.4092 30.8167 40.4092 31.8707C40.4092 33.0133 40.2435 33.8001 39.9122 34.2311ZM41.1583 28.7122C40.4826 27.98 39.628 27.6111 38.5965 27.6111C37.4728 27.6111 36.6163 28.0215 36.0253 28.8421C35.4361 29.6609 35.1406 30.6567 35.1406 31.8256C35.1406 33.3164 35.47 34.4307 36.1326 35.1667C36.7952 35.9045 37.6234 36.2734 38.6172 36.2734C39.6205 36.2734 40.4619 35.8989 41.147 35.1497C41.8322 34.4024 42.1748 33.3333 42.1748 31.9479C42.1748 30.5249 41.836 29.4463 41.1583 28.7122Z" fill="#91CEEE"/>
<path d="M15.0769 26.0464V20.7252C15.0769 20.2098 15.4975 19.7891 16.0129 19.7891H30.8729C31.2735 19.7891 31.6141 20.0405 31.7488 20.3919C31.7889 20.4957 31.8107 20.6086 31.8107 20.7252V26.0464H15.0769ZM31.4993 19.5597C31.3118 19.4595 31.1005 19.4031 30.8729 19.4031H16.0129C15.2845 19.4031 14.689 19.9968 14.689 20.7252V26.6H32.1968V20.7252C32.1968 20.2226 31.9127 19.7837 31.4993 19.5597Z" fill="white"/>
<path d="M31.8107 20.7262V26.0459H15.0767V20.7262C15.0767 20.2096 15.4968 19.7895 16.0133 19.7895H30.874C31.3905 19.7895 31.8107 20.2096 31.8107 20.7262Z" fill="white"/>
<path d="M31.8107 34.7148H23.9127V26.8186H31.8107V34.7148ZM23.3591 26.4326V35.2703H32.1968V26.4326H23.3591Z" fill="#91CEEE"/>
<path d="M31.812 26.8187V34.7156H23.9133V26.8187H31.812Z" fill="#91CEEE"/>
<path d="M31.8107 42.6159C31.8107 43.1331 31.3901 43.5519 30.8729 43.5519H23.9127V35.4882H31.8107V42.6159ZM23.3591 35.1021V43.938H30.8729C31.6031 43.938 32.1968 43.3461 32.1968 42.6159V35.1021H23.3591Z" fill="#B3B3B2"/>
<path d="M31.812 35.486V42.6154C31.812 43.1319 31.3919 43.552 30.8754 43.552H23.9133V35.486H31.812Z" fill="#B3B3B2"/>
<path d="M15.0776 26.8167H23.141V34.7139H15.0776V26.8167ZM14.6904 26.4313V35.269H23.5282V26.4313H14.6904Z" fill="#B3B3B2"/>
<path d="M23.1413 26.8177V34.7148H15.0781V26.8177H23.1413Z" fill="#B3B3B2"/>
<path d="M23.141 43.5517H16.0146C15.8961 43.5517 15.783 43.5305 15.6805 43.4898C15.3269 43.3555 15.0776 43.0143 15.0776 42.6147V35.4866H23.141V43.5517ZM14.6904 35.1012V42.6147C14.6904 42.841 14.747 43.0532 14.8478 43.2388C15.0705 43.656 15.509 43.9371 16.0146 43.9371H23.5282V35.1012H14.6904Z" fill="#91CEEE"/>
<path d="M23.1413 35.486V43.5509H16.0139C15.4983 43.5509 15.0781 43.1307 15.0781 42.6152V35.486H23.1413Z" fill="#91CEEE"/>
<path d="M30.1726 31.5071H25.3833V30.194H30.1726V31.5071Z" fill="white"/>
<path d="M30.1726 41.3542H25.3833V40.0375H30.1726V41.3542Z" fill="white"/>
<path d="M30.1726 39.0022H25.3833V37.6873H30.1726V39.0022Z" fill="white"/>
<path d="M21.5028 31.5082H19.7666V33.2444H18.4517V31.5082H16.7156V30.1934H18.4517V28.4554H19.7666V30.1934H21.5028V31.5082Z" fill="white"/>
<path d="M21.2664 40.7481L20.3367 41.6777L19.1072 40.4499L17.8811 41.6777L16.9497 40.7481L18.1793 39.5185L16.9497 38.2925L17.8811 37.3611L19.1072 38.5889L20.3367 37.3611L21.2664 38.2925L20.0385 39.5185L21.2664 40.7481Z" fill="white"/>
<path d="M53.8485 51.443H24.755C24.5373 51.2836 24.3471 51.0926 24.1844 50.8789C24.1314 50.8122 24.0844 50.7416 24.0393 50.671C23.8334 50.3416 23.6961 49.967 23.6432 49.567C23.8295 50.0219 24.1511 50.4063 24.5589 50.671C24.8629 50.869 25.2158 51.0004 25.5943 51.0416C25.8413 51.151 26.1139 51.2112 26.4021 51.2112H52.1994C52.7289 51.2112 53.2132 51.0063 53.572 50.671C53.8838 50.3788 54.1034 49.9886 54.1819 49.5494C54.1995 49.4356 54.2113 49.32 54.2113 49.2003V22.0755H54.0564V21.3167H54.4427V21.1559L54.0505 20.7618L45.7266 12.4398H46.2717L54.9839 21.152V49.2003C54.9839 49.32 54.976 49.4356 54.9623 49.5494C54.9113 49.9572 54.7721 50.3376 54.5642 50.671C54.376 50.971 54.1328 51.234 53.8485 51.443ZM23.4628 44.8668H16.5546C15.9448 44.8668 15.4075 44.5452 15.1055 44.0628C14.9545 43.8236 14.8604 43.5412 14.8467 43.2393C15.0702 43.6569 15.5095 43.9393 16.0134 43.9393H16.0389C16.186 44.0374 16.3644 44.0942 16.5546 44.0942H23.4628V44.8668ZM32.5828 20.6618C32.5828 20.6618 32.5828 20.6598 32.5809 20.6578C32.5828 20.6598 32.5828 20.6598 32.5828 20.6618ZM32.5514 20.3931C32.5514 20.3931 32.5495 20.3931 32.5495 20.3911C32.5495 20.3931 32.5495 20.3931 32.5514 20.3931ZM32.5436 20.3617V20.3598C32.5436 20.3598 32.5436 20.3598 32.5436 20.3617ZM32.5397 20.3421C32.5397 20.3421 32.5397 20.3402 32.5377 20.3382C32.5397 20.3402 32.5397 20.3402 32.5397 20.3421ZM30.9945 19.797C30.9945 19.797 30.9945 19.797 30.9925 19.797H30.9945Z" fill="#C7C6C4"/>
<path d="M54.4418 21.3157H54.0562V21.1493H53.8879L53.6686 20.93L53.5022 20.7617L46.1203 13.3797V21.1493H45.347V13.2133H45.1924V12.4401H45.7248L54.0484 20.7617L54.4418 21.1571V21.3157Z" fill="#91CEEE"/>
<path d="M25.5938 51.0409C25.2165 50.9998 24.8626 50.8688 24.5595 50.6694C24.1509 50.4055 23.8302 50.0203 23.6425 49.5667C23.6269 49.4474 23.6191 49.3242 23.6191 49.1991V44.8664H23.4646V44.0941H23.6816V43.9377H24.4539V44.0941H31.4144C31.9326 44.0941 32.3529 43.6737 32.3529 43.1576V36.0289H32.1965V35.2546H32.3529V27.3596H32.1965V26.5853H32.3529V21.2652C32.3529 21.0756 32.2943 20.8996 32.1965 20.751V20.7256C32.1965 20.2211 31.913 19.7812 31.4985 19.5583C31.7996 19.572 32.0812 19.6659 32.3216 19.8184C32.4057 19.9513 32.4722 20.098 32.5172 20.2524C32.5191 20.2602 32.5211 20.2661 32.523 20.272C32.523 20.2739 32.523 20.2739 32.523 20.2759C32.523 20.2759 32.525 20.2778 32.525 20.2817C32.525 20.2817 32.525 20.2817 32.525 20.2837C32.5269 20.2857 32.5269 20.2896 32.5269 20.2935C32.5289 20.2935 32.5289 20.2954 32.5289 20.2954C32.5309 20.2974 32.5309 20.2993 32.5309 20.3013C32.5309 20.3033 32.5309 20.3052 32.5309 20.3052C32.5328 20.3071 32.5328 20.3091 32.5328 20.3091C32.5328 20.313 32.5348 20.315 32.5348 20.3169C32.5348 20.3189 32.5348 20.3208 32.5348 20.3228C32.5348 20.3248 32.5367 20.3248 32.5367 20.3267C32.5367 20.3287 32.5367 20.3287 32.5367 20.3326C32.5387 20.3326 32.5387 20.3345 32.5387 20.3365C32.5406 20.3384 32.5406 20.3404 32.5406 20.3424C32.5406 20.3443 32.5406 20.3463 32.5426 20.3482C32.5426 20.3502 32.5426 20.3502 32.5426 20.3521C32.5426 20.3541 32.5426 20.356 32.5445 20.358C32.5445 20.3599 32.5445 20.36 32.5445 20.36C32.5445 20.3639 32.5465 20.3678 32.5465 20.3697V20.3717C32.5465 20.3756 32.5485 20.3776 32.5485 20.3795V20.3815C32.5485 20.3854 32.5504 20.3893 32.5504 20.3912L32.5524 20.3932C32.5524 20.3951 32.5524 20.3991 32.5524 20.401V20.403C32.5543 20.4069 32.5543 20.4088 32.5543 20.4127C32.5563 20.4166 32.5563 20.4186 32.5563 20.4225V20.4245C32.5582 20.4284 32.5582 20.4303 32.5582 20.4323V20.4342C32.5582 20.4382 32.5602 20.4401 32.5602 20.444C32.5602 20.444 32.5602 20.444 32.5602 20.446C32.5621 20.4479 32.5621 20.4518 32.5621 20.4538V20.4557C32.5621 20.4597 32.5641 20.4616 32.5641 20.4655C32.5641 20.4694 32.5641 20.4714 32.566 20.4753C32.566 20.4753 32.566 20.4753 32.566 20.4773C32.566 20.4812 32.566 20.4831 32.566 20.4851C32.566 20.487 32.566 20.487 32.566 20.487C32.568 20.491 32.568 20.4929 32.568 20.4968C32.568 20.4968 32.568 20.4968 32.568 20.4988C32.568 20.5007 32.568 20.5046 32.57 20.5066V20.5085C32.57 20.5125 32.5719 20.5144 32.5719 20.5183C32.5719 20.5222 32.5719 20.5261 32.5719 20.5281V20.53C32.5739 20.5359 32.5739 20.5437 32.5739 20.5496L32.5758 20.5516C32.5758 20.5555 32.5758 20.5574 32.5758 20.5594C32.5758 20.5613 32.5758 20.5613 32.5758 20.5613C32.5758 20.5652 32.5758 20.5692 32.5758 20.5711C32.5758 20.5731 32.5758 20.5731 32.5758 20.575C32.5778 20.577 32.5778 20.5789 32.5778 20.5809C32.5778 20.5828 32.5778 20.5828 32.5778 20.5828C32.5778 20.5907 32.5778 20.5985 32.5797 20.6044V20.6063C32.5797 20.6083 32.5797 20.6122 32.5797 20.6141V20.6161C32.5797 20.62 32.5797 20.6219 32.5797 20.6259C32.5797 20.6278 32.5797 20.6278 32.5797 20.6278C32.5797 20.6317 32.5797 20.6337 32.5817 20.6356C32.5817 20.6356 32.5817 20.6376 32.5817 20.6395C32.5817 20.6415 32.5817 20.6454 32.5817 20.6493C32.5817 20.6513 32.5817 20.6552 32.5817 20.6591C32.5836 20.6591 32.5836 20.661 32.5836 20.661C32.5836 20.663 32.5836 20.6669 32.5836 20.6708C32.5836 20.6728 32.5836 20.6767 32.5836 20.6806V20.6826C32.5836 20.6845 32.5836 20.6884 32.5836 20.6904C32.5836 20.6923 32.5836 20.6923 32.5836 20.6923C32.5836 20.6962 32.5836 20.6982 32.5836 20.7041C32.5836 20.708 32.5836 20.7099 32.5836 20.7138C32.5836 20.7138 32.5836 20.7138 32.5836 20.7158C32.5836 20.7177 32.5836 20.7217 32.5836 20.7256V42.616C32.5836 43.5584 31.8172 44.3248 30.8728 44.3248H23.8517V48.6595C23.8517 48.6634 23.8517 48.6673 23.8517 48.6712C23.8517 48.6712 23.8517 48.6712 23.8517 48.6732C23.8517 48.6771 23.8517 48.681 23.8517 48.6849V48.6868C23.8517 48.6908 23.8517 48.6927 23.8517 48.6966C23.8517 48.6986 23.8517 48.6986 23.8517 48.6986C23.8517 48.7025 23.8517 48.7064 23.8517 48.7103V48.7123C23.8517 48.7162 23.8517 48.7201 23.8517 48.724C23.8517 48.7279 23.8517 48.7318 23.8517 48.7357C23.8517 48.7357 23.8517 48.7357 23.8517 48.7377C23.8517 48.7416 23.8537 48.7455 23.8537 48.7494V48.7514C23.8537 48.7553 23.8537 48.7572 23.8537 48.7611C23.8537 48.7631 23.8537 48.7631 23.8537 48.7631C23.8537 48.767 23.8537 48.7709 23.8537 48.7748C23.8537 48.7748 23.8537 48.7748 23.8537 48.7768C23.8537 48.7807 23.8537 48.7846 23.8556 48.7885C23.8556 48.7924 23.8556 48.7963 23.8556 48.7983C23.8556 48.8003 23.8556 48.8022 23.8556 48.8022C23.8556 48.8061 23.8556 48.81 23.8556 48.8139C23.8576 48.8178 23.8576 48.8217 23.8576 48.8257C23.8576 48.8257 23.8576 48.8257 23.8576 48.8276C23.8576 48.8296 23.8576 48.8354 23.8576 48.8393C23.8596 48.8472 23.8615 48.8569 23.8615 48.8628C23.8615 48.8648 23.8615 48.8648 23.8615 48.8648C23.8615 48.8687 23.8615 48.8726 23.8635 48.8765C23.8635 48.8765 23.8635 48.8765 23.8635 48.8785C23.8635 48.8843 23.8654 48.8941 23.8654 48.9019C23.8654 48.9117 23.8674 48.9195 23.8674 48.9273C23.9065 49.203 23.9984 49.4611 24.1372 49.6899C24.1392 49.6977 24.1431 49.7035 24.1489 49.7114C24.1509 49.7153 24.1528 49.7192 24.1548 49.7211C24.1548 49.7211 24.1548 49.7211 24.1548 49.7231C24.1567 49.7251 24.1587 49.727 24.1607 49.7309C24.1607 49.7309 24.1607 49.7329 24.1626 49.7329C24.1626 49.7348 24.1646 49.7387 24.1685 49.7407C24.1685 49.7426 24.1685 49.7427 24.1685 49.7427C24.1704 49.7466 24.1724 49.7485 24.1743 49.7505C24.1743 49.7524 24.1743 49.7524 24.1743 49.7524C24.1763 49.7544 24.1783 49.7583 24.1802 49.7602C24.1802 49.7622 24.1822 49.7622 24.1822 49.7642C24.1841 49.7661 24.1841 49.7681 24.188 49.772C24.188 49.772 24.19 49.7739 24.19 49.7759C24.19 49.7759 24.1919 49.7778 24.1919 49.7798C24.1939 49.7817 24.1939 49.7837 24.1959 49.7837C24.1959 49.7857 24.1998 49.7876 24.1998 49.7896C24.2017 49.7935 24.2017 49.7935 24.2037 49.7954C24.2037 49.7974 24.2056 49.7974 24.2056 49.7993C24.2076 49.8013 24.2095 49.8052 24.2115 49.8072C24.2115 49.8091 24.2134 49.8091 24.2134 49.8091C24.3562 50.0105 24.5321 50.1865 24.7374 50.3253C24.8215 50.4504 24.9212 50.5658 25.0327 50.6694C25.195 50.8239 25.3866 50.951 25.5938 51.0409ZM54.0576 22.0746H53.6704V21.535H45.3491V21.1479H46.1214V21.3023H54.0439L53.8894 21.1479H54.0576V21.316V22.0746ZM24.3914 19.4019H23.6191V15.2217C23.6191 13.6888 24.8684 12.4394 26.4033 12.4394H45.1927V13.2117H44.8075V12.6701H25.8617C24.7531 12.6701 23.8517 13.5735 23.8517 14.6821V19.0167H24.3914V19.4019Z" fill="#DFDFDD"/>
<path d="M24.7362 50.3232C24.5331 50.1865 24.3554 50.0108 24.2128 49.8097C24.2128 49.8077 24.2128 49.8077 24.2128 49.8077C24.2109 49.8038 24.2089 49.7999 24.205 49.7979C24.205 49.7979 24.205 49.796 24.2031 49.796C24.2031 49.7921 24.2011 49.7921 24.2011 49.7901C24.1992 49.7882 24.1972 49.7862 24.1953 49.7823C24.1953 49.7823 24.1933 49.7803 24.1933 49.7784C24.1914 49.7784 24.1914 49.7764 24.1894 49.7745C24.1894 49.7725 24.1894 49.7706 24.1875 49.7706C24.1855 49.7686 24.1835 49.7667 24.1835 49.7628C24.1816 49.7608 24.1816 49.7608 24.1796 49.7589C24.1796 49.7569 24.1777 49.755 24.1757 49.7511C24.1738 49.7511 24.1738 49.7511 24.1738 49.7491C24.1718 49.7472 24.1718 49.7452 24.1699 49.7413C24.1699 49.7413 24.1679 49.7413 24.1679 49.7393C24.166 49.7374 24.164 49.7354 24.1621 49.7315V49.7296C24.1601 49.7276 24.1582 49.7237 24.1543 49.7218C24.1543 49.7198 24.1543 49.7198 24.1543 49.7198C24.1523 49.7179 24.1503 49.714 24.1503 49.71C24.1484 49.71 24.1484 49.71 24.1484 49.71C24.1445 49.7042 24.1406 49.6964 24.1367 49.6886C23.998 49.4601 23.9062 49.2023 23.8691 48.927C23.8672 48.9172 23.8672 48.9094 23.8652 48.9016C23.8652 48.8938 23.8633 48.884 23.8633 48.8762C23.8613 48.8723 23.8613 48.8684 23.8613 48.8645C23.8613 48.8645 23.8613 48.8645 23.8613 48.8625C23.8613 48.8547 23.8594 48.8469 23.8594 48.8391C23.8594 48.8332 23.8594 48.8293 23.8574 48.8254C23.8574 48.8215 23.8574 48.8176 23.8574 48.8137V48.8117C23.8574 48.8098 23.8574 48.8039 23.8574 48.802C23.8574 48.8 23.8555 48.8 23.8555 48.7981C23.8555 48.7942 23.8555 48.7903 23.8555 48.7883C23.8555 48.7825 23.8555 48.7805 23.8555 48.7747C23.8555 48.7747 23.8555 48.7746 23.8555 48.7727C23.8555 48.7688 23.8555 48.7668 23.8535 48.761C23.8535 48.7571 23.8535 48.7532 23.8535 48.7493C23.8535 48.7453 23.8516 48.7414 23.8516 48.7375C23.8516 48.7356 23.8516 48.7356 23.8516 48.7356C23.8516 48.7297 23.8516 48.7278 23.8516 48.7219C23.8516 48.72 23.8516 48.7161 23.8516 48.7102C23.8516 48.7102 23.8516 48.7102 23.8516 48.7083C23.8516 48.7063 23.8516 48.7004 23.8516 48.6985C23.8516 48.6965 23.8516 48.6965 23.8516 48.6965C23.8516 48.6926 23.8516 48.6887 23.8516 48.6848C23.8516 48.679 23.8516 48.677 23.8516 48.6731C23.8516 48.6712 23.8516 48.6711 23.8516 48.6692C23.8516 48.6653 23.8516 48.6633 23.8516 48.6575V44.3242H30.8739C31.8171 44.3242 32.5846 43.5567 32.5846 42.6154V20.7242C32.5846 20.7203 32.5846 20.7184 32.5846 20.7145C32.5846 20.7125 32.5846 20.7125 32.5846 20.7125C32.5846 20.7086 32.5846 20.7067 32.5846 20.7028C32.5846 20.6989 32.5826 20.695 32.5826 20.691C32.5826 20.691 32.5826 20.6911 32.5826 20.6891C32.5826 20.6871 32.5826 20.6852 32.5826 20.6813V20.6793C32.5826 20.6774 32.5826 20.6715 32.5826 20.6696C32.5826 20.6657 32.5826 20.6618 32.5826 20.6598C32.5826 20.6579 32.5826 20.6578 32.5826 20.6578C32.5826 20.6539 32.5826 20.65 32.5826 20.6481C32.5826 20.6442 32.5826 20.6403 32.5826 20.6383C32.5826 20.6364 32.5826 20.6364 32.5826 20.6344C32.5807 20.6325 32.5807 20.6305 32.5807 20.6266C32.5807 20.6266 32.5807 20.6266 32.5807 20.6247C32.5807 20.6227 32.5807 20.6188 32.5807 20.6149C32.5807 20.611 32.5807 20.6071 32.5807 20.6051V20.6032C32.5787 20.5973 32.5788 20.5895 32.5788 20.5836V20.5817C32.5788 20.5778 32.5787 20.5758 32.5768 20.5739C32.5768 20.5719 32.5768 20.5719 32.5768 20.5719C32.5768 20.568 32.5768 20.5641 32.5768 20.5622C32.5748 20.5602 32.5748 20.5602 32.5748 20.5583C32.5748 20.5563 32.5748 20.5544 32.5748 20.5524C32.5748 20.5504 32.5748 20.5504 32.5748 20.5504C32.5748 20.5426 32.5729 20.5348 32.5729 20.529V20.527C32.5729 20.5251 32.5729 20.5212 32.5709 20.5192C32.5709 20.5192 32.5709 20.5192 32.5709 20.5173C32.5709 20.5133 32.5709 20.5114 32.5709 20.5075V20.5055C32.569 20.5036 32.569 20.4997 32.569 20.4977C32.569 20.4958 32.569 20.4958 32.569 20.4958C32.569 20.4919 32.569 20.4899 32.567 20.486C32.567 20.486 32.567 20.486 32.567 20.4841C32.567 20.4821 32.5651 20.4801 32.5651 20.4762C32.5651 20.4743 32.5651 20.4743 32.5651 20.4743C32.5651 20.4704 32.5651 20.4684 32.5631 20.4645C32.5631 20.4606 32.5631 20.4587 32.5631 20.4548V20.4528C32.5612 20.4508 32.5612 20.4469 32.5612 20.445C32.5612 20.443 32.5612 20.443 32.5612 20.443C32.5612 20.4391 32.5592 20.4372 32.5592 20.4333V20.4313C32.5592 20.4294 32.5592 20.4274 32.5573 20.4235V20.4216C32.5573 20.4177 32.5573 20.4157 32.5553 20.4118C32.5534 20.4079 32.5533 20.4059 32.5533 20.402V20.4001C32.5533 20.3981 32.5514 20.3942 32.5514 20.3923V20.3903C32.5514 20.3884 32.5495 20.3845 32.5495 20.3806V20.3786C32.5495 20.3766 32.5475 20.3747 32.5475 20.3708V20.3688C32.5475 20.3669 32.5455 20.363 32.5436 20.3591C32.5436 20.3591 32.5436 20.3591 32.5436 20.3571C32.5436 20.3552 32.5436 20.3532 32.5436 20.3513C32.5416 20.3493 32.5416 20.3493 32.5416 20.3474C32.5416 20.3454 32.5416 20.3435 32.5416 20.3415C32.5397 20.3395 32.5397 20.3376 32.5397 20.3356C32.5397 20.3337 32.5397 20.3317 32.5377 20.3317C32.5377 20.3278 32.5377 20.3278 32.5377 20.3259C32.5377 20.3239 32.5358 20.3239 32.5358 20.322C32.5358 20.32 32.5338 20.3181 32.5338 20.3161C32.5338 20.3141 32.5338 20.3122 32.5319 20.3083C32.5319 20.3083 32.5319 20.3063 32.5319 20.3044C32.5319 20.3044 32.5319 20.3024 32.5299 20.3005C32.5299 20.2985 32.5299 20.2966 32.5299 20.2946C32.5299 20.2946 32.5299 20.2927 32.528 20.2927C32.528 20.2888 32.528 20.2849 32.526 20.2829C32.526 20.281 32.526 20.281 32.526 20.281C32.526 20.277 32.5241 20.2751 32.5241 20.2751C32.5241 20.2731 32.5221 20.2731 32.5221 20.2712C32.5221 20.2653 32.5202 20.2595 32.5182 20.2517C32.4713 20.0974 32.4069 19.9509 32.3229 19.8181C32.8033 20.1208 33.1255 20.6559 33.1255 21.2652V43.1564C33.1255 44.0976 32.3581 44.8651 31.4149 44.8651H24.3925V49.1984C24.3925 49.6163 24.5194 50.003 24.7362 50.3232ZM53.6712 22.0736H45.3483V21.5327H53.6712V22.0736ZM24.3925 19.0155H23.8516V14.6802C23.8516 13.571 24.7538 12.6708 25.863 12.6708H44.8073V13.2117H26.4039C25.2947 13.2117 24.3925 14.112 24.3925 15.2212V19.0155Z" fill="#DFDFDD"/>
<path d="M15.6159 26.4318H14.8438V21.2654C14.8438 20.3239 15.6086 19.5572 16.5519 19.5572H23.6177V19.4024H24.3898V19.5572H31.4119C31.441 19.5572 31.4684 19.559 31.4975 19.559C31.9109 19.783 32.195 20.2219 32.195 20.7245V20.7518C32.0875 20.5897 31.9327 20.4623 31.747 20.3912C31.6596 20.1636 31.4866 19.9779 31.2644 19.8759C31.2589 19.8722 31.2535 19.8704 31.248 19.8686V19.8668C31.2425 19.865 31.2389 19.8631 31.2334 19.8613C31.2298 19.8595 31.228 19.8595 31.2243 19.8577C31.2225 19.8559 31.2189 19.8559 31.217 19.854C31.2134 19.854 31.2116 19.8522 31.2098 19.8522C31.208 19.8522 31.2079 19.8522 31.2079 19.8522C31.2061 19.8504 31.2025 19.8486 31.2007 19.8486C31.2007 19.8486 31.2007 19.8486 31.1988 19.8486C31.197 19.8467 31.1952 19.8467 31.1934 19.8449C31.1916 19.8449 31.1915 19.8449 31.1897 19.8449C31.1879 19.8431 31.1861 19.8431 31.1843 19.8431C31.1843 19.8413 31.1825 19.8413 31.1825 19.8413C31.1806 19.8413 31.1788 19.8413 31.1752 19.8395C31.1752 19.8395 31.1752 19.8395 31.1752 19.8376C31.1715 19.8376 31.1697 19.8376 31.1661 19.8358C31.1642 19.8358 31.1606 19.834 31.1588 19.834C31.1588 19.834 31.1588 19.8322 31.157 19.8322C31.1551 19.8322 31.1533 19.8322 31.1497 19.8304H31.1478C31.146 19.8304 31.1442 19.8285 31.1424 19.8285H31.1406C31.1369 19.8285 31.1351 19.8267 31.1333 19.8249C31.1333 19.8249 31.1333 19.8249 31.1315 19.8249C31.1296 19.8249 31.1278 19.8249 31.1242 19.8231C31.1205 19.8231 31.1187 19.8231 31.1169 19.8213C31.1151 19.8213 31.1151 19.8212 31.1132 19.8194C31.1114 19.8194 31.1096 19.8194 31.1078 19.8194H31.106C31.1041 19.8176 31.1005 19.8176 31.0987 19.8176C31.0987 19.8176 31.0987 19.8158 31.0969 19.8158C31.095 19.8158 31.0932 19.814 31.0896 19.814C31.0877 19.814 31.0841 19.814 31.0823 19.8121C31.0805 19.8121 31.0805 19.8121 31.0805 19.8121C31.0768 19.8121 31.075 19.8121 31.0714 19.8103C31.0695 19.8085 31.0659 19.8085 31.0641 19.8085H31.0623C31.0586 19.8067 31.0568 19.8067 31.055 19.8067C31.0532 19.8067 31.0531 19.8067 31.0531 19.8067C31.0513 19.8067 31.0477 19.8067 31.0477 19.8049C31.0459 19.8049 31.0459 19.8049 31.044 19.8049C31.0422 19.803 31.0404 19.803 31.0368 19.803H31.0349C31.0331 19.803 31.0313 19.803 31.0295 19.8012C31.0277 19.8012 31.0277 19.8012 31.0277 19.8012C31.024 19.8012 31.0222 19.8012 31.0186 19.8012C31.0186 19.8012 31.0185 19.8012 31.0167 19.7994C31.0149 19.7994 31.0131 19.7994 31.0113 19.7994H31.0095C31.0058 19.7994 31.004 19.7994 31.0022 19.7976C31.0003 19.7976 31.0003 19.7976 31.0003 19.7976C30.9985 19.7976 30.9949 19.7958 30.9931 19.7958H30.9912C30.9894 19.7958 30.9858 19.7958 30.984 19.7958C30.9821 19.7958 30.9821 19.7958 30.9821 19.7958C30.9803 19.7958 30.9767 19.7939 30.9748 19.7939H30.973C30.9712 19.7939 30.9676 19.7939 30.9657 19.7939H30.9639C30.9603 19.7939 30.9585 19.7939 30.9548 19.7921C30.953 19.7921 30.9494 19.7921 30.9475 19.7921H30.9457C30.9421 19.7903 30.9403 19.7903 30.9366 19.7903C30.933 19.7903 30.9311 19.7903 30.9293 19.7903H30.9275C30.9239 19.7903 30.922 19.7903 30.9184 19.7903C30.9184 19.7903 30.9184 19.7903 30.9166 19.7903C30.9147 19.7903 30.9129 19.7903 30.9111 19.7903C30.9093 19.7903 30.9093 19.7903 30.9093 19.7903C30.9057 19.7903 30.9038 19.7885 30.9002 19.7885C30.9002 19.7885 30.9002 19.7885 30.8984 19.7885C30.8965 19.7885 30.8947 19.7885 30.8911 19.7885C30.8874 19.7885 30.8838 19.7885 30.882 19.7885C30.882 19.7885 30.882 19.7885 30.8801 19.7885C30.8765 19.7885 30.8747 19.7885 30.871 19.7885H16.0111C15.4957 19.7885 15.075 20.2091 15.075 20.7245V26.0457H15.6159V26.4318Z" fill="#DFDFDD"/>
<path d="M15.6167 26.0457H15.0767V20.7252C15.0767 20.2088 15.4967 19.7887 16.0131 19.7887H30.8726C30.8762 19.7887 30.878 19.7887 30.8817 19.7887C30.8835 19.7887 30.8835 19.7887 30.8835 19.7887C30.8853 19.7887 30.889 19.7887 30.8926 19.7887C30.8962 19.7887 30.898 19.7887 30.8999 19.7887C30.9017 19.7887 30.9017 19.7887 30.9017 19.7887C30.9053 19.7887 30.9071 19.7887 30.9108 19.7887C30.9108 19.7887 30.9108 19.7887 30.9126 19.7887C30.9144 19.7887 30.9162 19.7887 30.918 19.7887C30.9199 19.7887 30.9199 19.7887 30.9199 19.7887C30.9235 19.7887 30.9253 19.7887 30.9271 19.7887C30.929 19.7906 30.9308 19.7906 30.9308 19.7906C30.9326 19.7906 30.9344 19.7906 30.9381 19.7906C30.9417 19.7906 30.9435 19.7906 30.9453 19.7924C30.9471 19.7924 30.949 19.7924 30.949 19.7924C30.9508 19.7924 30.9544 19.7924 30.9562 19.7924C30.9599 19.7924 30.9617 19.7924 30.9653 19.7924H30.9671C30.969 19.7942 30.9726 19.7942 30.9744 19.7942C30.9781 19.7942 30.9799 19.7942 30.9835 19.7942C30.9835 19.7942 30.9835 19.7942 30.9853 19.7942C30.9871 19.7942 30.9908 19.796 30.9926 19.796C30.9944 19.796 30.9944 19.796 30.9944 19.796C30.9962 19.796 30.9999 19.7978 31.0017 19.7978C31.0017 19.7978 31.0017 19.7978 31.0035 19.7978C31.0053 19.7978 31.0072 19.7978 31.0108 19.7978C31.0108 19.7978 31.0126 19.7978 31.0126 19.7997C31.0144 19.7997 31.0162 19.7997 31.018 19.7997C31.0199 19.7997 31.0199 19.7997 31.0199 19.7997C31.0235 19.7997 31.0253 19.7996 31.029 19.8015C31.029 19.8015 31.029 19.8015 31.0308 19.8015C31.0326 19.8015 31.0344 19.8015 31.0362 19.8015C31.0362 19.8015 31.0381 19.8015 31.0381 19.8033C31.0417 19.8033 31.0435 19.8033 31.0453 19.8051C31.0471 19.8051 31.0471 19.8051 31.049 19.8051C31.049 19.8051 31.0526 19.8051 31.0544 19.8051C31.0544 19.8051 31.0544 19.8051 31.0562 19.8069C31.0581 19.8069 31.0599 19.8069 31.0635 19.8069H31.0653C31.0672 19.8087 31.0708 19.8087 31.0726 19.8106C31.0762 19.8106 31.0781 19.8106 31.0817 19.8106C31.0817 19.8124 31.0817 19.8124 31.0835 19.8124C31.0853 19.8124 31.089 19.8124 31.0908 19.8142C31.0944 19.8142 31.0962 19.816 31.0981 19.816C31.0999 19.816 31.0999 19.816 31.0999 19.816C31.1017 19.816 31.1053 19.8178 31.1072 19.8178H31.109C31.1108 19.8178 31.1126 19.8197 31.1162 19.8197C31.1162 19.8215 31.1162 19.8215 31.1181 19.8215C31.1199 19.8215 31.1217 19.8215 31.1253 19.8233C31.129 19.8233 31.1308 19.8233 31.1326 19.8251C31.1344 19.8251 31.1344 19.8251 31.1344 19.8251C31.1362 19.8269 31.1399 19.8269 31.1417 19.8269C31.1417 19.8288 31.1435 19.8287 31.1435 19.8287C31.1453 19.8287 31.1472 19.8287 31.149 19.8306H31.1508C31.1544 19.8306 31.1562 19.8306 31.1581 19.8324C31.1599 19.8324 31.1599 19.8342 31.1599 19.8342C31.1635 19.8342 31.1653 19.8342 31.1672 19.836H31.169C31.1708 19.836 31.1726 19.8378 31.1762 19.8378C31.1762 19.8397 31.1762 19.8396 31.1762 19.8396C31.1799 19.8396 31.1817 19.8415 31.1835 19.8415H31.1853C31.1872 19.8415 31.189 19.8433 31.1926 19.8451C31.1926 19.8451 31.1926 19.8451 31.1944 19.8451C31.1963 19.8451 31.1981 19.8469 31.1999 19.8469C31.2017 19.8469 31.2017 19.8469 31.2017 19.8469C31.2035 19.8487 31.2072 19.8506 31.209 19.8506C31.209 19.8506 31.209 19.8506 31.2108 19.8506C31.2126 19.8524 31.2144 19.8524 31.2181 19.8542C31.2217 19.856 31.2235 19.856 31.2253 19.8578H31.2272C31.229 19.8578 31.2308 19.8597 31.2344 19.8597C31.2399 19.8633 31.2453 19.8651 31.2508 19.8669V19.8688C31.2562 19.8706 31.2617 19.8724 31.2654 19.8742C31.4872 19.976 31.6617 20.1633 31.749 20.3906H31.7472C31.6436 20.3506 31.5308 20.3288 31.4144 20.3288H16.5532C16.0367 20.3288 15.6167 20.7488 15.6167 21.2652V26.0457Z" fill="#DFDFDD"/>
<path d="M24.453 35.1022H23.6809V27.3589H23.5261V26.5868H32.1963V27.3589H31.8102V26.8181H23.9122V34.7143H24.453V35.1022Z" fill="#91CEEE"/>
<path d="M24.4553 34.7156H23.9133V26.8187H31.812V27.3589H24.4553V34.7156Z" fill="#91CEEE"/>
<path d="M24.453 43.938H23.6809V36.0291H23.5261V35.2569H23.6809V35.1021H24.453V35.2569H32.1963V36.0291H31.8102V35.4882H23.9122V43.5519H24.453V43.938Z" fill="#989998"/>
<path d="M24.4553 43.552H23.9133V35.486H31.812V36.028H24.4553V43.552Z" fill="#989998"/>
<path d="M15.6178 35.1011H14.8452V26.4313H15.6178V26.5851H23.5273V27.3577H23.1402V26.8167H15.0768V34.7139H15.6178V35.1011Z" fill="#989998"/>
<path d="M15.6184 34.7148H15.0781V26.8177H23.1413V27.3579H15.6184V34.7148Z" fill="#989998"/>
<path d="M16.0385 43.9371H16.0138C15.5082 43.9371 15.0697 43.656 14.847 43.2388C14.8452 43.2123 14.8452 43.184 14.8452 43.1557V35.1012H15.6178V35.255H23.5273V36.0276H23.3594H23.1402V35.4866H15.0768V42.6147C15.0768 42.6183 15.0768 42.6218 15.0768 42.6236C15.0768 42.6236 15.0768 42.6236 15.0768 42.6254C15.0768 42.6289 15.0768 42.6307 15.0768 42.6342C15.0768 42.6377 15.0768 42.6395 15.0768 42.6413C15.0768 42.643 15.0768 42.643 15.0768 42.643C15.0768 42.6466 15.0768 42.6483 15.0768 42.6519C15.0768 42.6519 15.0768 42.6519 15.0768 42.6536C15.0768 42.6554 15.0786 42.6572 15.0786 42.6607V42.6625C15.0786 42.666 15.0786 42.6678 15.0786 42.6713C15.0786 42.6731 15.0786 42.6766 15.0786 42.6784V42.6801C15.0786 42.6837 15.0786 42.6855 15.0786 42.689V42.6908C15.0803 42.6925 15.0803 42.6961 15.0803 42.6978C15.0803 42.7014 15.0803 42.7031 15.0803 42.7067V42.7084C15.0803 42.712 15.0803 42.7137 15.0821 42.7155C15.0821 42.7173 15.0821 42.7173 15.0821 42.7173C15.0821 42.7191 15.0821 42.7226 15.0839 42.7243C15.0839 42.7261 15.0839 42.7261 15.0839 42.7261C15.0839 42.7279 15.0839 42.7314 15.0839 42.735C15.0839 42.735 15.0839 42.735 15.0839 42.7367C15.0839 42.7385 15.0839 42.7403 15.0856 42.742C15.0856 42.742 15.0856 42.7438 15.0856 42.7456C15.0856 42.7473 15.0856 42.7491 15.0856 42.7526C15.0856 42.7562 15.0874 42.7597 15.0874 42.7615C15.0892 42.765 15.0892 42.7668 15.0892 42.7703C15.0892 42.7703 15.0892 42.7703 15.0892 42.7721C15.0892 42.7739 15.0909 42.7756 15.0909 42.7792C15.0909 42.7792 15.0909 42.7792 15.0909 42.7809C15.0909 42.7827 15.0909 42.7845 15.0909 42.788C15.0927 42.788 15.0927 42.7898 15.0927 42.7898C15.0927 42.7915 15.0945 42.7951 15.0945 42.7968C15.0945 42.8004 15.0945 42.8039 15.0962 42.8057C15.0962 42.8057 15.0962 42.8057 15.0962 42.8074C15.0962 42.8092 15.0963 42.8128 15.098 42.8145C15.098 42.8163 15.0998 42.8198 15.0998 42.8216C15.0998 42.8233 15.0998 42.8234 15.0998 42.8251C15.0998 42.8269 15.1016 42.8304 15.1016 42.8322V42.834C15.1033 42.8357 15.1033 42.8375 15.1033 42.8393C15.1033 42.841 15.1033 42.841 15.1033 42.841C15.1051 42.8446 15.1051 42.8481 15.1051 42.8499C15.1068 42.8534 15.1086 42.8552 15.1086 42.8587C15.1086 42.8605 15.1104 42.864 15.1104 42.8658V42.8676C15.1104 42.8693 15.1122 42.8728 15.1139 42.8746C15.1139 42.8746 15.1139 42.8746 15.1139 42.8764C15.1139 42.8782 15.1139 42.8799 15.1157 42.8835V42.8852C15.1157 42.887 15.1175 42.8905 15.1192 42.8923C15.1192 42.8958 15.1192 42.8976 15.121 42.9011C15.121 42.9011 15.121 42.9011 15.121 42.9029C15.1228 42.9082 15.1245 42.9118 15.1263 42.9171C15.1263 42.9188 15.1263 42.9188 15.1263 42.9188C15.1281 42.9241 15.1298 42.9294 15.1334 42.9347C15.2253 43.1893 15.4251 43.3944 15.6796 43.4898C15.7486 43.6755 15.8759 43.8311 16.0385 43.9371Z" fill="#91CEEE"/>
<path d="M15.6802 43.4913C15.4259 43.3942 15.2264 43.1894 15.1329 42.9352C15.1311 42.9299 15.1293 42.9228 15.1276 42.9175C15.1258 42.9122 15.124 42.9069 15.1223 42.9016C15.1205 42.8981 15.1187 42.8963 15.1187 42.8928C15.1187 42.891 15.117 42.8875 15.117 42.884C15.1152 42.8805 15.1152 42.8787 15.1134 42.8769C15.1134 42.8752 15.1134 42.8752 15.1134 42.8752C15.1134 42.8734 15.1117 42.8699 15.1117 42.8681V42.8663C15.1117 42.8646 15.1099 42.861 15.1099 42.8593C15.1081 42.8575 15.1081 42.8575 15.1081 42.8575C15.1081 42.854 15.1081 42.8522 15.1064 42.8505V42.8487C15.1064 42.8469 15.1046 42.8434 15.1046 42.8416C15.1046 42.8399 15.1046 42.8398 15.1046 42.8398C15.1028 42.8381 15.1028 42.8346 15.1028 42.8328C15.1028 42.8293 15.1011 42.8275 15.1011 42.824C15.0993 42.824 15.0993 42.824 15.0993 42.8222C15.0993 42.8204 15.0993 42.8169 15.0993 42.8151C15.0975 42.8134 15.0976 42.8098 15.0976 42.8081C15.0976 42.8063 15.0976 42.8063 15.0976 42.8045C15.0958 42.8028 15.0958 42.7993 15.094 42.7975V42.7957C15.094 42.7939 15.094 42.7922 15.094 42.7904C15.094 42.7887 15.094 42.7887 15.0922 42.7887C15.0922 42.7851 15.0922 42.7816 15.0922 42.7798C15.0922 42.7798 15.0922 42.7798 15.0922 42.7781C15.0922 42.7763 15.0905 42.7745 15.0905 42.771C15.0905 42.771 15.0905 42.771 15.0905 42.7692C15.0887 42.7675 15.0887 42.7657 15.0887 42.7622V42.7604C15.0887 42.7586 15.087 42.7569 15.087 42.7533V42.7516C15.087 42.7498 15.087 42.7463 15.087 42.7445V42.7427C15.0852 42.741 15.0852 42.7375 15.0852 42.7357C15.0852 42.7357 15.0852 42.7357 15.0852 42.7339C15.0834 42.7321 15.0834 42.7286 15.0834 42.7269C15.0834 42.7251 15.0834 42.7251 15.0834 42.7251C15.0834 42.7216 15.0834 42.718 15.0834 42.7163C15.0817 42.7127 15.0817 42.711 15.0817 42.7074C15.0817 42.7074 15.0817 42.7074 15.0817 42.7057C15.0817 42.7039 15.0799 42.7004 15.0799 42.6986V42.6968C15.0799 42.6951 15.0799 42.6933 15.0799 42.6898V42.688C15.0799 42.6863 15.0799 42.6827 15.0799 42.6809V42.6792C15.0799 42.6774 15.0781 42.6739 15.0781 42.6721V42.6704C15.0781 42.6668 15.0781 42.6651 15.0781 42.6615C15.0781 42.658 15.0781 42.6545 15.0781 42.6527C15.0781 42.6492 15.0781 42.6474 15.0781 42.6439V42.6421C15.0781 42.6386 15.0781 42.6368 15.0781 42.6333C15.0781 42.6297 15.0781 42.628 15.0781 42.6244C15.0781 42.6244 15.0781 42.6245 15.0781 42.6227C15.0781 42.6209 15.0781 42.6174 15.0781 42.6156V35.4864H23.1413V36.0285H15.6184V43.1559C15.6184 43.2742 15.6396 43.3854 15.6802 43.4913Z" fill="#91CEEE"/>
<path d="M53.6689 20.9299H45.4099V12.6709L53.5025 20.7615L53.6689 20.9299ZM45.731 11.8997H44.6387V12.6709H44.807V21.5348H53.6689V21.7031H54.4421V20.6108L45.731 11.8997Z" fill="#2E2D2D"/>
<path d="M54.4424 20.7615V48.6606C54.4424 48.6997 54.4404 48.7389 54.4404 48.778C54.4287 49.0462 54.3797 49.3066 54.2955 49.5493C54.1507 49.98 53.9021 50.3636 53.581 50.671C53.0819 51.1486 52.4045 51.4432 51.6587 51.4432H25.8601C25.2297 51.4432 24.6503 51.2328 24.1824 50.8804C24.0963 50.8139 24.016 50.7454 23.9377 50.671C23.4072 50.164 23.0764 49.4495 23.0764 48.6606V44.3246H23.8497V48.6606C23.8497 49.3535 24.202 49.9643 24.7364 50.3265C25.0575 50.5437 25.4431 50.671 25.8601 50.671H51.6587C52.7686 50.671 53.6691 49.7685 53.6691 48.6606V21.5347H44.8073V12.6709H25.8601C24.7521 12.6709 23.8497 13.5733 23.8497 14.6833V19.7886H23.0764V14.6833C23.0764 13.1485 24.3253 11.8996 25.8601 11.8996H45.5785V20.7615H54.4424Z" fill="#2E2D2D"/>
<path d="M30.873 19.7885C31.2723 19.7885 31.6133 20.0383 31.7483 20.3903C31.7884 20.4942 31.8102 20.6073 31.8102 20.724V26.2126H15.0764V20.724C15.0764 20.2079 15.4958 19.7885 16.0136 19.7885H30.873ZM32.3208 19.8177C32.0199 19.3363 31.4839 19.0154 30.873 19.0154H16.0136C15.0691 19.0154 14.3032 19.7831 14.3032 20.724V26.9839H15.0764V26.818H23.1397V26.9839H23.9128V26.818H31.8102V26.9839H32.5834V20.724C32.5834 20.3921 32.4867 20.0803 32.3208 19.8177Z" fill="#2E2D2D"/>
<path d="M31.8111 34.8837H23.7459V26.8186H31.8111V34.8837ZM22.9746 26.0454V26.8186H23.1405V34.7141H22.9746V35.4873H23.1405V35.655H23.9137V35.4873H31.8111V35.655H32.5842V26.0454H22.9746Z" fill="#2E2D2D"/>
<path d="M31.8111 42.6148C31.8111 43.1308 31.3917 43.552 30.8738 43.552H23.7459V35.4869H31.8111V42.6148ZM22.9746 34.7138V35.4869H23.1405V43.552H22.9746V44.3252H30.8738C31.8166 44.3252 32.5842 43.5575 32.5842 42.6148V34.7138H22.9746Z" fill="#2E2D2D"/>
<path d="M15.0758 26.8188H23.1411V34.884H15.0758V26.8188ZM14.304 26.0469V35.6559H15.0758V35.4877H23.1411V35.6559H23.9129V26.0469H14.304Z" fill="#2E2D2D"/>
<path d="M15.6794 43.4907C15.3272 43.3562 15.0758 43.0145 15.0758 42.6162V35.4874H23.1411V43.5527H16.0123C15.8954 43.5527 15.7821 43.5314 15.6794 43.4907ZM14.304 34.7156V42.6162C14.304 43.2252 14.6244 43.7616 15.1059 44.0643C15.3679 44.2289 15.6794 44.3263 16.0123 44.3263H23.9129V34.7156H14.304Z" fill="#2E2D2D"/>
<path d="M60.6245 51.0575C60.6245 51.2708 60.4529 51.4432 60.2394 51.4432H14.6783C14.4648 51.4432 14.2932 51.2708 14.2932 51.0575C14.2932 50.844 14.4648 50.6706 14.6783 50.6706H60.2394C60.4529 50.6706 60.6245 50.844 60.6245 51.0575Z" fill="#2E2D2D"/>
<path d="M13.0859 51.4429H11.3251C11.1135 51.4429 10.9395 51.2689 10.9395 51.0556C10.9395 50.8423 11.1135 50.67 11.3251 50.67H13.0859C13.2991 50.67 13.4715 50.8423 13.4715 51.0556C13.4715 51.2689 13.2991 51.4429 13.0859 51.4429Z" fill="#2E2D2D"/>
<path d="M20.9125 49.5486H19.1548C18.9408 49.5486 18.7671 49.3767 18.7671 49.1627C18.7671 48.9504 18.9408 48.7767 19.1548 48.7767H20.9125C21.1265 48.7767 21.3002 48.9504 21.3002 49.1627C21.3002 49.3767 21.1265 49.5486 20.9125 49.5486Z" fill="#2E2D2D"/>
<path d="M17.5606 49.5485H15.8009C15.5877 49.5485 15.416 49.3768 15.416 49.1636C15.416 48.9503 15.5877 48.777 15.8009 48.777H17.5606C17.7755 48.777 17.9472 48.9503 17.9472 49.1636C17.9472 49.3768 17.7755 49.5485 17.5606 49.5485Z" fill="#2E2D2D"/>
<path d="M55.7636 49.5485H54.0041C53.7916 49.5485 53.6184 49.3772 53.6184 49.1627C53.6184 48.9502 53.7916 48.777 54.0041 48.777H55.7636C55.9761 48.777 56.1493 48.9502 56.1493 49.1627C56.1493 49.3772 55.9761 49.5485 55.7636 49.5485Z" fill="#2E2D2D"/>
<path d="M59.1176 49.5498H57.3577C57.1449 49.5498 56.9719 49.3774 56.9719 49.164C56.9719 48.9506 57.1449 48.777 57.3577 48.777H59.1176C59.3304 48.777 59.5034 48.9506 59.5034 49.164C59.5034 49.3774 59.3304 49.5498 59.1176 49.5498Z" fill="#2E2D2D"/>
<path d="M63.5904 51.4426H61.8324C61.6187 51.4426 61.4453 51.2701 61.4453 51.0568C61.4453 50.8435 61.6187 50.6699 61.8324 50.6699H63.5904C63.8041 50.6699 63.9775 50.8435 63.9775 51.0568C63.9775 51.2701 63.8041 51.4426 63.5904 51.4426Z" fill="#2E2D2D"/>
</svg>
