<svg width="71" height="62" viewBox="0 0 71 62" fill="none" xmlns="http://www.w3.org/2000/svg">
<path d="M1.64016 26.1302C2.69125 27.1813 4.11673 27.7721 5.60313 27.7721C6.71981 27.7721 7.80227 27.438 8.71708 26.8269L4.72743 30.8174C3.67634 31.8664 3.08581 33.2923 3.08581 34.7793C3.08581 36.2663 3.67634 37.6922 4.72743 38.7433C5.77831 39.7944 7.204 40.3851 8.6904 40.3851C9.80708 40.3851 10.8899 40.0511 11.8044 39.44L9.71053 41.534C8.65923 42.5851 8.06891 44.011 8.06891 45.4959C8.06891 46.9829 8.65923 48.4089 9.71053 49.4599C10.7618 50.511 12.1873 51.1018 13.6737 51.1018C14.79 51.1018 15.8726 50.7677 16.7873 50.1566L16.2762 50.6679C15.2251 51.719 14.6348 53.1449 14.6348 54.6319C14.6348 56.1189 15.2251 57.5448 16.2762 58.5959C17.3275 59.6449 18.753 60.2357 20.2391 60.2357C21.7255 60.2357 23.151 59.6449 24.2021 58.5959L29.5136 53.2834C28.9019 54.198 28.5688 55.2817 28.5688 56.3979C28.5688 57.8849 29.1589 59.3108 30.2102 60.3599C31.2613 61.411 32.6868 62.0017 34.173 62.0017C35.6594 62.0017 37.0849 61.411 38.1362 60.3599L46.2063 52.2914C45.5944 53.206 45.2614 54.2876 45.2614 55.4039C45.2614 56.8909 45.8515 58.3168 46.9028 59.3679C47.9541 60.419 49.3796 61.0097 50.8658 61.0097C52.352 61.0097 53.7777 60.419 54.8287 59.3679L67.3925 46.8057C68.4438 45.7526 69.0339 44.3287 69.0339 42.8417C69.0339 41.3547 68.4438 39.9309 67.3925 38.8798C66.3412 37.8267 64.9157 37.238 63.4295 37.238C62.312 37.238 61.2306 37.57 60.315 38.1811L62.9445 35.5513C63.9958 34.5002 64.5872 33.0743 64.5872 31.5894C64.5872 30.1024 63.9958 28.6765 62.9445 27.6254C61.8934 26.5743 60.468 25.9836 58.9816 25.9836C57.8653 25.9836 56.7826 26.3176 55.868 26.9287L61.1795 21.6183C62.2298 20.5672 62.8209 19.1413 62.8209 17.6543C62.8209 16.1693 62.2298 14.7434 61.1795 13.6923C60.1284 12.6413 58.7029 12.0505 57.2155 12.0505C56.0992 12.0505 55.0176 12.3826 54.1019 12.9937L57.4846 9.61224C58.5357 8.56116 59.126 7.13525 59.126 5.64824C59.126 4.16327 58.5357 2.73737 57.4846 1.68628C56.4333 0.635197 55.0078 0.0444756 53.5216 0.0444756C52.0352 0.0444756 50.6087 0.635197 49.5586 1.68628L42.0242 9.21911C42.6361 8.3045 42.9692 7.22284 42.9692 6.10656C42.9692 4.61956 42.379 3.19367 41.3277 2.14258C40.2765 1.09149 38.851 0.500771 37.3648 0.500771C35.8774 0.500771 34.4519 1.09149 33.4006 2.14258L22.8265 12.7166C23.4374 11.802 23.7715 10.7204 23.7715 9.60409C23.7715 8.11708 23.1802 6.69119 22.1291 5.64011C21.0778 4.58902 19.6523 4.00032 18.1661 4.00032C16.6797 4.00032 15.2542 4.58902 14.2029 5.64011L1.64016 18.2043C0.589067 19.2554 -0.00146484 20.6813 -0.00146484 22.1662C-0.00146484 23.6532 0.589067 25.0791 1.64016 26.1302Z" fill="white"/>
<path d="M68.8716 50.0184L68.4832 50.4057C68.3314 50.5568 68.3314 50.8034 68.4832 50.9545C68.6352 51.1056 68.8803 51.1056 69.0322 50.9545L69.4206 50.5672L69.8079 50.9545C69.9597 51.1056 70.205 51.1056 70.3568 50.9545C70.5087 50.8034 70.5087 50.5568 70.3568 50.4057L69.9696 50.0184L70.3568 49.6311C70.5087 49.4782 70.5087 49.2316 70.3568 49.0822C70.2809 49.0058 70.1822 48.9676 70.0823 48.9676C69.9826 48.9676 69.8838 49.0058 69.8079 49.0822L69.4206 49.4695L69.0322 49.0822C68.9563 49.0058 68.8575 48.9676 68.7578 48.9676C68.659 48.9676 68.5593 49.0058 68.4832 49.0822C68.3314 49.2316 68.3314 49.4782 68.4832 49.6311L68.8716 50.0184Z" fill="white"/>
<path d="M13.4554 58.3727L13.068 58.7604C12.9161 58.9121 12.9161 59.1582 13.068 59.3082C13.2189 59.4616 13.4651 59.4616 13.617 59.3082L14.0042 58.9222L14.3925 59.3082C14.5434 59.4616 14.7897 59.4616 14.9405 59.3082C15.0924 59.1582 15.0924 58.9121 14.9405 58.7604L14.5532 58.3727L14.9405 57.985C15.0924 57.8333 15.0924 57.5872 14.9405 57.4355C14.8657 57.3613 14.7657 57.3226 14.6671 57.3226C14.5673 57.3226 14.4674 57.3613 14.3925 57.4355L14.0042 57.8232L13.617 57.4355C13.541 57.3613 13.4412 57.3226 13.3424 57.3226C13.2426 57.3226 13.1439 57.3613 13.068 57.4355C12.9161 57.5872 12.9161 57.8333 13.068 57.985L13.4554 58.3727Z" fill="white"/>
<path d="M3.532 23.9997L3.14416 24.3866C2.99264 24.5383 2.99264 24.7849 3.14416 24.9347C3.29588 25.0864 3.54167 25.0864 3.6932 24.9347L4.08103 24.5478L4.46867 24.9347C4.6202 25.0864 4.86616 25.0864 5.01769 24.9347C5.16922 24.7849 5.16922 24.5383 5.01769 24.3866L4.62987 23.9997L5.01769 23.6109C5.16922 23.4592 5.16922 23.2146 5.01769 23.0629C4.94183 22.987 4.84265 22.9491 4.74328 22.9491C4.6439 22.9491 4.54453 22.987 4.46867 23.0629L4.08103 23.4497L3.6932 23.0629C3.61734 22.987 3.51815 22.9491 3.41877 22.9491C3.3194 22.9491 3.22002 22.987 3.14416 23.0629C2.99264 23.2146 2.99264 23.4592 3.14416 23.6109L3.532 23.9997Z" fill="white"/>
<path d="M50.211 4.06693L49.8236 4.45453C49.6718 4.60594 49.6718 4.85223 49.8236 5.00363C49.9744 5.15504 50.2207 5.15504 50.3725 5.00363L50.7599 4.61603L51.1483 5.00363C51.2991 5.15504 51.5454 5.15504 51.6972 5.00363C51.848 4.85223 51.848 4.60594 51.6972 4.45453L51.3088 4.06693L51.6972 3.67932C51.848 3.52792 51.848 3.28163 51.6972 3.13022C51.6213 3.05553 51.5213 3.01718 51.4226 3.01718C51.3229 3.01718 51.2232 3.05553 51.1483 3.13022L50.7599 3.51782L50.3725 3.13022C50.2966 3.05553 50.1968 3.01718 50.0981 3.01718C49.9982 3.01718 49.8995 3.05553 49.8236 3.13022C49.6718 3.28163 49.6718 3.52792 49.8236 3.67932L50.211 4.06693Z" fill="white"/>
<path d="M43.1095 60.4045C43.3069 60.4045 43.4675 60.2436 43.4675 60.0459C43.4675 59.8498 43.3069 59.6906 43.1095 59.6906C42.9121 59.6906 42.7526 59.8498 42.7526 60.0459C42.7526 60.2436 42.9121 60.4045 43.1095 60.4045ZM43.1095 58.913C43.7344 58.913 44.2432 59.4225 44.2432 60.0459C44.2432 60.6726 43.7344 61.1804 43.1095 61.1804C42.4846 61.1804 41.9758 60.6726 41.9758 60.0459C41.9758 59.4225 42.4846 58.913 43.1095 58.913Z" fill="white"/>
<path d="M64.4794 24.2756C64.6756 24.2756 64.8362 24.1162 64.8362 23.917C64.8362 23.7196 64.6756 23.5602 64.4794 23.5602C64.2819 23.5602 64.1214 23.7196 64.1214 23.917C64.1214 24.1162 64.2819 24.2756 64.4794 24.2756ZM64.4794 22.7842C65.1043 22.7842 65.613 23.2927 65.613 23.917C65.613 24.5431 65.1043 25.0516 64.4794 25.0516C63.8533 25.0516 63.3457 24.5431 63.3457 23.917C63.3457 23.2927 63.8533 22.7842 64.4794 22.7842Z" fill="white"/>
<path d="M17.0134 6.08075C17.2109 6.08075 17.3714 5.92002 17.3714 5.72313C17.3714 5.52624 17.2109 5.3655 17.0134 5.3655C16.8159 5.3655 16.6564 5.52624 16.6564 5.72313C16.6564 5.92002 16.8159 6.08075 17.0134 6.08075ZM17.0134 4.58999C17.6382 4.58999 18.1471 5.0983 18.1471 5.72313C18.1471 6.34997 17.6382 6.85828 17.0134 6.85828C16.3885 6.85828 15.8796 6.34997 15.8796 5.72313C15.8796 5.0983 16.3885 4.58999 17.0134 4.58999Z" fill="white"/>
<path d="M3.80514 41.4808C4.00225 41.4808 4.16263 41.3213 4.16263 41.1242C4.16263 40.9253 4.00225 40.7658 3.80514 40.7658C3.60803 40.7658 3.44765 40.9253 3.44765 41.1242C3.44765 41.3213 3.60803 41.4808 3.80514 41.4808ZM3.80514 39.9899C4.43034 39.9899 4.93889 40.4988 4.93889 41.1242C4.93889 41.7478 4.43034 42.2567 3.80514 42.2567C3.17994 42.2567 2.67139 41.7478 2.67139 41.1242C2.67139 40.4988 3.17994 39.9899 3.80514 39.9899Z" fill="white"/>
<path d="M1.64016 26.1302C2.69125 27.1813 4.11673 27.7721 5.60313 27.7721C6.71981 27.7721 7.80227 27.438 8.71708 26.8269L4.72743 30.8174C3.67634 31.8664 3.08581 33.2923 3.08581 34.7793C3.08581 36.2663 3.67634 37.6922 4.72743 38.7433C5.77831 39.7944 7.204 40.3851 8.6904 40.3851C9.80708 40.3851 10.8899 40.0511 11.8044 39.44L9.71053 41.534C8.65923 42.5851 8.06891 44.011 8.06891 45.4959C8.06891 46.9829 8.65923 48.4089 9.71053 49.4599C10.7618 50.511 12.1873 51.1018 13.6737 51.1018C14.79 51.1018 15.8726 50.7677 16.7873 50.1566L16.2762 50.6679C15.2251 51.719 14.6348 53.1449 14.6348 54.6319C14.6348 56.1189 15.2251 57.5448 16.2762 58.5959C17.3275 59.6449 18.753 60.2357 20.2391 60.2357C21.7255 60.2357 23.151 59.6449 24.2021 58.5959L29.5136 53.2834C28.9019 54.198 28.5688 55.2817 28.5688 56.3979C28.5688 57.8849 29.1589 59.3108 30.2102 60.3599C31.2613 61.411 32.6868 62.0017 34.173 62.0017C35.6594 62.0017 37.0849 61.411 38.1362 60.3599L46.2063 52.2914C45.5944 53.206 45.2614 54.2876 45.2614 55.4039C45.2614 56.8909 45.8515 58.3168 46.9028 59.3679C47.9541 60.419 49.3796 61.0097 50.8658 61.0097C52.352 61.0097 53.7777 60.419 54.8287 59.3679L67.3925 46.8057C68.4438 45.7526 69.0339 44.3287 69.0339 42.8417C69.0339 41.3547 68.4438 39.9309 67.3925 38.8798C66.3412 37.8267 64.9157 37.238 63.4295 37.238C62.312 37.238 61.2306 37.57 60.315 38.1811L62.9445 35.5513C63.9958 34.5002 64.5872 33.0743 64.5872 31.5894C64.5872 30.1024 63.9958 28.6765 62.9445 27.6254C61.8934 26.5743 60.468 25.9836 58.9816 25.9836C57.8653 25.9836 56.7826 26.3176 55.868 26.9287L61.1795 21.6183C62.2298 20.5672 62.8209 19.1413 62.8209 17.6543C62.8209 16.1693 62.2298 14.7434 61.1795 13.6923C60.1284 12.6413 58.7029 12.0505 57.2155 12.0505C56.0992 12.0505 55.0176 12.3826 54.1019 12.9937L57.4846 9.61224C58.5357 8.56116 59.126 7.13525 59.126 5.64824C59.126 4.16327 58.5357 2.73737 57.4846 1.68628C56.4333 0.635197 55.0078 0.0444756 53.5216 0.0444756C52.0352 0.0444756 50.6087 0.635197 49.5586 1.68628L42.0242 9.21911C42.6361 8.3045 42.9692 7.22284 42.9692 6.10656C42.9692 4.61956 42.379 3.19367 41.3277 2.14258C40.2765 1.09149 38.851 0.500771 37.3648 0.500771C35.8774 0.500771 34.4519 1.09149 33.4006 2.14258L22.8265 12.7166C23.4374 11.802 23.7715 10.7204 23.7715 9.60409C23.7715 8.11708 23.1802 6.69119 22.1291 5.64011C21.0778 4.58902 19.6523 4.00032 18.1661 4.00032C16.6797 4.00032 15.2542 4.58902 14.2029 5.64011L1.64016 18.2043C0.589067 19.2554 -0.00146484 20.6813 -0.00146484 22.1662C-0.00146484 23.6532 0.589067 25.0791 1.64016 26.1302Z" fill="#D3EBF8"/>
<path d="M68.8716 50.0184L68.4832 50.4057C68.3314 50.5568 68.3314 50.8034 68.4832 50.9545C68.6352 51.1056 68.8803 51.1056 69.0322 50.9545L69.4206 50.5672L69.8079 50.9545C69.9597 51.1056 70.205 51.1056 70.3568 50.9545C70.5087 50.8034 70.5087 50.5568 70.3568 50.4057L69.9696 50.0184L70.3568 49.6311C70.5087 49.4782 70.5087 49.2316 70.3568 49.0822C70.2809 49.0058 70.1822 48.9676 70.0823 48.9676C69.9826 48.9676 69.8838 49.0058 69.8079 49.0822L69.4206 49.4695L69.0322 49.0822C68.9563 49.0058 68.8575 48.9676 68.7578 48.9676C68.659 48.9676 68.5593 49.0058 68.4832 49.0822C68.3314 49.2316 68.3314 49.4782 68.4832 49.6311L68.8716 50.0184Z" fill="#91CEEE"/>
<path d="M13.4554 58.3727L13.068 58.7604C12.9161 58.9121 12.9161 59.1582 13.068 59.3082C13.2189 59.4616 13.4651 59.4616 13.617 59.3082L14.0042 58.9222L14.3925 59.3082C14.5434 59.4616 14.7897 59.4616 14.9405 59.3082C15.0924 59.1582 15.0924 58.9121 14.9405 58.7604L14.5532 58.3727L14.9405 57.985C15.0924 57.8333 15.0924 57.5872 14.9405 57.4355C14.8657 57.3613 14.7657 57.3226 14.6671 57.3226C14.5673 57.3226 14.4674 57.3613 14.3925 57.4355L14.0042 57.8232L13.617 57.4355C13.541 57.3613 13.4412 57.3226 13.3424 57.3226C13.2426 57.3226 13.1439 57.3613 13.068 57.4355C12.9161 57.5872 12.9161 57.8333 13.068 57.985L13.4554 58.3727Z" fill="#91CEEE"/>
<path d="M3.532 23.9997L3.14416 24.3866C2.99264 24.5383 2.99264 24.7849 3.14416 24.9347C3.29588 25.0864 3.54167 25.0864 3.6932 24.9347L4.08103 24.5478L4.46867 24.9347C4.6202 25.0864 4.86616 25.0864 5.01769 24.9347C5.16922 24.7849 5.16922 24.5383 5.01769 24.3866L4.62987 23.9997L5.01769 23.6109C5.16922 23.4592 5.16922 23.2146 5.01769 23.0629C4.94183 22.987 4.84265 22.9491 4.74328 22.9491C4.6439 22.9491 4.54453 22.987 4.46867 23.0629L4.08103 23.4497L3.6932 23.0629C3.61734 22.987 3.51815 22.9491 3.41877 22.9491C3.3194 22.9491 3.22002 22.987 3.14416 23.0629C2.99264 23.2146 2.99264 23.4592 3.14416 23.6109L3.532 23.9997Z" fill="#91CEEE"/>
<path d="M50.211 4.06693L49.8236 4.45453C49.6718 4.60594 49.6718 4.85223 49.8236 5.00363C49.9744 5.15504 50.2207 5.15504 50.3725 5.00363L50.7599 4.61603L51.1483 5.00363C51.2991 5.15504 51.5454 5.15504 51.6972 5.00363C51.848 4.85223 51.848 4.60594 51.6972 4.45453L51.3088 4.06693L51.6972 3.67932C51.848 3.52792 51.848 3.28163 51.6972 3.13022C51.6213 3.05553 51.5213 3.01718 51.4226 3.01718C51.3229 3.01718 51.2232 3.05553 51.1483 3.13022L50.7599 3.51782L50.3725 3.13022C50.2966 3.05553 50.1968 3.01718 50.0981 3.01718C49.9982 3.01718 49.8995 3.05553 49.8236 3.13022C49.6718 3.28163 49.6718 3.52792 49.8236 3.67932L50.211 4.06693Z" fill="#91CEEE"/>
<path d="M43.1095 60.4045C43.3069 60.4045 43.4675 60.2436 43.4675 60.0459C43.4675 59.8498 43.3069 59.6906 43.1095 59.6906C42.9121 59.6906 42.7526 59.8498 42.7526 60.0459C42.7526 60.2436 42.9121 60.4045 43.1095 60.4045ZM43.1095 58.913C43.7344 58.913 44.2432 59.4225 44.2432 60.0459C44.2432 60.6726 43.7344 61.1804 43.1095 61.1804C42.4846 61.1804 41.9758 60.6726 41.9758 60.0459C41.9758 59.4225 42.4846 58.913 43.1095 58.913Z" fill="#91CEEE"/>
<path d="M64.4794 24.2756C64.6756 24.2756 64.8362 24.1162 64.8362 23.917C64.8362 23.7196 64.6756 23.5602 64.4794 23.5602C64.2819 23.5602 64.1214 23.7196 64.1214 23.917C64.1214 24.1162 64.2819 24.2756 64.4794 24.2756ZM64.4794 22.7842C65.1043 22.7842 65.613 23.2927 65.613 23.917C65.613 24.5431 65.1043 25.0516 64.4794 25.0516C63.8533 25.0516 63.3457 24.5431 63.3457 23.917C63.3457 23.2927 63.8533 22.7842 64.4794 22.7842Z" fill="#91CEEE"/>
<path d="M17.0134 6.08075C17.2109 6.08075 17.3714 5.92002 17.3714 5.72313C17.3714 5.52624 17.2109 5.3655 17.0134 5.3655C16.8159 5.3655 16.6564 5.52624 16.6564 5.72313C16.6564 5.92002 16.8159 6.08075 17.0134 6.08075ZM17.0134 4.58999C17.6382 4.58999 18.1471 5.0983 18.1471 5.72313C18.1471 6.34997 17.6382 6.85828 17.0134 6.85828C16.3885 6.85828 15.8796 6.34997 15.8796 5.72313C15.8796 5.0983 16.3885 4.58999 17.0134 4.58999Z" fill="#91CEEE"/>
<path d="M3.80514 41.4808C4.00225 41.4808 4.16263 41.3213 4.16263 41.1242C4.16263 40.9253 4.00225 40.7658 3.80514 40.7658C3.60803 40.7658 3.44765 40.9253 3.44765 41.1242C3.44765 41.3213 3.60803 41.4808 3.80514 41.4808ZM3.80514 39.9899C4.43034 39.9899 4.93889 40.4988 4.93889 41.1242C4.93889 41.7478 4.43034 42.2567 3.80514 42.2567C3.17994 42.2567 2.67139 41.7478 2.67139 41.1242C2.67139 40.4988 3.17994 39.9899 3.80514 39.9899Z" fill="#91CEEE"/>
<path d="M53.7314 44.159V47.8436H15.3047V44.159H15.8991L15.8839 44.1961H53.151L53.1347 44.159H53.7314Z" fill="white"/>
<path d="M49.0793 14.202V33.756H48.5684L48.552 33.7189H20.4584L20.4422 33.756H19.9551V14.202H49.0793Z" fill="#91CEEE"/>
<path d="M48.7387 34.1462L48.8103 34.3057L52.9643 43.7664L53.1346 44.1568L53.1509 44.1935H15.8839L15.8991 44.1568L16.0693 43.7664L20.2721 34.1462L20.4423 33.7559L20.4586 33.7192H48.5521L48.5684 33.7559L48.7387 34.1462ZM53.7313 44.5472L53.5598 44.1568L53.3884 43.7664L49.164 34.1462L48.9936 33.7559L48.8939 33.5286L48.807 33.3306H20.2037L20.1527 33.4461L20.0182 33.7559L19.848 34.1462L15.645 43.7664L15.4748 44.1568L15.3045 44.5472L15.2893 44.582H53.7465L53.7313 44.5472Z" fill="#B3B3B2"/>
<path d="M53.151 44.1964H15.884L15.8992 44.1598L16.0696 43.7718L20.2724 34.1494L20.4426 33.7596L20.4589 33.723H48.5524L48.5686 33.7596L48.7389 34.1494L52.9645 43.7718L53.1347 44.1598L53.151 44.1964Z" fill="#B3B3B2"/>
<path d="M24.1485 42.8053H20.9036V41.6007H24.1485V42.8053Z" fill="#989998"/>
<path d="M28.547 31.7677H27.3418V29.5034H25.9097V31.7677H24.7043V28.2995H28.547V31.7677Z" fill="#91CEEE"/>
<path d="M34.1131 31.767H32.9087V25.9177H31.4757V31.767H30.2715V24.7128H34.1131V31.767Z" fill="#91CEEE"/>
<path d="M39.6805 31.7677H38.4753V22.3325H37.0432V31.7677H35.8391V21.1269H39.6805V31.7677Z" fill="#91CEEE"/>
<path d="M45.2461 31.7677H44.042V18.7446H42.6098V31.7677H41.4045V17.5405H45.2461V31.7677Z" fill="#91CEEE"/>
<path d="M24.694 39.8221H21.614V38.6177H24.694V39.8221Z" fill="#989998"/>
<path d="M25.3959 36.8419H22.5254V35.6362H25.3959V36.8419Z" fill="#989998"/>
<path d="M29.1247 42.8053H25.8809V41.6007H29.1247V42.8053Z" fill="#989998"/>
<path d="M29.422 39.822H26.3411V38.6176H29.422V39.822Z" fill="#989998"/>
<path d="M29.8022 36.8418H26.9316V35.636H29.8022V36.8418Z" fill="#989998"/>
<path d="M34.1069 42.8053H30.8633V41.6007H34.1069V42.8053Z" fill="#989998"/>
<path d="M34.1525 39.8221H31.0715V38.6177H34.1525V39.8221Z" fill="#989998"/>
<path d="M34.2081 36.8419H31.3386V35.6362H34.2081V36.8419Z" fill="#989998"/>
<path d="M38.6137 36.8418H35.7432V35.636H38.6137V36.8418Z" fill="#989998"/>
<path d="M38.8807 39.8221H35.7996V38.6177H38.8807V39.8221Z" fill="#989998"/>
<path d="M39.0853 42.8053H35.8406V41.6007H39.0853V42.8053Z" fill="#989998"/>
<path d="M43.0192 36.8419H40.1487V35.6362H43.0192V36.8419Z" fill="#989998"/>
<path d="M43.6067 39.822H40.5269V38.6176H43.6067V39.822Z" fill="#989998"/>
<path d="M44.0675 42.8053H40.8228V41.6007H44.0675V42.8053Z" fill="#989998"/>
<path d="M47.4251 36.8418H44.5557V35.636H47.4251V36.8418Z" fill="#989998"/>
<path d="M48.3377 39.8221H45.2578V38.6177H48.3377V39.8221Z" fill="#989998"/>
<path d="M49.0489 42.8053H45.804V41.6007H49.0489V42.8053Z" fill="#989998"/>
<path d="M54.7077 48.2285H15.5029V47.8407H16.2807V48.0375H53.9299V45.5566H53.7325V44.7789H53.7389L53.7325 44.7653V44.5821H53.7475L53.7325 44.547V44.1553H53.561L53.3895 43.7655L49.165 34.1457L48.9949 33.7559H49.0804V33.5279H49.279V15.1769H49.0804V14.3992H50.0568V34.4575L54.4017 44.3541L54.4504 44.4671L54.7077 45.0518V48.2285Z" fill="#C7C6C4"/>
<path d="M16.2808 47.8436H15.5029V45.0546L15.5388 44.9733L15.6939 44.6183L15.7091 44.5847H16.5574L16.487 44.7455L16.4707 44.7825H53.7323V45.5597H16.2808V47.8436ZM53.7323 44.7684L53.7226 44.7455L53.652 44.5847H53.7323V44.7684ZM53.7323 44.5494L53.561 44.159H53.7323V44.5494Z" fill="#DFDFDD"/>
<path d="M49.0801 33.756H48.9946L48.8946 33.528H49.0801V33.756ZM20.1536 33.4461V14.3993H49.0801V15.177H20.9314V33.3311H20.2044L20.1536 33.4461Z" fill="#91CEEE"/>
<path d="M53.7445 44.582H53.7293H53.649L53.548 44.3548L53.4613 44.1568L53.2909 43.7664L49.3237 34.7309L49.1532 34.3423L49.1371 34.3057H48.8083L48.7366 34.1462L48.5664 33.7559L48.55 33.7192H20.4566L20.4403 33.7559L20.27 34.1462L16.0673 43.7664L15.897 44.1568L15.8818 44.1935H16.7247L16.6541 44.3548L16.5706 44.5454L16.5544 44.582H15.7061L15.7213 44.5454L15.7548 44.4684L15.8048 44.3548L15.8915 44.1568L16.0607 43.7664L20.1507 34.4046V33.4461L20.2017 33.3306H20.9285V33.5286H48.8918L48.9916 33.7559L49.162 34.1462L53.3863 43.7664L53.5577 44.1568L53.7293 44.5472L53.7445 44.582Z" fill="#989998"/>
<path d="M16.7271 44.1964H15.884L15.8992 44.1598L16.0696 43.7718L20.2724 34.1494L20.4426 33.7596L20.4589 33.723H48.5524L48.5686 33.7596L48.7389 34.1494L48.8106 34.3105H21.0459L21.0296 34.3471L20.8592 34.7351L16.7271 44.1964Z" fill="#989998"/>
<path d="M23.6904 42.3473H20.4456V41.1425H23.6904V42.3473Z" fill="white"/>
<path d="M28.0874 31.3092H26.8831V29.0452H25.4512V31.3092H24.2458V27.8414H28.0874V31.3092Z" fill="white"/>
<path d="M33.654 31.3105H32.4497V25.4601H31.0168V31.3105H29.8125V24.2553H33.654V31.3105Z" fill="white"/>
<path d="M39.2216 31.3105H38.0163V21.8748H36.5842V31.3105H35.3789V20.6694H39.2216V31.3105Z" fill="white"/>
<path d="M44.788 31.3107H43.5839V18.2879H42.1518V31.3107H40.9465V17.084H44.788V31.3107Z" fill="white"/>
<path d="M24.2377 39.365H21.1577V38.1605H24.2377V39.365Z" fill="white"/>
<path d="M24.937 36.3809H22.0664V35.1769H24.937V36.3809Z" fill="white"/>
<path d="M28.6674 42.3474H25.4238V41.1426H28.6674V42.3474Z" fill="white"/>
<path d="M28.9643 39.365H25.8833V38.1605H28.9643V39.365Z" fill="white"/>
<path d="M29.3448 36.381H26.4744V35.177H29.3448V36.381Z" fill="white"/>
<path d="M33.6479 42.3474H30.4043V41.1426H33.6479V42.3474Z" fill="white"/>
<path d="M33.6938 39.365H30.6128V38.1605H33.6938V39.365Z" fill="white"/>
<path d="M33.7509 36.381H30.8813V35.177H33.7509V36.381Z" fill="white"/>
<path d="M35.2871 35.177H38.1577V36.381H35.2871V35.177Z" fill="white"/>
<path d="M35.3401 38.1605H38.42V39.365H35.3401V38.1605Z" fill="white"/>
<path d="M38.6291 42.3473H35.3843V41.1425H38.6291V42.3473Z" fill="white"/>
<path d="M39.6934 35.1769H42.5638V36.3809H39.6934V35.1769Z" fill="white"/>
<path d="M40.0713 38.1605H43.1512V39.365H40.0713V38.1605Z" fill="white"/>
<path d="M43.6103 42.3474H40.3655V41.1426H43.6103V42.3474Z" fill="white"/>
<path d="M44.0979 35.177H46.9685V36.381H44.0979V35.177Z" fill="white"/>
<path d="M44.7993 38.1605H47.8793V39.365H44.7993V38.1605Z" fill="white"/>
<path d="M45.3469 42.3474V41.1426H48.5918V42.3474H45.3469Z" fill="white"/>
<path d="M53.3434 44.548V47.4541H15.6946V44.548H53.3434ZM53.8643 43.883L53.8153 43.7698H52.9659L53.1363 44.1589L53.1525 44.196H15.8855L15.9007 44.1589L16.071 43.7698H15.2227L15.1729 43.8847L14.9167 44.4702V48.2323H54.1213V44.4684L53.8643 43.883Z" fill="#2E2D2D"/>
<path d="M20.3465 33.3676V14.5902H48.6929V33.3676H20.3465ZM19.5686 13.8131V34.1447H20.275L20.4441 33.7561L20.4605 33.719H48.5541L48.5703 33.7561L48.7406 34.1447H49.4708V13.8131H19.5686Z" fill="#2E2D2D"/>
<path d="M20.4604 33.7217H48.5537L48.57 33.7584L48.7403 34.1474L48.8119 34.3089L52.9658 43.7692L53.1363 44.1582L53.1524 44.1949H15.8855L15.9008 44.1582L16.0711 43.7692L20.2749 34.1474L20.4441 33.7584L20.4604 33.7217ZM53.8641 43.8829L53.8153 43.7692L49.4706 33.874L49.2795 33.4391L49.2665 33.4097L49.081 32.9876L49.0626 32.9436H19.9515L19.7476 33.4097L19.5685 33.8208L15.2227 43.7692L15.1728 43.8848L14.9167 44.4684V44.973H54.1212V44.4684L53.8641 43.8829Z" fill="#2E2D2D"/>
<path d="M60.7796 47.8407C60.7796 48.0555 60.6048 48.2284 60.3913 48.2284H8.63887C8.42427 48.2284 8.25 48.0555 8.25 47.8407C8.25 47.626 8.42427 47.4514 8.63887 47.4514H60.3913C60.6048 47.4514 60.7796 47.626 60.7796 47.8407Z" fill="#2E2D2D"/>
<path d="M7.03572 48.2285H5.2646C5.04982 48.2285 4.87573 48.0556 4.87573 47.8409C4.87573 47.6261 5.04982 47.4515 5.2646 47.4515H7.03572C7.25049 47.4515 7.42458 47.6261 7.42458 47.8409C7.42458 48.0556 7.25049 48.2285 7.03572 48.2285Z" fill="#2E2D2D"/>
<path d="M14.9159 46.3223H13.1454C12.9306 46.3223 12.7559 46.15 12.7559 45.9355C12.7559 45.7193 12.9306 45.5453 13.1454 45.5453H14.9159C15.1307 45.5453 15.3053 45.7193 15.3053 45.9355C15.3053 46.15 15.1307 46.3223 14.9159 46.3223Z" fill="#2E2D2D"/>
<path d="M11.5394 46.3223H9.76798C9.55317 46.3223 9.37915 46.15 9.37915 45.9355C9.37915 45.7193 9.55317 45.5453 9.76798 45.5453H11.5394C11.7542 45.5453 11.9277 45.7193 11.9277 45.9355C11.9277 46.15 11.7542 46.3223 11.5394 46.3223Z" fill="#2E2D2D"/>
<path d="M55.8859 46.3223H54.1141C53.9006 46.3223 53.7258 46.15 53.7258 45.9355C53.7258 45.7193 53.9006 45.5453 54.1141 45.5453H55.8859C56.1007 45.5453 56.2742 45.7193 56.2742 45.9355C56.2742 46.15 56.1007 46.3223 55.8859 46.3223Z" fill="#2E2D2D"/>
<path d="M59.2624 46.3223H57.4919C57.2771 46.3223 57.1025 46.15 57.1025 45.9355C57.1025 45.7193 57.2771 45.5453 57.4919 45.5453H59.2624C59.4772 45.5453 59.6519 45.7193 59.6519 45.9355C59.6519 46.15 59.4772 46.3223 59.2624 46.3223Z" fill="#2E2D2D"/>
<path d="M63.7659 48.2284H61.9953C61.7806 48.2284 61.606 48.0555 61.606 47.8407C61.606 47.626 61.7806 47.4514 61.9953 47.4514H63.7659C63.9807 47.4514 64.1553 47.626 64.1553 47.8407C64.1553 48.0555 63.9807 48.2284 63.7659 48.2284Z" fill="#2E2D2D"/>
</svg>
