<svg width="71" height="63" viewBox="0 0 71 63" fill="none" xmlns="http://www.w3.org/2000/svg">
<path d="M1.64581 26.5524C2.68993 27.5967 4.10593 28.1829 5.58251 28.1829C6.69171 28.1829 7.76686 27.852 8.67574 27.2443L4.71243 31.2078C3.66842 32.252 3.08186 33.668 3.08186 35.1444C3.08186 36.6207 3.66842 38.0367 4.71243 39.081C5.75654 40.1252 7.17266 40.7114 8.64923 40.7114C9.75844 40.7114 10.8335 40.3806 11.7425 39.7728L9.66231 41.8526C8.6183 42.8969 8.03175 44.3129 8.03175 45.7903C8.03175 47.2667 8.6183 48.6827 9.66231 49.7269C10.7065 50.7711 12.1225 51.3574 13.5991 51.3574C14.7083 51.3574 15.7833 51.0265 16.6924 50.4187L16.1841 50.9274C15.14 51.9705 14.5535 53.3865 14.5535 54.864C14.5535 56.3403 15.14 57.7563 16.1841 58.8006C17.2283 59.8448 18.6443 60.431 20.1208 60.431C21.5974 60.431 23.0134 59.8448 24.0576 58.8006L29.3333 53.5245C28.7259 54.434 28.3949 55.5084 28.3949 56.6184C28.3949 58.0947 28.9814 59.5107 30.0256 60.5549C31.0697 61.5981 32.4857 62.1854 33.9622 62.1854C35.4388 62.1854 36.8549 61.5981 37.899 60.5549L45.915 52.5384C45.3076 53.448 44.9765 54.5224 44.9765 55.6312C44.9765 57.1087 45.5631 58.5247 46.6071 59.5689C47.6513 60.6121 49.0673 61.1994 50.5439 61.1994C52.0205 61.1994 53.4365 60.6121 54.4806 59.5689L66.96 47.0889C68.0041 46.0446 68.5907 44.6286 68.5907 43.1523C68.5907 41.6759 68.0041 40.2599 66.96 39.2157C65.9159 38.1714 64.4999 37.5852 63.0233 37.5852C61.914 37.5852 60.8389 37.9161 59.9301 38.5238L62.5423 35.9106C63.5864 34.8674 64.1729 33.4514 64.1729 31.974C64.1729 30.4976 63.5864 29.0816 62.5423 28.0374C61.4983 26.9932 60.0822 26.4069 58.6055 26.4069C57.4963 26.4069 56.4213 26.7378 55.5124 27.3456L60.7882 22.0695C61.8323 21.0253 62.4187 19.6092 62.4187 18.1329C62.4187 16.6565 61.8323 15.2405 60.7882 14.1963C59.7442 13.1521 58.3281 12.5658 56.8515 12.5658C55.7423 12.5658 54.6672 12.8967 53.7582 13.5045L57.1181 10.1444C58.1622 9.10018 58.7488 7.68417 58.7488 6.20782C58.7488 4.73146 58.1622 3.31546 57.1181 2.27123C56.0741 1.22701 54.658 0.63969 53.1814 0.63969C51.7049 0.63969 50.2888 1.22701 49.2448 2.27123L41.761 9.7543C42.3683 8.84586 42.6994 7.77038 42.6994 6.6615C42.6994 5.18514 42.1128 3.76913 41.0688 2.72491C40.0247 1.68068 38.6087 1.09446 37.132 1.09446C35.6555 1.09446 34.2394 1.68068 33.1954 2.72491L22.6908 13.2286C23.2981 12.3201 23.6292 11.2457 23.6292 10.1358C23.6292 8.65943 23.0427 7.24342 21.9986 6.1992C20.9546 5.15497 19.5385 4.56874 18.0619 4.56874C16.5854 4.56874 15.1693 5.15497 14.1252 6.1992L1.64581 18.6782C0.601691 19.7224 0.0151367 21.1384 0.0151367 22.6158C0.0151367 24.0922 0.601691 25.5082 1.64581 26.5524Z" fill="white"/>
<path d="M68.4266 50.2818L68.0414 50.6676C67.8908 50.8174 67.8908 51.062 68.0414 51.2129C68.1919 51.3638 68.4361 51.3638 68.5867 51.2129L68.9718 50.8271L69.3571 51.2129C69.5076 51.3638 69.7518 51.3638 69.9023 51.2129C70.0529 51.062 70.0529 50.8174 69.9023 50.6676L69.5171 50.2818L69.9023 49.8971C70.0529 49.7463 70.0529 49.5027 69.9023 49.3518C69.827 49.2764 69.7283 49.2387 69.6297 49.2387C69.531 49.2387 69.4324 49.2764 69.3571 49.3518L68.9718 49.7366L68.5867 49.3518C68.5113 49.2764 68.4127 49.2387 68.314 49.2387C68.2154 49.2387 68.1167 49.2764 68.0414 49.3518C67.8908 49.5027 67.8908 49.7463 68.0414 49.8971L68.4266 50.2818Z" fill="white"/>
<path d="M13.3816 58.5818L12.9965 58.9665C12.8459 59.1174 12.8459 59.362 12.9965 59.5118C13.147 59.6627 13.3912 59.6627 13.5417 59.5118L13.9269 59.1271L14.3121 59.5118C14.4627 59.6627 14.7068 59.6627 14.8573 59.5118C15.008 59.362 15.008 59.1174 14.8573 58.9665L14.4722 58.5818L14.8573 58.1971C15.008 58.0462 15.008 57.8016 14.8573 57.6518C14.7821 57.5764 14.6834 57.5387 14.5847 57.5387C14.4861 57.5387 14.3874 57.5764 14.3121 57.6518L13.9269 58.0365L13.5417 57.6518C13.4664 57.5764 13.3677 57.5387 13.2691 57.5387C13.1704 57.5387 13.0718 57.5764 12.9965 57.6518C12.8459 57.8016 12.8459 58.0462 12.9965 58.1971L13.3816 58.5818Z" fill="white"/>
<path d="M3.52491 24.436L3.13976 24.8218C2.98922 24.9716 2.98922 25.2162 3.13976 25.3671C3.29031 25.5168 3.5345 25.5168 3.68505 25.3671L4.07019 24.9813L4.45545 25.3671C4.60599 25.5168 4.85007 25.5168 5.00062 25.3671C5.15127 25.2162 5.15127 24.9716 5.00062 24.8218L4.61547 24.436L5.00062 24.0513C5.15127 23.9004 5.15127 23.6558 5.00062 23.506C4.9254 23.4306 4.82669 23.3928 4.72798 23.3928C4.62937 23.3928 4.53066 23.4306 4.45545 23.506L4.07019 23.8907L3.68505 23.506C3.60972 23.4306 3.51112 23.3928 3.41241 23.3928C3.31369 23.3928 3.21509 23.4306 3.13976 23.506C2.98922 23.6558 2.98922 23.9004 3.13976 24.0513L3.52491 24.436Z" fill="white"/>
<path d="M49.8909 4.63879L49.5057 5.0235C49.3552 5.17437 49.3552 5.41792 49.5057 5.56879C49.6564 5.71966 49.9005 5.71966 50.051 5.56879L50.4362 5.18408L50.8214 5.56879C50.972 5.71966 51.216 5.71966 51.3666 5.56879C51.5172 5.41792 51.5172 5.17437 51.3666 5.0235L50.9814 4.63879L51.3666 4.253C51.5172 4.10213 51.5172 3.85859 51.3666 3.70772C51.2913 3.63229 51.1927 3.59457 51.0939 3.59457C50.9953 3.59457 50.8966 3.63229 50.8214 3.70772L50.4362 4.09351L50.051 3.70772C49.9757 3.63229 49.877 3.59457 49.7784 3.59457C49.6797 3.59457 49.5811 3.63229 49.5057 3.70772C49.3552 3.85859 49.3552 4.10213 49.5057 4.253L49.8909 4.63879Z" fill="white"/>
<path d="M42.8378 60.6002C43.0335 60.6002 43.1928 60.4407 43.1928 60.2457C43.1928 60.0495 43.0335 59.8901 42.8378 59.8901C42.6419 59.8901 42.4826 60.0495 42.4826 60.2457C42.4826 60.4407 42.6419 60.6002 42.8378 60.6002ZM42.8378 59.1185C43.4587 59.1185 43.9639 59.6239 43.9639 60.2457C43.9639 60.8664 43.4587 61.3718 42.8378 61.3718C42.2167 61.3718 41.7114 60.8664 41.7114 60.2457C41.7114 59.6239 42.2167 59.1185 42.8378 59.1185Z" fill="white"/>
<path d="M64.0642 24.7129C64.26 24.7129 64.4193 24.5534 64.4193 24.3573C64.4193 24.1612 64.26 24.0017 64.0642 24.0017C63.8683 24.0017 63.709 24.1612 63.709 24.3573C63.709 24.5534 63.8683 24.7129 64.0642 24.7129ZM64.0642 23.2312C64.6852 23.2312 65.1905 23.7366 65.1905 24.3573C65.1905 24.978 64.6852 25.4834 64.0642 25.4834C63.4432 25.4834 62.938 24.978 62.938 24.3573C62.938 23.7366 63.4432 23.2312 64.0642 23.2312Z" fill="white"/>
<path d="M16.9164 6.63666C17.1121 6.63666 17.2715 6.47718 17.2715 6.28212C17.2715 6.08599 17.1121 5.92651 16.9164 5.92651C16.7205 5.92651 16.5612 6.08599 16.5612 6.28212C16.5612 6.47718 16.7205 6.63666 16.9164 6.63666ZM16.9164 5.156C17.5373 5.156 18.0425 5.66033 18.0425 6.28212C18.0425 6.90284 17.5373 7.40825 16.9164 7.40825C16.2953 7.40825 15.79 6.90284 15.79 6.28212C15.79 5.66033 16.2953 5.156 16.9164 5.156Z" fill="white"/>
<path d="M3.79553 41.802C3.99134 41.802 4.15061 41.6425 4.15061 41.4463C4.15061 41.2513 3.99134 41.0918 3.79553 41.0918C3.59962 41.0918 3.44034 41.2513 3.44034 41.4463C3.44034 41.6425 3.59962 41.802 3.79553 41.802ZM3.79553 40.3202C4.41646 40.3202 4.92176 40.8256 4.92176 41.4463C4.92176 42.0681 4.41646 42.5725 3.79553 42.5725C3.17449 42.5725 2.66919 42.0681 2.66919 41.4463C2.66919 40.8256 3.17449 40.3202 3.79553 40.3202Z" fill="white"/>
<path d="M1.64581 26.5524C2.68993 27.5967 4.10593 28.1829 5.58251 28.1829C6.69171 28.1829 7.76686 27.852 8.67574 27.2443L4.71243 31.2078C3.66842 32.252 3.08186 33.668 3.08186 35.1444C3.08186 36.6207 3.66842 38.0367 4.71243 39.081C5.75654 40.1252 7.17266 40.7114 8.64923 40.7114C9.75844 40.7114 10.8335 40.3806 11.7425 39.7728L9.66231 41.8526C8.6183 42.8969 8.03175 44.3129 8.03175 45.7903C8.03175 47.2667 8.6183 48.6827 9.66231 49.7269C10.7065 50.7711 12.1225 51.3574 13.5991 51.3574C14.7083 51.3574 15.7833 51.0265 16.6924 50.4187L16.1841 50.9274C15.14 51.9705 14.5535 53.3865 14.5535 54.864C14.5535 56.3403 15.14 57.7563 16.1841 58.8006C17.2283 59.8448 18.6443 60.431 20.1208 60.431C21.5974 60.431 23.0134 59.8448 24.0576 58.8006L29.3333 53.5245C28.7259 54.434 28.3949 55.5084 28.3949 56.6184C28.3949 58.0947 28.9814 59.5107 30.0256 60.5549C31.0697 61.5981 32.4857 62.1854 33.9622 62.1854C35.4388 62.1854 36.8549 61.5981 37.899 60.5549L45.915 52.5384C45.3076 53.448 44.9765 54.5224 44.9765 55.6312C44.9765 57.1087 45.5631 58.5247 46.6071 59.5689C47.6513 60.6121 49.0673 61.1994 50.5439 61.1994C52.0205 61.1994 53.4365 60.6121 54.4806 59.5689L66.96 47.0889C68.0041 46.0446 68.5907 44.6286 68.5907 43.1523C68.5907 41.6759 68.0041 40.2599 66.96 39.2157C65.9159 38.1714 64.4999 37.5852 63.0233 37.5852C61.914 37.5852 60.8389 37.9161 59.9301 38.5238L62.5423 35.9106C63.5864 34.8674 64.1729 33.4514 64.1729 31.974C64.1729 30.4976 63.5864 29.0816 62.5423 28.0374C61.4983 26.9932 60.0822 26.4069 58.6055 26.4069C57.4963 26.4069 56.4213 26.7378 55.5124 27.3456L60.7882 22.0695C61.8323 21.0253 62.4187 19.6092 62.4187 18.1329C62.4187 16.6565 61.8323 15.2405 60.7882 14.1963C59.7442 13.1521 58.3281 12.5658 56.8515 12.5658C55.7423 12.5658 54.6672 12.8967 53.7582 13.5045L57.1181 10.1444C58.1622 9.10018 58.7488 7.68417 58.7488 6.20782C58.7488 4.73146 58.1622 3.31546 57.1181 2.27123C56.0741 1.22701 54.658 0.63969 53.1814 0.63969C51.7049 0.63969 50.2888 1.22701 49.2448 2.27123L41.761 9.7543C42.3683 8.84586 42.6994 7.77038 42.6994 6.6615C42.6994 5.18514 42.1128 3.76913 41.0688 2.72491C40.0247 1.68068 38.6087 1.09446 37.132 1.09446C35.6555 1.09446 34.2394 1.68068 33.1954 2.72491L22.6908 13.2286C23.2981 12.3201 23.6292 11.2457 23.6292 10.1358C23.6292 8.65943 23.0427 7.24342 21.9986 6.1992C20.9546 5.15497 19.5385 4.56874 18.0619 4.56874C16.5854 4.56874 15.1693 5.15497 14.1252 6.1992L1.64581 18.6782C0.601691 19.7224 0.0151367 21.1384 0.0151367 22.6158C0.0151367 24.0922 0.601691 25.5082 1.64581 26.5524Z" fill="#E9E8E7"/>
<path d="M68.4266 50.2818L68.0414 50.6676C67.8908 50.8174 67.8908 51.062 68.0414 51.2129C68.1919 51.3638 68.4361 51.3638 68.5867 51.2129L68.9718 50.8271L69.3571 51.2129C69.5076 51.3638 69.7518 51.3638 69.9023 51.2129C70.0529 51.062 70.0529 50.8174 69.9023 50.6676L69.5171 50.2818L69.9023 49.8971C70.0529 49.7463 70.0529 49.5027 69.9023 49.3518C69.827 49.2764 69.7283 49.2387 69.6297 49.2387C69.531 49.2387 69.4324 49.2764 69.3571 49.3518L68.9718 49.7366L68.5867 49.3518C68.5113 49.2764 68.4127 49.2387 68.314 49.2387C68.2154 49.2387 68.1167 49.2764 68.0414 49.3518C67.8908 49.5027 67.8908 49.7463 68.0414 49.8971L68.4266 50.2818Z" fill="#E7E7E9"/>
<path d="M13.3816 58.5818L12.9965 58.9665C12.8459 59.1174 12.8459 59.362 12.9965 59.5118C13.147 59.6627 13.3912 59.6627 13.5417 59.5118L13.9269 59.1271L14.3121 59.5118C14.4627 59.6627 14.7068 59.6627 14.8573 59.5118C15.008 59.362 15.008 59.1174 14.8573 58.9665L14.4722 58.5818L14.8573 58.1971C15.008 58.0462 15.008 57.8016 14.8573 57.6518C14.7821 57.5764 14.6834 57.5387 14.5847 57.5387C14.4861 57.5387 14.3874 57.5764 14.3121 57.6518L13.9269 58.0365L13.5417 57.6518C13.4664 57.5764 13.3677 57.5387 13.2691 57.5387C13.1704 57.5387 13.0718 57.5764 12.9965 57.6518C12.8459 57.8016 12.8459 58.0462 12.9965 58.1971L13.3816 58.5818Z" fill="#E7E7E9"/>
<path d="M3.52491 24.436L3.13976 24.8218C2.98922 24.9716 2.98922 25.2162 3.13976 25.3671C3.29031 25.5168 3.5345 25.5168 3.68505 25.3671L4.07019 24.9813L4.45545 25.3671C4.60599 25.5168 4.85007 25.5168 5.00062 25.3671C5.15127 25.2162 5.15127 24.9716 5.00062 24.8218L4.61547 24.436L5.00062 24.0513C5.15127 23.9004 5.15127 23.6558 5.00062 23.506C4.9254 23.4306 4.82669 23.3928 4.72798 23.3928C4.62937 23.3928 4.53066 23.4306 4.45545 23.506L4.07019 23.8907L3.68505 23.506C3.60972 23.4306 3.51112 23.3928 3.41241 23.3928C3.31369 23.3928 3.21509 23.4306 3.13976 23.506C2.98922 23.6558 2.98922 23.9004 3.13976 24.0513L3.52491 24.436Z" fill="#E7E7E9"/>
<path d="M49.8909 4.63879L49.5057 5.0235C49.3552 5.17437 49.3552 5.41792 49.5057 5.56879C49.6564 5.71966 49.9005 5.71966 50.051 5.56879L50.4362 5.18408L50.8214 5.56879C50.972 5.71966 51.216 5.71966 51.3666 5.56879C51.5172 5.41792 51.5172 5.17437 51.3666 5.0235L50.9814 4.63879L51.3666 4.253C51.5172 4.10213 51.5172 3.85859 51.3666 3.70772C51.2913 3.63229 51.1927 3.59457 51.0939 3.59457C50.9953 3.59457 50.8966 3.63229 50.8214 3.70772L50.4362 4.09351L50.051 3.70772C49.9757 3.63229 49.877 3.59457 49.7784 3.59457C49.6797 3.59457 49.5811 3.63229 49.5057 3.70772C49.3552 3.85859 49.3552 4.10213 49.5057 4.253L49.8909 4.63879Z" fill="#E7E7E9"/>
<path d="M42.8378 60.6002C43.0335 60.6002 43.1928 60.4407 43.1928 60.2457C43.1928 60.0495 43.0335 59.8901 42.8378 59.8901C42.6419 59.8901 42.4826 60.0495 42.4826 60.2457C42.4826 60.4407 42.6419 60.6002 42.8378 60.6002ZM42.8378 59.1185C43.4587 59.1185 43.9639 59.6239 43.9639 60.2457C43.9639 60.8664 43.4587 61.3718 42.8378 61.3718C42.2167 61.3718 41.7114 60.8664 41.7114 60.2457C41.7114 59.6239 42.2167 59.1185 42.8378 59.1185Z" fill="#E7E7E9"/>
<path d="M64.0642 24.7129C64.26 24.7129 64.4193 24.5534 64.4193 24.3573C64.4193 24.1612 64.26 24.0017 64.0642 24.0017C63.8683 24.0017 63.709 24.1612 63.709 24.3573C63.709 24.5534 63.8683 24.7129 64.0642 24.7129ZM64.0642 23.2312C64.6852 23.2312 65.1905 23.7366 65.1905 24.3573C65.1905 24.978 64.6852 25.4834 64.0642 25.4834C63.4432 25.4834 62.938 24.978 62.938 24.3573C62.938 23.7366 63.4432 23.2312 64.0642 23.2312Z" fill="#E7E7E9"/>
<path d="M16.9164 6.63666C17.1121 6.63666 17.2715 6.47718 17.2715 6.28212C17.2715 6.08599 17.1121 5.92651 16.9164 5.92651C16.7205 5.92651 16.5612 6.08599 16.5612 6.28212C16.5612 6.47718 16.7205 6.63666 16.9164 6.63666ZM16.9164 5.156C17.5373 5.156 18.0425 5.66033 18.0425 6.28212C18.0425 6.90284 17.5373 7.40825 16.9164 7.40825C16.2953 7.40825 15.79 6.90284 15.79 6.28212C15.79 5.66033 16.2953 5.156 16.9164 5.156Z" fill="#E7E7E9"/>
<path d="M3.79553 41.802C3.99134 41.802 4.15061 41.6425 4.15061 41.4463C4.15061 41.2513 3.99134 41.0918 3.79553 41.0918C3.59962 41.0918 3.44034 41.2513 3.44034 41.4463C3.44034 41.6425 3.59962 41.802 3.79553 41.802ZM3.79553 40.3202C4.41646 40.3202 4.92176 40.8256 4.92176 41.4463C4.92176 42.0681 4.41646 42.5725 3.79553 42.5725C3.17449 42.5725 2.66919 42.0681 2.66919 41.4463C2.66919 40.8256 3.17449 40.3202 3.79553 40.3202Z" fill="#E7E7E9"/>
<path d="M33.2035 22.8561V20.0575C32.4822 19.8398 31.8325 19.4077 31.3498 18.8193C30.7917 18.1393 30.4844 17.2805 30.4844 16.4011C30.4844 14.2954 32.1974 12.5831 34.3029 12.5831C36.4082 12.5831 38.1212 14.2954 38.1212 16.4011C38.1212 17.2805 37.8139 18.1393 37.2558 18.8193C36.7732 19.4077 36.1234 19.8398 35.4023 20.0575V22.8561H33.2035Z" fill="#B3B3B2"/>
<path d="M24.9785 22.8507C24.6929 22.9176 24.4014 22.952 24.1083 22.952C22.7447 22.952 21.4753 22.2203 20.7958 21.0436C20.2865 20.1621 20.1516 19.1329 20.4158 18.1469C20.68 17.1608 21.3113 16.3365 22.1933 15.8278C22.7746 15.4916 23.4329 15.3149 24.0969 15.3149C24.4305 15.3149 24.7649 15.359 25.0908 15.4463C26.0759 15.7104 26.8993 16.3418 27.4093 17.2255C27.9192 18.1081 28.0547 19.1372 27.7908 20.1222C27.626 20.7375 27.3147 21.2957 26.8834 21.7526L28.2823 24.1752L26.3781 25.2743L24.9785 22.8507Z" fill="white"/>
<path d="M19.2521 29.3823C18.5473 30.0451 17.608 30.419 16.6295 30.419C15.9632 30.419 15.3049 30.2423 14.7261 29.9082C12.9026 28.8553 12.2757 26.5158 13.3285 24.6925C14.0082 23.5157 15.2774 22.784 16.6411 22.784C17.3074 22.784 17.9656 22.9607 18.5444 23.2948C19.3058 23.7344 19.8958 24.4306 20.2059 25.2539C20.4739 25.9651 20.5234 26.7443 20.3514 27.4781L22.7755 28.8769L21.6761 30.7811L19.2521 29.3823Z" fill="#B3B3B2"/>
<path d="M13.9021 40.6198C11.7965 40.6198 10.0837 38.9074 10.0837 36.8017C10.0837 34.696 11.7965 32.9837 13.9021 32.9837C14.7812 32.9837 15.64 33.2908 16.3201 33.849C16.9084 34.3318 17.3405 34.9816 17.5584 35.7025H20.3574V37.9009H17.5584C17.3405 38.6229 16.9084 39.2727 16.3201 39.7544C15.64 40.3127 14.7812 40.6198 13.9021 40.6198Z" fill="white"/>
<path d="M54.7037 40.6198C53.8245 40.6198 52.9657 40.3127 52.2856 39.7544C51.6974 39.2727 51.2652 38.6229 51.0472 37.9009H48.2483V35.7025H51.0472C51.2652 34.9816 51.6974 34.3318 52.2856 33.849C52.9657 33.2908 53.8245 32.9837 54.7037 32.9837C56.8092 32.9837 58.522 34.696 58.522 36.8017C58.522 38.9074 56.8092 40.6198 54.7037 40.6198Z" fill="white"/>
<path d="M45.8303 28.8769L48.2543 27.4781C48.0825 26.7443 48.1318 25.9651 48.3999 25.2539C48.7099 24.4306 49.3 23.7344 50.0613 23.2948C50.6402 22.9607 51.2983 22.784 51.9647 22.784C53.3284 22.784 54.5976 23.5157 55.2773 24.6925C56.33 26.5158 55.703 28.8553 53.8797 29.9082C53.3008 30.2423 52.6426 30.419 51.9763 30.419C50.9978 30.419 50.0585 30.0451 49.3536 29.3823L46.9296 30.7811L45.8303 28.8769Z" fill="#B3B3B2"/>
<path d="M40.3235 24.1752L41.7224 21.7526C41.2911 21.2957 40.9799 20.7375 40.815 20.1222C40.551 19.1372 40.6865 18.1081 41.1965 17.2255C41.7065 16.3418 42.5298 15.7104 43.515 15.4463C43.8409 15.359 44.1752 15.3149 44.5088 15.3149C45.1728 15.3149 45.8312 15.4916 46.4124 15.8278C48.2358 16.8807 48.8627 19.2202 47.8101 21.0436C47.3001 21.9272 46.4767 22.5587 45.4915 22.8227C45.1656 22.91 44.8312 22.9542 44.4977 22.9542C44.2048 22.9542 43.9131 22.9197 43.6266 22.8518L42.2277 25.2743L40.3235 24.1752Z" fill="white"/>
<path d="M46.8508 42.1026C46.165 43.7244 45.1832 45.1814 43.9327 46.4315C42.6822 47.6826 41.2258 48.6643 39.6041 49.3497C37.9247 50.0609 36.1412 50.4208 34.3029 50.4208C32.4646 50.4208 30.6811 50.0609 29.0017 49.3497C27.4965 48.7128 26.1338 47.8216 24.9459 46.6976C24.8539 46.6103 24.7628 46.522 24.6731 46.4315C23.4226 45.1814 22.4408 43.7244 21.7549 42.1026C21.211 40.817 20.8724 39.471 20.7437 38.0852C20.7041 37.6606 20.6843 37.2328 20.6843 36.8017C20.6843 36.3707 20.7041 35.9429 20.7437 35.5194C20.8724 34.1335 21.211 32.7865 21.7549 31.5009C21.8043 31.3834 21.8553 31.2681 21.908 31.1528C22.2693 30.3597 22.7037 29.6075 23.2071 28.9027C23.644 28.2895 24.1338 27.7119 24.6731 27.172C25.2123 26.6321 25.7905 26.1429 26.4034 25.7054C27.1083 25.2032 27.8597 24.7689 28.6528 24.4079C28.7683 24.3551 28.8845 24.3034 29.0017 24.2538C30.2868 23.7107 31.6329 23.3712 33.0179 23.243C33.4428 23.2031 33.8713 23.1837 34.3029 23.1837C34.7345 23.1837 35.1628 23.2031 35.5879 23.243C36.9728 23.3712 38.3189 23.7107 39.6041 24.2538C39.7212 24.3034 39.8375 24.3551 39.953 24.4079C40.7461 24.7689 41.4975 25.2032 42.2024 25.7054C42.8152 26.1429 43.3934 26.6321 43.9327 27.172C44.0221 27.2615 44.11 27.352 44.1962 27.4436C44.6326 27.9037 45.034 28.3908 45.3986 28.9027C45.9022 29.6075 46.3364 30.3597 46.6979 31.1528C46.7504 31.2681 46.8014 31.3834 46.8508 31.5009C47.3947 32.7865 47.7333 34.1335 47.8621 35.5194C47.9016 35.9429 47.9214 36.3707 47.9214 36.8017C47.9214 37.2328 47.9016 37.6606 47.8621 38.0852C47.7333 39.471 47.3947 40.817 46.8508 42.1026ZM48.2652 35.7026C48.2554 35.5732 48.2438 35.445 48.2304 35.3168C48.1699 34.7402 48.0738 34.1702 47.9427 33.6087C47.7632 32.8393 47.5173 32.0849 47.2067 31.35C47.1746 31.2746 47.1419 31.1991 47.1086 31.1237C47.0561 31.0052 47.002 30.8888 46.9463 30.7713C46.6296 30.1075 46.262 29.4717 45.8464 28.8682C45.7731 28.7615 45.6983 28.6559 45.6219 28.5514C45.196 27.9684 44.7233 27.4166 44.2058 26.8994C43.6884 26.381 43.1366 25.909 42.5533 25.4834C42.449 25.4069 42.3435 25.3314 42.237 25.2581C41.6336 24.8433 40.9979 24.4758 40.3331 24.1579C40.2167 24.1029 40.099 24.049 39.9807 23.9962C39.9058 23.9628 39.8304 23.9305 39.7546 23.8982C39.2244 23.674 38.6848 23.4833 38.136 23.3281C37.5424 23.1589 36.9388 23.0307 36.327 22.9423C36.1483 22.9165 35.9686 22.8938 35.7884 22.8744C35.7106 22.8669 35.6325 22.8583 35.5543 22.8518C35.5037 22.8475 35.4529 22.8432 35.4022 22.8399C35.0383 22.8108 34.6717 22.7968 34.3029 22.7968C34.2447 22.7968 34.1864 22.7979 34.1283 22.7979C33.8696 22.8011 33.6121 22.8119 33.3558 22.8281C33.3048 22.8324 33.2542 22.8356 33.2036 22.8399C33.0745 22.8496 32.9456 22.8615 32.8173 22.8744C31.4509 23.0177 30.1221 23.3604 28.8512 23.8982C28.8364 23.9046 28.8215 23.9111 28.8069 23.9176C28.746 23.9424 28.6854 23.9693 28.625 23.9962C28.5066 24.049 28.3891 24.1029 28.2726 24.1579C28.2153 24.1859 28.1586 24.2128 28.1017 24.2409C27.6742 24.4521 27.2588 24.6848 26.8569 24.937C26.692 25.0405 26.5291 25.1482 26.3687 25.2581C26.3165 25.2948 26.2647 25.3303 26.2132 25.367C26.1592 25.4058 26.1056 25.4435 26.0524 25.4834C25.4691 25.909 24.9173 26.381 24.3999 26.8994C23.8825 27.4166 23.4098 27.9684 22.9839 28.5514C22.9449 28.6042 22.9062 28.6581 22.8682 28.712C22.8314 28.7637 22.7953 28.8154 22.7594 28.8682C22.649 29.0288 22.5418 29.1915 22.4383 29.3564C22.1855 29.7583 21.953 30.1732 21.7423 30.601C21.7141 30.6582 21.6866 30.7153 21.6594 30.7713C21.6038 30.8888 21.5497 31.0052 21.4972 31.1237C21.4702 31.1851 21.4439 31.2455 21.4181 31.3058C21.4116 31.3209 21.4054 31.336 21.3991 31.35C20.8616 32.6216 20.519 33.9503 20.3753 35.3168C20.362 35.445 20.3503 35.5732 20.3404 35.7026C20.3366 35.7532 20.3328 35.8039 20.3295 35.8545C20.3122 36.111 20.3022 36.3685 20.2993 36.6272C20.2984 36.6854 20.2981 36.7435 20.2981 36.8017C20.2981 37.1703 20.312 37.5378 20.3404 37.902C20.3444 37.9526 20.3484 38.0033 20.3531 38.0539C20.3596 38.1315 20.3672 38.2102 20.3753 38.2878C20.3942 38.4678 20.4167 38.6477 20.4428 38.8266C20.5309 39.4376 20.6597 40.0411 20.8284 40.6338C20.9844 41.1834 21.1748 41.7233 21.3991 42.2535C22.1044 43.9217 23.1142 45.4196 24.3999 46.7052C25.6857 47.9908 27.1833 49.0005 28.8512 49.7064C29.5573 50.0049 30.2814 50.243 31.0199 50.4208C31.0494 50.4273 31.0788 50.4349 31.1081 50.4413C32.1481 50.6849 33.2163 50.8066 34.3029 50.8066C35.4202 50.8066 36.518 50.6773 37.5858 50.4208C38.3244 50.243 39.0485 50.0049 39.7546 49.7064C41.4223 49.0005 42.9201 47.9908 44.2058 46.7052C45.4916 45.4196 46.5014 43.9217 47.2067 42.2535C47.7442 40.983 48.0868 39.6542 48.2304 38.2878C48.2438 38.1596 48.2554 38.0302 48.2652 37.902C48.2937 37.5378 48.3077 37.1703 48.3077 36.8017C48.3077 36.4332 48.2937 36.0668 48.2652 35.7026Z" fill="#E7E7E9"/>
<path d="M47.9214 36.8018C47.9214 37.2329 47.9016 37.6607 47.8621 38.0853C47.7333 39.4711 47.3947 40.8171 46.8508 42.1027C46.165 43.7245 45.1832 45.1815 43.9327 46.4315C42.6822 47.6827 41.2258 48.6644 39.6041 49.3497C37.9247 50.061 36.1412 50.4209 34.3029 50.4209C32.4646 50.4209 30.6811 50.061 29.0017 49.3497C27.3799 48.6644 25.9236 47.6827 24.6731 46.4315C23.4226 45.1815 22.4408 43.7245 21.755 42.1027C21.211 40.8171 20.8724 39.4711 20.7437 38.0853C20.7042 37.6607 20.6843 37.2329 20.6843 36.8018C20.6843 36.3707 20.7042 35.9429 20.7437 35.5194C20.8724 34.1336 21.211 32.7865 21.755 31.5009C21.8043 31.3835 21.8553 31.2682 21.908 31.1529C22.2693 30.3597 22.7037 29.6075 23.2071 28.9028C23.644 28.2896 24.1338 27.712 24.6731 27.1721C25.2123 26.6322 25.7905 26.1429 26.4034 25.7054C27.1083 25.2033 27.8597 24.769 28.6528 24.408C28.7683 24.3552 28.8845 24.3034 29.0017 24.2539C30.2868 23.7107 31.633 23.3713 33.0179 23.243C33.4428 23.2032 33.8713 23.1838 34.3029 23.1838C34.7345 23.1838 35.1628 23.2032 35.5879 23.243C36.9728 23.3713 38.3189 23.7107 39.6041 24.2539C39.7212 24.3034 39.8375 24.3552 39.953 24.408C40.7461 24.769 41.4975 25.2033 42.2024 25.7054C42.8152 26.1429 43.3934 26.6322 43.9327 27.1721C44.4721 27.712 44.9616 28.2896 45.3986 28.9028C45.9022 29.6075 46.3364 30.3597 46.6979 31.1529C46.7504 31.2682 46.8014 31.3835 46.8508 31.5009C47.3947 32.7865 47.7333 34.1336 47.8621 35.5194C47.9016 35.9429 47.9214 36.3707 47.9214 36.8018Z" fill="#E7E7E9"/>
<path d="M26.635 46.067C26.5678 46.067 26.5018 46.0541 26.4394 46.0283C26.2475 45.9487 26.1228 45.7627 26.1228 45.5546V27.9712C26.1228 27.6883 26.3526 27.4587 26.635 27.4587H42.3321C42.6145 27.4587 42.8443 27.6883 42.8443 27.9712V45.5546C42.8443 45.7627 42.7208 45.9487 42.5277 46.0283C42.4653 46.0541 42.3993 46.067 42.3321 46.067C42.1952 46.067 42.0668 46.0137 41.9703 45.917L40.3677 44.3147L38.7712 45.9164C38.6734 46.0132 38.545 46.067 38.4081 46.067C38.2712 46.067 38.1416 46.0137 38.0451 45.917L36.4437 44.3147L34.846 45.9164C34.7494 46.0132 34.6211 46.067 34.4842 46.067C34.3472 46.067 34.2177 46.0137 34.1211 45.917L32.5185 44.3147L30.922 45.9164C30.8242 46.0132 30.6959 46.067 30.559 46.067C30.4221 46.067 30.2937 46.0137 30.1971 45.917L28.5945 44.3147L26.9981 45.9164C26.9003 46.0137 26.7719 46.067 26.635 46.067Z" fill="white"/>
<path d="M29.505 37.5567C29.505 37.7606 29.3395 37.9261 29.1356 37.9261H28.3651C28.1599 37.9261 27.9944 37.7606 27.9944 37.5567C27.9944 37.3527 28.1599 37.1872 28.3651 37.1872H29.1356C29.3395 37.1872 29.505 37.3527 29.505 37.5567Z" fill="#E7E7E9"/>
<path d="M35.8152 35.3601H30.8933C30.6886 35.3601 30.5234 35.1946 30.5234 34.9906C30.5234 34.786 30.6886 34.6206 30.8933 34.6206H35.8152C36.02 34.6206 36.1851 34.786 36.1851 34.9906C36.1851 35.1946 36.02 35.3601 35.8152 35.3601Z" fill="#E7E7E9"/>
<path d="M40.6429 32.7932H28.3654C28.1604 32.7932 27.9958 32.6278 27.9958 32.4238C27.9958 32.2198 28.1604 32.0544 28.3654 32.0544H40.6429C40.8465 32.0544 41.0124 32.2198 41.0124 32.4238C41.0124 32.6278 40.8465 32.7932 40.6429 32.7932Z" fill="#E7E7E9"/>
<path d="M29.1359 35.3604H28.3653C28.1601 35.3604 27.9946 35.195 27.9946 34.9911C27.9946 34.787 28.1601 34.621 28.3653 34.621H29.1359C29.3397 34.621 29.5052 34.787 29.5052 34.9911C29.5052 35.195 29.3397 35.3604 29.1359 35.3604Z" fill="#2E2D2D"/>
<path d="M36.1851 37.5564C36.1851 37.7604 36.02 37.9259 35.8152 37.9259H30.8933C30.6886 37.9259 30.5234 37.7604 30.5234 37.5564C30.5234 37.3525 30.6886 37.187 30.8933 37.187H35.8152C36.02 37.187 36.1851 37.3525 36.1851 37.5564Z" fill="#2E2D2D"/>
<path d="M41.0124 29.8581C41.0124 30.0622 40.8465 30.2275 40.6429 30.2275H28.3654C28.1604 30.2275 27.9958 30.0622 27.9958 29.8581C27.9958 29.6541 28.1604 29.4887 28.3654 29.4887H40.6429C40.8465 29.4887 41.0124 29.6541 41.0124 29.8581Z" fill="#2E2D2D"/>
<path d="M28.4643 43.8714L27.4255 44.9134H27.97L28.4655 44.4171L28.9623 44.9134H29.5068L28.4643 43.8714ZM32.3896 43.8714L31.3496 44.9134H31.8941L32.3896 44.4171L32.8864 44.9134H33.4321L32.3896 43.8714ZM36.3137 43.8714L35.2737 44.9134H35.8194L36.3137 44.4171L36.8105 44.9134H37.3562L36.3137 43.8714ZM40.2378 43.8714L39.199 44.9134H39.7435L40.2391 44.4171L40.7346 44.9134H41.2803L40.2378 43.8714ZM40.2378 43.8714L39.199 44.9134H39.7435L40.2391 44.4171L40.7346 44.9134H41.2803L40.2378 43.8714ZM36.3137 43.8714L35.2737 44.9134H35.8194L36.3137 44.4171L36.8105 44.9134H37.3562L36.3137 43.8714ZM32.3896 43.8714L31.3496 44.9134H31.8941L32.3896 44.4171L32.8864 44.9134H33.4321L32.3896 43.8714ZM28.4643 43.8714L27.4255 44.9134H27.97L28.4655 44.4171L28.9623 44.9134H29.5068L28.4643 43.8714ZM40.2378 43.8714L39.199 44.9134H39.7435L40.2391 44.4171L40.7346 44.9134H41.2803L40.2378 43.8714ZM36.3137 43.8714L35.2737 44.9134H35.8194L36.3137 44.4171L36.8105 44.9134H37.3562L36.3137 43.8714ZM32.3896 43.8714L31.3496 44.9134H31.8941L32.3896 44.4171L32.8864 44.9134H33.4321L32.3896 43.8714ZM28.4643 43.8714L27.4255 44.9134H27.97L28.4655 44.4171L28.9623 44.9134H29.5068L28.4643 43.8714ZM42.5223 45.3839C42.5223 45.5134 42.444 45.6296 42.3253 45.679C42.2861 45.6956 42.2433 45.7037 42.2029 45.7037C42.1197 45.7037 42.0377 45.6709 41.9766 45.6102L41.2803 44.9134L40.2378 43.8714L39.199 44.9134L38.8148 45.2988L38.5052 45.6096C38.444 45.6699 38.3633 45.7037 38.2788 45.7037C38.1944 45.7037 38.1124 45.6699 38.0525 45.6102L37.3562 44.9134L36.3137 43.8714L35.2737 44.9134L34.8895 45.2988L34.5799 45.6096C34.5199 45.6699 34.4392 45.7037 34.3547 45.7037H34.3535C34.2691 45.7037 34.1883 45.6699 34.1284 45.6102L33.8176 45.2988L33.4321 44.9134L32.3896 43.8714L31.3496 44.9134L30.9654 45.2988L30.6558 45.6096C30.5958 45.6699 30.5151 45.7037 30.4294 45.7037C30.345 45.7037 30.263 45.6699 30.2043 45.6102L28.4643 43.8714L27.4255 44.9134L27.0413 45.2988L26.7317 45.6096C26.6705 45.6709 26.5885 45.7037 26.5053 45.7037C26.4637 45.7037 26.4221 45.6956 26.383 45.6796C26.2631 45.63 26.186 45.5134 26.186 45.3839V27.8004C26.186 27.624 26.3291 27.4811 26.5053 27.4811H42.2029C42.3791 27.4811 42.5223 27.624 42.5223 27.8004V45.3839ZM42.2029 27.0955H26.5053C26.1162 27.0955 25.8005 27.4117 25.8005 27.8004V45.3839C25.8005 45.6704 25.9706 45.9264 26.2361 46.0355C26.3218 46.071 26.4123 46.0888 26.5053 46.0888C26.6938 46.0888 26.8712 46.0156 27.0046 45.8817L27.5858 45.2988L27.97 44.9134L28.4655 44.4171L29.9314 45.8822C30.0636 46.0156 30.241 46.0888 30.4294 46.0888C30.6179 46.0888 30.7953 46.0151 30.9287 45.8817L31.5099 45.2988L31.8941 44.9134L32.3896 44.4171L32.8864 44.9134L33.8555 45.8822C33.9889 46.0156 34.1651 46.0888 34.3535 46.0888C34.5432 46.0888 34.7194 46.0151 34.8527 45.8817L35.434 45.2988L35.8194 44.9134L36.3137 44.4171L36.8105 44.9134L37.7796 45.8822C37.913 46.0156 38.0904 46.0888 38.2788 46.0888C38.4673 46.0888 38.6447 46.0151 38.7768 45.8817L39.3593 45.2988L39.7435 44.9134L40.2391 44.4171L40.7346 44.9134L41.7049 45.8822C41.8371 46.0156 42.0145 46.0888 42.2029 46.0888C42.2959 46.0888 42.3865 46.071 42.4721 46.0355C42.7364 45.9258 42.9077 45.6704 42.9077 45.3839V27.8004C42.9077 27.4117 42.592 27.0955 42.2029 27.0955ZM27.4255 44.9134H27.97L28.4655 44.4171L28.9623 44.9134H29.5068L28.4643 43.8714L27.4255 44.9134ZM31.3496 44.9134H31.8941L32.3896 44.4171L32.8864 44.9134H33.4321L32.3896 43.8714L31.3496 44.9134ZM35.2737 44.9134H35.8194L36.3137 44.4171L36.8105 44.9134H37.3562L36.3137 43.8714L35.2737 44.9134ZM40.2378 43.8714L39.199 44.9134H39.7435L40.2391 44.4171L40.7346 44.9134H41.2803L40.2378 43.8714ZM28.4643 43.8714L27.4255 44.9134H27.97L28.4655 44.4171L28.9623 44.9134H29.5068L28.4643 43.8714ZM32.3896 43.8714L31.3496 44.9134H31.8941L32.3896 44.4171L32.8864 44.9134H33.4321L32.3896 43.8714ZM36.3137 43.8714L35.2737 44.9134H35.8194L36.3137 44.4171L36.8105 44.9134H37.3562L36.3137 43.8714ZM40.2378 43.8714L39.199 44.9134H39.7435L40.2391 44.4171L40.7346 44.9134H41.2803L40.2378 43.8714Z" fill="#2E2D2D"/>
<path d="M55.94 27.0869C55.9392 27.032 55.9372 26.9781 55.9338 26.9242L56.6167 26.241C56.6532 26.408 56.6791 26.5772 56.6948 26.7453C56.4352 26.8401 56.1829 26.9544 55.94 27.0869Z" fill="#DFDFDD"/>
<path d="M38.7553 51.1935H30.9274C30.3551 51.0319 29.792 50.8336 29.2393 50.5998C29.1024 50.5427 28.967 50.4823 28.8325 50.4209C27.2811 49.7075 25.8812 48.7322 24.6653 47.5167C24.5749 47.4261 24.486 47.3345 24.3982 47.2429C23.2037 45.9843 22.2572 44.5392 21.5817 42.9432C21.2642 42.1921 21.0128 41.4205 20.8284 40.6338C20.9844 41.1834 21.1747 41.7233 21.3991 42.2535C22.1044 43.9217 23.1141 45.4196 24.3999 46.7052C25.6857 47.9908 27.1833 49.0006 28.8511 49.7064C29.5573 50.0049 30.2814 50.2431 31.0199 50.4209C31.0494 50.4273 31.0788 50.4349 31.1081 50.4414C32.3153 50.7851 33.5651 50.9586 34.8414 50.9586C36.1432 50.9586 37.4175 50.7787 38.6469 50.4209C39.1535 50.2732 39.6525 50.0965 40.1425 49.8885C41.7643 49.2021 43.2207 48.2204 44.4712 46.9703C45.7217 45.7203 46.7035 44.2633 47.3893 42.6415C47.9333 41.3558 48.2717 40.0088 48.4005 38.623C48.4108 38.512 48.4199 38.3999 48.4275 38.2878C48.4364 38.1596 48.4433 38.0303 48.4486 37.902V37.901H49.2217V37.902C49.2199 37.9527 49.2177 38.0033 49.2152 38.054H51.0968C51.3273 38.7135 51.7391 39.3062 52.2856 39.7545C52.8019 40.1791 53.4211 40.4582 54.0742 40.5681C54.439 40.7006 54.8321 40.7728 55.2421 40.7728C57.1346 40.7728 58.6743 39.2329 58.6743 37.3406C58.6743 36.9322 58.6025 36.5399 58.4708 36.1757C58.4707 36.1757 58.4706 36.1757 58.4706 36.1746C58.2407 34.7898 57.2623 33.6529 55.9662 33.1982C55.9663 33.1982 55.9665 33.1982 55.9666 33.1982C56.7057 33.3275 57.3792 33.6497 57.9324 34.112C58.8575 34.8836 59.4468 36.0442 59.4468 37.3406C59.4468 39.6586 57.5605 41.5455 55.2421 41.5455C54.7486 41.5455 54.2647 41.4593 53.8037 41.2912C53.3588 41.1295 52.9468 40.8935 52.5791 40.5918C52.3731 40.4237 52.1849 40.2362 52.0159 40.0336C51.715 39.6726 51.4758 39.2642 51.3096 38.8266H49.157C49.0122 40.2448 48.6586 41.6242 48.101 42.9432C47.3759 44.6566 46.3386 46.1955 45.0173 47.5167C43.8015 48.7322 42.4013 49.7086 40.85 50.4209C40.7156 50.4823 40.5801 50.5427 40.4434 50.5998C39.8907 50.8336 39.3276 51.0319 38.7553 51.1935ZM49.1406 35.7026H48.3627C48.3475 35.5733 48.3302 35.445 48.311 35.3168C48.2252 34.7392 48.1024 34.1691 47.9427 33.6087C47.7631 32.8393 47.5173 32.085 47.2066 31.35C47.1745 31.2746 47.1419 31.1992 47.1086 31.1237C47.0561 31.0052 47.002 30.8888 46.9463 30.7713L47.4851 30.461C47.5405 30.5634 47.595 30.6657 47.6483 30.7703L49.6359 29.6226C50.1345 30.0073 50.7227 30.2627 51.3458 30.3672C51.346 30.3672 51.3463 30.3672 51.3464 30.3672C51.7199 30.5019 52.1154 30.572 52.5148 30.572C53.0967 30.572 53.6859 30.4233 54.225 30.1129C55.3395 29.4685 55.9568 28.2906 55.94 27.0869C56.1829 26.9544 56.4352 26.8401 56.6948 26.7453C56.842 28.3305 56.0784 29.934 54.6113 30.781C53.9738 31.1496 53.2487 31.3446 52.5148 31.3446C51.5356 31.3446 50.5923 31.003 49.8459 30.3931L47.9957 31.461L47.9834 31.4686C48.0235 31.558 48.0628 31.6475 48.101 31.738C48.5881 32.89 48.919 34.0872 49.0917 35.3168C49.1098 35.445 49.1261 35.5733 49.1406 35.7026ZM55.9338 26.9242C55.9141 26.6041 55.8495 26.2841 55.7371 25.9737C55.6643 25.5341 55.5128 25.1008 55.2772 24.6924C54.815 23.8917 54.0801 23.298 53.2282 22.9995C53.701 23.0814 54.1586 23.2441 54.5787 23.4812C54.7992 23.6051 55.0074 23.7495 55.2008 23.9101C55.5793 24.2258 55.9016 24.6073 56.1503 25.0373C56.3725 25.4231 56.5268 25.8282 56.6167 26.241L55.9338 26.9242Z" fill="#C7C6C4"/>
<path d="M54.0742 40.5681C53.4212 40.4582 52.802 40.1791 52.2857 39.7545C51.7391 39.3062 51.3274 38.7135 51.0969 38.054H51.8851C51.9978 38.5852 52.2342 39.0723 52.5623 39.4818C52.9533 39.97 53.4744 40.3504 54.0728 40.567C54.0734 40.567 54.0738 40.567 54.0742 40.5681ZM49.2218 37.9009H48.4487C48.4562 37.7145 48.46 37.5281 48.46 37.3406C48.46 36.9095 48.4401 36.4817 48.4006 36.0582C48.3896 35.9386 48.3771 35.8211 48.3628 35.7026H49.1406C49.1464 35.7532 49.1518 35.8039 49.1571 35.8545H51.3097C51.5694 35.1713 52.0072 34.5581 52.5791 34.0883C52.9468 33.7865 53.3589 33.5516 53.8038 33.3889C54.2648 33.2208 54.7486 33.1357 55.2422 33.1357C55.4891 33.1357 55.731 33.1572 55.9662 33.1982C57.2624 33.6529 58.2408 34.7898 58.4707 36.1746C58.2534 35.5754 57.8733 35.0528 57.384 34.6605C56.7968 34.1896 56.0516 33.9083 55.2422 33.9083C53.5943 33.9083 52.2144 35.0765 51.8851 36.6272H49.2153C49.2266 36.8643 49.2324 37.1013 49.2324 37.3406C49.2324 37.3988 49.232 37.457 49.2314 37.5152C49.23 37.6445 49.2266 37.7727 49.2218 37.9009Z" fill="#DFDFDD"/>
<path d="M45.8462 28.8683C45.7731 28.7616 45.6983 28.656 45.6219 28.5514C45.196 27.9684 44.7232 27.4167 44.2057 26.8994C43.6884 26.3811 43.1365 25.9091 42.5533 25.4834C42.449 25.4069 42.3435 25.3315 42.2369 25.2582L42.3512 25.061C42.4506 25.1213 42.5491 25.1838 42.6471 25.2463L42.7174 25.1246L43.9806 22.937C44.3226 23.049 44.6776 23.1062 45.0362 23.1062C45.3343 23.1062 45.6344 23.0674 45.9301 22.9876C46.8156 22.7505 47.5555 22.1826 48.0141 21.3895C48.5392 20.4789 48.5993 19.426 48.2682 18.5079C48.0863 17.4206 47.439 16.4205 46.4124 15.8278C46.2049 15.7082 45.9875 15.608 45.7636 15.5293C46.2462 15.6134 46.7143 15.7836 47.144 16.0315C47.3549 16.1533 47.5514 16.2912 47.7326 16.441C49.2764 17.7255 49.7206 19.9778 48.683 21.7753C48.1215 22.7473 47.2148 23.4435 46.13 23.7344C45.7715 23.8303 45.4034 23.8788 45.0362 23.8788C44.8099 23.8788 44.5843 23.8605 44.3609 23.8239L43.3363 25.5976L43.2937 25.672L43.2861 25.6849C43.7961 26.0556 44.2828 26.4608 44.7445 26.8994C44.8366 26.9856 44.9273 27.0751 45.0173 27.1645C45.3819 27.5288 45.725 27.9102 46.0455 28.3068C46.1275 28.4081 46.2079 28.5105 46.2866 28.6139L45.8462 28.8683ZM40.3332 24.1579C40.3332 24.1579 40.3332 24.1579 40.3331 24.1579C40.2167 24.103 40.099 24.0491 39.9807 23.9963C39.9058 23.9629 39.8303 23.9305 39.7546 23.8982C39.2244 23.6741 38.6847 23.4833 38.136 23.3281C38.778 23.4779 39.4099 23.673 40.0288 23.9133C40.1499 23.9596 40.2706 24.0081 40.3906 24.0588H40.3907L40.3332 24.1579ZM41.5603 22.0328C41.2994 21.647 41.103 21.2192 40.9805 20.7612C40.9482 20.6405 40.9213 20.5198 40.8999 20.3981C41.077 20.9046 41.3565 21.3647 41.7223 21.7527L41.5603 22.0328Z" fill="#C7C6C4"/>
<path d="M46.9462 30.7714C46.6295 30.1075 46.2619 29.4717 45.8463 28.8683H45.8462L46.2866 28.6139C46.358 28.7066 46.428 28.8015 46.4969 28.8963L46.51 28.8877L48.3604 27.8197C48.2433 27.0977 48.3162 26.3477 48.5767 25.6559C48.7444 25.2108 48.9836 24.8002 49.2877 24.437C49.6026 24.061 49.979 23.7452 50.4066 23.4984C51.0441 23.131 51.7691 22.9359 52.5033 22.9359C52.7465 22.9359 52.9889 22.9575 53.2275 22.9995C53.2278 22.9995 53.228 22.9995 53.2282 22.9995C54.0801 23.298 54.815 23.8918 55.2772 24.6924C55.5128 25.1009 55.6643 25.5341 55.737 25.9738C55.6693 25.7862 55.5842 25.603 55.4811 25.4242C55.2608 25.0427 54.9779 24.7194 54.6526 24.4597C54.0404 23.9715 53.2782 23.7086 52.5033 23.7086C51.9212 23.7086 51.3321 23.8562 50.793 24.1676C49.3658 24.992 48.7544 26.6925 49.2451 28.2012L46.935 29.5342C47.0598 29.7282 47.1801 29.9244 47.2957 30.1237C47.3603 30.2358 47.4234 30.3479 47.4849 30.461H47.485L46.9462 30.7714ZM51.3458 30.3673C50.7227 30.2627 50.1344 30.0073 49.6359 29.6226L49.9582 29.4362C50.3433 29.864 50.8227 30.1787 51.3458 30.3673Z" fill="#989998"/>
<path d="M42.237 25.2582C41.6336 24.8433 40.9979 24.4758 40.3333 24.1579L40.3908 24.0588C40.4085 24.0663 40.426 24.0728 40.4435 24.0814C40.5339 24.1191 40.6239 24.1579 40.7134 24.1989L40.7206 24.1859L40.8406 23.9779L41.7878 22.3378C41.7074 22.2397 41.6314 22.1373 41.5604 22.0328L41.7224 21.7526C41.3566 21.3647 41.077 20.9045 40.9 20.398C40.7279 19.426 40.9015 18.4346 41.4004 17.5703C41.9621 16.5983 42.8687 15.9022 43.9537 15.6112C44.3119 15.5153 44.68 15.4668 45.0474 15.4668C45.2875 15.4668 45.5267 15.4884 45.7627 15.5293C45.763 15.5293 45.7633 15.5293 45.7637 15.5293C45.9876 15.608 46.2049 15.7082 46.4125 15.8278C47.4391 16.4205 48.0864 17.4205 48.2683 18.5079C48.268 18.5068 48.2677 18.5068 48.2675 18.5057C48.0576 17.9238 47.69 17.3947 47.1842 16.9916C47.0516 16.885 46.9092 16.788 46.7578 16.7007C46.2292 16.3957 45.642 16.2395 45.0474 16.2395C44.7492 16.2395 44.4491 16.2783 44.1536 16.358C43.2679 16.5951 42.528 17.163 42.0696 17.9572C41.6111 18.7503 41.4893 19.676 41.7267 20.5608C41.9011 21.2127 42.2551 21.7839 42.7455 22.2236L41.5196 24.3476L41.4884 24.4014L41.4123 24.534C41.7325 24.6978 42.0454 24.8735 42.3513 25.061L42.237 25.2582Z" fill="#DFDFDD"/>
<path d="M24.946 46.6976C24.8539 46.6104 24.7629 46.522 24.6731 46.4315C24.7626 46.5209 24.8532 46.6093 24.9449 46.6966C24.9452 46.6966 24.9456 46.6966 24.946 46.6976Z" fill="#C7C6C4"/>
<path d="M11.3391 40.1758C11.307 40.1413 11.2756 40.1058 11.2446 40.0691C11.3702 40.0034 11.4931 39.9323 11.6135 39.8568C11.6221 39.8633 11.6309 39.8698 11.6395 39.8762L11.3391 40.1758Z" fill="#DFDFDD"/>
<path d="M14.4405 41.5455C13.214 41.5455 12.1081 41.0175 11.339 40.1759L11.6393 39.8763C12.1136 40.2265 12.6712 40.469 13.2766 40.5692C13.6402 40.7007 14.0321 40.7729 14.4405 40.7729C16.0883 40.7729 17.4683 39.6047 17.7975 38.054H20.3529C20.3595 38.1316 20.3671 38.2103 20.3751 38.2879C20.3941 38.4678 20.4166 38.6478 20.4427 38.8267H18.373C18.1133 39.5099 17.6755 40.1231 17.1036 40.5918C16.7358 40.8936 16.3237 41.1296 15.8789 41.2912C15.4181 41.4593 14.9342 41.5455 14.4405 41.5455ZM11.2445 40.0692C11.2335 40.0562 11.2225 40.0433 11.2117 40.0304C10.7495 39.4776 10.427 38.804 10.2981 38.0648C10.551 38.7846 11.0141 39.4064 11.6133 39.8569C11.493 39.9323 11.37 40.0034 11.2445 40.0692ZM18.3116 35.7026H17.5583C17.3404 34.9817 16.9083 34.3319 16.32 33.8491C15.9722 33.5635 15.5775 33.3437 15.1574 33.1971C15.4028 33.2392 15.644 33.3038 15.8789 33.3889C16.3237 33.5517 16.7358 33.7866 17.1036 34.0883L17.1288 34.1099C17.5346 34.4482 17.8717 34.8588 18.1237 35.3168C18.193 35.4418 18.2558 35.5711 18.3116 35.7026Z" fill="#C7C6C4"/>
<path d="M13.2767 40.5692C12.6713 40.469 12.1137 40.2265 11.6395 39.8763C11.6308 39.8698 11.6221 39.8633 11.6135 39.8569C11.0142 39.4064 10.5512 38.7846 10.2982 38.0648C10.2574 37.8298 10.2358 37.5874 10.2358 37.3406C10.2358 35.0226 12.1221 33.1357 14.4407 33.1357C14.6823 33.1357 14.9216 33.1562 15.1571 33.1971C15.1572 33.1971 15.1574 33.1971 15.1575 33.1971C15.5777 33.3437 15.9723 33.5635 16.3202 33.8491C16.9084 34.3319 17.3406 34.9817 17.5585 35.7026H18.3117C18.3333 35.7532 18.3537 35.8039 18.3731 35.8545H20.3295C20.3122 36.111 20.3022 36.3686 20.2993 36.6272H17.7977C17.7585 36.4419 17.704 36.2619 17.6357 36.0884C17.4144 35.5248 17.0474 35.0334 16.5818 34.6605C15.9945 34.1896 15.25 33.9083 14.4407 33.9083C12.5481 33.9083 11.0084 35.4483 11.0084 37.3406C11.0084 38.1499 11.2901 38.8945 11.7605 39.4819C12.1524 39.9711 12.6754 40.3515 13.2759 40.5692C13.2762 40.5692 13.2765 40.5692 13.2767 40.5692Z" fill="#DFDFDD"/>
<path d="M20.7436 35.5194C20.8723 34.1336 21.2109 32.7865 21.7549 31.5009C21.8042 31.3835 21.8552 31.2681 21.9079 31.1528C22.2692 30.3597 22.7036 29.6075 23.207 28.9028C23.644 28.2896 24.1338 27.712 24.673 27.1721C25.2122 26.6322 25.7904 26.1429 26.4034 25.7054C27.1082 25.2032 27.8597 24.769 28.6527 24.4079C28.7682 24.3551 28.8844 24.3034 29.0016 24.2538C30.2867 23.7107 31.6329 23.3713 33.0179 23.243C33.4428 23.2032 33.8712 23.1838 34.3028 23.1838C34.7344 23.1838 35.1628 23.2032 35.5878 23.243C36.9728 23.3713 38.3188 23.7107 39.604 24.2538C39.7212 24.3034 39.8374 24.3551 39.953 24.4079C40.746 24.769 41.4974 25.2032 42.2023 25.7054C42.8152 26.1429 43.3933 26.6322 43.9327 27.1721C43.9999 27.2389 44.0664 27.3068 44.132 27.3757C44.0663 27.3068 43.9998 27.2389 43.9327 27.1721C43.3933 26.6322 42.8152 26.1429 42.2023 25.7054C41.4974 25.2032 40.746 24.769 39.953 24.4079C39.8374 24.3551 39.7212 24.3034 39.604 24.2538C38.3188 23.7107 36.9728 23.3713 35.5878 23.243C35.1628 23.2032 34.7344 23.1838 34.3028 23.1838C33.8712 23.1838 33.4428 23.2032 33.0179 23.243C31.6329 23.3713 30.2867 23.7107 29.0016 24.2538C28.8844 24.3034 28.7682 24.3551 28.6527 24.4079C27.8597 24.769 27.1082 25.2032 26.4034 25.7054C25.7904 26.1429 25.2122 26.6322 24.673 27.1721C24.1338 27.712 23.644 28.2896 23.207 28.9028C22.7036 29.6075 22.2692 30.3597 21.9079 31.1528C21.8552 31.2681 21.8042 31.3835 21.7549 31.5009C21.2109 32.7865 20.8723 34.1336 20.7436 35.5194ZM17.1679 31.3447C16.434 31.3447 15.7088 31.1496 15.0713 30.7811C14.6306 30.5267 14.2533 30.2045 13.9453 29.8338H13.9449C13.4707 29.2638 13.1601 28.5827 13.0339 27.8661C13.3253 28.698 13.9041 29.434 14.726 29.9082C15.1228 30.1377 15.557 30.2929 16.0054 30.3673C16.0055 30.3673 16.0056 30.3673 16.0057 30.3673C16.3849 30.5052 16.7781 30.572 17.1679 30.572C18.063 30.572 18.9402 30.2207 19.5899 29.5773C19.59 29.5773 19.59 29.5773 19.59 29.5773L21.6593 30.7714C21.6037 30.8888 21.5496 31.0052 21.4971 31.1237C21.4702 31.1852 21.4439 31.2455 21.418 31.3059L21.0809 31.1119L19.8367 30.3931C19.0903 31.0031 18.147 31.3447 17.1679 31.3447ZM22.7593 28.8683L20.5735 27.6064C20.6487 27.0514 20.5862 26.491 20.399 25.9727C20.3583 25.728 20.2938 25.4867 20.2058 25.2539C19.8958 24.4306 19.3058 23.7344 18.5443 23.2948C18.3387 23.1762 18.1229 23.0771 17.9005 22.9995C18.3824 23.0835 18.8488 23.2527 19.2759 23.4984C19.4847 23.6191 19.6813 23.756 19.8644 23.909C20.0564 24.0685 20.2337 24.2452 20.3948 24.437C20.6989 24.8002 20.9381 25.2108 21.1058 25.6558C21.3412 26.2809 21.4234 26.9522 21.351 27.6085C21.343 27.6796 21.3334 27.7497 21.3222 27.8197L22.5316 28.518L22.8682 28.712C22.8313 28.7637 22.7952 28.8155 22.7593 28.8683Z" fill="#C7C6C4"/>
<path d="M21.6594 30.7714L19.5902 29.5774C19.6361 29.531 19.681 29.4847 19.7245 29.4362L21.4068 30.4082L21.7424 30.6011C21.7142 30.6582 21.6867 30.7153 21.6594 30.7714ZM16.0055 30.3673C15.5571 30.2929 15.123 30.1377 14.7262 29.9082C13.9043 29.434 13.3255 28.698 13.0341 27.8661C12.8687 26.9264 13.0194 25.9263 13.5325 25.0373C13.908 24.3875 14.4516 23.8487 15.1041 23.4812C15.7363 23.1245 16.4539 22.9359 17.1795 22.9359C17.4218 22.9359 17.6629 22.9575 17.9003 22.9995C17.9004 22.9995 17.9005 22.9995 17.9007 22.9995C18.1231 23.0771 18.3388 23.1762 18.5444 23.2948C19.3059 23.7344 19.8959 24.4306 20.2059 25.2539C20.294 25.4867 20.3584 25.7281 20.3991 25.9727C20.3991 25.9716 20.399 25.9716 20.399 25.9716C20.189 25.3897 19.8214 24.8616 19.3158 24.4575C19.1831 24.3519 19.0409 24.2549 18.8898 24.1676C18.3509 23.8562 17.7614 23.7086 17.1795 23.7086C15.9925 23.7086 14.8366 24.3239 14.2017 25.4242C13.4756 26.6818 13.6383 28.212 14.4933 29.2842C14.7528 29.6086 15.0761 29.892 15.4578 30.1129C15.6356 30.2153 15.8188 30.2994 16.0055 30.3673ZM22.4383 29.3564L22.1494 29.1894L22.1032 29.1625L20.4376 28.2012C20.4586 28.1366 20.4777 28.0719 20.4946 28.0062C20.5293 27.8736 20.5556 27.74 20.5736 27.6064L22.7595 28.8683C22.649 29.0288 22.5419 29.1916 22.4383 29.3564Z" fill="#989998"/>
<path d="M26.2131 25.367L26.019 25.0308L25.3208 23.8217C25.251 23.8335 25.1807 23.8432 25.1102 23.8508C24.9565 23.868 24.8017 23.8766 24.6467 23.8766C23.9211 23.8766 23.2032 23.6881 22.5712 23.3324C22.1277 23.0813 21.7345 22.7527 21.4102 22.3636C21.2574 22.1804 21.1199 21.9832 20.9995 21.7753C20.7517 21.3464 20.5838 20.8851 20.4995 20.4013C20.5774 20.6222 20.6762 20.8366 20.7956 21.0435C21.3684 22.036 22.36 22.7106 23.474 22.8992C23.4742 22.8992 23.4744 22.8992 23.4746 22.8992C23.8492 23.0339 24.2462 23.104 24.6467 23.104C24.7998 23.104 24.9535 23.0943 25.1067 23.0727L26.3686 25.2582C26.3164 25.2948 26.2646 25.3304 26.2131 25.367ZM28.2725 24.1579L27.0782 22.0899C27.0782 22.0899 27.0782 22.0899 27.0783 22.0899C27.4957 21.6707 27.7987 21.1481 27.956 20.5608C28.1396 19.8754 28.1083 19.1663 27.8718 18.5122H27.8717C27.7977 18.065 27.6427 17.6296 27.4092 17.2255C26.9478 16.4259 26.2299 15.8332 25.3678 15.5315C25.3679 15.5315 25.368 15.5315 25.368 15.5315C25.4892 15.553 25.6096 15.5799 25.7292 15.6112C26.3256 15.7718 26.8683 16.053 27.3293 16.4367C27.7068 16.7513 28.0295 17.1328 28.2823 17.5703C28.8437 18.5434 28.9931 19.676 28.7021 20.7612C28.5462 21.3431 28.2711 21.8787 27.895 22.3378L28.6124 23.5803L28.8068 23.9176C28.7459 23.9424 28.6853 23.9693 28.6249 23.9963C28.5065 24.0491 28.389 24.1029 28.2725 24.1579Z" fill="#C7C6C4"/>
<path d="M26.3687 25.2582L25.1068 23.0727C25.1069 23.0727 25.1069 23.0727 25.1071 23.0727C25.241 23.0544 25.3746 23.0285 25.507 22.9941C25.5723 22.9768 25.637 22.9574 25.7018 22.9369L26.6635 24.603L26.6901 24.6482L26.8569 24.937C26.692 25.0405 26.5291 25.1482 26.3687 25.2582ZM28.1017 24.2409L27.9081 23.9057L26.9373 22.2236C26.9857 22.1804 27.0327 22.1363 27.0784 22.0899L28.2726 24.1579C28.2154 24.1859 28.1586 24.2129 28.1017 24.2409ZM23.4741 22.8992C22.3602 22.7106 21.3685 22.036 20.7958 21.0435C20.6764 20.8366 20.5776 20.6222 20.4996 20.4013C20.4877 20.3323 20.4773 20.2623 20.4686 20.1922C20.4021 19.6534 20.4398 19.1124 20.5812 18.5855C20.7224 18.0574 20.9602 17.5703 21.2874 17.1371C21.6268 16.6867 22.0478 16.3149 22.5386 16.0315C23.1785 15.6619 23.9032 15.4668 24.6348 15.4668C24.6351 15.4668 24.6353 15.4668 24.6355 15.4668C24.8803 15.4668 25.1257 15.4884 25.3679 15.5315C26.2301 15.8332 26.948 16.4259 27.4093 17.2255C27.6428 17.6296 27.7978 18.065 27.8718 18.5122C27.803 18.3214 27.7166 18.1361 27.6131 17.9572C27.3949 17.5779 27.1123 17.2514 26.7805 16.9873C26.4163 16.6964 25.9927 16.4819 25.5294 16.358C25.2337 16.2783 24.9334 16.2395 24.6355 16.2395C24.6351 16.2395 24.6346 16.2395 24.6342 16.2395C24.0398 16.2395 23.4533 16.3957 22.925 16.7007C21.825 17.3354 21.2096 18.4917 21.2096 19.6782C21.2096 20.2601 21.3573 20.8496 21.6688 21.3895C21.7563 21.5403 21.8533 21.6826 21.9593 21.8151C22.3628 22.3216 22.8913 22.6891 23.4741 22.8992Z" fill="#DFDFDD"/>
<path d="M36.327 22.9423C36.1484 22.9165 35.9686 22.8938 35.7884 22.8744C35.7106 22.8669 35.6325 22.8583 35.5544 22.8518V20.2968C37.1058 19.967 38.2735 18.5876 38.2735 16.9399C38.2735 16.5315 38.2017 16.1392 38.07 15.7761C37.8408 14.3903 36.8624 13.2534 35.5663 12.7975C36.3049 12.9268 36.9779 13.249 37.5312 13.7103C38.4564 14.4818 39.046 15.6435 39.046 16.9399C39.046 17.4335 38.9608 17.9173 38.7924 18.3775C38.63 18.8225 38.3948 19.2353 38.093 19.6028C37.6239 20.175 37.0111 20.6125 36.327 20.8722V22.9423ZM33.2035 20.8108C33.0715 20.7547 32.9427 20.6922 32.8173 20.6233C32.3598 20.3711 31.9485 20.0338 31.6102 19.6275L31.5898 19.6028C31.2881 19.2353 31.0528 18.8225 30.8904 18.3775C30.8046 18.1436 30.7403 17.9023 30.6982 17.6576C30.8449 18.0768 31.0646 18.4712 31.3499 18.8193C31.8326 19.4077 32.4823 19.8398 33.2035 20.0575V20.8108Z" fill="#C7C6C4"/>
<path d="M33.3558 22.8281V20.8722C33.3046 20.8528 33.2539 20.8323 33.2036 20.8108C33.2035 20.8108 33.2035 20.8108 33.2035 20.8108V20.0575C32.4823 19.8399 31.8326 19.4077 31.3499 18.8193C31.0646 18.4713 30.8449 18.0768 30.6983 17.6576C30.6981 17.6576 30.6981 17.6566 30.698 17.6566C30.6573 17.4216 30.6367 17.1813 30.6367 16.9399C30.6367 14.6209 32.5229 12.735 34.8414 12.735C35.0883 12.735 35.3306 12.7566 35.5659 12.7975C35.5661 12.7975 35.5662 12.7975 35.5663 12.7975C36.8624 13.2534 37.8408 14.3903 38.07 15.7761C38.07 15.775 38.0699 15.775 38.0698 15.775C37.8529 15.1748 37.4727 14.6521 36.9832 14.2599C36.3959 13.7889 35.6508 13.5077 34.8414 13.5077C32.9488 13.5077 31.4094 15.0465 31.4094 16.9399C31.4094 17.7492 31.6911 18.4939 32.1616 19.0812C32.5343 19.5467 33.0258 19.9131 33.59 20.1351C33.7629 20.203 33.943 20.2569 34.1284 20.2968V22.798C33.8696 22.8012 33.6122 22.812 33.3558 22.8281Z" fill="#989998"/>
<path d="M31.1082 50.4414C31.0789 50.4349 31.0494 50.4274 31.0199 50.4209C30.2814 50.2431 29.5574 50.0049 28.8512 49.7064C27.1833 49.0006 25.6858 47.9908 24.3999 46.7052C23.1142 45.4196 22.1045 43.9217 21.3991 42.2535C21.1748 41.7233 20.9845 41.1834 20.8284 40.6338C20.6892 40.0401 20.5881 39.4366 20.5257 38.8266H20.4429C20.4168 38.6478 20.3943 38.4678 20.3753 38.2878C20.3672 38.2102 20.3597 38.1316 20.3531 38.054H20.4674C20.4561 37.8169 20.4503 37.5787 20.4503 37.3406C20.4503 37.1014 20.4561 36.8643 20.4674 36.6272H20.2993C20.3022 36.3686 20.3122 36.111 20.3295 35.8545H20.5257C20.544 35.6746 20.5658 35.4957 20.591 35.3168C20.7638 34.0872 21.0946 32.89 21.5818 31.738C21.6201 31.6475 21.6592 31.558 21.6992 31.4686L21.6869 31.461L21.4181 31.3059C21.444 31.2455 21.4703 31.1852 21.4972 31.1237C21.5497 31.0052 21.6038 30.8888 21.6594 30.7714C21.6867 30.7153 21.7141 30.6582 21.7424 30.6011L21.7708 30.6172L22.0343 30.7703C22.2519 30.3457 22.4899 29.934 22.7477 29.5342L22.4839 29.3823L22.4383 29.3564C22.5419 29.1915 22.649 29.0288 22.7594 28.8683C22.7953 28.8154 22.8314 28.7637 22.8683 28.712L23.1726 28.8876L23.1859 28.8952C23.2238 28.8435 23.262 28.7917 23.3011 28.74C23.7149 28.185 24.1701 27.6602 24.6653 27.1645C25.1609 26.6688 25.6873 26.213 26.242 25.7992C26.2934 25.7604 26.3449 25.7226 26.3968 25.6849L26.389 25.672L26.2133 25.367C26.2648 25.3304 26.3165 25.2948 26.3688 25.2582C26.5291 25.1483 26.692 25.0405 26.8569 24.9371L26.8832 24.9834L27.0356 25.2463C27.4344 24.9888 27.8464 24.7517 28.2706 24.534L28.1183 24.27L28.1017 24.2409C28.1586 24.2129 28.2154 24.1859 28.2726 24.1579C28.3891 24.103 28.5067 24.0491 28.625 23.9963C28.6854 23.9693 28.746 23.9424 28.8069 23.9176L28.9622 24.1859L28.9693 24.1989C29.059 24.1579 29.1489 24.1191 29.2393 24.0814C30.3906 23.5932 31.5878 23.2624 32.8173 23.09C32.9962 23.0652 33.1756 23.0437 33.3558 23.0243V22.8281C33.6122 22.812 33.8696 22.8012 34.1283 22.798V22.9661C34.3651 22.9553 34.6027 22.9499 34.8414 22.9499C35.08 22.9499 35.3176 22.9553 35.5544 22.9661V22.8518C35.6325 22.8583 35.7106 22.8669 35.7884 22.8745C35.9686 22.8939 36.1484 22.9165 36.327 22.9424V23.0243C36.9377 23.0868 37.5413 23.1881 38.1361 23.3281C38.6848 23.4833 39.2245 23.6741 39.7547 23.8982C39.8304 23.9305 39.9059 23.9629 39.9808 23.9963C40.0991 24.0491 40.2168 24.103 40.3331 24.1579C40.3332 24.1579 40.3332 24.1579 40.3332 24.1579C40.9979 24.4758 41.6336 24.8433 42.237 25.2582C42.3436 25.3315 42.4491 25.4069 42.5534 25.4834C43.1366 25.9091 43.6885 26.3811 44.2058 26.8994C44.7233 27.4167 45.1961 27.9684 45.6219 28.5514C45.6983 28.656 45.7731 28.7616 45.8463 28.8683H45.8464C46.2621 29.4717 46.6296 30.1075 46.9463 30.7714C47.0021 30.8888 47.0562 31.0052 47.1086 31.1237C47.1419 31.1992 47.1746 31.2746 47.2067 31.35C47.5174 32.085 47.7632 32.8393 47.9427 33.6088C47.7913 33.0775 47.6069 32.5527 47.3894 32.0397C47.34 31.9223 47.289 31.8059 47.2363 31.6916C47.1593 31.5225 47.0789 31.3543 46.9952 31.1895C46.6865 30.5795 46.3333 29.9955 45.9373 29.4405C45.7564 29.1872 45.5665 28.9394 45.3676 28.698C45.0864 28.3564 44.7873 28.0266 44.4712 27.7109C44.3813 27.6204 44.2904 27.532 44.1982 27.4447C44.1763 27.4221 44.1542 27.3984 44.1321 27.3757C44.0665 27.3068 44 27.2389 43.9327 27.1721C43.3934 26.6322 42.8152 26.1429 42.2024 25.7054C41.4975 25.2032 40.7461 24.7689 39.9531 24.4079C39.8375 24.3551 39.7213 24.3034 39.6041 24.2538C38.3189 23.7107 36.9729 23.3713 35.5879 23.243C35.1629 23.2031 34.7345 23.1837 34.3029 23.1837C33.8713 23.1837 33.4429 23.2031 33.018 23.243C31.633 23.3713 30.2868 23.7107 29.0017 24.2538C28.8845 24.3034 28.7683 24.3551 28.6528 24.4079C27.8598 24.7689 27.1083 25.2032 26.4035 25.7054C25.7905 26.1429 25.2123 26.6322 24.6731 27.1721C24.1339 27.712 23.6441 28.2896 23.2071 28.9027C22.7037 29.6075 22.2693 30.3597 21.908 31.1528C21.8553 31.2681 21.8043 31.3834 21.755 31.5009C21.211 32.7865 20.8724 34.1336 20.7437 35.5194C20.7042 35.9429 20.6844 36.3707 20.6844 36.8018C20.6844 37.2328 20.7042 37.6606 20.7437 38.0852C20.8724 39.4711 21.211 40.817 21.755 42.1026C22.4408 43.7245 23.4226 45.1814 24.6731 46.4315C24.7629 46.522 24.8539 46.6104 24.946 46.6977C25.033 46.7893 25.1216 46.8809 25.2116 46.9703C26.4621 48.2204 27.9185 49.2021 29.5402 49.8885C30.0303 50.0965 30.5293 50.2733 31.0358 50.4209C31.0601 50.4274 31.084 50.4349 31.1082 50.4414Z" fill="#E7E7E9"/>
<path d="M24.9448 46.6966C24.8531 46.6093 24.7626 46.521 24.6731 46.4315C23.4226 45.1815 22.4408 43.7245 21.755 42.1027C21.211 40.8171 20.8724 39.4711 20.7437 38.0853C20.7042 37.6607 20.6843 37.2328 20.6843 36.8018C20.6843 36.3707 20.7042 35.9429 20.7437 35.5194C20.8724 34.1336 21.211 32.7865 21.755 31.5009C21.8043 31.3835 21.8553 31.2682 21.908 31.1528C22.2693 30.3597 22.7037 29.6075 23.2071 28.9028C23.644 28.2896 24.1338 27.712 24.6731 27.1721C25.2123 26.6322 25.7905 26.1429 26.4034 25.7054C27.1083 25.2032 27.8597 24.769 28.6528 24.408C28.7683 24.3551 28.8845 24.3034 29.0017 24.2538C30.2868 23.7107 31.633 23.3713 33.0179 23.243C33.4428 23.2032 33.8713 23.1838 34.3029 23.1838C34.7345 23.1838 35.1628 23.2032 35.5879 23.243C36.9728 23.3713 38.3189 23.7107 39.6041 24.2538C39.7212 24.3034 39.8375 24.3551 39.953 24.408C40.7461 24.769 41.4975 25.2032 42.2024 25.7054C42.8152 26.1429 43.3934 26.6322 43.9327 27.1721C43.9999 27.2389 44.0663 27.3068 44.1321 27.3757C44.1542 27.3984 44.1763 27.4221 44.1981 27.4447C44.1975 27.4447 44.1968 27.4436 44.1962 27.4436C43.7366 27.0083 43.2507 26.6085 42.7409 26.2442C42.036 25.741 41.2844 25.3078 40.4914 24.9457C40.376 24.8929 40.2598 24.8422 40.1426 24.7927C38.8574 24.2485 37.5113 23.9101 36.1263 23.7818C35.7014 23.742 35.273 23.7215 34.8414 23.7215C34.4098 23.7215 33.9812 23.742 33.5564 23.7818C32.1714 23.9101 30.8254 24.2485 29.5402 24.7927C29.4231 24.8422 29.3068 24.8929 29.1913 24.9457C28.3982 25.3078 27.6468 25.741 26.9419 26.2442C26.3291 26.6818 25.7509 27.171 25.2116 27.7109C24.6722 28.2508 24.1825 28.8284 23.7456 29.4405C23.2421 30.1463 22.8079 30.8985 22.4464 31.6917C22.3938 31.8059 22.3428 31.9223 22.2933 32.0397C21.7496 33.3254 21.411 34.6724 21.2822 36.0582C21.2426 36.4817 21.2228 36.9096 21.2228 37.3406C21.2228 37.7717 21.2426 38.1995 21.2822 38.623C21.411 40.0088 21.7496 41.3559 22.2933 42.6415C22.9299 44.1459 23.8208 45.5091 24.9448 46.6966Z" fill="#E7E7E9"/>
<path d="M34.303 12.9688C35.3864 12.9688 36.354 13.4732 36.9833 14.2598C37.4535 14.8471 37.735 15.5918 37.735 16.4011C37.735 18.0488 36.5674 19.4292 35.0161 19.7579V22.4703H33.5899V19.7579C33.0581 19.6458 32.5713 19.4087 32.1615 19.0811C31.3752 18.4518 30.8709 17.4841 30.8709 16.4011C30.8709 14.5088 32.4104 12.9688 34.303 12.9688ZM37.5312 13.7102C36.7594 12.7856 35.5987 12.1962 34.303 12.1962C31.9845 12.1962 30.0984 14.0831 30.0984 16.4011C30.0984 16.8946 30.1835 17.3785 30.3518 17.8397C30.5144 18.2848 30.7496 18.6964 31.0513 19.0639C31.22 19.2697 31.4076 19.4583 31.6103 19.6275C31.9709 19.9282 32.3795 20.1674 32.8174 20.3334V23.243H33.018C33.4429 23.2031 33.8714 23.1837 34.303 23.1837C34.7346 23.1837 35.163 23.2031 35.5879 23.243H35.7886V20.3334C36.4726 20.0737 37.0854 19.6361 37.5546 19.0639C37.8563 18.6964 38.0916 18.2848 38.254 17.8397C38.4223 17.3785 38.5076 16.8946 38.5076 16.4011C38.5076 15.3784 38.1408 14.4398 37.5312 13.7102Z" fill="#2E2D2D"/>
<path d="M25.1632 22.3981C24.8173 22.5102 24.4614 22.5662 24.1082 22.5662C23.333 22.5662 22.5714 22.3033 21.9592 21.8151C21.6336 21.5554 21.3503 21.2321 21.13 20.8507C20.8187 20.3118 20.6709 19.7224 20.6709 19.1404C20.6709 17.9529 21.2864 16.7966 22.3863 16.1619C22.9151 15.8569 23.502 15.7006 24.0969 15.7006C24.3948 15.7006 24.6951 15.7405 24.9908 15.8192C25.7063 16.011 26.327 16.4184 26.7804 16.9873C26.8884 17.122 26.9867 17.2664 27.0746 17.4184C27.5331 18.2126 27.6548 19.1372 27.4174 20.023C27.2431 20.6739 26.8891 21.2461 26.3987 21.6858L27.7318 23.9952L27.7545 24.034L26.69 24.6482L26.5194 24.7474L26.497 24.7086L25.5068 22.993L25.1632 22.3981ZM28.6249 23.9963L28.4308 23.66L28.4237 23.6471L27.3564 21.799C27.7325 21.3399 28.0077 20.8043 28.1636 20.2224C28.4545 19.1383 28.3052 18.0046 27.7438 17.0315C27.6214 16.8203 27.4828 16.6209 27.3293 16.4367C26.7788 15.775 26.0391 15.3008 25.1906 15.0735C24.8322 14.9765 24.4642 14.928 24.0969 14.928C23.3651 14.928 22.6401 15.1241 22.0001 15.4927C21.5093 15.7761 21.0882 16.1479 20.7488 16.5983C20.4216 17.0315 20.1838 17.5197 20.0426 18.0467C19.9012 18.5736 19.8635 19.1146 19.9301 19.6545C19.999 20.2138 20.1777 20.7461 20.4611 21.2364C20.7098 21.6675 21.0317 22.049 21.4102 22.3636C21.6039 22.5253 21.812 22.6686 22.0327 22.7936C22.6647 23.1503 23.3825 23.3378 24.1082 23.3378C24.3343 23.3378 24.5596 23.3195 24.7824 23.2839L25.1102 23.8508L25.8504 25.1332L25.8582 25.1461L26.0522 25.4834L26.2366 25.8024L26.2419 25.7991L26.4033 25.7065C27.1082 25.2032 27.8596 24.7689 28.6527 24.4079L28.8099 24.3163L28.6249 23.9963Z" fill="#2E2D2D"/>
<path d="M19.1859 28.8974C18.5258 29.6312 17.5878 30.0332 16.6293 30.0332C16.0475 30.0332 15.4583 29.8856 14.9191 29.5741C14.768 29.4868 14.6258 29.3898 14.4932 29.2842C13.189 28.2432 12.804 26.3736 13.6631 24.8853C14.298 23.7862 15.4539 23.1708 16.6409 23.1708C17.2228 23.1708 17.8123 23.3185 18.3512 23.6288C18.7329 23.8497 19.0561 24.1332 19.3157 24.4575C20.0264 25.3498 20.2586 26.5578 19.899 27.6624L20.4945 28.0062L22.2091 28.9965L22.2478 29.0181L22.1493 29.1894L21.5345 30.2541L21.4957 30.2315L19.1859 28.8974ZM22.9838 28.5514L22.6473 28.3575L22.6341 28.3499L21.351 27.6085L20.7837 27.2809C20.9009 26.5589 20.8279 25.8099 20.5673 25.117C20.4012 24.6763 20.1646 24.2689 19.8643 23.909L19.8564 23.8993C19.5415 23.5232 19.1651 23.2075 18.7374 22.9607C18.1 22.5921 17.3751 22.3982 16.6409 22.3982C15.9153 22.3982 15.1977 22.5857 14.5655 22.9424C13.913 23.3109 13.3694 23.8487 12.9938 24.4996C11.9563 26.296 12.4006 28.5493 13.9449 29.8338H13.9453C14.1263 29.9847 14.3223 30.1216 14.5328 30.2433C15.1703 30.6108 15.8955 30.8058 16.6293 30.8058C17.6085 30.8058 18.5518 30.4642 19.2983 29.8543L21.1483 30.9233L21.1606 30.9298L21.4971 31.1238L21.8174 31.3091L21.9078 31.1528C22.2692 30.3597 22.7036 29.6075 23.207 28.9028L23.301 28.74L23.3031 28.7357L22.9838 28.5514Z" fill="#2E2D2D"/>
<path d="M11.7604 39.4818C10.974 38.8525 10.4698 37.8848 10.4698 36.8018C10.4698 34.9094 12.0095 33.3695 13.9021 33.3695C14.9851 33.3695 15.9525 33.8738 16.5818 34.6605C16.9099 35.0711 17.1462 35.5571 17.2591 36.0895H19.9711V37.5152H17.2591C16.9299 39.0659 15.5499 40.234 13.9021 40.234C13.0928 40.234 12.3479 39.9528 11.7604 39.4818ZM20.7436 35.3168H17.8346C17.6684 34.8782 17.4293 34.4698 17.1288 34.1098C16.9598 33.9072 16.7709 33.7197 16.5651 33.5505C16.1974 33.2488 15.7852 33.0128 15.3405 32.8512C14.8797 32.6831 14.3956 32.5968 13.9021 32.5968C11.5836 32.5968 9.69727 34.4838 9.69727 36.8018C9.69727 38.0982 10.2867 39.2588 11.2117 40.0304C11.9412 40.6403 12.8796 41.0067 13.9021 41.0067C14.3956 41.0067 14.8797 40.9216 15.3405 40.7534C15.7852 40.5907 16.1974 40.3558 16.5651 40.0541C17.137 39.5842 17.5749 38.9721 17.8346 38.2878H20.7436V38.0852C20.7041 37.6606 20.6843 37.2328 20.6843 36.8018C20.6843 36.3707 20.7041 35.9429 20.7436 35.5194V35.3168Z" fill="#2E2D2D"/>
<path d="M52.5624 39.4818C52.0967 39.109 51.7299 38.6176 51.5086 38.054C51.4402 37.8805 51.386 37.7005 51.3466 37.5152H48.6346V36.0895H51.3466C51.6758 34.5377 53.0557 33.3695 54.7036 33.3695C55.7866 33.3695 56.7543 33.8738 57.3839 34.6605C57.8542 35.2478 58.1359 35.9925 58.1359 36.8018C58.1359 38.6941 56.5962 40.234 54.7036 40.234C53.8943 40.234 53.1497 39.9528 52.5624 39.4818ZM57.9324 34.112C57.1607 33.1863 55.9996 32.5968 54.7036 32.5968C54.21 32.5968 53.7262 32.6831 53.2652 32.8512C52.8205 33.0128 52.4083 33.2488 52.0406 33.5505C51.4687 34.0193 51.0308 34.6325 50.771 35.3168H47.8621V35.5194C47.9015 35.9429 47.9213 36.3707 47.9213 36.8018C47.9213 37.2328 47.9015 37.6606 47.8621 38.0852V38.2878H50.771C50.8415 38.4732 50.9247 38.6531 51.0204 38.8266C51.2728 39.2836 51.6099 39.6952 52.0159 40.0336L52.0406 40.0541C52.4083 40.3558 52.8205 40.5907 53.2652 40.7534C53.7262 40.9216 54.21 41.0067 54.7036 41.0067C57.0221 41.0067 58.9083 39.1208 58.9083 36.8018C58.9083 35.7802 58.5415 34.8416 57.9324 34.112Z" fill="#2E2D2D"/>
<path d="M49.4197 28.8974L47.2957 30.1237L47.1097 30.2315L47.0709 30.2541L46.3578 29.0181L46.3964 28.9965L48.7065 27.6624C48.2159 26.1548 48.8273 24.4532 50.2544 23.6288C50.7936 23.3185 51.3827 23.1708 51.9646 23.1708C52.9884 23.1708 53.9894 23.6288 54.6526 24.4597C54.7582 24.5922 54.8554 24.7345 54.9426 24.8853C55.8888 26.5244 55.3253 28.628 53.6865 29.5741C53.1473 29.8856 52.5581 30.0332 51.9762 30.0332C51.0176 30.0332 50.0798 29.6312 49.4197 28.8974ZM55.6118 24.4996C55.4913 24.2905 55.3538 24.0933 55.2006 23.9101C54.8764 23.5211 54.4834 23.1924 54.0401 22.9424C53.4079 22.5857 52.6903 22.3982 51.9646 22.3982C51.2305 22.3982 50.5056 22.5921 49.8681 22.9607C49.4405 23.2075 49.0641 23.5232 48.7492 23.8993C48.4452 24.2625 48.2058 24.672 48.0382 25.117C47.7776 25.8089 47.7047 26.5589 47.8219 27.2809L46.0454 28.3068L45.9715 28.3499L45.9583 28.3575L45.6218 28.5514L45.3675 28.698L45.3025 28.7357L45.3986 28.9028C45.902 29.6075 46.3363 30.3597 46.6977 31.1528L46.7881 31.3091L46.995 31.1895L47.1084 31.1238L47.4448 30.9298L47.4571 30.9233L49.3073 29.8543C50.0538 30.4642 50.9971 30.8058 51.9762 30.8058C52.7101 30.8058 53.4353 30.6108 54.0727 30.2433C56.0805 29.0838 56.7708 26.5072 55.6118 24.4996Z" fill="#2E2D2D"/>
<path d="M41.531 17.4184C41.9893 16.6242 42.7293 16.0563 43.6148 15.8192C43.9105 15.7405 44.2105 15.7006 44.5087 15.7006C45.1033 15.7006 45.6904 15.8569 46.2191 16.1619C46.601 16.3828 46.9244 16.6662 47.184 16.9916C48.0388 18.0628 48.2011 19.5931 47.4755 20.8507C47.017 21.6449 46.277 22.2128 45.3915 22.4499C45.0958 22.5285 44.7958 22.5684 44.4976 22.5684C44.139 22.5684 43.7839 22.5102 43.442 22.3981L42.1085 24.7086L42.0862 24.7474L41.4882 24.4014L40.8511 24.034L40.8736 23.9952L42.2069 21.6858C41.7163 21.2461 41.3624 20.6739 41.1881 20.023C40.9507 19.1372 41.0724 18.2126 41.531 17.4184ZM47.7325 16.441C47.4241 16.0714 47.0466 15.7481 46.6054 15.4927C45.9654 15.1241 45.2405 14.928 44.5087 14.928C44.1414 14.928 43.7733 14.9765 43.4149 15.0735C42.33 15.3633 41.4234 16.0595 40.8618 17.0315C40.3003 18.0046 40.1509 19.1383 40.4419 20.2224C40.5978 20.8043 40.8731 21.3399 41.2491 21.799L40.1819 23.6471L40.1748 23.66L40.0286 23.9133L39.9806 23.9963L39.7957 24.3163L39.9529 24.4079C40.7458 24.7689 41.4973 25.2032 42.2022 25.7065L42.3688 25.8024L42.5532 25.4834L42.7474 25.1461L42.7552 25.1332L43.8223 23.285C44.0457 23.3217 44.2713 23.34 44.4976 23.34C44.8648 23.34 45.2329 23.2915 45.5915 23.1956C46.6762 22.9046 47.583 22.2095 48.1445 21.2364C49.049 19.6696 48.8275 17.7568 47.7325 16.441Z" fill="#2E2D2D"/>
<path d="M29.0017 49.3497C27.4966 48.7128 26.1339 47.8216 24.946 46.6977C24.854 46.6104 24.7629 46.522 24.6732 46.4315C23.4227 45.1814 22.4409 43.7245 21.7549 42.1026C21.2111 40.817 20.8726 39.4711 20.7438 38.0852C20.7042 37.6606 20.6844 37.2328 20.6844 36.8018C20.6844 36.3707 20.7042 35.9429 20.7438 35.5194C20.8726 34.1336 21.2111 32.7865 21.7549 31.5009C21.8044 31.3834 21.8554 31.2681 21.908 31.1528C22.2694 30.3597 22.7038 29.6075 23.2072 28.9027C23.6442 28.2896 24.1338 27.7119 24.6732 27.1721C25.2124 26.6322 25.7907 26.1429 26.4035 25.7065C27.1084 25.2032 27.8598 24.7689 28.6529 24.4079C28.7683 24.3551 28.8847 24.3034 29.0017 24.2538C30.2869 23.7107 31.633 23.3723 33.018 23.243C33.4429 23.2031 33.8714 23.1837 34.303 23.1837C34.7346 23.1837 35.163 23.2031 35.588 23.243C36.9729 23.3723 38.319 23.7107 39.6042 24.2538C39.7213 24.3034 39.8376 24.3551 39.9531 24.4079C40.746 24.7689 41.4976 25.2032 42.2025 25.7065C42.8153 26.1429 43.3935 26.6322 43.9328 27.1721C44.0222 27.2615 44.1101 27.352 44.1963 27.4436C44.6327 27.9038 45.0339 28.3909 45.3988 28.9027C45.9022 29.6075 46.3365 30.3597 46.6979 31.1528C46.7506 31.2681 46.8015 31.3834 46.8509 31.5009C47.3949 32.7865 47.7334 34.1336 47.8622 35.5194C47.9016 35.9429 47.9215 36.3707 47.9215 36.8018C47.9215 37.2328 47.9016 37.6606 47.8622 38.0852C47.7334 39.4711 47.3949 40.817 46.8509 42.1026C46.1651 43.7245 45.1833 45.1814 43.9328 46.4315C42.6823 47.6826 41.2259 48.6643 39.6042 49.3497C37.9248 50.061 36.1412 50.4209 34.303 50.4209C32.4647 50.4209 30.6811 50.061 29.0017 49.3497ZM48.677 36.0895C48.6707 35.9601 48.6628 35.8308 48.653 35.7026C48.6434 35.5733 48.6318 35.445 48.6187 35.3168C48.4737 33.8976 48.1205 32.5182 47.5626 31.2002C47.5243 31.1097 47.4851 31.0192 47.445 30.9298C47.3924 30.8112 47.3379 30.6948 47.2822 30.5784C47.2262 30.4621 47.1689 30.3457 47.1099 30.2314C46.8925 29.8069 46.6545 29.3952 46.3966 28.9965C46.3264 28.8876 46.2551 28.7799 46.1819 28.6743C46.1089 28.5676 46.0346 28.462 45.9585 28.3574C45.5882 27.8466 45.1831 27.3606 44.7446 26.8983C44.6575 26.8067 44.5688 26.7162 44.4791 26.6257C44.1145 26.2615 43.7332 25.9188 43.3365 25.5976C43.144 25.4425 42.9475 25.2916 42.7476 25.1461C42.7376 25.1396 42.7276 25.1321 42.7176 25.1246C42.6227 25.0567 42.5274 24.9888 42.4309 24.923C42.3247 24.8498 42.2171 24.7786 42.1087 24.7086C41.9154 24.5836 41.7191 24.4629 41.5197 24.3476C41.3078 24.2247 41.0925 24.1073 40.8738 23.9952C40.8629 23.9898 40.8518 23.9833 40.8407 23.978C40.7369 23.9251 40.6324 23.8734 40.5268 23.8228C40.4106 23.7667 40.2932 23.7129 40.175 23.6601C40.0855 23.6202 39.9955 23.5803 39.9051 23.5426C38.7537 23.0555 37.5563 22.7247 36.3271 22.5512C36.1481 22.5264 35.9688 22.5048 35.7886 22.4865C35.7107 22.4779 35.6326 22.4714 35.5546 22.4639C35.5038 22.4596 35.453 22.4563 35.4023 22.452C35.2739 22.4423 35.1451 22.4348 35.0161 22.4283C34.7792 22.4165 34.5417 22.4111 34.303 22.4111C34.2447 22.4111 34.1865 22.4111 34.1284 22.4121C33.9484 22.4143 33.7688 22.4197 33.5899 22.4283C33.5119 22.4315 33.4338 22.4359 33.3559 22.4412C33.3051 22.4445 33.2543 22.4477 33.2037 22.452C33.0746 22.4617 32.9458 22.4736 32.8174 22.4865C31.3988 22.6309 30.0196 22.9844 28.7009 23.5426C28.6715 23.5544 28.642 23.5674 28.6126 23.5803C28.5518 23.6062 28.4912 23.6331 28.431 23.6601C28.3128 23.7129 28.1954 23.7667 28.079 23.8228C28.0219 23.8508 27.9651 23.8777 27.9083 23.9057C27.8492 23.9348 27.7905 23.965 27.732 23.9952C27.3667 24.1827 27.0104 24.3853 26.6637 24.603C26.6079 24.6375 26.5523 24.673 26.4972 24.7086C26.3889 24.7786 26.2813 24.8498 26.1751 24.923C26.1229 24.9586 26.0709 24.9942 26.0192 25.0308C25.9655 25.0696 25.9118 25.1073 25.8583 25.1461C25.2465 25.5912 24.6685 26.0847 24.1269 26.6257C23.5855 27.1677 23.0917 27.7454 22.6474 28.3574C22.6085 28.4103 22.5701 28.4641 22.5319 28.518C22.4956 28.5697 22.4596 28.6215 22.4239 28.6743C22.3509 28.7799 22.2793 28.8876 22.2093 28.9965C22.1736 29.0514 22.1384 29.1064 22.1032 29.1624C21.8859 29.5094 21.6834 29.8661 21.4959 30.2314C21.4658 30.2896 21.4361 30.3489 21.4069 30.4082C21.3787 30.4642 21.3512 30.5213 21.3238 30.5784C21.2681 30.6948 21.2135 30.8112 21.1607 30.9298C21.1338 30.9901 21.1073 31.0505 21.0811 31.1119C21.0684 31.141 21.0559 31.1701 21.0434 31.2002C20.4855 32.5182 20.1321 33.8976 19.9873 35.3168C19.9742 35.445 19.9626 35.5733 19.953 35.7026C19.949 35.7532 19.9455 35.8039 19.9424 35.8545C19.9372 35.9332 19.9328 36.0108 19.929 36.0895C19.9205 36.2683 19.915 36.4472 19.9129 36.6272C19.9123 36.6854 19.9119 36.7436 19.9119 36.8018C19.9119 37.041 19.9178 37.2781 19.929 37.5152C19.9352 37.6445 19.9434 37.7727 19.953 37.902C19.9568 37.9527 19.9609 38.0033 19.9653 38.054C19.9721 38.1316 19.9793 38.2102 19.9873 38.2878C20.0056 38.4678 20.0274 38.6478 20.0526 38.8266C20.2253 40.0551 20.5564 41.2535 21.0434 42.4044C21.7683 44.1178 22.8056 45.6567 24.1269 46.9778C24.2162 47.0673 24.307 47.1557 24.3984 47.2429C25.6573 48.438 27.1029 49.3853 28.7009 50.062C29.0105 50.1924 29.3235 50.312 29.6396 50.4209C31.1355 50.9338 32.6998 51.1935 34.303 51.1935C35.9062 51.1935 37.4705 50.9338 38.9663 50.4209C39.2824 50.312 39.5955 50.1924 39.9051 50.062C41.6189 49.3368 43.158 48.299 44.4791 46.9778C45.8004 45.6567 46.8376 44.1178 47.5626 42.4044C48.1203 41.0854 48.4737 39.706 48.6187 38.2878C48.6318 38.1596 48.6434 38.0303 48.653 37.902C48.6625 37.7727 48.6707 37.6445 48.677 37.5152C48.6882 37.2781 48.694 37.041 48.694 36.8018C48.694 36.5636 48.6882 36.3255 48.677 36.0895Z" fill="#2E2D2D"/>
<path d="M57.4698 50.8067C57.4698 51.02 57.2965 51.1935 57.0835 51.1935H11.5222C11.3091 51.1935 11.136 51.02 11.136 50.8067C11.136 50.5933 11.3091 50.4209 11.5222 50.4209H57.0835C57.2965 50.4209 57.4698 50.5933 57.4698 50.8067Z" fill="#2E2D2D"/>
<path d="M9.92866 51.1935H8.16943C7.95605 51.1935 7.7832 51.02 7.7832 50.8067C7.7832 50.5933 7.95605 50.4209 8.16943 50.4209H9.92866C10.142 50.4209 10.315 50.5933 10.315 50.8067C10.315 51.02 10.142 51.1935 9.92866 51.1935Z" fill="#2E2D2D"/>
<path d="M17.7568 49.3001H15.9977C15.7843 49.3001 15.6113 49.1277 15.6113 48.9143C15.6113 48.701 15.7843 48.5275 15.9977 48.5275H17.7568C17.9702 48.5275 18.1431 48.701 18.1431 48.9143C18.1431 49.1277 17.9702 49.3001 17.7568 49.3001Z" fill="#2E2D2D"/>
<path d="M14.4039 49.3001H12.6446C12.4313 49.3001 12.2583 49.1277 12.2583 48.9143C12.2583 48.701 12.4313 48.5275 12.6446 48.5275H14.4039C14.6172 48.5275 14.7902 48.701 14.7902 48.9143C14.7902 49.1277 14.6172 49.3001 14.4039 49.3001Z" fill="#2E2D2D"/>
<path d="M52.6082 49.3001H50.8489C50.6355 49.3001 50.4626 49.1277 50.4626 48.9143C50.4626 48.701 50.6355 48.5275 50.8489 48.5275H52.6082C52.8215 48.5275 52.9944 48.701 52.9944 48.9143C52.9944 49.1277 52.8215 49.3001 52.6082 49.3001Z" fill="#2E2D2D"/>
<path d="M55.9611 49.3001H54.2019C53.9885 49.3001 53.8157 49.1277 53.8157 48.9143C53.8157 48.701 53.9885 48.5275 54.2019 48.5275H55.9611C56.1745 48.5275 56.3474 48.701 56.3474 48.9143C56.3474 49.1277 56.1745 49.3001 55.9611 49.3001Z" fill="#2E2D2D"/>
<path d="M60.4363 51.1935H58.6771C58.4637 51.1935 58.2908 51.02 58.2908 50.8067C58.2908 50.5933 58.4637 50.4209 58.6771 50.4209H60.4363C60.6497 50.4209 60.8227 50.5933 60.8227 50.8067C60.8227 51.02 60.6497 51.1935 60.4363 51.1935Z" fill="#2E2D2D"/>
</svg>
