<svg width="71" height="63" viewBox="0 0 71 63" fill="none" xmlns="http://www.w3.org/2000/svg">
<path d="M1.64581 26.5525C2.68993 27.5967 4.10593 28.1829 5.58251 28.1829C6.69171 28.1829 7.76686 27.8521 8.67574 27.2443L4.71243 31.2078C3.66842 32.2521 3.08186 33.6681 3.08186 35.1444C3.08186 36.6208 3.66842 38.0368 4.71243 39.081C5.75654 40.1252 7.17266 40.7115 8.64923 40.7115C9.75844 40.7115 10.8335 40.3806 11.7425 39.7728L9.66231 41.8527C8.6183 42.8969 8.03175 44.3129 8.03175 45.7903C8.03175 47.2667 8.6183 48.6827 9.66231 49.7269C10.7065 50.7712 12.1225 51.3574 13.5991 51.3574C14.7083 51.3574 15.7833 51.0266 16.6924 50.4188L16.1841 50.9274C15.14 51.9706 14.5535 53.3866 14.5535 54.864C14.5535 56.3404 15.14 57.7564 16.1841 58.8006C17.2283 59.8448 18.6443 60.431 20.1208 60.431C21.5974 60.431 23.0134 59.8448 24.0576 58.8006L29.3333 53.5245C28.7259 54.434 28.3949 55.5084 28.3949 56.6184C28.3949 58.0947 28.9814 59.5107 30.0256 60.555C31.0697 61.5981 32.4857 62.1854 33.9622 62.1854C35.4388 62.1854 36.8549 61.5981 37.899 60.555L45.915 52.5385C45.3076 53.448 44.9765 54.5224 44.9765 55.6313C44.9765 57.1087 45.5631 58.5247 46.6071 59.5689C47.6513 60.6121 49.0673 61.1994 50.5439 61.1994C52.0205 61.1994 53.4365 60.6121 54.4806 59.5689L66.96 47.0889C68.0041 46.0447 68.5907 44.6287 68.5907 43.1523C68.5907 41.6759 68.0041 40.2599 66.96 39.2157C65.9159 38.1715 64.4999 37.5852 63.0233 37.5852C61.914 37.5852 60.8389 37.9161 59.9301 38.5239L62.5423 35.9106C63.5864 34.8675 64.1729 33.4515 64.1729 31.974C64.1729 30.4977 63.5864 29.0817 62.5423 28.0374C61.4983 26.9932 60.0822 26.407 58.6055 26.407C57.4963 26.407 56.4213 26.7378 55.5124 27.3456L60.7882 22.0695C61.8323 21.0253 62.4187 19.6093 62.4187 18.1329C62.4187 16.6566 61.8323 15.2406 60.7882 14.1963C59.7442 13.1521 58.3281 12.5659 56.8515 12.5659C55.7423 12.5659 54.6672 12.8967 53.7582 13.5045L57.1181 10.1444C58.1622 9.10021 58.7488 7.6842 58.7488 6.20785C58.7488 4.73149 58.1622 3.31549 57.1181 2.27126C56.0741 1.22704 54.658 0.639721 53.1814 0.639721C51.7049 0.639721 50.2888 1.22704 49.2448 2.27126L41.761 9.75433C42.3683 8.84589 42.6994 7.77041 42.6994 6.66153C42.6994 5.18517 42.1128 3.76917 41.0688 2.72494C40.0247 1.68071 38.6087 1.09449 37.132 1.09449C35.6555 1.09449 34.2394 1.68071 33.1954 2.72494L22.6908 13.2286C23.2981 12.3202 23.6292 11.2458 23.6292 10.1358C23.6292 8.65946 23.0427 7.24345 21.9986 6.19923C20.9546 5.155 19.5385 4.56878 18.0619 4.56878C16.5854 4.56878 15.1693 5.155 14.1252 6.19923L1.64581 18.6782C0.601691 19.7224 0.0151367 21.1384 0.0151367 22.6159C0.0151367 24.0922 0.601691 25.5082 1.64581 26.5525Z" fill="white"/>
<path d="M68.4264 50.2818L68.0411 50.6676C67.8906 50.8174 67.8906 51.062 68.0411 51.2129C68.1917 51.3638 68.4359 51.3638 68.5864 51.2129L68.9716 50.8271L69.3568 51.2129C69.5074 51.3638 69.7515 51.3638 69.9021 51.2129C70.0526 51.062 70.0526 50.8174 69.9021 50.6676L69.5168 50.2818L69.9021 49.8971C70.0526 49.7462 70.0526 49.5027 69.9021 49.3518C69.8268 49.2764 69.7281 49.2387 69.6295 49.2387C69.5307 49.2387 69.4321 49.2764 69.3568 49.3518L68.9716 49.7365L68.5864 49.3518C68.5111 49.2764 68.4125 49.2387 68.3138 49.2387C68.2152 49.2387 68.1165 49.2764 68.0411 49.3518C67.8906 49.5027 67.8906 49.7462 68.0411 49.8971L68.4264 50.2818Z" fill="white"/>
<path d="M13.3814 58.5819L12.9962 58.9666C12.8457 59.1174 12.8457 59.3621 12.9962 59.5118C13.1468 59.6627 13.3909 59.6627 13.5415 59.5118L13.9266 59.1271L14.3119 59.5118C14.4624 59.6627 14.7065 59.6627 14.8571 59.5118C15.0077 59.3621 15.0077 59.1174 14.8571 58.9666L14.4719 58.5819L14.8571 58.1971C15.0077 58.0463 15.0077 57.8016 14.8571 57.6519C14.7818 57.5764 14.6831 57.5387 14.5844 57.5387C14.4858 57.5387 14.3871 57.5764 14.3119 57.6519L13.9266 58.0366L13.5415 57.6519C13.4662 57.5764 13.3675 57.5387 13.2688 57.5387C13.1701 57.5387 13.0715 57.5764 12.9962 57.6519C12.8457 57.8016 12.8457 58.0463 12.9962 58.1971L13.3814 58.5819Z" fill="white"/>
<path d="M3.52491 24.436L3.13976 24.8217C2.98922 24.9715 2.98922 25.2162 3.13976 25.367C3.29031 25.5168 3.5345 25.5168 3.68505 25.367L4.07019 24.9812L4.45545 25.367C4.60599 25.5168 4.85007 25.5168 5.00062 25.367C5.15127 25.2162 5.15127 24.9715 5.00062 24.8217L4.61547 24.436L5.00062 24.0512C5.15127 23.9004 5.15127 23.6557 5.00062 23.506C4.9254 23.4305 4.82669 23.3928 4.72798 23.3928C4.62937 23.3928 4.53066 23.4305 4.45545 23.506L4.07019 23.8907L3.68505 23.506C3.60972 23.4305 3.51112 23.3928 3.41241 23.3928C3.31369 23.3928 3.21509 23.4305 3.13976 23.506C2.98922 23.6557 2.98922 23.9004 3.13976 24.0512L3.52491 24.436Z" fill="white"/>
<path d="M49.8906 4.63874L49.5055 5.02345C49.3549 5.17432 49.3549 5.41787 49.5055 5.56873C49.6561 5.7196 49.9002 5.7196 50.0508 5.56873L50.4359 5.18402L50.8212 5.56873C50.9717 5.7196 51.2158 5.7196 51.3663 5.56873C51.517 5.41787 51.517 5.17432 51.3663 5.02345L50.9812 4.63874L51.3663 4.25294C51.517 4.10208 51.517 3.85854 51.3663 3.70767C51.291 3.63223 51.1924 3.59452 51.0937 3.59452C50.9951 3.59452 50.8964 3.63223 50.8212 3.70767L50.4359 4.09346L50.0508 3.70767C49.9754 3.63223 49.8767 3.59452 49.7781 3.59452C49.6794 3.59452 49.5808 3.63223 49.5055 3.70767C49.3549 3.85854 49.3549 4.10208 49.5055 4.25294L49.8906 4.63874Z" fill="white"/>
<path d="M42.8378 60.6002C43.0335 60.6002 43.1928 60.4408 43.1928 60.2457C43.1928 60.0496 43.0335 59.8901 42.8378 59.8901C42.6419 59.8901 42.4826 60.0496 42.4826 60.2457C42.4826 60.4408 42.6419 60.6002 42.8378 60.6002ZM42.8378 59.1185C43.4587 59.1185 43.9639 59.6239 43.9639 60.2457C43.9639 60.8664 43.4587 61.3718 42.8378 61.3718C42.2167 61.3718 41.7114 60.8664 41.7114 60.2457C41.7114 59.6239 42.2167 59.1185 42.8378 59.1185Z" fill="white"/>
<path d="M64.0642 24.7129C64.26 24.7129 64.4193 24.5534 64.4193 24.3573C64.4193 24.1611 64.26 24.0017 64.0642 24.0017C63.8683 24.0017 63.709 24.1611 63.709 24.3573C63.709 24.5534 63.8683 24.7129 64.0642 24.7129ZM64.0642 23.2311C64.6852 23.2311 65.1905 23.7366 65.1905 24.3573C65.1905 24.978 64.6852 25.4834 64.0642 25.4834C63.4432 25.4834 62.938 24.978 62.938 24.3573C62.938 23.7366 63.4432 23.2311 64.0642 23.2311Z" fill="white"/>
<path d="M16.9164 6.63662C17.1121 6.63662 17.2715 6.47713 17.2715 6.28208C17.2715 6.08595 17.1121 5.92646 16.9164 5.92646C16.7205 5.92646 16.5612 6.08595 16.5612 6.28208C16.5612 6.47713 16.7205 6.63662 16.9164 6.63662ZM16.9164 5.15595C17.5373 5.15595 18.0425 5.66028 18.0425 6.28208C18.0425 6.90279 17.5373 7.4082 16.9164 7.4082C16.2953 7.4082 15.79 6.90279 15.79 6.28208C15.79 5.66028 16.2953 5.15595 16.9164 5.15595Z" fill="white"/>
<path d="M3.79529 41.802C3.99109 41.802 4.15037 41.6425 4.15037 41.4464C4.15037 41.2513 3.99109 41.0918 3.79529 41.0918C3.59937 41.0918 3.4401 41.2513 3.4401 41.4464C3.4401 41.6425 3.59937 41.802 3.79529 41.802ZM3.79529 40.3203C4.41622 40.3203 4.92152 40.8257 4.92152 41.4464C4.92152 42.0682 4.41622 42.5725 3.79529 42.5725C3.17425 42.5725 2.66895 42.0682 2.66895 41.4464C2.66895 40.8257 3.17425 40.3203 3.79529 40.3203Z" fill="white"/>
<path d="M1.63067 26.9127C2.67479 27.9569 4.0908 28.5431 5.56737 28.5431C6.67658 28.5431 7.75173 28.2123 8.6606 27.6045L4.69729 31.5681C3.65328 32.6123 3.06672 34.0283 3.06672 35.5046C3.06672 36.981 3.65328 38.397 4.69729 39.4412C5.74141 40.4855 7.15752 41.0717 8.63409 41.0717C9.7433 41.0717 10.8183 40.7409 11.7273 40.1331L9.64717 42.2129C8.60317 43.2571 8.01661 44.6731 8.01661 46.1506C8.01661 47.6269 8.60317 49.0429 9.64717 50.0872C10.6914 51.1314 12.1074 51.7176 13.584 51.7176C14.6932 51.7176 15.7681 51.3868 16.6772 50.779L16.169 51.2876C15.1249 52.3308 14.5383 53.7468 14.5383 55.2242C14.5383 56.7006 15.1249 58.1166 16.169 59.1608C17.2131 60.205 18.6291 60.7913 20.1057 60.7913C21.5823 60.7913 22.9983 60.205 24.0425 59.1608L29.3182 53.8847C28.7108 54.7943 28.3798 55.8686 28.3798 56.9786C28.3798 58.455 28.9663 59.871 30.0104 60.9152C31.0545 61.9583 32.4706 62.5457 33.947 62.5457C35.4237 62.5457 36.8398 61.9583 37.8838 60.9152L45.8999 52.8987C45.2924 53.8082 44.9614 54.8826 44.9614 55.9915C44.9614 57.4689 45.5479 58.8849 46.5919 59.9292C47.6362 60.9723 49.0522 61.5596 50.5288 61.5596C52.0053 61.5596 53.4213 60.9723 54.4655 59.9292L66.9449 47.4491C67.989 46.4049 68.5755 44.9889 68.5755 43.5125C68.5755 42.0362 67.989 40.6202 66.9449 39.5759C65.9007 38.5317 64.4847 37.9455 63.0082 37.9455C61.8988 37.9455 60.8238 38.2763 59.9149 38.8841L62.5272 36.2708C63.5712 35.2277 64.1578 33.8117 64.1578 32.3343C64.1578 30.8579 63.5712 29.4419 62.5272 28.3977C61.4832 27.3534 60.0671 26.7672 58.5904 26.7672C57.4812 26.7672 56.4062 27.098 55.4973 27.7058L60.773 22.4297C61.8172 21.3855 62.4036 19.9695 62.4036 18.4931C62.4036 17.0168 61.8172 15.6008 60.773 14.5566C59.729 13.5123 58.3129 12.9261 56.8363 12.9261C55.7271 12.9261 54.6521 13.2569 53.7431 13.8647L57.103 10.5047C58.1471 9.46044 58.7336 8.04443 58.7336 6.56808C58.7336 5.09172 58.1471 3.67572 57.103 2.63149C56.0589 1.58727 54.6428 0.99995 53.1663 0.99995C51.6898 0.99995 50.2737 1.58727 49.2297 2.63149L41.7458 10.1146C42.3532 9.20612 42.6842 8.13064 42.6842 7.02176C42.6842 5.5454 42.0977 4.12939 41.0537 3.08517C40.0096 2.04094 38.5935 1.45472 37.1169 1.45472C35.6404 1.45472 34.2243 2.04094 33.1803 3.08517L22.6756 13.5888C23.283 12.6804 23.614 11.606 23.614 10.496C23.614 9.01969 23.0276 7.60368 21.9835 6.55946C20.9395 5.51523 19.5233 4.929 18.0468 4.929C16.5703 4.929 15.1542 5.51523 14.1101 6.55946L1.63067 19.0384C0.586554 20.0827 0 21.4987 0 22.9761C0 24.4524 0.586554 25.8685 1.63067 26.9127Z" fill="#D3EBF8"/>
<path d="M68.4264 50.2818L68.0411 50.6676C67.8906 50.8174 67.8906 51.062 68.0411 51.2129C68.1917 51.3638 68.4359 51.3638 68.5864 51.2129L68.9716 50.8271L69.3568 51.2129C69.5074 51.3638 69.7515 51.3638 69.9021 51.2129C70.0526 51.062 70.0526 50.8174 69.9021 50.6676L69.5168 50.2818L69.9021 49.8971C70.0526 49.7462 70.0526 49.5027 69.9021 49.3518C69.8268 49.2764 69.7281 49.2387 69.6295 49.2387C69.5307 49.2387 69.4321 49.2764 69.3568 49.3518L68.9716 49.7365L68.5864 49.3518C68.5111 49.2764 68.4125 49.2387 68.3138 49.2387C68.2152 49.2387 68.1165 49.2764 68.0411 49.3518C67.8906 49.5027 67.8906 49.7462 68.0411 49.8971L68.4264 50.2818Z" fill="#91CEEE"/>
<path d="M13.3814 58.5819L12.9962 58.9666C12.8457 59.1174 12.8457 59.3621 12.9962 59.5118C13.1468 59.6627 13.3909 59.6627 13.5415 59.5118L13.9266 59.1271L14.3119 59.5118C14.4624 59.6627 14.7065 59.6627 14.8571 59.5118C15.0077 59.3621 15.0077 59.1174 14.8571 58.9666L14.4719 58.5819L14.8571 58.1971C15.0077 58.0463 15.0077 57.8016 14.8571 57.6519C14.7818 57.5764 14.6831 57.5387 14.5844 57.5387C14.4858 57.5387 14.3871 57.5764 14.3119 57.6519L13.9266 58.0366L13.5415 57.6519C13.4662 57.5764 13.3675 57.5387 13.2688 57.5387C13.1701 57.5387 13.0715 57.5764 12.9962 57.6519C12.8457 57.8016 12.8457 58.0463 12.9962 58.1971L13.3814 58.5819Z" fill="#91CEEE"/>
<path d="M3.52491 24.436L3.13976 24.8217C2.98922 24.9715 2.98922 25.2162 3.13976 25.367C3.29031 25.5168 3.5345 25.5168 3.68505 25.367L4.07019 24.9812L4.45545 25.367C4.60599 25.5168 4.85007 25.5168 5.00062 25.367C5.15127 25.2162 5.15127 24.9715 5.00062 24.8217L4.61547 24.436L5.00062 24.0512C5.15127 23.9004 5.15127 23.6557 5.00062 23.506C4.9254 23.4305 4.82669 23.3928 4.72798 23.3928C4.62937 23.3928 4.53066 23.4305 4.45545 23.506L4.07019 23.8907L3.68505 23.506C3.60972 23.4305 3.51112 23.3928 3.41241 23.3928C3.31369 23.3928 3.21509 23.4305 3.13976 23.506C2.98922 23.6557 2.98922 23.9004 3.13976 24.0512L3.52491 24.436Z" fill="#91CEEE"/>
<path d="M49.8906 4.63874L49.5055 5.02345C49.3549 5.17432 49.3549 5.41787 49.5055 5.56873C49.6561 5.7196 49.9002 5.7196 50.0508 5.56873L50.4359 5.18402L50.8212 5.56873C50.9717 5.7196 51.2158 5.7196 51.3663 5.56873C51.517 5.41787 51.517 5.17432 51.3663 5.02345L50.9812 4.63874L51.3663 4.25294C51.517 4.10208 51.517 3.85854 51.3663 3.70767C51.291 3.63223 51.1924 3.59452 51.0937 3.59452C50.9951 3.59452 50.8964 3.63223 50.8212 3.70767L50.4359 4.09346L50.0508 3.70767C49.9754 3.63223 49.8767 3.59452 49.7781 3.59452C49.6794 3.59452 49.5808 3.63223 49.5055 3.70767C49.3549 3.85854 49.3549 4.10208 49.5055 4.25294L49.8906 4.63874Z" fill="#91CEEE"/>
<path d="M42.8378 60.6002C43.0335 60.6002 43.1928 60.4408 43.1928 60.2457C43.1928 60.0496 43.0335 59.8901 42.8378 59.8901C42.6419 59.8901 42.4826 60.0496 42.4826 60.2457C42.4826 60.4408 42.6419 60.6002 42.8378 60.6002ZM42.8378 59.1185C43.4587 59.1185 43.9639 59.6239 43.9639 60.2457C43.9639 60.8664 43.4587 61.3718 42.8378 61.3718C42.2167 61.3718 41.7114 60.8664 41.7114 60.2457C41.7114 59.6239 42.2167 59.1185 42.8378 59.1185Z" fill="#91CEEE"/>
<path d="M64.0642 24.7129C64.26 24.7129 64.4193 24.5534 64.4193 24.3573C64.4193 24.1611 64.26 24.0017 64.0642 24.0017C63.8683 24.0017 63.709 24.1611 63.709 24.3573C63.709 24.5534 63.8683 24.7129 64.0642 24.7129ZM64.0642 23.2311C64.6852 23.2311 65.1905 23.7366 65.1905 24.3573C65.1905 24.978 64.6852 25.4834 64.0642 25.4834C63.4432 25.4834 62.938 24.978 62.938 24.3573C62.938 23.7366 63.4432 23.2311 64.0642 23.2311Z" fill="#91CEEE"/>
<path d="M16.9164 6.63662C17.1121 6.63662 17.2715 6.47713 17.2715 6.28208C17.2715 6.08595 17.1121 5.92646 16.9164 5.92646C16.7205 5.92646 16.5612 6.08595 16.5612 6.28208C16.5612 6.47713 16.7205 6.63662 16.9164 6.63662ZM16.9164 5.15595C17.5373 5.15595 18.0425 5.66028 18.0425 6.28208C18.0425 6.90279 17.5373 7.4082 16.9164 7.4082C16.2953 7.4082 15.79 6.90279 15.79 6.28208C15.79 5.66028 16.2953 5.15595 16.9164 5.15595Z" fill="#91CEEE"/>
<path d="M3.79529 41.802C3.99109 41.802 4.15037 41.6425 4.15037 41.4464C4.15037 41.2513 3.99109 41.0918 3.79529 41.0918C3.59937 41.0918 3.4401 41.2513 3.4401 41.4464C3.4401 41.6425 3.59937 41.802 3.79529 41.802ZM3.79529 40.3203C4.41622 40.3203 4.92152 40.8257 4.92152 41.4464C4.92152 42.0682 4.41622 42.5725 3.79529 42.5725C3.17425 42.5725 2.66895 42.0682 2.66895 41.4464C2.66895 40.8257 3.17425 40.3203 3.79529 40.3203Z" fill="#91CEEE"/>
<path d="M33.2035 22.8562V20.0576C32.4822 19.8399 31.8325 19.4078 31.3498 18.8194C30.7917 18.1394 30.4844 17.2805 30.4844 16.4012C30.4844 14.2955 32.1974 12.5831 34.3029 12.5831C36.4082 12.5831 38.1212 14.2955 38.1212 16.4012C38.1212 17.2805 37.8139 18.1394 37.2558 18.8194C36.7732 19.4078 36.1234 19.8399 35.4023 20.0576V22.8562H33.2035Z" fill="#91CEEE"/>
<path d="M24.9785 22.8507C24.6929 22.9175 24.4014 22.952 24.1083 22.952C22.7447 22.952 21.4753 22.2203 20.7958 21.0435C20.2865 20.162 20.1516 19.1329 20.4158 18.1468C20.68 17.1608 21.3113 16.3364 22.1933 15.8278C22.7746 15.4915 23.4329 15.3148 24.0969 15.3148C24.4305 15.3148 24.7649 15.359 25.0908 15.4463C26.0759 15.7103 26.8993 16.3418 27.4093 17.2255C27.9192 18.108 28.0547 19.1372 27.7908 20.1221C27.626 20.7375 27.3147 21.2957 26.8834 21.7526L28.2823 24.1751L26.3781 25.2743L24.9785 22.8507Z" fill="white"/>
<path d="M19.2518 29.3824C18.547 30.0451 17.6078 30.419 16.6293 30.419C15.963 30.419 15.3047 30.2423 14.7259 29.9082C12.9024 28.8554 12.2754 26.5159 13.3283 24.6925C14.0079 23.5157 15.2772 22.784 16.6408 22.784C17.3071 22.784 17.9653 22.9608 18.5441 23.2948C19.3056 23.7345 19.8956 24.4306 20.2056 25.254C20.4736 25.9652 20.5232 26.7443 20.3512 27.4782L22.7752 28.877L21.6758 30.7811L19.2518 29.3824Z" fill="#91CEEE"/>
<path d="M13.9024 40.6198C11.7968 40.6198 10.084 38.9074 10.084 36.8017C10.084 34.696 11.7968 32.9837 13.9024 32.9837C14.7815 32.9837 15.6403 33.2908 16.3203 33.849C16.9086 34.3318 17.3408 34.9816 17.5587 35.7025H20.3577V37.9009H17.5587C17.3408 38.6229 16.9086 39.2727 16.3203 39.7544C15.6403 40.3126 14.7815 40.6198 13.9024 40.6198Z" fill="white"/>
<path d="M54.7035 40.6198C53.8243 40.6198 52.9655 40.3126 52.2854 39.7544C51.6971 39.2727 51.265 38.6229 51.047 37.9009H48.248V35.7025H51.047C51.265 34.9816 51.6971 34.3318 52.2854 33.849C52.9655 33.2908 53.8243 32.9837 54.7035 32.9837C56.809 32.9837 58.5218 34.696 58.5218 36.8017C58.5218 38.9074 56.809 40.6198 54.7035 40.6198Z" fill="white"/>
<path d="M45.8301 28.877L48.2541 27.4782C48.0822 26.7443 48.1316 25.9652 48.3997 25.254C48.7096 24.4306 49.2997 23.7345 50.0611 23.2948C50.64 22.9608 51.2981 22.784 51.9645 22.784C53.3281 22.784 54.5974 23.5157 55.277 24.6925C56.3298 26.5159 55.7028 28.8554 53.8794 29.9082C53.3005 30.2423 52.6423 30.419 51.976 30.419C50.9975 30.419 50.0583 30.0451 49.3534 29.3824L46.9294 30.7811L45.8301 28.877Z" fill="#91CEEE"/>
<path d="M40.3232 24.1751L41.7221 21.7526C41.2908 21.2957 40.9796 20.7375 40.8147 20.1221C40.5507 19.1372 40.6863 18.108 41.1962 17.2255C41.7063 16.3418 42.5296 15.7103 43.5148 15.4463C43.8406 15.359 44.1749 15.3148 44.5085 15.3148C45.1726 15.3148 45.8309 15.4915 46.4122 15.8278C48.2355 16.8806 48.8625 19.2202 47.8099 21.0435C47.2998 21.9272 46.4764 22.5587 45.4912 22.8227C45.1654 22.91 44.831 22.9542 44.4974 22.9542C44.2045 22.9542 43.9128 22.9197 43.6264 22.8518L42.2274 25.2743L40.3232 24.1751Z" fill="white"/>
<path d="M46.8506 42.1026C46.1648 43.7244 45.183 45.1814 43.9325 46.4315C42.682 47.6826 41.2256 48.6643 39.6038 49.3497C37.9245 50.0609 36.141 50.4208 34.3026 50.4208C32.4643 50.4208 30.6808 50.0609 29.0015 49.3497C27.4962 48.7128 26.1336 47.8216 24.9457 46.6976C24.8536 46.6103 24.7626 46.522 24.6728 46.4315C23.4223 45.1814 22.4405 43.7244 21.7547 42.1026C21.2107 40.817 20.8721 39.471 20.7435 38.0852C20.7039 37.6606 20.6841 37.2328 20.6841 36.8017C20.6841 36.3707 20.7039 35.9429 20.7435 35.5194C20.8721 34.1335 21.2107 32.7865 21.7547 31.5009C21.8041 31.3834 21.855 31.2681 21.9077 31.1528C22.2691 30.3597 22.7035 29.6075 23.2068 28.9027C23.6438 28.2895 24.1336 27.7119 24.6728 27.172C25.2121 26.6321 25.7902 26.1429 26.4032 25.7054C27.1081 25.2032 27.8595 24.7689 28.6525 24.4079C28.768 24.3551 28.8842 24.3034 29.0015 24.2538C30.2865 23.7107 31.6327 23.3712 33.0177 23.243C33.4426 23.2031 33.8711 23.1837 34.3026 23.1837C34.7342 23.1837 35.1626 23.2031 35.5876 23.243C36.9726 23.3712 38.3187 23.7107 39.6038 24.2538C39.721 24.3034 39.8373 24.3551 39.9528 24.4079C40.7458 24.7689 41.4972 25.2032 42.2021 25.7054C42.815 26.1429 43.3931 26.6321 43.9325 27.172C44.0218 27.2615 44.1097 27.352 44.196 27.4436C44.6324 27.9037 45.0337 28.3908 45.3984 28.9027C45.902 29.6075 46.3361 30.3597 46.6977 31.1528C46.7502 31.2681 46.8011 31.3834 46.8506 31.5009C47.3945 32.7865 47.7331 34.1335 47.8618 35.5194C47.9014 35.9429 47.9211 36.3707 47.9211 36.8017C47.9211 37.2328 47.9014 37.6606 47.8618 38.0852C47.7331 39.471 47.3945 40.817 46.8506 42.1026ZM48.265 35.7026C48.2552 35.5732 48.2435 35.445 48.2302 35.3168C48.1696 34.7402 48.0736 34.1702 47.9424 33.6087C47.7629 32.8393 47.5171 32.0849 47.2064 31.35C47.1743 31.2746 47.1417 31.1991 47.1084 31.1237C47.0559 31.0052 47.0018 30.8888 46.9461 30.7713C46.6294 30.1075 46.2618 29.4717 45.8461 28.8682C45.7729 28.7615 45.6981 28.6559 45.6217 28.5514C45.1958 27.9684 44.723 27.4166 44.2055 26.8994C43.6882 26.381 43.1363 25.909 42.5531 25.4834C42.4488 25.4069 42.3433 25.3314 42.2367 25.2581C41.6333 24.8433 40.9977 24.4758 40.3329 24.1579C40.2165 24.1029 40.0988 24.049 39.9805 23.9962C39.9056 23.9628 39.8301 23.9305 39.7544 23.8982C39.2242 23.674 38.6845 23.4833 38.1358 23.3281C37.5421 23.1589 36.9385 23.0307 36.3268 22.9423C36.1481 22.9165 35.9683 22.8938 35.7882 22.8744C35.7104 22.8669 35.6322 22.8583 35.5541 22.8518C35.5035 22.8475 35.4527 22.8432 35.4019 22.8399C35.038 22.8108 34.6714 22.7968 34.3026 22.7968C34.2445 22.7968 34.1862 22.7979 34.1281 22.7979C33.8693 22.8011 33.6119 22.8119 33.3555 22.8281C33.3045 22.8324 33.254 22.8356 33.2034 22.8399C33.0743 22.8496 32.9454 22.8615 32.817 22.8744C31.4507 23.0177 30.1219 23.3604 28.8509 23.8982C28.8361 23.9046 28.8213 23.9111 28.8066 23.9176C28.7457 23.9424 28.6852 23.9693 28.6247 23.9962C28.5064 24.049 28.3888 24.1029 28.2723 24.1579C28.2151 24.1859 28.1583 24.2128 28.1014 24.2409C27.6739 24.4521 27.2586 24.6848 26.8566 24.937C26.6918 25.0405 26.5288 25.1482 26.3685 25.2581C26.3162 25.2948 26.2645 25.3303 26.213 25.367C26.159 25.4058 26.1053 25.4435 26.0522 25.4834C25.4689 25.909 24.917 26.381 24.3996 26.8994C23.8823 27.4166 23.4095 27.9684 22.9836 28.5514C22.9446 28.6042 22.9059 28.6581 22.868 28.712C22.8311 28.7637 22.795 28.8154 22.7592 28.8682C22.6487 29.0288 22.5416 29.1915 22.438 29.3564C22.1852 29.7583 21.9528 30.1732 21.7421 30.601C21.7139 30.6582 21.6864 30.7153 21.6591 30.7713C21.6035 30.8888 21.5494 31.0052 21.4969 31.1237C21.47 31.1851 21.4437 31.2455 21.4178 31.3058C21.4114 31.3209 21.4051 31.336 21.3989 31.35C20.8613 32.6216 20.5188 33.9503 20.375 35.3168C20.3618 35.445 20.35 35.5732 20.3402 35.7026C20.3363 35.7532 20.3326 35.8039 20.3292 35.8545C20.312 36.111 20.3019 36.3685 20.299 36.6272C20.2982 36.6854 20.2979 36.7435 20.2979 36.8017C20.2979 37.1703 20.3118 37.5378 20.3402 37.902C20.3442 37.9526 20.3482 38.0033 20.3528 38.0539C20.3594 38.1315 20.3669 38.2102 20.375 38.2878C20.394 38.4678 20.4165 38.6477 20.4426 38.8266C20.5306 39.4376 20.6595 40.0411 20.8282 40.6338C20.9842 41.1834 21.1745 41.7233 21.3989 42.2535C22.1042 43.9217 23.1139 45.4196 24.3996 46.7052C25.6855 47.9908 27.1831 49.0005 28.8509 49.7064C29.5571 50.0049 30.2811 50.243 31.0196 50.4208C31.0492 50.4273 31.0786 50.4349 31.1079 50.4413C32.1478 50.6849 33.2161 50.8066 34.3026 50.8066C35.4199 50.8066 36.5177 50.6773 37.5855 50.4208C38.3242 50.243 39.0482 50.0049 39.7544 49.7064C41.422 49.0005 42.9198 47.9908 44.2055 46.7052C45.4914 45.4196 46.5011 43.9217 47.2064 42.2535C47.7439 40.983 48.0865 39.6542 48.2302 38.2878C48.2435 38.1596 48.2552 38.0302 48.265 37.902C48.2934 37.5378 48.3074 37.1703 48.3074 36.8017C48.3074 36.4332 48.2934 36.0668 48.265 35.7026Z" fill="#91CEEE"/>
<path d="M47.9216 36.8018C47.9216 37.2328 47.9019 37.6607 47.8623 38.0852C47.7336 39.4711 47.395 40.817 46.8511 42.1027C46.1653 43.7245 45.1835 45.1815 43.933 46.4315C42.6825 47.6826 41.2261 48.6644 39.6043 49.3497C37.925 50.061 36.1415 50.4209 34.3031 50.4209C32.4648 50.4209 30.6813 50.061 29.0019 49.3497C27.3801 48.6644 25.9238 47.6826 24.6733 46.4315C23.4228 45.1815 22.441 43.7245 21.7552 42.1027C21.2112 40.817 20.8726 39.4711 20.7439 38.0852C20.7044 37.6607 20.6846 37.2328 20.6846 36.8018C20.6846 36.3707 20.7044 35.9429 20.7439 35.5194C20.8726 34.1336 21.2112 32.7865 21.7552 31.5009C21.8046 31.3835 21.8555 31.2681 21.9082 31.1528C22.2696 30.3597 22.7039 29.6075 23.2073 28.9027C23.6443 28.2896 24.1341 27.712 24.6733 27.1721C25.2126 26.6322 25.7907 26.1429 26.4037 25.7054C27.1085 25.2032 27.86 24.769 28.653 24.4079C28.7685 24.3551 28.8847 24.3034 29.0019 24.2538C30.287 23.7107 31.6332 23.3713 33.0182 23.243C33.4431 23.2031 33.8716 23.1838 34.3031 23.1838C34.7347 23.1838 35.1631 23.2031 35.5881 23.243C36.9731 23.3713 38.3192 23.7107 39.6043 24.2538C39.7215 24.3034 39.8378 24.3551 39.9533 24.4079C40.7463 24.769 41.4977 25.2032 42.2026 25.7054C42.8155 26.1429 43.3936 26.6322 43.933 27.1721C44.4723 27.712 44.9619 28.2896 45.3989 28.9027C45.9025 29.6075 46.3366 30.3597 46.6982 31.1528C46.7507 31.2681 46.8016 31.3835 46.8511 31.5009C47.395 32.7865 47.7336 34.1336 47.8623 35.5194C47.9019 35.9429 47.9216 36.3707 47.9216 36.8018Z" fill="#91CEEE"/>
<path d="M26.6348 46.067C26.5675 46.067 26.5015 46.0541 26.4392 46.0283C26.2473 45.9487 26.1226 45.7626 26.1226 45.5546V27.9712C26.1226 27.6883 26.3524 27.4587 26.6348 27.4587H42.3319C42.6142 27.4587 42.8441 27.6883 42.8441 27.9712V45.5546C42.8441 45.7626 42.7206 45.9487 42.5274 46.0283C42.4651 46.0541 42.3991 46.067 42.3319 46.067C42.1949 46.067 42.0666 46.0137 41.97 45.917L40.3674 44.3147L38.7709 45.9164C38.6732 46.0132 38.5448 46.067 38.4079 46.067C38.271 46.067 38.1414 46.0137 38.0448 45.917L36.4435 44.3147L34.8458 45.9164C34.7492 46.0132 34.6208 46.067 34.4839 46.067C34.347 46.067 34.2174 46.0137 34.1209 45.917L32.5183 44.3147L30.9218 45.9164C30.824 46.0132 30.6956 46.067 30.5587 46.067C30.4218 46.067 30.2935 46.0137 30.1969 45.917L28.5943 44.3147L26.9978 45.9164C26.9 46.0137 26.7717 46.067 26.6348 46.067Z" fill="white"/>
<path d="M29.5047 37.5566C29.5047 37.7605 29.3392 37.926 29.1354 37.926H28.3648C28.1596 37.926 27.9941 37.7605 27.9941 37.5566C27.9941 37.3526 28.1596 37.1871 28.3648 37.1871H29.1354C29.3392 37.1871 29.5047 37.3526 29.5047 37.5566Z" fill="#91CEEE"/>
<path d="M35.8152 35.3601H30.8933C30.6886 35.3601 30.5234 35.1945 30.5234 34.9906C30.5234 34.786 30.6886 34.6206 30.8933 34.6206H35.8152C36.02 34.6206 36.1851 34.786 36.1851 34.9906C36.1851 35.1945 36.02 35.3601 35.8152 35.3601Z" fill="#91CEEE"/>
<path d="M40.6426 32.7932H28.3652C28.1602 32.7932 27.9956 32.6278 27.9956 32.4238C27.9956 32.2198 28.1602 32.0544 28.3652 32.0544H40.6426C40.8462 32.0544 41.0122 32.2198 41.0122 32.4238C41.0122 32.6278 40.8462 32.7932 40.6426 32.7932Z" fill="#91CEEE"/>
<path d="M29.1359 35.3605H28.3653C28.1601 35.3605 27.9946 35.195 27.9946 34.9911C27.9946 34.7871 28.1601 34.6211 28.3653 34.6211H29.1359C29.3397 34.6211 29.5052 34.7871 29.5052 34.9911C29.5052 35.195 29.3397 35.3605 29.1359 35.3605Z" fill="#2E2D2D"/>
<path d="M36.1851 37.5564C36.1851 37.7603 36.02 37.9259 35.8152 37.9259H30.8933C30.6886 37.9259 30.5234 37.7603 30.5234 37.5564C30.5234 37.3525 30.6886 37.1869 30.8933 37.1869H35.8152C36.02 37.1869 36.1851 37.3525 36.1851 37.5564Z" fill="#2E2D2D"/>
<path d="M41.0122 29.8581C41.0122 30.0621 40.8462 30.2275 40.6426 30.2275H28.3652C28.1602 30.2275 27.9956 30.0621 27.9956 29.8581C27.9956 29.6541 28.1602 29.4887 28.3652 29.4887H40.6426C40.8462 29.4887 41.0122 29.6541 41.0122 29.8581Z" fill="#2E2D2D"/>
<path d="M28.4641 43.8713L27.4252 44.9134H27.9697L28.4653 44.4171L28.9621 44.9134H29.5066L28.4641 43.8713ZM32.3894 43.8713L31.3493 44.9134H31.8938L32.3894 44.4171L32.8862 44.9134H33.4319L32.3894 43.8713ZM36.3135 43.8713L35.2734 44.9134H35.8192L36.3135 44.4171L36.8103 44.9134H37.356L36.3135 43.8713ZM40.2376 43.8713L39.1987 44.9134H39.7432L40.2388 44.4171L40.7344 44.9134H41.2801L40.2376 43.8713ZM40.2376 43.8713L39.1987 44.9134H39.7432L40.2388 44.4171L40.7344 44.9134H41.2801L40.2376 43.8713ZM36.3135 43.8713L35.2734 44.9134H35.8192L36.3135 44.4171L36.8103 44.9134H37.356L36.3135 43.8713ZM32.3894 43.8713L31.3493 44.9134H31.8938L32.3894 44.4171L32.8862 44.9134H33.4319L32.3894 43.8713ZM28.4641 43.8713L27.4252 44.9134H27.9697L28.4653 44.4171L28.9621 44.9134H29.5066L28.4641 43.8713ZM40.2376 43.8713L39.1987 44.9134H39.7432L40.2388 44.4171L40.7344 44.9134H41.2801L40.2376 43.8713ZM36.3135 43.8713L35.2734 44.9134H35.8192L36.3135 44.4171L36.8103 44.9134H37.356L36.3135 43.8713ZM32.3894 43.8713L31.3493 44.9134H31.8938L32.3894 44.4171L32.8862 44.9134H33.4319L32.3894 43.8713ZM28.4641 43.8713L27.4252 44.9134H27.9697L28.4653 44.4171L28.9621 44.9134H29.5066L28.4641 43.8713ZM42.522 45.3838C42.522 45.5134 42.4437 45.6295 42.3251 45.679C42.2859 45.6956 42.2431 45.7037 42.2027 45.7037C42.1195 45.7037 42.0375 45.6709 41.9763 45.6102L41.2801 44.9134L40.2376 43.8713L39.1987 44.9134L38.8145 45.2988L38.505 45.6096C38.4438 45.6699 38.363 45.7037 38.2786 45.7037C38.1942 45.7037 38.1122 45.6699 38.0522 45.6102L37.356 44.9134L36.3135 43.8713L35.2734 44.9134L34.8892 45.2988L34.5796 45.6096C34.5197 45.6699 34.4389 45.7037 34.3545 45.7037H34.3533C34.2688 45.7037 34.1881 45.6699 34.1281 45.6102L33.8173 45.2988L33.4319 44.9134L32.3894 43.8713L31.3493 44.9134L30.9651 45.2988L30.6555 45.6096C30.5956 45.6699 30.5148 45.7037 30.4292 45.7037C30.3448 45.7037 30.2628 45.6699 30.204 45.6102L28.4641 43.8713L27.4252 44.9134L27.041 45.2988L26.7315 45.6096C26.6703 45.6709 26.5883 45.7037 26.5051 45.7037C26.4635 45.7037 26.4219 45.6956 26.3827 45.6796C26.2628 45.63 26.1857 45.5134 26.1857 45.3838V27.8004C26.1857 27.624 26.3289 27.481 26.5051 27.481H42.2027C42.3789 27.481 42.522 27.624 42.522 27.8004V45.3838ZM42.2027 27.0955H26.5051C26.116 27.0955 25.8003 27.4117 25.8003 27.8004V45.3838C25.8003 45.6704 25.9704 45.9264 26.2359 46.0355C26.3215 46.071 26.4121 46.0887 26.5051 46.0887C26.6935 46.0887 26.8709 46.0156 27.0043 45.8817L27.5855 45.2988L27.9697 44.9134L28.4653 44.4171L29.9312 45.8822C30.0633 46.0156 30.2407 46.0887 30.4292 46.0887C30.6176 46.0887 30.795 46.0151 30.9284 45.8817L31.5096 45.2988L31.8938 44.9134L32.3894 44.4171L32.8862 44.9134L33.8553 45.8822C33.9886 46.0156 34.1648 46.0887 34.3533 46.0887C34.5429 46.0887 34.7191 46.0151 34.8525 45.8817L35.4337 45.2988L35.8192 44.9134L36.3135 44.4171L36.8103 44.9134L37.7794 45.8822C37.9127 46.0156 38.0902 46.0887 38.2786 46.0887C38.467 46.0887 38.6445 46.0151 38.7766 45.8817L39.359 45.2988L39.7432 44.9134L40.2388 44.4171L40.7344 44.9134L41.7047 45.8822C41.8368 46.0156 42.0143 46.0887 42.2027 46.0887C42.2957 46.0887 42.3862 46.071 42.4719 46.0355C42.7362 45.9258 42.9075 45.6704 42.9075 45.3838V27.8004C42.9075 27.4117 42.5918 27.0955 42.2027 27.0955ZM27.4252 44.9134H27.9697L28.4653 44.4171L28.9621 44.9134H29.5066L28.4641 43.8713L27.4252 44.9134ZM31.3493 44.9134H31.8938L32.3894 44.4171L32.8862 44.9134H33.4319L32.3894 43.8713L31.3493 44.9134ZM35.2734 44.9134H35.8192L36.3135 44.4171L36.8103 44.9134H37.356L36.3135 43.8713L35.2734 44.9134ZM40.2376 43.8713L39.1987 44.9134H39.7432L40.2388 44.4171L40.7344 44.9134H41.2801L40.2376 43.8713ZM28.4641 43.8713L27.4252 44.9134H27.9697L28.4653 44.4171L28.9621 44.9134H29.5066L28.4641 43.8713ZM32.3894 43.8713L31.3493 44.9134H31.8938L32.3894 44.4171L32.8862 44.9134H33.4319L32.3894 43.8713ZM36.3135 43.8713L35.2734 44.9134H35.8192L36.3135 44.4171L36.8103 44.9134H37.356L36.3135 43.8713ZM40.2376 43.8713L39.1987 44.9134H39.7432L40.2388 44.4171L40.7344 44.9134H41.2801L40.2376 43.8713Z" fill="#2E2D2D"/>
<path d="M55.9402 27.0869C55.9395 27.032 55.9374 26.9781 55.9341 26.9242L56.617 26.241C56.6534 26.408 56.6794 26.5772 56.695 26.7453C56.4354 26.8401 56.1831 26.9544 55.9402 27.0869Z" fill="#DFDFDD"/>
<path d="M38.7556 51.1936H30.9276C30.3553 51.032 29.7922 50.8337 29.2395 50.5998C29.1027 50.5427 28.9672 50.4824 28.8327 50.4209C27.2814 49.7075 25.8814 48.7323 24.6655 47.5167C24.5751 47.4262 24.4862 47.3346 24.3985 47.243C23.2039 45.9843 22.2574 44.5392 21.582 42.9433C21.2644 42.1921 21.013 41.4206 20.8286 40.6339C20.9847 41.1835 21.175 41.7234 21.3993 42.2536C22.1046 43.9217 23.1144 45.4197 24.4001 46.7053C25.6859 47.9909 27.1835 49.0006 28.8514 49.7065C29.5575 50.005 30.2816 50.2431 31.0201 50.4209C31.0496 50.4274 31.079 50.435 31.1084 50.4414C32.3155 50.7852 33.5654 50.9587 34.8416 50.9587C36.1435 50.9587 37.4178 50.7787 38.6471 50.4209C39.1537 50.2733 39.6528 50.0966 40.1428 49.8886C41.7645 49.2021 43.2209 48.2204 44.4714 46.9704C45.7219 45.7203 46.7037 44.2634 47.3895 42.6415C47.9335 41.3559 48.2719 40.0089 48.4008 38.623C48.411 38.512 48.4202 38.4 48.4277 38.2879C48.4367 38.1596 48.4436 38.0303 48.4489 37.9021V37.901H49.222V37.9021C49.2201 37.9527 49.218 38.0034 49.2155 38.054H51.097C51.3275 38.7135 51.7393 39.3062 52.2859 39.7545C52.8022 40.1791 53.4214 40.4582 54.0744 40.5682C54.4392 40.7007 54.8323 40.7729 55.2424 40.7729C57.1349 40.7729 58.6745 39.233 58.6745 37.3406C58.6745 36.9322 58.6027 36.54 58.471 36.1757C58.4709 36.1757 58.4708 36.1757 58.4708 36.1747C58.241 34.7899 57.2626 33.653 55.9664 33.1982C55.9665 33.1982 55.9667 33.1982 55.9668 33.1982C56.706 33.3275 57.3794 33.6498 57.9327 34.1121C58.8577 34.8836 59.4471 36.0443 59.4471 37.3406C59.4471 39.6586 57.5608 41.5456 55.2424 41.5456C54.7488 41.5456 54.2649 41.4594 53.8039 41.2912C53.3591 41.1296 52.947 40.8936 52.5793 40.5919C52.3734 40.4238 52.1851 40.2362 52.0161 40.0337C51.7153 39.6726 51.476 39.2642 51.3099 38.8267H49.1573C49.0125 40.2449 48.6589 41.6242 48.1012 42.9433C47.3762 44.6567 46.3389 46.1955 45.0176 47.5167C43.8018 48.7323 42.4015 49.7086 40.8503 50.4209C40.7159 50.4824 40.5803 50.5427 40.4437 50.5998C39.8909 50.8337 39.3279 51.032 38.7556 51.1936ZM49.1408 35.7026H48.363C48.3478 35.5733 48.3304 35.4451 48.3112 35.3169C48.2255 34.7392 48.1026 34.1692 47.9429 33.6088C47.7634 32.8394 47.5176 32.085 47.2069 31.3501C47.1748 31.2747 47.1421 31.1992 47.1088 31.1238C47.0563 31.0052 47.0022 30.8889 46.9465 30.7714L47.4853 30.461C47.5407 30.5634 47.5953 30.6658 47.6485 30.7703L49.6362 29.6226C50.1347 30.0074 50.723 30.2628 51.3461 30.3673C51.3463 30.3673 51.3465 30.3673 51.3466 30.3673C51.7201 30.502 52.1156 30.572 52.5151 30.572C53.0969 30.572 53.6861 30.4233 54.2253 30.113C55.3398 29.4685 55.957 28.2907 55.9402 27.087C56.1831 26.9544 56.4354 26.8402 56.695 26.7454C56.8422 28.3306 56.0786 29.9341 54.6115 30.7811C53.9741 31.1497 53.249 31.3447 52.5151 31.3447C51.5358 31.3447 50.5926 31.0031 49.8461 30.3932L47.9959 31.4611L47.9836 31.4686C48.0237 31.5581 48.0631 31.6475 48.1012 31.738C48.5883 32.89 48.9192 34.0873 49.092 35.3169C49.1101 35.4451 49.1264 35.5733 49.1408 35.7026ZM55.9341 26.9243C55.9144 26.6042 55.8497 26.2841 55.7373 25.9738C55.6646 25.5341 55.5131 25.1009 55.2775 24.6925C54.8153 23.8918 54.0803 23.298 53.2285 22.9995C53.7012 23.0814 54.1588 23.2441 54.579 23.4812C54.7994 23.6052 55.0076 23.7496 55.2011 23.9101C55.5795 24.2259 55.9019 24.6074 56.1506 25.0373C56.3728 25.4231 56.527 25.8283 56.617 26.241L55.9341 26.9243Z" fill="#C7C6C4"/>
<path d="M54.0742 40.5681C53.4212 40.4582 52.802 40.1791 52.2857 39.7545C51.7391 39.3062 51.3274 38.7135 51.0969 38.054H51.8851C51.9978 38.5853 52.2342 39.0724 52.5623 39.4819C52.9533 39.97 53.4744 40.3504 54.0728 40.567C54.0734 40.567 54.0738 40.567 54.0742 40.5681ZM49.2218 37.901H48.4487C48.4562 37.7145 48.46 37.5281 48.46 37.3406C48.46 36.9096 48.4401 36.4817 48.4006 36.0582C48.3896 35.9386 48.3771 35.8211 48.3628 35.7026H49.1406C49.1464 35.7533 49.1518 35.8039 49.1571 35.8546H51.3097C51.5694 35.1713 52.0072 34.5582 52.5791 34.0883C52.9468 33.7866 53.3589 33.5517 53.8038 33.3889C54.2648 33.2208 54.7486 33.1357 55.2422 33.1357C55.4891 33.1357 55.731 33.1572 55.9662 33.1982C57.2624 33.653 58.2408 34.7899 58.4707 36.1746C58.2534 35.5754 57.8733 35.0528 57.384 34.6605C56.7968 34.1896 56.0516 33.9084 55.2422 33.9084C53.5943 33.9084 52.2144 35.0765 51.8851 36.6272H49.2153C49.2266 36.8643 49.2324 37.1014 49.2324 37.3406C49.2324 37.3988 49.232 37.457 49.2314 37.5152C49.23 37.6445 49.2266 37.7727 49.2218 37.901Z" fill="#DFDFDD"/>
<path d="M45.8465 28.8683C45.7733 28.7616 45.6985 28.656 45.6221 28.5515C45.1962 27.9685 44.7235 27.4167 44.206 26.8995C43.6886 26.3811 43.1368 25.9091 42.5535 25.4834C42.4492 25.4069 42.3437 25.3315 42.2372 25.2582L42.3515 25.061C42.4508 25.1214 42.5493 25.1839 42.6473 25.2464L42.7177 25.1246L43.9809 22.937C44.3228 23.0491 44.6779 23.1062 45.0364 23.1062C45.3346 23.1062 45.6346 23.0674 45.9303 22.9876C46.8158 22.7506 47.5557 22.1827 48.0143 21.3895C48.5395 20.4789 48.5995 19.4261 48.2684 18.5079C48.0865 17.4206 47.4392 16.4206 46.4127 15.8279C46.2051 15.7082 45.9877 15.608 45.7638 15.5294C46.2465 15.6134 46.7145 15.7837 47.1443 16.0315C47.3552 16.1533 47.5516 16.2912 47.7329 16.441C49.2767 17.7256 49.7209 19.9778 48.6832 21.7753C48.1218 22.7473 47.2151 23.4435 46.1302 23.7344C45.7718 23.8304 45.4037 23.8789 45.0364 23.8789C44.8101 23.8789 44.5846 23.8605 44.3612 23.8239L43.3366 25.5977L43.294 25.672L43.2863 25.685C43.7964 26.0557 44.283 26.4609 44.7447 26.8995C44.8368 26.9857 44.9276 27.0751 45.0176 27.1645C45.3821 27.5288 45.7252 27.9103 46.0457 28.3068C46.1277 28.4081 46.2081 28.5105 46.2869 28.614L45.8465 28.8683ZM40.3334 24.158C40.3334 24.158 40.3334 24.158 40.3333 24.158C40.2169 24.103 40.0992 24.0491 39.9809 23.9963C39.906 23.9629 39.8306 23.9306 39.7548 23.8982C39.2246 23.6741 38.685 23.4834 38.1362 23.3282C38.7783 23.478 39.4101 23.673 40.0291 23.9133C40.1501 23.9597 40.2708 24.0082 40.3908 24.0588H40.391L40.3334 24.158ZM41.5605 22.0329C41.2996 21.6471 41.1033 21.2193 40.9807 20.7613C40.9484 20.6406 40.9216 20.5199 40.9001 20.3981C41.0772 20.9046 41.3567 21.3647 41.7226 21.7527L41.5605 22.0329Z" fill="#C7C6C4"/>
<path d="M46.9462 30.7714C46.6295 30.1075 46.2619 29.4717 45.8463 28.8683H45.8462L46.2866 28.6139C46.358 28.7066 46.428 28.8015 46.4969 28.8963L46.51 28.8877L48.3604 27.8197C48.2433 27.0977 48.3162 26.3477 48.5767 25.6558C48.7444 25.2108 48.9836 24.8002 49.2877 24.437C49.6026 24.0609 49.979 23.7452 50.4066 23.4984C51.0441 23.131 51.7691 22.9359 52.5033 22.9359C52.7465 22.9359 52.9889 22.9575 53.2275 22.9995C53.2278 22.9995 53.228 22.9995 53.2282 22.9995C54.0801 23.298 54.815 23.8918 55.2772 24.6924C55.5128 25.1009 55.6643 25.5341 55.737 25.9737C55.6693 25.7862 55.5842 25.603 55.4811 25.4242C55.2608 25.0427 54.9779 24.7194 54.6526 24.4597C54.0404 23.9715 53.2782 23.7086 52.5033 23.7086C51.9212 23.7086 51.3321 23.8562 50.793 24.1676C49.3658 24.992 48.7544 26.6925 49.2451 28.2012L46.935 29.5342C47.0598 29.7282 47.1801 29.9243 47.2957 30.1237C47.3603 30.2358 47.4234 30.3478 47.4849 30.461H47.485L46.9462 30.7714ZM51.3458 30.3673C50.7227 30.2627 50.1344 30.0073 49.6359 29.6226L49.9582 29.4362C50.3433 29.864 50.8227 30.1787 51.3458 30.3673Z" fill="#91CEEE"/>
<path d="M42.2368 25.2582C41.6334 24.8433 40.9977 24.4758 40.333 24.1579L40.3906 24.0588C40.4082 24.0663 40.4258 24.0728 40.4432 24.0814C40.5337 24.1191 40.6236 24.1579 40.7132 24.1989L40.7203 24.1859L40.8404 23.978L41.7876 22.3378C41.7072 22.2397 41.6311 22.1374 41.5601 22.0328L41.7222 21.7526C41.3563 21.3647 41.0768 20.9045 40.8997 20.3981C40.7276 19.426 40.9012 18.4346 41.4002 17.5704C41.9619 16.5983 42.8685 15.9022 43.9534 15.6112C44.3116 15.5153 44.6797 15.4668 45.0471 15.4668C45.2872 15.4668 45.5264 15.4884 45.7624 15.5293C45.7628 15.5293 45.7631 15.5293 45.7634 15.5293C45.9873 15.608 46.2047 15.7082 46.4123 15.8278C47.4388 16.4205 48.0861 17.4206 48.268 18.5079C48.2677 18.5068 48.2675 18.5068 48.2673 18.5057C48.0574 17.9238 47.6898 17.3947 47.1839 16.9917C47.0514 16.885 46.9089 16.788 46.7575 16.7007C46.2289 16.3957 45.6417 16.2395 45.0471 16.2395C44.7489 16.2395 44.4488 16.2783 44.1533 16.358C43.2676 16.5951 42.5277 17.163 42.0694 17.9572C41.6109 18.7504 41.4891 19.676 41.7265 20.5608C41.9009 21.2127 42.2549 21.7839 42.7453 22.2236L41.5194 24.3476L41.4881 24.4015L41.412 24.534C41.7322 24.6978 42.0451 24.8735 42.3511 25.061L42.2368 25.2582Z" fill="#DFDFDD"/>
<path d="M24.9457 46.6976C24.8537 46.6103 24.7626 46.522 24.6729 46.4315C24.7624 46.5209 24.8529 46.6093 24.9446 46.6966C24.945 46.6966 24.9454 46.6966 24.9457 46.6976Z" fill="#C7C6C4"/>
<path d="M11.3391 40.1758C11.307 40.1413 11.2756 40.1057 11.2446 40.0691C11.3702 40.0034 11.4931 39.9322 11.6135 39.8568C11.6221 39.8633 11.6309 39.8697 11.6395 39.8762L11.3391 40.1758Z" fill="#DFDFDD"/>
<path d="M14.4408 41.5455C13.2142 41.5455 12.1083 41.0175 11.3392 40.1759L11.6396 39.8763C12.1138 40.2265 12.6714 40.469 13.2768 40.5692C13.6404 40.7007 14.0323 40.7729 14.4408 40.7729C16.0886 40.7729 17.4686 39.6047 17.7978 38.054H20.3532C20.3598 38.1316 20.3673 38.2103 20.3754 38.2879C20.3944 38.4678 20.4169 38.6478 20.443 38.8267H18.3733C18.1135 39.5099 17.6757 40.1231 17.1038 40.5918C16.736 40.8936 16.3239 41.1296 15.8792 41.2912C15.4184 41.4593 14.9344 41.5455 14.4408 41.5455ZM11.2447 40.0692C11.2337 40.0562 11.2227 40.0433 11.212 40.0304C10.7498 39.4776 10.4272 38.804 10.2983 38.0648C10.5513 38.7846 11.0143 39.4064 11.6136 39.8569C11.4932 39.9323 11.3703 40.0034 11.2447 40.0692ZM18.3118 35.7026H17.5586C17.3407 34.9817 16.9085 34.3319 16.3203 33.8491C15.9724 33.5635 15.5778 33.3437 15.1576 33.1971C15.4031 33.2392 15.6443 33.3038 15.8792 33.3889C16.3239 33.5517 16.736 33.7866 17.1038 34.0883L17.129 34.1099C17.5349 34.4482 17.8719 34.8588 18.124 35.3168C18.1933 35.4418 18.256 35.5711 18.3118 35.7026Z" fill="#C7C6C4"/>
<path d="M13.2767 40.5692C12.6713 40.469 12.1137 40.2265 11.6395 39.8763C11.6308 39.8698 11.6221 39.8634 11.6135 39.8569C11.0142 39.4064 10.5512 38.7847 10.2982 38.0648C10.2574 37.8299 10.2358 37.5874 10.2358 37.3406C10.2358 35.0226 12.1221 33.1357 14.4407 33.1357C14.6823 33.1357 14.9216 33.1562 15.1571 33.1971C15.1572 33.1971 15.1574 33.1971 15.1575 33.1971C15.5777 33.3437 15.9723 33.5635 16.3202 33.8491C16.9084 34.3319 17.3406 34.9817 17.5585 35.7026H18.3117C18.3333 35.7533 18.3537 35.8039 18.3731 35.8546H20.3295C20.3122 36.1111 20.3022 36.3686 20.2993 36.6272H17.7977C17.7585 36.4419 17.704 36.2619 17.6357 36.0884C17.4144 35.5248 17.0474 35.0334 16.5818 34.6606C15.9945 34.1896 15.25 33.9084 14.4407 33.9084C12.5481 33.9084 11.0084 35.4483 11.0084 37.3406C11.0084 38.1499 11.2901 38.8946 11.7605 39.4819C12.1524 39.9711 12.6754 40.3515 13.2759 40.5692C13.2762 40.5692 13.2765 40.5692 13.2767 40.5692Z" fill="#DFDFDD"/>
<path d="M20.7439 35.5194C20.8725 34.1335 21.2111 32.7865 21.7551 31.5009C21.8045 31.3834 21.8555 31.2681 21.9082 31.1528C22.2695 30.3597 22.7039 29.6075 23.2072 28.9027C23.6442 28.2895 24.134 27.7119 24.6732 27.172C25.2125 26.6321 25.7906 26.1429 26.4036 25.7054C27.1085 25.2032 27.8599 24.7689 28.6529 24.4079C28.7685 24.3551 28.8846 24.3034 29.0019 24.2538C30.287 23.7107 31.6331 23.3712 33.0181 23.243C33.443 23.2031 33.8715 23.1837 34.3031 23.1837C34.7347 23.1837 35.163 23.2031 35.588 23.243C36.973 23.3712 38.3191 23.7107 39.6043 24.2538C39.7214 24.3034 39.8377 24.3551 39.9532 24.4079C40.7462 24.7689 41.4977 25.2032 42.2025 25.7054C42.8154 26.1429 43.3935 26.6321 43.9329 27.172C44.0001 27.2389 44.0666 27.3067 44.1323 27.3757C44.0665 27.3067 44 27.2389 43.9329 27.172C43.3935 26.6321 42.8154 26.1429 42.2025 25.7054C41.4977 25.2032 40.7462 24.7689 39.9532 24.4079C39.8377 24.3551 39.7214 24.3034 39.6043 24.2538C38.3191 23.7107 36.973 23.3712 35.588 23.243C35.163 23.2031 34.7347 23.1837 34.3031 23.1837C33.8715 23.1837 33.443 23.2031 33.0181 23.243C31.6331 23.3712 30.287 23.7107 29.0019 24.2538C28.8846 24.3034 28.7685 24.3551 28.6529 24.4079C27.8599 24.7689 27.1085 25.2032 26.4036 25.7054C25.7906 26.1429 25.2125 26.6321 24.6732 27.172C24.134 27.7119 23.6442 28.2895 23.2072 28.9027C22.7039 29.6075 22.2695 30.3597 21.9082 31.1528C21.8555 31.2681 21.8045 31.3834 21.7551 31.5009C21.2111 32.7865 20.8725 34.1335 20.7439 35.5194ZM17.1682 31.3446C16.4342 31.3446 15.7091 31.1496 15.0715 30.781C14.6308 30.5267 14.2535 30.2045 13.9455 29.8338H13.9451C13.4709 29.2637 13.1604 28.5827 13.0342 27.866C13.3256 28.698 13.9044 29.434 14.7263 29.9081C15.1231 30.1377 15.5572 30.2929 16.0056 30.3672C16.0057 30.3672 16.0059 30.3672 16.006 30.3672C16.3852 30.5052 16.7783 30.572 17.1682 30.572C18.0633 30.572 18.9405 30.2207 19.5902 29.5773C19.5903 29.5773 19.5903 29.5773 19.5903 29.5773L21.6595 30.7713C21.6039 30.8888 21.5498 31.0052 21.4974 31.1237C21.4704 31.1851 21.4441 31.2455 21.4183 31.3058L21.0812 31.1119L19.8369 30.3931C19.0906 31.003 18.1472 31.3446 17.1682 31.3446ZM22.7596 28.8682L20.5737 27.6063C20.6489 27.0513 20.5864 26.491 20.3993 25.9726C20.3585 25.728 20.2941 25.4866 20.206 25.2539C19.896 24.4305 19.306 23.7344 18.5445 23.2947C18.3389 23.1762 18.1232 23.077 17.9008 22.9994C18.3827 23.0835 18.8491 23.2527 19.2761 23.4984C19.485 23.6191 19.6815 23.7559 19.8646 23.909C20.0567 24.0685 20.2339 24.2452 20.395 24.437C20.6992 24.8002 20.9384 25.2107 21.1061 25.6558C21.3414 26.2808 21.4236 26.9522 21.3512 27.6085C21.3433 27.6796 21.3337 27.7497 21.3225 27.8197L22.5319 28.518L22.8684 28.712C22.8316 28.7637 22.7955 28.8154 22.7596 28.8682Z" fill="#C7C6C4"/>
<path d="M21.6592 30.7714L19.5899 29.5773C19.6358 29.531 19.6808 29.4847 19.7243 29.4362L21.4066 30.4082L21.7422 30.6011C21.7139 30.6582 21.6865 30.7153 21.6592 30.7714ZM16.0053 30.3673C15.5569 30.2929 15.1227 30.1377 14.7259 29.9082C13.904 29.434 13.3252 28.698 13.0338 27.8661C12.8684 26.9264 13.0192 25.9263 13.5322 25.0373C13.9078 24.3875 14.4513 23.8487 15.1039 23.4812C15.7361 23.1245 16.4537 22.9359 17.1793 22.9359C17.4215 22.9359 17.6627 22.9575 17.9001 22.9995C17.9002 22.9995 17.9003 22.9995 17.9004 22.9995C18.1228 23.0771 18.3386 23.1762 18.5442 23.2948C19.3056 23.7344 19.8956 24.4306 20.2057 25.2539C20.2937 25.4867 20.3582 25.728 20.3989 25.9727C20.3989 25.9716 20.3988 25.9716 20.3988 25.9716C20.1888 25.3897 19.8212 24.8616 19.3156 24.4575C19.1829 24.3519 19.0407 24.2549 18.8896 24.1676C18.3506 23.8562 17.7612 23.7086 17.1793 23.7086C15.9923 23.7086 14.8364 24.3239 14.2014 25.4242C13.4753 26.6817 13.6381 28.212 14.4931 29.2842C14.7525 29.6086 15.0758 29.892 15.4575 30.1129C15.6353 30.2153 15.8185 30.2994 16.0053 30.3673ZM22.4381 29.3564L22.1492 29.1894L22.103 29.1625L20.4374 28.2012C20.4584 28.1366 20.4775 28.0719 20.4944 28.0062C20.5291 27.8736 20.5554 27.74 20.5734 27.6064L22.7592 28.8683C22.6488 29.0288 22.5417 29.1916 22.4381 29.3564Z" fill="#91CEEE"/>
<path d="M26.2131 25.3669L26.019 25.0307L25.3208 23.8216C25.251 23.8335 25.1807 23.8432 25.1102 23.8507C24.9565 23.868 24.8017 23.8766 24.6467 23.8766C23.9211 23.8766 23.2032 23.688 22.5712 23.3324C22.1277 23.0813 21.7345 22.7526 21.4102 22.3636C21.2574 22.1804 21.1199 21.9832 20.9995 21.7752C20.7517 21.3463 20.5838 20.8851 20.4995 20.4012C20.5774 20.6221 20.6762 20.8366 20.7956 21.0435C21.3684 22.036 22.36 22.7106 23.474 22.8992C23.4742 22.8992 23.4744 22.8992 23.4746 22.8992C23.8492 23.0339 24.2462 23.1039 24.6467 23.1039C24.7998 23.1039 24.9535 23.0942 25.1067 23.0727L26.3686 25.2581C26.3164 25.2947 26.2646 25.3303 26.2131 25.3669ZM28.2725 24.1578L27.0782 22.0899C27.0782 22.0899 27.0782 22.0899 27.0783 22.0899C27.4957 21.6707 27.7987 21.148 27.956 20.5607C28.1396 19.8753 28.1083 19.1662 27.8718 18.5121H27.8717C27.7977 18.0649 27.6427 17.6295 27.4092 17.2254C26.9478 16.4258 26.2299 15.8331 25.3678 15.5314C25.3679 15.5314 25.368 15.5314 25.368 15.5314C25.4892 15.5529 25.6096 15.5799 25.7292 15.6111C26.3256 15.7717 26.8683 16.053 27.3293 16.4366C27.7068 16.7513 28.0295 17.1328 28.2823 17.5703C28.8437 18.5434 28.9931 19.676 28.7021 20.7611C28.5462 21.3431 28.2711 21.8786 27.895 22.3377L28.6124 23.5802L28.8068 23.9175C28.7459 23.9423 28.6853 23.9693 28.6249 23.9962C28.5065 24.049 28.389 24.1029 28.2725 24.1578Z" fill="#C7C6C4"/>
<path d="M26.3685 25.2582L25.1066 23.0727C25.1067 23.0727 25.1067 23.0727 25.1068 23.0727C25.2408 23.0544 25.3744 23.0286 25.5067 22.9941C25.572 22.9768 25.6368 22.9574 25.7016 22.937L26.6632 24.603L26.6899 24.6482L26.8567 24.937C26.6918 25.0405 26.5289 25.1483 26.3685 25.2582ZM28.1014 24.2409L27.9079 23.9058L26.9371 22.2236C26.9854 22.1805 27.0324 22.1363 27.0781 22.0899L28.2724 24.1579C28.2151 24.1859 28.1583 24.2129 28.1014 24.2409ZM23.4739 22.8992C22.3599 22.7107 21.3683 22.0361 20.7955 21.0436C20.6761 20.8367 20.5773 20.6222 20.4994 20.4013C20.4874 20.3323 20.4771 20.2623 20.4684 20.1922C20.4019 19.6534 20.4396 19.1124 20.581 18.5855C20.7221 18.0574 20.96 17.5704 21.2871 17.1371C21.6266 16.6867 22.0475 16.3149 22.5384 16.0315C23.1783 15.6619 23.903 15.4668 24.6346 15.4668C24.6348 15.4668 24.635 15.4668 24.6352 15.4668C24.8801 15.4668 25.1255 15.4884 25.3677 15.5315C26.2298 15.8332 26.9477 16.4259 27.4091 17.2255C27.6426 17.6296 27.7975 18.065 27.8716 18.5122C27.8027 18.3215 27.7164 18.1361 27.6128 17.9572C27.3946 17.5779 27.1121 17.2514 26.7803 16.9874C26.416 16.6964 25.9924 16.4819 25.5291 16.358C25.2334 16.2783 24.9332 16.2395 24.6352 16.2395C24.6348 16.2395 24.6344 16.2395 24.6339 16.2395C24.0395 16.2395 23.4531 16.3957 22.9247 16.7007C21.8248 17.3354 21.2093 18.4917 21.2093 19.6782C21.2093 20.2601 21.3571 20.8496 21.6685 21.3895C21.756 21.5403 21.853 21.6826 21.959 21.8151C22.3625 22.3216 22.8911 22.6891 23.4739 22.8992Z" fill="#DFDFDD"/>
<path d="M36.327 22.9424C36.1484 22.9165 35.9686 22.8939 35.7884 22.8745C35.7106 22.8669 35.6325 22.8583 35.5544 22.8519V20.2968C37.1058 19.967 38.2735 18.5877 38.2735 16.94C38.2735 16.5316 38.2017 16.1393 38.07 15.7761C37.8408 14.3903 36.8624 13.2534 35.5663 12.7976C36.3049 12.9269 36.9779 13.2491 37.5312 13.7103C38.4564 14.4819 39.046 15.6436 39.046 16.94C39.046 17.4335 38.9608 17.9174 38.7924 18.3775C38.63 18.8226 38.3948 19.2353 38.093 19.6028C37.6239 20.175 37.0111 20.6125 36.327 20.8723V22.9424ZM33.2035 20.8108C33.0715 20.7548 32.9427 20.6923 32.8173 20.6233C32.3598 20.3712 31.9485 20.0339 31.6102 19.6276L31.5898 19.6028C31.2881 19.2353 31.0528 18.8226 30.8904 18.3775C30.8046 18.1437 30.7403 17.9023 30.6982 17.6577C30.8449 18.0769 31.0646 18.4713 31.3499 18.8194C31.8326 19.4077 32.4823 19.8399 33.2035 20.0576V20.8108Z" fill="#C7C6C4"/>
<path d="M33.3558 22.8281V20.8722C33.3046 20.8528 33.2539 20.8323 33.2036 20.8108C33.2035 20.8108 33.2035 20.8108 33.2035 20.8108V20.0575C32.4823 19.8399 31.8326 19.4077 31.3499 18.8193C31.0646 18.4713 30.8449 18.0768 30.6983 17.6576C30.6981 17.6576 30.6981 17.6566 30.698 17.6566C30.6573 17.4216 30.6367 17.1813 30.6367 16.9399C30.6367 14.6209 32.5229 12.735 34.8414 12.735C35.0883 12.735 35.3306 12.7566 35.5659 12.7975C35.5661 12.7975 35.5662 12.7975 35.5663 12.7975C36.8624 13.2534 37.8408 14.3903 38.07 15.7761C38.07 15.775 38.0699 15.775 38.0698 15.775C37.8529 15.1748 37.4727 14.6521 36.9832 14.2599C36.3959 13.7889 35.6508 13.5077 34.8414 13.5077C32.9488 13.5077 31.4094 15.0465 31.4094 16.9399C31.4094 17.7492 31.6911 18.4939 32.1616 19.0812C32.5343 19.5467 33.0258 19.9131 33.59 20.1351C33.7629 20.203 33.943 20.2569 34.1284 20.2968V22.798C33.8696 22.8012 33.6122 22.812 33.3558 22.8281Z" fill="#91CEEE"/>
<path d="M31.1082 50.4414C31.0789 50.4349 31.0494 50.4274 31.0199 50.4209C30.2814 50.2431 29.5574 50.005 28.8512 49.7065C27.1833 49.0006 25.6858 47.9909 24.3999 46.7053C23.1142 45.4196 22.1045 43.9217 21.3991 42.2536C21.1748 41.7234 20.9845 41.1835 20.8284 40.6339C20.6892 40.0401 20.5881 39.4366 20.5257 38.8267H20.4429C20.4168 38.6478 20.3943 38.4678 20.3753 38.2879C20.3672 38.2103 20.3597 38.1316 20.3531 38.054H20.4674C20.4561 37.8169 20.4503 37.5788 20.4503 37.3406C20.4503 37.1014 20.4561 36.8643 20.4674 36.6272H20.2993C20.3022 36.3686 20.3122 36.1111 20.3295 35.8546H20.5257C20.544 35.6746 20.5658 35.4957 20.591 35.3168C20.7638 34.0873 21.0946 32.89 21.5818 31.738C21.6201 31.6475 21.6592 31.5581 21.6992 31.4686L21.6869 31.4611L21.4181 31.3059C21.444 31.2456 21.4703 31.1852 21.4972 31.1238C21.5497 31.0052 21.6038 30.8889 21.6594 30.7714C21.6867 30.7154 21.7141 30.6582 21.7424 30.6011L21.7708 30.6173L22.0343 30.7703C22.2519 30.3457 22.4899 29.9341 22.7477 29.5343L22.4839 29.3823L22.4383 29.3565C22.5419 29.1916 22.649 29.0289 22.7594 28.8683C22.7953 28.8155 22.8314 28.7638 22.8683 28.712L23.1726 28.8877L23.1859 28.8952C23.2238 28.8435 23.262 28.7918 23.3011 28.7401C23.7149 28.1851 24.1701 27.6603 24.6653 27.1646C25.1609 26.6688 25.6873 26.213 26.242 25.7992C26.2934 25.7604 26.3449 25.7227 26.3968 25.685L26.389 25.672L26.2133 25.3671C26.2648 25.3304 26.3165 25.2949 26.3688 25.2582C26.5291 25.1483 26.692 25.0406 26.8569 24.9371L26.8832 24.9834L27.0356 25.2464C27.4344 24.9888 27.8464 24.7517 28.2706 24.5341L28.1183 24.27L28.1017 24.2409C28.1586 24.2129 28.2154 24.186 28.2726 24.158C28.3891 24.103 28.5067 24.0491 28.625 23.9963C28.6854 23.9694 28.746 23.9424 28.8069 23.9177L28.9622 24.186L28.9693 24.1989C29.059 24.158 29.1489 24.1192 29.2393 24.0815C30.3906 23.5933 31.5878 23.2625 32.8173 23.09C32.9962 23.0652 33.1756 23.0437 33.3558 23.0243V22.8282C33.6122 22.812 33.8696 22.8012 34.1283 22.798V22.9661C34.3651 22.9553 34.6027 22.9499 34.8414 22.9499C35.08 22.9499 35.3176 22.9553 35.5544 22.9661V22.8519C35.6325 22.8583 35.7106 22.867 35.7884 22.8745C35.9686 22.8939 36.1484 22.9165 36.327 22.9424V23.0243C36.9377 23.0868 37.5413 23.1881 38.1361 23.3282C38.6848 23.4834 39.2245 23.6741 39.7547 23.8983C39.8304 23.9306 39.9059 23.9629 39.9808 23.9963C40.0991 24.0491 40.2168 24.103 40.3331 24.158C40.3332 24.158 40.3332 24.158 40.3332 24.158C40.9979 24.4759 41.6336 24.8433 42.237 25.2582C42.3436 25.3315 42.4491 25.4069 42.5534 25.4835C43.1366 25.9091 43.6885 26.3811 44.2058 26.8995C44.7233 27.4167 45.1961 27.9685 45.6219 28.5515C45.6983 28.656 45.7731 28.7616 45.8463 28.8683H45.8464C46.2621 29.4718 46.6296 30.1076 46.9463 30.7714C47.0021 30.8889 47.0562 31.0052 47.1086 31.1238C47.1419 31.1992 47.1746 31.2746 47.2067 31.3501C47.5174 32.085 47.7632 32.8394 47.9427 33.6088C47.7913 33.0775 47.6069 32.5527 47.3894 32.0398C47.34 31.9223 47.289 31.8059 47.2363 31.6917C47.1593 31.5225 47.0789 31.3544 46.9952 31.1895C46.6865 30.5796 46.3333 29.9955 45.9373 29.4405C45.7564 29.1873 45.5665 28.9394 45.3676 28.698C45.0864 28.3564 44.7873 28.0267 44.4712 27.7109C44.3813 27.6204 44.2904 27.532 44.1982 27.4447C44.1763 27.4221 44.1542 27.3984 44.1321 27.3758C44.0665 27.3068 44 27.2389 43.9327 27.1721C43.3934 26.6322 42.8152 26.143 42.2024 25.7054C41.4975 25.2033 40.7461 24.769 39.9531 24.408C39.8375 24.3552 39.7213 24.3034 39.6041 24.2539C38.3189 23.7107 36.9729 23.3713 35.5879 23.2431C35.1629 23.2032 34.7345 23.1838 34.3029 23.1838C33.8713 23.1838 33.4429 23.2032 33.018 23.2431C31.633 23.3713 30.2868 23.7107 29.0017 24.2539C28.8845 24.3034 28.7683 24.3552 28.6528 24.408C27.8598 24.769 27.1083 25.2033 26.4035 25.7054C25.7905 26.143 25.2123 26.6322 24.6731 27.1721C24.1339 27.712 23.6441 28.2896 23.2071 28.9028C22.7037 29.6076 22.2693 30.3597 21.908 31.1529C21.8553 31.2682 21.8043 31.3835 21.755 31.5009C21.211 32.7866 20.8724 34.1336 20.7437 35.5194C20.7042 35.943 20.6844 36.3708 20.6844 36.8018C20.6844 37.2329 20.7042 37.6607 20.7437 38.0853C20.8724 39.4711 21.211 40.8171 21.755 42.1027C22.4408 43.7245 23.4226 45.1815 24.6731 46.4315C24.7629 46.5221 24.8539 46.6104 24.946 46.6977C25.033 46.7893 25.1216 46.8809 25.2116 46.9704C26.4621 48.2204 27.9185 49.2021 29.5402 49.8886C30.0303 50.0966 30.5293 50.2733 31.0358 50.4209C31.0601 50.4274 31.084 50.4349 31.1082 50.4414Z" fill="#91CEEE"/>
<path d="M24.9451 46.6967C24.8534 46.6094 24.7629 46.521 24.6733 46.4316C23.4228 45.1815 22.441 43.7245 21.7552 42.1027C21.2112 40.8171 20.8726 39.4711 20.7439 38.0853C20.7044 37.6607 20.6846 37.2329 20.6846 36.8018C20.6846 36.3708 20.7044 35.943 20.7439 35.5195C20.8726 34.1336 21.2112 32.7866 21.7552 31.501C21.8046 31.3835 21.8555 31.2682 21.9082 31.1529C22.2696 30.3598 22.7039 29.6076 23.2073 28.9028C23.6443 28.2896 24.1341 27.712 24.6733 27.1721C25.2126 26.6322 25.7907 26.143 26.4037 25.7055C27.1085 25.2033 27.86 24.769 28.653 24.408C28.7685 24.3552 28.8847 24.3035 29.0019 24.2539C30.287 23.7108 31.6332 23.3713 33.0182 23.2431C33.4431 23.2032 33.8715 23.1838 34.3031 23.1838C34.7347 23.1838 35.1631 23.2032 35.5881 23.2431C36.9731 23.3713 38.3192 23.7108 39.6043 24.2539C39.7215 24.3035 39.8377 24.3552 39.9533 24.408C40.7463 24.769 41.4977 25.2033 42.2026 25.7055C42.8155 26.143 43.3936 26.6322 43.933 27.1721C44.0001 27.2389 44.0666 27.3068 44.1323 27.3758C44.1544 27.3984 44.1765 27.4221 44.1984 27.4448C44.1977 27.4448 44.1971 27.4437 44.1964 27.4437C43.7368 27.0083 43.2509 26.6085 42.7411 26.2443C42.0362 25.741 41.2847 25.3078 40.4917 24.9457C40.3762 24.8929 40.2601 24.8423 40.1428 24.7927C38.8576 24.2485 37.5116 23.9101 36.1265 23.7819C35.7017 23.742 35.2732 23.7215 34.8416 23.7215C34.41 23.7215 33.9815 23.742 33.5567 23.7819C32.1717 23.9101 30.8256 24.2485 29.5404 24.7927C29.4233 24.8423 29.307 24.8929 29.1915 24.9457C28.3985 25.3078 27.647 25.741 26.9422 26.2443C26.3293 26.6818 25.7512 27.171 25.2118 27.7109C24.6725 28.2508 24.1828 28.8284 23.7458 29.4405C23.2423 30.1464 22.8082 30.8986 22.4466 31.6917C22.394 31.8059 22.343 31.9223 22.2936 32.0398C21.7498 33.3254 21.4112 34.6724 21.2824 36.0583C21.2429 36.4818 21.2231 36.9096 21.2231 37.3407C21.2231 37.7717 21.2429 38.1995 21.2824 38.623C21.4112 40.0089 21.7498 41.3559 22.2936 42.6415C22.9301 44.1459 23.821 45.5091 24.9451 46.6967Z" fill="#91CEEE"/>
<path d="M34.3027 12.9688C35.3862 12.9688 36.3538 13.4731 36.983 14.2598C37.4533 14.8471 37.7348 15.5917 37.7348 16.401C37.7348 18.0487 36.5672 19.4292 35.0158 19.7579V22.4703H33.5897V19.7579C33.0579 19.6458 32.5711 19.4087 32.1613 19.0811C31.3749 18.4518 30.8707 17.4841 30.8707 16.401C30.8707 14.5087 32.4102 12.9688 34.3027 12.9688ZM37.531 13.7102C36.7592 12.7856 35.5985 12.1961 34.3027 12.1961C31.9842 12.1961 30.0981 14.0831 30.0981 16.401C30.0981 16.8946 30.1833 17.3784 30.3516 17.8397C30.5141 18.2847 30.7494 18.6964 31.0511 19.0639C31.2197 19.2697 31.4074 19.4583 31.6101 19.6275C31.9706 19.9281 32.3793 20.1674 32.8171 20.3333V23.2429H33.0178C33.4427 23.203 33.8711 23.1837 34.3027 23.1837C34.7343 23.1837 35.1628 23.203 35.5877 23.2429H35.7884V20.3333C36.4723 20.0736 37.0852 19.6361 37.5544 19.0639C37.856 18.6964 38.0914 18.2847 38.2538 17.8397C38.4221 17.3784 38.5073 16.8946 38.5073 16.401C38.5073 15.3784 38.1405 14.4397 37.531 13.7102Z" fill="#2E2D2D"/>
<path d="M25.1634 22.3981C24.8175 22.5102 24.4617 22.5662 24.1084 22.5662C23.3333 22.5662 22.5716 22.3033 21.9594 21.8151C21.6339 21.5554 21.3506 21.2321 21.1303 20.8507C20.819 20.3118 20.6711 19.7224 20.6711 19.1404C20.6711 17.9529 21.2867 16.7966 22.3866 16.1619C22.9154 15.8569 23.5023 15.7006 24.0971 15.7006C24.3951 15.7006 24.6953 15.7405 24.991 15.8192C25.7066 16.011 26.3273 16.4184 26.7806 16.9873C26.8886 17.122 26.9869 17.2664 27.0748 17.4184C27.5334 18.2126 27.655 19.1372 27.4176 20.023C27.2434 20.6739 26.8894 21.2461 26.3989 21.6858L27.7321 23.9952L27.7547 24.034L26.6902 24.6482L26.5196 24.7474L26.4972 24.7086L25.5071 22.993L25.1634 22.3981ZM28.6251 23.9963L28.431 23.66L28.4239 23.6471L27.3566 21.799C27.7327 21.3399 28.008 20.8043 28.1639 20.2224C28.4547 19.1383 28.3055 18.0046 27.744 17.0315C27.6216 16.8203 27.483 16.6209 27.3296 16.4367C26.779 15.775 26.0393 15.3008 25.1908 15.0735C24.8325 14.9765 24.4645 14.928 24.0971 14.928C23.3653 14.928 22.6404 15.1241 22.0004 15.4927C21.5095 15.7761 21.0885 16.1479 20.749 16.5983C20.4219 17.0315 20.184 17.5197 20.0429 18.0467C19.9015 18.5736 19.8637 19.1146 19.9303 19.6545C19.9992 20.2138 20.178 20.7461 20.4613 21.2364C20.71 21.6675 21.0319 22.049 21.4105 22.3636C21.6041 22.5253 21.8122 22.6686 22.0329 22.7936C22.6649 23.1503 23.3828 23.3378 24.1084 23.3378C24.3345 23.3378 24.5599 23.3195 24.7826 23.2839L25.1104 23.8508L25.8506 25.1332L25.8584 25.1461L26.0525 25.4834L26.2369 25.8024L26.2421 25.7991L26.4036 25.7065C27.1085 25.2032 27.8599 24.7689 28.6529 24.4079L28.8101 24.3163L28.6251 23.9963Z" fill="#2E2D2D"/>
<path d="M19.1862 28.8973C18.526 29.6312 17.588 30.0332 16.6296 30.0332C16.0478 30.0332 15.4585 29.8855 14.9194 29.5741C14.7682 29.4868 14.6261 29.3898 14.4934 29.2842C13.1892 28.2432 12.8042 26.3735 13.6633 24.8853C14.2982 23.7861 15.4541 23.1708 16.6411 23.1708C17.223 23.1708 17.8125 23.3184 18.3514 23.6288C18.7331 23.8497 19.0563 24.1331 19.3159 24.4575C20.0266 25.3498 20.2588 26.5578 19.8992 27.6624L20.4947 28.0061L22.2093 28.9965L22.248 29.018L22.1495 29.1894L21.5348 30.2541L21.496 30.2315L19.1862 28.8973ZM22.9841 28.5514L22.6475 28.3575L22.6344 28.3499L21.3512 27.6085L20.784 27.2809C20.9011 26.5589 20.8281 25.8099 20.5676 25.117C20.4014 24.6763 20.1649 24.2689 19.8645 23.909L19.8567 23.8993C19.5418 23.5232 19.1654 23.2074 18.7377 22.9607C18.1002 22.5921 17.3753 22.3981 16.6411 22.3981C15.9155 22.3981 15.198 22.5857 14.5657 22.9424C13.9132 23.3109 13.3696 23.8486 12.9941 24.4995C11.9565 26.2959 12.4009 28.5493 13.9451 29.8338H13.9455C14.1266 29.9847 14.3226 30.1215 14.5331 30.2433C15.1706 30.6108 15.8957 30.8058 16.6296 30.8058C17.6087 30.8058 18.5521 30.4642 19.2986 29.8543L21.1485 30.9233L21.1608 30.9298L21.4974 31.1237L21.8176 31.3091L21.908 31.1528C22.2695 30.3597 22.7039 29.6075 23.2072 28.9027L23.3012 28.74L23.3034 28.7357L22.9841 28.5514Z" fill="#2E2D2D"/>
<path d="M11.7604 39.4819C10.974 38.8525 10.4698 37.8848 10.4698 36.8018C10.4698 34.9095 12.0095 33.3695 13.9021 33.3695C14.9851 33.3695 15.9525 33.8739 16.5818 34.6605C16.9099 35.0711 17.1462 35.5571 17.2591 36.0895H19.9711V37.5152H17.2591C16.9299 39.0659 15.5499 40.2341 13.9021 40.2341C13.0928 40.2341 12.3479 39.9528 11.7604 39.4819ZM20.7436 35.3168H17.8346C17.6684 34.8782 17.4293 34.4698 17.1288 34.1099C16.9598 33.9073 16.7709 33.7198 16.5651 33.5506C16.1974 33.2488 15.7852 33.0128 15.3405 32.8512C14.8797 32.6831 14.3956 32.5969 13.9021 32.5969C11.5836 32.5969 9.69727 34.4838 9.69727 36.8018C9.69727 38.0982 10.2867 39.2588 11.2117 40.0304C11.9412 40.6403 12.8796 41.0067 13.9021 41.0067C14.3956 41.0067 14.8797 40.9216 15.3405 40.7535C15.7852 40.5907 16.1974 40.3558 16.5651 40.0541C17.137 39.5842 17.5749 38.9721 17.8346 38.2879H20.7436V38.0853C20.7041 37.6607 20.6843 37.2328 20.6843 36.8018C20.6843 36.3707 20.7041 35.9429 20.7436 35.5194V35.3168Z" fill="#2E2D2D"/>
<path d="M52.5626 39.4819C52.097 39.109 51.7301 38.6176 51.5088 38.054C51.4405 37.8805 51.3863 37.7005 51.3468 37.5152H48.6349V36.0895H51.3468C51.676 34.5377 53.056 33.3695 54.7039 33.3695C55.7869 33.3695 56.7545 33.8739 57.3842 34.6605C57.8544 35.2479 58.1361 35.9925 58.1361 36.8018C58.1361 38.6941 56.5964 40.2341 54.7039 40.2341C53.8946 40.2341 53.1499 39.9528 52.5626 39.4819ZM57.9327 34.112C57.161 33.1863 55.9998 32.5969 54.7039 32.5969C54.2102 32.5969 53.7265 32.6831 53.2654 32.8512C52.8207 33.0128 52.4085 33.2488 52.0408 33.5506C51.4689 34.0194 51.0311 34.6325 50.7713 35.3168H47.8623V35.5194C47.9017 35.9429 47.9216 36.3707 47.9216 36.8018C47.9216 37.2328 47.9017 37.6607 47.8623 38.0853V38.2879H50.7713C50.8417 38.4732 50.9249 38.6532 51.0206 38.8267C51.273 39.2836 51.6101 39.6952 52.0161 40.0336L52.0408 40.0541C52.4085 40.3558 52.8207 40.5907 53.2654 40.7535C53.7265 40.9216 54.2102 41.0067 54.7039 41.0067C57.0224 41.0067 58.9086 39.1209 58.9086 36.8018C58.9086 35.7802 58.5417 34.8416 57.9327 34.112Z" fill="#2E2D2D"/>
<path d="M49.4199 28.8973L47.2959 30.1237L47.1099 30.2315L47.0711 30.2541L46.3581 29.018L46.3966 28.9965L48.7068 27.6624C48.2161 26.1548 48.8276 24.4532 50.2547 23.6288C50.7938 23.3184 51.383 23.1708 51.9649 23.1708C52.9886 23.1708 53.9896 23.6288 54.6528 24.4597C54.7584 24.5922 54.8556 24.7345 54.9428 24.8853C55.8891 26.5244 55.3256 28.6279 53.6867 29.5741C53.1476 29.8855 52.5583 30.0332 51.9764 30.0332C51.0178 30.0332 50.0801 29.6312 49.4199 28.8973ZM55.612 24.4995C55.4915 24.2905 55.354 24.0933 55.2009 23.9101C54.8766 23.521 54.4836 23.1924 54.0404 22.9424C53.4081 22.5857 52.6905 22.3981 51.9649 22.3981C51.2308 22.3981 50.5059 22.5921 49.8683 22.9607C49.4407 23.2074 49.0643 23.5232 48.7494 23.8993C48.4454 24.2624 48.2061 24.6719 48.0384 25.117C47.7778 25.8088 47.705 26.5589 47.8221 27.2809L46.0457 28.3068L45.9717 28.3499L45.9586 28.3575L45.622 28.5514L45.3677 28.698L45.3027 28.7357L45.3989 28.9027C45.9022 29.6075 46.3365 30.3597 46.6979 31.1528L46.7884 31.3091L46.9953 31.1895L47.1086 31.1237L47.4451 30.9298L47.4574 30.9233L49.3075 29.8543C50.054 30.4642 50.9974 30.8058 51.9764 30.8058C52.7104 30.8058 53.4355 30.6108 54.0729 30.2433C56.0808 29.0838 56.771 26.5072 55.612 24.4995Z" fill="#2E2D2D"/>
<path d="M41.5312 17.4184C41.9895 16.6242 42.7295 16.0563 43.615 15.8192C43.9107 15.7405 44.2107 15.7006 44.5089 15.7006C45.1036 15.7006 45.6906 15.8569 46.2193 16.1619C46.6012 16.3828 46.9246 16.6662 47.1842 16.9916C48.039 18.0628 48.2013 19.5931 47.4757 20.8507C47.0172 21.6449 46.2772 22.2128 45.3917 22.4499C45.096 22.5285 44.796 22.5684 44.4978 22.5684C44.1393 22.5684 43.7841 22.5102 43.4423 22.3981L42.1087 24.7086L42.0864 24.7474L41.4884 24.4014L40.8513 24.034L40.8739 23.9952L42.2071 21.6858C41.7166 21.2461 41.3627 20.6739 41.1883 20.023C40.9509 19.1372 41.0727 18.2126 41.5312 17.4184ZM47.7328 16.441C47.4243 16.0714 47.0469 15.7481 46.6057 15.4927C45.9657 15.1241 45.2407 14.928 44.5089 14.928C44.1417 14.928 43.7735 14.9765 43.4151 15.0735C42.3303 15.3633 41.4237 16.0595 40.862 17.0315C40.3006 18.0046 40.1512 19.1383 40.4422 20.2224C40.5981 20.8043 40.8733 21.3399 41.2493 21.799L40.1821 23.6471L40.175 23.66L40.0289 23.9133L39.9808 23.9963L39.7959 24.3163L39.9531 24.4079C40.746 24.7689 41.4976 25.2032 42.2025 25.7065L42.3691 25.8024L42.5534 25.4834L42.7476 25.1461L42.7554 25.1332L43.8226 23.285C44.046 23.3217 44.2715 23.34 44.4978 23.34C44.8651 23.34 45.2332 23.2915 45.5917 23.1956C46.6765 22.9046 47.5833 22.2095 48.1447 21.2364C49.0492 19.6696 48.8277 17.7568 47.7328 16.441Z" fill="#2E2D2D"/>
<path d="M29.0014 49.3498C27.4963 48.7129 26.1337 47.8217 24.9458 46.6977C24.8537 46.6104 24.7627 46.5221 24.6729 46.4315C23.4224 45.1815 22.4406 43.7245 21.7547 42.1027C21.2108 40.8171 20.8723 39.4711 20.7436 38.0853C20.704 37.6607 20.6842 37.2329 20.6842 36.8018C20.6842 36.3708 20.704 35.943 20.7436 35.5195C20.8723 34.1336 21.2108 32.7866 21.7547 31.501C21.8042 31.3835 21.8551 31.2682 21.9077 31.1529C22.2692 30.3597 22.7035 29.6076 23.2069 28.9028C23.644 28.2896 24.1336 27.712 24.6729 27.1721C25.2122 26.6322 25.7904 26.143 26.4033 25.7065C27.1082 25.2033 27.8596 24.769 28.6526 24.408C28.768 24.3552 28.8844 24.3035 29.0014 24.2539C30.2866 23.7108 31.6328 23.3724 33.0178 23.2431C33.4427 23.2032 33.8712 23.1838 34.3027 23.1838C34.7343 23.1838 35.1628 23.2032 35.5877 23.2431C36.9727 23.3724 38.3188 23.7108 39.6039 24.2539C39.7211 24.3035 39.8374 24.3552 39.9529 24.408C40.7458 24.769 41.4973 25.2033 42.2022 25.7065C42.8151 26.143 43.3932 26.6322 43.9326 27.1721C44.0219 27.2616 44.1098 27.3521 44.1961 27.4437C44.6325 27.9038 45.0337 28.3909 45.3986 28.9028C45.9019 29.6076 46.3362 30.3597 46.6977 31.1529C46.7504 31.2682 46.8012 31.3835 46.8507 31.501C47.3947 32.7866 47.7332 34.1336 47.8619 35.5195C47.9014 35.943 47.9212 36.3708 47.9212 36.8018C47.9212 37.2329 47.9014 37.6607 47.8619 38.0853C47.7332 39.4711 47.3947 40.8171 46.8507 42.1027C46.1649 43.7245 45.1831 45.1815 43.9326 46.4315C42.6821 47.6827 41.2257 48.6644 39.6039 49.3498C37.9246 50.061 36.141 50.4209 34.3027 50.4209C32.4644 50.4209 30.6808 50.061 29.0014 49.3498ZM48.6767 36.0895C48.6705 35.9602 48.6625 35.8309 48.6527 35.7026C48.6431 35.5733 48.6316 35.4451 48.6184 35.3169C48.4735 33.8976 48.1202 32.5182 47.5624 31.2003C47.5241 31.1098 47.4849 31.0193 47.4448 30.9298C47.3922 30.8113 47.3377 30.6949 47.282 30.5785C47.2259 30.4621 47.1687 30.3457 47.1096 30.2315C46.8923 29.8069 46.6542 29.3953 46.3964 28.9965C46.3262 28.8877 46.2549 28.7799 46.1817 28.6743C46.1086 28.5676 46.0344 28.462 45.9583 28.3575C45.5879 27.8467 45.1828 27.3607 44.7444 26.8984C44.6573 26.8068 44.5686 26.7163 44.4788 26.6258C44.1143 26.2615 43.733 25.9188 43.3362 25.5977C43.1437 25.4425 42.9473 25.2916 42.7474 25.1462C42.7374 25.1397 42.7273 25.1322 42.7173 25.1246C42.6225 25.0567 42.5271 24.9888 42.4307 24.9231C42.3244 24.8498 42.2169 24.7787 42.1085 24.7086C41.9151 24.5836 41.7189 24.4629 41.5194 24.3476C41.3076 24.2248 41.0923 24.1073 40.8736 23.9953C40.8626 23.9899 40.8515 23.9834 40.8404 23.978C40.7366 23.9252 40.6321 23.8735 40.5266 23.8228C40.4103 23.7668 40.293 23.7129 40.1748 23.6601C40.0852 23.6202 39.9952 23.5804 39.9048 23.5426C38.7535 23.0556 37.556 22.7247 36.3269 22.5512C36.1479 22.5264 35.9685 22.5049 35.7884 22.4866C35.7105 22.4779 35.6323 22.4715 35.5543 22.4639C35.5036 22.4596 35.4528 22.4564 35.402 22.4521C35.2737 22.4424 35.1448 22.4348 35.0158 22.4284C34.779 22.4165 34.5414 22.4111 34.3027 22.4111C34.2444 22.4111 34.1863 22.4111 34.1282 22.4122C33.9482 22.4144 33.7686 22.4198 33.5897 22.4284C33.5117 22.4316 33.4335 22.4359 33.3556 22.4413C33.3049 22.4445 33.2541 22.4478 33.2035 22.4521C33.0744 22.4618 32.9456 22.4736 32.8171 22.4866C31.3985 22.631 30.0194 22.9844 28.7007 23.5426C28.6713 23.5545 28.6417 23.5674 28.6123 23.5804C28.5515 23.6062 28.491 23.6332 28.4307 23.6601C28.3125 23.7129 28.1952 23.7668 28.0788 23.8228C28.0217 23.8508 27.9649 23.8778 27.9081 23.9058C27.8489 23.9349 27.7903 23.9651 27.7318 23.9953C27.3665 24.1828 27.0102 24.3854 26.6634 24.603C26.6077 24.6375 26.5521 24.6731 26.4969 24.7086C26.3886 24.7787 26.2811 24.8498 26.1748 24.9231C26.1227 24.9587 26.0706 24.9942 26.019 25.0309C25.9652 25.0697 25.9115 25.1074 25.8581 25.1462C25.2462 25.5912 24.6683 26.0848 24.1267 26.6258C23.5853 27.1678 23.0915 27.7454 22.6472 28.3575C22.6083 28.4103 22.5698 28.4642 22.5317 28.5181C22.4953 28.5698 22.4594 28.6215 22.4237 28.6743C22.3506 28.7799 22.2791 28.8877 22.209 28.9965C22.1734 29.0515 22.1381 29.1065 22.103 29.1625C21.8856 29.5095 21.6831 29.8662 21.4956 30.2315C21.4656 30.2897 21.4358 30.349 21.4066 30.4082C21.3785 30.4643 21.3509 30.5214 21.3235 30.5785C21.2678 30.6949 21.2133 30.8113 21.1605 30.9298C21.1335 30.9902 21.107 31.0505 21.0809 31.1119C21.0681 31.141 21.0556 31.1701 21.0431 31.2003C20.4852 32.5182 20.1319 33.8976 19.9871 35.3169C19.9739 35.4451 19.9624 35.5733 19.9528 35.7026C19.9488 35.7533 19.9452 35.8039 19.9421 35.8546C19.9369 35.9333 19.9325 36.0108 19.9288 36.0895C19.9202 36.2684 19.9147 36.4473 19.9127 36.6273C19.9121 36.6854 19.9116 36.7436 19.9116 36.8018C19.9116 37.0411 19.9175 37.2781 19.9288 37.5152C19.935 37.6445 19.9432 37.7728 19.9528 37.9021C19.9566 37.9527 19.9607 38.0034 19.9651 38.054C19.9719 38.1316 19.9791 38.2103 19.9871 38.2879C20.0054 38.4679 20.0271 38.6478 20.0524 38.8267C20.2251 40.0552 20.5562 41.2535 21.0431 42.4044C21.7681 44.1179 22.8054 45.6567 24.1267 46.9779C24.216 47.0674 24.3067 47.1557 24.3981 47.243C25.657 48.4381 27.1027 49.3853 28.7007 50.0621C29.0103 50.1925 29.3232 50.3121 29.6394 50.4209C31.1353 50.9339 32.6996 51.1936 34.3027 51.1936C35.9059 51.1936 37.4702 50.9339 38.9661 50.4209C39.2822 50.3121 39.5952 50.1925 39.9048 50.0621C41.6187 49.3368 43.1578 48.2991 44.4788 46.9779C45.8001 45.6567 46.8373 44.1179 47.5624 42.4044C48.12 41.0854 48.4735 39.706 48.6184 38.2879C48.6316 38.1596 48.6431 38.0303 48.6527 37.9021C48.6623 37.7728 48.6705 37.6445 48.6767 37.5152C48.6879 37.2781 48.6938 37.0411 48.6938 36.8018C48.6938 36.5637 48.6879 36.3255 48.6767 36.0895Z" fill="#2E2D2D"/>
<path d="M57.4696 50.8067C57.4696 51.0201 57.2962 51.1936 57.0833 51.1936H11.522C11.3088 51.1936 11.1357 51.0201 11.1357 50.8067C11.1357 50.5934 11.3088 50.4209 11.522 50.4209H57.0833C57.2962 50.4209 57.4696 50.5934 57.4696 50.8067Z" fill="#2E2D2D"/>
<path d="M9.92866 51.1936H8.16943C7.95605 51.1936 7.7832 51.0201 7.7832 50.8067C7.7832 50.5934 7.95605 50.4209 8.16943 50.4209H9.92866C10.142 50.4209 10.315 50.5934 10.315 50.8067C10.315 51.0201 10.142 51.1936 9.92866 51.1936Z" fill="#2E2D2D"/>
<path d="M17.7568 49.3002H15.9977C15.7843 49.3002 15.6113 49.1277 15.6113 48.9144C15.6113 48.701 15.7843 48.5275 15.9977 48.5275H17.7568C17.9702 48.5275 18.1431 48.701 18.1431 48.9144C18.1431 49.1277 17.9702 49.3002 17.7568 49.3002Z" fill="#2E2D2D"/>
<path d="M14.4039 49.3002H12.6446C12.4313 49.3002 12.2583 49.1277 12.2583 48.9144C12.2583 48.701 12.4313 48.5275 12.6446 48.5275H14.4039C14.6172 48.5275 14.7902 48.701 14.7902 48.9144C14.7902 49.1277 14.6172 49.3002 14.4039 49.3002Z" fill="#2E2D2D"/>
<path d="M52.6085 49.3002H50.8491C50.6357 49.3002 50.4629 49.1277 50.4629 48.9144C50.4629 48.701 50.6357 48.5275 50.8491 48.5275H52.6085C52.8217 48.5275 52.9947 48.701 52.9947 48.9144C52.9947 49.1277 52.8217 49.3002 52.6085 49.3002Z" fill="#2E2D2D"/>
<path d="M55.9614 49.3002H54.2021C53.9888 49.3002 53.8159 49.1277 53.8159 48.9144C53.8159 48.701 53.9888 48.5275 54.2021 48.5275H55.9614C56.1747 48.5275 56.3476 48.701 56.3476 48.9144C56.3476 49.1277 56.1747 49.3002 55.9614 49.3002Z" fill="#2E2D2D"/>
<path d="M60.4366 51.1936H58.6773C58.464 51.1936 58.291 51.0201 58.291 50.8067C58.291 50.5934 58.464 50.4209 58.6773 50.4209H60.4366C60.65 50.4209 60.8229 50.5934 60.8229 50.8067C60.8229 51.0201 60.65 51.1936 60.4366 51.1936Z" fill="#2E2D2D"/>
</svg>
