<svg width="71" height="62" viewBox="0 0 71 62" fill="none" xmlns="http://www.w3.org/2000/svg">
<path d="M1.64655 26.053C2.69067 27.0978 4.10667 27.6836 5.58322 27.6836C6.69244 27.6836 7.76762 27.3539 8.67648 26.7453L4.71316 30.7088C3.66916 31.7536 3.08258 33.1685 3.08258 34.6469C3.08258 36.1228 3.66916 37.5378 4.71316 38.5825C5.75728 39.6273 7.1734 40.213 8.64995 40.213C9.75917 40.213 10.8342 39.8834 11.7431 39.2748L9.66301 41.3541C8.61902 42.3989 8.03249 43.8164 8.03249 45.2923C8.03249 46.7681 8.61902 48.1831 9.66301 49.2278C10.7073 50.2726 12.1232 50.8584 13.5998 50.8584C14.709 50.8584 15.7839 50.5287 16.693 49.9201L16.1848 50.4298C15.1408 51.472 14.5543 52.8895 14.5543 54.3654C14.5543 55.8412 15.1408 57.2588 16.1848 58.301C17.2291 59.3457 18.6451 59.934 20.1214 59.934C21.598 59.934 23.014 59.3457 24.0583 58.301L29.334 53.0265C28.7267 53.9343 28.3955 55.0095 28.3955 56.1202C28.3955 57.596 28.9821 59.011 30.0263 60.0558C31.0703 61.1005 32.4863 61.6863 33.9629 61.6863C35.4395 61.6863 36.8555 61.1005 37.8995 60.0558L45.9157 52.04C45.3081 52.9504 44.9772 54.0256 44.9772 55.1337C44.9772 56.6096 45.5637 58.0271 46.6077 59.0693C47.652 60.1141 49.068 60.6998 50.5446 60.6998C52.0212 60.6998 53.4372 60.1141 54.4812 59.0693L66.9607 46.5906C68.0047 45.5458 68.5912 44.1309 68.5912 42.655C68.5912 41.1766 68.0047 39.7617 66.9607 38.7169C65.9164 37.6721 64.5004 37.0864 63.0238 37.0864C61.9146 37.0864 60.8395 37.4186 59.9306 38.0246L62.543 35.4127C63.587 34.368 64.1735 32.953 64.1735 31.4772C64.1735 29.9988 63.587 28.5838 62.543 27.539C61.499 26.4943 60.0828 25.9085 58.6062 25.9085C57.497 25.9085 56.4218 26.2407 55.513 26.8467L60.7887 21.5723C61.833 20.5275 62.4193 19.1125 62.4193 17.6341C62.4193 16.1583 61.833 14.7433 60.7887 13.6986C59.7447 12.6538 58.3288 12.068 56.8521 12.068C55.743 12.068 54.6678 12.3977 53.759 13.0063L57.1187 9.64634C58.1629 8.60158 58.7494 7.1866 58.7494 5.70823C58.7494 4.23238 58.1629 2.81739 57.1187 1.77264C56.0747 0.727886 54.6587 0.142117 53.1821 0.142117C51.7055 0.142117 50.2895 0.727886 49.2455 1.77264L41.7615 9.25584C42.3689 8.34801 42.7 7.27283 42.7 6.16215C42.7 4.6863 42.1135 3.27132 41.0695 2.22656C40.0253 1.1818 38.6093 0.596039 37.1327 0.596039C35.6563 0.596039 34.2401 1.1818 33.1961 2.22656L22.6915 12.7299C23.2988 11.8221 23.63 10.7469 23.63 9.63873C23.63 8.16035 23.0434 6.74538 21.9992 5.70062C20.9552 4.65841 19.5392 4.0701 18.0626 4.0701C16.5862 4.0701 15.17 4.65841 14.126 5.70062L1.64655 18.1793C0.602427 19.2241 0.0158691 20.6416 0.0158691 22.1175C0.0158691 23.5933 0.602427 25.0108 1.64655 26.053Z" fill="white"/>
<path d="M68.4273 49.7832L68.042 50.1681C67.8916 50.3203 67.8916 50.5642 68.042 50.7141C68.1926 50.864 68.4367 50.864 68.5873 50.7141L68.9724 50.3292L69.3577 50.7141C69.5083 50.864 69.7524 50.864 69.903 50.7141C70.0536 50.5642 70.0536 50.3203 69.903 50.1681L69.5177 49.7832L69.903 49.3984C70.0536 49.2484 70.0536 49.0045 69.903 48.8524C69.8276 48.7785 69.729 48.7405 69.6303 48.7405C69.5316 48.7405 69.4331 48.7785 69.3577 48.8524L68.9724 49.2395L68.5873 48.8524C68.5121 48.7785 68.4134 48.7405 68.3147 48.7405C68.2161 48.7405 68.1174 48.7785 68.042 48.8524C67.8916 49.0045 67.8916 49.2484 68.042 49.3984L68.4273 49.7832Z" fill="white"/>
<path d="M13.3826 58.083L12.9975 58.4679C12.8469 58.6188 12.8469 58.8637 12.9975 59.0146C13.148 59.1633 13.3922 59.1633 13.5427 59.0146L13.9278 58.6275L14.3131 59.0146C14.4637 59.1633 14.7078 59.1633 14.8582 59.0146C15.0089 58.8637 15.0089 58.6188 14.8582 58.4679L14.4731 58.083L14.8582 57.6981C15.0089 57.5473 15.0089 57.3024 14.8582 57.1537C14.783 57.0771 14.6844 57.0399 14.5858 57.0399C14.4871 57.0399 14.3883 57.0771 14.3131 57.1537L13.9278 57.5385L13.5427 57.1537C13.4675 57.0771 13.3686 57.0399 13.27 57.0399C13.1714 57.0399 13.0727 57.0771 12.9975 57.1537C12.8469 57.3024 12.8469 57.5473 12.9975 57.6981L13.3826 58.083Z" fill="white"/>
<path d="M3.52564 23.9369L3.14052 24.3227C2.98994 24.4737 2.98994 24.7181 3.14052 24.8691C3.29105 25.02 3.53525 25.02 3.68578 24.8691L4.07095 24.4833L4.45619 24.8691C4.60672 25.02 4.85085 25.02 5.00138 24.8691C5.15203 24.7181 5.15203 24.4737 5.00138 24.3227L4.61621 23.9369L5.00138 23.5535C5.15203 23.4026 5.15203 23.1582 5.00138 23.0072C4.92614 22.9329 4.82744 22.8946 4.72872 22.8946C4.63014 22.8946 4.53143 22.9329 4.45619 23.0072L4.07095 23.393L3.68578 23.0072C3.61047 22.9329 3.51189 22.8946 3.41316 22.8946C3.31446 22.8946 3.21584 22.9329 3.14052 23.0072C2.98994 23.1582 2.98994 23.4026 3.14052 23.5535L3.52564 23.9369Z" fill="white"/>
<path d="M49.8917 4.13949L49.5065 4.52469C49.3559 4.67575 49.3559 4.91997 49.5065 5.07103C49.6573 5.22209 49.9012 5.22209 50.0518 5.07103L50.437 4.6858L50.8222 5.07103C50.9728 5.22209 51.2167 5.22209 51.3673 5.07103C51.5181 4.91997 51.5181 4.67575 51.3673 4.52469L50.9823 4.13949L51.3673 3.75426C51.5181 3.60572 51.5181 3.36151 51.3673 3.21045C51.292 3.13492 51.1933 3.09715 51.0949 3.09715C50.9962 3.09715 50.8975 3.13492 50.8222 3.21045L50.437 3.59565L50.0518 3.21045C49.9765 3.13492 49.8778 3.09715 49.7791 3.09715C49.6804 3.09715 49.582 3.13492 49.5065 3.21045C49.3559 3.36151 49.3559 3.60572 49.5065 3.75426L49.8917 4.13949Z" fill="white"/>
<path d="M42.8391 60.1013C43.0348 60.1013 43.1941 59.9424 43.1941 59.7464C43.1941 59.5505 43.0348 59.3916 42.8391 59.3916C42.6431 59.3916 42.484 59.5505 42.484 59.7464C42.484 59.9424 42.6431 60.1013 42.8391 60.1013ZM42.8391 58.6209C43.4599 58.6209 43.9652 59.126 43.9652 59.7464C43.9652 60.3691 43.4599 60.8741 42.8391 60.8741C42.2179 60.8741 41.7126 60.3691 41.7126 59.7464C41.7126 59.126 42.2179 58.6209 42.8391 58.6209Z" fill="white"/>
<path d="M64.0649 24.2145C64.2608 24.2145 64.42 24.0539 64.42 23.8598C64.42 23.6632 64.2608 23.505 64.0649 23.505C63.8691 23.505 63.7097 23.6632 63.7097 23.8598C63.7097 24.0539 63.8691 24.2145 64.0649 24.2145ZM64.0649 22.7331C64.6858 22.7331 65.1911 23.2389 65.1911 23.8598C65.1911 24.4806 64.6858 24.9865 64.0649 24.9865C63.4438 24.9865 62.9387 24.4806 62.9387 23.8598C62.9387 23.2389 63.4438 22.7331 64.0649 22.7331Z" fill="white"/>
<path d="M16.9172 6.14102C17.1128 6.14102 17.2723 5.98052 17.2723 5.78489C17.2723 5.58925 17.1128 5.42873 16.9172 5.42873C16.7213 5.42873 16.562 5.58925 16.562 5.78489C16.562 5.98052 16.7213 6.14102 16.9172 6.14102ZM16.9172 4.65874C17.5382 4.65874 18.0433 5.16288 18.0433 5.78489C18.0433 6.4069 17.5382 6.91101 16.9172 6.91101C16.2962 6.91101 15.7908 6.4069 15.7908 5.78489C15.7908 5.16288 16.2962 4.65874 16.9172 4.65874Z" fill="white"/>
<path d="M3.79699 41.3029C3.9928 41.3029 4.1521 41.1447 4.1521 40.9476C4.1521 40.7527 3.9928 40.5923 3.79699 40.5923C3.60108 40.5923 3.44183 40.7527 3.44183 40.9476C3.44183 41.1447 3.60108 41.3029 3.79699 41.3029ZM3.79699 39.822C4.41793 39.822 4.92323 40.3264 4.92323 40.9476C4.92323 41.5688 4.41793 42.0754 3.79699 42.0754C3.17596 42.0754 2.67065 41.5688 2.67065 40.9476C2.67065 40.3264 3.17596 39.822 3.79699 39.822Z" fill="white"/>
<path d="M1.64655 26.053C2.69067 27.0978 4.10667 27.6836 5.58322 27.6836C6.69244 27.6836 7.76762 27.3539 8.67648 26.7453L4.71316 30.7088C3.66916 31.7536 3.08258 33.1685 3.08258 34.6469C3.08258 36.1228 3.66916 37.5378 4.71316 38.5825C5.75728 39.6273 7.1734 40.213 8.64995 40.213C9.75917 40.213 10.8342 39.8834 11.7431 39.2748L9.66301 41.3541C8.61902 42.3989 8.03249 43.8164 8.03249 45.2923C8.03249 46.7681 8.61902 48.1831 9.66301 49.2278C10.7073 50.2726 12.1232 50.8584 13.5998 50.8584C14.709 50.8584 15.7839 50.5287 16.693 49.9201L16.1848 50.4298C15.1408 51.472 14.5543 52.8895 14.5543 54.3654C14.5543 55.8412 15.1408 57.2588 16.1848 58.301C17.2291 59.3457 18.6451 59.934 20.1214 59.934C21.598 59.934 23.014 59.3457 24.0583 58.301L29.334 53.0265C28.7267 53.9343 28.3955 55.0095 28.3955 56.1202C28.3955 57.596 28.9821 59.011 30.0263 60.0558C31.0703 61.1005 32.4863 61.6863 33.9629 61.6863C35.4395 61.6863 36.8555 61.1005 37.8995 60.0558L45.9157 52.04C45.3081 52.9504 44.9772 54.0256 44.9772 55.1337C44.9772 56.6096 45.5637 58.0271 46.6077 59.0693C47.652 60.1141 49.068 60.6998 50.5446 60.6998C52.0212 60.6998 53.4372 60.1141 54.4812 59.0693L66.9607 46.5906C68.0047 45.5458 68.5912 44.1309 68.5912 42.655C68.5912 41.1766 68.0047 39.7617 66.9607 38.7169C65.9164 37.6721 64.5004 37.0864 63.0238 37.0864C61.9146 37.0864 60.8395 37.4186 59.9306 38.0246L62.543 35.4127C63.587 34.368 64.1735 32.953 64.1735 31.4772C64.1735 29.9988 63.587 28.5838 62.543 27.539C61.499 26.4943 60.0828 25.9085 58.6062 25.9085C57.497 25.9085 56.4218 26.2407 55.513 26.8467L60.7887 21.5723C61.833 20.5275 62.4193 19.1125 62.4193 17.6341C62.4193 16.1583 61.833 14.7433 60.7887 13.6986C59.7447 12.6538 58.3288 12.068 56.8521 12.068C55.743 12.068 54.6678 12.3977 53.759 13.0063L57.1187 9.64634C58.1629 8.60158 58.7494 7.1866 58.7494 5.70823C58.7494 4.23238 58.1629 2.81739 57.1187 1.77264C56.0747 0.727886 54.6587 0.142117 53.1821 0.142117C51.7055 0.142117 50.2895 0.727886 49.2455 1.77264L41.7615 9.25584C42.3689 8.34801 42.7 7.27283 42.7 6.16215C42.7 4.6863 42.1135 3.27132 41.0695 2.22656C40.0253 1.1818 38.6093 0.596039 37.1327 0.596039C35.6563 0.596039 34.2401 1.1818 33.1961 2.22656L22.6915 12.7299C23.2988 11.8221 23.63 10.7469 23.63 9.63873C23.63 8.16035 23.0434 6.74538 21.9992 5.70062C20.9552 4.65841 19.5392 4.0701 18.0626 4.0701C16.5862 4.0701 15.17 4.65841 14.126 5.70062L1.64655 18.1793C0.602427 19.2241 0.0158691 20.6416 0.0158691 22.1175C0.0158691 23.5933 0.602427 25.0108 1.64655 26.053Z" fill="#D3EBF8"/>
<path d="M68.4273 49.7832L68.042 50.1681C67.8916 50.3203 67.8916 50.5642 68.042 50.7141C68.1926 50.864 68.4367 50.864 68.5873 50.7141L68.9724 50.3292L69.3577 50.7141C69.5083 50.864 69.7524 50.864 69.903 50.7141C70.0536 50.5642 70.0536 50.3203 69.903 50.1681L69.5177 49.7832L69.903 49.3984C70.0536 49.2484 70.0536 49.0045 69.903 48.8524C69.8276 48.7785 69.729 48.7405 69.6303 48.7405C69.5316 48.7405 69.4331 48.7785 69.3577 48.8524L68.9724 49.2395L68.5873 48.8524C68.5121 48.7785 68.4134 48.7405 68.3147 48.7405C68.2161 48.7405 68.1174 48.7785 68.042 48.8524C67.8916 49.0045 67.8916 49.2484 68.042 49.3984L68.4273 49.7832Z" fill="#91CEEE"/>
<path d="M13.3826 58.083L12.9975 58.4679C12.8469 58.6188 12.8469 58.8637 12.9975 59.0146C13.148 59.1633 13.3922 59.1633 13.5427 59.0146L13.9278 58.6275L14.3131 59.0146C14.4637 59.1633 14.7078 59.1633 14.8582 59.0146C15.0089 58.8637 15.0089 58.6188 14.8582 58.4679L14.4731 58.083L14.8582 57.6981C15.0089 57.5473 15.0089 57.3024 14.8582 57.1537C14.783 57.0771 14.6844 57.0399 14.5858 57.0399C14.4871 57.0399 14.3883 57.0771 14.3131 57.1537L13.9278 57.5385L13.5427 57.1537C13.4675 57.0771 13.3686 57.0399 13.27 57.0399C13.1714 57.0399 13.0727 57.0771 12.9975 57.1537C12.8469 57.3024 12.8469 57.5473 12.9975 57.6981L13.3826 58.083Z" fill="#91CEEE"/>
<path d="M3.52564 23.9369L3.14052 24.3227C2.98994 24.4737 2.98994 24.7181 3.14052 24.8691C3.29105 25.02 3.53525 25.02 3.68578 24.8691L4.07095 24.4833L4.45619 24.8691C4.60672 25.02 4.85085 25.02 5.00138 24.8691C5.15203 24.7181 5.15203 24.4737 5.00138 24.3227L4.61621 23.9369L5.00138 23.5535C5.15203 23.4026 5.15203 23.1582 5.00138 23.0072C4.92614 22.9329 4.82744 22.8946 4.72872 22.8946C4.63014 22.8946 4.53143 22.9329 4.45619 23.0072L4.07095 23.393L3.68578 23.0072C3.61047 22.9329 3.51189 22.8946 3.41316 22.8946C3.31446 22.8946 3.21584 22.9329 3.14052 23.0072C2.98994 23.1582 2.98994 23.4026 3.14052 23.5535L3.52564 23.9369Z" fill="#91CEEE"/>
<path d="M49.8917 4.13949L49.5065 4.52469C49.3559 4.67575 49.3559 4.91997 49.5065 5.07103C49.6573 5.22209 49.9012 5.22209 50.0518 5.07103L50.437 4.6858L50.8222 5.07103C50.9728 5.22209 51.2167 5.22209 51.3673 5.07103C51.5181 4.91997 51.5181 4.67575 51.3673 4.52469L50.9823 4.13949L51.3673 3.75426C51.5181 3.60572 51.5181 3.36151 51.3673 3.21045C51.292 3.13492 51.1933 3.09715 51.0949 3.09715C50.9962 3.09715 50.8975 3.13492 50.8222 3.21045L50.437 3.59565L50.0518 3.21045C49.9765 3.13492 49.8778 3.09715 49.7791 3.09715C49.6804 3.09715 49.582 3.13492 49.5065 3.21045C49.3559 3.36151 49.3559 3.60572 49.5065 3.75426L49.8917 4.13949Z" fill="#91CEEE"/>
<path d="M42.8391 60.1013C43.0348 60.1013 43.1941 59.9424 43.1941 59.7464C43.1941 59.5505 43.0348 59.3916 42.8391 59.3916C42.6431 59.3916 42.484 59.5505 42.484 59.7464C42.484 59.9424 42.6431 60.1013 42.8391 60.1013ZM42.8391 58.6209C43.4599 58.6209 43.9652 59.126 43.9652 59.7464C43.9652 60.3691 43.4599 60.8741 42.8391 60.8741C42.2179 60.8741 41.7126 60.3691 41.7126 59.7464C41.7126 59.126 42.2179 58.6209 42.8391 58.6209Z" fill="#91CEEE"/>
<path d="M64.0649 24.2145C64.2608 24.2145 64.42 24.0539 64.42 23.8598C64.42 23.6632 64.2608 23.505 64.0649 23.505C63.8691 23.505 63.7097 23.6632 63.7097 23.8598C63.7097 24.0539 63.8691 24.2145 64.0649 24.2145ZM64.0649 22.7331C64.6858 22.7331 65.1911 23.2389 65.1911 23.8598C65.1911 24.4806 64.6858 24.9865 64.0649 24.9865C63.4438 24.9865 62.9387 24.4806 62.9387 23.8598C62.9387 23.2389 63.4438 22.7331 64.0649 22.7331Z" fill="#91CEEE"/>
<path d="M16.9172 6.14102C17.1128 6.14102 17.2723 5.98052 17.2723 5.78489C17.2723 5.58925 17.1128 5.42873 16.9172 5.42873C16.7213 5.42873 16.562 5.58925 16.562 5.78489C16.562 5.98052 16.7213 6.14102 16.9172 6.14102ZM16.9172 4.65874C17.5382 4.65874 18.0433 5.16288 18.0433 5.78489C18.0433 6.4069 17.5382 6.91101 16.9172 6.91101C16.2962 6.91101 15.7908 6.4069 15.7908 5.78489C15.7908 5.16288 16.2962 4.65874 16.9172 4.65874Z" fill="#91CEEE"/>
<path d="M3.79699 41.3029C3.9928 41.3029 4.1521 41.1447 4.1521 40.9476C4.1521 40.7527 3.9928 40.5923 3.79699 40.5923C3.60108 40.5923 3.44183 40.7527 3.44183 40.9476C3.44183 41.1447 3.60108 41.3029 3.79699 41.3029ZM3.79699 39.822C4.41793 39.822 4.92323 40.3264 4.92323 40.9476C4.92323 41.5688 4.41793 42.0754 3.79699 42.0754C3.17596 42.0754 2.67065 41.5688 2.67065 40.9476C2.67065 40.3264 3.17596 39.822 3.79699 39.822Z" fill="#91CEEE"/>
<path d="M21.6023 50.2786C20.583 50.2786 19.7539 49.4482 19.7539 48.4302V21.1785H48.8535V48.4302C48.8535 49.4482 48.0241 50.2786 47.0051 50.2786H21.6023Z" fill="#91CEEE"/>
<path d="M28.6334 45.6919H23.7073V44.3172H28.6334V45.6919Z" fill="#91CEEE"/>
<path d="M28.6333 41.3606H23.7073V39.9858H28.6333V41.3606Z" fill="#91CEEE"/>
<path d="M28.6334 37.0291H23.7073V35.6545H28.6334V37.0291Z" fill="#91CEEE"/>
<path d="M28.6334 32.6984H23.7073V31.3221H28.6334V32.6984Z" fill="#91CEEE"/>
<path d="M28.6335 28.3661H23.7075V26.9909H28.6335V28.3661Z" fill="#91CEEE"/>
<path d="M46.1291 45.6919H41.2031V44.3172H46.1291V45.6919Z" fill="#91CEEE"/>
<path d="M46.1289 41.3606H41.2031V39.9858H46.1289V41.3606Z" fill="#91CEEE"/>
<path d="M46.1292 37.0291H41.2031V35.6545H46.1292V37.0291Z" fill="#91CEEE"/>
<path d="M46.1292 32.6984H41.2034V31.3221H46.1292V32.6984Z" fill="#91CEEE"/>
<path d="M46.1291 28.3662H41.2031V26.991H46.1291V28.3662Z" fill="#91CEEE"/>
<path d="M28.019 45.0773H23.093V43.7025H28.019V45.0773Z" fill="white"/>
<path d="M51.2494 20.2297C50.7092 20.7704 49.9993 21.0786 49.2402 21.1056C49.203 21.108 49.1658 21.108 49.1286 21.108H19.4793C19.4418 21.108 19.4049 21.108 19.3682 21.1056C18.7216 21.0811 18.1269 20.8536 17.6474 20.4817C16.9377 19.9313 16.4803 19.0726 16.4803 18.1088C16.4803 17.3064 16.7922 16.5529 17.3588 15.9878C17.9251 15.4202 18.6783 15.1095 19.4793 15.1095H21.9726V16.1272C21.9726 16.9443 22.3728 17.6733 22.9881 18.121C23.3961 18.4194 23.8989 18.5956 24.4417 18.5956C25.8036 18.5956 26.9113 17.4874 26.9113 16.1272V15.1095H31.8346V16.1272C31.8346 16.9443 32.2351 17.6709 32.8501 18.121C33.2584 18.4194 33.7611 18.5956 34.3039 18.5956C35.6656 18.5956 36.7733 17.4874 36.7733 16.1272V15.1095H41.6968V16.1272C41.6968 16.9443 42.0971 17.6733 42.7123 18.121C43.1204 18.4194 43.6231 18.5956 44.166 18.5956C45.5278 18.5956 46.6356 17.4874 46.6356 16.1272V15.1095H49.1286C50.0932 15.1095 50.9531 15.567 51.5021 16.2764C51.894 16.7828 52.1276 17.4189 52.1276 18.1088C52.1276 18.9087 51.8157 19.6622 51.2494 20.2297ZM52.4738 17.5852H52.4735C52.282 16.3572 51.4292 15.3468 50.2926 14.9285C49.9293 14.7964 49.5374 14.723 49.1286 14.723H45.863V16.1272C45.863 17.0617 45.1017 17.8225 44.166 17.8225C43.8367 17.8225 43.5289 17.7296 43.2684 17.5657C42.7889 17.2648 42.4694 16.7339 42.4694 16.1272V14.723H36.0007V16.1272C36.0007 17.0617 35.2397 17.8225 34.3039 17.8225C33.9744 17.8225 33.6667 17.7296 33.4059 17.5657C32.9264 17.2648 32.6072 16.7339 32.6072 16.1272V14.723H26.1387V16.1272C26.1387 17.0617 25.3774 17.8225 24.4417 17.8225C24.1122 17.8225 23.8044 17.7296 23.5441 17.5657C23.0646 17.2648 22.7451 16.7339 22.7451 16.1272V14.723H19.4793C18.5751 14.723 17.725 15.0753 17.086 15.7138C16.4463 16.3547 16.094 17.2036 16.094 18.1088C16.094 18.5173 16.1669 18.9087 16.3005 19.2732C16.7176 20.4083 17.7284 21.2621 18.9555 21.4529C19.0908 21.4749 19.2283 21.4872 19.3682 21.4921C19.4049 21.4921 19.4421 21.4945 19.4793 21.4945H49.1286C49.1658 21.4945 49.203 21.4921 49.2402 21.4921C50.1025 21.4652 50.9093 21.1153 51.5224 20.5013C52.1619 19.8628 52.5139 19.0115 52.5139 18.1088C52.5139 17.9302 52.5002 17.7565 52.4738 17.5852Z" fill="white"/>
<path d="M52.1272 18.1083C52.1272 18.9099 51.8154 19.6626 51.2489 20.2297C50.7088 20.7698 49.999 21.0777 49.2397 21.1046C49.2028 21.107 49.1656 21.1071 49.1282 21.1071H19.479C19.4416 21.1071 19.4047 21.107 19.3678 21.1046C17.7653 21.0459 16.48 19.7238 16.48 18.1083C16.48 17.3067 16.7918 16.5539 17.3584 15.9869C17.9249 15.4223 18.6779 15.1095 19.479 15.1095H21.9721V16.1262C21.9721 17.4875 23.0797 18.5971 24.4415 18.5971C25.8033 18.5971 26.9109 17.4875 26.9109 16.1262V15.1095H31.8341V16.1262C31.8341 17.4875 32.9422 18.5971 34.3037 18.5971C35.6653 18.5971 36.7729 17.4875 36.7729 16.1262V15.1095H41.6963V16.1262C41.6963 17.4875 42.8042 18.5971 44.1657 18.5971C45.5273 18.5971 46.6351 17.4875 46.6351 16.1262V15.1095H49.1282C50.7821 15.1095 52.1272 16.4537 52.1272 18.1083Z" fill="white"/>
<path d="M28.0188 40.7455H23.0928V39.3707H28.0188V40.7455Z" fill="white"/>
<path d="M45.8626 16.1272C45.8626 17.0642 45.1012 17.8237 44.1656 17.8237C43.8364 17.8237 43.5285 17.73 43.2681 17.5672C42.7885 17.2664 42.4689 16.7338 42.4689 16.1272V13.6367C42.4689 12.6997 43.2299 11.9403 44.1656 11.9403C44.7717 11.9403 45.3046 12.2583 45.6047 12.7392C45.7682 12.9981 45.8626 13.3063 45.8626 13.6367V16.1272ZM46.2409 13.4518C46.1726 12.6775 45.6777 12.0216 44.9927 11.7257C44.7389 11.6148 44.4591 11.5531 44.1656 11.5531C43.0171 11.5531 42.0825 12.4877 42.0825 13.6367V16.1272C42.0825 16.4206 42.1439 16.7017 42.2544 16.9557C42.5515 17.6387 43.2062 18.1344 43.9812 18.2034C44.0419 18.2084 44.1035 18.2108 44.1656 18.2108C45.3142 18.2108 46.2487 17.2763 46.2487 16.1272V13.6367C46.2487 13.5751 46.246 13.5134 46.2409 13.4518Z" fill="#B3B3B2"/>
<path d="M45.8629 13.6366V16.1271C45.8629 17.0633 45.1014 17.8245 44.1661 17.8245C43.2302 17.8245 42.4692 17.0633 42.4692 16.1271V13.6366C42.4692 12.7005 43.2302 11.9393 44.1661 11.9393C45.1014 11.9393 45.8629 12.7005 45.8629 13.6366Z" fill="#B3B3B2"/>
<path d="M36.0003 16.1272C36.0003 17.0642 35.2391 17.8237 34.3036 17.8237C33.9741 17.8237 33.6662 17.73 33.4055 17.5672C32.9262 17.2664 32.6066 16.7338 32.6066 16.1272V13.6367C32.6066 12.6997 33.368 11.9403 34.3036 11.9403C34.9094 11.9403 35.442 12.2584 35.7421 12.7367C35.9056 12.9981 36.0003 13.3063 36.0003 13.6367V16.1272ZM36.3783 13.4518C36.31 12.6751 35.8151 12.0216 35.1304 11.7233C34.8769 11.6148 34.5973 11.5531 34.3036 11.5531C33.155 11.5531 32.2202 12.4877 32.2202 13.6367V16.1272C32.2202 16.4206 32.2816 16.7017 32.3918 16.9557C32.689 17.6387 33.3439 18.1344 34.1191 18.2034C34.18 18.2084 34.2414 18.2108 34.3036 18.2108C35.4522 18.2108 36.3864 17.2763 36.3864 16.1272V13.6367C36.3864 13.5751 36.3837 13.5134 36.3783 13.4518Z" fill="#B3B3B2"/>
<path d="M36.0011 13.6366V16.1271C36.0011 17.0633 35.2399 17.8245 34.3042 17.8245C33.3686 17.8245 32.6074 17.0633 32.6074 16.1271V13.6366C32.6074 12.7005 33.3686 11.9393 34.3042 11.9393C35.2399 11.9393 36.0011 12.7005 36.0011 13.6366Z" fill="#B3B3B2"/>
<path d="M26.1387 16.1272C26.1387 17.0642 25.3773 17.8237 24.4418 17.8237C24.1123 17.8237 23.8043 17.73 23.544 17.5672C23.0646 17.2664 22.745 16.7338 22.745 16.1272V13.6367C22.745 12.6997 23.5065 11.9403 24.4418 11.9403C25.0479 11.9403 25.5807 12.2583 25.881 12.7392C26.0443 12.9981 26.1387 13.3063 26.1387 13.6367V16.1272ZM26.5167 13.4518C26.4487 12.6775 25.9538 12.0216 25.2688 11.7257C25.0153 11.6148 24.7357 11.5531 24.4418 11.5531C23.2932 11.5531 22.3589 12.4877 22.3589 13.6367V16.1272C22.3589 16.4206 22.42 16.7017 22.5303 16.9557C22.8274 17.6387 23.4821 18.1344 24.2573 18.2034C24.3182 18.2084 24.3799 18.2108 24.4418 18.2108C25.5906 18.2108 26.5251 17.2763 26.5251 16.1272V13.6367C26.5251 13.5751 26.5224 13.5134 26.5167 13.4518Z" fill="#B3B3B2"/>
<path d="M49.002 50.6637H20.6868C20.5473 50.5429 20.4226 50.4049 20.3164 50.2545C20.2358 50.1412 20.1655 50.0179 20.1071 49.8898C20.0088 49.6753 19.9442 49.4387 19.9196 49.1947C20.1951 49.7961 20.7862 50.2274 21.4807 50.2718C21.6796 50.3753 21.9049 50.432 22.1428 50.432H47.5459C48.0033 50.432 48.4125 50.22 48.6804 49.8898C48.8852 49.6383 49.008 49.3179 49.008 48.9704V22.42H48.8532V21.6485H49.6693C49.7062 21.6485 49.7437 21.6485 49.7807 21.646C50.5398 21.6189 51.2497 21.3083 51.7899 20.7686C52.3561 20.2041 52.6681 19.4499 52.6681 18.6489C52.6681 18.2742 52.5989 17.9144 52.4732 17.5841H52.4729C52.2814 16.3566 51.4286 15.3461 50.2919 14.9295C50.9512 15.038 51.5528 15.319 52.05 15.7257C52.8983 16.4183 53.4406 17.4707 53.4406 18.6489C53.4406 19.657 53.0482 20.6034 52.3359 21.3157C51.6502 22.001 50.7461 22.3904 49.7807 22.42V48.9704C49.7807 49.2982 49.7094 49.6088 49.5818 49.8898C49.4464 50.188 49.2475 50.4517 49.002 50.6637ZM19.7537 22.4101C19.623 22.4027 19.4941 22.3855 19.3675 22.3633C18.4572 22.2055 17.6584 21.7175 17.0972 21.0298C16.6912 20.5319 16.4095 19.9305 16.2998 19.2724C16.7171 20.4087 17.7279 21.2615 18.9549 21.4513C19.0882 21.5031 19.2257 21.545 19.3675 21.577C19.4934 21.6041 19.6223 21.6238 19.7537 21.6362V22.4101ZM44.1509 18.5946C44.1494 18.5946 44.1477 18.5946 44.1462 18.5946C44.1477 18.5946 44.1492 18.5946 44.1509 18.5946ZM34.2741 18.5946C34.2724 18.5946 34.2704 18.5946 34.2687 18.5946C34.2706 18.5946 34.2724 18.5946 34.2741 18.5946ZM34.2591 18.5946C34.2573 18.5946 34.2559 18.5946 34.2544 18.5946C34.2559 18.5946 34.2576 18.5946 34.2591 18.5946ZM24.3966 18.5946C24.3951 18.5946 24.3936 18.5946 24.3921 18.5946C24.3936 18.5946 24.3953 18.5946 24.3966 18.5946ZM34.2255 18.5946C34.2236 18.5946 34.2218 18.5946 34.2201 18.5946C34.2218 18.5946 34.2238 18.5946 34.2255 18.5946ZM44.0733 18.5946C44.071 18.5946 44.0693 18.5946 44.0671 18.5946C44.0693 18.5946 44.0713 18.5946 44.0733 18.5946ZM24.3157 18.5922C24.3142 18.5922 24.3125 18.5922 24.311 18.5922C24.3125 18.5922 24.314 18.5922 24.3157 18.5922ZM24.3004 18.5922C24.2985 18.5922 24.2967 18.5922 24.2945 18.5922C24.2965 18.5922 24.2985 18.5922 24.3004 18.5922ZM34.0887 18.5872C33.6283 18.5453 33.2034 18.3802 32.8497 18.1214H32.8495C33.2034 18.3802 33.6283 18.5453 34.0887 18.5872ZM24.2243 18.5848C24.2218 18.5848 24.2191 18.5848 24.2169 18.5848C24.2193 18.5848 24.2218 18.5848 24.2243 18.5848ZM43.9379 18.5848C43.4825 18.5429 43.0627 18.3777 42.7122 18.1214C42.712 18.1214 42.712 18.1214 42.7117 18.1214C43.062 18.3777 43.4822 18.5429 43.9379 18.5848ZM24.1498 18.5774C24.1387 18.5774 24.1276 18.5749 24.1166 18.5749C24.1279 18.5749 24.1387 18.5774 24.1498 18.5774ZM24.0907 18.57C23.6828 18.5133 23.3066 18.3531 22.9882 18.1214C22.9879 18.1214 22.9877 18.1214 22.9875 18.1214C23.3061 18.3531 23.6823 18.5133 24.0907 18.57ZM42.4966 16.433C42.4963 16.4306 42.4961 16.4306 42.4961 16.4306C42.4963 16.4306 42.4963 16.4306 42.4966 16.433ZM51.5016 16.2753C51.5013 16.2753 51.5013 16.2753 51.5013 16.2753C51.3071 16.0239 51.0742 15.8045 50.8112 15.6271C51.0742 15.8045 51.3073 16.0264 51.5016 16.2753ZM42.4699 16.1915C42.4699 16.1866 42.4699 16.1841 42.4697 16.1816C42.4697 16.1841 42.4699 16.1866 42.4699 16.1915ZM50.7656 15.595C50.7639 15.595 50.7621 15.595 50.7602 15.5926C50.7619 15.595 50.7639 15.595 50.7656 15.595ZM50.7296 15.5728C50.7289 15.5728 50.7286 15.5728 50.7279 15.5728C50.7284 15.5728 50.7289 15.5728 50.7296 15.5728ZM50.72 15.5679C50.7188 15.5654 50.718 15.5655 50.7168 15.5655C50.7178 15.5655 50.719 15.5654 50.72 15.5679ZM50.703 15.5556C50.702 15.5556 50.7008 15.5556 50.6998 15.5531C50.7008 15.5556 50.7017 15.5556 50.703 15.5556ZM50.6655 15.5334C50.6653 15.5334 50.665 15.5334 50.665 15.5334C50.6653 15.5334 50.6653 15.5334 50.6655 15.5334ZM50.6566 15.5285C50.6562 15.5285 50.6559 15.5285 50.6554 15.5285C50.6559 15.5285 50.6564 15.5285 50.6566 15.5285ZM50.6478 15.5236C50.6473 15.5236 50.6468 15.5235 50.6465 15.5211C50.647 15.5235 50.6473 15.5236 50.6478 15.5236ZM50.6384 15.5186C50.6382 15.5162 50.6382 15.5162 50.6377 15.5162C50.6382 15.5162 50.6382 15.5186 50.6384 15.5186ZM49.4957 15.1316H49.4955C49.4955 15.1316 49.4955 15.1316 49.4957 15.1316ZM49.4198 15.1218C49.4191 15.1218 49.4186 15.1218 49.4179 15.1218C49.4186 15.1218 49.4193 15.1218 49.4198 15.1218ZM49.3856 15.1193C49.3853 15.1193 49.3853 15.1193 49.3851 15.1193C49.3853 15.1193 49.3856 15.1193 49.3856 15.1193ZM49.375 15.1193C49.3745 15.1193 49.374 15.1193 49.3732 15.1193C49.3737 15.1193 49.3745 15.1193 49.375 15.1193ZM49.3646 15.1169C49.3636 15.1169 49.3626 15.1169 49.3619 15.1169C49.3629 15.1169 49.3636 15.1169 49.3646 15.1169ZM49.2525 15.1119C49.2517 15.1119 49.2507 15.1119 49.2498 15.1119C49.2507 15.1119 49.2515 15.1119 49.2525 15.1119ZM49.2204 15.1095C49.2192 15.1095 49.2185 15.1095 49.2172 15.1095C49.2182 15.1095 49.2192 15.1095 49.2204 15.1095ZM47.1759 14.7225H46.4034V14.1753C46.4034 13.9165 46.3448 13.67 46.2405 13.4507C46.1725 12.6743 45.6773 12.0211 44.9924 11.7229C45.4254 11.7722 45.8247 11.9348 46.1599 12.1813C46.7754 12.6299 47.1759 13.357 47.1759 14.1753V14.7225ZM37.3136 14.7225H36.5412V14.1753C36.5412 13.9165 36.4828 13.67 36.378 13.4507C36.31 12.6743 35.8151 12.0187 35.1301 11.7229C35.5632 11.7722 35.9627 11.9348 36.2982 12.1813C36.9134 12.6299 37.3136 13.357 37.3136 14.1753V14.7225ZM27.4516 14.7225H26.6792V14.1753C26.6792 13.9165 26.6208 13.67 26.5163 13.4507C26.448 12.6743 25.9531 12.0211 25.2683 11.7229C25.7012 11.7722 26.1007 11.9348 26.4361 12.1813C27.0514 12.6299 27.4516 13.357 27.4516 14.1753V14.7225ZM45.1464 12.2504C45.1437 12.2504 45.1415 12.2479 45.1385 12.2454C45.1412 12.2479 45.1437 12.2504 45.1464 12.2504ZM35.1439 12.1616C35.1434 12.1616 35.1427 12.1616 35.1422 12.1591C35.1427 12.1591 35.1434 12.1616 35.1439 12.1616ZM35.102 12.137C35.0995 12.137 35.0968 12.1345 35.0944 12.1345C35.0968 12.1345 35.0993 12.137 35.102 12.137ZM34.4548 11.9447C34.4479 11.9447 34.4412 11.9423 34.4343 11.9423C34.4412 11.9423 34.4481 11.9447 34.4548 11.9447ZM44.252 11.9398C44.2488 11.9398 44.2453 11.9398 44.2421 11.9398C44.2453 11.9398 44.2485 11.9398 44.252 11.9398ZM34.3567 11.9398C34.3537 11.9398 34.351 11.9398 34.348 11.9373C34.3507 11.9373 34.3537 11.9398 34.3567 11.9398ZM44.2187 11.9398C44.216 11.9398 44.213 11.9398 44.2103 11.9373C44.213 11.9398 44.2157 11.9398 44.2187 11.9398ZM34.335 11.9373C34.3318 11.9373 34.3291 11.9373 34.3259 11.9373C34.3291 11.9373 34.332 11.9373 34.335 11.9373Z" fill="#C7C6C4"/>
<path d="M21.4811 50.2727C20.7866 50.2294 20.1955 49.7991 19.92 49.1933C19.92 49.1933 19.92 49.1933 19.9198 49.1933C19.9126 49.1212 19.9087 49.0467 19.9087 48.9698V22.4206C19.857 22.4182 19.8054 22.4158 19.7539 22.411V21.6369C19.8051 21.6417 19.8568 21.6442 19.9087 21.6466C19.9457 21.649 19.9828 21.649 20.02 21.649H48.8534V22.4206H20.6813V48.9698C20.6813 49.2342 20.752 49.4818 20.8751 49.6982H20.8753C20.9145 49.7655 20.9592 49.8304 21.009 49.8905C21.1371 50.0491 21.298 50.179 21.4809 50.2727H21.4811Z" fill="#91CEEE"/>
<path d="M18.9549 21.4532C17.7278 21.2624 16.717 20.4087 16.2999 19.2736C16.2659 19.0705 16.2483 18.8626 16.2483 18.6497C16.2483 17.6418 16.6404 16.6951 17.3528 15.9832C18.0652 15.2713 19.0122 14.8774 20.0196 14.8774H22.3583V15.6505H21.972V15.1098H19.4787C18.6778 15.1098 17.9245 15.4205 17.3582 15.9881C16.7916 16.5532 16.4797 17.3067 16.4797 18.1091C16.4797 18.1115 16.4797 18.1164 16.4797 18.1189C16.4797 18.1213 16.4797 18.1213 16.4797 18.1213C16.4797 18.1238 16.4797 18.1262 16.4797 18.1287C16.4797 18.1311 16.4797 18.1311 16.4797 18.1336C16.4797 18.136 16.48 18.1384 16.48 18.1409V18.1433C16.48 18.1458 16.48 18.1482 16.48 18.1507C16.48 18.1531 16.48 18.1531 16.48 18.1556C16.4802 18.158 16.4802 18.1604 16.4802 18.1629C16.4802 18.1653 16.4802 18.1654 16.4802 18.1654C16.4804 18.1678 16.4805 18.1727 16.4805 18.1751C16.4805 18.1776 16.4807 18.1776 16.4807 18.18C16.4807 18.18 16.4807 18.1825 16.4807 18.1849C16.4807 18.1874 16.4807 18.1874 16.4807 18.1898C16.4809 18.1923 16.4809 18.1947 16.4809 18.1972L16.4812 18.1996C16.4812 18.202 16.4812 18.2045 16.4814 18.2069C16.4814 18.2094 16.4814 18.2094 16.4814 18.2118C16.4817 18.2143 16.4817 18.2167 16.4817 18.2216C16.4817 18.2216 16.4817 18.2216 16.4819 18.2216C16.4819 18.2241 16.4822 18.229 16.4824 18.2314C16.4824 18.2314 16.4824 18.2314 16.4824 18.2338C16.4824 18.2363 16.4824 18.2388 16.4827 18.2436C16.4827 18.2436 16.4827 18.2436 16.4829 18.2461C16.4829 18.2485 16.4831 18.251 16.4831 18.2534C16.4834 18.2534 16.4834 18.2559 16.4834 18.2559C16.4834 18.2583 16.4836 18.2608 16.4836 18.2632C16.4839 18.2657 16.4839 18.2656 16.4839 18.2656C16.4841 18.2705 16.4844 18.273 16.4844 18.2754C16.4844 18.2779 16.4844 18.2779 16.4844 18.2779C16.4849 18.2852 16.4853 18.2901 16.4856 18.2974C16.4858 18.2999 16.4858 18.2999 16.4858 18.3023C16.4861 18.3048 16.4861 18.3072 16.4863 18.3097L16.4866 18.3121C16.4868 18.3146 16.4871 18.317 16.4871 18.3195C16.4871 18.3219 16.4873 18.3219 16.4873 18.3219C16.4875 18.3268 16.4878 18.3293 16.488 18.3317C16.4885 18.339 16.489 18.3464 16.4897 18.3537V18.3562C16.49 18.3586 16.4902 18.3611 16.4907 18.366C16.491 18.3709 16.4915 18.3733 16.4915 18.3757L16.4917 18.3782C16.4927 18.388 16.4937 18.4002 16.4949 18.41C16.5793 19.2515 17.012 19.9903 17.6469 20.4821C17.9825 20.9151 18.4341 21.2551 18.9549 21.4532ZM44.1654 18.5959C44.1608 18.5959 44.1559 18.5959 44.151 18.5959C44.1493 18.5959 44.1478 18.5959 44.1463 18.5959C44.1429 18.5959 44.1397 18.5959 44.1363 18.5959C44.1346 18.5959 44.1326 18.5959 44.1309 18.5959C44.1277 18.5959 44.1243 18.5959 44.1211 18.5959C44.1194 18.5959 44.1179 18.5959 44.1165 18.5959C44.1118 18.5959 44.1074 18.5959 44.103 18.5959C44.1018 18.5959 44.1006 18.5959 44.0993 18.5959C44.0957 18.5959 44.0915 18.5959 44.0876 18.5959C44.0859 18.5959 44.0839 18.5959 44.0822 18.5959C44.0793 18.5959 44.0764 18.5959 44.0732 18.5959C44.0712 18.5959 44.0693 18.5935 44.0673 18.5935C44.0644 18.5935 44.0614 18.5935 44.0587 18.5935C44.0568 18.5935 44.0546 18.5935 44.0526 18.5935C44.0497 18.5935 44.0465 18.5935 44.0433 18.5935C44.0397 18.5935 44.036 18.5935 44.0323 18.5935C44.0301 18.5935 44.0277 18.5935 44.0252 18.5935C44.0228 18.5935 44.0201 18.591 44.0176 18.591C44.0154 18.591 44.0135 18.591 44.0113 18.591C44.0086 18.591 44.0059 18.591 44.0032 18.591C44.0012 18.591 43.9998 18.591 43.9981 18.591C43.9951 18.591 43.992 18.591 43.989 18.591C43.9885 18.591 43.988 18.591 43.9878 18.591C43.9805 18.5886 43.9731 18.5886 43.966 18.5886C43.9653 18.5886 43.9643 18.5886 43.9633 18.5886C43.9599 18.5886 43.9565 18.5886 43.9531 18.5886C43.9523 18.5861 43.9511 18.5861 43.9504 18.5861C43.9467 18.5861 43.943 18.5861 43.9394 18.5861C43.9389 18.5861 43.9384 18.5861 43.9381 18.5861C43.4824 18.5445 43.0621 18.3782 42.7118 18.1213C42.4669 17.7862 42.3042 17.3874 42.2541 16.9544C42.5513 17.6394 43.2062 18.1336 43.9809 18.2021C44.2009 18.3072 44.447 18.366 44.7063 18.366C45.642 18.366 46.4033 17.6027 46.4033 16.6682V14.7233H47.1759V14.8774H49.6695C49.8813 14.8774 50.0895 14.8946 50.2921 14.9288C51.4286 15.3472 52.2814 16.3575 52.473 17.5856C52.2746 17.0645 51.935 16.6119 51.5015 16.2768C51.3073 16.0272 51.0742 15.8071 50.8114 15.6285H50.8112C50.8087 15.626 50.8063 15.6236 50.8038 15.6236C50.8036 15.6236 50.8036 15.6236 50.8036 15.6236C50.8011 15.6211 50.7987 15.6187 50.7963 15.6187C50.7963 15.6187 50.7963 15.6162 50.796 15.6162C50.7867 15.6114 50.7772 15.604 50.7676 15.5991C50.7671 15.5991 50.7664 15.5967 50.7654 15.5967C50.7637 15.5967 50.762 15.5942 50.7603 15.5942C50.7593 15.5942 50.7583 15.5918 50.7574 15.5918C50.7556 15.5918 50.7539 15.5893 50.7525 15.5893C50.7512 15.5869 50.7503 15.5869 50.7493 15.5869C50.7476 15.5844 50.7459 15.5844 50.7444 15.5844C50.7429 15.582 50.7419 15.582 50.7405 15.582C50.7393 15.5795 50.7378 15.5796 50.7363 15.5771C50.7341 15.5771 50.7317 15.5747 50.7295 15.5747C50.729 15.5747 50.7285 15.5722 50.728 15.5722C50.7253 15.5722 50.7226 15.5698 50.7199 15.5673C50.7189 15.5673 50.718 15.5673 50.717 15.5649C50.7153 15.5649 50.7133 15.5649 50.7116 15.5624C50.7104 15.5624 50.7094 15.5624 50.7084 15.56C50.7067 15.56 50.7048 15.5575 50.703 15.5575C50.7018 15.5575 50.7008 15.5551 50.6999 15.5551C50.6979 15.5551 50.6959 15.5526 50.694 15.5526C50.6933 15.5502 50.6925 15.5502 50.6916 15.5502C50.6893 15.5477 50.6869 15.5477 50.6847 15.5453C50.6842 15.5453 50.6837 15.5453 50.683 15.5453C50.6771 15.5404 50.6712 15.538 50.6654 15.5355C50.6654 15.5355 50.6651 15.5331 50.6649 15.5331C50.6622 15.5331 50.6595 15.5306 50.6568 15.5282C50.6563 15.5282 50.6558 15.5282 50.6556 15.5282C50.6529 15.5282 50.6504 15.5257 50.6478 15.5233C50.6475 15.5233 50.647 15.5233 50.6465 15.5233C50.6438 15.5208 50.6412 15.5208 50.6385 15.5184C50.6382 15.5184 50.6382 15.5184 50.6377 15.5184C50.2947 15.3178 49.908 15.1832 49.4958 15.1319C49.4955 15.1319 49.4955 15.1319 49.4955 15.1319C49.4774 15.1294 49.4593 15.127 49.4412 15.127C49.4407 15.127 49.4402 15.127 49.4397 15.1245C49.4368 15.1245 49.4339 15.1245 49.4309 15.1245C49.4302 15.1245 49.4292 15.1245 49.4282 15.1245C49.4256 15.1245 49.4226 15.1245 49.4199 15.1245C49.4192 15.1245 49.4187 15.1245 49.418 15.1245C49.4148 15.1221 49.4114 15.1221 49.4082 15.1221C49.4079 15.1221 49.4077 15.1221 49.4075 15.1221C49.4001 15.1221 49.3928 15.1221 49.3854 15.1196H49.3852C49.3818 15.1196 49.3783 15.1196 49.3752 15.1196C49.3744 15.1196 49.3739 15.1196 49.3732 15.1196C49.3705 15.1196 49.3676 15.1196 49.3646 15.1196C49.3637 15.1196 49.3629 15.1196 49.3619 15.1196C49.359 15.1196 49.3563 15.1172 49.3536 15.1172C49.3529 15.1172 49.3522 15.1172 49.3517 15.1172C49.3485 15.1172 49.3453 15.1172 49.3424 15.1172C49.3419 15.1172 49.3414 15.1172 49.3409 15.1172C49.3336 15.1172 49.3265 15.1172 49.3191 15.1147C49.3186 15.1147 49.3182 15.1147 49.3177 15.1147C49.3147 15.1147 49.3118 15.1147 49.3086 15.1147C49.3079 15.1147 49.3072 15.1147 49.3064 15.1147C49.3037 15.1147 49.3008 15.1147 49.2981 15.1147C49.2971 15.1147 49.2961 15.1147 49.2954 15.1147C49.2927 15.1147 49.29 15.1147 49.2873 15.1147C49.2864 15.1147 49.2854 15.1147 49.2844 15.1147C49.2815 15.1123 49.2788 15.1123 49.2761 15.1123C49.2753 15.1123 49.2746 15.1123 49.2739 15.1123C49.2668 15.1123 49.2597 15.1123 49.2524 15.1123C49.2516 15.1123 49.2506 15.1123 49.2499 15.1123C49.2472 15.1123 49.2448 15.1123 49.2421 15.1123C49.2409 15.1123 49.2396 15.1123 49.2387 15.1123C49.2362 15.1123 49.2338 15.1123 49.2313 15.1123C49.2301 15.1123 49.2289 15.1123 49.2276 15.1123C49.2252 15.1123 49.2228 15.1123 49.2206 15.1098C49.2193 15.1098 49.2184 15.1098 49.2171 15.1098C49.2147 15.1098 49.2122 15.1098 49.2098 15.1098C49.2086 15.1098 49.2073 15.1098 49.2064 15.1098C49.1993 15.1098 49.1924 15.1098 49.1853 15.1098C49.1841 15.1098 49.1831 15.1098 49.1821 15.1098C49.1795 15.1098 49.1773 15.1098 49.1746 15.1098C49.1736 15.1098 49.1721 15.1098 49.1709 15.1098C49.1687 15.1098 49.1665 15.1098 49.1643 15.1098C49.1628 15.1098 49.1614 15.1098 49.1601 15.1098C49.1577 15.1098 49.1555 15.1098 49.1533 15.1098C49.1521 15.1098 49.1506 15.1098 49.1494 15.1098C49.1472 15.1098 49.1445 15.1098 49.1423 15.1098C49.141 15.1098 49.1398 15.1098 49.1388 15.1098C49.1352 15.1098 49.1317 15.1098 49.1281 15.1098H46.635V16.1275C46.635 17.4877 45.5273 18.5959 44.1654 18.5959ZM34.3034 18.5959C34.2987 18.5959 34.2939 18.5959 34.289 18.5959C34.2872 18.5959 34.2858 18.5959 34.2843 18.5959C34.2809 18.5959 34.2777 18.5959 34.2743 18.5959C34.2723 18.5959 34.2706 18.5959 34.2689 18.5959C34.2655 18.5959 34.2623 18.5959 34.2591 18.5959C34.2576 18.5959 34.2559 18.5959 34.2545 18.5959C34.2501 18.5959 34.2457 18.5959 34.2413 18.5959C34.2398 18.5959 34.2386 18.5959 34.2371 18.5959C34.2334 18.5959 34.2295 18.5959 34.2256 18.5959C34.2239 18.5959 34.2219 18.5959 34.22 18.5959C34.2173 18.5959 34.2143 18.5959 34.2114 18.5959C34.2092 18.5959 34.2073 18.5935 34.2051 18.5935C34.2024 18.5935 34.1997 18.5935 34.1967 18.5935C34.1948 18.5935 34.1926 18.5935 34.1904 18.5935C34.1879 18.5935 34.1852 18.5935 34.1825 18.5935C34.1781 18.5935 34.1737 18.5935 34.1693 18.5935C34.1674 18.5935 34.1654 18.5935 34.1635 18.5935C34.1608 18.5935 34.1578 18.591 34.1551 18.591C34.1532 18.591 34.1515 18.591 34.1498 18.591C34.1466 18.591 34.1436 18.591 34.1407 18.591C34.1395 18.591 34.138 18.591 34.1366 18.591C34.1251 18.591 34.1136 18.5886 34.1021 18.5886C34.1021 18.5886 34.1021 18.5886 34.1018 18.5886C34.0979 18.5886 34.094 18.5886 34.0901 18.5861C34.0898 18.5861 34.0893 18.5861 34.0888 18.5861C33.6284 18.547 33.2035 18.3806 32.8495 18.1213C32.6042 17.7862 32.4415 17.3874 32.3916 16.9544C32.6888 17.6394 33.3437 18.1336 34.1192 18.2021C34.3391 18.3072 34.5852 18.366 34.8445 18.366C35.7803 18.366 36.5411 17.6027 36.5411 16.6682V14.7233H37.3136V14.8774H42.0823V15.6505H41.6963V15.1098H36.7728V16.1275C36.7728 17.4877 35.665 18.5959 34.3034 18.5959ZM24.4411 18.5959C24.4365 18.5959 24.4316 18.5959 24.4267 18.5959C24.4252 18.5959 24.4238 18.5959 24.4221 18.5959C24.4186 18.5959 24.4155 18.5959 24.412 18.5959C24.4103 18.5959 24.4084 18.5959 24.4067 18.5959C24.4035 18.5959 24.4 18.5959 24.3966 18.5959C24.3954 18.5959 24.3937 18.5959 24.3922 18.5959C24.3876 18.5959 24.3829 18.5959 24.378 18.5959C24.3775 18.5959 24.3768 18.5959 24.3761 18.5959C24.3719 18.5959 24.3675 18.5959 24.3633 18.5959C24.3616 18.5959 24.3602 18.5959 24.3587 18.5959C24.3553 18.5959 24.3521 18.5959 24.3487 18.5959C24.347 18.5959 24.3452 18.5935 24.3435 18.5935C24.3401 18.5935 24.3367 18.5935 24.3335 18.5935C24.332 18.5935 24.3303 18.5935 24.3289 18.5935C24.3245 18.5935 24.3201 18.5935 24.3159 18.5935C24.3142 18.5935 24.3127 18.5935 24.3112 18.5935C24.3076 18.5935 24.3041 18.5935 24.3005 18.5935C24.2985 18.5935 24.2966 18.591 24.2946 18.591C24.2919 18.591 24.289 18.591 24.2863 18.591C24.2841 18.591 24.2819 18.591 24.2799 18.591C24.277 18.591 24.2745 18.591 24.2719 18.591C24.2697 18.591 24.2677 18.591 24.2655 18.591C24.2618 18.591 24.2584 18.5886 24.2547 18.5886C24.2523 18.5886 24.2496 18.5886 24.2469 18.5886C24.244 18.5886 24.241 18.5886 24.2381 18.5886C24.2359 18.5886 24.2337 18.5886 24.2312 18.5886C24.229 18.5886 24.2266 18.5861 24.2244 18.5861C24.222 18.5861 24.2193 18.5861 24.2168 18.5861C24.2146 18.5861 24.2127 18.5861 24.2102 18.5861C24.2078 18.5861 24.2053 18.5861 24.2026 18.5861C24.2009 18.5837 24.199 18.5837 24.1972 18.5837C24.1919 18.5837 24.1867 18.5837 24.1813 18.5837C24.1799 18.5837 24.1782 18.5837 24.1767 18.5812C24.1738 18.5812 24.1708 18.5812 24.1679 18.5812C24.1662 18.5812 24.1647 18.5812 24.163 18.5812C24.1601 18.5812 24.1571 18.5812 24.1539 18.5788C24.1527 18.5788 24.1513 18.5788 24.15 18.5788C24.1388 18.5788 24.1278 18.5763 24.1168 18.5763C24.1163 18.5763 24.116 18.5739 24.1155 18.5739C24.1121 18.5739 24.1084 18.5739 24.1048 18.5739C24.104 18.5739 24.1033 18.5739 24.1023 18.5739C24.0987 18.5739 24.0952 18.5714 24.0913 18.5714C24.0913 18.5714 24.0911 18.5714 24.0908 18.5714C23.6825 18.5127 23.3063 18.3537 22.9875 18.1213C22.7421 17.7862 22.5797 17.3874 22.5298 16.9544C22.8268 17.6394 23.4817 18.1336 24.2569 18.2021C24.4771 18.3072 24.723 18.366 24.9823 18.366C25.918 18.366 26.6793 17.6027 26.6793 16.6682V14.7233H27.4516V14.8774H32.2201V15.6505H31.834V15.1098H26.9107V16.1275C26.9107 17.4877 25.803 18.5959 24.4411 18.5959Z" fill="#DFDFDD"/>
<path d="M17.647 20.4817C17.0123 19.9904 16.5795 19.2524 16.4949 18.4116C16.4949 18.4092 16.4949 18.4092 16.4949 18.4092C16.4939 18.3994 16.4927 18.3872 16.492 18.3774H16.4917C16.4915 18.3725 16.4912 18.3701 16.491 18.3676C16.491 18.3652 16.4907 18.3652 16.4907 18.3652C16.4905 18.3628 16.4902 18.3579 16.49 18.3554C16.4893 18.3481 16.4888 18.3408 16.4883 18.3334C16.4883 18.3334 16.4883 18.3334 16.4883 18.331C16.4878 18.3285 16.4876 18.3261 16.4873 18.3237C16.4873 18.3212 16.4873 18.3212 16.4873 18.3212C16.4871 18.3163 16.4868 18.3139 16.4866 18.3114V18.309C16.4863 18.3066 16.4863 18.3041 16.4861 18.3016C16.4858 18.3016 16.4858 18.2992 16.4858 18.2992C16.4854 18.2919 16.4849 18.2845 16.4846 18.2772C16.4844 18.2723 16.4841 18.2699 16.4839 18.2674C16.4839 18.265 16.4839 18.265 16.4839 18.265C16.4836 18.2625 16.4836 18.2601 16.4836 18.2577C16.4834 18.2552 16.4834 18.2552 16.4834 18.2528C16.4832 18.2503 16.4832 18.2479 16.4829 18.2454V18.243C16.4827 18.2406 16.4827 18.2357 16.4824 18.2332C16.4822 18.2283 16.4822 18.2259 16.4819 18.221C16.4819 18.2186 16.4817 18.2137 16.4817 18.2112C16.4817 18.2112 16.4817 18.2088 16.4814 18.2088C16.4814 18.2063 16.4814 18.2039 16.4812 18.2015C16.4812 18.199 16.4812 18.199 16.4812 18.1966C16.481 18.1941 16.481 18.1917 16.481 18.1892V18.1868C16.481 18.1844 16.4807 18.1819 16.4807 18.1794C16.4807 18.177 16.4807 18.177 16.4807 18.177C16.4805 18.1721 16.4805 18.1697 16.4805 18.1648C16.4802 18.1599 16.4802 18.1575 16.4802 18.155V18.1526C16.4802 18.1501 16.48 18.1477 16.48 18.1452C16.48 18.1428 16.48 18.1428 16.48 18.1404C16.48 18.1379 16.48 18.1355 16.48 18.133V18.1306C16.48 18.1281 16.48 18.1257 16.48 18.1232C16.48 18.1208 16.48 18.1208 16.48 18.1183C16.48 18.1159 16.48 18.1135 16.48 18.1086C16.48 17.307 16.7918 16.5542 17.3584 15.9872C17.9249 15.4226 18.6779 15.1098 19.479 15.1098H21.9721V15.6499H20.0199C19.2187 15.6499 18.4657 15.9628 17.8995 16.5298C17.3329 17.0943 17.0211 17.8495 17.0211 18.6487C17.0211 19.3379 17.2545 19.9758 17.647 20.4817ZM44.7066 19.1375C43.8883 19.1375 43.162 18.7367 42.7125 18.1232C43.0627 18.3774 43.4829 18.5436 43.9382 18.5852C43.9387 18.5852 43.9392 18.5852 43.9396 18.5852C43.9433 18.5876 43.9467 18.5876 43.9504 18.5876C43.9514 18.5876 43.9524 18.5876 43.9533 18.5876C43.9568 18.5876 43.9602 18.5876 43.9636 18.5876C43.9646 18.5876 43.9653 18.5876 43.966 18.5876C43.9734 18.59 43.9807 18.5901 43.9878 18.5901C43.9883 18.5901 43.9888 18.5901 43.9893 18.5901C43.9922 18.5901 43.9951 18.5901 43.9983 18.5901C44 18.5901 44.0015 18.59 44.0032 18.5925C44.0061 18.5925 44.0088 18.5925 44.0115 18.5925C44.0137 18.5925 44.0157 18.5925 44.0176 18.5925C44.0203 18.5925 44.023 18.5925 44.0254 18.5925C44.0279 18.5925 44.0303 18.5925 44.0325 18.5925C44.0364 18.5925 44.0398 18.5925 44.0435 18.5925C44.0467 18.5949 44.0496 18.5949 44.0528 18.5949C44.0548 18.5949 44.057 18.5949 44.0587 18.5949C44.0616 18.5949 44.0645 18.5949 44.0675 18.5949C44.0694 18.5949 44.0714 18.5949 44.0733 18.5949C44.0765 18.5949 44.0794 18.5949 44.0824 18.5949C44.0841 18.5949 44.086 18.5949 44.0878 18.5949C44.0917 18.5949 44.0958 18.5949 44.0997 18.5949C44.1009 18.5949 44.1019 18.5949 44.1034 18.5949C44.1078 18.5949 44.112 18.5949 44.1166 18.5974C44.1181 18.5974 44.1198 18.5974 44.1212 18.5974C44.1244 18.5974 44.1278 18.5974 44.131 18.5974C44.133 18.5974 44.1347 18.5974 44.1364 18.5974C44.1398 18.5974 44.143 18.5974 44.1464 18.5974C44.1479 18.5974 44.1496 18.5974 44.1511 18.5974C44.1559 18.5974 44.1608 18.5974 44.1657 18.5974C45.5273 18.5974 46.6351 17.4878 46.6351 16.1265V15.1098H49.1282C49.1319 15.1098 49.1353 15.1098 49.139 15.1098C49.14 15.1098 49.1412 15.1098 49.1424 15.1098C49.1446 15.1098 49.1473 15.1098 49.1495 15.1098C49.151 15.1098 49.1522 15.1098 49.1534 15.1098C49.1556 15.1098 49.1578 15.1098 49.1602 15.1098C49.1615 15.1098 49.1629 15.1098 49.1644 15.1098C49.1668 15.1098 49.1688 15.1098 49.1712 15.1098C49.1722 15.1098 49.1737 15.1098 49.1749 15.1098C49.1774 15.1098 49.1796 15.1098 49.1822 15.1098C49.1832 15.1098 49.1844 15.1098 49.1857 15.1098C49.1925 15.1098 49.1994 15.1098 49.2064 15.1098C49.2077 15.1098 49.2086 15.1098 49.2099 15.1098C49.2123 15.1098 49.215 15.1122 49.2174 15.1122C49.2187 15.1122 49.2194 15.1122 49.2206 15.1122C49.2231 15.1122 49.2255 15.1122 49.2277 15.1122C49.2289 15.1122 49.2304 15.1122 49.2314 15.1122C49.2341 15.1122 49.2363 15.1122 49.2387 15.1122C49.2399 15.1122 49.2409 15.1122 49.2424 15.1122C49.2448 15.1122 49.2475 15.1122 49.2499 15.1122C49.2509 15.1122 49.2519 15.1122 49.2526 15.1122C49.2597 15.1122 49.2668 15.1122 49.2741 15.1122C49.2749 15.1122 49.2754 15.1123 49.2763 15.1147C49.279 15.1147 49.2817 15.1147 49.2844 15.1147C49.2854 15.1147 49.2864 15.1147 49.2873 15.1147C49.29 15.1147 49.2927 15.1147 49.2954 15.1147C49.2964 15.1147 49.2971 15.1147 49.2981 15.1147C49.3008 15.1147 49.3037 15.1147 49.3064 15.1147C49.3071 15.1147 49.3081 15.1147 49.3088 15.1147C49.3118 15.1147 49.3147 15.1147 49.3179 15.1147C49.3184 15.1147 49.3189 15.1147 49.3194 15.1147C49.3264 15.1171 49.3338 15.1171 49.3409 15.1171C49.3416 15.1171 49.3421 15.1171 49.3426 15.1171C49.3455 15.1171 49.3487 15.1171 49.3519 15.1171C49.3523 15.1171 49.3531 15.1171 49.3538 15.1171C49.3565 15.1196 49.3592 15.1196 49.3621 15.1196C49.3629 15.1196 49.3638 15.1196 49.3648 15.1196C49.3677 15.1196 49.3707 15.1196 49.3734 15.1196C49.3741 15.1196 49.3746 15.1196 49.3753 15.1196C49.3785 15.1196 49.3819 15.1196 49.3853 15.122H49.3856C49.3929 15.122 49.4003 15.122 49.4076 15.122C49.4078 15.122 49.4081 15.122 49.4086 15.122C49.4115 15.122 49.4149 15.1245 49.4181 15.1245C49.4188 15.1245 49.4193 15.1245 49.42 15.1245C49.423 15.1245 49.4257 15.1245 49.4286 15.1245C49.4293 15.1245 49.4303 15.1245 49.4313 15.1245C49.434 15.1245 49.4369 15.1245 49.4398 15.1269C49.4403 15.1269 49.4408 15.1269 49.4413 15.1269C49.4594 15.1269 49.4775 15.1294 49.4956 15.1318C49.4958 15.1318 49.4958 15.1318 49.4958 15.1318C49.9081 15.1831 50.2947 15.3176 50.6379 15.518C50.6384 15.518 50.6384 15.518 50.6386 15.518C50.6413 15.5204 50.644 15.5229 50.6467 15.5229C50.6469 15.5229 50.6477 15.5228 50.6479 15.5253C50.6506 15.5253 50.653 15.5277 50.6557 15.5277C50.6562 15.5277 50.6565 15.5302 50.6569 15.5302C50.6596 15.5302 50.6626 15.5326 50.6653 15.5351H50.6655C50.6716 15.5375 50.6772 15.5424 50.6831 15.5448C50.6838 15.5448 50.6843 15.5448 50.6851 15.5473C50.6872 15.5473 50.6894 15.5497 50.6919 15.5497C50.6926 15.5522 50.6934 15.5522 50.6943 15.5522C50.6963 15.5522 50.6982 15.5546 50.7 15.5546C50.7009 15.5571 50.7022 15.5571 50.7031 15.5571C50.7049 15.5595 50.7068 15.5595 50.7085 15.5619C50.7097 15.5619 50.7107 15.5619 50.7117 15.5619C50.7134 15.5644 50.7154 15.5644 50.7171 15.5668C50.7183 15.5668 50.719 15.5668 50.72 15.5668C50.7227 15.5693 50.7256 15.5717 50.7283 15.5742C50.7288 15.5742 50.7293 15.5742 50.7298 15.5742C50.732 15.5766 50.7342 15.5766 50.7364 15.5791C50.7378 15.5791 50.7393 15.5791 50.7408 15.5815C50.742 15.5815 50.7432 15.5815 50.7444 15.584C50.7459 15.584 50.7476 15.5864 50.7493 15.5864C50.7503 15.5864 50.7513 15.5888 50.7525 15.5888C50.7542 15.5888 50.7559 15.5913 50.7576 15.5913C50.7586 15.5937 50.7593 15.5937 50.7603 15.5937C50.7623 15.5962 50.764 15.5962 50.7657 15.5962C50.7664 15.5986 50.7672 15.5986 50.7679 15.5986C50.7774 15.6059 50.7867 15.6108 50.7963 15.6182H50.7965C50.7989 15.6182 50.8014 15.6206 50.8038 15.623C50.8038 15.623 50.8038 15.623 50.8041 15.623C50.8065 15.6255 50.809 15.6255 50.8114 15.6279C51.0744 15.8064 51.3073 16.0263 51.5016 16.278C50.9945 15.8845 50.359 15.6499 49.6696 15.6499H47.1762V16.6691C47.1762 18.0304 46.0686 19.1375 44.7066 19.1375ZM34.8446 19.1375C34.0263 19.1375 33.2995 18.7367 32.8501 18.1232C33.2037 18.3799 33.6285 18.5485 34.0892 18.5876C34.0894 18.5876 34.0899 18.5876 34.0904 18.5876C34.0943 18.5876 34.0982 18.5876 34.1021 18.5876C34.1138 18.59 34.1251 18.5901 34.1368 18.5901C34.138 18.5901 34.1397 18.59 34.141 18.5925C34.1439 18.5925 34.1468 18.5925 34.1498 18.5925C34.1517 18.5925 34.1534 18.5925 34.1551 18.5925C34.1581 18.5925 34.1608 18.5925 34.1637 18.5925C34.1657 18.5925 34.1676 18.5925 34.1696 18.5925C34.174 18.5925 34.1784 18.5925 34.1828 18.5925C34.1852 18.5949 34.1879 18.5949 34.1906 18.5949C34.1928 18.5949 34.195 18.5949 34.1969 18.5949C34.1999 18.5949 34.2026 18.5949 34.2052 18.5949C34.2074 18.5949 34.2096 18.5949 34.2116 18.5949C34.2145 18.5949 34.2175 18.5949 34.2202 18.5949C34.2221 18.5949 34.2238 18.5949 34.2258 18.5949C34.2297 18.5949 34.2336 18.5949 34.2373 18.5949C34.2387 18.5949 34.2402 18.5949 34.2414 18.5949C34.2458 18.5949 34.2502 18.5949 34.2546 18.5974C34.2561 18.5974 34.2575 18.5974 34.2593 18.5974C34.2624 18.5974 34.2656 18.5974 34.269 18.5974C34.2707 18.5974 34.2727 18.5974 34.2744 18.5974C34.2778 18.5974 34.281 18.5974 34.2844 18.5974C34.2859 18.5974 34.2874 18.5974 34.2891 18.5974C34.294 18.5974 34.2988 18.5974 34.3037 18.5974C35.6653 18.5974 36.7729 17.4878 36.7729 16.1265V15.1098H41.6963V15.6499H37.3138V16.6691C37.3138 18.0304 36.2061 19.1375 34.8446 19.1375ZM24.9826 19.1375C24.1644 19.1375 23.4378 18.7367 22.9883 18.1232C23.3068 18.3554 23.6829 18.5143 24.091 18.5729C24.0913 18.5729 24.0913 18.5729 24.0915 18.5729C24.0954 18.5729 24.0989 18.5729 24.1025 18.5729C24.1035 18.5729 24.1042 18.5729 24.105 18.5729C24.1086 18.5754 24.1121 18.5754 24.1157 18.5754C24.1162 18.5754 24.1165 18.5754 24.117 18.5754C24.128 18.5778 24.139 18.5778 24.1502 18.5803C24.1514 18.5803 24.1529 18.5803 24.1543 18.5803C24.1573 18.5803 24.1602 18.5803 24.1631 18.5803C24.1649 18.5803 24.1663 18.5803 24.168 18.5827C24.171 18.5827 24.1739 18.5827 24.1768 18.5827C24.1783 18.5827 24.18 18.5827 24.1815 18.5827C24.1869 18.5827 24.192 18.5852 24.1974 18.5852C24.1991 18.5852 24.201 18.5852 24.2027 18.5852C24.2054 18.5852 24.2079 18.5852 24.2106 18.5852C24.2128 18.5852 24.215 18.5852 24.2172 18.5876C24.2194 18.5876 24.222 18.5876 24.2245 18.5876C24.2269 18.5876 24.2291 18.5876 24.2316 18.5876C24.2338 18.5876 24.236 18.5876 24.2382 18.5876C24.2414 18.5876 24.244 18.5901 24.247 18.5901C24.2497 18.5901 24.2523 18.5901 24.255 18.5901C24.2587 18.5901 24.2621 18.5901 24.2658 18.5901C24.2677 18.5901 24.2699 18.5901 24.2719 18.5901C24.2746 18.5901 24.2773 18.59 24.2802 18.5925C24.2822 18.5925 24.2844 18.5925 24.2866 18.5925C24.2893 18.5925 24.2919 18.5925 24.2949 18.5925C24.2968 18.5925 24.2988 18.5925 24.3007 18.5925C24.3042 18.5925 24.3078 18.5925 24.3113 18.5925C24.313 18.5925 24.3144 18.5925 24.3159 18.5925C24.3203 18.5925 24.3247 18.5949 24.3291 18.5949C24.3306 18.5949 24.332 18.5949 24.3337 18.5949C24.3369 18.5949 24.3403 18.5949 24.3438 18.5949C24.3455 18.5949 24.3472 18.5949 24.3489 18.5949C24.3521 18.5949 24.3555 18.5949 24.3587 18.5949C24.3601 18.5949 24.3618 18.5949 24.3633 18.5949C24.3677 18.5949 24.3721 18.5949 24.3763 18.5949C24.377 18.5949 24.3777 18.5949 24.3782 18.5949C24.3831 18.5949 24.3877 18.5949 24.3924 18.5974C24.3939 18.5974 24.3953 18.5974 24.3968 18.5974C24.4002 18.5974 24.4036 18.5974 24.4068 18.5974C24.4088 18.5974 24.4105 18.5974 24.4124 18.5974C24.4156 18.5974 24.4188 18.5974 24.4222 18.5974C24.4239 18.5974 24.4254 18.5974 24.4269 18.5974C24.4317 18.5974 24.4366 18.5974 24.4415 18.5974C25.8033 18.5974 26.9109 17.4878 26.9109 16.1265V15.1098H31.8341V15.6499H27.4518V16.6691C27.4518 18.0304 26.3442 19.1375 24.9826 19.1375Z" fill="#DFDFDD"/>
<path d="M43.9812 18.2023C43.2063 18.1333 42.5516 17.6403 42.2543 16.9551C42.2432 16.8614 42.2373 16.7653 42.2373 16.6691V15.6511H42.0825V14.8772H42.2373V14.1772C42.2373 12.8141 43.3448 11.7074 44.7066 11.7074C44.8032 11.7074 44.8989 11.7123 44.9925 11.7246C45.6775 12.0204 46.1727 12.676 46.2407 13.4525C46.101 13.1567 45.8791 12.9102 45.6048 12.7377C45.4959 12.5627 45.3561 12.4098 45.1934 12.2866C45.1932 12.2866 45.1929 12.2866 45.1924 12.2866C45.1897 12.2841 45.1868 12.2817 45.1841 12.2792C45.1833 12.2792 45.1828 12.2792 45.1821 12.2792C45.1808 12.2767 45.1794 12.2767 45.1781 12.2743C45.1769 12.2743 45.1759 12.2743 45.1747 12.2718C45.1732 12.2718 45.1715 12.2693 45.17 12.2693C45.1685 12.2669 45.1668 12.2669 45.1651 12.2644C45.1643 12.2644 45.1634 12.2644 45.1626 12.2644C45.1604 12.2619 45.1579 12.2595 45.1557 12.2595C45.1555 12.2595 45.155 12.257 45.1547 12.257C45.1525 12.257 45.1503 12.2546 45.1481 12.2521C45.1476 12.2521 45.1471 12.2521 45.1466 12.2521C45.1439 12.2496 45.1414 12.2496 45.1387 12.2472C44.9021 12.0796 44.6216 11.9736 44.3179 11.9465C44.3174 11.9465 44.3172 11.9465 44.3169 11.9465C44.31 11.944 44.3034 11.944 44.2965 11.944C44.2962 11.944 44.2957 11.944 44.2952 11.944C44.2888 11.944 44.2819 11.944 44.2755 11.9415C44.2748 11.9415 44.274 11.9415 44.2735 11.9415C44.2703 11.9415 44.2669 11.9415 44.2637 11.9415C44.2634 11.9415 44.2634 11.9415 44.2632 11.9415C44.26 11.9415 44.257 11.9415 44.2536 11.9415C44.2531 11.9415 44.2528 11.9415 44.2521 11.9415C44.2489 11.9415 44.2457 11.9415 44.2422 11.9415C44.2417 11.9415 44.2415 11.9415 44.241 11.9415C44.238 11.9415 44.2353 11.9415 44.2324 11.9391C44.2316 11.9391 44.2311 11.9391 44.2304 11.9391C44.2272 11.9391 44.2242 11.9391 44.221 11.9391C44.2203 11.9391 44.2196 11.9391 44.2188 11.9391C44.2159 11.9391 44.2134 11.9391 44.2104 11.9391C44.2099 11.9391 44.2094 11.9391 44.209 11.9391C44.2058 11.9391 44.2025 11.9391 44.1993 11.9391C44.1986 11.9391 44.1979 11.9391 44.1969 11.9391C44.1942 11.9391 44.191 11.9391 44.1883 11.9391C44.1878 11.9391 44.1875 11.9391 44.1873 11.9391C44.1841 11.9391 44.1809 11.9391 44.1777 11.9391C44.1769 11.9391 44.1762 11.9391 44.1754 11.9391C44.172 11.9391 44.1688 11.9391 44.1656 11.9391C43.2299 11.9391 42.469 12.7007 42.469 13.6349V16.1269C42.469 16.1293 42.469 16.1343 42.469 16.1367V16.1392C42.469 16.1416 42.469 16.1466 42.469 16.149C42.469 16.1515 42.469 16.1564 42.4693 16.1589C42.4693 16.1589 42.4693 16.1589 42.4693 16.1614C42.4693 16.1638 42.4695 16.1663 42.4695 16.1712C42.4695 16.1737 42.4698 16.1786 42.4698 16.1811C42.4698 16.1811 42.4698 16.1811 42.4698 16.1835C42.47 16.186 42.47 16.1885 42.4702 16.191C42.4702 16.1934 42.4702 16.1934 42.4702 16.1934C42.4702 16.1959 42.4705 16.1983 42.4705 16.2008C42.4707 16.2033 42.4707 16.2033 42.4707 16.2033C42.4707 16.2082 42.471 16.2107 42.471 16.2131C42.4712 16.2131 42.4712 16.2156 42.4712 16.2156C42.4715 16.2181 42.4715 16.2205 42.4717 16.223C42.4717 16.2255 42.4717 16.2254 42.4717 16.2254C42.472 16.2279 42.4722 16.2304 42.4725 16.2353C42.4725 16.2353 42.4725 16.2353 42.4725 16.2378C42.4727 16.2402 42.473 16.2427 42.473 16.2452C42.4732 16.2452 42.4732 16.2476 42.4732 16.2476C42.4732 16.2501 42.4734 16.2526 42.4737 16.255C42.4739 16.2575 42.4739 16.2575 42.4739 16.26C42.4742 16.2624 42.4744 16.2649 42.4747 16.2674L42.4749 16.2698C42.4752 16.2723 42.4752 16.2748 42.4754 16.2772C42.4757 16.2772 42.4757 16.2797 42.4759 16.2797C42.4759 16.2821 42.4764 16.2871 42.4767 16.2895C42.4767 16.2895 42.4769 16.2895 42.4769 16.292C42.4771 16.2945 42.4774 16.2969 42.4776 16.2994C42.4776 16.2994 42.4776 16.2994 42.4779 16.3019C42.4781 16.3043 42.4784 16.3068 42.4786 16.3093C42.4789 16.3117 42.4789 16.3117 42.4791 16.3142C42.4794 16.3142 42.4796 16.3166 42.4799 16.3191C42.4799 16.3216 42.4801 16.3216 42.4801 16.324C42.4804 16.3265 42.4808 16.329 42.4811 16.3314C42.4813 16.3314 42.4813 16.3339 42.4816 16.3339C42.4818 16.3364 42.4821 16.3388 42.4823 16.3413C42.4823 16.3413 42.4826 16.3438 42.4828 16.3438C42.4831 16.3462 42.4833 16.3487 42.4838 16.3512C42.4838 16.3536 42.484 16.3536 42.4843 16.3561C42.4845 16.3585 42.4848 16.3585 42.485 16.361C42.4853 16.3635 42.4855 16.3659 42.4858 16.3659C42.486 16.3684 42.4863 16.3709 42.4868 16.3733C42.487 16.3733 42.4873 16.3758 42.4873 16.3758C42.4875 16.3783 42.4877 16.3807 42.488 16.3832C42.4885 16.3832 42.4885 16.3857 42.489 16.3881C42.4892 16.3906 42.4895 16.3906 42.4897 16.3931C42.49 16.3955 42.4902 16.3955 42.4905 16.398C42.4907 16.4005 42.4909 16.4005 42.4912 16.4029C42.4917 16.4054 42.4919 16.4078 42.4924 16.4103C42.4927 16.4103 42.4929 16.4128 42.4932 16.4128C42.4934 16.4153 42.4937 16.4177 42.4939 16.4177C42.4944 16.4202 42.4946 16.4226 42.4949 16.4226C42.4954 16.4251 42.4956 16.4276 42.4961 16.43C42.4964 16.4325 42.4964 16.4325 42.4966 16.435C42.4978 16.4399 42.4991 16.4448 42.5001 16.4522C42.5003 16.4522 42.5003 16.4522 42.5006 16.4547C42.5013 16.4571 42.502 16.4621 42.5028 16.4645C42.5028 16.467 42.503 16.467 42.503 16.467C42.5033 16.467 42.5038 16.4695 42.5043 16.4719L42.5045 16.4744C42.506 16.4793 42.5072 16.4867 42.5084 16.4916C42.5087 16.4916 42.5087 16.4941 42.5087 16.4941C42.6083 16.9452 42.8878 17.3297 43.2681 17.5663C43.4397 17.8399 43.6871 18.0618 43.9812 18.2023Z" fill="#989998"/>
<path d="M43.2686 17.5659C42.8883 17.3294 42.6084 16.9451 42.5091 16.4943C42.5091 16.4943 42.5091 16.4943 42.5089 16.4943C42.5077 16.4869 42.5062 16.4795 42.505 16.4746L42.5047 16.4721C42.5042 16.4697 42.5037 16.4697 42.5032 16.4672C42.5025 16.4623 42.5015 16.4574 42.5008 16.4549C42.5008 16.4524 42.5005 16.4524 42.5005 16.4524C42.4993 16.445 42.4981 16.4401 42.4971 16.4352C42.4968 16.4327 42.4968 16.4327 42.4966 16.4303C42.4961 16.4278 42.4956 16.4253 42.4954 16.4229C42.4949 16.4229 42.4946 16.4204 42.4944 16.4179C42.4941 16.4179 42.4936 16.4155 42.4936 16.413C42.4934 16.413 42.4931 16.4106 42.4929 16.4106C42.4924 16.4081 42.4919 16.4056 42.4917 16.4032C42.4914 16.4007 42.4912 16.4007 42.4909 16.3982C42.4907 16.3958 42.4904 16.3958 42.4902 16.3933C42.4899 16.3908 42.4897 16.3908 42.4894 16.3884C42.4889 16.3859 42.4887 16.3835 42.4885 16.3835C42.4882 16.381 42.488 16.3785 42.4877 16.3785C42.4875 16.3761 42.4872 16.3736 42.487 16.3736C42.4867 16.3711 42.4865 16.3687 42.4862 16.3662C42.486 16.3662 42.4857 16.3638 42.4855 16.3613C42.485 16.3588 42.485 16.3588 42.4848 16.3564C42.4845 16.3539 42.4843 16.3539 42.484 16.3514C42.4838 16.349 42.4833 16.3465 42.483 16.344C42.483 16.344 42.4828 16.3416 42.4825 16.3416C42.4823 16.3391 42.4823 16.3367 42.4818 16.3342L42.4816 16.3317C42.4811 16.3293 42.4808 16.3268 42.4806 16.3243C42.4803 16.3219 42.4803 16.3219 42.4801 16.3194C42.4798 16.3169 42.4796 16.3145 42.4793 16.3145C42.4793 16.312 42.4793 16.312 42.4791 16.3096C42.4788 16.3071 42.4786 16.3046 42.4781 16.3022C42.4781 16.2997 42.4781 16.2997 42.4779 16.2997C42.4776 16.2972 42.4776 16.2948 42.4771 16.2923C42.4771 16.2923 42.4771 16.2898 42.4769 16.2898C42.4766 16.2874 42.4764 16.2825 42.4761 16.28L42.4759 16.2775C42.4756 16.2751 42.4754 16.2726 42.4754 16.2701C42.4752 16.2701 42.4752 16.2677 42.4752 16.2677C42.4749 16.2652 42.4747 16.2628 42.4744 16.2603C42.4744 16.2578 42.4742 16.2578 42.4742 16.2554C42.4739 16.2529 42.4737 16.2504 42.4734 16.248V16.2455C42.4732 16.243 42.4732 16.2406 42.4729 16.2381C42.4729 16.2357 42.4727 16.2357 42.4727 16.2357C42.4724 16.2332 42.4722 16.2283 42.472 16.2258C42.472 16.2258 42.472 16.2258 42.472 16.2233C42.472 16.2209 42.4717 16.2184 42.4717 16.2159C42.4715 16.2159 42.4715 16.2135 42.4715 16.2135C42.4715 16.211 42.4712 16.2085 42.471 16.2036C42.4707 16.1987 42.4707 16.1962 42.4705 16.1938C42.4705 16.1938 42.4705 16.1938 42.4705 16.1913C42.4705 16.1888 42.4702 16.1864 42.4702 16.1839C42.4702 16.1815 42.4702 16.1815 42.4702 16.1815C42.47 16.179 42.47 16.1741 42.47 16.1716H42.4697C42.4697 16.1667 42.4697 16.1642 42.4697 16.1618C42.4697 16.1593 42.4697 16.1593 42.4697 16.1593C42.4695 16.1568 42.4695 16.1519 42.4695 16.1494C42.4695 16.147 42.4695 16.142 42.4695 16.1396V16.1371C42.4692 16.1347 42.4692 16.1297 42.4692 16.1273V13.6367C42.4692 12.7006 43.2302 11.9394 44.1661 11.9394C44.1693 11.9394 44.1725 11.9394 44.1757 11.9394C44.1764 11.9394 44.1771 11.9394 44.1779 11.9394C44.1811 11.9394 44.1845 11.9394 44.1877 11.9394C44.188 11.9394 44.1882 11.9394 44.1885 11.9394C44.1914 11.9394 44.1944 11.9394 44.1973 11.9394C44.1983 11.9394 44.1991 11.9394 44.1998 11.9394C44.2028 11.9394 44.206 11.9394 44.2092 11.9394C44.2097 11.9394 44.2104 11.9394 44.2109 11.9394C44.2136 11.9394 44.2163 11.9394 44.219 11.9394C44.2198 11.9394 44.2207 11.9394 44.2215 11.9394C44.2244 11.9394 44.2276 11.9394 44.2308 11.9419C44.2313 11.9419 44.2321 11.9419 44.2328 11.9419C44.2355 11.9419 44.2385 11.9419 44.2414 11.9419C44.2419 11.9419 44.2422 11.9419 44.2427 11.9419C44.2459 11.9419 44.2493 11.9419 44.2525 11.9419C44.253 11.9419 44.2535 11.9419 44.254 11.9419C44.2572 11.9419 44.2604 11.9419 44.2636 11.9419C44.2639 11.9419 44.2639 11.9419 44.2641 11.9419C44.2673 11.9419 44.2708 11.9419 44.274 11.9419C44.2744 11.9419 44.2752 11.9419 44.2759 11.9419C44.2823 11.9443 44.289 11.9443 44.2956 11.9443C44.2961 11.9443 44.2964 11.9443 44.2969 11.9443C44.3038 11.9443 44.3104 11.9443 44.3173 11.9468C44.3176 11.9468 44.3178 11.9468 44.3181 11.9468C44.6218 11.9739 44.9026 12.0798 45.1391 12.2473C45.1418 12.2498 45.1443 12.2498 45.147 12.2523C45.1475 12.2523 45.148 12.2523 45.1485 12.2547C45.1507 12.2547 45.1529 12.2572 45.1551 12.2572C45.1554 12.2597 45.1559 12.2597 45.1561 12.2597C45.1583 12.2597 45.1605 12.2621 45.163 12.2646C45.1637 12.2646 45.1647 12.2646 45.1655 12.267C45.1672 12.267 45.1689 12.2695 45.1704 12.2695C45.1719 12.2695 45.1736 12.272 45.1751 12.272C45.1763 12.2744 45.1773 12.2744 45.1785 12.2744C45.1798 12.2769 45.1812 12.2769 45.1825 12.2794C45.1832 12.2794 45.1837 12.2794 45.1844 12.2794C45.1872 12.2818 45.1901 12.2843 45.1928 12.2867C45.1933 12.2867 45.1936 12.2867 45.1938 12.2867C45.3566 12.4124 45.4963 12.5651 45.6052 12.7376C45.6052 12.7376 45.6052 12.7376 45.605 12.7376C45.3443 12.575 45.0366 12.4814 44.7068 12.4814C43.7714 12.4814 43.0105 13.2426 43.0105 14.1762V16.6692C43.0105 16.9993 43.1051 17.3073 43.2684 17.5659C43.2686 17.5659 43.2686 17.5659 43.2686 17.5659Z" fill="#989998"/>
<path d="M34.1194 18.2023C33.3439 18.1333 32.689 17.6378 32.3918 16.9551C32.3809 16.8614 32.3753 16.7653 32.3753 16.6691V15.6511H32.2205V14.8772H32.3753V14.1772C32.3753 12.8141 33.4832 11.7074 34.8445 11.7074C34.9414 11.7074 35.0366 11.7123 35.1305 11.7246C35.8152 12.0204 36.3102 12.6761 36.3784 13.45C36.2387 13.1567 36.0168 12.9102 35.7427 12.7377C35.5939 12.501 35.3878 12.3014 35.1443 12.1634C35.1435 12.1609 35.143 12.1609 35.1425 12.1609C35.1396 12.1584 35.1366 12.1584 35.1339 12.156C35.1332 12.156 35.1324 12.156 35.1317 12.156C35.1302 12.1535 35.1287 12.1535 35.1273 12.1535C35.126 12.151 35.1248 12.151 35.1236 12.151C35.1221 12.1486 35.1206 12.1486 35.1189 12.1486C35.1169 12.1461 35.1149 12.1461 35.1132 12.1461C35.1122 12.1436 35.1112 12.1436 35.1105 12.1436C35.108 12.1412 35.1056 12.1412 35.1034 12.1387C35.1029 12.1387 35.1026 12.1387 35.1021 12.1387C35.0997 12.1387 35.097 12.1362 35.0945 12.1338C35.094 12.1338 35.0935 12.1338 35.093 12.1338C35.0873 12.1313 35.0814 12.1289 35.0755 12.1239C35.0755 12.1239 35.0755 12.1239 35.0753 12.1239C34.8867 12.0278 34.6772 11.9662 34.4558 11.9465C34.4556 11.9465 34.4553 11.9465 34.4551 11.9465C34.4484 11.944 34.4415 11.944 34.4346 11.944C34.4341 11.944 34.4337 11.944 34.4334 11.944C34.4268 11.944 34.4201 11.944 34.4134 11.9415C34.413 11.9415 34.4122 11.9415 34.4117 11.9415C34.4083 11.9415 34.4051 11.9415 34.4016 11.9415C34.3984 11.9415 34.395 11.9415 34.3915 11.9415C34.391 11.9415 34.3908 11.9415 34.3903 11.9415C34.3871 11.9415 34.3836 11.9415 34.3802 11.9415C34.3799 11.9415 34.3797 11.9415 34.3794 11.9415C34.3762 11.9415 34.3733 11.9415 34.3703 11.9391C34.3696 11.9391 34.3691 11.9391 34.3686 11.9391C34.3654 11.9391 34.3622 11.9391 34.359 11.9391C34.3582 11.9391 34.3577 11.9391 34.357 11.9391C34.354 11.9391 34.3511 11.9391 34.3484 11.9391C34.3479 11.9391 34.3474 11.9391 34.3469 11.9391C34.3437 11.9391 34.3405 11.9391 34.3373 11.9391C34.3368 11.9391 34.336 11.9391 34.3351 11.9391C34.3323 11.9391 34.3291 11.9391 34.3262 11.9391C34.3259 11.9391 34.3257 11.9391 34.3255 11.9391C34.3222 11.9391 34.3188 11.9391 34.3156 11.9391C34.3149 11.9391 34.3141 11.9391 34.3134 11.9391C34.3102 11.9391 34.307 11.9391 34.3038 11.9391C33.3681 11.9391 32.6067 12.7007 32.6067 13.6349V16.1269C32.6067 16.1293 32.6067 16.1343 32.6067 16.1367C32.6069 16.1367 32.6069 16.1392 32.6069 16.1392C32.6069 16.1416 32.6069 16.1466 32.6069 16.149C32.6069 16.1515 32.6069 16.1564 32.6072 16.1589C32.6072 16.1589 32.6072 16.1589 32.6072 16.1614C32.6072 16.1638 32.6072 16.1663 32.6072 16.1712H32.6074C32.6074 16.1737 32.6074 16.1786 32.6077 16.1811C32.6077 16.1811 32.6077 16.1811 32.6077 16.1835C32.6077 16.186 32.6079 16.1885 32.6082 16.191C32.6082 16.1934 32.6082 16.1934 32.6082 16.1934C32.6082 16.1959 32.6082 16.1983 32.6084 16.2033C32.6087 16.2082 32.6089 16.2107 32.6089 16.2131V16.2156C32.6092 16.2181 32.6094 16.2205 32.6097 16.2254C32.6099 16.2279 32.6099 16.2329 32.6102 16.2353C32.6102 16.2353 32.6102 16.2353 32.6104 16.2378C32.6106 16.2427 32.6111 16.2501 32.6116 16.2575C32.6116 16.2575 32.6116 16.2575 32.6119 16.2575C32.6121 16.2624 32.6124 16.2649 32.6126 16.2674C32.6129 16.2723 32.6131 16.2748 32.6134 16.2772C32.6134 16.2797 32.6136 16.2797 32.6136 16.2797C32.6138 16.2821 32.6141 16.2871 32.6146 16.2895C32.6148 16.2945 32.6151 16.2969 32.6156 16.2994C32.6158 16.3043 32.6163 16.3068 32.6166 16.3117C32.6171 16.3142 32.6173 16.3191 32.6178 16.3216C32.6183 16.3241 32.6188 16.329 32.619 16.3314C32.62 16.3388 32.6208 16.3462 32.6217 16.3536C32.6217 16.3536 32.6217 16.3536 32.622 16.3536C32.6227 16.361 32.6237 16.3684 32.6247 16.3733C32.6247 16.3758 32.6247 16.3758 32.6249 16.3758C32.6259 16.3807 32.6269 16.3881 32.6279 16.3955C32.6516 16.5434 32.694 16.6839 32.7526 16.8146C32.7556 16.822 32.7583 16.8269 32.761 16.8343C32.7612 16.8343 32.7612 16.8343 32.7612 16.8343C32.764 16.8392 32.7669 16.8466 32.7699 16.8515C32.7699 16.8515 32.7699 16.854 32.7701 16.854C32.7728 16.8589 32.7758 16.8639 32.7788 16.8712C32.7788 16.8712 32.7787 16.8712 32.779 16.8712C32.7805 16.8737 32.782 16.8786 32.7834 16.8811C32.7849 16.8836 32.7864 16.886 32.7879 16.8885L32.7881 16.891C32.7896 16.8934 32.7911 16.8959 32.7926 16.8983C32.7926 16.8983 32.7928 16.8983 32.793 16.8983C32.7945 16.9033 32.7958 16.9058 32.7972 16.9082H32.7975C32.799 16.9107 32.8004 16.9131 32.8017 16.9156C32.8022 16.9181 32.8024 16.9181 32.8029 16.9181C32.8041 16.9206 32.8054 16.923 32.8066 16.9255C32.8069 16.9255 32.8068 16.9255 32.8071 16.9255C32.8086 16.9279 32.8098 16.9304 32.8113 16.9329C32.8118 16.9353 32.812 16.9353 32.8125 16.9353C32.8138 16.9378 32.815 16.9403 32.8165 16.9427C32.8167 16.9452 32.8172 16.9452 32.8177 16.9452C32.8187 16.9477 32.8199 16.9501 32.8209 16.9526C32.8214 16.9526 32.8219 16.9526 32.8226 16.9551C32.8239 16.9575 32.8251 16.96 32.8261 16.96C32.8268 16.9624 32.8276 16.9624 32.8283 16.9649C32.829 16.9649 32.8298 16.9674 32.8308 16.9698C32.8313 16.9698 32.832 16.9723 32.8327 16.9723C32.834 16.9748 32.8352 16.9772 32.8364 16.9797C32.8372 16.9797 32.8379 16.9822 32.8386 16.9822C32.8394 16.9846 32.8399 16.9846 32.8406 16.9871C32.8421 16.9871 32.8433 16.9896 32.8448 16.992C32.8453 16.9945 32.8458 16.9945 32.8465 16.9969C32.8473 16.9969 32.8483 16.9994 32.8492 16.9994C32.8497 17.0019 32.8502 17.0019 32.8507 17.0019C32.8527 17.0068 32.8547 17.0093 32.8569 17.0117C32.8579 17.0142 32.8589 17.0167 32.8601 17.0191C32.8603 17.0191 32.8603 17.0191 32.8608 17.0191C32.9981 17.241 33.185 17.4283 33.4058 17.5663C33.5774 17.8399 33.8251 18.0618 34.1194 18.2023Z" fill="#989998"/>
<path d="M23.5438 17.5659C23.0641 17.2678 22.7449 16.7333 22.7449 16.1273V13.6367C22.7449 12.7006 23.5061 11.9394 24.4414 11.9394C25.0477 11.9394 25.5805 12.2597 25.8806 12.7376C25.62 12.575 25.312 12.4814 24.9824 12.4814C24.047 12.4814 23.2858 13.2426 23.2858 14.1762V16.6692C23.2858 16.9969 23.3802 17.3048 23.5438 17.5659Z" fill="#C7C6C4"/>
<path d="M33.4063 17.5659C33.1856 17.428 32.9986 17.2407 32.8614 17.019C32.8612 17.019 32.8609 17.019 32.8607 17.019C32.8594 17.0166 32.8584 17.0141 32.8575 17.0141C32.8552 17.0092 32.8533 17.0067 32.8513 17.0042C32.8508 17.0018 32.8503 17.0018 32.8498 17.0018C32.8488 16.9993 32.8481 16.9968 32.8471 16.9968C32.8464 16.9944 32.8459 16.9944 32.8454 16.9944C32.8439 16.9919 32.8427 16.9895 32.8412 16.987C32.8405 16.9845 32.84 16.9845 32.8392 16.9821C32.8385 16.9821 32.8378 16.9796 32.837 16.9796C32.8358 16.9771 32.8345 16.9747 32.8333 16.9722C32.8328 16.9722 32.8318 16.9698 32.8313 16.9698C32.8304 16.9673 32.8296 16.9673 32.8289 16.9648C32.8281 16.9648 32.8274 16.9624 32.8267 16.9624C32.8257 16.9599 32.8245 16.9574 32.8232 16.955C32.8225 16.955 32.822 16.9525 32.8215 16.9525C32.8205 16.95 32.8193 16.9476 32.8183 16.9451C32.8178 16.9451 32.8173 16.9451 32.8171 16.9451C32.8156 16.9427 32.8144 16.9402 32.8131 16.9377C32.8129 16.9353 32.8124 16.9353 32.8119 16.9353C32.8104 16.9328 32.8092 16.9303 32.8077 16.9279C32.8075 16.9254 32.8075 16.9254 32.8072 16.9254C32.806 16.923 32.8047 16.9205 32.8035 16.918C32.803 16.918 32.8028 16.918 32.8023 16.9156C32.8008 16.9131 32.7996 16.9106 32.7981 16.9082H32.7978C32.7964 16.9057 32.7951 16.9033 32.7937 16.9008C32.7934 16.9008 32.7932 16.8983 32.7932 16.8983C32.7917 16.8958 32.7902 16.8934 32.7887 16.8909H32.7885C32.787 16.886 32.7855 16.8835 32.784 16.8811C32.7826 16.8786 32.7811 16.8762 32.7796 16.8712C32.7794 16.8712 32.7794 16.8712 32.7794 16.8712C32.7764 16.8663 32.7735 16.8589 32.7705 16.854C32.7675 16.8466 32.7646 16.8417 32.7619 16.8343C32.7619 16.8343 32.7619 16.8343 32.7616 16.8343C32.7589 16.8293 32.7562 16.822 32.7533 16.8146C32.6946 16.684 32.652 16.5436 32.6286 16.3958C32.6276 16.3884 32.6264 16.3834 32.6254 16.3761C32.6254 16.3761 32.6254 16.3761 32.6254 16.3736C32.6244 16.3687 32.6234 16.3613 32.6224 16.3539C32.6215 16.3465 32.6207 16.3391 32.6197 16.3342C32.6197 16.3317 32.6197 16.3317 32.6197 16.3317C32.6192 16.3293 32.619 16.3268 32.6185 16.3219C32.618 16.3194 32.6178 16.3145 32.6173 16.312C32.6168 16.3071 32.6165 16.3046 32.6163 16.3022C32.6163 16.2997 32.616 16.2997 32.616 16.2997C32.6158 16.2972 32.6155 16.2948 32.6151 16.2898C32.6148 16.2874 32.6146 16.2825 32.6141 16.28C32.6141 16.28 32.6141 16.28 32.6141 16.2775C32.6138 16.2751 32.6136 16.2726 32.6131 16.2677C32.6131 16.2652 32.6126 16.2627 32.6123 16.2578C32.6119 16.2504 32.6114 16.243 32.6109 16.2381C32.6109 16.2357 32.6109 16.2357 32.6109 16.2357C32.6106 16.2332 32.6104 16.2283 32.6101 16.2258C32.6099 16.2209 32.6099 16.2184 32.6096 16.2159V16.2135C32.6094 16.211 32.6091 16.2085 32.6091 16.2036C32.6089 16.2012 32.6087 16.1962 32.6087 16.1938C32.6087 16.1938 32.6087 16.1938 32.6087 16.1913C32.6084 16.1888 32.6084 16.1864 32.6084 16.1839C32.6082 16.1815 32.6082 16.1815 32.6082 16.1815C32.6082 16.179 32.6079 16.1741 32.6079 16.1716C32.6079 16.1667 32.6079 16.1642 32.6077 16.1618C32.6077 16.1593 32.6077 16.1593 32.6077 16.1593C32.6077 16.1568 32.6077 16.1519 32.6077 16.1494H32.6074C32.6074 16.147 32.6074 16.142 32.6074 16.1396V16.1371C32.6074 16.1347 32.6074 16.1297 32.6074 16.1273V13.6367C32.6074 12.7006 33.3686 11.9394 34.3042 11.9394C34.3074 11.9394 34.3109 11.9394 34.3141 11.9394C34.3148 11.9394 34.3156 11.9394 34.3163 11.9394C34.3195 11.9394 34.3227 11.9394 34.3259 11.9394C34.3262 11.9394 34.3264 11.9394 34.3269 11.9394C34.3299 11.9394 34.3328 11.9394 34.3358 11.9394C34.3365 11.9394 34.3372 11.9394 34.338 11.9394C34.3412 11.9394 34.3444 11.9394 34.3476 11.9394C34.3481 11.9394 34.3486 11.9394 34.3488 11.9394C34.3518 11.9394 34.3547 11.9394 34.3574 11.9394C34.3582 11.9394 34.3589 11.9394 34.3597 11.9394C34.3629 11.9394 34.3661 11.9394 34.369 11.9419C34.3698 11.9419 34.3703 11.9419 34.371 11.9419C34.374 11.9419 34.3769 11.9419 34.3799 11.9419C34.3804 11.9419 34.3806 11.9419 34.3809 11.9419C34.3841 11.9419 34.3875 11.9419 34.3909 11.9419C34.3914 11.9419 34.3917 11.9419 34.3922 11.9419C34.3954 11.9419 34.3988 11.9419 34.4023 11.9419C34.4057 11.9419 34.4089 11.9419 34.4124 11.9419C34.4129 11.9419 34.4134 11.9419 34.4141 11.9419C34.4208 11.9443 34.4274 11.9443 34.4341 11.9443C34.4343 11.9443 34.4348 11.9443 34.435 11.9443C34.4419 11.9443 34.4488 11.9443 34.4557 11.9468C34.456 11.9468 34.4562 11.9468 34.4562 11.9468C34.6777 11.9665 34.8871 12.0281 35.076 12.1242C35.076 12.1242 35.076 12.1242 35.0763 12.1242C35.0819 12.1291 35.0879 12.1316 35.0935 12.134C35.094 12.134 35.0945 12.134 35.0952 12.1365C35.0977 12.1365 35.1004 12.1389 35.1029 12.1389C35.1034 12.1389 35.1036 12.1389 35.1041 12.1389C35.1063 12.1414 35.1086 12.1414 35.111 12.1439C35.112 12.1439 35.1127 12.1439 35.1137 12.1464C35.1157 12.1464 35.1177 12.1463 35.1196 12.1488C35.1211 12.1488 35.1226 12.1513 35.1243 12.1513C35.1255 12.1513 35.1268 12.1513 35.128 12.1537C35.1292 12.1537 35.1307 12.1537 35.1322 12.1562C35.1329 12.1562 35.1337 12.1562 35.1344 12.1562C35.1374 12.1587 35.1403 12.1611 35.143 12.1611C35.1438 12.1611 35.1443 12.1636 35.1448 12.1636C35.3884 12.3015 35.5946 12.5011 35.7434 12.7376C35.7434 12.7376 35.7431 12.7376 35.7429 12.7376C35.4825 12.575 35.1746 12.4814 34.8452 12.4814C33.9096 12.4814 33.1484 13.2426 33.1484 14.1762V16.6692C33.1484 16.9969 33.243 17.3048 33.4063 17.5659Z" fill="#989998"/>
<path d="M24.2573 18.2023C23.4821 18.1333 22.8275 17.6378 22.5302 16.9551C22.5191 16.8614 22.5137 16.7653 22.5137 16.6691V15.6511H22.3589V14.8772H22.5137V14.1772C22.5137 12.8141 23.6211 11.7074 24.983 11.7074C25.0794 11.7074 25.1752 11.7123 25.2689 11.7246C25.9536 12.0204 26.4486 12.6761 26.5169 13.45C26.3771 13.1567 26.1553 12.9102 25.8809 12.7377C25.581 12.2595 25.0481 11.9391 24.4417 11.9391C23.5065 11.9391 22.7451 12.7007 22.7451 13.6349V16.1269C22.7451 16.7332 23.0646 17.2656 23.544 17.5663C23.7155 17.8399 23.9633 18.0618 24.2573 18.2023Z" fill="#989998"/>
<path d="M26.1385 13.6365V16.127C26.1385 17.0631 25.3773 17.8243 24.4417 17.8243C23.5061 17.8243 22.7451 17.0631 22.7451 16.127V13.6365C22.7451 12.7004 23.5063 11.9392 24.4417 11.9392C25.3773 11.9392 26.1385 12.7004 26.1385 13.6365Z" fill="#B3B3B2"/>
<path d="M28.019 36.4138H23.0928V35.0394H28.019V36.4138Z" fill="white"/>
<path d="M28.019 32.0839H23.0928V30.7078H28.019V32.0839Z" fill="white"/>
<path d="M28.0192 27.7512H23.093V26.3762H28.0192V27.7512Z" fill="white"/>
<path d="M45.5151 45.0773H40.5889V43.7025H45.5151V45.0773Z" fill="white"/>
<path d="M45.5152 40.7455H40.5891V39.3707H45.5152V40.7455Z" fill="white"/>
<path d="M45.5149 36.4138H40.5889V35.0394H45.5149V36.4138Z" fill="white"/>
<path d="M45.5151 32.0839H40.5889V30.7078H45.5151V32.0839Z" fill="white"/>
<path d="M45.5151 27.7512H40.5891V26.3762H45.5151V27.7512Z" fill="white"/>
<path d="M48.4672 48.4287C48.4672 49.2351 47.8115 49.8899 47.0053 49.8899H21.6023C21.3377 49.8899 21.0896 49.8201 20.8753 49.6973V49.6949C20.4365 49.4445 20.1404 48.9703 20.1404 48.4287V21.5642H48.4672V48.4287ZM49.1287 21.1069H19.4791C19.4418 21.1069 19.4048 21.1069 19.3679 21.1045V48.4287C19.3679 48.9872 19.5737 49.4975 19.9139 49.8899C20.0328 50.0271 20.1681 50.1499 20.3168 50.2558C20.6806 50.5109 21.124 50.6626 21.6023 50.6626H47.0053C47.6789 50.6626 48.284 50.3641 48.694 49.8899C49.0341 49.4975 49.2399 48.9872 49.2399 48.4287V21.1045C49.2031 21.1069 49.1658 21.1069 49.1287 21.1069Z" fill="#2E2D2D"/>
<path d="M26.1381 14.3368V15.1082H32.6067V14.3368H26.1381ZM52.0501 15.7253C51.3581 14.878 50.3054 14.3368 49.1283 14.3368H45.8624V15.1082H49.1283C50.0928 15.1082 50.9526 15.5685 51.5016 16.2762C51.8936 16.7831 52.1272 17.4198 52.1272 18.1079C52.1272 18.9086 51.8153 19.6628 51.2489 20.2285C50.7087 20.7696 49.9988 21.0782 49.2394 21.1051C49.2027 21.1076 49.1652 21.1076 49.1283 21.1076H19.4788C19.4413 21.1076 19.4044 21.1076 19.3674 21.1051C18.7212 21.0831 18.1264 20.8529 17.6467 20.4807C16.9373 19.9322 16.4799 19.0727 16.4799 18.1079C16.4799 17.3071 16.7918 16.5529 17.3582 15.9873C17.9248 15.4216 18.6776 15.1082 19.4788 15.1082H22.7447V14.3368H19.4788C18.4714 14.3368 17.5242 14.7286 16.8119 15.4412C16.0996 16.1538 15.7073 17.1014 15.7073 18.1079C15.7073 19.2857 16.2494 20.3387 17.0972 21.0317C17.7204 21.5385 18.5084 21.8544 19.3674 21.8789C19.4044 21.8789 19.4416 21.8789 19.4788 21.8789H49.1283C49.1652 21.8789 49.2027 21.8789 49.2394 21.8789C50.2055 21.8495 51.109 21.4626 51.7949 20.7745C52.5075 20.062 52.8998 19.1167 52.8998 18.1079C52.8998 17.2067 52.581 16.3766 52.0501 15.7253ZM36.0001 14.3368V15.1082H42.4689V14.3368H36.0001Z" fill="#2E2D2D"/>
<path d="M43.2685 17.5663C42.7887 17.2652 42.4691 16.7346 42.4691 16.1274V13.6345C42.4691 12.6991 43.2303 11.9389 44.1657 11.9389C44.7719 11.9389 45.3048 12.2573 45.6049 12.7386C45.7685 12.9978 45.8628 13.3063 45.8628 13.6345V16.1274C45.8628 17.0628 45.1014 17.823 44.1657 17.823C43.8367 17.823 43.5287 17.7292 43.2685 17.5663ZM46.1605 12.1808C45.711 11.5662 44.9846 11.1664 44.1657 11.1664C42.8043 11.1664 41.6965 12.2746 41.6965 13.6345V16.1274C41.6965 16.9444 42.0969 17.6725 42.7122 18.1217C43.1202 18.4203 43.6229 18.5956 44.1657 18.5956C45.5276 18.5956 46.6354 17.4874 46.6354 16.1274V13.6345C46.6354 13.0915 46.4591 12.5905 46.1605 12.1808Z" fill="#2E2D2D"/>
<path d="M33.4062 17.5661C32.9269 17.265 32.6075 16.7319 32.6075 16.1272V13.6343C32.6075 12.6989 33.3687 11.9387 34.3044 11.9387C34.9103 11.9387 35.4429 12.257 35.7431 12.7359C35.9065 12.9975 36.001 13.306 36.001 13.6343V16.1272C36.001 17.0626 35.2401 17.8228 34.3044 17.8228C33.9749 17.8228 33.6668 17.729 33.4062 17.5661ZM36.2992 12.1805C35.8497 11.566 35.1228 11.1661 34.3044 11.1661C32.9429 11.1661 31.835 12.2743 31.835 13.6343V16.1272C31.835 16.9441 32.2355 17.6722 32.8506 18.1214C33.2586 18.4201 33.7616 18.5953 34.3044 18.5953C35.6661 18.5953 36.7735 17.4871 36.7735 16.1272V13.6343C36.7735 13.0913 36.5973 12.5902 36.2992 12.1805Z" fill="#2E2D2D"/>
<path d="M23.5437 17.5663C23.0643 17.2652 22.745 16.7321 22.745 16.1274V13.6345C22.745 12.6991 23.5061 11.9389 24.4416 11.9389C25.0478 11.9389 25.5806 12.2573 25.8805 12.7386C26.0439 12.9978 26.1385 13.3063 26.1385 13.6345V16.1274C26.1385 17.0628 25.377 17.823 24.4416 17.823C24.1121 17.823 23.8043 17.7292 23.5437 17.5663ZM26.4364 12.1808C25.9872 11.5662 25.26 11.1664 24.4416 11.1664C23.0799 11.1664 21.9724 12.2746 21.9724 13.6345V16.1274C21.9724 16.9444 22.3725 17.6725 22.9878 18.1217C23.3958 18.4203 23.8986 18.5956 24.4416 18.5956C25.8033 18.5956 26.911 17.4874 26.911 16.1274V13.6345C26.911 13.0915 26.7348 12.5905 26.4364 12.1808Z" fill="#2E2D2D"/>
<path d="M57.4709 50.2762C57.4709 50.4904 57.2976 50.6621 57.0846 50.6621H11.5235C11.3103 50.6621 11.1372 50.4904 11.1372 50.2762C11.1372 50.0621 11.3103 49.8903 11.5235 49.8903H57.0846C57.2976 49.8903 57.4709 50.0621 57.4709 50.2762Z" fill="#2E2D2D"/>
<path d="M9.92958 50.6621H8.1703C7.95703 50.6621 7.78418 50.4904 7.78418 50.2762C7.78418 50.0643 7.95703 49.8903 8.1703 49.8903H9.92958C10.143 49.8903 10.3159 50.0643 10.3159 50.2762C10.3159 50.4904 10.143 50.6621 9.92958 50.6621Z" fill="#2E2D2D"/>
<path d="M17.7577 48.7712H15.9986C15.7852 48.7712 15.6123 48.5964 15.6123 48.3833C15.6123 48.1703 15.7852 47.9977 15.9986 47.9977H17.7577C17.9711 47.9977 18.144 48.1703 18.144 48.3833C18.144 48.5964 17.9711 48.7712 17.7577 48.7712Z" fill="#2E2D2D"/>
<path d="M14.4046 48.7712H12.6454C12.4319 48.7712 12.259 48.5964 12.259 48.3833C12.259 48.1703 12.4319 47.9977 12.6454 47.9977H14.4046C14.6179 47.9977 14.7907 48.1703 14.7907 48.3833C14.7907 48.5964 14.6179 48.7712 14.4046 48.7712Z" fill="#2E2D2D"/>
<path d="M52.6092 48.7712H50.85C50.6365 48.7712 50.4636 48.5964 50.4636 48.3833C50.4636 48.1703 50.6365 47.9977 50.85 47.9977H52.6092C52.8224 47.9977 52.9955 48.1703 52.9955 48.3833C52.9955 48.5964 52.8224 48.7712 52.6092 48.7712Z" fill="#2E2D2D"/>
<path d="M55.9618 48.7712H54.2025C53.9891 48.7712 53.8164 48.5964 53.8164 48.3833C53.8164 48.1703 53.9891 47.9977 54.2025 47.9977H55.9618C56.175 47.9977 56.3479 48.1703 56.3479 48.3833C56.3479 48.5964 56.175 48.7712 55.9618 48.7712Z" fill="#2E2D2D"/>
<path d="M60.4371 50.6621H58.6778C58.4644 50.6621 58.2915 50.4904 58.2915 50.2762C58.2915 50.0643 58.4644 49.8903 58.6778 49.8903H60.4371C60.6504 49.8903 60.8235 50.0643 60.8235 50.2762C60.8235 50.4904 60.6504 50.6621 60.4371 50.6621Z" fill="#2E2D2D"/>
</svg>
