<svg width="16" height="17" viewBox="0 0 16 17" fill="none" xmlns="http://www.w3.org/2000/svg">
<g clip-path="url(#clip0_5028_2747)">
<path d="M2 10.0833V7.41665C2 4.90249 2 3.64541 2.78105 2.86436C3.5621 2.08331 4.81918 2.08331 7.33333 2.08331H8.66667C11.1808 2.08331 12.4379 2.08331 13.219 2.86436C14 3.64541 14 4.90249 14 7.41665V10.0833C14 12.5975 14 13.8545 13.219 14.6356C12.4379 15.4166 11.1808 15.4166 8.66667 15.4166H7.33333C4.81918 15.4166 3.5621 15.4166 2.78105 14.6356C2 13.8545 2 12.5975 2 10.0833Z" stroke="#606062"/>
<path d="M7.55572 7.86111C8.25902 8.56441 9.18535 9.2791 9.18535 9.2791L10.4552 8.00926C10.4552 8.00926 9.7405 7.08293 9.0372 6.37963C8.3339 5.67633 7.40757 4.96164 7.40757 4.96164L6.13773 6.23148C6.13773 6.23148 6.85242 7.15781 7.55572 7.86111ZM7.55572 7.86111L5.3335 10.0833M10.6668 7.79762L8.97371 9.49074M7.61921 4.75L5.92609 6.44312" stroke="#606062" stroke-linecap="round" stroke-linejoin="round"/>
<path d="M5.3335 12.75H10.6668" stroke="#606062" stroke-linecap="round"/>
</g>
<defs>
<clipPath id="clip0_5028_2747">
<rect width="16" height="16" fill="white" transform="translate(0 0.75)"/>
</clipPath>
</defs>
</svg>
