<svg width="16" height="17" viewBox="0 0 16 17" fill="none" xmlns="http://www.w3.org/2000/svg">
<g clip-path="url(#clip0_5028_2749)">
<path d="M9 14.0834C9 14.0834 9.66667 14.0834 10.3333 15.4167C10.3333 15.4167 12.451 12.0834 14.3333 11.4167" stroke="#606062" stroke-linecap="round" stroke-linejoin="round"/>
<path d="M4.6665 11.4166H7.33317M4.6665 8.08331H9.99984" stroke="#606062" stroke-linecap="round"/>
<path d="M4.33333 3.08331C3.29613 3.11443 2.67774 3.22987 2.24985 3.65816C1.66406 4.24449 1.66406 5.18818 1.66406 7.07555L1.66406 11.4129C1.66406 13.3003 1.66406 14.244 2.24985 14.8303C2.83564 15.4166 3.77844 15.4166 5.66406 15.4166L7.33073 15.4166M10.3281 3.08331C11.3653 3.11443 11.9837 3.22987 12.4116 3.65816C12.9974 4.24449 12.9974 5.18818 12.9974 7.07555V9.74998" stroke="#606062" stroke-linecap="round"/>
<path d="M4.33057 3.24998C4.33057 2.60565 4.8529 2.08331 5.49723 2.08331H9.1639C9.80823 2.08331 10.3306 2.60565 10.3306 3.24998C10.3306 3.89431 9.80823 4.41665 9.1639 4.41665H5.49723C4.8529 4.41665 4.33057 3.89431 4.33057 3.24998Z" stroke="#606062" stroke-linejoin="round"/>
</g>
<defs>
<clipPath id="clip0_5028_2749">
<rect width="16" height="16" fill="white" transform="translate(0 0.75)"/>
</clipPath>
</defs>
</svg>
