<svg width="16" height="16" viewBox="0 0 16 16" fill="none" xmlns="http://www.w3.org/2000/svg">
<g clip-path="url(#clip0_8805_5097)">
<path d="M1.6665 8.00002C1.6665 5.01446 1.6665 3.52168 2.594 2.59418C3.52149 1.66669 5.01428 1.66669 7.99984 1.66669C10.9854 1.66669 12.4782 1.66669 13.4057 2.59418C14.3332 3.52168 14.3332 5.01446 14.3332 8.00002C14.3332 10.9856 14.3332 12.4784 13.4057 13.4059C12.4782 14.3334 10.9854 14.3334 7.99984 14.3334C5.01428 14.3334 3.52149 14.3334 2.594 13.4059C1.6665 12.4784 1.6665 10.9856 1.6665 8.00002Z" stroke="#606062" stroke-linejoin="round"/>
<path d="M7.58398 5.5L11.7507 5.5" stroke="#606062" stroke-linecap="round"/>
<path d="M7.58398 8L11.7507 8" stroke="#606062" stroke-linecap="round"/>
<path d="M7.58398 10.5L11.7507 10.5" stroke="#606062" stroke-linecap="round"/>
<path d="M4.25 6.08026C4.25 6.08026 4.66667 6.35184 4.875 6.7499C4.875 6.7499 5.5 5.1874 6.33333 4.66656" stroke="#606062" stroke-linecap="round" stroke-linejoin="round"/>
</g>
<defs>
<clipPath id="clip0_8805_5097">
<rect width="16" height="16" fill="white"/>
</clipPath>
</defs>
</svg>
