<svg width="16" height="16" viewBox="0 0 16 16" fill="none" xmlns="http://www.w3.org/2000/svg">
<g clip-path="url(#clip0_9168_785)">
<path d="M1.33398 11.9997C1.33398 10.9727 1.33398 10.4592 1.56514 10.082C1.69448 9.87096 1.87194 9.6935 2.08301 9.56416C2.46021 9.33301 2.97369 9.33301 4.00065 9.33301C5.02761 9.33301 5.54109 9.33301 5.9183 9.56416C6.12936 9.6935 6.30682 9.87096 6.43617 10.082C6.66732 10.4592 6.66732 10.9727 6.66732 11.9997C6.66732 13.0266 6.66732 13.5401 6.43617 13.9173C6.30682 14.1284 6.12936 14.3058 5.9183 14.4352C5.54109 14.6663 5.02761 14.6663 4.00065 14.6663C2.97369 14.6663 2.46021 14.6663 2.08301 14.4352C1.87194 14.3058 1.69448 14.1284 1.56514 13.9173C1.33398 13.5401 1.33398 13.0266 1.33398 11.9997Z" stroke="#606062"/>
<path d="M9.33398 11.9997C9.33398 10.9727 9.33398 10.4592 9.56514 10.082C9.69448 9.87096 9.87194 9.6935 10.083 9.56416C10.4602 9.33301 10.9737 9.33301 12.0007 9.33301C13.0276 9.33301 13.5411 9.33301 13.9183 9.56416C14.1294 9.6935 14.3068 9.87096 14.4362 10.082C14.6673 10.4592 14.6673 10.9727 14.6673 11.9997C14.6673 13.0266 14.6673 13.5401 14.4362 13.9173C14.3068 14.1284 14.1294 14.3058 13.9183 14.4352C13.5411 14.6663 13.0276 14.6663 12.0007 14.6663C10.9737 14.6663 10.4602 14.6663 10.083 14.4352C9.87194 14.3058 9.69448 14.1284 9.56514 13.9173C9.33398 13.5401 9.33398 13.0266 9.33398 11.9997Z" stroke="#606062"/>
<path d="M1.33398 3.99967C1.33398 2.97272 1.33398 2.45924 1.56514 2.08203C1.69448 1.87096 1.87194 1.6935 2.08301 1.56416C2.46021 1.33301 2.97369 1.33301 4.00065 1.33301C5.02761 1.33301 5.54109 1.33301 5.9183 1.56416C6.12936 1.6935 6.30682 1.87096 6.43617 2.08203C6.66732 2.45924 6.66732 2.97272 6.66732 3.99967C6.66732 5.02663 6.66732 5.54011 6.43617 5.91732C6.30682 6.12839 6.12936 6.30585 5.9183 6.43519C5.54109 6.66634 5.02761 6.66634 4.00065 6.66634C2.97369 6.66634 2.46021 6.66634 2.08301 6.43519C1.87194 6.30585 1.69448 6.12839 1.56514 5.91732C1.33398 5.54011 1.33398 5.02663 1.33398 3.99967Z" stroke="#606062"/>
<path d="M9.33398 3.99967C9.33398 2.97272 9.33398 2.45924 9.56514 2.08203C9.69448 1.87096 9.87194 1.6935 10.083 1.56416C10.4602 1.33301 10.9737 1.33301 12.0007 1.33301C13.0276 1.33301 13.5411 1.33301 13.9183 1.56416C14.1294 1.6935 14.3068 1.87096 14.4362 2.08203C14.6673 2.45924 14.6673 2.97272 14.6673 3.99967C14.6673 5.02663 14.6673 5.54011 14.4362 5.91732C14.3068 6.12839 14.1294 6.30585 13.9183 6.43519C13.5411 6.66634 13.0276 6.66634 12.0007 6.66634C10.9737 6.66634 10.4602 6.66634 10.083 6.43519C9.87194 6.30585 9.69448 6.12839 9.56514 5.91732C9.33398 5.54011 9.33398 5.02663 9.33398 3.99967Z" stroke="#606062"/>
</g>
<defs>
<clipPath id="clip0_9168_785">
<rect width="16" height="16" fill="white"/>
</clipPath>
</defs>
</svg>
