<svg width="16" height="17" viewBox="0 0 16 17" fill="none" xmlns="http://www.w3.org/2000/svg">
<g clip-path="url(#clip0_5028_2746)">
<path d="M7.35401 10.75L4.45801 8.51004V7.67004H6.65001C6.86334 7.67004 7.05001 7.62737 7.21001 7.54204C7.37001 7.45671 7.49534 7.33937 7.58601 7.19004C7.67667 7.03537 7.72201 6.85404 7.72201 6.64604C7.72201 6.43804 7.67667 6.25937 7.58601 6.11004C7.49534 5.95537 7.37001 5.83804 7.21001 5.75804C7.05001 5.67271 6.86334 5.63004 6.65001 5.63004H4.45801V4.79004H9.13801V5.40604H7.80201L8.03401 5.23004C8.23134 5.39004 8.38334 5.59004 8.49001 5.83004C8.60201 6.07004 8.65801 6.34471 8.65801 6.65404C8.65801 7.03804 8.57001 7.36871 8.39401 7.64604C8.22334 7.92337 7.98601 8.13671 7.68201 8.28604C7.37801 8.43537 7.02601 8.51004 6.62601 8.51004H5.47401L5.56201 8.24604L8.74601 10.75H7.35401ZM4.45801 6.95804V6.33404H9.13801V6.95804H4.45801Z" fill="#606062"/>
<path d="M13.344 2.08331C12.6017 2.08331 12 3.87417 12 6.08331H13.344C13.9918 6.08331 14.3156 6.08331 14.5161 5.85968C14.7166 5.63604 14.6817 5.34153 14.6119 4.75252C14.4276 3.1976 13.9295 2.08331 13.344 2.08331Z" stroke="#606062"/>
<path d="M12.0002 6.11949V13.1805C12.0002 14.1883 12.0002 14.6922 11.6922 14.8905C11.1889 15.2147 10.4109 14.5349 10.0196 14.2882C9.69626 14.0843 9.5346 13.9823 9.35518 13.9764C9.16131 13.9701 8.99678 14.0678 8.64741 14.2882L7.37349 15.0916C7.02986 15.3083 6.85802 15.4166 6.66683 15.4166C6.47563 15.4166 6.3038 15.3083 5.96016 15.0916L4.68625 14.2882C4.36293 14.0843 4.20127 13.9823 4.02185 13.9764C3.82797 13.9701 3.66345 14.0678 3.31408 14.2882C2.92279 14.5349 2.14475 15.2147 1.64147 14.8905C1.3335 14.6922 1.3335 14.1883 1.3335 13.1805V6.11949C1.3335 4.21682 1.3335 3.26548 1.91928 2.6744C2.50507 2.08331 3.44788 2.08331 5.3335 2.08331H13.3335" stroke="#606062" stroke-linecap="round" stroke-linejoin="round"/>
</g>
<defs>
<clipPath id="clip0_5028_2746">
<rect width="16" height="16" fill="white" transform="translate(0 0.75)"/>
</clipPath>
</defs>
</svg>
