<svg width="16" height="17" viewBox="0 0 16 17" fill="none" xmlns="http://www.w3.org/2000/svg">
<g clip-path="url(#clip0_5028_2741)">
<path d="M10 6.75L6 10.7497M10 10.75L6 6.75026" stroke="#606062" stroke-linecap="round" stroke-linejoin="round"/>
<path d="M1.6665 8.75002C1.6665 5.76446 1.6665 4.27168 2.594 3.34418C3.52149 2.41669 5.01428 2.41669 7.99984 2.41669C10.9854 2.41669 12.4782 2.41669 13.4057 3.34418C14.3332 4.27168 14.3332 5.76446 14.3332 8.75002C14.3332 11.7356 14.3332 13.2284 13.4057 14.1559C12.4782 15.0834 10.9854 15.0834 7.99984 15.0834C5.01428 15.0834 3.52149 15.0834 2.594 14.1559C1.6665 13.2284 1.6665 11.7356 1.6665 8.75002Z" stroke="#606062"/>
</g>
<defs>
<clipPath id="clip0_5028_2741">
<rect width="16" height="16" fill="white" transform="translate(0 0.75)"/>
</clipPath>
</defs>
</svg>
