<svg width="16" height="17" viewBox="0 0 16 17" fill="none" xmlns="http://www.w3.org/2000/svg">
<g clip-path="url(#clip0_5028_2750)">
<path d="M1.3335 12.75C1.3335 11.723 1.3335 11.2095 1.56465 10.8323C1.69399 10.6213 1.87145 10.4438 2.08252 10.3145C2.45972 10.0833 2.9732 10.0833 4.00016 10.0833C5.02712 10.0833 5.5406 10.0833 5.91781 10.3145C6.12888 10.4438 6.30633 10.6213 6.43568 10.8323C6.66683 11.2095 6.66683 11.723 6.66683 12.75C6.66683 13.7769 6.66683 14.2904 6.43568 14.6676C6.30633 14.8787 6.12888 15.0562 5.91781 15.1855C5.5406 15.4166 5.02712 15.4166 4.00016 15.4166C2.9732 15.4166 2.45972 15.4166 2.08252 15.1855C1.87145 15.0562 1.69399 14.8787 1.56465 14.6676C1.3335 14.2904 1.3335 13.7769 1.3335 12.75Z" stroke="#606062"/>
<path d="M9.3335 12.75C9.3335 11.723 9.3335 11.2095 9.56465 10.8323C9.69399 10.6213 9.87145 10.4438 10.0825 10.3145C10.4597 10.0833 10.9732 10.0833 12.0002 10.0833C13.0271 10.0833 13.5406 10.0833 13.9178 10.3145C14.1289 10.4438 14.3063 10.6213 14.4357 10.8323C14.6668 11.2095 14.6668 11.723 14.6668 12.75C14.6668 13.7769 14.6668 14.2904 14.4357 14.6676C14.3063 14.8787 14.1289 15.0562 13.9178 15.1855C13.5406 15.4166 13.0271 15.4166 12.0002 15.4166C10.9732 15.4166 10.4597 15.4166 10.0825 15.1855C9.87145 15.0562 9.69399 14.8787 9.56465 14.6676C9.3335 14.2904 9.3335 13.7769 9.3335 12.75Z" stroke="#606062"/>
<path d="M1.3335 4.74998C1.3335 3.72302 1.3335 3.20954 1.56465 2.83233C1.69399 2.62127 1.87145 2.44381 2.08252 2.31447C2.45972 2.08331 2.9732 2.08331 4.00016 2.08331C5.02712 2.08331 5.5406 2.08331 5.91781 2.31447C6.12888 2.44381 6.30633 2.62127 6.43568 2.83233C6.66683 3.20954 6.66683 3.72302 6.66683 4.74998C6.66683 5.77694 6.66683 6.29042 6.43568 6.66762C6.30633 6.87869 6.12888 7.05615 5.91781 7.18549C5.5406 7.41665 5.02712 7.41665 4.00016 7.41665C2.9732 7.41665 2.45972 7.41665 2.08252 7.18549C1.87145 7.05615 1.69399 6.87869 1.56465 6.66762C1.3335 6.29042 1.3335 5.77694 1.3335 4.74998Z" stroke="#606062"/>
<path d="M9.3335 4.74998C9.3335 3.72302 9.3335 3.20954 9.56465 2.83233C9.69399 2.62127 9.87145 2.44381 10.0825 2.31447C10.4597 2.08331 10.9732 2.08331 12.0002 2.08331C13.0271 2.08331 13.5406 2.08331 13.9178 2.31447C14.1289 2.44381 14.3063 2.62127 14.4357 2.83233C14.6668 3.20954 14.6668 3.72302 14.6668 4.74998C14.6668 5.77694 14.6668 6.29042 14.4357 6.66762C14.3063 6.87869 14.1289 7.05615 13.9178 7.18549C13.5406 7.41665 13.0271 7.41665 12.0002 7.41665C10.9732 7.41665 10.4597 7.41665 10.0825 7.18549C9.87145 7.05615 9.69399 6.87869 9.56465 6.66762C9.3335 6.29042 9.3335 5.77694 9.3335 4.74998Z" stroke="#606062"/>
</g>
<defs>
<clipPath id="clip0_5028_2750">
<rect width="16" height="16" fill="white" transform="translate(0 0.75)"/>
</clipPath>
</defs>
</svg>
