<svg width="16" height="17" viewBox="0 0 16 17" fill="none" xmlns="http://www.w3.org/2000/svg">
<g clip-path="url(#clip0_5028_2742)">
<path d="M4.99984 3.08331C3.96264 3.11443 3.34425 3.22987 2.91635 3.65816C2.33057 4.24449 2.33057 5.18818 2.33057 7.07555L2.33057 11.4129C2.33057 13.3003 2.33057 14.244 2.91635 14.8303C3.50214 15.4166 4.44495 15.4166 6.33057 15.4166L9.6639 15.4166C11.5495 15.4166 12.4923 15.4166 13.0781 14.8303C13.6639 14.244 13.6639 13.3003 13.6639 11.4129V7.07555C13.6639 5.18818 13.6639 4.24449 13.0781 3.65816C12.6502 3.22987 12.0318 3.11443 10.9946 3.08331" stroke="#606062"/>
<path d="M4.99756 3.24998C4.99756 2.60565 5.51989 2.08331 6.16423 2.08331H9.83089C10.4752 2.08331 10.9976 2.60565 10.9976 3.24998C10.9976 3.89431 10.4752 4.41665 9.83089 4.41665H6.16423C5.51989 4.41665 4.99756 3.89431 4.99756 3.24998Z" stroke="#606062" stroke-linejoin="round"/>
<path d="M9 9.41669H11.3333" stroke="#606062" stroke-linecap="round"/>
<path d="M4.6665 10.0833C4.6665 10.0833 4.99984 10.0833 5.33317 10.75C5.33317 10.75 6.39199 9.08333 7.33317 8.75" stroke="#606062" stroke-linecap="round" stroke-linejoin="round"/>
</g>
<defs>
<clipPath id="clip0_5028_2742">
<rect width="16" height="16" fill="white" transform="translate(0 0.75)"/>
</clipPath>
</defs>
</svg>
