<svg width="30" height="26" viewBox="0 0 30 26" fill="none" xmlns="http://www.w3.org/2000/svg">
<path d="M5.74116 0.281664C5.7944 8.33802 5.65385 16.628 5.70709 24.6846H11.0077L11.2207 0.281664H5.74116Z" fill="white"/>
<path d="M5.89003 24.5017H10.8265L11.0352 0.464071H5.9241C5.94966 4.43709 5.92836 8.52894 5.90707 12.4877C5.88577 16.4439 5.86448 20.5328 5.89003 24.5017ZM11.0075 24.8672H5.70689C5.6068 24.8672 5.52588 24.786 5.52588 24.6855C5.49819 20.6578 5.51947 16.5033 5.54077 12.486C5.56419 8.46698 5.58551 4.31102 5.55782 0.282627C5.55782 0.234072 5.57699 0.187218 5.61106 0.152718C5.64514 0.118217 5.69198 0.0986252 5.74096 0.0986252H11.2205C11.2695 0.0986252 11.3163 0.118217 11.3504 0.152931C11.3845 0.187431 11.4036 0.234285 11.4036 0.283052L11.1907 24.686C11.1885 24.7863 11.1076 24.8672 11.0075 24.8672Z" fill="#2F2F2F"/>
<path d="M5.7518 6.43011L11.1674 6.39518L11.0673 17.6705L5.70068 17.6875L5.7518 6.43011Z" fill="white"/>
<path d="M5.93285 6.61194L5.88388 17.5045L10.8863 17.4888L10.9822 6.57935L5.93285 6.61194ZM5.70072 17.8706C5.65174 17.8706 5.60702 17.8512 5.57082 17.8169C5.53674 17.7824 5.51758 17.7358 5.51758 17.687L5.5687 6.42964C5.5687 6.32934 5.64962 6.24841 5.74972 6.24777L11.1653 6.21285H11.1675C11.2164 6.21285 11.2612 6.23201 11.2952 6.26651C11.3314 6.30101 11.3506 6.34808 11.3506 6.39706L11.2505 17.6723C11.2505 17.7726 11.1696 17.8531 11.0695 17.8536L5.70072 17.8706Z" fill="#2F2F2F"/>
<path d="M7.46875 21.1077C7.46875 20.5806 7.89469 20.1534 8.42284 20.1534C8.94885 20.1534 9.3769 20.5806 9.3769 21.1077C9.3769 21.6346 8.94885 22.062 8.42284 22.062C7.89469 22.062 7.46875 21.6346 7.46875 21.1077Z" fill="white"/>
<path d="M8.42238 20.3363C7.99646 20.3363 7.64931 20.6823 7.64931 21.1078C7.64931 21.5331 7.99646 21.8792 8.42238 21.8792C8.84618 21.8792 9.19329 21.5331 9.19329 21.1078C9.19329 20.6823 8.84618 20.3363 8.42238 20.3363ZM8.42238 22.2446C7.79414 22.2446 7.28516 21.7348 7.28516 21.1078C7.28516 20.4809 7.79414 19.9708 8.42238 19.9708C9.04849 19.9708 9.55747 20.4809 9.55747 21.1078C9.55747 21.7348 9.04849 22.2446 8.42238 22.2446Z" fill="#2F2F2F"/>
<path d="M12.3198 0.281664C12.373 8.33802 12.2325 16.628 12.2857 24.6846H17.5863L17.7993 0.281664H12.3198Z" fill="white"/>
<path d="M12.4667 24.5017H17.4053L17.614 0.464071H12.5029C12.5284 4.43581 12.5071 8.52618 12.4858 12.4839C12.4645 16.4413 12.4432 20.5313 12.4667 24.5017ZM17.5863 24.8672H12.2856C12.1855 24.8672 12.1046 24.786 12.1025 24.6855C12.0769 20.6563 12.0982 16.5008 12.1195 12.4822C12.1408 8.4642 12.1643 4.30995 12.1366 0.282627C12.1366 0.234072 12.1557 0.187218 12.1898 0.152718C12.2239 0.118217 12.2707 0.0986252 12.3197 0.0986252H17.7992C17.8482 0.0986252 17.8929 0.118217 17.9291 0.152931C17.9632 0.187431 17.9824 0.234285 17.9803 0.283052L17.7694 24.686C17.7673 24.7863 17.6864 24.8672 17.5863 24.8672Z" fill="#2F2F2F"/>
<path d="M12.3283 6.43011L17.7439 6.39518L17.6459 17.6705L12.2793 17.6875L12.3283 6.43011Z" fill="#2F2F2F"/>
<path d="M12.5115 6.61194L12.4625 17.5045L17.465 17.4888L17.5608 6.57935L12.5115 6.61194ZM12.2793 17.8706C12.2303 17.8706 12.1835 17.8512 12.1494 17.8169C12.1154 17.7824 12.0962 17.7358 12.0962 17.687L12.1473 6.42964C12.1473 6.32934 12.2282 6.24841 12.3283 6.24777L17.7439 6.21285C17.7929 6.21285 17.8398 6.23201 17.8738 6.26651C17.9079 6.30101 17.9271 6.34808 17.9271 6.39706L17.8291 17.6723C17.8291 17.7726 17.7461 17.8531 17.646 17.8536L12.2793 17.8706Z" fill="#2F2F2F"/>
<path d="M14.0449 21.1077C14.0449 20.5806 14.473 20.1534 14.999 20.1534C15.5271 20.1534 15.9531 20.5806 15.9531 21.1077C15.9531 21.6346 15.5271 22.062 14.999 22.062C14.473 22.062 14.0449 21.6346 14.0449 21.1077Z" fill="white"/>
<path d="M14.9989 20.3363C14.5751 20.3363 14.2279 20.6823 14.2279 21.1078C14.2279 21.5331 14.5751 21.8792 14.9989 21.8792C15.4248 21.8792 15.7719 21.5331 15.7719 21.1078C15.7719 20.6823 15.4248 20.3363 14.9989 20.3363ZM14.9989 22.2446C14.3727 22.2446 13.8638 21.7348 13.8638 21.1078C13.8638 20.4809 14.3727 19.9708 14.9989 19.9708C15.6271 19.9708 16.1361 20.4809 16.1361 21.1078C16.1361 21.7348 15.6271 22.2446 14.9989 22.2446Z" fill="#2F2F2F"/>
<path d="M18.8979 0.281664C18.9511 8.33802 18.8106 16.628 18.8638 24.6846H24.1623L24.3753 0.281664H18.8979Z" fill="white"/>
<path d="M19.0448 24.5017H23.9813L24.1921 0.464071H19.081C19.1066 4.43581 19.0831 8.52618 19.064 12.4839C19.0427 16.4413 19.0192 20.5313 19.0448 24.5017ZM24.1644 24.8672H18.8638C18.7637 24.8672 18.6827 24.786 18.6806 24.6855C18.6551 20.6563 18.6764 16.5008 18.6977 12.4822C18.719 8.4642 18.7403 4.30995 18.7147 0.282627C18.7147 0.234072 18.7339 0.187218 18.7679 0.152718C18.802 0.118217 18.8489 0.0986252 18.8978 0.0986252H24.3752C24.4242 0.0986252 24.4711 0.118217 24.5051 0.152931C24.5392 0.187431 24.5584 0.234285 24.5584 0.283052L24.3454 24.686C24.3454 24.7863 24.2645 24.8672 24.1644 24.8672Z" fill="#2F2F2F"/>
<path d="M18.9064 6.43011L24.322 6.39518L24.2241 17.6705L18.8574 17.6875L18.9064 6.43011Z" fill="white"/>
<path d="M19.0901 6.61194L19.0411 17.5045L24.0436 17.4888L24.1394 6.57935L19.0901 6.61194ZM18.858 17.8706C18.809 17.8706 18.7621 17.8512 18.728 17.8169C18.694 17.7824 18.6748 17.7358 18.6748 17.687L18.7238 6.42964C18.7259 6.32934 18.8068 6.24841 18.9069 6.24777L24.3226 6.21285C24.3715 6.21285 24.4184 6.23201 24.4525 6.26651C24.4865 6.30101 24.5057 6.34808 24.5057 6.39706L24.4077 17.6723C24.4056 17.7726 24.3247 17.8531 24.2246 17.8536L18.858 17.8706Z" fill="#2F2F2F"/>
<path d="M20.623 21.1077C20.623 20.5806 21.0511 20.1534 21.5771 20.1534C22.1053 20.1534 22.5312 20.5806 22.5312 21.1077C22.5312 21.6346 22.1053 22.062 21.5771 22.062C21.0511 22.062 20.623 21.6346 20.623 21.1077Z" fill="white"/>
<path d="M21.5771 20.3363C21.1512 20.3363 20.8062 20.6823 20.8062 21.1078C20.8062 21.5331 21.1512 21.8792 21.5771 21.8792C22.0031 21.8792 22.3481 21.5331 22.3481 21.1078C22.3481 20.6823 22.0031 20.3363 21.5771 20.3363ZM21.5771 22.2446C20.951 22.2446 20.4399 21.7348 20.4399 21.1078C20.4399 20.4809 20.951 19.9708 21.5771 19.9708C22.2033 19.9708 22.7144 20.4809 22.7144 21.1078C22.7144 21.7348 22.2033 22.2446 21.5771 22.2446Z" fill="#2F2F2F"/>
<path d="M24.4225 25.9956C16.3491 25.9956 8.21825 25.9011 0.176797 25.7134C0.0767044 25.7111 -0.00208745 25.6274 4.2171e-05 25.5264C0.00217179 25.4255 0.08734 25.351 0.185303 25.348C10.0178 25.5778 19.9865 25.6676 29.8169 25.6161C29.9191 25.6161 30 25.6972 30 25.7978C30 25.8987 29.9191 25.9809 29.819 25.9816C28.0237 25.9909 26.2242 25.9956 24.4225 25.9956Z" fill="#2F2F2F"/>
<path d="M19.5668 8.64941L19.5327 8.63898C19.5051 8.62045 19.4965 8.58254 19.5157 8.55465C19.9012 7.97986 20.3122 7.4121 20.7402 6.8665C20.7615 6.83988 20.7999 6.83562 20.8254 6.85606C20.851 6.87672 20.8574 6.91505 20.8361 6.94167C20.4102 7.48473 20.0013 8.05035 19.6179 8.62237C19.6051 8.63983 19.586 8.64941 19.5668 8.64941Z" fill="#2F2F2F"/>
<path d="M19.4222 10.6465L19.3902 10.6363C19.3604 10.6177 19.354 10.5798 19.3732 10.5517L21.8116 6.87024C21.8308 6.84213 21.8691 6.8351 21.8968 6.85321C21.9245 6.87173 21.933 6.90964 21.9139 6.93754L19.4733 10.6192C19.4626 10.6369 19.4435 10.6465 19.4222 10.6465Z" fill="#2F2F2F"/>
<path d="M19.4921 12.2349L19.458 12.2244C19.4303 12.2055 19.4218 12.1676 19.441 12.1399L22.9783 6.94808C22.9975 6.91997 23.0358 6.91315 23.0635 6.93189C23.0912 6.95085 23.0976 6.98875 23.0784 7.01644L19.5411 12.2082C19.5305 12.2257 19.5113 12.2349 19.4921 12.2349Z" fill="#2F2F2F"/>
<path d="M19.5671 13.8906L19.5309 13.8783C19.5032 13.8578 19.4989 13.8197 19.5181 13.7931C20.9513 11.9114 22.3335 9.95338 23.6261 7.9739C23.6453 7.94579 23.6836 7.93812 23.7113 7.95601C23.739 7.97454 23.7475 8.01223 23.7284 8.04034C22.4335 10.0224 21.0493 11.9829 19.6161 13.8668L19.5671 13.8906Z" fill="#2F2F2F"/>
<path d="M19.4605 15.8799L19.4243 15.8682C19.3988 15.8482 19.3924 15.81 19.4115 15.783L23.4599 10.2513C23.4812 10.2242 23.5196 10.2183 23.5451 10.2381C23.5728 10.2581 23.5792 10.296 23.5579 10.3233L19.5095 15.855L19.4605 15.8799Z" fill="#2F2F2F"/>
<path d="M19.722 17.0688L19.6836 17.0561C19.6581 17.0356 19.6517 16.9971 19.673 16.9707L23.4594 12.0732C23.4807 12.0466 23.5191 12.0421 23.5446 12.0623C23.5723 12.083 23.5766 12.1211 23.5574 12.1477L19.7688 17.045L19.722 17.0688Z" fill="#2F2F2F"/>
<path d="M20.7807 17.252L20.7424 17.2385C20.7168 17.2172 20.7126 17.1789 20.7338 17.1529L23.4363 13.8154C23.4576 13.7892 23.496 13.7849 23.5215 13.8062C23.5471 13.8273 23.5513 13.8656 23.53 13.8918L20.8276 17.2294L20.7807 17.252Z" fill="#2F2F2F"/>
<path d="M22.0609 17.1973L22.0204 17.1824C21.9949 17.1602 21.9927 17.1217 22.014 17.0963L23.6325 15.2316C23.6538 15.2063 23.6922 15.2035 23.7177 15.2257C23.7433 15.2476 23.7454 15.2861 23.7241 15.3115L22.1056 17.1762L22.0609 17.1973Z" fill="#2F2F2F"/>
<path d="M23.2511 17.1636L23.2106 17.1497C23.1851 17.1284 23.1808 17.0901 23.2021 17.0641L23.6941 16.4653C23.7153 16.4391 23.7537 16.4352 23.7792 16.4565C23.8048 16.4778 23.8091 16.5162 23.7878 16.5424L23.298 17.1412L23.2511 17.1636Z" fill="#2F2F2F"/>
<path d="M10.1838 24.3164L10.1816 24.3023L10.1838 24.3141V24.3164Z" fill="#DEDEDE"/>
<path d="M10.5373 24.9346C10.4649 24.9346 10.3925 24.9135 10.3286 24.8668H10.763C10.6949 24.9101 10.6161 24.9346 10.5373 24.9346ZM11.0953 0.0982838H10.6204C10.6864 0.0354595 10.7758 -0.000955582 10.8674 -0.000955582C10.9462 -0.000955582 11.0271 0.0280113 11.0889 0.0923252C11.091 0.0942421 11.0931 0.0963669 11.0953 0.0982838Z" fill="#DEDEDE"/>
<path d="M10.8269 24.502H10.1773C10.1816 24.4589 10.1837 24.4157 10.1837 24.3723C10.1837 24.3412 10.1837 24.3241 10.1837 24.3169L10.188 24.3484L10.1859 24.3271L10.1837 24.3158V24.3139L10.1795 24.2788L10.1816 24.3028C10.1411 24.0451 10.139 23.8309 10.1241 23.3931C10.1156 22.5587 10.0453 21.723 10.0921 20.8895C10.1454 19.8796 10.1582 18.8678 10.1773 17.8565L10.8844 17.8543L10.8269 24.502ZM10.4499 6.21745C10.4904 4.29994 10.5223 2.38222 10.5287 0.464279H11.0356L10.9866 6.21404L10.4499 6.21745Z" fill="#DEDEDE"/>
<path d="M10.7633 24.8672H10.3289C10.314 24.8555 10.2991 24.8421 10.2842 24.8272C10.2011 24.7445 10.167 24.6246 10.1777 24.5083C10.1777 24.5062 10.1777 24.5039 10.1777 24.5017H10.8272L10.8847 17.8541H10.906C10.8996 18.2747 10.8932 18.6951 10.889 19.1157C10.8868 19.9401 10.9081 20.7638 10.8932 21.5882C10.9103 22.4058 10.9337 23.2259 10.8741 24.042L10.8698 24.0714V24.0941C10.8698 24.1361 10.8762 24.217 10.8826 24.2624C10.8932 24.315 10.9017 24.3678 10.9081 24.4208C10.9209 24.4611 10.9252 24.5041 10.9273 24.5435C10.938 24.684 10.8655 24.799 10.7633 24.8672ZM11.1892 6.21405C11.1829 6.2132 11.1743 6.21277 11.1679 6.21277H11.1658L10.9869 6.21383L11.0359 0.464071H10.5291C10.5291 0.417433 10.5291 0.371006 10.5291 0.324366C10.5269 0.23258 10.5631 0.15506 10.6206 0.0986252H11.0956C11.1509 0.159531 11.185 0.240034 11.185 0.324366C11.1871 0.931734 11.1871 1.53889 11.1935 2.14626C11.2148 3.50198 11.2105 4.85833 11.1892 6.21405Z" fill="#2F2F2F"/>
<path d="M10.1836 17.4912C10.1879 17.3074 10.19 17.1236 10.1964 16.9398C10.207 15.7549 10.2305 14.5706 10.2326 13.3855C10.2922 12.1224 10.322 10.8587 10.3795 9.59543C10.3987 8.5911 10.4221 7.5872 10.4434 6.58287L10.9822 6.57946L10.8864 17.4889L10.1836 17.4912Z" fill="#DEDEDE"/>
<path d="M10.1772 17.856C10.1794 17.7341 10.1815 17.6123 10.1836 17.4907L10.8864 17.4884L10.9822 6.57897L10.4434 6.58238C10.4456 6.46078 10.4477 6.33875 10.4498 6.21694L10.9865 6.21353L11.1654 6.21247H11.1675C11.1739 6.21247 11.1824 6.21289 11.1888 6.21374C11.1846 6.63477 11.176 7.05558 11.1675 7.4764C11.1803 8.65876 11.0887 9.83559 11.0355 11.0156C10.9652 13.2945 10.9333 15.5741 10.9056 17.8538H10.8843L10.1772 17.856Z" fill="#2F2F2F"/>
<path d="M17.1753 24.9419C17.12 24.9419 17.0625 24.9274 17.0113 24.895C16.9964 24.8867 16.9815 24.8774 16.9688 24.8671H17.3883C17.3265 24.9138 17.252 24.9419 17.1753 24.9419ZM17.565 0.0985813H17.1966C17.2541 0.0662117 17.3201 0.0483246 17.3861 0.0483246C17.4479 0.0483246 17.5097 0.0642948 17.565 0.0985813Z" fill="#DEDEDE"/>
<path d="M17.4054 24.502H16.8091C16.7452 24.2221 16.7431 24.201 16.7261 23.9201C16.7176 23.2964 16.7282 22.6724 16.7282 22.0486C16.7133 20.6507 16.7282 19.2535 16.7751 17.8565L17.4629 17.8543L17.4587 18.3209C17.4012 19.8664 17.4161 21.4151 17.4182 22.962L17.4054 24.502ZM16.9965 6.21766C17.0136 4.30015 17.0114 2.38243 17.02 0.464279H17.6141L17.5652 6.21404L16.9965 6.21766Z" fill="#DEDEDE"/>
<path d="M17.3883 24.8672H16.9688C16.9007 24.8116 16.8581 24.7292 16.841 24.6415C16.8282 24.5884 16.8176 24.5424 16.8091 24.5017H17.4054L17.4181 22.9618C17.4181 23.214 17.4181 23.4663 17.4181 23.7185C17.4118 24.1244 17.4054 24.0788 17.5119 24.5096C17.5566 24.6521 17.4927 24.7871 17.3883 24.8672ZM17.4586 18.3207L17.4629 17.8541H17.4778C17.4714 18.0096 17.465 18.1653 17.4586 18.3207ZM17.5651 6.21383L17.6141 0.464071H17.0199C17.0199 0.442987 17.0199 0.421906 17.0199 0.400608C17.0156 0.264952 17.0923 0.157827 17.1967 0.0986252H17.5651C17.5864 0.11268 17.6077 0.129507 17.6268 0.149525C17.6929 0.216396 17.7312 0.30584 17.7312 0.400608C17.7312 0.801828 17.7312 1.20305 17.7333 1.60427C17.7482 3.14058 17.7482 4.67667 17.7333 6.21277L17.5651 6.21383Z" fill="#2F2F2F"/>
<path d="M16.7939 17.4907C16.9026 16.0786 16.975 14.6643 16.975 13.2472C16.9771 12.4974 17.0303 11.7484 17.0282 10.9988C17.0176 10.1184 16.9707 9.23886 16.9686 8.35848C16.9792 7.76645 16.9877 7.17463 16.992 6.5828L17.5606 6.57918L17.4648 17.4886L16.7939 17.4907Z" fill="#868686"/>
<path d="M16.7749 17.856C16.777 17.7897 16.7792 17.7237 16.7813 17.6575C16.7856 17.6019 16.7898 17.5461 16.7941 17.4905L17.4649 17.4884L17.5607 6.57897L16.9921 6.5826C16.9943 6.46099 16.9964 6.33896 16.9964 6.21715L17.565 6.21353L17.7332 6.21247C17.7247 7.21552 17.7098 8.21836 17.6906 9.2212C17.7055 10.513 17.7375 11.8055 17.648 13.096C17.6204 14.1745 17.6438 15.2544 17.5799 16.3316C17.5352 16.8384 17.5011 17.3459 17.4777 17.8538H17.4628L16.7749 17.856Z" fill="#2F2F2F"/>
<path d="M7.90497 21.6792C7.74738 21.538 7.64941 21.334 7.64941 21.1076C7.64941 20.6821 7.99656 20.336 8.42248 20.336C8.47572 20.336 8.52682 20.3414 8.5758 20.3516C8.57793 20.3637 8.57794 20.3761 8.57794 20.3886C8.5822 20.5763 8.4097 20.6859 8.30748 20.8199C8.25423 20.9155 8.10728 21.0473 8.14988 21.3521C8.14775 21.5342 8.03701 21.6434 7.90497 21.6792Z" fill="#DEDEDE"/>
<path d="M7.80491 21.6924C7.63241 21.6924 7.46204 21.5791 7.45991 21.3521C7.40241 20.8838 7.67287 20.463 7.99231 20.1465C8.0562 20.0781 8.13925 20.0479 8.22443 20.0479C8.39267 20.0479 8.56091 20.1706 8.57582 20.3516C8.52684 20.3413 8.47574 20.336 8.4225 20.336C7.99658 20.336 7.64943 20.6821 7.64943 21.1076C7.64943 21.334 7.7474 21.538 7.90499 21.6792C7.87091 21.6879 7.83899 21.6924 7.80491 21.6924Z" fill="#2F2F2F"/>
<path d="M14.5602 21.7422C14.3601 21.6027 14.228 21.3704 14.228 21.108C14.228 20.6825 14.5752 20.3364 14.999 20.3364C15.2162 20.3364 15.4121 20.4257 15.5505 20.5692C15.542 20.6235 15.5164 20.6778 15.476 20.7285C15.3738 20.8682 15.18 20.8852 15.0415 20.9832C15.0075 21.0109 14.9734 21.039 14.9415 21.0707L14.9329 21.0822C14.8009 21.2901 14.8499 21.1908 14.7711 21.5122C14.7413 21.6242 14.6603 21.7041 14.5602 21.7422Z" fill="#DEDEDE"/>
<path d="M14.4261 21.7666C14.3388 21.7666 14.2515 21.7351 14.1833 21.6663C14.0279 21.5157 14.0854 21.281 14.1216 21.0924C14.2259 20.6566 14.5837 20.3319 14.9968 20.1828C15.0565 20.1464 15.1204 20.1304 15.18 20.1304C15.4015 20.1304 15.5931 20.3504 15.5505 20.5687C15.4121 20.4252 15.2162 20.3359 14.999 20.3359C14.5752 20.3359 14.228 20.682 14.228 21.1075C14.228 21.3698 14.3601 21.6022 14.5603 21.7417C14.5177 21.7581 14.4729 21.7666 14.4261 21.7666Z" fill="#2F2F2F"/>
<path d="M21.0958 21.5659C21.0383 21.5659 20.9808 21.5523 20.9297 21.5263C20.8509 21.4056 20.8062 21.2618 20.8062 21.1078C20.8062 21.0491 20.8125 20.9918 20.8253 20.9366C20.87 20.8174 20.9318 20.7049 20.9999 20.5969C21.1405 20.4372 21.3471 20.3363 21.5771 20.3363C21.7027 20.3363 21.8199 20.3661 21.9242 20.4191C21.8944 20.5707 21.7517 20.6768 21.6729 20.8071C21.4876 21.0791 21.5132 21.0307 21.4429 21.2392C21.4152 21.4637 21.2555 21.5659 21.0958 21.5659Z" fill="#DEDEDE"/>
<path d="M20.93 21.5264C20.8086 21.464 20.7234 21.3304 20.766 21.1384C20.7809 21.0689 20.8001 21.0018 20.8256 20.9367C20.8128 20.9918 20.8065 21.0491 20.8065 21.1079C20.8065 21.2619 20.8512 21.4056 20.93 21.5264ZM21.0003 20.597C21.0918 20.4518 21.2004 20.315 21.3069 20.1809C21.3708 20.0671 21.4773 20.0175 21.5859 20.0175C21.7776 20.0175 21.9692 20.1698 21.9288 20.3955C21.9288 20.4036 21.9266 20.4115 21.9245 20.4192C21.8202 20.3661 21.703 20.3363 21.5774 20.3363C21.3474 20.3363 21.1408 20.4373 21.0003 20.597Z" fill="#2F2F2F"/>
<path d="M23.6878 24.9224C23.6196 24.9224 23.5536 24.9021 23.4961 24.867H23.8794C23.8517 24.8845 23.8198 24.8987 23.7836 24.9089C23.7516 24.9181 23.7197 24.9224 23.6878 24.9224Z" fill="#DEDEDE"/>
<path d="M23.9815 24.502H23.3213C23.3745 22.3404 23.3852 20.1773 23.3681 18.0145C23.366 17.9619 23.366 17.9091 23.3639 17.8565L24.0411 17.8543L23.9815 24.502ZM23.4555 6.21852C23.4533 5.68952 23.4512 5.16052 23.4618 4.63152C23.5002 3.24237 23.6045 1.85428 23.5257 0.464279H24.1923L24.1412 6.21404L23.4555 6.21852Z" fill="#DEDEDE"/>
<path d="M23.8795 24.8672H23.4961C23.3918 24.8027 23.3173 24.6879 23.3194 24.5569C23.3215 24.5384 23.3215 24.5201 23.3215 24.5017H23.9817L24.0413 17.8541L24.0946 17.8539C24.0946 19.1888 24.1073 20.5238 24.1009 21.8585C24.1158 22.2739 24.1393 22.6888 24.1776 23.103C24.2053 23.79 24.3246 24.5007 24.1137 24.7181C24.0711 24.7643 24.0136 24.7903 23.954 24.8016C23.9348 24.8263 23.9093 24.8487 23.8795 24.8672ZM24.1414 6.21383L24.1925 0.464071H23.5259C23.5259 0.462793 23.5259 0.461517 23.5259 0.460026C23.5195 0.251963 23.7048 0.111191 23.888 0.111191C23.9753 0.111191 24.0605 0.142069 24.1265 0.211283C24.2756 0.359077 24.2223 0.582905 24.2458 0.773293C24.2649 1.1792 24.2756 1.58553 24.2862 1.99186C24.3054 2.88055 24.2309 3.76733 24.2202 4.65559C24.2138 5.1748 24.2117 5.69421 24.2074 6.21341L24.1414 6.21383Z" fill="#2F2F2F"/>
<path d="M23.3578 17.4907C23.3557 17.3517 23.3557 17.2126 23.3535 17.0733L23.788 16.5424C23.8093 16.5162 23.805 16.4779 23.7795 16.4566C23.7667 16.4474 23.7539 16.4427 23.7411 16.4427C23.722 16.4427 23.7049 16.4504 23.6943 16.4653L23.3514 16.8834C23.3493 16.6749 23.3493 16.4662 23.3493 16.2577C23.3472 16.0894 23.3429 15.9214 23.3408 15.7532L23.7241 15.3117C23.7454 15.2864 23.7433 15.2478 23.7177 15.2259C23.7071 15.2159 23.6922 15.211 23.6773 15.211C23.6602 15.211 23.6432 15.218 23.6325 15.2318L23.3386 15.5704C23.3322 15.2191 23.3259 14.8679 23.3195 14.5165C23.3174 14.4407 23.3386 14.3755 23.3748 14.3221C23.377 14.2407 23.377 14.1596 23.3791 14.0784L23.5303 13.8917C23.5516 13.8655 23.5474 13.8271 23.5218 13.8061C23.5111 13.7969 23.4962 13.7924 23.4834 13.7924C23.4664 13.7924 23.4473 13.8003 23.4366 13.8152L23.3834 13.8793C23.3876 13.7769 23.3897 13.6744 23.3919 13.572C23.3897 13.1695 23.3898 12.767 23.3898 12.3647L23.558 12.1475C23.5771 12.1209 23.5729 12.0828 23.5452 12.0621C23.5346 12.0536 23.5218 12.0495 23.509 12.0495C23.4898 12.0495 23.4728 12.0574 23.46 12.073L23.3898 12.1656C23.3898 11.6247 23.3919 11.0838 23.3983 10.5428L23.558 10.3235C23.5793 10.2962 23.5729 10.2583 23.5452 10.2383C23.5346 10.2304 23.5218 10.2266 23.509 10.2266C23.492 10.2266 23.4728 10.2353 23.46 10.2515L23.4004 10.3337C23.4089 9.71675 23.4196 9.10023 23.4387 8.48349C23.5346 8.33591 23.6325 8.18811 23.7284 8.0401C23.7475 8.01199 23.739 7.9743 23.7113 7.95577C23.7007 7.94938 23.69 7.94618 23.6794 7.94618C23.6581 7.94618 23.6389 7.95577 23.6261 7.97366C23.5665 8.06629 23.5047 8.15893 23.4451 8.25157C23.4451 8.24028 23.4451 8.22879 23.4451 8.21729C23.46 7.67296 23.46 7.1282 23.4579 6.58365L24.1394 6.57918L24.1032 10.5358C24.0755 11.6006 24.0755 12.6665 24.0734 13.7317C24.0648 13.9973 24.0585 14.2629 24.0499 14.5284C24.067 14.6941 24.0393 14.8698 24.0584 15.0348C24.0606 15.0917 24.0606 15.1484 24.0627 15.2052L24.0436 17.4886L23.3578 17.4907Z" fill="#DEDEDE"/>
<path d="M23.3638 17.856C23.3617 17.7341 23.3596 17.6123 23.3574 17.4905L24.0432 17.4884L24.0623 15.205C24.0836 15.8937 24.0943 16.5829 24.0964 17.2718C24.0943 17.4658 24.0943 17.6598 24.0943 17.8536L24.041 17.8538L23.3638 17.856ZM24.1028 10.5356L24.139 6.57897L23.4575 6.58344C23.4575 6.46163 23.4554 6.33982 23.4554 6.218L24.1411 6.21353L24.2071 6.21311C24.2007 7.31156 24.1922 8.40981 24.1411 9.50742C24.1262 9.85007 24.1134 10.1927 24.1028 10.5356Z" fill="#2F2F2F"/>
<path d="M23.4385 8.4834C23.4406 8.40609 23.4427 8.32879 23.4449 8.25148C23.5045 8.15884 23.5662 8.0662 23.6259 7.97356C23.6387 7.95567 23.6578 7.94609 23.6791 7.94609C23.6898 7.94609 23.7004 7.94929 23.7111 7.95568C23.7387 7.97421 23.7473 8.0119 23.7281 8.04001C23.6323 8.18802 23.5343 8.33582 23.4385 8.4834Z" fill="#2F2F2F"/>
<path d="M23.3979 10.543C23.3979 10.4733 23.4001 10.4035 23.4001 10.3338L23.4597 10.2516C23.4725 10.2354 23.4917 10.2267 23.5087 10.2267C23.5215 10.2267 23.5343 10.2306 23.5449 10.2384C23.5726 10.2585 23.579 10.2964 23.5577 10.3236L23.3979 10.543Z" fill="#2F2F2F"/>
<path d="M23.3896 12.3647C23.3896 12.2983 23.3896 12.2321 23.3896 12.1656L23.4599 12.073C23.4727 12.0574 23.4897 12.0496 23.5089 12.0496C23.5217 12.0496 23.5345 12.0536 23.5451 12.0621C23.5728 12.0828 23.577 12.1209 23.5579 12.1475L23.3896 12.3647Z" fill="#2F2F2F"/>
<path d="M23.3789 14.0781C23.381 14.0117 23.3832 13.9452 23.3832 13.879L23.4364 13.8149C23.4471 13.8 23.4662 13.7921 23.4832 13.7921C23.496 13.7921 23.5109 13.7966 23.5216 13.8057C23.5472 13.8268 23.5514 13.8652 23.5301 13.8914L23.3789 14.0781Z" fill="#2F2F2F"/>
<path d="M23.3405 15.7529C23.3405 15.692 23.3384 15.6311 23.3384 15.5702L23.6323 15.2316C23.6429 15.2178 23.66 15.2107 23.677 15.2107C23.6919 15.2107 23.7068 15.2156 23.7174 15.2256C23.743 15.2476 23.7451 15.2861 23.7239 15.3115L23.3405 15.7529Z" fill="#2F2F2F"/>
<path d="M23.3532 17.0732C23.3511 17.01 23.3511 16.9465 23.3511 16.8833L23.6939 16.4652C23.7046 16.4503 23.7216 16.4427 23.7408 16.4427C23.7536 16.4427 23.7663 16.4473 23.7791 16.4565C23.8047 16.4778 23.8089 16.5161 23.7876 16.5423L23.3532 17.0732Z" fill="#2F2F2F"/>
</svg>
