<svg width="30" height="31" viewBox="0 0 30 31" fill="none" xmlns="http://www.w3.org/2000/svg">
<path d="M0.214355 15.4566C0.214355 7.49375 6.83406 1.03883 14.9997 1.03883C23.1655 1.03883 29.7852 7.49375 29.7852 15.4566C29.7852 23.4191 23.1655 29.874 14.9997 29.874C6.83406 29.874 0.214355 23.4191 0.214355 15.4566Z" fill="white"/>
<path d="M15.0001 1.25368C6.96555 1.25368 0.429115 7.62507 0.429115 15.4566C0.429115 23.2884 6.96555 29.6598 15.0001 29.6598C23.0344 29.6598 29.5709 23.2884 29.5709 15.4566C29.5709 7.62507 23.0344 1.25368 15.0001 1.25368ZM15.0001 30.0889C6.72899 30.0889 0 23.5249 0 15.4566C0 7.38876 6.72899 0.824566 15.0001 0.824566C23.271 0.824566 30 7.38876 30 15.4566C30 23.5249 23.271 30.0889 15.0001 30.0889Z" fill="#2F2F2F"/>
<path d="M2.05225 15.4564C2.05225 8.54808 7.74372 2.94789 14.7643 2.94789C21.7851 2.94789 27.4763 8.54808 27.4763 15.4564C27.4763 22.3646 21.7851 27.9648 14.7643 27.9648C7.74372 27.9648 2.05225 22.3646 2.05225 15.4564Z" fill="white"/>
<path d="M14.7642 3.16248C7.8732 3.16248 2.26675 8.67765 2.26675 15.4564C2.26675 22.2354 7.8732 27.7506 14.7642 27.7506C21.6555 27.7506 27.2617 22.2354 27.2617 15.4564C27.2617 8.67765 21.6555 3.16248 14.7642 3.16248ZM14.7642 28.1797C7.63664 28.1797 1.83789 22.472 1.83789 15.4564C1.83789 8.44109 7.63664 2.73362 14.7642 2.73362C21.8921 2.73362 27.6908 8.44109 27.6908 15.4564C27.6908 22.472 21.8921 28.1797 14.7642 28.1797Z" fill="#2F2F2F"/>
<path d="M14.7644 15.6709C14.6838 15.6709 14.6066 15.6254 14.5701 15.5476L10.376 6.61456C10.3255 6.50728 10.3715 6.3795 10.4788 6.32924C10.5858 6.27897 10.7136 6.32473 10.7641 6.43201L14.9584 15.3653C15.0087 15.4726 14.9627 15.6004 14.8554 15.6506C14.8261 15.6644 14.7949 15.6709 14.7644 15.6709Z" fill="#2F2F2F"/>
<path d="M13.957 15.7312L19.649 19.1816L18.8048 20.6572L22.9239 20.0191L21.2347 16.4436L20.421 17.5837L14.5965 14.4959L13.957 15.7312Z" fill="#2F2F2F"/>
<path d="M14.2397 15.6522L19.7602 18.9986C19.8597 19.0588 19.8929 19.1876 19.8352 19.2887L19.2123 20.3774L22.6074 19.8513L21.1968 16.866L20.5956 17.7083C20.5334 17.796 20.4156 17.8238 20.3206 17.7733L14.6873 14.7872L14.2397 15.6522ZM18.8049 20.8721C18.7349 20.8721 18.6684 20.8378 18.6281 20.779C18.5813 20.7113 18.5776 20.6225 18.6186 20.551L19.359 19.2569L13.8461 15.9148C13.7496 15.8565 13.7148 15.7332 13.7666 15.633L14.406 14.3976C14.4323 14.3469 14.4775 14.3086 14.5323 14.2916C14.5871 14.2744 14.6463 14.2799 14.6968 14.3069L20.3556 17.3064L21.06 16.3191C21.1042 16.2574 21.1768 16.2231 21.2538 16.2301C21.3296 16.2369 21.3961 16.2834 21.4286 16.3522L23.118 19.9278C23.1468 19.9891 23.145 20.0601 23.1135 20.1199C23.0817 20.1796 23.0237 20.2211 22.9567 20.2314L18.8377 20.8696L18.8049 20.8721Z" fill="#2F2F2F"/>
<path d="M14.9467 14.128C14.4063 14.1778 13.9204 14.5991 13.7949 15.127C13.6269 15.8339 14.1697 16.6256 14.8899 16.7217C15.6099 16.8177 16.342 16.193 16.3588 15.4668C16.3753 14.7404 15.6684 14.0615 14.9467 14.128Z" fill="white"/>
<path d="M14.9663 14.3419C14.5211 14.3829 14.107 14.742 14.0035 15.1768C13.9375 15.4554 14.0043 15.7677 14.1868 16.0333C14.3691 16.2981 14.6357 16.4717 14.9183 16.5094C15.2023 16.5469 15.5049 16.4487 15.7497 16.2391C15.994 16.0301 16.1378 15.7467 16.1443 15.4622C16.1508 15.1753 16.0118 14.8705 15.7725 14.6472C15.5374 14.4279 15.2431 14.3151 14.9663 14.3419ZM15.038 16.9463C14.979 16.9463 14.92 16.9423 14.8615 16.9348C14.4589 16.881 14.0843 16.641 13.8335 16.2764C13.5819 15.911 13.4921 15.4742 13.5864 15.0778C13.7329 14.4616 14.2966 13.9728 14.927 13.9145C15.3264 13.8785 15.7405 14.0308 16.065 14.3334C16.3976 14.6437 16.5827 15.0585 16.5732 15.4719C16.5639 15.8785 16.3654 16.2769 16.0285 16.5649C15.74 16.812 15.3869 16.9463 15.038 16.9463Z" fill="#2F2F2F"/>
<path d="M3.24255 16.4863C3.13477 16.4863 3.04224 16.4053 3.02973 16.2958C3.01623 16.1783 3.101 16.0717 3.21878 16.0585C3.83219 15.989 4.45485 15.9837 5.06976 16.0422C5.18754 16.0535 5.27407 16.1582 5.26282 16.2763C5.25131 16.3941 5.14778 16.4803 5.02875 16.4693C4.44385 16.4136 3.8507 16.4188 3.26705 16.4848L3.24255 16.4863Z" fill="#2F2F2F"/>
<path d="M14.6848 26.4951H14.683C14.5645 26.4941 14.4692 26.3971 14.4702 26.2788L14.485 24.5209C14.486 24.4031 14.5817 24.3083 14.6995 24.3083H14.7013C14.8198 24.3093 14.9151 24.4061 14.9141 24.5246L14.8993 26.2823C14.8983 26.4003 14.8026 26.4951 14.6848 26.4951Z" fill="#2F2F2F"/>
<path d="M14.6775 6.04492H14.6757C14.5572 6.04392 14.4619 5.9469 14.4629 5.82862L14.4774 4.07066C14.4784 3.95288 14.5744 3.85811 14.692 3.85811H14.694C14.8122 3.85911 14.9075 3.95588 14.9065 4.07441L14.8918 5.83212C14.891 5.9499 14.795 6.04492 14.6775 6.04492Z" fill="#2F2F2F"/>
<path d="M26.0526 15.3564L26.0136 15.3529C25.5932 15.2759 25.1644 15.2534 24.738 15.2854C24.621 15.2947 24.517 15.2059 24.508 15.0879C24.499 14.9696 24.5875 14.8666 24.7058 14.8576C25.1686 14.8228 25.6342 14.8473 26.0911 14.9308C26.2074 14.9521 26.2847 15.0639 26.2634 15.1804C26.2444 15.2839 26.1541 15.3564 26.0526 15.3564Z" fill="#2F2F2F"/>
<path d="M16.3202 16.9131L15.9043 16.661C15.9468 16.631 15.9883 16.599 16.0283 16.5645C16.2831 16.3467 16.4589 16.0656 16.5335 15.7655L17.1329 16.0834C17.1229 16.1441 17.1021 16.2052 17.0701 16.2624C16.8986 16.5535 16.599 16.7358 16.3202 16.9131Z" fill="#868686"/>
<path d="M16.1313 16.9736C15.9823 16.9736 15.8468 16.8691 15.792 16.7346C15.8303 16.7118 15.868 16.6876 15.9048 16.6616L16.3206 16.9136C16.3159 16.9166 16.3111 16.9196 16.3064 16.9226C16.2486 16.9581 16.1891 16.9736 16.1313 16.9736ZM17.1333 16.0839L16.5339 15.7661C16.5399 15.7418 16.5452 15.7173 16.5499 15.6928C16.5892 15.6585 16.6355 15.6328 16.6865 15.6193C16.7217 15.6118 16.7552 15.6083 16.787 15.6083C17.0446 15.6083 17.1723 15.8453 17.1333 16.0839Z" fill="#2F2F2F"/>
<path d="M15.7919 16.7344C15.7486 16.6283 15.7556 16.5038 15.8454 16.3973C16.11 16.152 16.2517 16.151 16.4063 15.9632L16.4245 15.9432C16.4303 15.8469 16.4778 15.7554 16.5498 15.6926C16.5451 15.7171 16.5398 15.7416 16.5338 15.7659C16.4593 16.066 16.2835 16.347 16.0287 16.5648C15.9887 16.5993 15.9472 16.6314 15.9047 16.6614C15.8679 16.6874 15.8301 16.7116 15.7919 16.7344Z" fill="#2F2F2F"/>
<path d="M6.07283 24.2822C5.1776 23.4288 4.41091 22.4448 3.8055 21.3622C3.76149 21.2567 3.71948 21.1562 3.67997 21.0626C3.66621 21.0609 3.65271 21.0581 3.63921 21.0544C2.76198 19.3745 2.2666 17.471 2.2666 15.456C2.2666 8.6772 7.87305 3.16203 14.7641 3.16203C17.0519 3.16203 19.1975 3.76969 21.0439 4.82971C21.0114 4.84722 20.9747 4.85721 20.9354 4.85721C20.9049 4.85721 20.8727 4.85096 20.8396 4.83746C19.8299 4.4286 18.7521 4.22605 17.6831 4.0385C16.9816 3.92572 16.4938 3.82595 15.9056 3.77244C14.6028 3.78894 13.2277 3.95548 11.9309 4.24531C11.2022 4.47837 10.48 4.75069 9.95684 4.9975C9.05011 5.45962 8.54897 5.87898 7.81803 6.51014C7.12611 7.14631 6.36791 7.71795 5.76001 8.43964C5.07283 9.22159 4.24037 10.5112 3.78025 11.4444L3.77949 11.4467C3.15833 13.0663 2.96028 14.6295 3.05881 16.1611C3.0353 16.2001 3.0243 16.2467 3.0298 16.2952C3.03455 16.3379 3.05181 16.3762 3.07706 16.4072C3.11207 16.8203 3.16834 17.2312 3.24335 17.6403C3.4219 18.5755 3.55119 19.1947 3.81051 19.9796C4.03406 20.4382 4.24336 20.8743 4.35514 21.1619C4.53669 21.5765 4.74474 21.9786 4.9583 22.3775C5.1386 22.7276 5.30714 23.0877 5.5492 23.4005C5.64522 23.5233 5.61847 23.5053 5.80327 23.7051C5.94731 23.8614 6.21788 24.0334 6.07709 24.2752C6.07559 24.2775 6.07433 24.28 6.07283 24.2822Z" fill="#DEDEDE"/>
<path d="M5.83464 24.415C5.79863 24.415 5.76237 24.4073 5.72861 24.3903C5.59307 24.323 5.49931 24.1872 5.38328 24.0907C4.99918 23.7089 4.67859 23.2667 4.44528 22.7776C4.20497 22.3182 3.98716 21.7979 3.80561 21.363C4.41102 22.4455 5.17771 23.4295 6.07295 24.283C6.02193 24.363 5.92841 24.415 5.83464 24.415ZM3.63932 21.0552C3.5658 21.0354 3.49754 20.9884 3.44903 20.9076C3.03667 19.8716 2.83187 19.5823 2.55404 18.3787C2.40326 17.575 2.26422 16.7638 2.21796 15.9464C2.14569 14.0236 2.56805 11.8388 3.28598 10.4262C3.39801 10.1771 3.53155 9.94055 3.67509 9.70999C3.65533 9.61847 3.69333 9.52195 3.73434 9.43642C3.87188 9.07658 4.08093 8.752 4.27923 8.42366C4.43377 8.15659 4.58981 7.88977 4.76586 7.63596C4.93065 7.43866 4.84639 7.44066 5.05994 7.33988C5.0842 7.33288 5.10896 7.32963 5.13321 7.32963C5.18248 7.32963 5.23074 7.34288 5.2735 7.36589C5.78563 6.66871 6.35953 6.01929 7.02445 5.46015C7.69037 4.85424 9.01872 4.2946 9.43382 4.1283C10.2818 3.80122 11.1215 3.44287 12.0132 3.25032C12.6622 3.08253 13.3106 2.93649 13.7284 2.91349C13.8592 2.90174 13.9905 2.89624 14.1218 2.89624C14.2246 2.89624 14.3271 2.89973 14.4296 2.90649C14.5459 2.91524 14.6632 2.91974 14.7787 2.93625L14.7514 2.9305C14.8027 2.93625 15.001 2.96325 15.037 2.969C15.1115 2.9805 15.1678 3.01202 15.2106 3.05303C15.3143 3.05003 15.4179 3.04853 15.5216 3.04853C16.2266 3.04853 16.932 3.11729 17.6267 3.24758C17.837 3.27483 18.0445 3.31209 18.2498 3.35785C18.2476 3.43888 18.2891 3.51915 18.3906 3.5464C19.015 3.71445 19.6302 3.91825 20.2284 4.16481C20.5249 4.28709 20.817 4.42013 21.1043 4.56266C21.1316 4.57617 21.1583 4.59142 21.1856 4.60543C21.1811 4.6977 21.1256 4.78698 21.0441 4.83049C19.1976 3.77046 17.052 3.1628 14.7642 3.1628C7.87316 3.1628 2.26671 8.67798 2.26671 15.4567C2.26671 17.4717 2.7621 19.3752 3.63932 21.0552Z" fill="#2F2F2F"/>
<path d="M3.07698 16.4072C3.05172 16.3762 3.03447 16.338 3.02971 16.2952C3.02421 16.2467 3.03522 16.2002 3.05873 16.1612C3.06398 16.2432 3.06998 16.3252 3.07698 16.4072Z" fill="#2F2F2F"/>
<path d="M8.7043 28.7373C8.6978 28.7351 8.69131 28.7328 8.6848 28.7306C8.64504 28.7211 8.61079 28.704 8.58203 28.6813C8.62254 28.7 8.66329 28.7188 8.7043 28.7373Z" fill="#DEDEDE"/>
<path d="M14.9998 29.6592C12.7007 29.6592 10.5241 29.1375 8.58838 28.2093C8.59663 28.2033 8.60539 28.198 8.61464 28.193C8.6599 28.1663 8.71116 28.153 8.76292 28.153C8.78918 28.153 8.81544 28.1563 8.84095 28.1633C9.06926 28.2403 9.29832 28.3153 9.52538 28.3964C10.2551 28.6734 11.0195 28.8415 11.7775 29.0218C12.2116 29.103 12.902 29.1698 13.5849 29.1698C13.8792 29.1698 14.1723 29.1573 14.4426 29.1285C15.2496 29.0448 15.7052 29.1118 16.3479 28.9477C17.2099 28.7727 18.0663 28.5644 18.9133 28.3276C19.531 28.1503 20.1279 27.9087 20.741 27.7162C20.851 27.6727 20.869 27.6664 20.8703 27.6664C20.8705 27.6664 20.8703 27.6667 20.8698 27.6669C20.8693 27.6672 20.8688 27.6674 20.8691 27.6674C20.8696 27.6674 20.8813 27.6629 20.9496 27.6349C21.6535 27.3246 22.2742 26.8455 22.637 26.5671C23.6185 25.8645 24.7633 24.7779 25.8131 23.6774C26.0782 23.3861 26.3427 23.0937 26.5925 22.7894C26.6298 22.7404 26.6656 22.6931 26.6656 22.6931C26.6653 22.6931 26.6503 22.7129 26.6113 22.7644C26.6278 22.7401 26.6448 22.7166 26.6618 22.6926C27.2719 21.7556 27.4247 21.123 27.8969 20.0387C29.0852 17.43 29.1967 15.0164 28.8244 12.1742C28.7861 11.8313 28.7236 11.2522 28.7086 11.1889C28.7026 11.1464 28.6901 11.0019 28.6868 10.9453C28.6726 10.8658 28.6803 10.7861 28.7208 10.7128C28.7236 10.7078 28.7266 10.7028 28.7296 10.6978C29.2742 12.1862 29.5706 13.7878 29.5706 15.456C29.5706 17.2577 29.2245 18.9827 28.5941 20.5698C28.5053 20.7651 28.4165 20.9599 28.3307 21.1557C28.2882 21.2493 28.2452 21.354 28.2004 21.4673C27.491 22.9417 26.5293 24.2783 25.3695 25.4246C25.3512 25.4408 25.3327 25.4573 25.3142 25.4738C25.1837 25.6011 25.0519 25.7272 24.9184 25.8517C23.5267 27.1143 21.8828 28.1148 20.0688 28.773C19.9051 28.8217 19.7425 28.8747 19.5827 28.9365C19.541 28.9512 19.4992 28.9658 19.4574 28.9798C18.0518 29.4209 16.5537 29.6592 14.9998 29.6592Z" fill="#DEDEDE"/>
<path d="M13.5314 29.8418C13.4727 29.8418 13.4139 29.8413 13.3551 29.84C12.8565 29.8093 12.3601 29.741 11.8648 29.6783C10.7855 29.4597 9.7412 29.1024 8.70444 28.7368C8.66343 28.7183 8.62267 28.6995 8.58216 28.6807C8.43938 28.5682 8.43337 28.3192 8.58866 28.2096C10.5244 29.1379 12.701 29.6595 15.0001 29.6595C16.554 29.6595 18.0521 29.4212 19.4577 28.9801C18.8235 29.1924 18.1669 29.3172 17.5172 29.4712C16.7378 29.6547 15.9448 29.7825 15.1436 29.7825C15.0908 29.7825 15.0381 29.782 14.9856 29.781C14.5012 29.8073 14.0166 29.8418 13.5314 29.8418ZM20.0691 28.7733C21.8831 28.1151 23.527 27.1146 24.9186 25.852C24.0492 26.6625 23.1122 27.4054 22.0977 28.0243C21.7683 28.2016 21.4275 28.3627 21.0739 28.4849C20.7418 28.5907 20.403 28.6735 20.0691 28.7733ZM25.3697 25.4249C26.5295 24.2786 27.4913 22.942 28.2007 21.4676C27.9609 22.0733 27.6638 22.929 27.0587 23.6757C26.5633 24.3224 25.9754 24.8838 25.3697 25.4249ZM28.5943 20.5702C29.2247 18.983 29.5708 17.258 29.5708 15.4563C29.5708 13.7882 29.2745 12.1865 28.7299 10.6981C28.7861 10.6091 28.8879 10.5628 28.9897 10.5611C29.153 11.4673 29.387 12.366 29.7021 13.2328C29.8897 15.0572 29.8049 16.7752 29.399 18.4524C29.2215 19.1898 28.9079 19.8812 28.5943 20.5702Z" fill="#2F2F2F"/>
</svg>
