<svg width="25" height="26" viewBox="0 0 25 26" fill="none" xmlns="http://www.w3.org/2000/svg">
<path d="M23.0798 7.92288C16.3594 7.32996 9.58259 7.39395 2.87531 8.1132C1.95746 8.21157 0.932327 8.40066 0.545261 9.23878C0.0730781 10.2621 0.95739 11.4357 1.96285 11.9445C3.50469 12.7246 5.30043 12.777 7.02845 12.7847C12.1926 12.8073 17.3825 12.5689 22.4461 11.5492C22.6428 11.5096 22.8603 11.4537 22.9617 11.2814C23.0342 11.1617 23.0301 11.0136 23.0218 10.8744C22.9804 9.92241 22.9369 8.96997 23.0798 7.92288Z" fill="white"/>
<path d="M13.955 7.70104C10.2581 7.70104 6.56156 7.89778 2.89428 8.29106C1.95695 8.3915 1.04324 8.58514 0.706502 9.31454C0.291271 10.214 1.077 11.2985 2.04311 11.7873C3.51454 12.5318 5.24112 12.6003 7.02899 12.6082C13.2985 12.6347 18.0451 12.2555 22.4108 11.3762C22.5702 11.3443 22.7463 11.301 22.8105 11.1921C22.8519 11.1198 22.8519 11.0096 22.8457 10.8839C22.8042 9.9934 22.7628 9.07637 22.8788 8.085C19.9173 7.82902 16.9351 7.70104 13.955 7.70104ZM7.65401 12.9648C7.4467 12.9648 7.23795 12.9644 7.02733 12.9636C5.19535 12.9555 3.42321 12.8839 1.88261 12.1044C0.76946 11.541 -0.120234 10.2575 0.383842 9.16542C0.794931 8.27532 1.81509 8.04937 2.85617 7.93775C9.56511 7.21829 16.3739 7.1543 23.0942 7.74722C23.1439 7.75157 23.1874 7.77559 23.2184 7.81329C23.2495 7.85139 23.2619 7.90026 23.2557 7.94831C23.1149 8.97862 23.1584 9.93811 23.1998 10.8659C23.206 11.0094 23.2164 11.2035 23.1149 11.3729C22.9658 11.6272 22.651 11.6906 22.4812 11.7245C18.2377 12.5792 13.6422 12.9648 7.65401 12.9648Z" fill="#2F2F2F"/>
<path d="M14.932 2.66803C16.5992 2.87284 18.2642 3.07746 19.9293 3.28228C18.5707 5.19379 17.9826 7.5371 17.5435 9.84107C17.469 10.243 17.3716 10.685 17.0423 10.9271C16.8705 11.0528 16.6592 11.106 16.4521 11.1563C16.0793 11.2477 15.6879 11.3392 15.3152 11.2464C14.5427 11.0549 14.1699 10.1832 14.0187 9.40305C13.5859 7.14817 14.0726 4.80175 14.932 2.66803Z" fill="white"/>
<path d="M15.0486 2.86094C14.1084 5.24277 13.8226 7.43179 14.1953 9.36919C14.301 9.92421 14.595 10.8841 15.3572 11.0736C15.6968 11.1583 16.0758 11.0653 16.4113 10.9833C16.5977 10.9375 16.7923 10.8901 16.9373 10.7837C17.2024 10.5884 17.2935 10.2106 17.3702 9.80761C17.7885 7.61238 18.3497 5.32685 19.6192 3.42238L15.0486 2.86094ZM15.6492 11.4619C15.5228 11.4619 15.3965 11.4495 15.2722 11.4186C14.3175 11.1813 13.9696 10.0748 13.8454 9.43629C13.4539 7.39658 13.7625 5.09697 14.769 2.60144C14.798 2.52668 14.8767 2.48277 14.9554 2.49147L19.9527 3.10552C20.0148 3.11318 20.0686 3.15295 20.0935 3.2101C20.1183 3.26747 20.1121 3.33374 20.0748 3.38469C18.7287 5.28025 18.1468 7.62397 17.7201 9.87388C17.6477 10.2545 17.5483 10.7758 17.1486 11.0699C16.9456 11.2184 16.7074 11.277 16.4962 11.3285C16.2435 11.39 15.9495 11.4619 15.6492 11.4619Z" fill="#2F2F2F"/>
<path d="M6.18589 12.4258C5.93696 8.64687 5.75326 4.76606 6.91757 1.15552C8.55323 0.949251 10.2042 0.996471 11.8508 1.04348C13.2922 1.08469 14.7274 1.1257 16.1502 0.997715C15.475 4.67639 14.7999 8.45551 15.4916 12.1307L6.18589 12.4258Z" fill="white"/>
<path d="M7.05225 1.31891C5.98218 4.71842 6.09421 8.28381 6.35204 12.2439L15.2804 11.9608C14.6509 8.34822 15.3157 4.56372 15.9328 1.19527C14.5763 1.30006 13.1908 1.26051 11.8488 1.22219C10.2703 1.17725 8.63986 1.13045 7.05225 1.31891ZM6.18574 12.6045C6.09254 12.6045 6.01489 12.5322 6.00867 12.4386C5.738 8.33082 5.60691 4.64241 6.74864 1.10187C6.76977 1.03622 6.82713 0.988791 6.89547 0.980301C8.54542 0.772374 10.2299 0.820421 11.8592 0.867019C13.2675 0.907403 14.7234 0.949031 16.1337 0.821873C16.1875 0.817524 16.2434 0.838027 16.2807 0.879032C16.318 0.920037 16.3346 0.976162 16.3242 1.03084C15.6905 4.48875 14.9719 8.40807 15.6656 12.099C15.676 12.1499 15.6636 12.2025 15.6304 12.2431C15.5973 12.2835 15.5497 12.3077 15.4979 12.3094L6.19154 12.6043L6.18574 12.6045Z" fill="#2F2F2F"/>
<path d="M23.7921 9.90587C16.8668 10.0892 9.9406 10.2144 3.01359 10.2824C2.08269 10.2913 0.0906261 10.8154 0.545206 9.23943C0.211157 10.1132 0.13928 11.3137 0.194575 12.2475C0.370194 15.2134 0.415762 18.1871 0.330645 21.1569C0.308071 21.9445 0.279286 22.7528 0.533395 23.4985C0.787297 24.2445 1.3941 24.9261 2.14918 25.0952C9.43654 25.5728 16.3449 25.2754 23.5892 25.2324C23.1066 19.9677 23.6347 15.1637 23.7921 9.90587Z" fill="white"/>
<path d="M2.17478 24.9183C7.63243 25.2753 12.7743 25.1987 18.2189 25.1179C19.9088 25.0929 21.6525 25.0668 23.3963 25.0554C23.067 21.3044 23.243 17.8339 23.4294 14.1631C23.4957 12.8391 23.564 11.4722 23.6075 10.0878C16.7754 10.2676 9.84857 10.3924 3.01496 10.4595C2.8528 10.461 2.65068 10.4796 2.43654 10.4991C1.69472 10.567 0.853481 10.6441 0.477184 10.1889L0.476153 10.1874C0.367634 10.7996 0.32891 11.5153 0.371573 12.2364C0.546777 15.1948 0.592755 18.1977 0.507845 21.1615L0.506591 21.2081C0.484845 21.9611 0.462487 22.7398 0.701271 23.4408C0.956415 24.1903 1.53381 24.7688 2.17478 24.9183ZM11.4074 25.541C8.34504 25.541 5.29511 25.4789 2.13749 25.272L2.10994 25.2681C1.34596 25.097 0.660882 24.4246 0.364939 23.5554C0.105445 22.7939 0.128856 21.9825 0.15143 21.198L0.152866 21.1514C0.237362 18.198 0.191602 15.2056 0.0170188 12.2576C-0.0515306 11.0997 0.083714 9.94759 0.379035 9.17532C0.413207 9.08648 0.511148 9.0403 0.601443 9.07033C0.691531 9.10077 0.742073 9.19665 0.715772 9.28819C0.626098 9.59863 0.637907 9.82561 0.750982 9.9625C1.00778 10.2731 1.7819 10.2023 2.40402 10.1454C2.62562 10.1251 2.83479 10.1058 3.01144 10.1042C9.90573 10.0368 16.8955 9.91011 23.7877 9.72786C23.8333 9.72579 23.883 9.74525 23.9182 9.77984C23.9513 9.81442 23.9699 9.86185 23.9699 9.91073C23.9265 11.3627 23.854 12.7954 23.7836 14.1809C23.5951 17.9014 23.417 21.4158 23.767 25.2157C23.7711 25.2652 23.7546 25.3145 23.7214 25.3513C23.6883 25.3882 23.6407 25.4093 23.591 25.4095C21.7851 25.4203 19.975 25.4472 18.2251 25.4731C15.9138 25.5075 13.6565 25.541 11.4074 25.541Z" fill="#2F2F2F"/>
<path d="M11.768 4.50391C9.9383 4.50391 8.10548 4.4687 6.28799 4.3987C6.18982 4.39497 6.1134 4.31255 6.11733 4.21438C6.12106 4.11643 6.20329 4.04001 6.30166 4.04353C9.33108 4.16054 12.4038 4.17959 15.4357 4.1013H15.4398C15.5351 4.1013 15.6138 4.17773 15.6179 4.27423C15.62 4.37219 15.5434 4.45399 15.444 4.45627C14.2242 4.48796 12.9961 4.50391 11.768 4.50391Z" fill="#2F2F2F"/>
<path d="M12.7475 10.2207C12.6502 10.2207 12.5715 10.1435 12.5694 10.0465C12.559 9.50145 12.1966 8.9775 11.6934 8.77185C11.3848 8.64614 11.0394 8.63019 10.6533 8.62336C10.1919 8.61508 9.74726 8.62419 9.38608 8.8199C8.96278 9.04936 8.70225 9.54412 8.75258 10.0229C8.76272 10.1205 8.69211 10.2079 8.59436 10.2182C8.4993 10.2271 8.40943 10.1577 8.39907 10.06C8.33425 9.44202 8.67057 8.80353 9.21668 8.50759C9.65408 8.27067 10.1488 8.25928 10.6597 8.26798C11.0665 8.27523 11.4614 8.29408 11.8259 8.44277C12.4596 8.70019 12.9111 9.35669 12.9235 10.0393C12.9256 10.1374 12.849 10.2186 12.7496 10.2207H12.7475Z" fill="#2F2F2F"/>
<path d="M23.8151 15.057C21.6323 14.9588 19.9859 14.9972 17.8072 15.1717C17.0907 15.2293 16.3555 15.3068 15.7135 15.6282C15.0694 15.9496 14.5268 16.5686 14.4978 17.2877C14.4647 18.1003 15.0984 18.821 15.8419 19.1495C16.5874 19.4779 17.4241 19.4972 18.238 19.5111C19.8969 19.5398 21.5536 19.5684 23.2125 19.597C23.5335 19.6024 23.8711 19.6036 24.1506 19.4446C24.6808 19.1408 24.7595 18.4199 24.7761 17.8079C24.7906 17.2632 24.8072 16.7184 24.8217 16.1735C24.8279 15.9337 24.7347 15.5884 24.6539 15.3625C24.5731 15.1365 23.9394 15.0313 23.8151 15.057Z" fill="white"/>
<path d="M21.6158 15.1811C20.4063 15.1811 19.2383 15.2351 17.8217 15.3486C17.099 15.4066 16.399 15.4838 15.7922 15.787C15.1378 16.1138 14.6987 16.7057 14.6759 17.2945C14.6449 18.0676 15.2951 18.7135 15.9144 18.9867C16.6371 19.3058 17.4904 19.3203 18.2422 19.3334L23.2146 19.4191C23.4983 19.4241 23.8172 19.4295 24.0616 19.2903C24.5069 19.036 24.5835 18.3959 24.598 17.8029L24.6435 16.1685C24.6497 15.9589 24.5628 15.6352 24.4862 15.4219C24.4364 15.326 23.985 15.213 23.8483 15.2314L23.8069 15.2343C23.0261 15.1993 22.3137 15.1811 21.6158 15.1811ZM23.3761 19.7764C23.3181 19.7764 23.2622 19.7753 23.2084 19.7745L18.2359 19.6888C17.449 19.6751 16.5585 19.6598 15.7715 19.3116C15.0218 18.9809 14.2824 18.2244 14.3197 17.2802C14.3487 16.5639 14.8644 15.8531 15.6327 15.4691C16.2975 15.1376 17.0348 15.0554 17.7927 14.9945C20.0398 14.8145 21.6717 14.7832 23.8089 14.8787C24.0181 14.8607 24.7015 14.9659 24.8217 15.3024C24.8651 15.4257 25.008 15.8531 24.9997 16.1783L24.9542 17.8127C24.9355 18.5044 24.8341 19.2572 24.2376 19.5987C23.9663 19.7542 23.6536 19.7764 23.3761 19.7764Z" fill="#2F2F2F"/>
<path d="M17.6081 16.5078C17.3927 16.4382 17.1484 16.5043 16.9723 16.6455C16.7963 16.7868 16.6824 16.9945 16.6203 17.2113C16.5871 17.3269 16.5664 17.4495 16.5892 17.5677C16.6078 17.6624 16.6534 17.7502 16.7135 17.8264C17.0179 18.2201 17.7013 18.2195 18.014 17.8316C18.3267 17.4439 18.2232 16.707 17.6081 16.5078Z" fill="#2F2F2F"/>
<path d="M17.428 16.6579C17.312 16.6579 17.1857 16.7023 17.0842 16.7841C16.9164 16.9176 16.8336 17.1171 16.7901 17.2608C16.757 17.3741 16.7487 17.4606 16.7632 17.5335C16.7756 17.5938 16.8067 17.6572 16.8523 17.7174C16.962 17.8576 17.1484 17.9424 17.3555 17.9442L17.3617 17.9444C17.5709 17.9444 17.7614 17.8608 17.8753 17.7201C18.0016 17.5638 18.041 17.3238 17.9789 17.109C17.9416 16.987 17.838 16.7689 17.5522 16.6768C17.5129 16.6641 17.4715 16.6579 17.428 16.6579ZM17.3617 18.2998L17.3514 18.2996C17.0345 18.2967 16.7487 18.1637 16.5727 17.9353C16.4898 17.8299 16.438 17.7177 16.4153 17.6017C16.3883 17.4714 16.4008 17.3316 16.4505 17.1618C16.5292 16.8849 16.6721 16.6586 16.8605 16.507C17.0966 16.3191 17.4031 16.2549 17.662 16.3386C17.983 16.4426 18.2232 16.6863 18.3185 17.0075C18.4158 17.3362 18.3516 17.6947 18.1507 17.9434C17.9706 18.1671 17.6765 18.2998 17.3617 18.2998Z" fill="#2F2F2F"/>
<path d="M1.2432 9.9502L1.20924 9.93943C1.18252 9.92058 1.1761 9.88372 1.19474 9.857C1.54059 9.36473 1.95438 8.92485 2.42408 8.54918C2.44976 8.52888 2.48703 8.53302 2.50732 8.55849C2.52762 8.58397 2.52368 8.62125 2.498 8.64175C2.037 9.01017 1.63109 9.44197 1.29165 9.92492C1.28026 9.94149 1.26183 9.9502 1.2432 9.9502Z" fill="#2F2F2F"/>
<path d="M2.67743 9.79297L2.63808 9.77806C2.61364 9.75652 2.61136 9.71903 2.6331 9.69439L3.75558 8.4282C3.77732 8.40355 3.8146 8.40148 3.83924 8.42323C3.86368 8.44497 3.86596 8.48245 3.84422 8.50689L2.72175 9.77309L2.67743 9.79297Z" fill="#2F2F2F"/>
<path d="M4.38829 9.75684L4.34831 9.7413C4.32408 9.71935 4.32263 9.68166 4.34479 9.65784L5.37075 8.53993C5.39312 8.5157 5.4306 8.51466 5.45442 8.53641C5.47865 8.55857 5.4801 8.59606 5.45794 8.62008L4.43198 9.73778L4.38829 9.75684Z" fill="#2F2F2F"/>
<path d="M18.0906 9.57715L18.0513 9.56224C18.0264 9.54049 18.0243 9.50301 18.0471 9.47857L19.0847 8.31074C19.1075 8.2861 19.1447 8.28403 19.1675 8.30557C19.1924 8.32731 19.1944 8.3648 19.1737 8.38923L18.1362 9.55706L18.0906 9.57715Z" fill="#2F2F2F"/>
<path d="M19.1693 9.67383L19.1278 9.6583C19.1051 9.63614 19.103 9.59886 19.1237 9.57463C19.542 9.12025 19.9977 8.69508 20.4781 8.31112C20.505 8.29083 20.5423 8.29497 20.563 8.32044C20.5817 8.34592 20.5775 8.3834 20.5527 8.4037C20.0763 8.78393 19.6249 9.20475 19.2128 9.65478L19.1693 9.67383Z" fill="#2F2F2F"/>
<path d="M20.8222 9.42773L20.7808 9.41117C20.758 9.38838 20.758 9.3509 20.7808 9.3275L21.7293 8.34668C21.7521 8.32328 21.7893 8.32266 21.8142 8.34523C21.837 8.36822 21.837 8.4055 21.8142 8.4291L20.8657 9.40971L20.8222 9.42773Z" fill="#2F2F2F"/>
<path d="M22.0172 9.48926L21.9819 9.47662C21.955 9.45653 21.9509 9.41946 21.9716 9.39358L22.4003 8.84208C22.4189 8.81598 22.4562 8.81143 22.4831 8.83172C22.508 8.85181 22.5142 8.88888 22.4935 8.91456L22.0648 9.46648L22.0172 9.48926Z" fill="#2F2F2F"/>
<path d="M1.94485 23.8984L1.8972 23.8742C1.60333 23.4745 1.55944 22.9688 1.53769 22.4419C1.50477 21.6498 1.49255 20.846 1.50125 20.053C1.50146 20.0203 1.52651 19.9946 1.56109 19.9946C1.59361 19.9949 1.61992 20.0218 1.6195 20.0545C1.61101 20.8454 1.62323 21.6469 1.65595 22.4369C1.67707 22.9448 1.71869 23.4312 1.99268 23.804C2.01194 23.8305 2.00634 23.8674 1.98004 23.8868L1.94485 23.8984Z" fill="#2F2F2F"/>
<path d="M3.19074 24.1191C3.16962 24.1191 3.14933 24.1078 3.13856 24.0881C2.8859 23.618 2.76847 23.066 2.80844 22.534C2.81092 22.5013 2.84014 22.4758 2.87182 22.4793C2.90454 22.4818 2.92897 22.5102 2.92669 22.5429C2.88838 23.0528 3.00064 23.5815 3.24294 24.0317C3.25827 24.0607 3.24771 24.0966 3.21871 24.1121L3.19074 24.1191Z" fill="#2F2F2F"/>
<path d="M15.4106 9.9209C15.2842 7.58629 15.5928 5.21564 15.9759 2.97422L16.6014 3.05105C16.6904 3.24427 16.5848 3.45883 16.5579 3.65951C16.473 4.20873 16.3839 4.75774 16.299 5.30717C16.094 6.45781 16.007 7.79173 15.9967 9.24762C15.9946 9.46818 16.0091 9.68833 16.0091 9.90889C15.8103 9.91283 15.6094 9.91696 15.4106 9.9209Z" fill="#DEDEDE"/>
<path d="M16.6015 3.05078L15.9761 2.97395C15.9844 2.92859 15.9906 2.88282 15.9989 2.83768C16.061 2.80868 16.1314 2.79377 16.2018 2.79377C16.3509 2.79377 16.5 2.86253 16.5787 3.00853C16.587 3.02241 16.5953 3.03649 16.6015 3.05078Z" fill="#2F2F2F"/>
<path d="M15.1852 9.92578C15.1251 9.04499 15.0795 8.16048 15.1499 7.27866C15.2411 6.30944 15.3695 5.41954 15.5372 4.42775C15.5869 4.39503 15.618 4.33808 15.618 4.27409C15.6159 4.23494 15.6035 4.19912 15.5807 4.17033C15.6387 3.8338 15.7008 3.48463 15.7671 3.11537C15.7982 2.98304 15.8893 2.88922 15.999 2.83848C15.9908 2.88363 15.9845 2.9294 15.9763 2.97475C15.5931 5.21617 15.2846 7.58682 15.4109 9.92143C15.3343 9.92288 15.2597 9.92433 15.1852 9.92578Z" fill="#2F2F2F"/>
<path d="M15.6055 10.3828C15.502 10.3828 15.4005 10.3449 15.3218 10.2784C15.5102 10.2747 15.6987 10.271 15.8872 10.267C15.8644 10.2902 15.8375 10.3105 15.8085 10.3271C15.7443 10.3652 15.6738 10.3828 15.6055 10.3828Z" fill="#DEDEDE"/>
<path d="M15.3217 10.2793C15.2596 10.225 15.212 10.1519 15.1954 10.065C15.1913 10.0188 15.1892 9.97279 15.1851 9.92661C15.2596 9.92516 15.3342 9.92371 15.4108 9.92226C15.6096 9.91833 15.8105 9.91419 16.0093 9.91025C16.0093 9.91067 16.0093 9.91108 16.0093 9.91149C16.0259 10.0411 15.9803 10.1768 15.8871 10.2679C15.6986 10.2718 15.5102 10.2756 15.3217 10.2793Z" fill="#2F2F2F"/>
<path d="M15.5371 4.42773C15.5516 4.34262 15.5661 4.25688 15.5806 4.17031C15.6034 4.1991 15.6158 4.23493 15.6179 4.27407C15.6179 4.33806 15.5868 4.39501 15.5371 4.42773Z" fill="#2F2F2F"/>
<path d="M1.59632 10.1963C1.22706 10.1963 0.900895 10.1449 0.750957 9.96372C0.639538 9.82869 0.626266 9.60648 0.712004 9.30266C0.712212 9.30184 0.712642 9.301 0.713056 9.29997C0.751576 9.28671 0.793613 9.27926 0.838346 9.27926C0.862162 9.27926 0.886798 9.28133 0.912064 9.28568C1.01955 9.28692 1.10425 9.36148 1.19351 9.41305L1.24654 9.44121C1.30659 9.46275 1.40828 9.49878 1.45612 9.50769C1.45695 9.5081 1.45798 9.50831 1.45901 9.50852C1.36706 9.62201 1.27884 9.73861 1.19476 9.85831C1.17612 9.88502 1.18255 9.92189 1.20926 9.94073L1.24322 9.9515C1.26186 9.9515 1.28029 9.9428 1.29168 9.92623C1.38611 9.79203 1.48553 9.66177 1.5899 9.53565C1.64748 9.5458 1.70711 9.55553 1.74294 9.56133C1.99042 9.59115 2.23894 9.59757 2.48767 9.59757C2.56533 9.59757 2.64319 9.59695 2.72085 9.59633L2.63346 9.69491C2.61172 9.71955 2.614 9.75704 2.63844 9.77857L2.67779 9.79348L2.72211 9.7736L2.88052 9.59488C2.90765 9.59446 2.9346 9.59447 2.96173 9.59426C3.05761 9.59447 3.15369 9.59488 3.24958 9.59488C3.63685 9.59488 4.02412 9.59198 4.41119 9.58597L4.34471 9.65866C4.32255 9.68248 4.324 9.72017 4.34823 9.74213L4.38821 9.75766L4.4319 9.73861L4.57438 9.58328C4.75124 9.58018 4.92791 9.57603 5.10456 9.57148C5.26734 9.56506 5.43053 9.56837 5.5931 9.5576C5.60884 9.55243 5.678 9.54041 5.74179 9.54041C5.77638 9.54041 5.80951 9.54393 5.83167 9.55387C5.83912 9.55574 5.84638 9.55781 5.85363 9.56009C5.85964 9.73073 5.86646 9.90201 5.87392 10.0741C4.91816 10.0857 3.96427 10.0961 3.01142 10.1054C2.83476 10.107 2.62559 10.1263 2.404 10.1466C2.14513 10.1702 1.85974 10.1963 1.59632 10.1963Z" fill="#DEDEDE"/>
<path d="M0.712402 9.30273C0.712568 9.30207 0.712738 9.30141 0.712904 9.30074C0.71307 9.30074 0.713078 9.30074 0.713244 9.30058C0.712912 9.30141 0.712568 9.30207 0.712402 9.30273Z" fill="#2F2F2F"/>
<path d="M5.87429 10.0742C5.86683 9.90212 5.86001 9.73085 5.854 9.5602C6.06773 9.62647 6.17355 9.87064 6.11991 10.0711C6.03852 10.0721 5.95589 10.0732 5.87429 10.0742Z" fill="#2F2F2F"/>
<path d="M2.65806 10.5166C2.59034 10.5166 2.52263 10.5164 2.45491 10.5164C2.40479 10.5152 2.35424 10.5137 2.30371 10.5118C2.34844 10.5077 2.39298 10.5036 2.43709 10.4996C2.65123 10.4802 2.85335 10.4615 3.01551 10.4601C3.51399 10.4551 4.0131 10.4499 4.51242 10.4445C4.3428 10.4576 4.17299 10.469 4.00296 10.477C3.55543 10.5125 3.10664 10.5166 2.65806 10.5166Z" fill="#DEDEDE"/>
<path d="M2.30293 10.5117C1.72533 10.4889 1.12145 10.4024 0.642851 10.0638C0.314601 9.87676 0.411096 9.40457 0.712423 9.29937C0.712216 9.3002 0.712003 9.30103 0.711796 9.30186C0.626058 9.60567 0.63933 9.82788 0.750748 9.96291C0.900687 10.1441 1.22685 10.1955 1.59611 10.1955C1.85954 10.1955 2.14492 10.1694 2.40379 10.1458C2.62538 10.1255 2.83455 10.1062 3.01121 10.1046C3.96407 10.0952 4.91795 10.0849 5.87371 10.0733C5.9553 10.0723 6.03794 10.0712 6.11933 10.0702C6.09759 10.1514 6.04975 10.2253 5.9725 10.2777C5.882 10.357 5.76768 10.3725 5.65088 10.3725C5.61277 10.3725 5.57424 10.3709 5.53635 10.3692C5.49845 10.3678 5.46139 10.3659 5.42535 10.3659C5.42411 10.3659 5.42266 10.3659 5.42121 10.3659C5.11822 10.3916 4.81524 10.4208 4.51164 10.4444C4.01232 10.4498 3.51321 10.455 3.01473 10.4599C2.85257 10.4614 2.65045 10.48 2.43631 10.4995C2.3922 10.5034 2.34766 10.5076 2.30293 10.5117Z" fill="#2F2F2F"/>
<path d="M1.2432 9.9502L1.20924 9.93943C1.18252 9.92058 1.1761 9.88372 1.19474 9.857C1.27882 9.7373 1.36704 9.6207 1.45899 9.50721C1.48798 9.51529 1.53811 9.52502 1.58988 9.53434C1.4855 9.66046 1.38609 9.79073 1.29165 9.92492C1.28026 9.94149 1.26183 9.9502 1.2432 9.9502Z" fill="#2F2F2F"/>
<path d="M2.67743 9.79297L2.63808 9.77806C2.61364 9.75652 2.61136 9.71903 2.6331 9.69439L2.72049 9.59581C2.77372 9.59519 2.82694 9.59477 2.88016 9.59436L2.72175 9.77309L2.67743 9.79297Z" fill="#2F2F2F"/>
<path d="M4.38829 9.75684L4.34831 9.7413C4.32408 9.71935 4.32263 9.68166 4.34479 9.65784L4.41127 9.58515C4.46573 9.58432 4.5202 9.58329 4.57446 9.58246L4.43198 9.73778L4.38829 9.75684Z" fill="#2F2F2F"/>
<path d="M17.7197 9.87402C17.7653 9.63317 17.8129 9.39066 17.8626 9.14836C17.873 9.14711 17.8833 9.14608 17.8958 9.14545C18.0614 9.11936 18.2292 9.0999 18.3969 9.0854L18.0469 9.4793C18.0242 9.50374 18.0262 9.54122 18.0511 9.56297L18.0904 9.57788L18.136 9.55779L18.5668 9.07235C18.8691 9.05205 19.1736 9.04625 19.478 9.04625C19.5318 9.04625 19.5857 9.04646 19.6395 9.04688C19.4635 9.21773 19.2916 9.39397 19.1238 9.57498C19.1031 9.59921 19.1052 9.63648 19.128 9.65864L19.1694 9.67418L19.2129 9.65512C19.4034 9.44616 19.6043 9.24341 19.8094 9.04812C19.8901 9.04895 19.9709 9.04977 20.0496 9.05081C20.2422 9.05309 20.4327 9.05516 20.6253 9.05516C20.646 9.05516 20.6667 9.05516 20.6874 9.05516C20.7723 9.05827 20.8552 9.05972 20.9401 9.05972C20.9732 9.05972 21.0064 9.0593 21.0395 9.0591L20.7806 9.32791C20.7578 9.35131 20.7578 9.3888 20.7806 9.41158L20.822 9.42815L20.8656 9.41013L21.2093 9.05558C21.5635 9.04522 21.9176 9.01809 22.2738 9.00442L21.9714 9.39376C21.9507 9.41965 21.9549 9.45672 21.9818 9.47681L22.017 9.48945L22.0646 9.46666L22.4271 8.99945C22.485 8.998 22.543 8.99697 22.6031 8.99676C22.6818 8.99945 22.7522 9.01768 22.8102 9.04729C22.8019 9.28649 22.8019 9.52175 22.8061 9.75412C21.1141 9.79761 19.4179 9.83757 17.7197 9.87402Z" fill="#DEDEDE"/>
<path d="M22.8059 9.75391C22.8018 9.52154 22.8018 9.28628 22.8101 9.04708C23.0752 9.18252 23.1042 9.55509 22.9116 9.75121C22.8764 9.75204 22.8412 9.75308 22.8059 9.75391Z" fill="#2F2F2F"/>
<path d="M17.517 9.87891C17.3451 9.62376 17.4383 9.1961 17.8629 9.14868C17.8132 9.39098 17.7655 9.63349 17.72 9.87435C17.6516 9.8758 17.5833 9.87746 17.517 9.87891Z" fill="#2F2F2F"/>
<path d="M17.8837 10.0674C17.7159 10.0674 17.5916 9.98889 17.5171 9.87768C17.5834 9.87623 17.6517 9.87457 17.72 9.87312C19.4182 9.83667 21.1144 9.79671 22.8064 9.75322C22.8416 9.75239 22.8768 9.75135 22.912 9.75052C22.8374 9.8257 22.7318 9.8752 22.593 9.87499C22.5868 9.87499 22.5827 9.87499 22.5765 9.87478C21.9034 9.91164 21.2324 9.98806 20.5573 9.98806C20.4869 9.98806 20.4165 9.98703 20.346 9.98537C19.5321 10.0135 18.4428 9.96363 18.0121 10.0533C17.9665 10.0628 17.923 10.0674 17.8837 10.0674Z" fill="#2F2F2F"/>
<path d="M18.0906 9.57715L18.0513 9.56224C18.0264 9.54049 18.0243 9.50301 18.0471 9.47857L18.3971 9.08467C18.453 9.0797 18.511 9.07535 18.5669 9.07162L18.1362 9.55706L18.0906 9.57715Z" fill="#2F2F2F"/>
<path d="M19.1693 9.67383L19.1278 9.6583C19.1051 9.63614 19.103 9.59886 19.1237 9.57463C19.2914 9.39362 19.4633 9.21738 19.6394 9.04653C19.6974 9.04674 19.7533 9.04715 19.8092 9.04777C19.6042 9.24307 19.4033 9.44582 19.2128 9.65478L19.1693 9.67383Z" fill="#2F2F2F"/>
<path d="M20.8222 9.42773L20.7808 9.41117C20.758 9.38838 20.758 9.3509 20.7808 9.3275L21.0396 9.05868C21.0955 9.05786 21.1515 9.05682 21.2095 9.05517L20.8657 9.40971L20.8222 9.42773Z" fill="#2F2F2F"/>
<path d="M22.0172 9.48926L21.9819 9.47662C21.955 9.45653 21.9509 9.41946 21.9716 9.39358L22.274 9.00423C22.3257 9.00237 22.3754 9.00071 22.4272 8.99926L22.0648 9.46648L22.0172 9.48926Z" fill="#2F2F2F"/>
<path d="M22.7854 25.0605C22.6073 24.2353 22.5948 23.3829 22.541 22.5427C22.5099 21.8955 22.4644 21.2485 22.4706 20.6009C21.9632 20.6013 21.46 20.6618 20.9546 20.6618C20.9526 20.6618 20.9505 20.6618 20.9484 20.6618C20.8407 20.6657 20.7165 20.6678 20.586 20.6678C19.944 20.6678 19.1011 20.6229 18.8277 20.5719C18.2396 20.522 17.6556 20.4445 17.0861 20.2911C16.3509 20.1289 15.5763 19.8253 15.1207 19.197C15.0586 19.0872 15.0669 18.9824 15.1124 18.9006C15.3174 19.0725 15.5432 19.2117 15.771 19.3119C16.558 19.6601 17.4485 19.6754 18.2355 19.6891L23.2079 19.7748C23.212 19.7748 23.2141 19.7748 23.2162 19.775C23.1975 21.4405 23.2348 23.1169 23.3777 24.8512C23.3735 24.9203 23.3653 24.9889 23.3528 25.0564C23.1623 25.0576 22.9739 25.0591 22.7854 25.0605Z" fill="#DEDEDE"/>
<path d="M23.0756 25.3477C22.9555 25.3477 22.8374 25.2772 22.8043 25.1474C22.7981 25.1186 22.7919 25.0896 22.7856 25.0606C22.9741 25.0592 23.1626 25.0577 23.3531 25.0565C23.3427 25.1064 23.3303 25.1559 23.3137 25.2045C23.264 25.3019 23.1708 25.3477 23.0756 25.3477ZM23.3779 24.8512C23.235 23.117 23.1978 21.4405 23.2164 19.7751C23.2682 19.7759 23.322 19.7767 23.3759 19.7767C23.3904 19.7767 23.4028 19.7765 23.4152 19.7765C23.4918 19.9026 23.5043 20.0673 23.4235 20.2007L23.3883 20.246V20.2856C23.5043 20.4009 23.4691 20.6256 23.4525 20.8008C23.4256 21.1316 23.3883 21.4613 23.3738 21.7928C23.351 22.5912 23.4049 23.3895 23.3924 24.1879C23.3779 24.4049 23.3945 24.6313 23.3779 24.8512Z" fill="#2F2F2F"/>
<path d="M16.6122 19.2031C16.3719 19.1538 16.1379 19.0843 15.9142 18.9859C15.8935 18.977 15.8728 18.9675 15.8521 18.9575C15.8832 18.9482 15.9143 18.9443 15.9432 18.9443C16.0944 18.9443 16.227 19.0542 16.3678 19.1143C16.4486 19.1489 16.5293 19.1777 16.6122 19.2031ZM15.6699 18.8593C15.6471 18.8457 15.6243 18.8316 15.6015 18.8169C15.6264 18.8266 15.6492 18.8415 15.6699 18.8593ZM15.5829 18.8051C15.5642 18.792 15.5435 18.7788 15.5249 18.7651C15.5456 18.7755 15.5642 18.7887 15.5829 18.8051Z" fill="#DEDEDE"/>
<path d="M23.3755 19.7764C23.3217 19.7764 23.2678 19.7755 23.216 19.7747C23.214 19.7745 23.2119 19.7745 23.2077 19.7745L18.2353 19.6888C17.4484 19.6751 16.5578 19.6598 15.7709 19.3116C15.5431 19.2114 15.3173 19.0722 15.1123 18.9003C15.1703 18.8013 15.2821 18.7359 15.396 18.7359C15.4395 18.7359 15.483 18.7454 15.5244 18.7659C15.5431 18.7796 15.5638 18.7929 15.5824 18.8059C15.5865 18.8088 15.5886 18.8117 15.5928 18.8148C15.5948 18.8156 15.599 18.8167 15.601 18.8177C15.6238 18.8324 15.6466 18.8465 15.6694 18.8602C15.7108 18.8968 15.744 18.9449 15.7854 18.9824C15.8061 18.973 15.8268 18.9648 15.8496 18.9592C15.8496 18.959 15.8516 18.9587 15.8516 18.9583C15.8723 18.9683 15.893 18.9778 15.9138 18.9867C16.1374 19.0851 16.3714 19.1547 16.6117 19.2039C16.8043 19.2628 17.001 19.304 17.1936 19.3574L17.1895 19.3568L17.1998 19.3586C17.2661 19.3839 17.496 19.4226 17.585 19.4378L17.6057 19.4402C18.4921 19.5537 19.3806 19.6343 20.2732 19.6343C20.4181 19.6343 20.5631 19.632 20.706 19.6277C20.9048 19.6171 21.1036 19.614 21.3004 19.614C21.4412 19.614 21.58 19.6155 21.7187 19.6171C21.8595 19.6186 21.9983 19.6202 22.1391 19.6202C22.3876 19.6202 22.6362 19.6152 22.8847 19.5966C22.9116 19.5966 22.9385 19.5943 22.9654 19.5923C22.9986 19.5838 23.0338 19.5792 23.069 19.5792C23.1042 19.5792 23.1415 19.584 23.1767 19.5935C23.2802 19.6208 23.3631 19.6894 23.4148 19.7762C23.4024 19.7762 23.39 19.7764 23.3755 19.7764Z" fill="#2F2F2F"/>
<path d="M23.3945 14.8613C23.2433 14.8557 23.0963 14.8508 22.9492 14.8464C22.9471 14.8292 22.9451 14.8114 22.9471 14.793C23.117 13.4868 23.2247 11.8302 23.2516 10.2824C23.2495 10.2062 23.2764 10.143 23.3199 10.0956C23.4152 10.0931 23.5125 10.0904 23.6078 10.0879C23.5643 11.4724 23.496 12.8392 23.4297 14.1632C23.4173 14.3966 23.4048 14.6294 23.3945 14.8613Z" fill="#DEDEDE"/>
<path d="M23.529 14.8672C23.4834 14.8653 23.4379 14.8637 23.3944 14.8618C23.4047 14.6299 23.4172 14.3971 23.4296 14.1637C23.4959 12.8397 23.5642 11.4729 23.6077 10.0884C23.5124 10.0909 23.4151 10.0936 23.3198 10.0961C23.3778 10.031 23.4648 9.99542 23.5518 9.99542C23.6595 9.99542 23.763 10.0499 23.8086 10.1708C23.8707 10.392 23.7982 10.6476 23.8107 10.8787C23.8086 11.8668 23.734 12.8519 23.6429 13.8354C23.6408 13.9597 23.5663 14.5437 23.5642 14.5437C23.5642 14.5437 23.5663 14.5358 23.5683 14.5184C23.5435 14.6305 23.558 14.757 23.529 14.8672Z" fill="#2F2F2F"/>
<path d="M23.2537 15.0898C23.1149 15.0898 22.9741 14.9927 22.9492 14.8471C23.0963 14.8515 23.2433 14.8564 23.3945 14.862C23.438 14.8639 23.4835 14.8656 23.5291 14.8674C23.5167 14.9173 23.4939 14.9637 23.4545 15.0041C23.3986 15.0635 23.3261 15.0898 23.2537 15.0898Z" fill="#2F2F2F"/>
</svg>
