<svg width="30" height="27" viewBox="0 0 30 27" fill="none" xmlns="http://www.w3.org/2000/svg">
<path d="M11.1248 5.29258C10.9532 4.502 10.8586 3.67974 11.0078 2.88439C11.1571 2.08905 11.5758 1.31872 12.2556 0.879717C12.9485 0.432381 13.8141 0.374497 14.6378 0.329954C15.2752 0.295415 15.9124 0.260636 16.5498 0.226097C17.4874 0.175122 18.5207 0.153447 19.2503 0.744416C20.0468 1.38946 20.1957 2.52614 20.2855 3.5473C20.3331 4.08563 20.3753 4.65492 20.1397 5.14132C19.9041 5.62796 19.2832 5.9712 18.8077 5.71395C18.3625 5.47265 18.2758 4.87168 18.3199 4.36718C18.3637 3.86267 18.4788 3.32434 18.2515 2.87177C17.8714 2.11453 16.8252 2.07047 15.9801 2.13287C15.533 2.16598 15.0859 2.19886 14.6388 2.23197C14.109 2.27103 13.5021 2.35368 13.2132 2.79983C12.8361 3.38246 13.2532 4.18471 13.0286 4.84166C12.8897 5.24803 12.4893 5.55102 12.0605 5.57389C11.6318 5.59699 11.2012 5.33879 11.1248 5.29258Z" fill="white"/>
<path d="M16.4897 1.9088C17.2407 1.9088 18.072 2.06197 18.4327 2.78014C18.6485 3.21032 18.5973 3.67862 18.5475 4.13191C18.5382 4.21671 18.5289 4.30079 18.5217 4.38416C18.4982 4.65523 18.4882 5.3098 18.9041 5.5349C19.076 5.62803 19.2552 5.60111 19.375 5.56252C19.6158 5.48487 19.844 5.28479 19.9567 5.05254C20.1744 4.60259 20.1258 4.05116 20.0829 3.56476C19.9924 2.53765 19.8438 1.48624 19.1222 0.901702C18.4679 0.371949 17.537 0.375281 16.5604 0.4284L14.6484 0.532257C13.8905 0.573465 13.031 0.620152 12.3653 1.0501C11.7817 1.42669 11.3596 2.10889 11.207 2.92139C11.0878 3.55666 11.1185 4.27054 11.3041 5.16116C11.4704 5.25192 11.7681 5.38626 12.0492 5.37054C12.3936 5.3522 12.7245 5.10209 12.8362 4.77552C12.9227 4.52184 12.8974 4.23028 12.8705 3.92158C12.8341 3.50259 12.7964 3.06907 13.0425 2.6889C13.3669 2.18773 13.9941 2.07554 14.6236 2.0291L15.9647 1.93C16.1298 1.91762 16.3072 1.9088 16.4897 1.9088ZM19.1616 6.00391C19.0017 6.00391 18.8481 5.96627 18.7106 5.89219C18.2688 5.6528 18.0525 5.09042 18.1171 4.34914C18.1244 4.26268 18.1342 4.1755 18.1437 4.0876C18.189 3.67504 18.2319 3.28535 18.0696 2.96259C17.8117 2.4488 17.1523 2.24943 15.9947 2.33494L14.6534 2.43403C14.1644 2.47024 13.623 2.53979 13.3833 2.90971C13.213 3.17292 13.2433 3.5195 13.2752 3.88609C13.3045 4.22338 13.3347 4.5721 13.2204 4.907C13.0549 5.3915 12.5823 5.74879 12.0711 5.77619C11.6428 5.79929 11.2285 5.59206 11.0196 5.46629C10.9716 5.43747 10.9377 5.38983 10.9259 5.33528C10.7119 4.34843 10.6743 3.55761 10.8079 2.84659C10.9808 1.925 11.4682 1.14585 12.1449 0.708759C12.9015 0.220453 13.8578 0.168527 14.6265 0.126605L16.5385 0.0227532C17.5549 -0.0320325 18.6118 -0.0339403 19.3778 0.58609C20.223 1.27043 20.3895 2.41521 20.4876 3.52903C20.5326 4.04139 20.5888 4.67881 20.3223 5.22952C20.1613 5.56181 19.8461 5.83764 19.4996 5.94936C19.3864 5.9858 19.2726 6.00391 19.1616 6.00391Z" fill="#2F2F2F"/>
<path d="M0.423802 25.7259C0.263471 22.6184 0.237698 19.5049 0.21183 16.3931C0.189511 13.7079 0.169597 10.9972 0.702185 8.37105C0.869852 7.5445 1.23134 6.49595 1.76338 5.67941C2.12673 5.12203 2.73385 4.79378 3.37586 4.77544C10.923 4.55844 18.2841 4.66778 25.8457 4.42553C27.0772 4.38599 27.8778 4.56821 28.3873 4.87835C29.916 5.80827 28.827 7.88893 28.9054 8.58709C29.5626 14.4244 30.0287 20.5034 29.68 25.8915C28.9561 25.9903 27.3345 25.9853 26.2447 25.9963C18.9346 26.0697 11.6243 26.1428 4.31425 26.2161C3.12063 26.2281 1.925 26.24 0.423802 25.7259Z" fill="white"/>
<path d="M0.619655 25.5775C2.02634 26.0363 3.13843 26.0251 4.3123 26.0132L26.2427 25.7933C26.4092 25.7916 26.5878 25.7904 26.7738 25.789C27.7038 25.7823 28.8419 25.774 29.4879 25.7097C29.8483 19.8324 29.2144 13.1454 28.7037 8.61016C28.679 8.38982 28.7423 8.10065 28.8226 7.73454C29.0253 6.80938 29.2773 5.65768 28.2819 5.05195C27.7628 4.7361 26.9456 4.59413 25.8523 4.62891C21.9275 4.75467 17.9931 4.78612 14.1884 4.81661C10.6603 4.84496 7.01213 4.87425 3.38173 4.97858C2.79545 4.99525 2.25412 5.29896 1.93365 5.7906C1.47838 6.489 1.09253 7.46894 0.901325 8.4115C0.370477 11.0288 0.393105 13.755 0.415067 16.3916C0.439983 19.4041 0.465851 22.5174 0.619655 25.5775ZM3.77597 26.4229C2.748 26.4229 1.66244 26.365 0.358114 25.9181C0.279676 25.8914 0.225343 25.8195 0.22115 25.7366C0.0605571 22.6234 0.0342123 19.457 0.00882038 16.3949C-0.0132368 13.7374 -0.0360324 10.9897 0.503272 8.33074C0.704049 7.34055 1.11161 6.30796 1.59329 5.5686C1.98651 4.96572 2.65068 4.59318 3.37011 4.57269C7.00458 4.46812 10.655 4.43883 14.1851 4.41048C17.9874 4.37999 21.9194 4.34855 25.8394 4.22278C27.0287 4.18467 27.8969 4.34259 28.4929 4.70513C29.7363 5.46141 29.4252 6.88155 29.2192 7.82124C29.1527 8.1247 29.0901 8.41125 29.1075 8.56466C29.6246 13.159 30.2677 19.9548 29.8828 25.9048C29.8764 26.001 29.8032 26.0798 29.7075 26.093C29.081 26.1785 27.8033 26.1878 26.7767 26.1951C26.5911 26.1966 26.4127 26.1978 26.2467 26.1994L4.3164 26.4193C4.13756 26.4212 3.9576 26.4229 3.77597 26.4229Z" fill="#2F2F2F"/>
<path d="M13.9725 17.209C13.9275 17.209 13.882 17.194 13.8444 17.1632L4.91175 9.89034C4.28843 9.38274 3.64399 8.85799 3.13753 8.18556C2.50307 7.34329 2.11766 6.28926 2.05216 5.21737C2.04518 5.10541 2.13041 5.00918 2.24243 5.00227C2.35391 4.99727 2.45076 5.0804 2.45748 5.19259C2.51822 6.18588 2.87506 7.16202 3.462 7.94141C3.93876 8.57406 4.56374 9.08309 5.16827 9.5752L14.1009 16.8483C14.1879 16.9191 14.201 17.047 14.13 17.1339C14.09 17.1833 14.0314 17.209 13.9725 17.209Z" fill="#2F2F2F"/>
<path d="M4.54598 26.1543C4.43376 26.1543 4.34287 26.0633 4.34287 25.9511C4.34287 19.59 3.98592 14.116 3.18546 8.20249C3.17038 8.09125 3.24834 7.98906 3.35944 7.97406C3.47037 7.95738 3.57289 8.03671 3.58797 8.14794C4.39096 14.0803 4.74899 19.5712 4.74899 25.9511C4.74899 26.0633 4.65819 26.1543 4.54598 26.1543Z" fill="#2F2F2F"/>
<path d="M18.969 17.0469C18.9094 17.0469 18.8508 17.0212 18.8106 16.9711C18.7403 16.8839 18.7539 16.756 18.8413 16.6855L25.9806 10.9288C26.7478 10.3102 28.3442 9.02269 28.7591 8.11849C28.8058 8.01654 28.9264 7.97176 29.0285 8.01869C29.1305 8.06537 29.1753 8.1859 29.1284 8.28785C28.7287 9.15894 27.5017 10.2239 26.2354 11.2451L19.0962 17.0019C19.0585 17.0321 19.0135 17.0469 18.969 17.0469Z" fill="#2F2F2F"/>
<path d="M18.8211 15.2458C19.021 16.1872 19.0438 17.1695 18.8881 18.1199C18.8499 18.3524 18.7902 18.6023 18.6134 18.7469C18.4888 18.8486 18.3264 18.8802 18.1704 18.905C17.0608 19.081 15.9242 19.0656 14.8194 18.8586C14.66 18.8288 14.4943 18.7916 14.3697 18.683C14.1613 18.5015 14.13 18.183 14.1186 17.8986C14.086 17.0814 14.0884 16.2624 14.1091 15.4021C14.2584 15.0624 14.6748 14.9833 15.0288 14.9485C16.0559 14.8473 17.0873 14.7458 18.1172 14.8032C18.3928 14.8185 18.7489 14.9064 18.8211 15.2458Z" fill="white"/>
<path d="M14.311 15.4519C14.2891 16.3869 14.2925 17.1631 14.3215 17.8908C14.3318 18.1498 14.3611 18.4065 14.503 18.5302C14.5878 18.604 14.7186 18.6333 14.8568 18.6593C15.9432 18.8625 17.0472 18.8779 18.1384 18.7048C18.273 18.6833 18.4009 18.6583 18.4847 18.59C18.6069 18.4899 18.6546 18.2893 18.6877 18.0874C18.8385 17.1674 18.8158 16.1996 18.6224 15.2883C18.5865 15.1182 18.4126 15.0234 18.106 15.0065C17.0903 14.9493 16.0525 15.052 15.0487 15.1508C14.7493 15.1804 14.4306 15.2397 14.311 15.4519ZM16.6285 19.2305C16.0108 19.2305 15.3937 19.1731 14.782 19.0585C14.5945 19.0235 14.3977 18.9773 14.2362 18.8365C13.978 18.6119 13.9297 18.257 13.9156 17.907C13.8859 17.1589 13.8828 16.3614 13.9059 15.3974C13.9066 15.3709 13.9123 15.3447 13.923 15.3204C14.1376 14.8326 14.7481 14.7724 15.0087 14.7466C16.028 14.6463 17.0818 14.5427 18.1286 14.6009C18.6265 14.6285 18.943 14.8426 19.0197 15.204C19.2234 16.1641 19.2475 17.1839 19.0886 18.1531C19.0448 18.4204 18.9692 18.7186 18.7418 18.9044C18.5796 19.0371 18.3864 19.0766 18.2022 19.1059C17.6794 19.1888 17.1537 19.2305 16.6285 19.2305Z" fill="#2F2F2F"/>
<path d="M16.2292 16.4864C16.096 16.3971 16.0172 16.2253 16.0336 16.0603C16.05 15.895 16.1608 15.7439 16.3087 15.6856C16.3938 15.6522 16.4864 15.648 16.5772 15.6508C16.7179 15.6553 16.8651 15.6792 16.9776 15.7682C17.17 15.9207 17.1903 16.2599 17.0174 16.4366C16.9647 16.4905 16.8952 16.5348 16.874 16.6091C16.8618 16.6515 16.8682 16.697 16.8744 16.7408C16.9216 17.0667 16.9688 17.3925 17.0159 17.7184C16.6953 17.8094 16.3616 17.8494 16.0298 17.8365C16.1065 17.4049 16.1832 16.9731 16.2292 16.4864Z" fill="white"/>
<path d="M16.5329 15.8529C16.4829 15.8529 16.4274 15.857 16.3833 15.8744C16.3066 15.9046 16.2447 15.9913 16.2359 16.0802C16.2268 16.1702 16.2716 16.2703 16.3421 16.3177C16.4041 16.3591 16.4384 16.4311 16.4312 16.5054C16.3933 16.9096 16.3338 17.2788 16.2718 17.6332C16.4457 17.6263 16.6184 17.6039 16.7887 17.5661L16.6735 16.7698C16.6658 16.7171 16.6546 16.6378 16.6787 16.5533C16.7104 16.4418 16.7849 16.3744 16.8395 16.3253L16.8723 16.2943C16.9143 16.2515 16.9367 16.1802 16.9317 16.1042C16.9271 16.0295 16.8971 15.9635 16.8516 15.9275C16.7937 15.8815 16.7044 15.8579 16.5706 15.8537L16.5329 15.8529ZM16.1518 18.042C16.1087 18.042 16.0653 18.0413 16.022 18.0396C15.9634 18.0372 15.9086 18.0096 15.8717 17.9641C15.835 17.9184 15.8195 17.8588 15.8298 17.8009C15.8991 17.4117 15.9705 17.0099 16.0165 16.5718C15.8829 16.4344 15.8121 16.2372 15.8317 16.0399C15.8555 15.8005 16.0172 15.5821 16.2342 15.4966C16.359 15.4475 16.4869 15.4447 16.5837 15.4478C16.7256 15.4523 16.9338 15.4742 17.1039 15.609C17.2401 15.7169 17.3252 15.8882 17.3371 16.0785C17.3492 16.2705 17.2856 16.4527 17.1627 16.5785L17.1117 16.6266L17.0667 16.6714L17.0755 16.7119L17.217 17.6892C17.2316 17.7897 17.1694 17.8857 17.0715 17.9136C16.7711 17.9989 16.4624 18.042 16.1518 18.042Z" fill="#2F2F2F"/>
<path d="M4.48365 7.82324L4.44568 7.81157C4.41479 7.79061 4.40669 7.74844 4.42772 7.71748C4.93558 6.97096 5.47637 6.23303 6.0352 5.52463C6.05845 5.49557 6.10106 5.49057 6.13029 5.51367C6.15959 5.53654 6.16462 5.57918 6.14153 5.60848C5.58467 6.3145 5.04575 7.04957 4.53975 7.79371C4.52665 7.813 4.50533 7.82324 4.48365 7.82324Z" fill="#2F2F2F"/>
<path d="M5.65946 8.92871L5.61599 8.91299C5.58733 8.88893 5.58362 8.8463 5.60763 8.81771C6.46438 7.79608 7.31967 6.74729 8.14963 5.70089C8.1729 5.67135 8.21552 5.66659 8.24474 5.68993C8.27404 5.71304 8.27897 5.75567 8.25572 5.78497C7.42501 6.83233 6.56887 7.88207 5.71136 8.90465L5.65946 8.92871Z" fill="#2F2F2F"/>
<path d="M6.9099 10.085L6.87167 10.0731C6.84087 10.0521 6.83306 10.0099 6.85407 9.97896C7.93966 8.3959 9.14692 6.875 10.4423 5.45891C10.4676 5.43128 10.5105 5.42937 10.538 5.45462C10.5656 5.47987 10.5675 5.52275 10.5423 5.55038C9.25103 6.9617 8.04778 8.4776 6.96583 10.0557C6.95271 10.0747 6.93148 10.085 6.9099 10.085Z" fill="#2F2F2F"/>
<path d="M8.05447 11.2031L8.01428 11.1898C7.98413 11.1674 7.97789 11.1252 8.00013 11.095C9.41396 9.18559 10.9146 7.30382 12.4604 5.50209C12.4847 5.47374 12.5275 5.47065 12.5559 5.49471C12.5842 5.51924 12.5873 5.56188 12.563 5.59022C11.0195 7.38957 9.52089 9.26848 8.10889 11.1757L8.05447 11.2031Z" fill="#2F2F2F"/>
<path d="M9.15114 12.2041L9.11029 12.1905C9.08051 12.1679 9.07465 12.1255 9.09726 12.0957C10.7993 9.84999 12.5868 7.62188 14.4102 5.47262C14.4345 5.44403 14.4771 5.44046 14.5057 5.46476C14.5343 5.48906 14.5376 5.5317 14.5136 5.56028C12.6916 7.7074 10.9056 9.93383 9.20521 12.1774L9.15114 12.2041Z" fill="#2F2F2F"/>
<path d="M10.4607 13.0391L10.4178 13.0238C10.3889 13 10.3847 12.9574 10.4084 12.9283C12.4935 10.3889 14.6416 7.84229 16.7934 5.35979C16.818 5.33144 16.8606 5.32835 16.889 5.35288C16.9173 5.37742 16.9202 5.42006 16.8959 5.4484C14.7447 7.92995 12.5973 10.4756 10.513 13.0143L10.4607 13.0391Z" fill="#2F2F2F"/>
<path d="M11.4363 14.0879L11.3927 14.0719C11.3641 14.0479 11.3605 14.0052 11.3846 13.9766L18.7123 5.28742C18.7366 5.25884 18.779 5.25526 18.8078 5.27932C18.8364 5.30338 18.84 5.34601 18.8159 5.3746L11.488 14.0638L11.4363 14.0879Z" fill="#2F2F2F"/>
<path d="M12.8269 15.082L12.7843 15.0668C12.7552 15.043 12.7509 15.0006 12.7745 14.9715L20.6724 5.31257C20.696 5.28351 20.7386 5.27922 20.7677 5.30304C20.7965 5.32662 20.8008 5.36926 20.7772 5.39832L12.8795 15.0573L12.8269 15.082Z" fill="#2F2F2F"/>
<path d="M15.4777 14.375L15.4367 14.3609C15.4069 14.3381 15.4015 14.2957 15.4241 14.2659C17.7503 11.2327 20.2135 8.24354 22.7453 5.38135C22.7703 5.353 22.8132 5.35062 22.8409 5.37539C22.869 5.40017 22.8716 5.4428 22.8468 5.47091C20.3169 8.33072 17.8558 11.3177 15.5315 14.3486L15.4777 14.375Z" fill="#2F2F2F"/>
<path d="M17.8021 14.0615L17.7583 14.0453C17.7297 14.021 17.7264 13.9784 17.7504 13.9498L25.0688 5.34037C25.0931 5.31179 25.1357 5.30845 25.1641 5.33251C25.1927 5.35681 25.1962 5.39945 25.1719 5.42803L17.8535 14.0377L17.8021 14.0615Z" fill="#2F2F2F"/>
<path d="M19.7191 14.5361L19.6748 14.5197C19.6465 14.4952 19.6434 14.4525 19.6679 14.4242C22.235 11.4605 24.8999 8.51473 27.5885 5.66826C27.6142 5.64134 27.6571 5.63991 27.6842 5.66563C27.7114 5.69136 27.7126 5.73424 27.6869 5.76139C24.9997 8.60619 22.3362 11.5506 19.7703 14.5128L19.7191 14.5361Z" fill="#2F2F2F"/>
<path d="M24.2978 11.792L24.252 11.7744C24.2244 11.7491 24.2225 11.7065 24.2477 11.6788C25.5766 10.2227 26.9522 8.77188 28.3355 7.36651C28.3617 7.33983 28.4045 7.33936 28.4312 7.3658C28.4579 7.392 28.4584 7.43511 28.4322 7.46155C27.0499 8.86573 25.6755 10.3152 24.3475 11.7701L24.2978 11.792Z" fill="#2F2F2F"/>
<path d="M3.3816 6.43262L3.34094 6.41904C3.31107 6.39642 3.30512 6.35402 3.32755 6.324L4.06745 5.34144C4.08988 5.31166 4.13212 5.30594 4.16227 5.32833C4.19214 5.35072 4.1981 5.39312 4.17556 5.42314L3.43577 6.40547L3.3816 6.43262Z" fill="#2F2F2F"/>
<path d="M1.84128 25.04C1.80584 25.04 1.77606 25.0124 1.77375 24.9767C1.40352 19.2242 1.39523 13.3905 1.74908 7.63751C1.75132 7.60012 1.78285 7.57273 1.82082 7.57392C1.85812 7.5763 1.88652 7.60846 1.88418 7.64561C1.5307 13.3933 1.53899 19.2211 1.90893 24.9679C1.91136 25.0053 1.88297 25.0374 1.84576 25.0398L1.84128 25.04Z" fill="#2F2F2F"/>
<path d="M3.20238 25.4229C3.16646 25.4229 3.13649 25.3947 3.13473 25.3585L2.3658 9.32232C2.36402 9.28516 2.39277 9.25324 2.43019 9.25158C2.46618 9.24824 2.49922 9.27849 2.50098 9.31589L3.26993 25.3519C3.27179 25.3895 3.24304 25.4212 3.20562 25.4229H3.20238Z" fill="#2F2F2F"/>
<path d="M3.75766 26.0166C2.77862 26.0166 1.80351 25.9632 0.619662 25.5771C0.546821 24.1286 0.502707 22.6683 0.473766 21.2124C0.481412 21.2079 0.489225 21.2038 0.497038 21.1998C0.486604 21.0816 0.476576 20.9637 0.466786 20.8456C0.439536 19.3487 0.427151 17.8578 0.415074 16.3913C0.393112 13.7546 0.370483 11.0285 0.901332 8.41113C1.09001 7.48097 1.46815 6.51484 1.91553 5.81835C1.9948 5.8324 2.07119 5.86122 2.13827 5.90458C2.28669 6.68777 2.60285 7.4381 3.05786 8.07623C3.11805 8.21272 3.17229 8.32944 3.2189 8.44782C3.24599 8.65029 3.27243 8.85204 3.29846 9.05332C3.25716 9.15193 3.18663 9.23006 3.10121 9.28413C3.24589 9.64143 3.37578 10.0152 3.47647 10.4949C3.51694 10.8377 3.55593 11.1807 3.59342 11.522C3.58609 11.542 3.57723 11.5618 3.56663 11.5813L3.56105 11.5889C3.59195 11.7395 3.62134 11.8903 3.64926 12.0413C4.10574 16.3681 4.32457 20.6114 4.34218 25.327C4.34189 25.327 4.3416 25.3273 4.34141 25.3273C4.3416 25.3277 4.34189 25.328 4.34218 25.3282C4.34292 25.535 4.3433 25.7422 4.3433 25.9506C4.3433 25.9721 4.34663 25.9928 4.35287 26.0123L4.31231 26.0128C4.1263 26.0147 3.94198 26.0166 3.75766 26.0166ZM2.61374 14.4847L3.13518 25.3582C3.13694 25.3944 3.16691 25.4225 3.20283 25.4225H3.20607C3.24349 25.4209 3.27224 25.3892 3.27038 25.3516L2.75006 14.4988C2.79984 14.5109 2.84767 14.5307 2.89103 14.5578C2.88043 14.4568 2.8714 14.3559 2.86004 14.2551C2.80589 13.7437 2.74317 13.2366 2.66509 12.728L2.50143 9.31557C2.49976 9.27984 2.46989 9.25102 2.43602 9.25102C2.43426 9.25102 2.43249 9.25102 2.43064 9.25126C2.39321 9.25293 2.36446 9.28485 2.36625 9.32201L2.47873 11.6685C2.39815 11.2652 2.30501 10.8584 2.19625 10.4449C2.27097 11.2505 2.35034 12.0553 2.43118 12.86C2.48618 13.4021 2.54647 13.9435 2.60881 14.4847C2.6105 14.4847 2.61217 14.4847 2.61374 14.4847ZM3.27688 21.4806C3.32219 22.3288 3.36416 23.177 3.4157 24.025C3.4344 24.3721 3.44836 24.7194 3.46222 25.0669C3.55155 25.0764 3.64609 25.0876 3.7478 25.1012C3.73468 25.0726 3.72434 25.0428 3.717 25.0121C3.7115 24.9719 3.70621 24.9316 3.7008 24.8916C3.7008 24.8935 3.7008 24.8954 3.7009 24.8975C3.67465 24.7087 3.65038 24.5195 3.62675 24.3304C3.54319 23.6068 3.46206 22.8826 3.39329 22.1573C3.35801 22.0928 3.33726 22.0204 3.33746 21.9463C3.34396 21.9944 3.34677 22.0144 3.34677 22.0144C3.34687 22.0144 3.29084 21.5985 3.27883 21.4951L3.27688 21.4806ZM1.50585 18.2194C1.54018 20.4775 1.6295 22.733 1.77383 24.9759C1.77614 25.0116 1.80591 25.0393 1.84136 25.0393L1.84583 25.039C1.88304 25.0367 1.91143 25.0045 1.909 24.9671C1.74489 22.4179 1.65192 19.8525 1.63015 17.2852C1.64058 17.218 1.65127 17.1511 1.66235 17.0839C1.65054 16.9636 1.63863 16.8434 1.62662 16.7231C1.61312 13.6903 1.69901 10.6566 1.88426 7.64485C1.88659 7.60769 1.8582 7.57554 1.8209 7.57316C1.82006 7.57316 1.81923 7.57316 1.8184 7.57316C1.78155 7.57316 1.75139 7.60031 1.74915 7.63675C1.59061 10.2141 1.50483 12.8073 1.49161 15.4025C1.43652 14.8725 1.38052 14.3427 1.32506 13.8128C1.32404 13.8723 1.32356 13.9297 1.32394 13.9831C1.34905 15.3996 1.4141 16.8155 1.50473 18.2297C1.50509 18.2263 1.50547 18.223 1.50585 18.2194ZM1.8516 22.6077C1.91115 23.2726 1.96977 23.9371 2.02532 24.6019C2.02791 24.661 2.0338 24.7234 2.04001 24.787C2.0776 24.8075 2.11464 24.8256 2.15168 24.8423C2.13344 24.7168 2.11576 24.591 2.10283 24.4647C2.04523 23.8452 2.00912 23.2242 1.98065 22.603C1.95264 22.6075 1.92456 22.6099 1.89655 22.6099C1.88157 22.6099 1.86668 22.6092 1.8516 22.6077Z" fill="#DEDEDE"/>
<path d="M3.90256 26.3691C3.83918 26.3691 3.77479 26.3618 3.71217 26.3572C3.40987 26.3401 3.10691 26.3313 2.80506 26.3065C2.18203 26.2743 1.56262 26.1019 1.10457 25.7286C1.05683 25.7422 1.00753 25.7496 0.95829 25.7496C0.851672 25.7496 0.745316 25.7153 0.655897 25.6367C0.470269 25.5114 0.429323 25.2641 0.404956 25.0567C0.377396 24.828 0.366891 24.5977 0.35722 24.3678C0.283617 24.0169 0.26137 23.6546 0.262037 23.2971C0.257559 22.7578 0.22733 22.2195 0.205082 21.6809C0.202391 21.4627 0.317394 21.3022 0.473699 21.2129C0.50264 22.6687 0.546755 24.1291 0.619596 25.5776C1.80344 25.9637 2.77855 26.0171 3.7576 26.0171C3.94191 26.0171 4.12623 26.0152 4.31224 26.0133L4.3528 26.0128C4.36331 26.0459 4.3822 26.0754 4.40695 26.0988C4.34528 26.1914 4.25305 26.2689 4.12716 26.317C4.05739 26.3579 3.98072 26.3691 3.90256 26.3691ZM0.466719 20.846C0.302315 18.8528 0.236262 16.8507 0.192053 14.8515C0.163683 13.4276 0.336187 12.0106 0.487848 10.5973C0.630219 9.12121 0.952144 7.67535 1.25101 6.22567C1.32509 5.94388 1.56496 5.8093 1.80473 5.8093C1.84186 5.8093 1.8789 5.8124 1.91547 5.81883C1.46808 6.51532 1.08994 7.48145 0.901265 8.41162C0.370417 11.0289 0.393046 13.7551 0.415007 16.3917C0.427084 17.8583 0.439469 19.3492 0.466719 20.846Z" fill="#2F2F2F"/>
<path d="M3.05777 8.07617C2.60277 7.43804 2.2866 6.68772 2.13818 5.90452C2.1768 5.92977 2.21243 5.95954 2.2438 5.99408L2.26381 6.00456C2.48805 6.12295 2.52852 6.38211 2.57849 6.60721C2.63702 6.85184 2.69619 7.09694 2.77722 7.33538C2.87903 7.65885 2.97402 7.8868 3.05777 8.07617Z" fill="#2F2F2F"/>
<path d="M4.40686 26.0986C4.38211 26.0753 4.36322 26.0458 4.35272 26.0126C4.34648 25.9931 4.34314 25.9724 4.34314 25.951C4.34314 25.7425 4.34276 25.5353 4.34202 25.3285C4.52384 25.5382 4.56124 25.8666 4.40686 26.0986ZM4.34202 25.3273C4.32442 20.6117 4.10559 16.3685 3.6491 12.0416C3.75629 12.6216 3.84181 13.2062 3.9115 13.7926C4.34193 16.9423 4.18662 20.1327 4.49833 23.2912C4.53508 23.7021 4.55797 24.1137 4.59053 24.5249C4.59408 24.7295 4.674 24.9527 4.56021 25.1401C4.51005 25.2287 4.43116 25.2907 4.34202 25.3273ZM3.59327 11.5223C3.55578 11.181 3.51678 10.838 3.47631 10.4952C3.49763 10.5967 3.51762 10.7029 3.53615 10.8144C3.55837 11.0474 3.6759 11.2965 3.59327 11.5223ZM3.29831 9.05364C3.27227 8.85237 3.24583 8.65061 3.21875 8.44814C3.2677 8.57248 3.30817 8.69849 3.33814 8.85141C3.33785 8.92573 3.32353 8.99362 3.29831 9.05364Z" fill="#2F2F2F"/>
<path d="M1.84096 25.04C1.80551 25.04 1.77574 25.0124 1.77343 24.9767C1.6291 22.7338 1.53978 20.4783 1.50545 18.2202C1.54016 17.9079 1.58175 17.5963 1.62975 17.286C1.65152 19.8533 1.74449 22.4187 1.9086 24.9679C1.91103 25.0053 1.88264 25.0374 1.84543 25.0398L1.84096 25.04ZM1.62622 16.7238C1.5822 16.2834 1.53699 15.8434 1.49121 15.4033C1.50443 12.8081 1.5902 10.2148 1.74875 7.63751C1.75099 7.60107 1.78115 7.57392 1.81799 7.57392C1.81883 7.57392 1.81966 7.57392 1.8205 7.57392C1.8578 7.5763 1.88619 7.60845 1.88386 7.64561C1.69861 10.6574 1.61272 13.6911 1.62622 16.7238Z" fill="#2F2F2F"/>
<path d="M3.20238 25.4229C3.16646 25.4229 3.13649 25.3947 3.13473 25.3585L2.61329 14.485C2.61822 14.4848 2.62315 14.4848 2.62799 14.4848C2.66903 14.4848 2.70997 14.4896 2.74961 14.4991L3.26993 25.3519C3.27179 25.3895 3.24304 25.4212 3.20562 25.4229H3.20238ZM2.66464 12.7283C2.61069 12.3765 2.54929 12.0242 2.47828 11.6688L2.3658 9.32232C2.36402 9.28516 2.39277 9.25324 2.43019 9.25158C2.43204 9.25134 2.43381 9.25134 2.43557 9.25134C2.46944 9.25134 2.49931 9.28016 2.50098 9.31589L2.66464 12.7283Z" fill="#2F2F2F"/>
<path d="M3.71678 25.0127C3.70776 24.9753 3.70133 24.9369 3.70068 24.8981C3.7059 24.9362 3.71128 24.9746 3.71678 25.0127Z" fill="#DEDEDE"/>
<path d="M3.71688 25.0127C3.71138 24.9746 3.706 24.9362 3.70078 24.8981C3.70068 24.896 3.70068 24.8941 3.70068 24.8922C3.70609 24.9322 3.71138 24.9724 3.71688 25.0127Z" fill="#C1C1C1"/>
<path d="M16.8872 19.7451C16.7803 19.7451 16.6745 19.7423 16.5709 19.7375C15.9549 19.7263 15.3277 19.7122 14.727 19.5655C14.6774 19.5436 14.6284 19.5205 14.5786 19.4986C14.4533 19.4438 14.3759 19.4162 14.2423 19.3483C14.0167 19.2339 13.8566 19.1234 13.6932 18.9381C13.6772 18.92 13.6565 18.9069 13.6344 18.8974C13.4464 18.6061 13.3197 18.2716 13.1978 17.9517C13.1689 17.876 13.1108 17.8167 13.0384 17.7952C13.0112 17.7659 13.0036 17.7535 13.0108 17.7535C13.0115 17.7535 13.0122 17.7535 13.0132 17.7538L13.0172 17.755C12.3326 17.3026 11.1352 16.0564 9.84531 15.0531C9.25484 14.5462 8.10386 13.8049 7.23777 13.0608C6.58999 12.5044 5.91353 11.9815 5.31089 11.3744C4.68367 10.7431 4.7541 10.7376 4.28895 10.1853C4.21144 10.111 4.17971 10.0211 4.18122 9.93278C4.02248 9.70649 3.87806 9.5064 3.74221 9.32204C3.72044 9.1503 3.69829 8.9776 3.67578 8.80515C4.06519 9.20103 4.49328 9.54952 4.91182 9.89038L8.60174 12.8945C8.5916 12.9145 8.57969 12.9334 8.56601 12.9508C8.84209 13.1527 9.12207 13.349 9.40166 13.546L13.8445 17.1633C13.8452 17.1638 13.8457 17.1642 13.8461 17.1647C13.8566 17.1809 13.8664 17.1973 13.875 17.2145C13.883 17.2336 13.8904 17.2505 13.8971 17.2659C13.9014 17.4851 13.9076 17.6978 13.9159 17.9067C13.93 18.2566 13.9783 18.6115 14.2365 18.8361C14.398 18.9769 14.5948 19.0231 14.7823 19.0582C15.3939 19.1727 16.0111 19.2301 16.6288 19.2301C17.154 19.2301 17.6797 19.1884 18.2025 19.1056C18.3867 19.0763 18.5798 19.0367 18.7421 18.904C18.9695 18.7182 19.045 18.42 19.0889 18.1528C19.1549 17.7495 19.1894 17.3372 19.1925 16.9241L26.2358 11.2448C27.2143 10.4556 28.1692 9.64051 28.7371 8.90876C28.7561 9.07955 28.7754 9.25391 28.7947 9.43042C28.6928 9.56381 28.5637 9.68363 28.4601 9.80654C28.0818 10.176 27.6862 10.5276 27.3184 10.9082C26.5735 11.6164 25.8201 12.3169 25.0484 12.996C24.6456 13.2344 24.2766 13.5536 23.9205 13.8449C23.4834 14.2027 23.0646 14.5815 22.6447 14.959C22.2257 15.3358 21.8181 15.7274 21.3846 16.0878C20.9566 16.4437 20.5159 16.7688 20.0648 17.093C19.8342 17.2588 19.6725 17.4603 19.5562 17.6861L19.5457 17.6907L19.5503 17.6983C19.4116 17.9717 19.3387 18.2802 19.2916 18.6056L19.2904 18.6582C19.2404 18.7468 19.1861 18.8326 19.1189 18.9107C18.5951 19.582 17.7068 19.7451 16.8872 19.7451Z" fill="#DEDEDE"/>
<path d="M28.7945 9.43066C28.7752 9.25416 28.7559 9.07979 28.7368 8.90901C28.7706 8.86565 28.8028 8.82278 28.8338 8.7799C28.9255 8.86113 28.9798 8.98166 28.9529 9.11434C28.9276 9.23105 28.8681 9.33443 28.7945 9.43066Z" fill="#2F2F2F"/>
<path d="M13.846 17.165C13.8455 17.1646 13.845 17.1641 13.8443 17.1636L9.4015 13.5463C9.85817 13.8681 10.3135 14.1916 10.7473 14.5446C11.6562 15.2571 11.9556 15.5184 12.6676 16.0438C13.1857 16.3964 13.7385 16.8473 13.8088 17.0983L13.821 17.1272C13.8295 17.1398 13.8379 17.1522 13.846 17.165ZM8.60158 12.8949L4.91165 9.89071C4.49311 9.54984 4.06502 9.20136 3.67562 8.80547C3.66278 8.7071 3.64984 8.60896 3.63672 8.51034C4.09694 8.9229 4.53704 9.35261 4.97194 9.79209C5.43233 10.2573 5.89672 10.7146 6.42188 11.1065C6.89782 11.4619 7.38593 11.7987 7.8679 12.1457C8.13866 12.3406 8.39149 12.5509 8.63945 12.7674C8.63462 12.8117 8.62178 12.8553 8.60158 12.8949Z" fill="#2F2F2F"/>
<path d="M3.74212 9.32227C3.6461 9.19221 3.55435 9.06954 3.46467 8.95115C3.35495 8.77631 3.42558 8.56432 3.57055 8.45117C3.5927 8.47071 3.61476 8.49048 3.63679 8.51025C3.64991 8.60886 3.66285 8.707 3.67569 8.80538C3.6982 8.97783 3.72035 9.15052 3.74212 9.32227Z" fill="#2F2F2F"/>
<path d="M19.1921 16.9238C19.1926 16.8386 19.1918 16.7535 19.1899 16.6682C19.193 16.6659 19.1964 16.6632 19.1997 16.6606C19.3786 16.516 19.5565 16.3703 19.7352 16.2254C19.749 16.2281 19.7633 16.2297 19.7776 16.2297C19.8219 16.2297 19.8674 16.2157 19.9093 16.1818C21.0527 15.2572 22.1488 14.2713 23.261 13.3099C23.6059 13.0117 23.9541 12.7177 24.3033 12.4247C24.4098 12.3364 24.5161 12.2475 24.6218 12.1582C24.866 11.9545 25.1096 11.7506 25.354 11.5475C25.3638 11.5467 25.3736 11.5465 25.3833 11.5465C25.4024 11.5465 25.4212 11.5477 25.4398 11.5506C25.657 11.3545 25.8771 11.1616 26.1065 10.9786C26.3373 10.7757 26.5605 10.5644 26.7818 10.351C27.3725 9.85125 27.9685 9.35746 28.5635 8.8632C28.63 8.80794 28.6438 8.74006 28.6257 8.67908C28.7024 8.69218 28.7755 8.72791 28.8336 8.77936C28.8027 8.82223 28.7705 8.86511 28.7367 8.90846C28.1688 9.6402 27.2139 10.4553 26.2354 11.2445L19.1921 16.9238Z" fill="#2F2F2F"/>
<path d="M14.526 18.5479C14.5181 18.5421 14.5103 18.5359 14.5031 18.5295C14.4843 18.5133 14.4676 18.4947 14.4526 18.4742L14.4988 18.4573L14.5017 18.4721C14.5077 18.4981 14.5162 18.5231 14.526 18.5479Z" fill="#DEDEDE"/>
<path d="M16.6286 19.2305C16.011 19.2305 15.3938 19.1731 14.7821 19.0585C14.5947 19.0235 14.3979 18.9773 14.2364 18.8365C13.9782 18.6119 13.9298 18.257 13.9158 17.907C13.9075 17.6981 13.9013 17.4854 13.897 17.2663C13.9932 17.484 13.9741 17.3732 14.0792 17.7806C14.0863 17.8465 14.134 17.988 14.1471 18.0311L14.1473 18.0319C14.1664 18.0835 14.2328 18.1857 14.2678 18.2391C14.3338 18.3141 14.405 18.3851 14.4391 18.4799L14.4527 18.4749C14.4677 18.4954 14.4844 18.514 14.5032 18.5302C14.5103 18.5366 14.5182 18.5428 14.5261 18.5485C14.5332 18.5659 14.5408 18.5833 14.5484 18.6007C14.5582 18.6233 14.5708 18.6445 14.5849 18.6647C14.6366 18.7024 14.6795 18.7467 14.7138 18.7955C14.7414 18.81 14.7716 18.8189 14.8038 18.8189C14.844 18.8189 14.8898 18.8036 14.9238 18.7779C14.9567 18.7939 14.9929 18.8046 15.0308 18.8089C15.531 18.8667 16.0334 18.8815 16.536 18.8815C16.7823 18.8815 17.0288 18.8779 17.2751 18.8741C17.4652 18.8713 17.6553 18.8646 17.8456 18.8591C18.0159 18.8544 18.1924 18.8603 18.3544 18.7991C18.5147 18.7381 18.6328 18.609 18.6912 18.457C18.741 18.4332 18.781 18.3915 18.7996 18.3334C18.846 18.1891 18.8513 18.029 18.8622 17.8787C18.8653 17.8358 18.867 17.7929 18.8691 17.7501C18.8958 17.7029 18.9251 17.6576 18.9634 17.6205C18.933 17.601 18.9044 17.5795 18.8772 17.5559C18.8786 17.5076 18.8801 17.4592 18.8813 17.4109C18.8877 17.1455 18.8884 16.8802 18.8884 16.6146C18.9289 16.6694 18.9975 16.7087 19.0702 16.7087C19.1102 16.7087 19.1516 16.6968 19.1902 16.6689C19.1921 16.7542 19.1928 16.8392 19.1924 16.9245C19.1893 17.3375 19.1547 17.7498 19.0887 18.1531C19.0449 18.4204 18.9694 18.7186 18.7419 18.9044C18.5797 19.0371 18.3865 19.0766 18.2024 19.1059C17.6796 19.1888 17.1539 19.2305 16.6286 19.2305Z" fill="#2F2F2F"/>
<path d="M11.1825 4.43652C11.1507 4.17522 11.1353 3.92988 11.1363 3.69692C11.162 3.6812 11.1902 3.66715 11.221 3.65548C11.3108 3.61189 11.4106 3.60736 11.5114 3.60736C11.5252 3.60736 11.539 3.60736 11.553 3.60736C11.5671 3.6076 11.5812 3.6076 11.5952 3.6076C11.6376 3.6076 11.6798 3.60664 11.7207 3.60259C11.9177 3.60045 12.1161 3.59164 12.3138 3.59164C12.4584 3.59164 12.6025 3.5964 12.7457 3.61141C12.7824 3.61784 12.8172 3.62927 12.8493 3.64499C12.8546 3.73765 12.8624 3.83007 12.8705 3.92202C12.8855 4.09495 12.9001 4.26264 12.8948 4.42128C12.3267 4.42605 11.7555 4.43104 11.1825 4.43652Z" fill="#DEDEDE"/>
<path d="M11.046 4.4375C10.8653 4.22431 10.8706 3.86011 11.1366 3.69647C11.1356 3.92943 11.151 4.17477 11.1828 4.43607C11.1373 4.43655 11.0915 4.43702 11.046 4.4375ZM12.8951 4.42083C12.9004 4.26219 12.8858 4.0945 12.8708 3.92156C12.8627 3.82962 12.8549 3.7372 12.8496 3.64454C13.0978 3.7653 13.1988 4.13404 13.008 4.35032C12.9904 4.37748 12.9704 4.40058 12.9487 4.42035C12.9308 4.42059 12.913 4.42059 12.8951 4.42083Z" fill="#2F2F2F"/>
<path d="M11.4053 4.60156C11.2511 4.60156 11.1288 4.53558 11.0459 4.43768C11.0914 4.4372 11.1372 4.43672 11.1827 4.43625C11.7557 4.43077 12.3269 4.42577 12.895 4.42101C12.9128 4.42077 12.9307 4.42077 12.9486 4.42053C12.7999 4.55583 12.5627 4.53915 12.37 4.54511C12.0506 4.56607 11.7311 4.58417 11.4117 4.60156C11.4096 4.60156 11.4074 4.60156 11.4053 4.60156Z" fill="#2F2F2F"/>
<path d="M18.5229 4.37109C18.5301 4.29225 18.5389 4.21246 18.5475 4.13242C18.568 3.94615 18.5887 3.75774 18.5911 3.57004C18.617 3.56551 18.6432 3.56194 18.669 3.55836C18.8867 3.5224 19.1053 3.49191 19.3247 3.46713C19.4169 3.45094 19.5115 3.44093 19.6029 3.44093C19.7945 3.44093 19.9729 3.485 20.087 3.60981C20.1046 3.813 20.122 4.02666 20.1196 4.23842C20.0855 4.28296 20.0438 4.32084 19.9967 4.35228C19.5046 4.35919 19.0129 4.36538 18.5229 4.37109Z" fill="#DEDEDE"/>
<path d="M18.2777 4.37402C18.1212 4.16917 18.1086 3.85404 18.3632 3.67038C18.4251 3.60869 18.5073 3.58463 18.5911 3.5701C18.5888 3.7578 18.568 3.94622 18.5476 4.13249C18.539 4.21253 18.5302 4.29232 18.523 4.37116C18.4411 4.37212 18.3594 4.37307 18.2777 4.37402ZM20.1197 4.23849C20.122 4.02673 20.1047 3.81306 20.087 3.60988C20.158 3.68777 20.2042 3.79687 20.213 3.94622C20.2145 4.06318 20.1792 4.1606 20.1197 4.23849Z" fill="#2F2F2F"/>
<path d="M18.6623 4.57129C18.5027 4.57129 18.3669 4.49054 18.2778 4.37382C18.3595 4.37287 18.4412 4.37191 18.5232 4.37096C19.0132 4.36524 19.5048 4.35906 19.9969 4.35215C19.8852 4.42647 19.743 4.4641 19.6013 4.4641C19.5844 4.4641 19.5674 4.46362 19.5505 4.46243C19.0408 4.50435 19.2156 4.4922 18.8023 4.55104C18.754 4.56486 18.7073 4.57129 18.6623 4.57129Z" fill="#2F2F2F"/>
</svg>
