<svg width="30" height="30" viewBox="0 0 30 30" fill="none" xmlns="http://www.w3.org/2000/svg">
<path d="M23.6104 8.91146C20.9426 8.79037 18.0674 8.80557 15.3803 8.88976C15.3731 10.8165 15.4503 12.7436 15.7156 14.6819C18.299 14.5883 20.8823 14.5136 23.5212 14.4877C23.5212 15.4543 23.5212 16.4208 23.5404 17.3965C25.6148 15.5447 27.6893 13.6932 29.7926 11.7076C27.8147 9.76944 25.7596 7.90948 23.6345 6.11753C23.6321 7.05391 23.6104 8.00693 23.6104 8.91146Z" fill="#2F2F2F"/>
<path d="M23.521 14.2809C23.5765 14.2809 23.6295 14.3026 23.6681 14.3409C23.7067 14.3798 23.7284 14.4326 23.7284 14.4878C23.7284 15.2906 23.7284 16.1162 23.7381 16.9409C25.6219 15.2614 27.5588 13.5273 29.4957 11.705C27.7132 9.9661 25.8124 8.23832 23.8393 6.56216C23.8369 6.87886 23.8321 7.1963 23.8297 7.51204C23.8225 7.98529 23.8177 8.45468 23.8177 8.91153C23.8177 8.96798 23.7935 9.02201 23.7525 9.06108C23.7115 9.10016 23.6585 9.11946 23.6006 9.11801C21.244 9.0114 18.5496 9.00199 15.5852 9.09051C15.5876 11.143 15.6865 12.8628 15.8963 14.4685C18.897 14.3609 21.2536 14.3028 23.521 14.2809ZM23.5403 17.6035C23.5113 17.6035 23.4824 17.5977 23.4558 17.5861C23.3835 17.5536 23.3328 17.4812 23.3328 17.4002C23.3159 16.4942 23.3159 15.5829 23.3159 14.6969C21.0703 14.7208 18.7161 14.7804 15.7227 14.8889C15.6165 14.8952 15.5249 14.8154 15.5104 14.7102C15.274 12.98 15.1655 11.1302 15.1727 8.8891C15.1727 8.77766 15.2619 8.68649 15.3729 8.68311C18.335 8.59024 21.0341 8.59458 23.4028 8.69517C23.4052 8.30538 23.41 7.90762 23.4148 7.50673C23.4197 7.04481 23.4269 6.57904 23.4269 6.11736C23.4269 6.0368 23.4727 5.96371 23.5475 5.92994C23.6199 5.89618 23.7067 5.90727 23.767 5.95937C25.9258 7.77978 28.0026 9.66387 29.9395 11.56C29.9781 11.5993 29.9998 11.6534 29.9998 11.7096C29.9998 11.7658 29.9757 11.8196 29.9347 11.8581C27.8265 13.8481 25.7184 15.7305 23.6778 17.5509C23.6392 17.5854 23.5885 17.6035 23.5403 17.6035Z" fill="#2F2F2F"/>
<path d="M7.70991 5.72545C7.29262 4.33319 6.83914 3.36811 5.40153 2.22719C5.01318 1.91892 3.63347 0.560192 3.63347 0.560192C3.63347 0.560192 4.82985 0.513882 5.37498 0.444414C7.87391 0.126741 10.2571 0.276531 12.7705 0.3981C13.441 0.430422 15.4648 0.206341 15.4648 0.206341C15.4648 0.206341 13.8704 2.22574 13.3904 2.84999C12.7681 3.66287 12.3701 4.13009 12.0879 4.87688C11.8129 5.60051 12.0758 6.45246 12.5462 7.05066C13.0165 7.6491 13.6654 8.05047 14.2901 8.45908C17.5223 10.5723 20.5736 13.3602 21.9437 17.124C23.3137 20.8878 22.5153 25.7608 19.3386 27.9652C17.7346 29.0778 15.7663 29.398 13.8559 29.5321C11.5403 29.6949 9.21264 29.624 6.90909 29.3203C4.74544 29.0352 2.39122 28.4006 1.15382 26.4912C0.461549 25.4248 0.222771 24.0916 0.208299 22.7961C0.169705 19.4136 1.56871 16.1363 3.61175 13.5445C5.50766 11.1377 8.59032 8.67013 7.70991 5.72545Z" fill="white"/>
<path d="M7.90762 5.66662C8.64089 8.11731 6.81013 10.1874 5.03965 12.1894C4.58618 12.7008 4.15924 13.1839 3.7733 13.6731C1.57347 16.4665 0.379482 19.7058 0.415664 22.7942C0.432548 24.2648 0.73888 25.4709 1.32743 26.379C2.59619 28.3366 5.13613 28.8784 6.93555 29.1158C9.2198 29.4168 11.5451 29.4875 13.8414 29.3264C15.5877 29.2036 17.5922 28.9257 19.2203 27.7956C22.4115 25.5808 23.0122 20.6667 21.7506 17.1955C20.588 14.0069 18.1108 11.206 14.1767 8.63277L14.0488 8.54931C13.4554 8.16314 12.8428 7.76369 12.3845 7.17924C11.8128 6.45441 11.6198 5.52213 11.8948 4.80405C12.1577 4.11154 12.5027 3.66265 13.0285 2.98316L13.2263 2.72459C13.5736 2.27328 14.5119 1.08195 14.9992 0.463491C14.3527 0.528135 13.2383 0.628241 12.7608 0.605085L12.2398 0.579756C9.90967 0.464941 7.70743 0.356876 5.40147 0.650188C5.07101 0.692158 4.51622 0.725445 4.11823 0.745707C4.5524 1.16637 5.27362 1.8613 5.5293 2.0656C6.97173 3.21062 7.46138 4.17643 7.90762 5.66662ZM11.4365 29.8242C9.9145 29.8242 8.39004 29.7248 6.88248 29.5261C5.00104 29.2781 2.34294 28.7052 0.980103 26.6043C0.348135 25.6293 0.0176636 24.3491 0.000778951 22.799C-0.0354025 19.6163 1.18994 16.2844 3.45007 13.4169C3.84083 12.9186 4.29189 12.4084 4.72848 11.9151C6.4266 9.99801 8.1802 8.01552 7.51205 5.78506C7.08993 4.37784 6.62923 3.46631 5.27363 2.38979C4.88046 2.07815 3.54416 0.763802 3.48868 0.70784C3.43079 0.65019 3.41149 0.562628 3.44044 0.485682C3.46938 0.408735 3.54414 0.356876 3.62615 0.353741C3.63821 0.353258 4.81773 0.307188 5.3484 0.239408C7.69295 -0.0582447 9.91207 0.0510216 12.2614 0.166321L12.78 0.191891C13.4265 0.221317 15.4237 0.00326729 15.443 0.00109482C15.5274 -0.00782967 15.607 0.0334148 15.6456 0.106501C15.6866 0.179588 15.6794 0.269558 15.6287 0.335167C15.6119 0.355429 14.0271 2.3606 13.5567 2.97641L13.3565 3.23619C12.8524 3.88649 12.522 4.31561 12.2808 4.95095C12.0589 5.53613 12.2253 6.31041 12.7077 6.92332C13.1274 7.45398 13.7111 7.83461 14.2755 8.2027L14.4034 8.28639C18.4147 10.9105 20.945 13.7782 22.139 17.0539C22.8409 18.9819 22.9856 21.1552 22.549 23.1738C22.0859 25.3112 20.9884 27.0735 19.4567 28.1358C17.7466 29.3228 15.6722 29.6124 13.8703 29.739C13.0623 29.7958 12.2494 29.8242 11.4365 29.8242Z" fill="#2F2F2F"/>
<path d="M9.19329 6.22266C8.72293 6.22266 8.25498 6.17803 7.79668 6.08758C7.68572 6.06563 7.61095 5.9566 7.63266 5.84468C7.65678 5.73228 7.76532 5.65943 7.87627 5.68163C9.17398 5.93755 10.5633 5.80536 11.7887 5.30968C11.8948 5.26699 12.0154 5.31812 12.0564 5.42401C12.0998 5.5299 12.0492 5.65051 11.9431 5.69344C11.0771 6.04368 10.134 6.22266 9.19329 6.22266Z" fill="#2F2F2F"/>
<path d="M8.5083 8.11523C8.24297 8.11523 7.97765 8.10365 7.70991 8.08026C7.59654 8.07037 7.5121 7.96979 7.52175 7.85593C7.53381 7.74232 7.63513 7.65911 7.74609 7.66803C9.34531 7.80793 10.9469 7.50522 12.3797 6.79172C12.4834 6.74058 12.6065 6.78231 12.6571 6.88483C12.7102 6.9871 12.6668 7.11132 12.5654 7.16222C11.3015 7.79081 9.91214 8.11523 8.5083 8.11523Z" fill="#2F2F2F"/>
<path d="M11.8802 24.417C10.5753 24.417 9.27518 23.9211 8.32964 23.004C8.24763 22.9244 8.24523 22.7934 8.32483 22.7114C8.40443 22.6294 8.53708 22.6274 8.61909 22.707C9.85649 23.9105 11.8537 24.3263 13.4698 23.7189C14.3092 23.4034 14.8881 22.8414 15.0208 22.2158C15.1631 21.5393 14.7772 20.7569 14.0849 20.3133C13.5205 19.9522 12.7727 19.7807 11.7934 19.7862C11.6849 19.787 11.5787 19.7893 11.4726 19.7918C11.0119 19.8024 10.5367 19.813 10.0736 19.6881C9.54535 19.5458 8.89167 19.1297 8.78553 18.4246C8.64804 17.524 9.49469 16.8174 10.2617 16.4863C11.5426 15.9332 12.9946 15.8044 14.3502 16.1233C14.4636 16.1495 14.5311 16.2607 14.5046 16.3719C14.4805 16.4831 14.3695 16.5524 14.2562 16.5261C12.985 16.2277 11.6246 16.3483 10.4258 16.8662C9.79379 17.139 9.09188 17.6945 9.19319 18.3624C9.26555 18.8376 9.74073 19.17 10.1821 19.2886C10.5874 19.3979 11.0119 19.3885 11.463 19.3781C11.5715 19.3757 11.68 19.3731 11.7886 19.3723C12.8499 19.3658 13.6748 19.5593 14.3092 19.9648C15.1438 20.4993 15.6021 21.4597 15.426 22.3008C15.1945 23.4034 14.0825 23.9307 13.6145 24.1063C13.0574 24.3157 12.4688 24.417 11.8802 24.417Z" fill="#2F2F2F"/>
<path d="M12.0178 25.6104L12.0057 25.6099C11.89 25.6022 11.8055 25.5035 11.8128 25.3894C12.054 21.8571 11.6391 18.3528 10.5826 14.9735C10.5488 14.8645 10.6091 14.7485 10.7201 14.7144C10.8286 14.6797 10.9444 14.7412 10.9782 14.8502C12.0492 18.2786 12.4688 21.8339 12.2252 25.4174C12.218 25.5267 12.1263 25.6104 12.0178 25.6104Z" fill="#2F2F2F"/>
<path d="M3.68898 10.043C3.28857 10.043 2.88816 9.93057 2.55529 9.65318C2.46846 9.58009 2.45638 9.44959 2.52875 9.36179C2.60352 9.27399 2.73379 9.26242 2.82062 9.33526C3.35852 9.78343 4.20275 9.66475 4.75753 9.3162C5.37503 8.92931 5.79714 8.30409 6.21202 7.64294L6.32539 7.46034C6.63896 6.95646 6.96218 6.43858 7.35776 5.94941C6.79333 5.9195 6.2289 6.09678 5.78507 6.44919C5.67412 6.53651 5.57281 6.63396 5.46427 6.7372C5.3316 6.86456 5.19171 6.99626 5.03492 7.11083C4.42466 7.55827 3.57079 7.67212 2.86164 7.40148C2.7555 7.36048 2.70243 7.24108 2.74343 7.13423C2.78203 7.02737 2.90263 6.97431 3.00876 7.01483C3.59008 7.23722 4.28959 7.14363 4.79131 6.77676C4.92639 6.6781 5.04939 6.56111 5.17965 6.43761C5.28819 6.33269 5.40398 6.22439 5.527 6.12525C6.16138 5.62112 7.01283 5.42236 7.804 5.59217C7.87395 5.60785 7.93425 5.66044 7.95596 5.73063C7.98008 5.80058 7.96321 5.87753 7.91497 5.93252C7.42532 6.47814 7.04419 7.08888 6.67755 7.67936L6.56177 7.86244C6.13966 8.53806 5.66929 9.23395 4.97702 9.66668C4.62244 9.89004 4.15692 10.043 3.68898 10.043Z" fill="#2F2F2F"/>
<path d="M14.3263 29.4492C14.2852 29.4497 14.2515 29.4197 14.2515 29.38C14.2515 29.3421 14.2828 29.3112 14.3214 29.3112H14.3263C15.3321 29.3112 16.4006 28.8317 17.2594 27.9952C18.1181 27.156 18.6849 26.078 19.0829 25.2328C19.0998 25.1984 19.1408 25.1839 19.1746 25.1998C19.2083 25.216 19.2252 25.2572 19.2083 25.2918C18.8055 26.1475 18.2314 27.2394 17.3534 28.0941C16.4706 28.9554 15.3683 29.4492 14.3263 29.4492Z" fill="#2F2F2F"/>
<path d="M13.1686 29.54C13.1445 29.54 13.1204 29.5275 13.1083 29.5048C13.089 29.4717 13.1011 29.4295 13.1349 29.4109C13.9574 28.9505 14.6424 28.278 15.12 27.4666C15.1393 27.4338 15.1827 27.4229 15.2165 27.4422C15.2478 27.4613 15.2599 27.5037 15.2406 27.5365C14.751 28.3692 14.0442 29.0588 13.2024 29.5314L13.1686 29.54Z" fill="#2F2F2F"/>
<path d="M8.95702 29.6152L8.94496 29.6146C8.07902 29.4793 7.30475 28.9027 6.92846 28.1098C6.91158 28.0754 6.92605 28.0344 6.95981 28.018C6.996 28.0013 7.037 28.0161 7.05147 28.0506C7.41087 28.8029 8.14416 29.3497 8.96668 29.4781C9.00527 29.4841 9.02941 29.5193 9.02458 29.5569C9.01976 29.5909 8.99079 29.6152 8.95702 29.6152Z" fill="#2F2F2F"/>
<path d="M6.29155 29.2744L6.25056 29.2608C5.0614 28.3909 3.97352 27.5017 3.69854 26.1973C3.69131 26.1602 3.71545 26.1234 3.75404 26.1158C3.79022 26.1073 3.8264 26.1319 3.83364 26.169C4.09897 27.4255 5.1651 28.296 6.33256 29.1497C6.3615 29.1721 6.36875 29.2153 6.34704 29.2461L6.29155 29.2744Z" fill="#2F2F2F"/>
<path d="M9.01725 5.90137C8.98589 5.90137 8.95695 5.88014 8.94971 5.84854C8.73986 4.9785 8.43595 4.1292 8.0476 3.32429C8.03072 3.29004 8.04519 3.24879 8.07896 3.23214C8.11272 3.21574 8.15373 3.22997 8.17061 3.26422C8.56619 4.07782 8.87252 4.93653 9.08238 5.81646C9.09203 5.85337 9.07033 5.89051 9.03173 5.89944L9.01725 5.90137Z" fill="#2F2F2F"/>
<path d="M10.0232 5.9502L10.016 5.94995C9.97739 5.94634 9.95086 5.91281 9.95328 5.8747C10.0329 5.04301 10.303 4.22675 10.7396 3.51446C10.7613 3.48214 10.8023 3.47177 10.8361 3.49203C10.8675 3.51157 10.8771 3.55426 10.8578 3.58683C10.4333 4.28103 10.1679 5.07653 10.0907 5.88772C10.0883 5.92342 10.057 5.9502 10.0232 5.9502Z" fill="#2F2F2F"/>
<path d="M11.0168 5.60547L10.9951 5.60233C10.9589 5.591 10.9396 5.55288 10.9492 5.51694L11.2556 4.48529C11.2677 4.44381 11.2894 4.42041 11.3183 4.41341C11.3448 4.4081 11.3714 4.41655 11.3858 4.43512C11.4196 4.47034 11.4413 4.49591 11.0819 5.55868C11.0723 5.58738 11.0457 5.60547 11.0168 5.60547Z" fill="#2F2F2F"/>
<path d="M20.7739 14.3242C19.5775 12.4732 17.877 10.7548 15.6337 9.13195C15.6313 9.11796 15.6289 9.10373 15.6289 9.08925C15.9039 9.08105 16.1789 9.07357 16.449 9.0673C16.9652 9.5174 17.5899 9.87704 18.1375 10.4077C18.7236 10.9413 19.2929 11.4929 19.8284 12.0807C20.0889 12.3335 20.3373 12.5976 20.5592 12.8873C20.6171 12.9554 20.8607 13.273 20.8583 13.273C20.8583 13.273 20.8559 13.2725 20.8559 13.2718C21.073 13.5415 21.2081 13.8539 21.2563 13.987C21.3046 14.1018 21.2901 14.2186 21.2394 14.3146C21.0851 14.3177 20.9307 14.3208 20.7739 14.3242Z" fill="#868686"/>
<path d="M20.9086 14.5361C20.8627 14.4655 20.8193 14.3953 20.7735 14.3248C20.9303 14.3215 21.0847 14.3183 21.239 14.3152C21.1739 14.4372 21.0461 14.526 20.9086 14.5361ZM15.6285 9.08987C15.6285 9.07564 15.6261 9.06141 15.6285 9.04669C15.6213 8.83925 15.807 8.69573 15.9927 8.69573C16.0796 8.69573 16.164 8.72709 16.2291 8.79728C16.2677 8.83539 16.2966 8.88243 16.3135 8.93332C16.3352 8.9572 16.357 8.98205 16.3787 9.00545C16.4028 9.02643 16.4245 9.04717 16.4486 9.06792C16.1785 9.07419 15.9035 9.08167 15.6285 9.08987Z" fill="#2F2F2F"/>
<path d="M20.8825 14.5371C20.8053 14.5371 20.7281 14.5125 20.6557 14.4553C20.6196 14.4322 20.5882 14.4049 20.5617 14.3748L20.5472 14.3639C20.3398 14.148 20.4797 14.2966 20.2746 14.0207C20.2891 14.0405 20.3325 14.0947 20.3374 14.1041C19.9804 13.6019 19.7633 13.2652 19.5076 12.9883C18.7912 12.2239 18.0796 11.453 17.3054 10.7446C16.999 10.4735 16.6806 10.2158 16.3671 9.95413C16.1741 9.80338 15.9835 9.64852 15.8268 9.46206C15.7423 9.36486 15.6579 9.25872 15.6338 9.13257C17.877 10.7554 19.5776 12.4738 20.774 14.3248C20.8198 14.3953 20.8632 14.4655 20.909 14.5361C20.8994 14.5369 20.8897 14.5371 20.8825 14.5371Z" fill="#2F2F2F"/>
<path d="M9.27275 6.75195C8.964 6.75195 8.65524 6.7206 8.35373 6.64703C8.19453 6.60506 8.09563 6.49555 8.05221 6.36674C8.04498 6.30548 8.03534 6.24397 8.02569 6.18198C8.0281 6.16437 8.0281 6.147 8.03292 6.12939C8.41403 6.19162 8.80481 6.22226 9.19315 6.22226C10.076 6.22226 10.9636 6.06427 11.7862 5.75455C11.7982 5.87371 11.8199 5.99383 11.8513 6.11347C11.8151 6.14941 11.7693 6.17522 11.7234 6.20103L11.7355 6.19307C11.7041 6.21454 11.6752 6.23407 11.6414 6.24975L11.6438 6.24951L11.639 6.2512L11.598 6.26881L11.5884 6.27267L11.5739 6.2828L11.5835 6.27556L11.5787 6.27749C11.446 6.36143 11.2796 6.39569 11.1349 6.45358C10.5367 6.62194 9.9023 6.75195 9.27275 6.75195ZM9.19556 5.80858C9.15696 5.80858 9.11837 5.80834 9.07978 5.80786C9.02189 5.55941 8.95436 5.31266 8.87958 5.06831C8.89888 5.07362 8.92057 5.07917 8.94469 5.08544C9.13524 5.11462 9.36924 5.13151 9.62733 5.13151C9.77206 5.13151 9.92401 5.1262 10.0808 5.11438C10.0277 5.3293 9.98914 5.54711 9.96502 5.76637C9.70934 5.79459 9.45124 5.80858 9.19556 5.80858ZM8.93746 5.804C8.60218 5.79146 8.26932 5.75479 7.93887 5.69328C7.92922 5.67495 7.91716 5.65855 7.90268 5.64432C7.82067 5.37706 7.73866 5.12668 7.64941 4.88885C7.73143 4.80901 7.83754 4.75715 7.96779 4.75715C7.99432 4.75715 8.02327 4.75956 8.05221 4.76463C8.19453 4.77259 8.31274 4.87173 8.44058 4.92503C8.59977 4.99643 8.58289 4.99402 8.7228 5.02875C8.80239 5.28492 8.87474 5.54349 8.93746 5.804ZM10.1049 5.74924C10.1315 5.53143 10.1725 5.31507 10.2255 5.10184C10.5246 5.07217 10.831 5.01886 11.1228 4.93637L10.9492 5.51672C10.9443 5.54012 10.9491 5.56448 10.9636 5.58185C10.6814 5.65542 10.3944 5.71137 10.1049 5.74924ZM11.0842 5.54928C11.1855 5.25211 11.2555 5.03671 11.3037 4.87993C11.3158 4.87607 11.3279 4.87197 11.3399 4.86787C11.4243 4.82783 11.5088 4.80998 11.5884 4.80998C11.6921 4.80998 11.7861 4.84085 11.8633 4.89295C11.8199 5.02706 11.791 5.16793 11.7789 5.3129C11.5522 5.40407 11.3206 5.48295 11.0842 5.54928Z" fill="#DEDEDE"/>
<path d="M8.05254 6.36719C8.03083 6.30809 8.02361 6.24489 8.02602 6.18242C8.03567 6.24441 8.04531 6.30592 8.05254 6.36719ZM11.8516 6.11392C11.8202 5.99428 11.7985 5.87416 11.7865 5.755C11.8371 5.73522 11.8902 5.71496 11.9433 5.69397C11.9915 5.81626 11.9746 5.97016 11.8878 6.06881C11.8781 6.0857 11.8661 6.10041 11.8516 6.11392ZM7.90301 5.64476C7.87407 5.6192 7.84028 5.60086 7.8041 5.59266C7.73415 5.57819 7.66662 5.56637 7.59667 5.55696C7.43747 5.35652 7.4809 5.05911 7.64974 4.8893C7.73899 5.12713 7.821 5.3775 7.90301 5.64476ZM12.018 5.3611C11.9794 5.31889 11.924 5.29477 11.8661 5.29477C11.8395 5.29477 11.813 5.29959 11.7889 5.30972C11.7865 5.31093 11.7816 5.31214 11.7792 5.31334C11.7913 5.16838 11.8202 5.02751 11.8637 4.8934C12.0084 4.99374 12.0832 5.17272 12.018 5.3611Z" fill="#2F2F2F"/>
<path d="M9.19325 6.22266C8.80491 6.22266 8.41413 6.19202 8.03302 6.12979C8.04749 6.0362 8.08851 5.94744 8.15605 5.8799C8.09093 5.85505 8.0282 5.8278 7.96549 5.79789C7.9679 5.7757 7.96307 5.75302 7.95583 5.73107C7.95101 5.71805 7.9462 5.70551 7.93896 5.69369C8.26942 5.75519 8.60228 5.79186 8.93756 5.8044C8.94238 5.81936 8.94479 5.83431 8.94962 5.84926C8.95685 5.88086 8.98579 5.90209 9.01715 5.90209L9.03164 5.90016C9.07023 5.89123 9.09193 5.85409 9.08228 5.81718C9.08228 5.81405 9.08229 5.81115 9.07988 5.80826C9.11847 5.80874 9.15706 5.80898 9.19566 5.80898C9.45134 5.80898 9.70944 5.79499 9.96512 5.76677C9.9603 5.80271 9.95789 5.83889 9.95306 5.87508C9.95065 5.91319 9.97717 5.94671 10.0158 5.95033L10.023 5.95057C10.0568 5.95057 10.0881 5.9238 10.0905 5.8881C10.0954 5.84179 10.1002 5.79572 10.105 5.74965C10.3945 5.71178 10.6815 5.65582 10.9637 5.58225C10.9734 5.59141 10.983 5.59865 10.9951 5.60251L11.0168 5.60564C11.0457 5.60564 11.0723 5.58755 11.0819 5.55885C11.0819 5.55571 11.0843 5.55258 11.0843 5.54968C11.3207 5.48335 11.5523 5.40448 11.779 5.3133C11.7814 5.31209 11.7862 5.31089 11.7887 5.30968C11.8128 5.29955 11.8393 5.29472 11.8658 5.29472C11.9237 5.29472 11.9792 5.31885 12.0178 5.36106C11.9961 5.42329 11.9599 5.48649 11.9044 5.54824L11.8683 5.57959L11.8875 5.60323C11.9117 5.63001 11.9286 5.66064 11.943 5.69393C11.89 5.71491 11.8369 5.73517 11.7863 5.75495C10.9637 6.06467 10.0761 6.22266 9.19325 6.22266Z" fill="#2F2F2F"/>
<path d="M7.96573 5.79785C7.88854 5.76119 7.81375 5.72091 7.73898 5.67628C7.68109 5.64324 7.63286 5.60247 7.59668 5.55688C7.66663 5.56629 7.73416 5.57811 7.80411 5.59258C7.84029 5.60078 7.87408 5.61912 7.90302 5.64468C7.91749 5.65892 7.92955 5.67532 7.9392 5.69365C7.94644 5.70547 7.95124 5.71801 7.95607 5.73104C7.9633 5.75299 7.96814 5.77566 7.96573 5.79785Z" fill="#2F2F2F"/>
<path d="M9.0174 5.90137C8.98604 5.90137 8.9571 5.88014 8.94987 5.84854C8.94504 5.83359 8.94263 5.81863 8.93781 5.80368C8.87509 5.54317 8.80274 5.28459 8.72314 5.02843C8.76174 5.03808 8.80998 5.05038 8.87993 5.06799C8.95471 5.31233 9.02224 5.55909 9.08013 5.80754C9.08254 5.81043 9.08253 5.81333 9.08253 5.81646C9.09218 5.85337 9.07048 5.89051 9.03189 5.89944L9.0174 5.90137Z" fill="#2F2F2F"/>
<path d="M10.0232 5.9502L10.016 5.94995C9.97739 5.94634 9.95086 5.91281 9.95328 5.8747C9.9581 5.83852 9.96051 5.80233 9.96534 5.76639C9.98946 5.54713 10.028 5.32932 10.0811 5.1144C10.1294 5.11079 10.1776 5.10669 10.2258 5.10186C10.1728 5.31509 10.1318 5.53145 10.1052 5.74927C10.1004 5.79534 10.0956 5.84141 10.0907 5.88772C10.0883 5.92342 10.057 5.9502 10.0232 5.9502Z" fill="#2F2F2F"/>
<path d="M11.0171 5.60547L10.9954 5.60233C10.9833 5.59847 10.9737 5.59124 10.964 5.58207C10.9496 5.56471 10.9447 5.54034 10.9496 5.51694L11.1232 4.9366C11.1835 4.91899 11.2438 4.90017 11.3041 4.88015C11.2559 5.03694 11.1859 5.25234 11.0846 5.54951C11.0846 5.5524 11.0822 5.55554 11.0822 5.55868C11.0726 5.58738 11.046 5.60547 11.0171 5.60547Z" fill="#2F2F2F"/>
<path d="M9.03189 8.72949C8.81963 8.72949 8.60737 8.70875 8.39752 8.66099C8.12254 8.58887 8.00433 8.33656 8.02845 8.10307C8.19006 8.11127 8.34927 8.11562 8.50846 8.11562C9.86165 8.11562 11.198 7.81458 12.4257 7.23086C12.4619 7.27717 12.5029 7.32228 12.5415 7.36618C12.527 7.42576 12.5029 7.48244 12.4643 7.53068L12.4378 7.56156L12.4088 7.58954L12.3847 7.61945C12.0374 7.90528 11.6128 8.07268 11.1979 8.23429C10.5057 8.47646 9.76999 8.72949 9.03189 8.72949ZM8.50846 7.7017C8.44334 7.7017 8.37822 7.70098 8.31309 7.69953C8.35651 7.67951 8.40957 7.66576 8.46505 7.66021C8.49158 7.65394 8.51811 7.65129 8.54465 7.65129C8.62907 7.65129 8.71109 7.6783 8.79551 7.69688C8.69903 7.70001 8.60495 7.7017 8.50846 7.7017ZM11.4512 7.18913C11.4681 7.18069 11.4826 7.17297 11.4946 7.16573C11.8396 7.0005 11.854 6.91367 12.047 6.87966C12.0735 6.87387 12.1001 6.87049 12.1266 6.86977L12.1387 6.86832L12.1363 6.86953C12.1483 6.86953 12.1604 6.87001 12.17 6.87097C12.1748 6.87676 12.1773 6.88255 12.1821 6.8881C11.9409 6.99978 11.6973 7.10012 11.4512 7.18913Z" fill="#DEDEDE"/>
<path d="M12.5414 7.36621C12.5028 7.32231 12.4618 7.27721 12.4256 7.23089C12.4642 7.21256 12.5028 7.19399 12.539 7.17493C12.5559 7.23765 12.5559 7.3035 12.5414 7.36621ZM12.182 6.88814C12.1772 6.88259 12.1747 6.8768 12.1699 6.87101C12.1844 6.87197 12.1965 6.87366 12.2085 6.87559C12.1989 6.87993 12.1892 6.88403 12.182 6.88814Z" fill="#2F2F2F"/>
<path d="M8.50834 8.11523C8.34914 8.11523 8.18993 8.11089 8.02832 8.10269C8.04762 7.93264 8.14412 7.77248 8.31297 7.69915C8.37809 7.7006 8.44321 7.70132 8.50834 7.70132C8.60482 7.70132 8.6989 7.69963 8.79539 7.6965C8.79539 7.69698 8.79778 7.69722 8.80019 7.6977C8.95456 7.70566 9.07278 7.70976 9.16926 7.70976C9.45871 7.70976 9.55518 7.67285 9.97006 7.60025C10.4838 7.51269 11.2075 7.30356 11.4511 7.18875C11.6971 7.09974 11.9407 6.9994 12.182 6.88772C12.1892 6.88362 12.1988 6.87952 12.2085 6.87518C12.3243 6.8952 12.4352 6.96346 12.4955 7.06983C12.5172 7.10288 12.5317 7.1381 12.5389 7.17452C12.5028 7.19357 12.4642 7.21215 12.4256 7.23048C11.1978 7.8142 9.86152 8.11523 8.50834 8.11523Z" fill="#2F2F2F"/>
<path d="M8.90859 29.7627C8.49129 29.7627 8.07401 29.748 7.65913 29.6915C7.22736 29.6339 6.79079 29.5789 6.37108 29.4617C6.34455 29.4549 6.31801 29.4474 6.28906 29.4392C6.49409 29.4722 6.69187 29.5007 6.88243 29.5258C7.68807 29.6319 8.49613 29.7096 9.30901 29.759C9.17634 29.7612 9.04125 29.7627 8.90859 29.7627Z" fill="#DEDEDE"/>
<path d="M11.4365 29.4102C10.3825 29.4102 9.32836 29.362 8.28151 29.2657C7.75085 29.0149 7.30702 28.5843 7.05134 28.05C7.04169 28.0252 7.01516 28.0107 6.99104 28.0107C6.97898 28.0107 6.96934 28.0128 6.95969 28.0175C6.92592 28.0338 6.91145 28.0748 6.92833 28.1093C7.06582 28.3974 7.25398 28.6569 7.48071 28.8771C7.38905 28.8663 7.16714 28.838 7.01036 28.8181L7.02482 28.8204C7.16713 28.8465 7.32393 28.8685 7.49277 28.8872C7.62785 29.0166 7.77498 29.1323 7.93418 29.232C7.60131 29.198 7.26844 29.1592 6.93557 29.1154C6.67506 29.0809 6.40008 29.0404 6.11545 28.9897C5.40389 28.4596 4.7454 27.914 4.30881 27.2658C5.57034 27.5625 6.70401 27.7176 7.5796 27.8177C8.59027 27.9506 9.1354 28.091 9.90004 28.1248C10.7636 28.1721 11.6319 28.2295 12.4979 28.2295C13.0647 28.2295 13.6315 28.2049 14.196 28.1368C14.3817 28.1149 14.5481 28.0978 14.6977 28.0828C14.2876 28.5961 13.7859 29.0315 13.2167 29.3642C12.6233 29.3948 12.0299 29.4102 11.4365 29.4102ZM13.5061 29.3477C14.0368 29.0028 14.5047 28.5679 14.8858 28.064C15.4647 28.0066 15.8386 27.9644 16.5646 27.7319C17.0447 27.6023 17.5367 27.3863 18.0143 27.1105C17.79 27.42 17.5391 27.7203 17.2593 27.995C16.6539 28.5851 15.9423 28.9973 15.2259 29.1893C14.7532 29.2527 14.29 29.2944 13.8414 29.326C13.7304 29.3337 13.6171 29.341 13.5061 29.3477ZM15.9447 29.074C16.444 28.8436 16.9265 28.5122 17.3534 28.0939C17.72 27.7371 18.0336 27.3391 18.3038 26.9342C18.6535 26.7115 18.9912 26.459 19.3072 26.1876C19.6521 25.7732 19.9175 25.3043 20.231 24.6905C20.904 23.4326 21.3092 22.412 21.6759 20.9389C21.8616 20.223 21.9509 19.763 22.0087 19.1366C22.0329 19.0324 22.1149 18.967 22.2089 18.9456C22.5708 21.0716 22.3223 23.4395 21.3358 25.3388C21.3261 25.3562 21.3141 25.3739 21.3044 25.3912C21.3044 25.3935 21.3044 25.3963 21.3044 25.3986C20.8003 26.348 20.1128 27.1768 19.2204 27.7953C18.2217 28.4888 17.0808 28.8615 15.9447 29.074ZM5.80911 28.9328C4.1906 28.6118 2.34776 27.9533 1.32745 26.3786C1.18514 26.1592 1.05972 25.922 0.951172 25.6681C0.977705 25.657 1.00907 25.6507 1.04042 25.6507C1.07419 25.6507 1.10794 25.6584 1.14171 25.6751C1.47217 25.9189 1.85571 26.3051 2.04144 26.4225C2.13793 26.4913 2.23199 26.5546 2.32607 26.6146C2.37189 26.6204 2.4153 26.6341 2.4563 26.6602C2.96526 26.9204 2.60345 26.7588 3.08828 26.9417C3.43562 27.0452 3.78055 27.1373 4.11342 27.219C4.51624 27.8684 5.1289 28.4125 5.80911 28.9328Z" fill="#DEDEDE"/>
<path d="M9.309 29.7588C8.49613 29.7093 7.68806 29.6317 6.88242 29.5256C6.69187 29.5004 6.49409 29.472 6.28906 29.439C5.70774 29.272 4.65607 28.8391 4.46069 28.7483C4.09164 28.6034 3.62852 28.404 3.12198 28.0448C3.0858 28.0197 3.04479 27.9936 3.00378 27.9673C2.97001 27.9869 2.92901 27.9984 2.88801 27.9984C2.85182 27.9984 2.81564 27.9905 2.77946 27.9732C2.58167 27.8388 2.4056 27.6714 2.23434 27.5018C2.16439 27.4649 2.09684 27.428 2.03171 27.3877C1.91834 27.3238 1.85805 27.2261 1.83634 27.1217C1.65061 26.941 1.41421 26.7832 1.29843 26.5493L1.29119 26.4962L1.22606 26.4403C1.08134 26.2926 0.864263 26.1853 0.782252 25.989C0.741247 25.8529 0.828082 25.7151 0.951099 25.6679C1.05964 25.9218 1.18506 26.159 1.32738 26.3785C2.34769 27.9531 4.19053 28.6116 5.80904 28.9326C5.95377 29.0429 6.10092 29.1522 6.25047 29.2609L6.29146 29.2745L6.34696 29.2462C6.36867 29.2154 6.36142 29.1721 6.33247 29.1497C6.2577 29.0965 6.18533 29.0432 6.11538 28.9895C6.40001 29.0403 6.67499 29.0807 6.93549 29.1152C7.26836 29.159 7.60124 29.1978 7.93411 29.2318C8.24045 29.4248 8.58536 29.5574 8.94476 29.6139L8.95682 29.6145C8.99059 29.6145 9.01956 29.5902 9.02438 29.5562C9.02921 29.5186 9.00507 29.4834 8.96648 29.4773C8.72768 29.4401 8.49611 29.3679 8.28144 29.2655C9.32829 29.3618 10.3824 29.41 11.4365 29.41C12.0299 29.41 12.6232 29.3946 13.2166 29.364C13.1901 29.3796 13.1635 29.3953 13.1346 29.4107C13.1008 29.4293 13.0888 29.4715 13.1081 29.5046C13.1201 29.5273 13.1442 29.5398 13.1684 29.5398L13.2021 29.5311C13.3058 29.4732 13.4071 29.412 13.506 29.3475C13.617 29.3408 13.7304 29.3336 13.8413 29.3258C14.29 29.2943 14.7531 29.2525 15.2259 29.1891C14.9244 29.2691 14.6228 29.3108 14.3262 29.3108H14.3213C14.2827 29.3108 14.2514 29.3418 14.2514 29.3796C14.2514 29.4192 14.2852 29.4489 14.3262 29.4489C14.8616 29.4489 15.414 29.3181 15.9447 29.0738C17.0808 28.8613 18.2217 28.4886 19.2203 27.7951C20.1128 27.1766 20.8002 26.3478 21.3043 25.3984C21.3188 25.6192 21.1451 25.8143 21.068 26.0157C20.8075 26.5423 20.4818 27.0456 20.038 27.4367C19.0128 28.3634 17.7489 29.0079 16.3981 29.3003C15.0811 29.527 13.7424 29.6054 12.4109 29.6816C11.5957 29.7557 10.7804 29.7441 9.96267 29.7475C9.74558 29.7504 9.52609 29.7554 9.309 29.7588ZM21.3357 25.3386C22.3222 23.4394 22.5707 21.0714 22.2089 18.9454C22.2306 18.9401 22.2547 18.9374 22.2764 18.9374C22.3705 18.9374 22.4646 18.9809 22.5152 19.072C22.6069 19.3574 22.5635 19.676 22.5827 19.9742C22.5755 20.5159 22.5562 21.0581 22.4983 21.5971C22.4814 21.7729 22.4573 21.9475 22.4308 22.1221C22.4959 22.295 22.4091 22.5152 22.3657 22.7536C22.3343 22.8976 22.2981 23.0406 22.2619 23.183C22.2306 23.3701 22.2089 23.5969 22.0955 23.7301C22.0014 24.0074 21.8881 24.279 21.753 24.5414C21.6324 24.8169 21.4901 25.0822 21.3357 25.3386Z" fill="#2F2F2F"/>
<path d="M14.3263 29.4492C14.2852 29.4492 14.2515 29.4196 14.2515 29.38C14.2515 29.3421 14.2828 29.3112 14.3214 29.3112H14.3263C14.6229 29.3112 14.9244 29.2694 15.226 29.1895C15.9424 28.9974 16.6539 28.5852 17.2594 27.9952C17.5392 27.7204 17.79 27.4201 18.0143 27.1106C18.1108 27.0542 18.2073 26.9954 18.3038 26.9343C18.0336 27.3393 17.7201 27.7373 17.3534 28.0941C16.9265 28.5124 16.4441 28.8438 15.9448 29.0741C15.4141 29.3184 14.8617 29.4492 14.3263 29.4492Z" fill="#2F2F2F"/>
<path d="M13.1686 29.54C13.1445 29.54 13.1204 29.5275 13.1083 29.5048C13.089 29.4717 13.1011 29.4295 13.1349 29.4109C13.1638 29.3955 13.1903 29.3799 13.2169 29.3642C13.7861 29.0315 14.2878 28.5961 14.6979 28.0829C14.763 28.0764 14.8257 28.0701 14.8861 28.064C14.5049 28.5679 14.037 29.0029 13.5063 29.3477C13.4074 29.4122 13.3061 29.4734 13.2024 29.5314L13.1686 29.54Z" fill="#2F2F2F"/>
<path d="M8.95702 29.6152L8.94496 29.6146C8.58556 29.5581 8.24065 29.4255 7.93431 29.2325C7.77511 29.1328 7.62798 29.0171 7.4929 28.8877C7.5532 28.8945 7.61591 28.9008 7.68104 28.9069C7.62074 28.8979 7.56044 28.888 7.50013 28.8798C7.49531 28.8791 7.48808 28.8784 7.48084 28.8777C7.2541 28.6575 7.06595 28.3979 6.92846 28.1098C6.91158 28.0754 6.92605 28.0344 6.95981 28.018C6.96946 28.0134 6.97911 28.0112 6.99117 28.0112C7.01529 28.0112 7.04182 28.0257 7.05147 28.0506C7.30715 28.5848 7.75098 29.0154 8.28164 29.2663C8.49631 29.3686 8.72788 29.4408 8.96668 29.4781C9.00527 29.4841 9.02941 29.5193 9.02458 29.5569C9.01976 29.5909 8.99079 29.6152 8.95702 29.6152Z" fill="#2F2F2F"/>
<path d="M6.2914 29.2744L6.25041 29.2608C6.10086 29.1521 5.9537 29.0428 5.80898 28.9326C5.12877 28.4123 4.5161 27.8681 4.11328 27.2188C4.17841 27.2347 4.24355 27.2504 4.30867 27.2656C4.74526 27.9137 5.40375 28.4594 6.11532 28.9895C6.18527 29.0431 6.25763 29.0964 6.33241 29.1497C6.36135 29.1721 6.3686 29.2153 6.34689 29.2461L6.2914 29.2744Z" fill="#2F2F2F"/>
</svg>
