<svg width="30" height="27" viewBox="0 0 30 27" fill="none" xmlns="http://www.w3.org/2000/svg">
<path d="M11.1248 5.29209C10.9532 4.50151 10.8586 3.67925 11.0078 2.8839C11.1571 2.08856 11.5758 1.31823 12.2556 0.879229C12.9485 0.431893 13.8141 0.374009 14.6378 0.329465C15.2752 0.294927 15.9124 0.260148 16.5498 0.225609C17.4874 0.174634 18.5207 0.152958 19.2503 0.743928C20.0468 1.38897 20.1957 2.52565 20.2855 3.54681C20.3331 4.08514 20.3753 4.65443 20.1397 5.14083C19.9041 5.62747 19.2832 5.97071 18.8077 5.71346C18.3625 5.47217 18.2758 4.87119 18.3199 4.36669C18.3637 3.86218 18.4788 3.32385 18.2515 2.87128C17.8714 2.11405 16.8252 2.06998 15.9801 2.13239C15.533 2.1655 15.0859 2.19837 14.6388 2.23148C14.109 2.27055 13.5021 2.3532 13.2132 2.79934C12.8361 3.38197 13.2532 4.18423 13.0286 4.84118C12.8897 5.24754 12.4893 5.55053 12.0605 5.5734C11.6318 5.5965 11.2012 5.3383 11.1248 5.29209Z" fill="white"/>
<path d="M16.4897 1.9088C17.2407 1.9088 18.072 2.06197 18.4327 2.78014C18.6485 3.21032 18.5973 3.67862 18.5475 4.13191C18.5382 4.21671 18.5289 4.30079 18.5217 4.38416C18.4982 4.65523 18.4882 5.3098 18.9041 5.5349C19.076 5.62803 19.2552 5.60111 19.375 5.56252C19.6158 5.48487 19.844 5.28479 19.9567 5.05254C20.1744 4.60259 20.1258 4.05116 20.0829 3.56476C19.9924 2.53765 19.8438 1.48624 19.1222 0.901702C18.4679 0.371949 17.537 0.375281 16.5604 0.4284L14.6484 0.532257C13.8905 0.573465 13.031 0.620152 12.3653 1.0501C11.7817 1.42669 11.3596 2.10889 11.207 2.92139C11.0878 3.55666 11.1185 4.27054 11.3041 5.16116C11.4704 5.25192 11.7681 5.38626 12.0492 5.37054C12.3936 5.3522 12.7245 5.10209 12.8362 4.77552C12.9227 4.52184 12.8974 4.23028 12.8705 3.92158C12.8341 3.50259 12.7964 3.06907 13.0425 2.6889C13.3669 2.18773 13.9941 2.07554 14.6236 2.0291L15.9647 1.93C16.1298 1.91762 16.3072 1.9088 16.4897 1.9088ZM19.1616 6.00391C19.0017 6.00391 18.8481 5.96627 18.7106 5.89219C18.2688 5.6528 18.0525 5.09042 18.1171 4.34914C18.1244 4.26268 18.1342 4.1755 18.1437 4.0876C18.189 3.67504 18.2319 3.28535 18.0696 2.96259C17.8117 2.4488 17.1523 2.24943 15.9947 2.33494L14.6534 2.43403C14.1644 2.47024 13.623 2.53979 13.3833 2.90971C13.213 3.17292 13.2433 3.5195 13.2752 3.88609C13.3045 4.22338 13.3347 4.5721 13.2204 4.907C13.0549 5.3915 12.5823 5.74879 12.0711 5.77619C11.6428 5.79929 11.2285 5.59206 11.0196 5.46629C10.9716 5.43747 10.9377 5.38983 10.9259 5.33528C10.7119 4.34843 10.6743 3.55761 10.8079 2.84659C10.9808 1.925 11.4682 1.14585 12.1449 0.708759C12.9015 0.220453 13.8578 0.168527 14.6265 0.126605L16.5385 0.0227532C17.5549 -0.0320325 18.6118 -0.0339403 19.3778 0.58609C20.223 1.27043 20.3895 2.41521 20.4876 3.52903C20.5326 4.04139 20.5888 4.67881 20.3223 5.22952C20.1613 5.56181 19.8461 5.83764 19.4996 5.94936C19.3864 5.9858 19.2726 6.00391 19.1616 6.00391Z" fill="#2F2F2F"/>
<path d="M0.423802 25.7259C0.263471 22.6184 0.237698 19.5049 0.21183 16.3931C0.189511 13.7079 0.169597 10.9972 0.702185 8.37105C0.869852 7.5445 1.23134 6.49595 1.76338 5.67941C2.12673 5.12203 2.73385 4.79378 3.37586 4.77544C10.923 4.55844 18.2841 4.66778 25.8457 4.42553C27.0772 4.38599 27.8778 4.56821 28.3873 4.87835C29.916 5.80827 28.827 7.88893 28.9054 8.58709C29.5626 14.4244 30.0287 20.5034 29.68 25.8915C28.9561 25.9903 27.3345 25.9853 26.2447 25.9963C18.9346 26.0697 11.6243 26.1428 4.31425 26.2161C3.12063 26.2281 1.925 26.24 0.423802 25.7259Z" fill="white"/>
<path d="M0.619655 25.5775C2.02634 26.0363 3.13843 26.0251 4.3123 26.0132L26.2427 25.7933C26.4092 25.7916 26.5878 25.7904 26.7738 25.789C27.7038 25.7823 28.8419 25.774 29.4879 25.7097C29.8483 19.8324 29.2144 13.1454 28.7037 8.61016C28.679 8.38982 28.7423 8.10065 28.8226 7.73454C29.0253 6.80938 29.2773 5.65768 28.2819 5.05195C27.7628 4.7361 26.9456 4.59413 25.8523 4.62891C21.9275 4.75467 17.9931 4.78612 14.1884 4.81661C10.6603 4.84496 7.01213 4.87425 3.38173 4.97858C2.79545 4.99525 2.25412 5.29896 1.93365 5.7906C1.47838 6.489 1.09253 7.46894 0.901325 8.4115C0.370477 11.0288 0.393105 13.755 0.415067 16.3916C0.439983 19.4041 0.465851 22.5174 0.619655 25.5775ZM3.77597 26.4229C2.748 26.4229 1.66244 26.365 0.358114 25.9181C0.279676 25.8914 0.225343 25.8195 0.22115 25.7366C0.0605571 22.6234 0.0342123 19.457 0.00882038 16.3949C-0.0132368 13.7374 -0.0360324 10.9897 0.503272 8.33074C0.704049 7.34055 1.11161 6.30796 1.59329 5.5686C1.98651 4.96572 2.65068 4.59318 3.37011 4.57269C7.00458 4.46812 10.655 4.43883 14.1851 4.41048C17.9874 4.37999 21.9194 4.34855 25.8394 4.22278C27.0287 4.18467 27.8969 4.34259 28.4929 4.70513C29.7363 5.46141 29.4252 6.88155 29.2192 7.82124C29.1527 8.1247 29.0901 8.41125 29.1075 8.56466C29.6246 13.159 30.2677 19.9548 29.8828 25.9048C29.8764 26.001 29.8032 26.0798 29.7075 26.093C29.081 26.1785 27.8033 26.1878 26.7767 26.1951C26.5911 26.1966 26.4127 26.1978 26.2467 26.1994L4.3164 26.4193C4.13756 26.4212 3.9576 26.4229 3.77597 26.4229Z" fill="#2F2F2F"/>
<path d="M13.9725 17.209C13.9275 17.209 13.882 17.194 13.8444 17.1632L4.91175 9.89034C4.28843 9.38274 3.64399 8.85799 3.13753 8.18556C2.50307 7.34329 2.11766 6.28926 2.05216 5.21737C2.04518 5.10541 2.13041 5.00918 2.24243 5.00227C2.35391 4.99727 2.45076 5.0804 2.45748 5.19259C2.51822 6.18588 2.87506 7.16202 3.462 7.94141C3.93876 8.57406 4.56374 9.08309 5.16827 9.5752L14.1009 16.8483C14.1879 16.9191 14.201 17.047 14.13 17.1339C14.09 17.1833 14.0314 17.209 13.9725 17.209Z" fill="#2F2F2F"/>
<path d="M4.54598 26.1543C4.43376 26.1543 4.34287 26.0633 4.34287 25.9511C4.34287 19.59 3.98592 14.116 3.18546 8.20249C3.17038 8.09125 3.24834 7.98906 3.35944 7.97406C3.47037 7.95738 3.57289 8.03671 3.58797 8.14794C4.39096 14.0803 4.74899 19.5712 4.74899 25.9511C4.74899 26.0633 4.65819 26.1543 4.54598 26.1543Z" fill="#2F2F2F"/>
<path d="M18.969 17.0464C18.9094 17.0464 18.8508 17.0207 18.8106 16.9706C18.7403 16.8835 18.7539 16.7555 18.8413 16.685L25.9806 10.9283C26.7478 10.3097 28.3442 9.0222 28.7591 8.118C28.8058 8.01605 28.9264 7.97127 29.0285 8.0182C29.1305 8.06488 29.1753 8.18541 29.1284 8.28736C28.7287 9.15845 27.5017 10.2234 26.2354 11.2446L19.0962 17.0014C19.0585 17.0316 19.0135 17.0464 18.969 17.0464Z" fill="#2F2F2F"/>
<path d="M18.8211 15.2458C19.021 16.1872 19.0438 17.1695 18.8881 18.1199C18.8499 18.3524 18.7902 18.6023 18.6134 18.7469C18.4888 18.8486 18.3264 18.8802 18.1704 18.905C17.0608 19.081 15.9242 19.0656 14.8194 18.8586C14.66 18.8288 14.4943 18.7916 14.3697 18.683C14.1613 18.5015 14.13 18.183 14.1186 17.8986C14.086 17.0814 14.0884 16.2624 14.1091 15.4021C14.2584 15.0624 14.6748 14.9833 15.0288 14.9485C16.0559 14.8473 17.0873 14.7458 18.1172 14.8032C18.3928 14.8185 18.7489 14.9064 18.8211 15.2458Z" fill="white"/>
<path d="M14.311 15.4514C14.2891 16.3864 14.2925 17.1627 14.3215 17.8904C14.3318 18.1493 14.3611 18.4061 14.503 18.5297C14.5878 18.6035 14.7186 18.6328 14.8568 18.6588C15.9432 18.862 17.0472 18.8774 18.1384 18.7043C18.273 18.6828 18.4009 18.6578 18.4847 18.5895C18.6069 18.4894 18.6546 18.2889 18.6877 18.0869C18.8385 17.1669 18.8158 16.1991 18.6224 15.2878C18.5865 15.1177 18.4126 15.0229 18.106 15.006C17.0903 14.9488 16.0525 15.0515 15.0487 15.1504C14.7493 15.1799 14.4306 15.2392 14.311 15.4514ZM16.6285 19.23C16.0108 19.23 15.3937 19.1726 14.782 19.058C14.5945 19.023 14.3977 18.9768 14.2362 18.836C13.978 18.6114 13.9297 18.2565 13.9156 17.9065C13.8859 17.1584 13.8828 16.3609 13.9059 15.3969C13.9066 15.3705 13.9123 15.3443 13.923 15.32C14.1376 14.8321 14.7481 14.7719 15.0087 14.7461C16.028 14.6459 17.0818 14.5422 18.1286 14.6004C18.6265 14.628 18.943 14.8421 19.0197 15.2035C19.2234 16.1637 19.2475 17.1834 19.0886 18.1526C19.0448 18.4199 18.9692 18.7181 18.7418 18.9039C18.5796 19.0366 18.3864 19.0761 18.2022 19.1054C17.6794 19.1883 17.1537 19.23 16.6285 19.23Z" fill="#2F2F2F"/>
<path d="M16.2292 16.4864C16.096 16.3971 16.0172 16.2253 16.0336 16.0603C16.05 15.895 16.1608 15.7439 16.3087 15.6856C16.3938 15.6522 16.4864 15.648 16.5772 15.6508C16.7179 15.6553 16.8651 15.6792 16.9776 15.7682C17.17 15.9207 17.1903 16.2599 17.0174 16.4366C16.9647 16.4905 16.8952 16.5348 16.874 16.6091C16.8618 16.6515 16.8682 16.697 16.8744 16.7408C16.9216 17.0667 16.9688 17.3925 17.0159 17.7184C16.6953 17.8094 16.3616 17.8494 16.0298 17.8365C16.1065 17.4049 16.1832 16.9731 16.2292 16.4864Z" fill="white"/>
<path d="M16.5329 15.8534C16.4829 15.8534 16.4274 15.8575 16.3833 15.8749C16.3066 15.9051 16.2447 15.9918 16.2359 16.0807C16.2268 16.1707 16.2716 16.2708 16.3421 16.3182C16.4041 16.3596 16.4384 16.4315 16.4312 16.5059C16.3933 16.9101 16.3338 17.2793 16.2718 17.6337C16.4457 17.6268 16.6184 17.6044 16.7887 17.5666L16.6735 16.7703C16.6658 16.7176 16.6546 16.6383 16.6787 16.5537C16.7104 16.4423 16.7849 16.3749 16.8395 16.3258L16.8723 16.2948C16.9143 16.2519 16.9367 16.1807 16.9317 16.1047C16.9271 16.0299 16.8971 15.964 16.8516 15.928C16.7937 15.882 16.7044 15.8584 16.5706 15.8542L16.5329 15.8534ZM16.1518 18.0425C16.1087 18.0425 16.0653 18.0418 16.022 18.0401C15.9634 18.0377 15.9086 18.0101 15.8717 17.9646C15.835 17.9189 15.8195 17.8593 15.8298 17.8014C15.8991 17.4122 15.9705 17.0104 16.0165 16.5723C15.8829 16.4349 15.8121 16.2377 15.8317 16.0404C15.8555 15.801 16.0172 15.5826 16.2342 15.4971C16.359 15.448 16.4869 15.4452 16.5837 15.4483C16.7256 15.4528 16.9338 15.4747 17.1039 15.6095C17.2401 15.7174 17.3252 15.8887 17.3371 16.079C17.3492 16.271 17.2856 16.4532 17.1627 16.579L17.1117 16.6271L17.0667 16.6719L17.0755 16.7124L17.217 17.6897C17.2316 17.7902 17.1694 17.8862 17.0715 17.9141C16.7711 17.9994 16.4624 18.0425 16.1518 18.0425Z" fill="#2F2F2F"/>
<path d="M4.48365 7.82275L4.44568 7.81108C4.41479 7.79012 4.40669 7.74796 4.42772 7.71699C4.93558 6.97048 5.47637 6.23254 6.0352 5.52414C6.05845 5.49508 6.10106 5.49008 6.13029 5.51319C6.15959 5.53605 6.16462 5.57869 6.14153 5.60799C5.58467 6.31401 5.04575 7.04909 4.53975 7.79322C4.52665 7.81251 4.50533 7.82275 4.48365 7.82275Z" fill="#2F2F2F"/>
<path d="M5.65946 8.92871L5.61599 8.91299C5.58733 8.88893 5.58362 8.8463 5.60763 8.81771C6.46438 7.79608 7.31967 6.74729 8.14963 5.70089C8.1729 5.67135 8.21552 5.66659 8.24474 5.68993C8.27404 5.71304 8.27897 5.75567 8.25572 5.78497C7.42501 6.83233 6.56887 7.88207 5.71136 8.90465L5.65946 8.92871Z" fill="#2F2F2F"/>
<path d="M6.9099 10.0854L6.87167 10.0735C6.84087 10.0526 6.83306 10.0104 6.85407 9.97945C7.93966 8.39639 9.14692 6.87549 10.4423 5.4594C10.4676 5.43177 10.5105 5.42986 10.538 5.45511C10.5656 5.48036 10.5675 5.52324 10.5423 5.55087C9.25103 6.96219 8.04778 8.47809 6.96583 10.0562C6.95271 10.0752 6.93148 10.0854 6.9099 10.0854Z" fill="#2F2F2F"/>
<path d="M8.05447 11.2031L8.01428 11.1898C7.98413 11.1674 7.97789 11.1252 8.00013 11.095C9.41396 9.18559 10.9146 7.30382 12.4604 5.50209C12.4847 5.47374 12.5275 5.47065 12.5559 5.49471C12.5842 5.51924 12.5873 5.56188 12.563 5.59022C11.0195 7.38957 9.52089 9.26848 8.10889 11.1757L8.05447 11.2031Z" fill="#2F2F2F"/>
<path d="M9.15114 12.2046L9.11029 12.191C9.08051 12.1684 9.07465 12.126 9.09726 12.0962C10.7993 9.85048 12.5868 7.62237 14.4102 5.47311C14.4345 5.44452 14.4771 5.44095 14.5057 5.46525C14.5343 5.48955 14.5376 5.53218 14.5136 5.56077C12.6916 7.70789 10.9056 9.93432 9.20521 12.1779L9.15114 12.2046Z" fill="#2F2F2F"/>
<path d="M10.4607 13.0391L10.4178 13.0238C10.3889 13 10.3847 12.9574 10.4084 12.9283C12.4935 10.3889 14.6416 7.84229 16.7934 5.35979C16.818 5.33144 16.8606 5.32835 16.889 5.35288C16.9173 5.37742 16.9202 5.42006 16.8959 5.4484C14.7447 7.92995 12.5973 10.4756 10.513 13.0143L10.4607 13.0391Z" fill="#2F2F2F"/>
<path d="M11.4363 14.0874L11.3927 14.0714C11.3641 14.0474 11.3605 14.0047 11.3846 13.9762L18.7123 5.28693C18.7366 5.25835 18.779 5.25477 18.8078 5.27883C18.8364 5.30289 18.84 5.34553 18.8159 5.37411L11.488 14.0633L11.4363 14.0874Z" fill="#2F2F2F"/>
<path d="M12.8269 15.0825L12.7843 15.0673C12.7552 15.0435 12.7509 15.0011 12.7745 14.972L20.6724 5.31306C20.696 5.28399 20.7386 5.27971 20.7677 5.30353C20.7965 5.32711 20.8008 5.36975 20.7772 5.39881L12.8795 15.0577L12.8269 15.0825Z" fill="#2F2F2F"/>
<path d="M15.4777 14.3745L15.4367 14.3605C15.4069 14.3376 15.4015 14.2952 15.4241 14.2654C17.7503 11.2322 20.2135 8.24305 22.7453 5.38086C22.7703 5.35251 22.8132 5.35013 22.8409 5.37491C22.869 5.39968 22.8716 5.44232 22.8468 5.47042C20.3169 8.33023 17.8558 11.3172 15.5315 14.3481L15.4777 14.3745Z" fill="#2F2F2F"/>
<path d="M17.8021 14.062L17.7583 14.0458C17.7297 14.0215 17.7264 13.9789 17.7504 13.9503L25.0688 5.34086C25.0931 5.31228 25.1357 5.30894 25.1641 5.333C25.1927 5.3573 25.1962 5.39993 25.1719 5.42852L17.8535 14.0382L17.8021 14.062Z" fill="#2F2F2F"/>
<path d="M19.7191 14.5361L19.6748 14.5197C19.6465 14.4952 19.6434 14.4525 19.6679 14.4242C22.235 11.4605 24.8999 8.51473 27.5885 5.66826C27.6142 5.64134 27.6571 5.63991 27.6842 5.66563C27.7114 5.69136 27.7126 5.73424 27.6869 5.76139C24.9997 8.60619 22.3362 11.5506 19.7703 14.5128L19.7191 14.5361Z" fill="#2F2F2F"/>
<path d="M24.2978 11.7915L24.252 11.7739C24.2244 11.7486 24.2225 11.706 24.2477 11.6784C25.5766 10.2223 26.9522 8.77139 28.3355 7.36602C28.3617 7.33934 28.4045 7.33887 28.4312 7.36531C28.4579 7.39151 28.4584 7.43462 28.4322 7.46106C27.0499 8.86524 25.6755 10.3147 24.3475 11.7696L24.2978 11.7915Z" fill="#2F2F2F"/>
<path d="M3.3816 6.43213L3.34094 6.41856C3.31107 6.39593 3.30512 6.35353 3.32755 6.32351L4.06745 5.34095C4.08988 5.31117 4.13212 5.30545 4.16227 5.32785C4.19214 5.35024 4.1981 5.39263 4.17556 5.42265L3.43577 6.40498L3.3816 6.43213Z" fill="#2F2F2F"/>
<path d="M1.84128 25.0396C1.80584 25.0396 1.77606 25.0119 1.77375 24.9762C1.40352 19.2237 1.39523 13.39 1.74908 7.63703C1.75132 7.59963 1.78285 7.57224 1.82082 7.57343C1.85812 7.57581 1.88652 7.60797 1.88418 7.64513C1.5307 13.3928 1.53899 19.2206 1.90893 24.9674C1.91136 25.0048 1.88297 25.0369 1.84576 25.0393L1.84128 25.0396Z" fill="#2F2F2F"/>
<path d="M3.20238 25.4229C3.16646 25.4229 3.13649 25.3947 3.13473 25.3585L2.3658 9.32232C2.36402 9.28516 2.39277 9.25324 2.43019 9.25158C2.46618 9.24824 2.49922 9.27849 2.50098 9.31589L3.26993 25.3519C3.27179 25.3895 3.24304 25.4212 3.20562 25.4229H3.20238Z" fill="#2F2F2F"/>
<path d="M3.75766 26.0171C2.77862 26.0171 1.80351 25.9637 0.619662 25.5776C0.546821 24.1291 0.502707 22.6687 0.473766 21.2129C0.481412 21.2083 0.489225 21.2043 0.497038 21.2002C0.486604 21.0821 0.476576 20.9642 0.466786 20.846C0.439536 19.3492 0.427151 17.8583 0.415074 16.3917C0.393112 13.7551 0.370483 11.0289 0.901332 8.41162C1.09001 7.48146 1.46815 6.51533 1.91553 5.81883C1.9948 5.83289 2.07119 5.86171 2.13827 5.90506C2.28669 6.68826 2.60285 7.43858 3.05786 8.07672C3.11805 8.2132 3.17229 8.32992 3.2189 8.44831C3.24599 8.65078 3.27243 8.85253 3.29846 9.0538C3.25716 9.15242 3.18663 9.23055 3.10121 9.28462C3.24589 9.64192 3.37578 10.0156 3.47647 10.4954C3.51694 10.8381 3.55593 11.1812 3.59342 11.5225C3.58609 11.5425 3.57723 11.5623 3.56663 11.5818L3.56105 11.5894C3.59195 11.74 3.62134 11.8907 3.64926 12.0418C4.10574 16.3686 4.32457 20.6119 4.34218 25.3275C4.34189 25.3275 4.3416 25.3277 4.34141 25.3277C4.3416 25.3282 4.34189 25.3285 4.34218 25.3287C4.34292 25.5355 4.3433 25.7427 4.3433 25.9511C4.3433 25.9726 4.34663 25.9933 4.35287 26.0128L4.31231 26.0133C4.1263 26.0152 3.94198 26.0171 3.75766 26.0171ZM2.61374 14.4852L3.13518 25.3587C3.13694 25.3949 3.16691 25.423 3.20283 25.423H3.20607C3.24349 25.4214 3.27224 25.3897 3.27038 25.352L2.75006 14.4993C2.79984 14.5114 2.84767 14.5312 2.89103 14.5583C2.88043 14.4573 2.8714 14.3563 2.86004 14.2556C2.80589 13.7442 2.74317 13.237 2.66509 12.7285L2.50143 9.31606C2.49976 9.28033 2.46989 9.25151 2.43602 9.25151C2.43426 9.25151 2.43249 9.25151 2.43064 9.25175C2.39321 9.25342 2.36446 9.28534 2.36625 9.32249L2.47873 11.669C2.39815 11.2657 2.30501 10.8589 2.19625 10.4454C2.27097 11.2509 2.35034 12.0558 2.43118 12.8605C2.48618 13.4026 2.54647 13.944 2.60881 14.4852C2.6105 14.4852 2.61217 14.4852 2.61374 14.4852ZM3.27688 21.4811C3.32219 22.3293 3.36416 23.1775 3.4157 24.0255C3.4344 24.3726 3.44836 24.7199 3.46222 25.0674C3.55155 25.0769 3.64609 25.0881 3.7478 25.1017C3.73468 25.0731 3.72434 25.0433 3.717 25.0126C3.7115 24.9724 3.70621 24.9321 3.7008 24.8921C3.7008 24.894 3.7008 24.8959 3.7009 24.898C3.67465 24.7091 3.65038 24.52 3.62675 24.3309C3.54319 23.6072 3.46206 22.8831 3.39329 22.1578C3.35801 22.0933 3.33726 22.0208 3.33746 21.9468C3.34396 21.9949 3.34677 22.0149 3.34677 22.0149C3.34687 22.0149 3.29084 21.599 3.27883 21.4956L3.27688 21.4811ZM1.50585 18.2199C1.54018 20.478 1.6295 22.7335 1.77383 24.9764C1.77614 25.0121 1.80591 25.0398 1.84136 25.0398L1.84583 25.0395C1.88304 25.0371 1.91143 25.005 1.909 24.9676C1.74489 22.4184 1.65192 19.853 1.63015 17.2857C1.64058 17.2185 1.65127 17.1516 1.66235 17.0844C1.65054 16.9641 1.63863 16.8438 1.62662 16.7235C1.61312 13.6908 1.69901 10.6571 1.88426 7.64534C1.88659 7.60818 1.8582 7.57603 1.8209 7.57364C1.82006 7.57364 1.81923 7.57364 1.8184 7.57364C1.78155 7.57364 1.75139 7.6008 1.74915 7.63724C1.59061 10.2145 1.50483 12.8078 1.49161 15.403C1.43652 14.873 1.38052 14.3432 1.32506 13.8132C1.32404 13.8728 1.32356 13.9302 1.32394 13.9836C1.34905 15.4001 1.4141 16.816 1.50473 18.2302C1.50509 18.2268 1.50547 18.2235 1.50585 18.2199ZM1.8516 22.6082C1.91115 23.273 1.96977 23.9376 2.02532 24.6024C2.02791 24.6615 2.0338 24.7239 2.04001 24.7875C2.0776 24.808 2.11464 24.8261 2.15168 24.8428C2.13344 24.7172 2.11576 24.5915 2.10283 24.4652C2.04523 23.8457 2.00912 23.2247 1.98065 22.6035C1.95264 22.608 1.92456 22.6104 1.89655 22.6104C1.88157 22.6104 1.86668 22.6097 1.8516 22.6082Z" fill="#DEDEDE"/>
<path d="M3.90256 26.3691C3.83918 26.3691 3.77479 26.3618 3.71217 26.3572C3.40987 26.3401 3.10691 26.3313 2.80506 26.3065C2.18203 26.2743 1.56262 26.1019 1.10457 25.7286C1.05683 25.7422 1.00753 25.7496 0.95829 25.7496C0.851672 25.7496 0.745316 25.7153 0.655897 25.6367C0.470269 25.5114 0.429323 25.2641 0.404956 25.0567C0.377396 24.828 0.366891 24.5977 0.35722 24.3678C0.283617 24.0169 0.26137 23.6546 0.262037 23.2971C0.257559 22.7578 0.22733 22.2195 0.205082 21.6809C0.202391 21.4627 0.317394 21.3022 0.473699 21.2129C0.50264 22.6687 0.546755 24.1291 0.619596 25.5776C1.80344 25.9637 2.77855 26.0171 3.7576 26.0171C3.94191 26.0171 4.12623 26.0152 4.31224 26.0133L4.3528 26.0128C4.36331 26.0459 4.3822 26.0754 4.40695 26.0988C4.34528 26.1914 4.25305 26.2689 4.12716 26.317C4.05739 26.3579 3.98072 26.3691 3.90256 26.3691ZM0.466719 20.846C0.302315 18.8528 0.236262 16.8507 0.192053 14.8515C0.163683 13.4276 0.336187 12.0106 0.487848 10.5973C0.630219 9.12121 0.952144 7.67535 1.25101 6.22567C1.32509 5.94388 1.56496 5.8093 1.80473 5.8093C1.84186 5.8093 1.8789 5.8124 1.91547 5.81883C1.46808 6.51532 1.08994 7.48145 0.901265 8.41162C0.370417 11.0289 0.393046 13.7551 0.415007 16.3917C0.427084 17.8583 0.439469 19.3492 0.466719 20.846Z" fill="#2F2F2F"/>
<path d="M3.05777 8.07666C2.60277 7.43853 2.2866 6.6882 2.13818 5.90501C2.1768 5.93026 2.21243 5.96003 2.2438 5.99457L2.26381 6.00505C2.48805 6.12344 2.52852 6.3826 2.57849 6.60769C2.63702 6.85232 2.69619 7.09743 2.77722 7.33587C2.87903 7.65934 2.97402 7.88729 3.05777 8.07666Z" fill="#2F2F2F"/>
<path d="M4.40686 26.0986C4.38211 26.0753 4.36322 26.0458 4.35272 26.0126C4.34648 25.9931 4.34314 25.9724 4.34314 25.951C4.34314 25.7425 4.34276 25.5353 4.34202 25.3285C4.52384 25.5382 4.56124 25.8666 4.40686 26.0986ZM4.34202 25.3273C4.32442 20.6117 4.10559 16.3685 3.6491 12.0416C3.75629 12.6216 3.84181 13.2062 3.9115 13.7926C4.34193 16.9423 4.18662 20.1327 4.49833 23.2912C4.53508 23.7021 4.55797 24.1137 4.59053 24.5249C4.59408 24.7295 4.674 24.9527 4.56021 25.1401C4.51005 25.2287 4.43116 25.2907 4.34202 25.3273ZM3.59327 11.5223C3.55578 11.181 3.51678 10.838 3.47631 10.4952C3.49763 10.5967 3.51762 10.7029 3.53615 10.8144C3.55837 11.0474 3.6759 11.2965 3.59327 11.5223ZM3.29831 9.05364C3.27227 8.85237 3.24583 8.65061 3.21875 8.44814C3.2677 8.57248 3.30817 8.69849 3.33814 8.85141C3.33785 8.92573 3.32353 8.99362 3.29831 9.05364Z" fill="#2F2F2F"/>
<path d="M1.84096 25.0396C1.80551 25.0396 1.77574 25.0119 1.77343 24.9762C1.6291 22.7333 1.53978 20.4778 1.50545 18.2197C1.54016 17.9074 1.58175 17.5959 1.62975 17.2855C1.65152 19.8528 1.74449 22.4182 1.9086 24.9674C1.91103 25.0048 1.88264 25.0369 1.84543 25.0393L1.84096 25.0396ZM1.62622 16.7233C1.5822 16.2829 1.53699 15.843 1.49121 15.4028C1.50443 12.8076 1.5902 10.2143 1.74875 7.63702C1.75099 7.60058 1.78115 7.57343 1.81799 7.57343C1.81883 7.57343 1.81966 7.57343 1.8205 7.57343C1.8578 7.57581 1.88619 7.60797 1.88386 7.64512C1.69861 10.6569 1.61272 13.6906 1.62622 16.7233Z" fill="#2F2F2F"/>
<path d="M3.20238 25.4229C3.16646 25.4229 3.13649 25.3947 3.13473 25.3585L2.61329 14.485C2.61822 14.4848 2.62315 14.4848 2.62799 14.4848C2.66903 14.4848 2.70997 14.4896 2.74961 14.4991L3.26993 25.3519C3.27179 25.3895 3.24304 25.4212 3.20562 25.4229H3.20238ZM2.66464 12.7283C2.61069 12.3765 2.54929 12.0242 2.47828 11.6688L2.3658 9.32232C2.36402 9.28516 2.39277 9.25324 2.43019 9.25158C2.43204 9.25134 2.43381 9.25134 2.43557 9.25134C2.46944 9.25134 2.49931 9.28016 2.50098 9.31589L2.66464 12.7283Z" fill="#2F2F2F"/>
<path d="M3.71678 25.0127C3.70776 24.9753 3.70133 24.9369 3.70068 24.8981C3.7059 24.9362 3.71128 24.9746 3.71678 25.0127Z" fill="#DEDEDE"/>
<path d="M3.71688 25.0127C3.71138 24.9746 3.706 24.9362 3.70078 24.8981C3.70068 24.896 3.70068 24.8941 3.70068 24.8922C3.70609 24.9322 3.71138 24.9724 3.71688 25.0127Z" fill="#C1C1C1"/>
<path d="M16.8872 19.7451C16.7803 19.7451 16.6745 19.7423 16.5709 19.7375C15.9549 19.7263 15.3277 19.7122 14.727 19.5655C14.6774 19.5436 14.6284 19.5205 14.5786 19.4986C14.4533 19.4438 14.3759 19.4162 14.2423 19.3483C14.0167 19.2339 13.8566 19.1234 13.6932 18.9381C13.6772 18.92 13.6565 18.9069 13.6344 18.8974C13.4464 18.6061 13.3197 18.2716 13.1978 17.9517C13.1689 17.876 13.1108 17.8167 13.0384 17.7952C13.0112 17.7659 13.0036 17.7535 13.0108 17.7535C13.0115 17.7535 13.0122 17.7535 13.0132 17.7538L13.0172 17.755C12.3326 17.3026 11.1352 16.0564 9.84531 15.0531C9.25484 14.5462 8.10386 13.8049 7.23777 13.0608C6.58999 12.5044 5.91353 11.9815 5.31089 11.3744C4.68367 10.7431 4.7541 10.7376 4.28895 10.1853C4.21144 10.111 4.17971 10.0211 4.18122 9.93278C4.02248 9.70649 3.87806 9.5064 3.74221 9.32204C3.72044 9.1503 3.69829 8.9776 3.67578 8.80515C4.06519 9.20103 4.49328 9.54952 4.91182 9.89038L8.60174 12.8945C8.5916 12.9145 8.57969 12.9334 8.56601 12.9508C8.84209 13.1527 9.12207 13.349 9.40166 13.546L13.8445 17.1633C13.8452 17.1638 13.8457 17.1642 13.8461 17.1647C13.8566 17.1809 13.8664 17.1973 13.875 17.2145C13.883 17.2336 13.8904 17.2505 13.8971 17.2659C13.9014 17.4851 13.9076 17.6978 13.9159 17.9067C13.93 18.2566 13.9783 18.6115 14.2365 18.8361C14.398 18.9769 14.5948 19.0231 14.7823 19.0582C15.3939 19.1727 16.0111 19.2301 16.6288 19.2301C17.154 19.2301 17.6797 19.1884 18.2025 19.1056C18.3867 19.0763 18.5798 19.0367 18.7421 18.904C18.9695 18.7182 19.045 18.42 19.0889 18.1528C19.1549 17.7495 19.1894 17.3372 19.1925 16.9241L26.2358 11.2448C27.2143 10.4556 28.1692 9.64051 28.7371 8.90876C28.7561 9.07955 28.7754 9.25391 28.7947 9.43042C28.6928 9.56381 28.5637 9.68363 28.4601 9.80654C28.0818 10.176 27.6862 10.5276 27.3184 10.9082C26.5735 11.6164 25.8201 12.3169 25.0484 12.996C24.6456 13.2344 24.2766 13.5536 23.9205 13.8449C23.4834 14.2027 23.0646 14.5815 22.6447 14.959C22.2257 15.3358 21.8181 15.7274 21.3846 16.0878C20.9566 16.4437 20.5159 16.7688 20.0648 17.093C19.8342 17.2588 19.6725 17.4603 19.5562 17.6861L19.5457 17.6907L19.5503 17.6983C19.4116 17.9717 19.3387 18.2802 19.2916 18.6056L19.2904 18.6582C19.2404 18.7468 19.1861 18.8326 19.1189 18.9107C18.5951 19.582 17.7068 19.7451 16.8872 19.7451Z" fill="#DEDEDE"/>
<path d="M28.7945 9.43018C28.7752 9.25367 28.7559 9.07931 28.7368 8.90852C28.7706 8.86517 28.8028 8.82229 28.8338 8.77942C28.9255 8.86064 28.9798 8.98117 28.9529 9.11385C28.9276 9.23056 28.8681 9.33394 28.7945 9.43018Z" fill="#2F2F2F"/>
<path d="M13.846 17.1646C13.8455 17.1641 13.845 17.1636 13.8443 17.1631L9.4015 13.5458C9.85817 13.8677 10.3135 14.1911 10.7473 14.5441C11.6562 15.2566 11.9556 15.5179 12.6676 16.0434C13.1857 16.3959 13.7385 16.8468 13.8088 17.0979L13.821 17.1267C13.8295 17.1393 13.8379 17.1517 13.846 17.1646ZM8.60158 12.8944L4.91165 9.89022C4.49311 9.54936 4.06502 9.20087 3.67562 8.80499C3.66278 8.70661 3.64984 8.60847 3.63672 8.50986C4.09694 8.92241 4.53704 9.35213 4.97194 9.7916C5.43233 10.2568 5.89672 10.7141 6.42188 11.106C6.89782 11.4614 7.38593 11.7982 7.8679 12.1452C8.13866 12.3401 8.39149 12.5504 8.63945 12.7669C8.63462 12.8112 8.62178 12.8548 8.60158 12.8944Z" fill="#2F2F2F"/>
<path d="M3.74212 9.32178C3.6461 9.19172 3.55435 9.06905 3.46467 8.95066C3.35495 8.77583 3.42558 8.56383 3.57055 8.45068C3.5927 8.47022 3.61476 8.48999 3.63679 8.50976C3.64991 8.60837 3.66285 8.70651 3.67569 8.80489C3.6982 8.97734 3.72035 9.15004 3.74212 9.32178Z" fill="#2F2F2F"/>
<path d="M19.1921 16.9243C19.1926 16.839 19.1918 16.754 19.1899 16.6687C19.193 16.6663 19.1964 16.6637 19.1997 16.6611C19.3786 16.5165 19.5565 16.3707 19.7352 16.2259C19.749 16.2285 19.7633 16.2302 19.7776 16.2302C19.8219 16.2302 19.8674 16.2162 19.9093 16.1823C21.0527 15.2576 22.1488 14.2717 23.261 13.3104C23.6059 13.0121 23.9541 12.7182 24.3033 12.4252C24.4098 12.3369 24.5161 12.248 24.6218 12.1587C24.866 11.955 25.1096 11.7511 25.354 11.5479C25.3638 11.5472 25.3736 11.547 25.3833 11.547C25.4024 11.547 25.4212 11.5482 25.4398 11.551C25.657 11.355 25.8771 11.1621 26.1065 10.9791C26.3373 10.7762 26.5605 10.5649 26.7818 10.3515C27.3725 9.85174 27.9685 9.35795 28.5635 8.86369C28.63 8.80843 28.6438 8.74054 28.6257 8.67956C28.7024 8.69267 28.7755 8.72839 28.8336 8.77985C28.8027 8.82272 28.7705 8.86559 28.7367 8.90895C28.1688 9.64069 27.2139 10.4558 26.2354 11.245L19.1921 16.9243Z" fill="#2F2F2F"/>
<path d="M14.526 18.5483C14.5181 18.5426 14.5103 18.5364 14.5031 18.53C14.4843 18.5138 14.4676 18.4952 14.4526 18.4747L14.4988 18.4578L14.5017 18.4726C14.5077 18.4986 14.5162 18.5236 14.526 18.5483Z" fill="#DEDEDE"/>
<path d="M16.6286 19.23C16.011 19.23 15.3938 19.1726 14.7821 19.058C14.5947 19.023 14.3979 18.9768 14.2364 18.836C13.9782 18.6114 13.9298 18.2565 13.9158 17.9065C13.9075 17.6976 13.9013 17.4849 13.897 17.2658C13.9932 17.4835 13.9741 17.3728 14.0792 17.7801C14.0863 17.8461 14.134 17.9875 14.1471 18.0307L14.1473 18.0314C14.1664 18.0831 14.2328 18.1852 14.2678 18.2386C14.3338 18.3136 14.405 18.3846 14.4391 18.4794L14.4527 18.4744C14.4677 18.4949 14.4844 18.5135 14.5032 18.5297C14.5103 18.5361 14.5182 18.5423 14.5261 18.548C14.5332 18.5654 14.5408 18.5828 14.5484 18.6002C14.5582 18.6228 14.5708 18.644 14.5849 18.6643C14.6366 18.7019 14.6795 18.7462 14.7138 18.795C14.7414 18.8096 14.7716 18.8184 14.8038 18.8184C14.844 18.8184 14.8898 18.8031 14.9238 18.7774C14.9567 18.7934 14.9929 18.8041 15.0308 18.8084C15.531 18.8663 16.0334 18.881 16.536 18.881C16.7823 18.881 17.0288 18.8774 17.2751 18.8736C17.4652 18.8708 17.6553 18.8641 17.8456 18.8586C18.0159 18.8539 18.1924 18.8598 18.3544 18.7986C18.5147 18.7376 18.6328 18.6085 18.6912 18.4566C18.741 18.4327 18.781 18.391 18.7996 18.3329C18.846 18.1886 18.8513 18.0285 18.8622 17.8782C18.8653 17.8353 18.867 17.7925 18.8691 17.7496C18.8958 17.7024 18.9251 17.6572 18.9634 17.62C18.933 17.6005 18.9044 17.579 18.8772 17.5554C18.8786 17.5071 18.8801 17.4587 18.8813 17.4104C18.8877 17.145 18.8884 16.8797 18.8884 16.6141C18.9289 16.6689 18.9975 16.7082 19.0702 16.7082C19.1102 16.7082 19.1516 16.6963 19.1902 16.6684C19.1921 16.7537 19.1928 16.8387 19.1924 16.924C19.1893 17.337 19.1547 17.7493 19.0887 18.1526C19.0449 18.4199 18.9694 18.7181 18.7419 18.9039C18.5797 19.0366 18.3865 19.0761 18.2024 19.1054C17.6796 19.1883 17.1539 19.23 16.6286 19.23Z" fill="#2F2F2F"/>
<path d="M11.1825 4.43652C11.1507 4.17522 11.1353 3.92988 11.1363 3.69692C11.162 3.6812 11.1902 3.66715 11.221 3.65548C11.3108 3.61189 11.4106 3.60736 11.5114 3.60736C11.5252 3.60736 11.539 3.60736 11.553 3.60736C11.5671 3.6076 11.5812 3.6076 11.5952 3.6076C11.6376 3.6076 11.6798 3.60664 11.7207 3.60259C11.9177 3.60045 12.1161 3.59164 12.3138 3.59164C12.4584 3.59164 12.6025 3.5964 12.7457 3.61141C12.7824 3.61784 12.8172 3.62927 12.8493 3.64499C12.8546 3.73765 12.8624 3.83007 12.8705 3.92202C12.8855 4.09495 12.9001 4.26264 12.8948 4.42128C12.3267 4.42605 11.7555 4.43104 11.1825 4.43652Z" fill="#DEDEDE"/>
<path d="M11.046 4.4375C10.8653 4.22431 10.8706 3.86011 11.1366 3.69647C11.1356 3.92943 11.151 4.17477 11.1828 4.43607C11.1373 4.43655 11.0915 4.43702 11.046 4.4375ZM12.8951 4.42083C12.9004 4.26219 12.8858 4.0945 12.8708 3.92156C12.8627 3.82962 12.8549 3.7372 12.8496 3.64454C13.0978 3.7653 13.1988 4.13404 13.008 4.35032C12.9904 4.37748 12.9704 4.40058 12.9487 4.42035C12.9308 4.42059 12.913 4.42059 12.8951 4.42083Z" fill="#2F2F2F"/>
<path d="M11.4053 4.60156C11.2511 4.60156 11.1288 4.53558 11.0459 4.43768C11.0914 4.4372 11.1372 4.43672 11.1827 4.43625C11.7557 4.43077 12.3269 4.42577 12.895 4.42101C12.9128 4.42077 12.9307 4.42077 12.9486 4.42053C12.7999 4.55583 12.5627 4.53915 12.37 4.54511C12.0506 4.56607 11.7311 4.58417 11.4117 4.60156C11.4096 4.60156 11.4074 4.60156 11.4053 4.60156Z" fill="#2F2F2F"/>
<path d="M18.5229 4.37061C18.5301 4.29176 18.5389 4.21197 18.5475 4.13194C18.568 3.94567 18.5887 3.75725 18.5911 3.56955C18.617 3.56502 18.6432 3.56145 18.669 3.55788C18.8867 3.52191 19.1053 3.49142 19.3247 3.46664C19.4169 3.45045 19.5115 3.44045 19.6029 3.44045C19.7945 3.44045 19.9729 3.48451 20.087 3.60932C20.1046 3.81251 20.122 4.02618 20.1196 4.23793C20.0855 4.28248 20.0438 4.32035 19.9967 4.35179C19.5046 4.3587 19.0129 4.36489 18.5229 4.37061Z" fill="#DEDEDE"/>
<path d="M18.2777 4.37354C18.1212 4.16868 18.1086 3.85355 18.3632 3.6699C18.4251 3.6082 18.5073 3.58415 18.5911 3.56962C18.5888 3.75732 18.568 3.94573 18.5476 4.132C18.539 4.21204 18.5302 4.29183 18.523 4.37067C18.4411 4.37163 18.3594 4.37258 18.2777 4.37354ZM20.1197 4.238C20.122 4.02624 20.1047 3.81258 20.087 3.60939C20.158 3.68728 20.2042 3.79638 20.213 3.94573C20.2145 4.06269 20.1792 4.16011 20.1197 4.238Z" fill="#2F2F2F"/>
<path d="M18.6623 4.57129C18.5027 4.57129 18.3669 4.49054 18.2778 4.37382C18.3595 4.37287 18.4412 4.37191 18.5232 4.37096C19.0132 4.36524 19.5048 4.35906 19.9969 4.35215C19.8852 4.42647 19.743 4.4641 19.6013 4.4641C19.5844 4.4641 19.5674 4.46362 19.5505 4.46243C19.0408 4.50435 19.2156 4.4922 18.8023 4.55104C18.754 4.56486 18.7073 4.57129 18.6623 4.57129Z" fill="#2F2F2F"/>
</svg>
