<svg width="30" height="27" viewBox="0 0 30 27" fill="none" xmlns="http://www.w3.org/2000/svg">
<path d="M11.1248 5.29233C10.9532 4.50175 10.8586 3.67949 11.0078 2.88415C11.1571 2.0888 11.5758 1.31847 12.2556 0.879473C12.9485 0.432137 13.8141 0.374253 14.6378 0.32971C15.2752 0.295171 15.9124 0.260392 16.5498 0.225853C17.4874 0.174878 18.5207 0.153203 19.2503 0.744172C20.0468 1.38921 20.1957 2.5259 20.2855 3.54705C20.3331 4.08538 20.3753 4.65467 20.1397 5.14108C19.9041 5.62771 19.2832 5.97096 18.8077 5.7137C18.3625 5.47241 18.2758 4.87143 18.3199 4.36693C18.3637 3.86243 18.4788 3.3241 18.2515 2.87152C17.8714 2.11429 16.8252 2.07022 15.9801 2.13263C15.533 2.16574 15.0859 2.19862 14.6388 2.23172C14.109 2.27079 13.5021 2.35344 13.2132 2.79959C12.8361 3.38222 13.2532 4.18447 13.0286 4.84142C12.8897 5.24779 12.4893 5.55077 12.0605 5.57364C11.6318 5.59675 11.2012 5.33854 11.1248 5.29233Z" fill="white"/>
<path d="M16.4899 1.90868C17.241 1.90868 18.0723 2.06185 18.4329 2.78001C18.6487 3.2102 18.5975 3.6785 18.5477 4.13179C18.5384 4.21659 18.5291 4.30067 18.522 4.38404C18.4984 4.65511 18.4884 5.30968 18.9043 5.53477C19.0763 5.62791 19.2554 5.60099 19.3752 5.5624C19.616 5.48475 19.8442 5.28467 19.9569 5.05242C20.1746 4.60247 20.126 4.05104 20.0831 3.56464C19.9926 2.53753 19.844 1.48612 19.1225 0.90158C18.4682 0.371827 17.5373 0.375159 16.5607 0.428277L14.6487 0.532135C13.8907 0.573343 13.0313 0.620029 12.3655 1.04998C11.7819 1.42657 11.3599 2.10877 11.2073 2.92126C11.088 3.55654 11.1187 4.27042 11.3044 5.16104C11.4706 5.2518 11.7684 5.38614 12.0494 5.37042C12.3939 5.35208 12.7247 5.10196 12.8364 4.77539C12.9229 4.52171 12.8977 4.23016 12.8707 3.92146C12.8343 3.50247 12.7967 3.06895 13.0427 2.68878C13.3671 2.18761 13.9943 2.07542 14.6239 2.02897L15.9649 1.92988C16.13 1.91749 16.3075 1.90868 16.4899 1.90868ZM19.1618 6.00378C19.002 6.00378 18.8483 5.96615 18.7109 5.89207C18.269 5.65268 18.0527 5.09029 18.1173 4.34902C18.1247 4.26256 18.1344 4.17538 18.144 4.08748C18.1892 3.67492 18.2321 3.28523 18.0699 2.96247C17.8119 2.44868 17.1526 2.2493 15.9949 2.33482L14.6537 2.43391C14.1646 2.47012 13.6232 2.53967 13.3836 2.90959C13.2133 3.1728 13.2435 3.51938 13.2754 3.88597C13.3047 4.22325 13.335 4.57197 13.2207 4.90688C13.0551 5.39138 12.5825 5.74867 12.0713 5.77607C11.6431 5.79917 11.2287 5.59194 11.0198 5.46617C10.9718 5.43735 10.9379 5.38971 10.9261 5.33516C10.7121 4.34831 10.6745 3.55749 10.8081 2.84647C10.9811 1.92488 11.4685 1.14573 12.1452 0.708637C12.9017 0.220331 13.8581 0.168405 14.6267 0.126482L16.5388 0.0226312C17.5551 -0.0321546 18.612 -0.0340624 19.3781 0.585968C20.2232 1.27031 20.3897 2.41509 20.4878 3.52891C20.5329 4.04127 20.5891 4.67869 20.3225 5.2294C20.1615 5.56169 19.8464 5.83752 19.4998 5.94924C19.3867 5.98568 19.2728 6.00378 19.1618 6.00378Z" fill="#2F2F2F"/>
<path d="M0.423802 25.7259C0.263471 22.6184 0.237698 19.5049 0.21183 16.3931C0.189511 13.7079 0.169597 10.9972 0.702185 8.37105C0.869852 7.5445 1.23134 6.49595 1.76338 5.67941C2.12673 5.12203 2.73385 4.79378 3.37586 4.77544C10.923 4.55844 18.2841 4.66778 25.8457 4.42553C27.0772 4.38599 27.8778 4.56821 28.3873 4.87835C29.916 5.80827 28.827 7.88893 28.9054 8.58709C29.5626 14.4244 30.0287 20.5034 29.68 25.8915C28.9561 25.9903 27.3345 25.9853 26.2447 25.9963C18.9346 26.0697 11.6243 26.1428 4.31425 26.2161C3.12063 26.2281 1.925 26.24 0.423802 25.7259Z" fill="white"/>
<path d="M0.619655 25.5772C2.02634 26.036 3.13843 26.0248 4.3123 26.0129L26.2427 25.7931C26.4092 25.7914 26.5878 25.7902 26.7738 25.7888C27.7038 25.7821 28.8419 25.7738 29.4879 25.7094C29.8483 19.8321 29.2144 13.1452 28.7037 8.60991C28.679 8.38958 28.7423 8.1004 28.8226 7.73429C29.0253 6.80913 29.2773 5.65744 28.2819 5.0517C27.7628 4.73585 26.9456 4.59389 25.8523 4.62866C21.9275 4.75443 17.9931 4.78588 14.1884 4.81636C10.6603 4.84471 7.01213 4.874 3.38173 4.97833C2.79545 4.99501 2.25412 5.29871 1.93365 5.79036C1.47838 6.48875 1.09253 7.4687 0.901325 8.41125C0.370477 11.0286 0.393105 13.7548 0.415067 16.3914C0.439983 19.4039 0.465851 22.5171 0.619655 25.5772ZM3.77597 26.4226C2.748 26.4226 1.66244 26.3647 0.358114 25.9179C0.279676 25.8912 0.225343 25.8193 0.22115 25.7364C0.0605571 22.6231 0.0342123 19.4567 0.00882038 16.3947C-0.0132368 13.7371 -0.0360324 10.9895 0.503272 8.3305C0.704049 7.34031 1.11161 6.30772 1.59329 5.56835C1.98651 4.96547 2.65068 4.59294 3.37011 4.57245C7.00458 4.46788 10.655 4.43858 14.1851 4.41024C17.9874 4.37975 21.9194 4.3483 25.8394 4.22253C27.0287 4.18442 27.8969 4.34235 28.4929 4.70488C29.7363 5.46116 29.4252 6.8813 29.2192 7.821C29.1527 8.12446 29.0901 8.41101 29.1075 8.56441C29.6246 13.1588 30.2677 19.9546 29.8828 25.9045C29.8764 26.0008 29.8032 26.0796 29.7075 26.0927C29.081 26.1782 27.8033 26.1875 26.7767 26.1949C26.5911 26.1963 26.4127 26.1975 26.2467 26.1992L4.3164 26.419C4.13756 26.4209 3.9576 26.4226 3.77597 26.4226Z" fill="#2F2F2F"/>
<path d="M13.9723 17.2087C13.9273 17.2087 13.8818 17.1937 13.8442 17.163L4.91151 9.8901C4.28819 9.3825 3.64374 8.85775 3.13729 8.18531C2.50282 7.34305 2.11742 6.28902 2.05191 5.21712C2.04493 5.10517 2.13016 5.00894 2.24219 5.00203C2.35366 4.99703 2.45051 5.08016 2.45723 5.19235C2.51797 6.18564 2.87482 7.16178 3.46176 7.94116C3.93851 8.57382 4.5635 9.08284 5.16802 9.57496L14.1007 16.8481C14.1876 16.9188 14.2007 17.0468 14.1298 17.1337C14.0897 17.183 14.0311 17.2087 13.9723 17.2087Z" fill="#2F2F2F"/>
<path d="M4.54622 26.1539C4.43401 26.1539 4.34311 26.0629 4.34311 25.9508C4.34311 19.5897 3.98617 14.1156 3.1857 8.20213C3.17063 8.09089 3.24859 7.9887 3.35968 7.97369C3.47061 7.95702 3.57313 8.03634 3.58821 8.14758C4.3912 14.0799 4.74924 19.5709 4.74924 25.9508C4.74924 26.0629 4.65844 26.1539 4.54622 26.1539Z" fill="#2F2F2F"/>
<path d="M18.969 17.0466C18.9094 17.0466 18.8508 17.0209 18.8106 16.9709C18.7403 16.8837 18.7539 16.7558 18.8413 16.6853L25.9806 10.9285C26.7478 10.3099 28.3442 9.02245 28.7591 8.11825C28.8058 8.0163 28.9264 7.97152 29.0285 8.01844C29.1305 8.06513 29.1753 8.18566 29.1284 8.28761C28.7287 9.1587 27.5017 10.2237 26.2354 11.2448L19.0962 17.0016C19.0585 17.0319 19.0135 17.0466 18.969 17.0466Z" fill="#2F2F2F"/>
<path d="M18.8211 15.2454C19.021 16.1868 19.0438 17.1691 18.8881 18.1196C18.8499 18.352 18.7902 18.6019 18.6134 18.7465C18.4888 18.8482 18.3264 18.8799 18.1704 18.9047C17.0608 19.0807 15.9242 19.0652 14.8194 18.8582C14.66 18.8284 14.4943 18.7913 14.3697 18.6827C14.1613 18.5011 14.13 18.1827 14.1186 17.8983C14.086 17.081 14.0884 16.2621 14.1091 15.4017C14.2584 15.062 14.6748 14.983 15.0288 14.9482C16.0559 14.8469 17.0873 14.7455 18.1172 14.8029C18.3928 14.8181 18.7489 14.906 18.8211 15.2454Z" fill="white"/>
<path d="M14.311 15.4517C14.2891 16.3866 14.2925 17.1629 14.3215 17.8906C14.3318 18.1495 14.3611 18.4063 14.503 18.5299C14.5878 18.6038 14.7186 18.6331 14.8568 18.659C15.9432 18.8622 17.0472 18.8777 18.1384 18.7045C18.273 18.6831 18.4009 18.6581 18.4847 18.5897C18.6069 18.4897 18.6546 18.2891 18.6877 18.0871C18.8385 17.1672 18.8158 16.1994 18.6224 15.288C18.5865 15.118 18.4126 15.0232 18.106 15.0063C17.0903 14.9491 16.0525 15.0518 15.0487 15.1506C14.7493 15.1801 14.4306 15.2395 14.311 15.4517ZM16.6285 19.2302C16.0108 19.2302 15.3937 19.1728 14.782 19.0582C14.5945 19.0232 14.3977 18.977 14.2362 18.8362C13.978 18.6116 13.9297 18.2567 13.9156 17.9068C13.8859 17.1586 13.8828 16.3611 13.9059 15.3971C13.9066 15.3707 13.9123 15.3445 13.923 15.3202C14.1376 14.8324 14.7481 14.7721 15.0087 14.7464C16.028 14.6461 17.0818 14.5425 18.1286 14.6006C18.6265 14.6282 18.943 14.8424 19.0197 15.2037C19.2234 16.1639 19.2475 17.1836 19.0886 18.1529C19.0448 18.4201 18.9692 18.7183 18.7418 18.9041C18.5796 19.0368 18.3864 19.0763 18.2022 19.1056C17.6794 19.1885 17.1537 19.2302 16.6285 19.2302Z" fill="#2F2F2F"/>
<path d="M16.229 16.4863C16.0959 16.397 16.017 16.2252 16.0335 16.0601C16.0499 15.8948 16.1607 15.7438 16.3086 15.6855C16.3936 15.6521 16.4863 15.6478 16.577 15.6507C16.7178 15.6552 16.865 15.679 16.9775 15.7681C17.1699 15.9206 17.1902 16.2598 17.0172 16.4365C16.9646 16.4903 16.895 16.5346 16.8738 16.609C16.8617 16.6514 16.8681 16.6969 16.8743 16.7407C16.9215 17.0665 16.9686 17.3924 17.0158 17.7182C16.6952 17.8092 16.3615 17.8493 16.0297 17.8364C16.1064 17.4048 16.1831 16.9729 16.229 16.4863Z" fill="white"/>
<path d="M16.5329 15.8527C16.4829 15.8527 16.4274 15.8568 16.3833 15.8741C16.3066 15.9044 16.2447 15.9911 16.2359 16.0799C16.2268 16.17 16.2716 16.27 16.3421 16.3174C16.4041 16.3589 16.4384 16.4308 16.4312 16.5051C16.3933 16.9094 16.3338 17.2786 16.2718 17.633C16.4457 17.6261 16.6184 17.6037 16.7887 17.5658L16.6735 16.7695C16.6658 16.7169 16.6546 16.6376 16.6787 16.553C16.7104 16.4415 16.7849 16.3741 16.8395 16.3251L16.8723 16.2941C16.9143 16.2512 16.9367 16.18 16.9317 16.104C16.9271 16.0292 16.8971 15.9632 16.8516 15.9273C16.7937 15.8813 16.7044 15.8577 16.5706 15.8534L16.5329 15.8527ZM16.1518 18.0417C16.1087 18.0417 16.0653 18.041 16.022 18.0394C15.9634 18.037 15.9086 18.0094 15.8717 17.9639C15.835 17.9181 15.8195 17.8586 15.8298 17.8007C15.8991 17.4115 15.9705 17.0096 16.0165 16.5716C15.8829 16.4341 15.8121 16.2369 15.8317 16.0397C15.8555 15.8003 16.0172 15.5819 16.2342 15.4964C16.359 15.4473 16.4869 15.4444 16.5837 15.4475C16.7256 15.4521 16.9338 15.474 17.1039 15.6088C17.2401 15.7167 17.3252 15.888 17.3371 16.0783C17.3492 16.2703 17.2856 16.4525 17.1627 16.5783L17.1117 16.6264L17.0667 16.6712L17.0755 16.7116L17.217 17.689C17.2316 17.7895 17.1694 17.8855 17.0715 17.9134C16.7711 17.9986 16.4624 18.0417 16.1518 18.0417Z" fill="#2F2F2F"/>
<path d="M4.48365 7.823L4.44568 7.81133C4.41479 7.79037 4.40669 7.7482 4.42772 7.71723C4.93558 6.97072 5.47637 6.23279 6.0352 5.52439C6.05845 5.49533 6.10106 5.49032 6.13029 5.51343C6.15959 5.5363 6.16462 5.57893 6.14153 5.60823C5.58467 6.31425 5.04575 7.04933 4.53975 7.79346C4.52665 7.81276 4.50533 7.823 4.48365 7.823Z" fill="#2F2F2F"/>
<path d="M5.65921 8.92834L5.61574 8.91263C5.58709 8.88857 5.58337 8.84593 5.60738 8.81735C6.46413 7.79571 7.31943 6.74693 8.14938 5.70052C8.17266 5.67098 8.21527 5.66622 8.2445 5.68956C8.2738 5.71267 8.27873 5.75531 8.25548 5.78461C7.42476 6.83196 6.56863 7.8817 5.71112 8.90429L5.65921 8.92834Z" fill="#2F2F2F"/>
<path d="M6.9099 10.0847L6.87167 10.0728C6.84087 10.0518 6.83306 10.0097 6.85407 9.97872C7.93966 8.39565 9.14692 6.87476 10.4423 5.45867C10.4676 5.43104 10.5105 5.42913 10.538 5.45438C10.5656 5.47963 10.5675 5.5225 10.5423 5.55013C9.25103 6.96146 8.04778 8.47736 6.96583 10.0554C6.95271 10.0745 6.93148 10.0847 6.9099 10.0847Z" fill="#2F2F2F"/>
<path d="M8.05447 11.2028L8.01428 11.1894C7.98413 11.167 7.97789 11.1249 8.00013 11.0946C9.41396 9.18522 10.9146 7.30345 12.4604 5.50172C12.4847 5.47337 12.5275 5.47028 12.5559 5.49434C12.5842 5.51888 12.5873 5.56151 12.563 5.58986C11.0195 7.38921 9.52089 9.26812 8.10889 11.1754L8.05447 11.2028Z" fill="#2F2F2F"/>
<path d="M9.15114 12.2039L9.11029 12.1903C9.08051 12.1676 9.07465 12.1253 9.09726 12.0955C10.7993 9.84974 12.5868 7.62164 14.4102 5.47237C14.4345 5.44379 14.4771 5.44022 14.5057 5.46452C14.5343 5.48881 14.5376 5.53145 14.5136 5.56003C12.6916 7.70715 10.9056 9.93359 9.20521 12.1772L9.15114 12.2039Z" fill="#2F2F2F"/>
<path d="M10.4607 13.0386L10.4178 13.0233C10.3889 12.9995 10.3847 12.9569 10.4084 12.9278C12.4935 10.3884 14.6416 7.8418 16.7934 5.3593C16.818 5.33095 16.8606 5.32786 16.889 5.3524C16.9173 5.37693 16.9202 5.41957 16.8959 5.44791C14.7447 7.92946 12.5973 10.4751 10.513 13.0138L10.4607 13.0386Z" fill="#2F2F2F"/>
<path d="M11.4363 14.0876L11.3927 14.0717C11.3641 14.0476 11.3605 14.005 11.3846 13.9764L18.7123 5.28718C18.7366 5.25859 18.779 5.25502 18.8078 5.27908C18.8364 5.30313 18.84 5.34577 18.8159 5.37435L11.488 14.0636L11.4363 14.0876Z" fill="#2F2F2F"/>
<path d="M12.8269 15.0818L12.7843 15.0665C12.7552 15.0427 12.7509 15.0003 12.7745 14.9713L20.6724 5.31232C20.696 5.28326 20.7386 5.27898 20.7677 5.3028C20.7965 5.32638 20.8008 5.36902 20.7772 5.39808L12.8795 15.057L12.8269 15.0818Z" fill="#2F2F2F"/>
<path d="M15.4777 14.3748L15.4367 14.3607C15.4069 14.3378 15.4015 14.2954 15.4241 14.2657C17.7503 11.2324 20.2135 8.24329 22.7453 5.3811C22.7703 5.35276 22.8132 5.35038 22.8409 5.37515C22.869 5.39992 22.8716 5.44256 22.8468 5.47067C20.3169 8.33047 17.8558 11.3175 15.5315 14.3483L15.4777 14.3748Z" fill="#2F2F2F"/>
<path d="M17.8021 14.0613L17.7583 14.0451C17.7297 14.0208 17.7264 13.9781 17.7504 13.9496L25.0688 5.34013C25.0931 5.31155 25.1357 5.30821 25.1641 5.33227C25.1927 5.35656 25.1962 5.3992 25.1719 5.42779L17.8535 14.0375L17.8021 14.0613Z" fill="#2F2F2F"/>
<path d="M19.7194 14.5359L19.6751 14.5195C19.6467 14.4949 19.6436 14.4523 19.6682 14.4239C22.2352 11.4603 24.9002 8.51448 27.5887 5.66801C27.6145 5.6411 27.6573 5.63966 27.6845 5.66539C27.7116 5.69112 27.7128 5.73399 27.6871 5.76115C25 8.60595 22.3365 11.5503 19.7706 14.5125L19.7194 14.5359Z" fill="#2F2F2F"/>
<path d="M24.2978 11.7917L24.252 11.7741C24.2244 11.7489 24.2225 11.7062 24.2477 11.6786C25.5766 10.2225 26.9522 8.77163 28.3355 7.36626C28.3617 7.33958 28.4045 7.33911 28.4312 7.36555C28.4579 7.39176 28.4584 7.43486 28.4322 7.4613C27.0499 8.86548 25.6755 10.3149 24.3475 11.7698L24.2978 11.7917Z" fill="#2F2F2F"/>
<path d="M3.3816 6.43237L3.34094 6.4188C3.31107 6.39617 3.30512 6.35377 3.32755 6.32376L4.06745 5.34119C4.08988 5.31142 4.13212 5.3057 4.16227 5.32809C4.19214 5.35048 4.1981 5.39288 4.17556 5.42289L3.43577 6.40522L3.3816 6.43237Z" fill="#2F2F2F"/>
<path d="M1.84128 25.0398C1.80584 25.0398 1.77606 25.0122 1.77375 24.9764C1.40352 19.2239 1.39523 13.3902 1.74908 7.63727C1.75132 7.59987 1.78285 7.57248 1.82082 7.57367C1.85812 7.57606 1.88652 7.60821 1.88418 7.64537C1.5307 13.3931 1.53899 19.2209 1.90893 24.9676C1.91136 25.005 1.88297 25.0372 1.84576 25.0396L1.84128 25.0398Z" fill="#2F2F2F"/>
<path d="M3.20262 25.4227C3.1667 25.4227 3.13674 25.3946 3.13497 25.3584L2.36605 9.3222C2.36426 9.28504 2.39301 9.25312 2.43043 9.25146C2.46642 9.24812 2.49946 9.27837 2.50122 9.31577L3.27017 25.3517C3.27203 25.3894 3.24328 25.4211 3.20586 25.4227H3.20262Z" fill="#2F2F2F"/>
<path d="M3.75766 26.0164C2.77862 26.0164 1.80351 25.963 0.619662 25.5769C0.546821 24.1284 0.502707 22.668 0.473766 21.2121C0.481412 21.2076 0.489225 21.2036 0.497038 21.1995C0.486604 21.0814 0.476576 20.9635 0.466786 20.8453C0.439536 19.3485 0.427151 17.8576 0.415074 16.391C0.393112 13.7544 0.370483 11.0282 0.901332 8.41089C1.09001 7.48073 1.46815 6.51459 1.91553 5.8181C1.9948 5.83216 2.07119 5.86098 2.13827 5.90433C2.28669 6.68753 2.60285 7.43785 3.05786 8.07598C3.11805 8.21247 3.17229 8.32919 3.2189 8.44757C3.24599 8.65004 3.27243 8.8518 3.29846 9.05307C3.25716 9.15169 3.18663 9.22981 3.10121 9.28389C3.24589 9.64118 3.37578 10.0149 3.47647 10.4946C3.51694 10.8374 3.55593 11.1804 3.59342 11.5218C3.58609 11.5418 3.57723 11.5615 3.56663 11.5811L3.56105 11.5887C3.59195 11.7392 3.62134 11.89 3.64926 12.041C4.10574 16.3679 4.32457 20.6112 4.34218 25.3268C4.34189 25.3268 4.3416 25.327 4.34141 25.327C4.3416 25.3275 4.34189 25.3277 4.34218 25.328C4.34292 25.5347 4.3433 25.742 4.3433 25.9504C4.3433 25.9718 4.34663 25.9925 4.35287 26.0121L4.31231 26.0125C4.1263 26.0145 3.94198 26.0164 3.75766 26.0164ZM2.61374 14.4845L3.13518 25.358C3.13694 25.3942 3.16691 25.4223 3.20283 25.4223H3.20607C3.24349 25.4206 3.27224 25.3889 3.27038 25.3513L2.75006 14.4985C2.79984 14.5107 2.84767 14.5304 2.89103 14.5576C2.88043 14.4566 2.8714 14.3556 2.86004 14.2548C2.80589 13.7434 2.74317 13.2363 2.66509 12.7278L2.50143 9.31533C2.49976 9.2796 2.46989 9.25078 2.43602 9.25078C2.43426 9.25078 2.43249 9.25078 2.43064 9.25102C2.39321 9.25268 2.36446 9.2846 2.36625 9.32176L2.47873 11.6683C2.39815 11.265 2.30501 10.8581 2.19625 10.4446C2.27097 11.2502 2.35034 12.0551 2.43118 12.8597C2.48618 13.4019 2.54647 13.9433 2.60881 14.4845C2.6105 14.4845 2.61217 14.4845 2.61374 14.4845ZM3.27688 21.4804C3.32219 22.3286 3.36416 23.1768 3.4157 24.0248C3.4344 24.3718 3.44836 24.7191 3.46222 25.0667C3.55155 25.0762 3.64609 25.0874 3.7478 25.101C3.73468 25.0724 3.72434 25.0426 3.717 25.0119C3.7115 24.9716 3.70621 24.9314 3.7008 24.8913C3.7008 24.8933 3.7008 24.8952 3.7009 24.8973C3.67465 24.7084 3.65038 24.5193 3.62675 24.3302C3.54319 23.6065 3.46206 22.8824 3.39329 22.1571C3.35801 22.0925 3.33726 22.0201 3.33746 21.946C3.34396 21.9941 3.34677 22.0142 3.34677 22.0142C3.34687 22.0142 3.29084 21.5983 3.27883 21.4949L3.27688 21.4804ZM1.50585 18.2192C1.54018 20.4773 1.6295 22.7328 1.77383 24.9757C1.77614 25.0114 1.80591 25.039 1.84136 25.039L1.84583 25.0388C1.88304 25.0364 1.91143 25.0043 1.909 24.9669C1.74489 22.4177 1.65192 19.8523 1.63015 17.285C1.64058 17.2178 1.65127 17.1509 1.66235 17.0837C1.65054 16.9634 1.63863 16.8431 1.62662 16.7228C1.61312 13.6901 1.69901 10.6564 1.88426 7.64461C1.88659 7.60745 1.8582 7.57529 1.8209 7.57291C1.82006 7.57291 1.81923 7.57291 1.8184 7.57291C1.78155 7.57291 1.75139 7.60007 1.74915 7.63651C1.59061 10.2138 1.50483 12.8071 1.49161 15.4022C1.43652 14.8723 1.38052 14.3425 1.32506 13.8125C1.32404 13.8721 1.32356 13.9295 1.32394 13.9828C1.34905 15.3994 1.4141 16.8152 1.50473 18.2294C1.50509 18.2261 1.50547 18.2228 1.50585 18.2192ZM1.8516 22.6075C1.91115 23.2723 1.96977 23.9369 2.02532 24.6017C2.02791 24.6608 2.0338 24.7232 2.04001 24.7868C2.0776 24.8073 2.11464 24.8254 2.15168 24.842C2.13344 24.7165 2.11576 24.5907 2.10283 24.4645C2.04523 23.8449 2.00912 23.224 1.98065 22.6027C1.95264 22.6073 1.92456 22.6097 1.89655 22.6097C1.88157 22.6097 1.86668 22.6089 1.8516 22.6075Z" fill="#DEDEDE"/>
<path d="M3.90244 26.3689C3.83906 26.3689 3.77467 26.3615 3.71205 26.357C3.40975 26.3398 3.10679 26.331 2.80494 26.3063C2.18191 26.2741 1.5625 26.1016 1.10444 25.7284C1.05671 25.742 1.0074 25.7493 0.958167 25.7493C0.85155 25.7493 0.745194 25.715 0.655775 25.6364C0.470147 25.5111 0.429201 25.2639 0.404833 25.0564C0.377274 24.8278 0.366769 24.5974 0.357098 24.3676C0.283495 24.0167 0.261248 23.6544 0.261915 23.2969C0.257436 22.7576 0.227208 22.2192 0.20496 21.6807C0.202268 21.4625 0.317272 21.3019 0.473577 21.2126C0.502518 22.6685 0.546633 24.1289 0.619474 25.5774C1.80332 25.9635 2.77843 26.0168 3.75747 26.0168C3.94179 26.0168 4.12611 26.0149 4.31212 26.013L4.35268 26.0126C4.36319 26.0457 4.38208 26.0752 4.40683 26.0985C4.34516 26.1912 4.25292 26.2686 4.12704 26.3167C4.05727 26.3577 3.98059 26.3689 3.90244 26.3689ZM0.466597 20.8458C0.302193 18.8526 0.23614 16.8505 0.191931 14.8513C0.163561 13.4273 0.336065 12.0103 0.487726 10.5971C0.630097 9.12097 0.952022 7.6751 1.25089 6.22543C1.32497 5.94364 1.56483 5.80906 1.8046 5.80906C1.84174 5.80906 1.87878 5.81215 1.91534 5.81858C1.46796 6.51508 1.08982 7.48121 0.901143 8.41138C0.370295 11.0287 0.392924 13.7549 0.414885 16.3915C0.426962 17.8581 0.439347 19.349 0.466597 20.8458Z" fill="#2F2F2F"/>
<path d="M3.05777 8.07593C2.60277 7.43779 2.2866 6.68747 2.13818 5.90428C2.1768 5.92953 2.21243 5.9593 2.2438 5.99384L2.26381 6.00432C2.48805 6.1227 2.52852 6.38186 2.57849 6.60696C2.63702 6.85159 2.69619 7.0967 2.77722 7.33513C2.87903 7.65861 2.97402 7.88656 3.05777 8.07593Z" fill="#2F2F2F"/>
<path d="M4.40686 26.0985C4.38211 26.0752 4.36322 26.0456 4.35272 26.0125C4.34648 25.993 4.34314 25.9723 4.34314 25.9508C4.34314 25.7424 4.34276 25.5352 4.34202 25.3284C4.52384 25.538 4.56124 25.8665 4.40686 26.0985ZM4.34202 25.3272C4.32442 20.6116 4.10559 16.3683 3.6491 12.0415C3.75629 12.6215 3.84181 13.206 3.9115 13.7925C4.34193 16.9422 4.18662 20.1326 4.49833 23.2911C4.53508 23.702 4.55797 24.1136 4.59053 24.5247C4.59408 24.7293 4.674 24.9525 4.56021 25.14C4.51005 25.2286 4.43116 25.2905 4.34202 25.3272ZM3.59327 11.5222C3.55578 11.1809 3.51678 10.8379 3.47631 10.4951C3.49763 10.5966 3.51762 10.7028 3.53615 10.8143C3.55837 11.0472 3.6759 11.2964 3.59327 11.5222ZM3.29831 9.05352C3.27227 8.85224 3.24583 8.65049 3.21875 8.44802C3.2677 8.57236 3.30817 8.69837 3.33814 8.85129C3.33785 8.92561 3.32353 8.9935 3.29831 9.05352Z" fill="#2F2F2F"/>
<path d="M1.84096 25.0398C1.80551 25.0398 1.77574 25.0122 1.77343 24.9764C1.6291 22.7336 1.53978 20.4781 1.50545 18.2199C1.54016 17.9077 1.58175 17.5961 1.62975 17.2857C1.65152 19.853 1.74449 22.4184 1.9086 24.9676C1.91103 25.005 1.88264 25.0372 1.84543 25.0396L1.84096 25.0398ZM1.62622 16.7236C1.5822 16.2831 1.53699 15.8432 1.49121 15.403C1.50443 12.8078 1.5902 10.2146 1.74875 7.63727C1.75099 7.60082 1.78115 7.57367 1.81799 7.57367C1.81883 7.57367 1.81966 7.57367 1.8205 7.57367C1.8578 7.57605 1.88619 7.60821 1.88386 7.64537C1.69861 10.6571 1.61272 13.6908 1.62622 16.7236Z" fill="#2F2F2F"/>
<path d="M3.20262 25.4227C3.1667 25.4227 3.13674 25.3946 3.13497 25.3584L2.61353 14.4849C2.61846 14.4847 2.62339 14.4847 2.62823 14.4847C2.66927 14.4847 2.71022 14.4894 2.74985 14.499L3.27017 25.3517C3.27203 25.3894 3.24328 25.4211 3.20586 25.4227H3.20262ZM2.66489 12.7282C2.61094 12.3764 2.54953 12.0241 2.47852 11.6687L2.36605 9.3222C2.36426 9.28504 2.39301 9.25312 2.43043 9.25146C2.43229 9.25122 2.43405 9.25122 2.43581 9.25122C2.46968 9.25122 2.49956 9.28004 2.50122 9.31577L2.66489 12.7282Z" fill="#2F2F2F"/>
<path d="M3.71678 25.0123C3.70776 24.9749 3.70133 24.9366 3.70068 24.8978C3.7059 24.9359 3.71128 24.9742 3.71678 25.0123Z" fill="#DEDEDE"/>
<path d="M3.71676 25.0123C3.71126 24.9742 3.70587 24.9359 3.70066 24.8978C3.70056 24.8956 3.70056 24.8937 3.70056 24.8918C3.70597 24.9318 3.71126 24.9721 3.71676 25.0123Z" fill="#C1C1C1"/>
<path d="M16.887 19.7448C16.78 19.7448 16.6743 19.7419 16.5706 19.7371C15.9547 19.7259 15.3275 19.7119 14.7267 19.5651C14.6772 19.5432 14.6281 19.5201 14.5783 19.4982C14.4531 19.4434 14.3756 19.4158 14.242 19.3479C14.0164 19.2336 13.8564 19.1231 13.693 18.9377C13.677 18.9196 13.6563 18.9065 13.6341 18.897C13.4462 18.6057 13.3195 18.2713 13.1975 17.9514C13.1687 17.8756 13.1106 17.8163 13.0382 17.7949C13.011 17.7656 13.0034 17.7532 13.0105 17.7532C13.0112 17.7532 13.012 17.7532 13.0129 17.7534L13.017 17.7546C12.3324 17.3023 11.135 16.056 9.84506 15.0527C9.25459 14.5458 8.10362 13.8046 7.23753 13.0604C6.58975 12.504 5.91329 11.9812 5.31065 11.374C4.68343 10.7428 4.75386 10.7373 4.28871 10.1849C4.2112 10.1106 4.17947 10.0208 4.18097 9.93241C4.02224 9.70612 3.87782 9.50604 3.74197 9.32167C3.7202 9.14993 3.69805 8.97724 3.67554 8.80478C4.06494 9.20067 4.49303 9.54915 4.91157 9.89002L8.6015 12.8942C8.59135 12.9142 8.57944 12.933 8.56577 12.9504C8.84184 13.1524 9.12182 13.3487 9.40142 13.5456L13.8442 17.1629C13.8449 17.1634 13.8454 17.1639 13.8459 17.1643C13.8564 17.1805 13.8661 17.197 13.8747 17.2141C13.8828 17.2332 13.8902 17.2501 13.8969 17.2656C13.9011 17.4847 13.9073 17.6974 13.9157 17.9063C13.9297 18.2562 13.9781 18.6112 14.2363 18.8358C14.3978 18.9766 14.5945 19.0228 14.782 19.0578C15.3937 19.1724 16.0109 19.2298 16.6285 19.2298C17.1537 19.2298 17.6794 19.1881 18.2023 19.1052C18.3864 19.0759 18.5796 19.0363 18.7418 18.9037C18.9693 18.7179 19.0448 18.4197 19.0886 18.1524C19.1546 17.7491 19.1891 17.3368 19.1922 16.9238L26.2355 11.2444C27.214 10.4553 28.169 9.64014 28.7368 8.9084C28.7559 9.07918 28.7752 9.25355 28.7945 9.43005C28.6925 9.56344 28.5634 9.68326 28.4598 9.80617C28.0816 10.1756 27.6859 10.5272 27.3181 10.9078C26.5733 11.616 25.8199 12.3165 25.0481 12.9956C24.6453 13.2341 24.2763 13.5533 23.9202 13.8446C23.4831 14.2024 23.0644 14.5811 22.6445 14.9586C22.2255 15.3355 21.8179 15.7271 21.3844 16.0875C20.9563 16.4433 20.5157 16.7685 20.0645 17.0926C19.8339 17.2584 19.6722 17.4599 19.556 17.6858L19.5455 17.6903L19.55 17.6979C19.4114 17.9714 19.3385 18.2798 19.2913 18.6052L19.2901 18.6578C19.2401 18.7465 19.1858 18.8322 19.1186 18.9103C18.5948 19.5816 17.7066 19.7448 16.887 19.7448Z" fill="#DEDEDE"/>
<path d="M28.7945 9.43042C28.7752 9.25392 28.7559 9.07955 28.7368 8.90876C28.7706 8.86541 28.8028 8.82254 28.8338 8.77966C28.9255 8.86089 28.9798 8.98142 28.9529 9.11409C28.9276 9.23081 28.8681 9.33419 28.7945 9.43042Z" fill="#2F2F2F"/>
<path d="M13.846 17.1648C13.8455 17.1643 13.845 17.1638 13.8443 17.1634L9.4015 13.5461C9.85817 13.8679 10.3135 14.1914 10.7473 14.5444C11.6562 15.2568 11.9556 15.5181 12.6676 16.0436C13.1857 16.3961 13.7385 16.847 13.8088 17.0981L13.821 17.1269C13.8295 17.1395 13.8379 17.1519 13.846 17.1648ZM8.60158 12.8946L4.91165 9.89046C4.49311 9.5496 4.06502 9.20112 3.67562 8.80523C3.66278 8.70685 3.64984 8.60871 3.63672 8.5101C4.09694 8.92266 4.53704 9.35237 4.97194 9.79184C5.43233 10.257 5.89672 10.7144 6.42188 11.1062C6.89782 11.4616 7.38593 11.7984 7.8679 12.1455C8.13866 12.3403 8.39149 12.5507 8.63945 12.7672C8.63462 12.8115 8.62178 12.8551 8.60158 12.8946Z" fill="#2F2F2F"/>
<path d="M3.74212 9.32202C3.6461 9.19197 3.55435 9.06929 3.46467 8.95091C3.35495 8.77607 3.42558 8.56407 3.57055 8.45093C3.5927 8.47046 3.61476 8.49023 3.63679 8.51C3.64991 8.60862 3.66285 8.70676 3.67569 8.80513C3.6982 8.97759 3.72035 9.15028 3.74212 9.32202Z" fill="#2F2F2F"/>
<path d="M19.1921 16.9236C19.1926 16.8383 19.1918 16.7533 19.1899 16.668C19.193 16.6656 19.1964 16.663 19.1997 16.6604C19.3786 16.5158 19.5565 16.37 19.7352 16.2252C19.749 16.2278 19.7633 16.2295 19.7776 16.2295C19.8219 16.2295 19.8674 16.2154 19.9093 16.1816C21.0527 15.2569 22.1488 14.271 23.261 13.3096C23.6059 13.0114 23.9541 12.7175 24.3033 12.4245C24.4098 12.3361 24.5161 12.2473 24.6218 12.158C24.866 11.9543 25.1096 11.7504 25.354 11.5472C25.3638 11.5465 25.3736 11.5463 25.3833 11.5463C25.4024 11.5463 25.4212 11.5475 25.4398 11.5503C25.657 11.3543 25.8771 11.1613 26.1065 10.9784C26.3373 10.7755 26.5605 10.5642 26.7818 10.3507C27.3725 9.851 27.9685 9.35722 28.5635 8.86296C28.63 8.8077 28.6438 8.73981 28.6257 8.67883C28.7024 8.69193 28.7755 8.72766 28.8336 8.77911C28.8027 8.82199 28.7705 8.86486 28.7367 8.90821C28.1688 9.63996 27.2139 10.4551 26.2354 11.2442L19.1921 16.9236Z" fill="#2F2F2F"/>
<path d="M14.526 18.5476C14.5181 18.5419 14.5103 18.5357 14.5031 18.5293C14.4843 18.5131 14.4676 18.4945 14.4526 18.474L14.4988 18.4571L14.5017 18.4719C14.5077 18.4978 14.5162 18.5228 14.526 18.5476Z" fill="#DEDEDE"/>
<path d="M16.6286 19.2302C16.011 19.2302 15.3938 19.1728 14.7821 19.0582C14.5947 19.0232 14.3979 18.977 14.2364 18.8362C13.9782 18.6116 13.9298 18.2567 13.9158 17.9068C13.9075 17.6979 13.9013 17.4852 13.897 17.266C13.9932 17.4838 13.9741 17.373 14.0792 17.7803C14.0863 17.8463 14.134 17.9878 14.1471 18.0309L14.1473 18.0316C14.1664 18.0833 14.2328 18.1855 14.2678 18.2388C14.3338 18.3139 14.405 18.3849 14.4391 18.4797L14.4527 18.4747C14.4677 18.4951 14.4844 18.5137 14.5032 18.5299C14.5103 18.5364 14.5182 18.5425 14.5261 18.5483C14.5332 18.5657 14.5408 18.583 14.5484 18.6004C14.5582 18.6231 14.5708 18.6443 14.5849 18.6645C14.6366 18.7021 14.6795 18.7464 14.7138 18.7953C14.7414 18.8098 14.7716 18.8186 14.8038 18.8186C14.844 18.8186 14.8898 18.8034 14.9238 18.7776C14.9567 18.7936 14.9929 18.8043 15.0308 18.8086C15.531 18.8665 16.0334 18.8813 16.536 18.8813C16.7823 18.8813 17.0288 18.8777 17.2751 18.8739C17.4652 18.871 17.6553 18.8644 17.8456 18.8589C18.0159 18.8541 18.1924 18.8601 18.3544 18.7989C18.5147 18.7379 18.6328 18.6088 18.6912 18.4568C18.741 18.433 18.781 18.3913 18.7996 18.3332C18.846 18.1888 18.8513 18.0288 18.8622 17.8784C18.8653 17.8356 18.867 17.7927 18.8691 17.7498C18.8958 17.7027 18.9251 17.6574 18.9634 17.6202C18.933 17.6007 18.9044 17.5793 18.8772 17.5557C18.8786 17.5073 18.8801 17.459 18.8813 17.4106C18.8877 17.1453 18.8884 16.8799 18.8884 16.6143C18.9289 16.6691 18.9975 16.7084 19.0702 16.7084C19.1102 16.7084 19.1516 16.6965 19.1902 16.6686C19.1921 16.7539 19.1928 16.839 19.1924 16.9242C19.1893 17.3373 19.1547 17.7496 19.0887 18.1529C19.0449 18.4201 18.9694 18.7183 18.7419 18.9041C18.5797 19.0368 18.3865 19.0763 18.2024 19.1056C17.6796 19.1885 17.1539 19.2302 16.6286 19.2302Z" fill="#2F2F2F"/>
<path d="M11.1826 4.43604C11.1508 4.17473 11.1355 3.92939 11.1364 3.69643C11.1622 3.68071 11.1903 3.66666 11.2211 3.65499C11.3109 3.6114 11.4107 3.60687 11.5115 3.60687C11.5253 3.60687 11.5391 3.60687 11.5532 3.60687C11.5672 3.60711 11.5813 3.60711 11.5953 3.60711C11.6377 3.60711 11.6799 3.60615 11.7209 3.6021C11.9178 3.59996 12.1163 3.59115 12.314 3.59115C12.4586 3.59115 12.6027 3.59591 12.7458 3.61092C12.7825 3.61735 12.8173 3.62878 12.8494 3.6445C12.8547 3.73716 12.8625 3.82959 12.8706 3.92153C12.8856 4.09446 12.9002 4.26215 12.8949 4.42079C12.3268 4.42556 11.7556 4.43056 11.1826 4.43604Z" fill="#DEDEDE"/>
<path d="M11.0459 4.4375C10.8652 4.22431 10.8705 3.86011 11.1364 3.69647C11.1355 3.92943 11.1509 4.17477 11.1827 4.43607C11.1372 4.43655 11.0914 4.43702 11.0459 4.4375ZM12.895 4.42083C12.9002 4.26219 12.8857 4.0945 12.8707 3.92156C12.8626 3.82962 12.8547 3.7372 12.8495 3.64454C13.0977 3.7653 13.1987 4.13404 13.0079 4.35032C12.9903 4.37748 12.9703 4.40058 12.9486 4.42035C12.9307 4.42059 12.9129 4.42059 12.895 4.42083Z" fill="#2F2F2F"/>
<path d="M11.4053 4.60132C11.2511 4.60132 11.1288 4.53533 11.0459 4.43743C11.0914 4.43696 11.1372 4.43648 11.1827 4.436C11.7557 4.43053 12.3269 4.42553 12.895 4.42076C12.9128 4.42052 12.9307 4.42052 12.9486 4.42029C12.7999 4.55558 12.5627 4.53891 12.37 4.54486C12.0506 4.56582 11.7311 4.58393 11.4117 4.60132C11.4096 4.60132 11.4074 4.60132 11.4053 4.60132Z" fill="#2F2F2F"/>
<path d="M18.5229 4.37085C18.5301 4.29201 18.5389 4.21221 18.5475 4.13218C18.568 3.94591 18.5887 3.75749 18.5911 3.56979C18.617 3.56527 18.6432 3.56169 18.669 3.55812C18.8867 3.52215 19.1053 3.49166 19.3247 3.46689C19.4169 3.45069 19.5115 3.44069 19.6029 3.44069C19.7945 3.44069 19.9729 3.48475 20.087 3.60957C20.1046 3.81275 20.122 4.02642 20.1196 4.23818C20.0855 4.28272 20.0438 4.32059 19.9967 4.35204C19.5046 4.35894 19.0129 4.36513 18.5229 4.37085Z" fill="#DEDEDE"/>
<path d="M18.2777 4.37378C18.1212 4.16893 18.1086 3.85379 18.3632 3.67014C18.4251 3.60845 18.5073 3.58439 18.5911 3.56986C18.5888 3.75756 18.568 3.94598 18.5476 4.13225C18.539 4.21228 18.5302 4.29207 18.523 4.37092C18.4411 4.37187 18.3594 4.37283 18.2777 4.37378ZM20.1197 4.23825C20.122 4.02649 20.1047 3.81282 20.087 3.60964C20.158 3.68753 20.2042 3.79663 20.213 3.94598C20.2145 4.06293 20.1792 4.16036 20.1197 4.23825Z" fill="#2F2F2F"/>
<path d="M18.6623 4.57092C18.5027 4.57092 18.3669 4.49017 18.2778 4.37346C18.3595 4.3725 18.4412 4.37155 18.5232 4.37059C19.0132 4.36488 19.5048 4.35869 19.9969 4.35178C19.8852 4.4261 19.743 4.46373 19.6013 4.46373C19.5844 4.46373 19.5674 4.46326 19.5505 4.46206C19.0408 4.50399 19.2156 4.49184 18.8023 4.55067C18.754 4.56449 18.7073 4.57092 18.6623 4.57092Z" fill="#2F2F2F"/>
</svg>
