<svg width="16" height="16" viewBox="0 0 16 16" fill="none" xmlns="http://www.w3.org/2000/svg">
<g clip-path="url(#clip0_8836_2928)">
<g clip-path="url(#clip1_8836_2928)">
<path d="M1.33325 12C1.33325 10.973 1.33325 10.4595 1.5644 10.0823C1.69375 9.87127 1.87121 9.69381 2.08227 9.56447C2.45948 9.33331 2.97296 9.33331 3.99992 9.33331C5.02688 9.33331 5.54036 9.33331 5.91756 9.56447C6.12863 9.69381 6.30609 9.87127 6.43543 10.0823C6.66659 10.4595 6.66659 10.973 6.66659 12C6.66659 13.0269 6.66659 13.5404 6.43543 13.9176C6.30609 14.1287 6.12863 14.3062 5.91756 14.4355C5.54036 14.6666 5.02688 14.6666 3.99992 14.6666C2.97296 14.6666 2.45948 14.6666 2.08227 14.4355C1.87121 14.3062 1.69375 14.1287 1.5644 13.9176C1.33325 13.5404 1.33325 13.0269 1.33325 12Z" fill="#A693FC" stroke="#A693FC"/>
<path d="M9.33325 12C9.33325 10.973 9.33325 10.4595 9.5644 10.0823C9.69375 9.87127 9.87121 9.69381 10.0823 9.56447C10.4595 9.33331 10.973 9.33331 11.9999 9.33331C13.0269 9.33331 13.5404 9.33331 13.9176 9.56447C14.1286 9.69381 14.3061 9.87127 14.4354 10.0823C14.6666 10.4595 14.6666 10.973 14.6666 12C14.6666 13.0269 14.6666 13.5404 14.4354 13.9176C14.3061 14.1287 14.1286 14.3062 13.9176 14.4355C13.5404 14.6666 13.0269 14.6666 11.9999 14.6666C10.973 14.6666 10.4595 14.6666 10.0823 14.4355C9.87121 14.3062 9.69375 14.1287 9.5644 13.9176C9.33325 13.5404 9.33325 13.0269 9.33325 12Z" fill="#A693FC" stroke="#A693FC"/>
<path d="M1.33325 3.99998C1.33325 2.97302 1.33325 2.45954 1.5644 2.08233C1.69375 1.87127 1.87121 1.69381 2.08227 1.56447C2.45948 1.33331 2.97296 1.33331 3.99992 1.33331C5.02688 1.33331 5.54036 1.33331 5.91756 1.56447C6.12863 1.69381 6.30609 1.87127 6.43543 2.08233C6.66659 2.45954 6.66659 2.97302 6.66659 3.99998C6.66659 5.02694 6.66659 5.54042 6.43543 5.91762C6.30609 6.12869 6.12863 6.30615 5.91756 6.43549C5.54036 6.66665 5.02688 6.66665 3.99992 6.66665C2.97296 6.66665 2.45948 6.66665 2.08227 6.43549C1.87121 6.30615 1.69375 6.12869 1.5644 5.91762C1.33325 5.54042 1.33325 5.02694 1.33325 3.99998Z" fill="#A693FC" stroke="#A693FC"/>
<path d="M9.33325 3.99998C9.33325 2.97302 9.33325 2.45954 9.5644 2.08233C9.69375 1.87127 9.87121 1.69381 10.0823 1.56447C10.4595 1.33331 10.973 1.33331 11.9999 1.33331C13.0269 1.33331 13.5404 1.33331 13.9176 1.56447C14.1286 1.69381 14.3061 1.87127 14.4354 2.08233C14.6666 2.45954 14.6666 2.97302 14.6666 3.99998C14.6666 5.02694 14.6666 5.54042 14.4354 5.91762C14.3061 6.12869 14.1286 6.30615 13.9176 6.43549C13.5404 6.66665 13.0269 6.66665 11.9999 6.66665C10.973 6.66665 10.4595 6.66665 10.0823 6.43549C9.87121 6.30615 9.69375 6.12869 9.5644 5.91762C9.33325 5.54042 9.33325 5.02694 9.33325 3.99998Z" fill="#A693FC" stroke="#A693FC"/>
</g>
</g>
<defs>
<clipPath id="clip0_8836_2928">
<rect width="16" height="16" fill="white"/>
</clipPath>
<clipPath id="clip1_8836_2928">
<rect width="16" height="16" fill="white"/>
</clipPath>
</defs>
</svg>
