<svg xmlns="http://www.w3.org/2000/svg" width="16" height="16" viewBox="0 0 16 16" fill="none">
  <path d="M7.99561 9.72731C7.66745 9.72761 7.34659 9.6304 7.07376 9.44804C6.80093 9.26568 6.58842 9.00638 6.4632 8.70304C6.33798 8.3997 6.3057 8.06601 6.37045 7.74429C6.43519 7.42258 6.59405 7.12735 6.82686 6.89606C6.87077 6.85256 6.92282 6.81814 6.98004 6.79475C7.03725 6.77137 7.09851 6.75948 7.16032 6.75977C7.22213 6.76006 7.28328 6.77252 7.34027 6.79644C7.39726 6.82037 7.44899 6.85528 7.49249 6.89919C7.53599 6.9431 7.57041 6.99515 7.5938 7.05236C7.61718 7.10958 7.62907 7.17084 7.62878 7.23265C7.62849 7.29446 7.61603 7.3556 7.59211 7.4126C7.56819 7.46959 7.53327 7.52131 7.48936 7.56481C7.42194 7.63074 7.3684 7.7095 7.3319 7.79644C7.29541 7.88339 7.27669 7.97677 7.27686 8.07106C7.26855 8.2195 7.30689 8.36683 7.38649 8.49239C7.4661 8.61796 7.58299 8.71548 7.72079 8.77129C7.85859 8.82709 8.0104 8.8384 8.15494 8.80362C8.29949 8.76883 8.42954 8.6897 8.52686 8.57731C8.61582 8.48915 8.73599 8.43968 8.86124 8.43968C8.98648 8.43968 9.10666 8.48915 9.19561 8.57731C9.2823 8.66704 9.33075 8.78693 9.33075 8.91169C9.33075 9.03645 9.2823 9.15634 9.19561 9.24606C9.03766 9.40207 8.85017 9.52499 8.64411 9.60763C8.43806 9.69026 8.21759 9.73095 7.99561 9.72731Z" fill="#3D7DC3"/>
  <path d="M14.4004 8.07031C14.4004 9.76936 13.7254 11.3988 12.524 12.6002C11.3226 13.8016 9.69318 14.4766 7.99414 14.4766C6.2951 14.4766 4.66564 13.8016 3.46424 12.6002C2.26283 11.3988 1.58789 9.76936 1.58789 8.07031C1.58789 6.37127 2.26283 4.74181 3.46424 3.54041C4.66564 2.339 6.2951 1.66406 7.99414 1.66406C8.11846 1.66406 8.23769 1.71345 8.3256 1.80136C8.41351 1.88926 8.46289 2.00849 8.46289 2.13281V4.50781C8.46127 4.63163 8.41137 4.74992 8.32381 4.83748C8.23625 4.92504 8.11796 4.97494 7.99414 4.97656C7.38204 4.97235 6.78295 5.15317 6.27539 5.49531C5.76497 5.83359 5.36692 6.31629 5.13203 6.88179C4.89715 7.44729 4.83609 8.06995 4.95664 8.67031C5.15269 9.38255 5.59473 10.0023 6.2043 10.4196C6.81387 10.8369 7.55157 11.0248 8.28649 10.9499C9.02141 10.8749 9.70603 10.5421 10.2189 10.0104C10.7317 9.47866 11.0396 8.78246 11.0879 8.04531C11.087 7.98352 11.0986 7.92219 11.1219 7.86494C11.1451 7.80769 11.1796 7.75568 11.2233 7.71198C11.267 7.66829 11.319 7.63379 11.3763 7.61053C11.4335 7.58727 11.4949 7.57572 11.5566 7.57656H13.9316C13.9954 7.57647 14.0584 7.58937 14.117 7.61448C14.1756 7.63958 14.2284 7.67636 14.2723 7.72257C14.3161 7.76878 14.3501 7.82345 14.3721 7.88324C14.3942 7.94303 14.4038 8.00668 14.4004 8.07031Z" fill="#3D7DC3"/>
  <path d="M14.1757 4.40113C14.1593 4.52272 14.1096 4.6374 14.0319 4.73238L12.6757 6.08863C12.4828 6.28228 12.2442 6.42416 11.9819 6.50113C11.8281 6.54837 11.6678 6.57156 11.5069 6.56988C11.3967 6.57965 11.2859 6.57965 11.1757 6.56988L10.3444 6.40738L8.91942 7.83863C8.82981 7.92385 8.71179 7.97283 8.58817 7.97613C8.46389 7.97602 8.34474 7.92656 8.25692 7.83863C8.2127 7.79554 8.17755 7.74402 8.15355 7.68713C8.12955 7.63024 8.11719 7.56912 8.11719 7.50738C8.11719 7.44563 8.12955 7.38451 8.15355 7.32762C8.17755 7.27073 8.2127 7.21922 8.25692 7.17613L9.68817 5.73863L9.51942 4.91363C9.46898 4.64771 9.48183 4.37366 9.55692 4.11363C9.63389 3.85136 9.77576 3.61275 9.96942 3.41988L11.3132 2.07613C11.4055 1.99213 11.5209 1.93771 11.6444 1.91988C11.76 1.90313 11.878 1.92278 11.9819 1.97613C12.0851 2.02858 12.1716 2.10864 12.2319 2.20738C12.2929 2.31786 12.3191 2.44424 12.3069 2.56988L12.1069 3.98238L13.5132 3.78863C13.6309 3.77707 13.7493 3.80132 13.853 3.85819C13.9568 3.91506 14.0409 4.00191 14.0944 4.10738C14.1453 4.19709 14.1732 4.298 14.1757 4.40113Z" fill="#3D7DC3"/>
</svg>