<svg width="18" height="18" viewBox="0 0 18 18" fill="none" xmlns="http://www.w3.org/2000/svg">
<g clip-path="url(#clip0_7556_14952)">
<path d="M12.75 9C12.75 11.0711 11.0711 12.75 9 12.75C6.92893 12.75 5.25 11.0711 5.25 9C5.25 6.92893 6.92893 5.25 9 5.25" stroke="#5B5FC7" stroke-width="1.125" stroke-linecap="round"/>
<path d="M10.5 1.65003C10.0153 1.55165 9.5137 1.5 9 1.5C4.85786 1.5 1.5 4.85786 1.5 9C1.5 13.1421 4.85786 16.5 9 16.5C13.1421 16.5 16.5 13.1421 16.5 9C16.5 8.4863 16.4484 7.98466 16.35 7.5" stroke="#5B5FC7" stroke-width="1.125" stroke-linecap="round"/>
<path d="M8.60225 8.60225C8.38258 8.82192 8.38258 9.17808 8.60225 9.39775C8.82192 9.61742 9.17808 9.61742 9.39775 9.39775L8.60225 8.60225ZM14.7682 3.23184L14.2239 3.37385C14.2753 3.57086 14.4291 3.72471 14.6262 3.77612L14.7682 3.23184ZM14.3809 1.74755L13.8366 1.88956L13.8366 1.88956L14.3809 1.74755ZM13.7235 1.64254L14.1213 2.04029L14.1213 2.04029L13.7235 1.64254ZM12.8615 2.50458L12.4637 2.10684L12.4637 2.10684L12.8615 2.50458ZM12.2086 4.61347L11.6643 4.75548L11.6643 4.75548L12.2086 4.61347ZM16.2524 3.61911L16.1104 4.16339L16.1104 4.16339L16.2524 3.61911ZM16.3575 4.27647L15.9597 3.87872L15.9597 3.87872L16.3575 4.27647ZM15.4954 5.13851L15.8932 5.53626L15.8932 5.53626L15.4954 5.13851ZM13.3865 5.7914L13.2445 6.33567L13.2445 6.33567L13.3865 5.7914ZM12.4523 5.54765L12.0546 5.14991L8.60225 8.60225L9 9L9.39775 9.39775L12.8501 5.9454L12.4523 5.54765ZM14.7682 3.23184L15.3124 3.08983L14.9252 1.60554L14.3809 1.74755L13.8366 1.88956L14.2239 3.37385L14.7682 3.23184ZM13.7235 1.64254L13.3258 1.2448L12.4637 2.10684L12.8615 2.50458L13.2592 2.90233L14.1213 2.04029L13.7235 1.64254ZM12.2086 4.61347L11.6643 4.75548L11.9081 5.68966L12.4523 5.54765L12.9966 5.40564L12.7529 4.47146L12.2086 4.61347ZM14.7682 3.23184L14.6262 3.77612L16.1104 4.16339L16.2524 3.61911L16.3945 3.07483L14.9102 2.68756L14.7682 3.23184ZM16.3575 4.27647L15.9597 3.87872L15.0977 4.74076L15.4954 5.13851L15.8932 5.53626L16.7552 4.67422L16.3575 4.27647ZM13.3865 5.7914L13.5285 5.24712L12.5944 5.00337L12.4523 5.54765L12.3103 6.09193L13.2445 6.33567L13.3865 5.7914ZM15.4954 5.13851L15.0977 4.74076C14.6319 5.20651 14.0146 5.37393 13.5285 5.24712L13.3865 5.7914L13.2445 6.33567C14.1739 6.57815 15.1894 6.24007 15.8932 5.53626L15.4954 5.13851ZM16.2524 3.61911L16.1104 4.16339C16.072 4.15336 16.0282 4.1289 15.9932 4.08844C15.9598 4.04991 15.9448 4.00918 15.9397 3.97762C15.9298 3.91523 15.955 3.88344 15.9597 3.87872L16.3575 4.27647L16.7552 4.67422C16.9895 4.43997 17.1011 4.11573 17.0507 3.80016C16.9985 3.47391 16.769 3.17255 16.3945 3.07483L16.2524 3.61911ZM12.8615 2.50458L12.4637 2.10684C11.7599 2.81065 11.4218 3.82613 11.6643 4.75548L12.2086 4.61347L12.7529 4.47146C12.6261 3.98543 12.7935 3.36807 13.2592 2.90233L12.8615 2.50458ZM14.3809 1.74755L14.9252 1.60554C14.8274 1.231 14.5261 1.00146 14.1998 0.949346C13.8843 0.898936 13.56 1.01055 13.3258 1.2448L13.7235 1.64254L14.1213 2.04029C14.1166 2.045 14.0848 2.07023 14.0224 2.06026C13.9908 2.05522 13.9501 2.0402 13.9116 2.00682C13.8711 1.97177 13.8466 1.92799 13.8366 1.88956L14.3809 1.74755Z" fill="#5B5FC7"/>
</g>
<defs>
<clipPath id="clip0_7556_14952">
<rect width="18" height="18" fill="white"/>
</clipPath>
</defs>
</svg>
