<svg width="16" height="18" viewBox="0 0 16 18" fill="none" xmlns="http://www.w3.org/2000/svg">
<path d="M13.625 9.75V7.5C13.625 5.025 13.625 3.7875 12.8563 3.01875C12.0875 2.25 10.85 2.25 8.375 2.25H6.125C3.65 2.25 2.4125 2.25 1.64375 3.01875C0.875 3.7875 0.875 5.025 0.875 7.5V11.25C0.875 13.725 0.875 14.9625 1.64375 15.7312C2.4125 16.5 3.65 16.5 6.125 16.5H7.25M11 1.5V3M7.25 1.5V3M3.5 1.5V3M9.125 15C9.125 15 9.875 15 10.625 16.5C10.625 16.5 13.0078 12.75 15.125 12M4.25 11.25H7.25M4.25 7.5H10.25" stroke="#606062" stroke-width="1.5" stroke-linecap="round" stroke-linejoin="round"/>
</svg>
