<svg width="16" height="16" viewBox="0 0 16 16" fill="none" xmlns="http://www.w3.org/2000/svg">
<g clip-path="url(#clip0_8836_4767)">
<path d="M6.33081 14.6666L9.66414 14.6666C11.5498 14.6666 12.4926 14.6666 13.0784 14.0803C13.6641 13.494 13.6641 12.5503 13.6641 10.6629V6.32555C13.6641 4.43818 13.6641 3.49449 13.0784 2.90816C12.6505 2.47987 12.0321 2.36443 10.9949 2.33331H5.00008C3.96288 2.36443 3.34449 2.47987 2.9166 2.90816C2.33081 3.49449 2.33081 4.43818 2.33081 6.32555V10.6629C2.33081 12.5503 2.33081 13.494 2.9166 14.0803C3.50238 14.6666 4.44519 14.6666 6.33081 14.6666Z" stroke="#A693FC"/>
<path d="M4.99731 2.49998C4.99731 1.85565 5.51965 1.33331 6.16398 1.33331H9.83065C10.475 1.33331 10.9973 1.85565 10.9973 2.49998C10.9973 3.14431 10.475 3.66665 9.83065 3.66665H6.16398C5.51965 3.66665 4.99731 3.14431 4.99731 2.49998Z" fill="#A693FC" stroke="#A693FC" stroke-linejoin="round"/>
<path d="M9 8.66669H11.3333" stroke="#A693FC" stroke-linecap="round"/>
<path d="M4.66675 9.33333C4.66675 9.33333 5.00008 9.33333 5.33341 10C5.33341 10 6.39224 8.33333 7.33341 8" stroke="#A693FC" stroke-linecap="round" stroke-linejoin="round"/>
</g>
<defs>
<clipPath id="clip0_8836_4767">
<rect width="16" height="16" fill="white"/>
</clipPath>
</defs>
</svg>
