<svg width="15" height="11" viewBox="0 0 15 11" fill="none" xmlns="http://www.w3.org/2000/svg">
<path d="M2.795 0.96875C2.42187 0.96875 1.98687 1.0725 1.63125 1.29312C1.26875 1.51687 0.9375 1.90187 0.9375 2.45312V8.54687C0.9375 9.09812 1.26875 9.4825 1.63125 9.70687C1.9875 9.9275 2.42187 10.0312 2.795 10.0312H9.23125C9.6796 10.0313 10.1102 9.85612 10.4312 9.54312L13.775 6.28312C13.8795 6.18123 13.9626 6.05944 14.0193 5.92495C14.076 5.79045 14.1052 5.64596 14.1052 5.5C14.1052 5.35404 14.076 5.20955 14.0193 5.07505C13.9626 4.94056 13.8795 4.81877 13.775 4.71687L10.4312 1.45687C10.1102 1.14388 9.6796 0.968713 9.23125 0.96875H2.795Z" fill="#E17059"/>
</svg>
