<svg xmlns="http://www.w3.org/2000/svg" width="10" height="11" viewBox="0 0 10 11" fill="none">
<g clip-path="url(#clip0_9375_21911)">
<rect width="9.87034" height="9.87034" transform="translate(0.0644531 0.580078)" fill="white"/>
<path d="M1.90392 2.5332C1.65839 2.5332 1.37215 2.60147 1.13814 2.74665C0.89961 2.89388 0.681641 3.14722 0.681641 3.50996V7.51978C0.681641 7.88251 0.89961 8.13544 1.13814 8.28308C1.37256 8.42826 1.65839 8.49653 1.90392 8.49653H6.13911C6.43414 8.49655 6.7175 8.38129 6.92874 8.17533L9.129 6.03018C9.19777 5.96313 9.25243 5.88299 9.28974 5.79449C9.32706 5.70599 9.34628 5.61091 9.34628 5.51487C9.34628 5.41882 9.32706 5.32374 9.28974 5.23524C9.25243 5.14674 9.19777 5.0666 9.129 4.99955L6.92874 2.8544C6.7175 2.64844 6.43414 2.53318 6.13911 2.5332H1.90392Z" fill="#5CA9E3"/>
</g>
<defs>
<clipPath id="clip0_9375_21911">
<rect width="9.87034" height="9.87034" fill="white" transform="translate(0.0644531 0.580078)"/>
</clipPath>
</defs>
</svg>