<svg width="25" height="25" viewBox="0 0 25 25" fill="none" xmlns="http://www.w3.org/2000/svg">
<circle cx="12.5" cy="12.0703" r="11.5" fill="white" stroke="#F0F0F0"/>
<rect width="10" height="10" transform="translate(7.5 7.07031)" fill="white"/>
<path d="M9.36333 9.04883C9.11458 9.04883 8.82458 9.11799 8.5875 9.26508C8.34583 9.41424 8.125 9.67091 8.125 10.0384V14.1009C8.125 14.4684 8.34583 14.7247 8.5875 14.8742C8.825 15.0213 9.11458 15.0905 9.36333 15.0905H13.6542C13.9531 15.0905 14.2402 14.9737 14.4542 14.7651L16.6833 12.5917C16.753 12.5238 16.8084 12.4426 16.8462 12.353C16.884 12.2633 16.9035 12.167 16.9035 12.0697C16.9035 11.9724 16.884 11.876 16.8462 11.7864C16.8084 11.6967 16.753 11.6155 16.6833 11.5476L14.4542 9.37424C14.2402 9.16558 13.9531 9.0488 13.6542 9.04883H9.36333Z" fill="#5CA9E3"/>
</svg>
