<svg width="18" height="13" viewBox="0 0 18 13" fill="none" xmlns="http://www.w3.org/2000/svg">
<path d="M2.72667 0.388672C2.22917 0.388672 1.64917 0.527005 1.175 0.821172C0.691667 1.11951 0.25 1.63284 0.25 2.36784V10.4928C0.25 11.2278 0.691667 11.7403 1.175 12.0395C1.65 12.3337 2.22917 12.472 2.72667 12.472H11.3083C11.9061 12.4721 12.4803 12.2385 12.9083 11.8212L17.3667 7.4745C17.506 7.33864 17.6168 7.17626 17.6924 6.99693C17.768 6.81761 17.8069 6.62496 17.8069 6.43034C17.8069 6.23572 17.768 6.04307 17.6924 5.86374C17.6168 5.68441 17.506 5.52203 17.3667 5.38617L12.9083 1.03951C12.4803 0.622176 11.9061 0.388623 11.3083 0.388672H2.72667Z" fill="black"/>
</svg>
