<svg width="16" height="16" viewBox="0 0 16 16" fill="none" xmlns="http://www.w3.org/2000/svg">
<g clip-path="url(#clip0_8836_4795)">
<path d="M9 13.3334C9 13.3334 9.66667 13.3334 10.3333 14.6667C10.3333 14.6667 12.451 11.3334 14.3333 10.6667" stroke="#A693FC" stroke-linecap="round" stroke-linejoin="round"/>
<path d="M4.66675 10.6666H7.33341M4.66675 7.33331H10.0001" stroke="#A693FC" stroke-linecap="round"/>
<path d="M4.33333 2.33331C3.29613 2.36443 2.67774 2.47987 2.24985 2.90816C1.66406 3.49449 1.66406 4.43818 1.66406 6.32555L1.66406 10.6629C1.66406 12.5503 1.66406 13.494 2.24985 14.0803C2.83564 14.6666 3.77844 14.6666 5.66406 14.6666L7.33073 14.6666M10.3281 2.33331C11.3653 2.36443 11.9837 2.47987 12.4116 2.90816C12.9974 3.49449 12.9974 4.43818 12.9974 6.32555V8.99998" stroke="#A693FC" stroke-linecap="round"/>
<path d="M4.33081 2.49998C4.33081 1.85565 4.85315 1.33331 5.49748 1.33331H9.16414C9.80848 1.33331 10.3308 1.85565 10.3308 2.49998C10.3308 3.14431 9.80848 3.66665 9.16414 3.66665H5.49748C4.85314 3.66665 4.33081 3.14431 4.33081 2.49998Z" fill="#A693FC" stroke="#A693FC" stroke-linejoin="round"/>
</g>
<defs>
<clipPath id="clip0_8836_4795">
<rect width="16" height="16" fill="white"/>
</clipPath>
</defs>
</svg>
