<svg width="72" height="70" viewBox="0 0 72 70" fill="none" xmlns="http://www.w3.org/2000/svg">
<path d="M72 31.9653C72 55.4374 60.9721 69.9653 37.5 69.9653C14.0279 69.9653 0 52.9374 0 29.4653C0 5.99323 25.9943 0.034668 49.4664 0.034668C72.9385 0.034668 72 8.49323 72 31.9653Z" fill="url(#paint0_linear_6693_16805)"/>
<g clip-path="url(#clip0_6693_16805)">
<path d="M60.7637 53.8852C59.9995 53.9438 59.2283 53.8925 58.4568 53.9292C58.4715 53.8336 58.4863 53.738 58.5083 53.6427C59.0079 53.5471 59.5147 53.6133 60.0146 53.5985C60.3595 53.6133 60.7125 53.5693 61.0501 53.6352C61.212 53.8336 60.9032 53.8776 60.7637 53.8852ZM58.5816 54.0539C59.2795 54.0248 59.9774 54.0615 60.6831 54.0688C60.6831 54.0982 60.6757 54.1495 60.6757 54.179C59.9995 54.179 59.331 54.2011 58.6552 54.1644C58.6405 54.1349 58.6037 54.0834 58.5816 54.0539ZM58.6552 54.3258C59.3458 54.2818 60.051 54.2891 60.7416 54.3407C60.7416 54.4875 60.749 54.6271 60.749 54.774C60.0146 54.774 59.2795 54.774 58.5448 54.7667C58.5893 54.6198 58.6184 54.473 58.6552 54.3258ZM60.6021 56.0524C60.2053 55.9935 60.1832 56.4933 60.2274 56.7649C60.0658 56.5151 59.8453 56.2581 59.5147 56.28C59.5074 56.5006 59.5589 56.7209 59.6174 56.9339C59.3826 56.7576 59.14 56.6034 58.9269 56.405C58.5816 56.0375 58.4642 55.5162 58.4642 55.0237C59.2942 54.9651 60.1247 54.9724 60.9547 55.0237C60.8299 55.369 60.6831 55.6998 60.6021 56.0524ZM58.2072 52.0558C59.0815 52.0412 59.9627 52.0336 60.8369 51.9969C60.852 52.4599 60.8078 52.9227 60.8737 53.3782C60.1909 53.356 59.5 53.3709 58.8168 53.3709C58.7362 53.0917 58.501 52.93 58.229 52.8638C58.2072 52.5995 58.2072 52.3276 58.2072 52.0558ZM58.1851 51.5195C59.0664 51.5342 59.9406 51.5195 60.8152 51.5487C60.8152 51.6443 60.8226 51.7399 60.8226 51.8354C59.9483 51.8354 59.0664 51.8354 58.1921 51.8133C58.1921 51.7177 58.1921 51.6224 58.1851 51.5195ZM58.141 53.2826C57.5461 53.4149 56.9288 53.3341 56.3262 53.3415C56.341 53.2901 56.3778 53.1873 56.3921 53.1357C56.9726 53.1063 57.5605 53.099 58.1483 53.1357C58.141 53.1797 58.141 53.2459 58.141 53.2826ZM57.9573 56.8532C57.7368 56.831 57.5237 56.831 57.3035 56.8753C57.3915 57.0367 57.5093 57.1836 57.5531 57.3599C57.4799 57.5289 57.252 57.6024 57.0831 57.5657C56.8258 57.4482 56.7157 57.1029 56.4216 57.0516C56.2526 57.0883 56.1058 57.1985 55.9515 57.2719C55.9445 56.5667 55.9294 55.8688 55.9294 55.1633C56.6273 55.1487 57.3253 55.112 58.0158 55.2C58.0158 55.7511 58.0088 56.3021 57.9573 56.8532ZM58.0088 54.8917C57.3253 54.899 56.6494 54.9136 55.9662 54.9063C55.9736 54.473 55.9445 54.0394 56.0031 53.6133C56.3262 53.4956 56.6789 53.5544 57.0168 53.5471C57.3474 53.5544 57.6779 53.525 58.0015 53.5766C58.0232 54.0099 58.0015 54.4508 58.0088 54.8917ZM55.7167 51.4901C55.6283 51.4313 55.4741 51.4092 55.5109 51.2696C55.4741 49.3302 55.4594 47.3907 55.4741 45.4586C55.4229 45.1133 55.8709 45.0323 55.9294 44.7312C55.6651 44.3932 55.7531 43.9524 55.7388 43.5557C55.7388 43.3573 55.7531 43.1589 55.7752 42.9607C56.4952 42.9018 57.2152 42.9534 57.9352 42.9607C57.9278 46.274 57.9278 49.5872 57.9278 52.9005C57.1784 52.8566 56.4146 52.9667 55.6651 52.8198C55.6504 52.3716 55.6651 51.9307 55.7167 51.4901ZM55.2536 53.312C53.2188 53.3193 51.1835 53.3193 49.1413 53.2901C48.7375 53.2826 48.326 53.3047 47.9218 53.2607C47.8997 53.224 47.8629 53.143 47.8482 53.1063C49.2882 53.0477 50.7282 53.0622 52.1608 53.0477C53.2997 53.055 54.4383 53.0183 55.5768 53.0769C55.5256 53.224 55.4152 53.3341 55.2536 53.312ZM54.5115 57.2058C54.2767 57.0956 54.1372 57.3969 53.924 57.4336C53.7404 57.4188 53.6005 57.2498 53.4098 57.2792C53.1746 57.294 52.932 57.3086 52.6972 57.294C52.6604 57.1618 52.6162 57.0222 52.4546 57.0149C52.1976 56.9854 52.0946 56.7357 52.0802 56.5078C51.8299 56.6769 51.6466 56.9487 51.3451 57.0295C51.3161 56.8383 51.3013 56.6401 51.2866 56.449C51.0588 56.7576 50.7429 56.9706 50.4124 57.1618C50.4046 57.1177 50.3976 57.0295 50.3903 56.9854C50.1772 57.1102 49.9051 57.1545 49.685 57.0295C49.6114 56.912 49.6776 56.7576 49.685 56.6328C49.4792 56.618 49.2735 56.5959 49.0751 56.5591C49.0383 56.4271 49.0018 56.2875 48.965 56.1552C48.7666 56.449 48.4949 56.7576 48.1051 56.743C47.9365 56.7943 47.8997 56.6034 47.8924 56.4784C47.8556 56.0375 47.8408 55.6042 47.8261 55.1633C49.134 55.1487 50.4414 55.156 51.7419 55.1709C51.7567 55.4206 51.764 55.6703 51.7714 55.9201C52.5208 55.9128 53.2703 55.9274 54.012 55.9128C54.0194 55.6776 54.0271 55.4425 54.0194 55.2076C54.4383 55.2076 54.8494 55.2076 55.2683 55.2076C55.2978 55.9055 55.3272 56.6034 55.3489 57.3013C55.0773 57.3232 54.7835 57.294 54.5115 57.2058ZM53.6156 55.6115C53.101 55.6188 52.5794 55.6188 52.0651 55.6115C52.0578 55.1415 52.0725 54.6638 52.0725 54.1935C52.5867 54.1862 53.094 54.2011 53.6078 54.1935C53.6078 54.6638 53.6229 55.1415 53.6156 55.6115ZM55.2978 54.9136C54.8789 54.9136 54.4604 54.9063 54.0415 54.9136C54.0341 54.5683 54.0341 54.2305 54.0341 53.8852C53.2629 53.8776 52.4988 53.9071 51.7272 53.8776C51.7272 54.2157 51.7272 54.5537 51.7272 54.8917C50.4271 54.8917 49.134 54.899 47.8338 54.8917C47.9071 54.4581 47.8997 54.0248 47.9071 53.5839C50.3756 53.5912 52.8367 53.525 55.3051 53.5618C55.2904 54.0172 55.3051 54.4654 55.2978 54.9136ZM54.2619 50.9685C54.2546 49.2052 54.2546 47.4346 54.2325 45.6716C54.372 45.6716 54.5192 45.6716 54.6661 45.6641C54.6588 47.1336 54.6072 48.6102 54.5925 50.0794C54.6072 50.4469 54.5557 50.8216 54.6146 51.1888L54.7467 51.2917C54.5483 51.3578 54.3429 51.3357 54.1372 51.3433C54.2104 51.2404 54.284 51.1154 54.2619 50.9685ZM52.5278 44.2977C51.9477 44.3125 51.4261 44.599 50.9557 44.9149C50.934 44.9 50.8824 44.8708 50.8603 44.856C50.8313 44.7898 50.8018 44.7312 50.765 44.6651C51.2866 44.2242 51.8229 43.7099 52.5356 43.607C53.5199 43.6732 54.4677 44.4005 54.6731 45.3925C54.5557 45.3557 54.3573 45.4732 54.2767 45.3409C53.9899 44.6797 53.2408 44.2758 52.5278 44.2977ZM51.933 46.1417C51.6536 46.1638 51.3672 46.1417 51.0956 46.2373C50.9851 45.9213 51.0514 45.5834 51.044 45.2529C51.5292 44.7826 52.2271 44.5255 52.9026 44.6503C53.3215 44.7018 53.6815 44.9956 53.8799 45.3631C54.012 45.5834 54.012 45.8479 54.0488 46.0904C53.3435 46.105 52.6383 46.1195 51.933 46.1417ZM53.9826 48.4779C53.4904 48.5294 52.9983 48.4633 52.5135 48.5073C52.5061 47.7872 52.5356 47.0602 52.5061 46.3401C53.013 46.362 53.5272 46.3768 54.0341 46.399C53.9977 47.0893 54.0488 47.78 53.9826 48.4779ZM52.7192 51.2622C52.1314 51.2622 51.5435 51.2622 50.9557 51.2771C50.9708 49.6021 51.0587 47.9268 51.0367 46.2518C51.4997 46.3034 51.9624 46.2886 52.4325 46.3253C52.3961 47.0453 52.4104 47.7727 52.4325 48.5C52.0283 48.5 51.6172 48.4779 51.213 48.5073C51.1835 48.5294 51.132 48.5662 51.1029 48.588C52.0802 48.6396 53.0572 48.588 54.0341 48.6248C53.9314 48.6763 53.8283 48.6984 53.7109 48.6909C53.373 48.6836 53.0277 48.713 52.6898 48.7058C52.7119 49.5505 52.6456 50.4102 52.7192 51.2622ZM55.1951 50.2339C55.1877 50.5938 55.2021 50.9464 55.1656 51.3065C55.0408 51.3284 54.9083 51.3433 54.7835 51.3651C54.8494 50.9685 54.8277 50.5643 54.8351 50.1604C54.8494 48.5073 54.8568 46.8544 54.8645 45.2013C54.9746 45.2013 55.0846 45.2013 55.1951 45.2086C55.2172 46.8836 55.2172 48.5589 55.1951 50.2339ZM54.7467 44.9443C54.725 44.856 54.7099 44.7753 54.6956 44.687C54.9378 44.687 55.1804 44.687 55.4299 44.7018C55.3861 45.0617 54.9819 44.9221 54.7467 44.9443ZM47.606 42.4318C48.0981 42.3214 48.6197 42.3362 49.1266 42.3948C49.1929 42.7255 49.2297 43.0635 49.3103 43.394C49.3103 43.0781 49.2956 42.7623 49.3765 42.4536C49.7292 42.3141 50.1109 42.3656 50.4786 42.3435C52.2488 42.3508 54.0194 42.3435 55.7899 42.3875C55.702 42.4904 55.6357 42.6521 55.4888 42.6667C53.5051 42.7255 51.5218 42.7328 49.5381 42.7768C49.5529 42.843 49.5749 42.9018 49.5893 42.968C51.4997 42.9901 53.4024 43.012 55.3051 43.0414C55.3051 43.4823 55.3125 43.9305 55.3199 44.3711C54.9378 44.3344 54.5704 44.2388 54.2325 44.0552C53.7183 43.7834 53.1819 43.5263 52.6088 43.4013C51.8815 43.5997 51.2572 44.0552 50.6987 44.5474C50.3461 44.0774 50.0008 43.5997 49.6703 43.1149C49.9787 43.8495 50.4635 44.4961 50.7356 45.2453C50.7135 47.2656 50.7135 49.2935 50.7061 51.3138C50.5151 51.3138 50.3314 51.3284 50.1477 51.3506C50.1403 51.6297 50.4418 51.5781 50.6325 51.5781C51.7788 51.5268 52.932 51.6149 54.0783 51.5781C54.4747 51.5709 54.8719 51.5709 55.2683 51.5709C55.2831 51.6224 55.2904 51.681 55.3051 51.7326C53.8725 51.6224 52.4255 51.6297 50.9851 51.7104C50.7724 51.7104 50.5592 51.7399 50.3829 51.8721C52.014 51.9677 53.6594 51.9383 55.2904 51.8794C55.2831 52.2026 55.2904 52.5334 55.261 52.8566C52.8072 52.8638 50.3461 52.8419 47.8924 52.8198C47.885 49.5284 47.885 46.2445 47.8924 42.9534C48.2376 42.9458 48.5903 42.968 48.9356 42.9164C49.0313 42.9091 49.0456 42.7844 49.0898 42.7255C48.605 42.6667 48.1051 42.7622 47.6281 42.6594C47.613 42.6005 47.606 42.4831 47.606 42.4318ZM46.5624 48.7058C46.1071 48.7276 45.6444 48.7058 45.189 48.7058C45.2034 48.0078 45.2108 47.3099 45.196 46.612C45.7029 46.6044 46.2101 46.6193 46.7167 46.5899C46.6434 47.2878 46.636 48.0005 46.5624 48.7058ZM45.1081 46.6266C45.1081 47.3245 45.1081 48.0151 45.1228 48.713C44.6306 48.7058 44.1381 48.6763 43.6459 48.7203C43.6681 48.0224 43.6681 47.3172 43.6902 46.6193C44.1602 46.6266 44.6379 46.6266 45.1081 46.6266ZM44.4394 44.9662C44.9538 44.6724 45.6149 44.7164 46.0776 45.0766C45.8424 45.0911 45.5928 45.0985 45.3871 45.238C45.2476 45.3336 45.189 45.5026 45.1228 45.6422C45.0197 45.3188 44.7701 45.0766 44.4394 44.9662ZM44.4467 45.3925C44.8508 45.6055 45.005 46.0828 45.0565 46.5091C44.6084 46.5091 44.1602 46.5091 43.7193 46.5091C43.7415 46.1932 43.7415 45.8698 43.8222 45.5612C43.8957 45.2896 44.241 45.3336 44.4467 45.3925ZM45.2549 51.2696C44.6892 51.2771 44.1235 51.2771 43.5579 51.2771C43.5946 50.4469 43.6092 49.624 43.6459 48.7938C44.6306 48.8966 45.6297 48.757 46.6143 48.8748C46.1582 48.9115 45.6955 48.882 45.2402 48.8966C45.2402 49.6828 45.189 50.4836 45.2549 51.2696ZM46.7244 46.531C46.2101 46.487 45.7029 46.5237 45.189 46.5091C45.1666 46.105 45.3286 45.6568 45.7176 45.4878C46.0633 45.3703 46.4376 45.5687 46.6213 45.8625C46.7755 46.0536 46.7093 46.3034 46.7244 46.531ZM47.3192 44.6063C47.2092 46.8102 47.2018 49.0216 47.1576 51.2328C47.0549 51.2328 46.9519 51.2328 46.8492 51.2328C46.9445 49.2346 46.9081 47.2289 47.0476 45.2234C47.0619 44.9956 47.2092 44.8047 47.3192 44.6063ZM46.9445 44.7385C46.4671 44.812 46.0555 44.4961 45.6367 44.3271C45.3359 44.2242 45.2181 43.8495 44.8949 43.8201C44.8287 43.9964 44.8434 44.2464 44.6451 44.3344C44.3365 44.5255 43.9985 44.6724 43.6899 44.8633C43.33 44.7458 43.1097 44.4227 42.904 44.1287C43.0214 44.6209 43.2933 45.0838 43.2787 45.6055C43.2933 47.4935 43.3373 49.3815 43.3594 51.2696C43.1686 51.2771 42.9774 51.2696 42.7938 51.299C42.7865 51.3873 42.779 51.468 42.779 51.5563C43.6313 51.6003 44.4834 51.5709 45.3359 51.6224C45.9013 51.6516 46.4744 51.6224 47.0402 51.681C46.9445 51.7032 46.8418 51.7253 46.7387 51.7253C45.4603 51.7471 44.1824 51.7471 42.904 51.7912C42.7644 51.762 42.5514 51.9162 42.7423 52.019C43.0142 52.0558 43.2933 52.0412 43.5652 52.0412C44.7774 52.0485 45.997 52.0703 47.2092 52.0779C47.2018 52.3349 47.2018 52.5995 47.1871 52.8566C45.6367 52.886 44.0868 52.8419 42.5441 52.9227C42.5365 52.2688 42.5219 51.6076 42.5587 50.9537C42.5441 50.7112 42.4485 50.4763 42.4631 50.2263C42.4631 48.287 42.4118 46.3547 42.4118 44.4154C42.3896 44.1654 42.5587 43.9596 42.6615 43.7466C42.9847 43.6805 43.3227 43.7248 43.6532 43.7172C44.9244 43.7172 46.2028 43.6659 47.4735 43.688C47.4517 44.0919 47.3781 44.599 46.9445 44.7385ZM43.4917 53.4516C43.4917 53.4222 43.499 53.356 43.499 53.3193C44.5495 53.224 45.6076 53.2607 46.6581 53.2531C46.6581 53.3047 46.6581 53.4003 46.6581 53.4516C45.6002 53.4737 44.5423 53.5104 43.4917 53.4516ZM46.8713 53.8776C45.9381 53.9219 45.0124 53.9513 44.0868 54.0467C43.7636 54.0615 43.4402 54.1128 43.1097 54.0982C43.1464 53.9586 43.1391 53.7456 43.3373 53.7748C44.5277 53.7235 45.7176 53.6794 46.9081 53.6941C46.9007 53.738 46.8786 53.8336 46.8713 53.8776ZM46.7756 55.2883C46.7244 55.4792 46.5919 55.7438 46.364 55.7216C46.0408 55.6115 45.8719 55.281 45.6886 55.0164C45.5928 55.5235 45.3503 56.0008 45.0197 56.3977C44.917 56.53 44.7701 56.6107 44.6157 56.6547C44.5717 56.1037 44.6892 55.5381 44.535 54.9945C44.2558 55.1927 44.1457 55.5162 44.028 55.8245C43.5358 55.4352 43.4623 54.7667 43.1316 54.2672C44.3514 54.2156 45.5781 54.1568 46.7976 54.1349C46.7976 54.5169 46.8344 54.9063 46.7756 55.2883ZM42.9847 57.294C42.8967 57.0808 42.8233 56.8605 42.7717 56.6328C42.86 56.7943 42.948 56.9487 43.0214 57.1102C43.2344 56.9412 43.5136 56.9927 43.7709 56.9854C43.7782 57.1177 43.7928 57.2573 43.8004 57.3969C43.5212 57.3821 43.2493 57.3748 42.9847 57.294ZM43.7415 56.4857C43.7415 56.5813 43.7928 56.6841 43.7269 56.7724C43.3816 56.7503 42.9553 56.7357 42.7571 56.3977C43.0803 56.405 43.4108 56.4784 43.7415 56.4857ZM42.5365 55.9568C42.9186 55.9422 43.3006 55.9274 43.6753 55.9641C43.6902 56.0745 43.712 56.1771 43.7269 56.2875C43.3667 56.2581 43.0068 56.2948 42.6542 56.2287C42.61 56.1404 42.5733 56.0451 42.5365 55.9568ZM42.3384 55.4352C42.6983 55.45 43.0582 55.4058 43.4183 55.4425C43.4845 55.5308 43.5358 55.6263 43.5873 55.7292C43.2126 55.7584 42.8306 55.7805 42.4558 55.7805C42.4118 55.663 42.3675 55.5454 42.3384 55.4352ZM40.4061 57.294C39.5024 57.4336 38.5915 57.3894 37.6878 57.3086C37.1735 57.2646 36.6667 57.3308 36.1597 57.4042C35.5719 57.4922 34.9769 57.4704 34.3818 57.4704C33.1035 57.4409 31.8252 57.4922 30.5395 57.4704C30.591 57.2498 30.6424 57.0222 30.7085 56.8016C34.5435 56.787 38.3711 56.831 42.2061 56.7943C42.2501 56.9412 42.3016 57.0883 42.3384 57.2352C41.6991 57.2131 41.0527 57.1912 40.4061 57.294ZM29.2906 56.236C29.3126 56.1404 29.342 56.0375 29.3641 55.9422C29.7755 55.9055 30.1869 55.898 30.5983 55.8834C30.5542 56.0008 30.5028 56.1112 30.4587 56.2287C30.0693 56.2287 29.68 56.2581 29.2906 56.236ZM30.3191 56.6987C29.9151 56.7282 29.511 56.7357 29.1143 56.7576C29.129 56.6914 29.151 56.5591 29.1657 56.4933C29.5845 56.449 30.0032 56.4271 30.4293 56.4123C30.3926 56.5006 30.3559 56.5961 30.3191 56.6987ZM30.0547 57.3232C29.7461 57.3894 29.4302 57.3821 29.1216 57.3894C29.1143 57.2719 29.1143 57.1545 29.1069 57.0367C29.4963 56.9782 29.8857 56.9782 30.2751 56.9633C30.2016 57.0808 30.2016 57.2792 30.0547 57.3232ZM28.5559 55.8172C28.2988 55.5602 28.1078 55.2516 27.9829 54.9136C27.9682 55.3912 28.1739 55.8467 28.2694 56.3094C27.9902 56.1331 27.6964 55.9568 27.5127 55.6703C27.5054 55.7659 27.5054 55.8612 27.498 55.9568C27.4466 55.9717 27.3364 55.9935 27.285 56.0084C27.3364 56.3683 27.5862 56.787 27.3364 57.125C27.1527 56.8826 27.0425 56.6034 26.9691 56.317C26.8735 56.3756 26.7781 56.449 26.6678 56.4711C26.4401 56.3828 26.4327 56.0964 26.374 55.898C26.227 55.3104 26.2491 54.7078 26.2858 54.1128C26.8001 54.1495 27.3217 54.1349 27.836 54.1717C28.5266 54.2084 29.2171 54.179 29.9004 54.2451C29.7755 54.7667 29.4963 55.2368 29.151 55.6409C28.8645 55.45 28.6882 55.156 28.4898 54.8917C28.5045 55.2 28.5707 55.5086 28.5559 55.8172ZM26.1683 53.6941C27.0205 53.6867 27.8727 53.6867 28.7249 53.6941C29.0923 53.7013 29.4596 53.6941 29.8269 53.7675C29.8636 53.8852 29.9004 54.0026 29.9298 54.1201C28.9159 54.0394 27.9094 53.9144 26.8956 53.9071C26.6532 53.9071 26.4181 53.8852 26.183 53.8558C26.1756 53.8263 26.1756 53.738 26.1683 53.6941ZM29.6653 53.4516C28.5853 53.5032 27.5054 53.4737 26.4254 53.4589C26.4254 53.4003 26.4181 53.2901 26.4181 53.2386C27.4393 53.2459 28.4605 53.2386 29.4743 53.2901C29.5845 53.2753 29.6139 53.3854 29.6653 53.4516ZM25.9846 52.0779C27.476 52.0703 28.9747 52.0558 30.4661 52.0485C30.4661 51.9823 30.4661 51.8573 30.4661 51.7912C29.5698 51.762 28.6661 51.7766 27.7699 51.7471C27.2482 51.7253 26.7266 51.7545 26.2124 51.6886C27.5641 51.6076 28.9233 51.5781 30.2824 51.5709C30.2751 51.512 30.2604 51.3873 30.253 51.3284C30.0841 51.3138 29.9151 51.299 29.7461 51.2917C29.8122 49.3521 29.7682 47.4052 29.8343 45.4659C29.8269 45.0177 30.0841 44.6284 30.1942 44.2097C29.9739 44.4521 29.7828 44.7604 29.4522 44.8633C29.1216 44.7237 28.8131 44.5328 28.5119 44.3417C28.3135 44.2315 28.3062 43.9745 28.1592 43.8201C28.24 43.7834 28.3209 43.732 28.409 43.7466C29.0702 43.7393 29.7314 43.7542 30.3926 43.7542C30.4881 43.9818 30.7232 44.1654 30.6938 44.43C30.7012 46.4357 30.6424 48.4485 30.6498 50.4542C30.6644 50.6599 30.5469 50.8435 30.5395 51.0492C30.5248 51.6737 30.5469 52.2982 30.5469 52.9227C30.0326 52.8493 29.5184 52.886 29.0041 52.8787C27.9976 52.886 26.9911 52.8787 25.9846 52.8787C25.992 52.6068 25.9993 52.3422 25.9846 52.0779ZM26.0875 45.3776C26.2124 47.3172 26.2124 49.2568 26.3079 51.1961C26.205 51.1961 26.1022 51.2037 25.992 51.2037C25.9111 49.0143 25.9185 46.825 25.7716 44.643C25.9111 44.8781 26.0801 45.1058 26.0875 45.3776ZM28.0417 45.576C27.9609 45.4216 27.858 45.2675 27.6964 45.1792C27.5054 45.0472 27.2703 45.0911 27.0499 45.0766C27.2335 44.9737 27.4099 44.8341 27.6229 44.7898C27.9976 44.7385 28.3796 44.812 28.7176 44.9737C28.4017 45.0396 28.1739 45.2896 28.0417 45.576ZM28.1005 46.5164C28.1445 46.23 28.2107 45.936 28.3723 45.6862C28.5119 45.4438 28.8131 45.2896 29.0923 45.3631C29.4375 45.6422 29.32 46.149 29.3935 46.531C28.96 46.5164 28.5339 46.5164 28.1005 46.5164ZM28.0049 48.6984C28.0049 48.0078 28.0123 47.3172 28.0196 46.6266C28.4825 46.612 28.9453 46.656 29.4155 46.6193C29.4669 47.3172 29.4375 48.0151 29.4816 48.713C28.982 48.6984 28.4898 48.7058 28.0049 48.6984ZM26.4107 46.5237C26.4034 46.362 26.4034 46.2078 26.4034 46.0461C26.6532 45.7745 26.9176 45.3631 27.3438 45.4659C27.8139 45.5539 27.9902 46.0977 27.9315 46.5164C27.4245 46.5237 26.9176 46.4943 26.4107 46.5237ZM27.9168 46.6266C27.8948 47.3245 27.9021 48.0224 27.9315 48.713C27.4833 48.713 27.0278 48.7058 26.5797 48.7058C26.5063 48.0078 26.4622 47.3026 26.4181 46.5971C26.9176 46.6412 27.4172 46.612 27.9168 46.6266ZM27.9021 48.8966C27.4686 48.882 27.0352 48.8893 26.6017 48.8893C26.6017 48.8672 26.6091 48.8305 26.6091 48.8086C27.5715 48.8159 28.5266 48.8453 29.489 48.8086C29.5331 49.6313 29.5184 50.4542 29.5772 51.2696C29.0188 51.2844 28.4678 51.2696 27.9094 51.2771C27.9094 50.4836 27.9094 49.6901 27.9021 48.8966ZM28.196 43.7466C27.9315 43.9745 27.6817 44.2464 27.3584 44.3859C26.9837 44.5695 26.5944 44.8265 26.1536 44.7531C25.7348 44.599 25.6687 44.0992 25.6173 43.7172C26.4768 43.7172 27.3438 43.7099 28.196 43.7466ZM18.9539 51.3211C18.8363 51.3284 18.7114 51.3357 18.5939 51.3433C18.5718 49.4477 18.5277 47.5524 18.5057 45.6495C18.638 45.6568 18.7775 45.6568 18.9098 45.6641C18.9245 47.5524 18.8951 49.4404 18.9539 51.3211ZM22.2305 44.9076C21.775 44.6136 21.2828 44.3492 20.7317 44.305C19.9751 44.2464 19.1449 44.6503 18.8877 45.3998C18.7555 45.3998 18.6306 45.3925 18.5057 45.3925C18.6747 44.3784 19.6665 43.6513 20.6583 43.6292C21.3415 43.732 21.8852 44.2097 22.3848 44.6651C22.326 44.7385 22.2819 44.8265 22.2305 44.9076ZM20.6583 48.4927C20.1734 48.4779 19.6812 48.4927 19.1963 48.4633C19.1228 47.78 19.1449 47.0893 19.1228 46.4062C19.6298 46.3914 20.1367 46.3768 20.6363 46.3401C20.6216 47.0526 20.6289 47.7727 20.6583 48.4927ZM20.482 50.9758C20.482 50.2117 20.4673 49.4477 20.4746 48.6836C20.0926 48.6763 19.7032 48.713 19.3212 48.6909C19.2844 48.669 19.211 48.6396 19.1743 48.6175C20.144 48.5735 21.1211 48.6396 22.0982 48.5956C22.0174 48.4706 21.8705 48.5073 21.7456 48.5C21.4003 48.4927 21.0624 48.4927 20.717 48.4852C20.7317 47.7654 20.7464 47.0453 20.7097 46.3253C21.1064 46.2961 21.5105 46.3328 21.8925 46.23C20.9668 46.0977 20.0338 46.1565 19.1008 46.0828C19.1082 45.5466 19.3653 44.981 19.8795 44.7531C20.6363 44.4078 21.5619 44.6945 22.135 45.2602C22.1129 47.2584 22.1497 49.2641 22.2305 51.2622C21.606 51.2696 20.9742 51.255 20.3497 51.2696C20.4452 51.1961 20.4967 51.0932 20.482 50.9758ZM24.0304 42.6961C24.0304 42.7401 24.0451 42.8357 24.0451 42.8873C24.4345 42.968 24.8385 42.9534 25.2352 42.9607C25.2426 46.2518 25.2352 49.536 25.2279 52.8271C22.8035 52.8419 20.3718 52.8787 17.94 52.8493C17.94 52.5334 17.94 52.2175 17.9327 51.894C19.5049 51.8868 21.077 51.9969 22.6492 51.8573C22.539 51.7839 22.4068 51.7399 22.2672 51.7326C20.8126 51.6297 19.3432 51.6297 17.8886 51.6883C18.0576 51.5857 18.2559 51.6076 18.4396 51.593C19.2698 51.5857 20.1073 51.6003 20.9375 51.5709C21.5913 51.5414 22.2525 51.5857 22.9064 51.5781C22.9064 51.5195 22.9137 51.4092 22.9137 51.3578C22.7741 51.3433 22.6272 51.3357 22.4876 51.3211C22.4582 49.3964 22.4656 47.4714 22.4288 45.5466C22.4288 45.3998 22.4068 45.238 22.4803 45.1058C22.7815 44.4594 23.1488 43.8495 23.4427 43.1956C23.0974 43.6292 22.8182 44.1068 22.4582 44.5328C21.944 44.0333 21.3195 43.6513 20.6436 43.4234C19.6298 43.5042 18.8437 44.3198 17.8225 44.3859C17.8005 43.9378 17.8151 43.4896 17.8005 43.0414C19.5857 43.0487 21.3636 42.9901 23.1488 42.9974C23.3251 42.9753 23.6043 43.0635 23.641 42.8138C22.4509 42.7477 21.2534 42.799 20.0632 42.7477C19.2771 42.7182 18.491 42.7182 17.7123 42.6815C17.5433 42.6888 17.4625 42.5198 17.3817 42.4024C19.2331 42.3656 21.0844 42.3656 22.9431 42.3656C23.1782 42.3729 23.4206 42.3508 23.6484 42.4169C23.9202 42.6521 23.7953 43.056 23.8615 43.3646C23.9569 43.0487 23.9275 42.7109 23.9937 42.3875C24.4492 42.3581 24.9047 42.3581 25.3601 42.3948C25.5144 42.3802 25.5071 42.5638 25.5291 42.6667C25.0295 42.7182 24.53 42.6888 24.0304 42.6961ZM24.6916 56.0375C24.5741 55.9274 24.4639 55.8099 24.3536 55.6849C24.2655 55.8907 24.2141 56.1112 24.1259 56.3243C24.001 56.2727 23.8982 56.1698 23.7879 56.0891C23.832 56.5151 23.6043 56.9045 23.4206 57.2792C23.4353 56.9854 23.5088 56.6914 23.4206 56.405C23.3031 56.3756 23.2296 56.4857 23.1415 56.5446C22.9137 56.743 22.6492 56.9266 22.3333 56.9412C22.0101 57 21.7089 56.7724 21.3856 56.8237C20.9154 56.8753 20.4673 57.0735 19.9898 57.0149C19.7914 57.0073 19.6444 56.8459 19.4755 56.7649C19.0714 56.8532 18.6086 56.956 18.2559 56.6769C17.8005 56.3315 17.962 55.6925 17.9327 55.2C18.3441 55.2 18.7555 55.2 19.1669 55.2C19.1669 55.4425 19.1669 55.6925 19.1743 55.9422C19.9016 55.9128 20.6362 55.9422 21.3636 55.9128C21.3783 55.6703 21.3856 55.4279 21.3783 55.1854C22.7227 55.1782 24.0672 55.1487 25.4116 55.1927C25.1985 55.4868 24.8973 55.7216 24.6916 56.0375ZM21.0917 55.6042C20.5775 55.6188 20.0632 55.6042 19.5489 55.6115C19.5416 55.1415 19.5416 54.6711 19.5416 54.2084C20.0485 54.2084 20.5555 54.2084 21.0624 54.2229C21.0844 54.6784 21.0697 55.1415 21.0917 55.6042ZM25.3161 54.8842C24.0157 54.8917 22.7153 54.899 21.415 54.8917C21.415 54.5537 21.4224 54.2229 21.415 53.8852C20.6656 53.8776 19.9163 53.8852 19.1669 53.8703C19.1522 54.2084 19.1522 54.5464 19.1669 54.8769C18.7702 54.8842 18.3735 54.8769 17.9694 54.8695C17.9841 54.436 17.9841 53.9953 17.9768 53.5618C20.4011 53.5399 22.8329 53.5912 25.2573 53.606C25.2352 54.0394 25.2573 54.4654 25.3161 54.8842ZM17.8225 44.9149C17.8005 44.8633 17.7637 44.7604 17.749 44.7091C17.9841 44.7018 18.2265 44.7018 18.4616 44.6945C18.4543 44.7531 18.4323 44.8781 18.4175 44.9443C18.2192 44.9443 18.0208 44.9588 17.8225 44.9149ZM18.3074 51.3211C18.2118 51.3065 18.109 51.2917 18.0135 51.2844C17.9694 49.2641 17.9474 47.2438 17.962 45.2234C18.0723 45.2234 18.1751 45.2234 18.2853 45.2234C18.2779 47.2584 18.2779 49.286 18.3074 51.3211ZM17.7197 53.0917C19.8942 53.0477 22.0689 53.0769 24.2434 53.0917C24.53 53.0917 24.8239 53.0844 25.1103 53.1284L25.1471 53.1797C25.1398 53.2019 25.1103 53.2459 25.103 53.268C23.2002 53.312 21.2975 53.3193 19.3947 53.3193C18.8657 53.2974 18.3294 53.3415 17.8005 53.2826C17.7858 53.2313 17.7417 53.1357 17.7197 53.0917ZM17.4992 51.5487C17.4919 51.9456 17.536 52.3422 17.5139 52.7391C17.3082 52.7758 17.1172 52.9005 16.8968 52.8933C16.3164 52.8787 15.7287 52.8933 15.1483 52.886C15.1042 51.762 15.1336 50.6305 15.1262 49.4992C15.1336 47.3172 15.1042 45.1352 15.141 42.9458C15.5818 42.9091 16.0225 42.924 16.4634 42.9164C16.7572 42.9164 17.0584 42.8797 17.3449 42.9534C17.4111 43.4161 17.389 43.8862 17.3743 44.3565C17.3743 44.5107 17.2494 44.6284 17.2421 44.7826C17.3523 45.0323 17.7197 45.1352 17.6902 45.4511C17.7123 47.3612 17.6976 49.2787 17.6976 51.1888C17.7343 51.3578 17.5066 51.3945 17.4992 51.5487ZM17.176 56.1698C16.9997 56.4344 16.6544 56.5373 16.3532 56.5151C16.4119 56.2727 16.4634 56.023 16.4634 55.7805C16.3238 55.8467 16.1915 55.9349 16.0593 56.023C16.0666 55.8539 16.0813 55.6849 16.096 55.5235C15.7948 55.7216 15.5891 56.0524 15.2365 56.1847C15.0969 55.8688 15.0822 55.5162 15.0601 55.1782C15.7654 55.1854 16.478 55.1415 17.1833 55.1854C17.2053 55.5013 17.2421 55.8394 17.176 56.1698ZM16.7572 53.5544C16.8894 53.5399 17.0438 53.5985 17.0731 53.7456C17.1613 54.1276 17.1392 54.5169 17.1392 54.9063C16.456 54.9063 15.7727 54.9063 15.0969 54.899C15.1042 54.4654 15.1042 54.0248 15.1336 53.5912C15.6699 53.5323 16.2136 53.5544 16.7572 53.5544ZM14.8985 53.1357C15.4422 53.1211 15.9858 53.099 16.5221 53.143C16.647 53.1357 16.6691 53.2753 16.7352 53.356C16.243 53.3854 15.7581 53.3782 15.2659 53.3709C15.1116 53.3636 14.9646 53.2826 14.8985 53.1357ZM16.8307 42.4391C16.9041 42.5271 16.9776 42.6081 17.0438 42.6961C16.3825 42.6815 15.7214 42.7477 15.0601 42.6961C14.9206 42.6961 14.9206 42.5419 14.8838 42.4463C15.5377 42.4024 16.1842 42.4242 16.8307 42.4391ZM18.9833 34.2182C19.4314 33.9831 19.8722 33.7112 20.3497 33.557C20.864 33.6966 21.3048 34.0198 21.7676 34.2768C20.8419 34.2549 19.9089 34.3284 18.9833 34.2182ZM18.2118 39.9044C19.593 39.9925 20.9742 39.8972 22.3554 39.9484C22.3554 39.9779 22.3701 40.0294 22.3701 40.0586C21.033 40.1175 19.6885 40.132 18.3514 40.0807C18.2413 40.1102 18.2486 39.9633 18.2118 39.9044ZM18.0135 40.4774C19.5489 40.4628 21.0844 40.4554 22.6199 40.4774C22.5978 40.9917 22.708 41.506 22.9651 41.9469C21.2534 41.9687 19.5342 41.9909 17.8225 41.9761C18.0649 41.5133 18.0208 40.9844 18.0135 40.4774ZM22.708 40.0734C22.6713 39.9706 22.6492 39.8677 22.5978 39.7721C22.3701 39.6253 22.0835 39.6399 21.8264 39.6253C20.7758 39.5812 19.7252 39.5812 18.6747 39.5518C18.6747 37.9354 18.6453 36.3193 18.6453 34.6956C19.7987 34.6661 20.9595 34.6737 22.1129 34.6516C22.1497 34.8351 22.1864 35.0263 22.2819 35.1953C22.4141 34.8794 22.5831 34.5341 22.5243 34.1888C21.8484 33.7552 21.0697 33.5054 20.4599 32.9766C19.7693 33.432 18.9686 33.6672 18.2486 34.0638C18.2339 34.4018 18.4984 34.681 18.4543 35.0263C18.4323 36.5763 18.4175 38.1338 18.3588 39.6841C18.2192 39.6987 18.0796 39.7133 17.94 39.7281C17.94 39.875 17.94 40.0219 17.94 40.1687C17.8372 40.1687 17.7343 40.1763 17.6388 40.1763C17.58 40.6831 17.6462 41.2047 17.5433 41.7117C17.2935 41.8513 16.9702 41.8513 16.7645 42.0789C16.2356 42.101 15.7066 42.0865 15.1777 42.0789C15.163 41.0357 15.163 39.9925 15.163 38.9419C15.8168 38.7729 16.4927 38.7068 17.1466 38.538C16.4854 38.5086 15.8242 38.5159 15.163 38.5086C15.1336 36.6424 15.163 34.7766 15.141 32.9104C16.8748 32.9031 18.6159 32.9031 20.3497 32.9325C21.9733 32.8737 23.5969 32.9177 25.2206 32.9177C25.2426 35.9151 25.2132 38.92 25.2352 41.9175C24.7357 41.9175 24.2287 41.9248 23.7292 41.9393C23.4206 41.6529 23.1194 41.3297 23.0019 40.9182C22.9284 40.6758 23.0019 40.426 23.0092 40.1763C22.9725 40.0513 22.8035 40.1028 22.708 40.0734ZM14.8397 32.5872C14.6708 32.5357 14.634 32.3448 14.5752 32.2052C18.2118 32.2346 21.8484 32.1903 25.4777 32.2271C25.4116 32.3594 25.4116 32.6164 25.2059 32.5872C22.1937 32.6312 19.1816 32.6164 16.1695 32.6018C15.7287 32.5945 15.2805 32.624 14.8397 32.5872ZM13.8185 31.926C13.6496 31.8083 13.6055 31.5953 13.51 31.419C17.3082 31.4044 21.1064 31.419 24.8973 31.419C25.4409 31.419 25.992 31.4044 26.5356 31.4484C26.374 31.6687 26.1756 31.9333 25.8671 31.9185C22.1129 31.9555 18.3661 31.926 14.612 31.9333C14.3549 31.9333 14.083 31.9773 13.8185 31.926ZM15.8536 27.8412C15.6405 28.1204 15.5009 28.451 15.3026 28.7375C15.3026 28.4657 15.3246 28.2012 15.332 27.9293C15.5083 27.922 15.6846 27.9 15.8536 27.8412ZM14.7295 27.3857C15.1777 27.3563 15.6332 27.371 16.0813 27.3563C16.0372 27.4371 16.0005 27.5253 15.9564 27.6061C15.545 27.5694 15.0675 27.6722 14.7295 27.3857ZM21.9366 26.5849C21.9219 26.3278 22.2452 26.4453 22.4068 26.4527C22.5097 26.438 22.3921 26.5849 22.348 26.5849C22.2158 26.6143 22.0689 26.5923 21.9366 26.5849ZM21.8043 28.1938C21.8264 28.7522 21.7823 29.3179 21.7823 29.8762C21.3489 29.8689 20.9154 29.8689 20.482 29.8689C20.4746 29.2591 20.4746 28.642 20.4673 28.0322C20.9081 28.0836 21.393 28.0028 21.8043 28.1938ZM20.4673 26.2176C20.8346 26.269 21.224 26.1809 21.5693 26.3131C21.9292 26.6657 21.8043 27.2094 21.7676 27.6502C21.3342 27.6943 20.9081 27.6649 20.4746 27.6722C20.4746 27.1873 20.4893 26.7025 20.4673 26.2176ZM20.3644 29.8689C19.9383 29.8615 19.5122 29.8689 19.0787 29.8615C19.0714 29.2517 19.0787 28.642 19.0861 28.0322C19.5122 28.0102 19.9383 28.0175 20.3718 28.0175C20.3571 28.6346 20.3571 29.2517 20.3644 29.8689ZM20.3938 27.6722C19.9677 27.6575 19.5489 27.6722 19.1302 27.6135C19.1228 27.18 18.9465 26.6437 19.2771 26.2911C19.6444 26.2029 20.0338 26.2617 20.4085 26.225C20.3718 26.7098 20.3865 27.1947 20.3938 27.6722ZM18.5351 26.3939C18.6894 26.4086 19.0126 26.3425 18.9025 26.6069L18.7775 26.5261C18.8143 26.8567 18.8216 27.1947 18.7996 27.5253C18.8069 28.4069 18.8069 29.2885 18.7775 30.1701C19.8649 30.2068 20.9595 30.1921 22.0468 30.1627C22.0468 29.0313 22.0762 27.9073 22.0835 26.7833C22.1276 26.7833 22.2158 26.7833 22.2599 26.7833C22.2599 27.9073 22.2158 29.0313 22.2525 30.1554C22.3994 30.1554 22.5464 30.1554 22.7007 30.1554C22.6933 30.3317 22.6933 30.508 22.6933 30.6844C22.4068 30.6844 22.1203 30.7064 21.8337 30.6697C21.7823 30.5962 21.7382 30.5154 21.7015 30.4346C20.886 30.3758 20.0632 30.4125 19.2404 30.4125C19.0641 30.3905 19.02 30.5815 18.9392 30.6991C18.638 30.7137 18.3367 30.7064 18.0356 30.7064C18.0429 30.5227 18.0429 30.3464 18.0429 30.1627C18.2192 30.1627 18.3955 30.1627 18.5718 30.1554C18.6159 29.0313 18.6233 27.9073 18.682 26.7906L18.7555 26.7171C18.682 26.6143 18.6012 26.5115 18.5351 26.3939ZM17.6315 25.4755C19.4975 25.4021 21.3636 25.4609 23.2223 25.4829C23.259 25.6004 23.2957 25.718 23.3251 25.8356C22.0909 25.909 20.8493 25.8723 19.6077 25.8943C18.851 25.8796 18.0796 25.9311 17.3376 25.7768C17.3964 25.6299 17.4331 25.4315 17.6315 25.4755ZM19.6959 23.3597C19.8869 23.3083 20.1147 23.1981 20.2983 23.345C20.3718 23.2348 20.4746 23.1614 20.6142 23.1467C20.5775 23.2569 20.5407 23.3597 20.504 23.4699C19.4681 23.514 18.5204 24.1973 18.1017 25.1376C18.0429 25.1376 17.9253 25.145 17.8666 25.1523C18.1604 24.3221 18.8731 23.6536 19.6959 23.3597ZM20.5481 21.773C20.6142 22.1624 20.5555 22.5736 20.7097 22.941C20.5922 22.9336 20.4673 22.9263 20.3497 22.9263C20.4159 22.5443 20.482 22.155 20.5481 21.773ZM21.7162 25.1891C20.8566 25.2037 19.9971 25.1891 19.1375 25.1891C19.3726 24.6527 19.9089 24.256 20.4967 24.2634C21.0403 24.3075 21.5032 24.6968 21.7162 25.1891ZM20.8714 24.087C20.4232 23.9108 19.931 24.0724 19.5416 24.3001C19.2036 24.4911 18.9906 24.8364 18.7923 25.1596C18.6673 25.167 18.5351 25.167 18.4102 25.1744C18.7555 24.4176 19.5195 23.874 20.3571 23.8446C21.2313 23.7859 22.0321 24.3883 22.3701 25.167C22.2378 25.167 22.1056 25.167 21.966 25.1744C21.8264 24.6601 21.3709 24.2634 20.8714 24.087ZM21.0917 23.345C21.9586 23.6095 22.6933 24.3148 22.9725 25.1817C22.9137 25.1744 22.7888 25.167 22.7227 25.1596C22.3554 24.4103 21.7235 23.7344 20.8787 23.5508C20.7832 23.514 20.6289 23.5581 20.6216 23.4258C20.6363 23.1834 20.9448 23.345 21.0917 23.345ZM24.9047 17.725C24.4271 17.7176 23.9496 17.7471 23.4794 17.6734C23.5161 17.6513 23.5749 17.5998 23.6116 17.5781C24.3243 17.5413 25.0516 17.6145 25.7642 17.5413C25.7128 17.5266 25.6173 17.5045 25.5732 17.4897C24.8606 17.475 24.148 17.5045 23.4353 17.4677C23.2443 17.4824 23.2223 17.284 23.1929 17.1445C23.9349 17.1224 24.6843 17.1297 25.4263 17.1739C25.6907 17.1666 25.8083 17.4529 25.8597 17.6661C25.5511 17.7614 25.2279 17.7176 24.9047 17.725ZM25.5952 20.4945C24.9855 20.6046 24.361 20.5534 23.7366 20.5534C23.7292 19.8993 23.7292 19.2456 23.7586 18.5992C24.3536 18.5624 24.9561 18.5698 25.5511 18.5918C25.5879 19.2235 25.6246 19.8629 25.5952 20.4945ZM23.5749 18.2098C23.5676 18.1435 23.5529 18.0187 23.5455 17.9598C24.2067 17.916 24.8753 17.9307 25.5365 17.9598C25.5438 18.0555 25.5511 18.1509 25.5585 18.2539C24.8973 18.2613 24.2361 18.2539 23.5749 18.2098ZM23.7953 16.8286C24.1185 16.8872 24.4492 16.8872 24.7798 16.9093C24.4198 16.9682 24.0598 16.9608 23.6998 16.9608C23.7145 16.9313 23.7659 16.8655 23.7953 16.8286ZM24.0892 15.9323C24.5006 15.8955 24.912 15.9102 25.3234 15.925C25.3234 16.1745 25.3161 16.4245 25.294 16.6744C24.8018 16.7477 24.3022 16.7329 23.81 16.7256C23.8982 16.4686 23.9937 16.1966 24.0892 15.9323ZM26.7413 26.2176C27.7919 26.2323 28.8498 26.2176 29.9004 26.2323C30.1281 26.2323 30.3559 26.2323 30.5836 26.1882C30.591 26.2911 30.5983 26.4012 30.6057 26.5041C29.3714 26.4747 28.1372 26.4453 26.8956 26.4453C26.6017 26.438 26.3005 26.46 25.9993 26.4233C25.8965 26.416 25.8818 26.3058 25.8377 26.2396C26.1389 26.2029 26.4401 26.2029 26.7413 26.2176ZM27.9829 24.1752C27.9021 24.4838 27.7038 24.7409 27.5274 25.0054C27.3438 25.2625 27.1748 25.5417 26.9397 25.7621C27.0719 25.7841 27.2042 25.8062 27.3364 25.8429C26.8735 25.9017 26.4107 25.887 25.9479 25.8723C26.6532 25.336 27.2629 24.6821 27.9829 24.1752ZM28.218 22.9777C28.2768 23.3157 28.2327 23.6683 28.3062 24.0062C28.2915 24.065 28.2694 24.1752 28.2621 24.234C28.3502 24.3736 28.4384 24.5058 28.5559 24.6234C29.0628 25.1376 29.6065 25.6299 30.1942 26.0486C29.9518 26.0339 29.702 26.0413 29.4669 25.9898C29.0849 25.4902 28.6294 25.0642 28.2547 24.5573C28.0784 24.3221 28.0784 24.0136 28.1739 23.7491L28.0784 23.7859C28.1445 23.5214 28.1519 23.2422 28.218 22.9777ZM31.7664 32.1831C31.7664 32.2932 31.7591 32.4109 31.7517 32.5211C30.2971 32.5651 28.8425 32.4622 27.3878 32.4768C27.5568 32.3742 27.7038 32.1976 27.9168 32.2052C29.2024 32.1831 30.4808 32.1976 31.7664 32.1831ZM30.6938 20.5972C32.6848 20.5755 34.6683 20.612 36.6592 20.5608C38.5769 20.5682 40.4943 20.5166 42.4045 20.612C42.3089 20.8177 42.1254 21.0235 41.8753 21.0014C38.3269 21.075 34.7711 21.0824 31.2228 20.9793C30.9583 21.0161 30.8334 20.7662 30.6938 20.5972ZM37.7613 16.8724C37.7245 16.7329 37.7024 16.5934 37.6657 16.4613C37.5115 16.2334 37.2691 16.0718 37.0855 15.8661C37.4233 15.947 37.7245 16.1455 37.9157 16.4392C37.9964 16.5787 38.18 16.645 38.2094 16.8066C38.1873 17.0418 37.9008 16.9166 37.7613 16.8724ZM37.8347 17.1518C37.9082 17.115 37.9816 17.0782 38.0553 17.0418C38.0553 17.1371 38.0477 17.2324 38.0331 17.3208C37.9597 17.2693 37.8936 17.2107 37.8347 17.1518ZM35.3738 19.6718C35.3368 19.554 35.3076 19.4293 35.3149 19.3045C35.3149 18.6798 35.3368 18.0555 35.3295 17.4309C35.3589 17.1666 35.5425 16.9608 35.6308 16.7256C35.7483 16.3729 36.1084 16.1966 36.4389 16.1013C36.8063 15.9982 37.1662 16.2555 37.3719 16.5419C37.5704 16.8724 37.7834 17.2255 37.7613 17.6219C37.7613 18.3566 37.7834 19.0987 37.7467 19.8334C37.7245 20.0098 37.842 20.1493 37.9157 20.2961C36.9972 20.2229 36.0717 20.2229 35.1532 20.1934C35.256 20.0245 35.3295 19.8555 35.3738 19.6718ZM35.4545 16.6818C35.3662 16.7771 35.2634 16.8724 35.1605 16.9534C35.1313 16.9682 35.0798 17.005 35.0576 17.0197C35.2415 17.1077 35.2048 17.2545 35.1313 17.3944C35.0284 17.2034 35.0357 16.9755 34.8813 16.8066C35.2121 16.3509 35.6675 15.8955 36.2553 15.8587C36.1524 15.9691 36.0055 16.0277 35.8805 16.1013C35.7409 16.1745 35.6308 16.2997 35.4766 16.3582L35.4324 16.3803C35.3883 16.4834 35.3957 16.5787 35.4545 16.6818ZM34.83 16.1602C35.1826 15.7928 35.6602 15.5944 36.123 15.3886C36.292 15.3371 36.3508 15.1682 36.4537 15.0434C36.6519 15.036 36.7329 15.2491 36.8943 15.315C37.4087 15.5429 37.9449 15.7928 38.3417 16.204C38.2683 16.2702 38.1873 16.3365 38.1139 16.4024C37.8714 15.8513 37.2397 15.6312 36.718 15.4549C36.674 15.6091 36.6446 15.7707 36.5639 15.9029C36.505 15.7634 36.4537 15.6165 36.4094 15.4693C35.8438 15.6312 35.2634 15.925 34.9696 16.4539C34.9034 16.3729 34.7493 16.2776 34.83 16.1602ZM36.5272 13.4859C36.5857 13.9192 36.6225 14.3602 36.7108 14.7934C36.5933 14.7934 36.4756 14.7934 36.3654 14.7861C36.4537 14.3602 36.461 13.9192 36.5272 13.4859ZM45.2549 32.2125C45.4533 32.1903 45.5781 32.3521 45.7106 32.4695C44.2631 32.4695 42.8233 32.5797 41.3759 32.5211C41.3613 32.4109 41.3464 32.3005 41.3391 32.1831C42.6394 32.2125 43.9472 32.1903 45.2549 32.2125ZM42.9847 26.2176C44.0574 26.225 45.1371 26.225 46.2102 26.2176C46.5698 26.2323 46.9371 26.1955 47.2971 26.2543C47.2677 26.2984 47.2092 26.3866 47.1797 26.4233C45.6297 26.4674 44.0868 26.4674 42.5365 26.4968C42.5365 26.3866 42.5365 26.2763 42.5365 26.1588C42.6761 26.1955 42.8306 26.2176 42.9847 26.2176ZM44.4027 24.7703C44.5495 24.6234 44.7259 24.4911 44.8143 24.2927C44.8581 23.852 44.8068 23.3965 44.8876 22.9557C44.9538 23.2275 44.9538 23.514 45.0197 23.7859L44.8949 23.8373C44.8949 23.8593 44.9023 23.896 44.9097 23.9108C44.9387 23.9254 44.9976 23.9475 45.0344 23.9621C45.005 24.2193 44.9465 24.4838 44.7701 24.6821C44.4027 25.1229 43.9985 25.5343 43.6532 25.9972C43.4108 26.0413 43.1686 26.0413 42.9261 26.0413C43.455 25.6739 43.9324 25.2258 44.4027 24.7703ZM47.1503 25.8796C46.7093 25.8723 46.2613 25.9017 45.8281 25.8503C45.9381 25.7988 46.0633 25.7694 46.1807 25.7401C45.9749 25.549 45.7913 25.336 45.6444 25.0936C45.4681 24.7997 45.2181 24.5205 45.1813 24.1605C45.8351 24.7409 46.4892 25.314 47.1503 25.8796ZM48.054 17.5781C48.5608 17.5924 49.0751 17.5707 49.5823 17.6072C49.5598 17.6366 49.5013 17.6808 49.4792 17.7102C48.9061 17.7471 48.3333 17.725 47.7529 17.7323C47.5618 17.7176 47.3413 17.7688 47.1944 17.6219C47.4735 17.5707 47.7676 17.5634 48.054 17.5781ZM47.5324 17.1739C48.3109 17.1371 49.0898 17.1445 49.8687 17.1297C49.8245 17.2472 49.7803 17.365 49.7292 17.4824C48.9135 17.4456 48.0908 17.4824 47.2751 17.475C47.3413 17.365 47.3487 17.1445 47.5324 17.1739ZM49.0165 15.9397C49.1266 16.204 49.2146 16.4834 49.3029 16.7624C48.8181 16.7256 48.3333 16.7624 47.8482 16.7035C47.797 16.4466 47.7893 16.1819 47.7749 15.9176C48.1935 15.9102 48.605 15.9176 49.0165 15.9397ZM49.413 16.9534C49.0165 16.9755 48.6197 16.9461 48.2303 16.9166C48.5829 16.8581 48.9503 16.8798 49.3103 16.8507C49.3397 16.8724 49.3909 16.9313 49.413 16.9534ZM47.5471 18.2024C47.5544 18.114 47.5618 18.0334 47.5692 17.9451C48.2082 17.8939 48.8549 17.9234 49.494 17.9307C49.5013 18.0187 49.5013 18.114 49.5087 18.2024C48.8619 18.2466 48.2008 18.2539 47.5471 18.2024ZM47.5324 18.5771C48.1276 18.555 48.7298 18.5403 49.325 18.5771C49.3471 19.2309 49.3541 19.8846 49.3541 20.5387C48.7375 20.5825 48.1202 20.5682 47.5029 20.5461C47.4297 19.892 47.4882 19.2309 47.5324 18.5771ZM49.3541 20.8914C49.3835 21.4203 49.3692 21.9493 49.406 22.4782C49.3692 22.5075 49.3397 22.5296 49.3029 22.559C48.6492 22.3165 47.9807 22.0961 47.3266 21.8683C47.334 21.5598 47.3266 21.244 47.3413 20.9355C48.0102 20.8545 48.6856 20.8693 49.3541 20.8914ZM59.5957 31.4117C59.5074 31.5953 59.4267 31.7789 59.309 31.9479C57.5605 31.9039 55.812 31.9479 54.0709 31.9333C51.7935 31.926 49.516 31.9479 47.2383 31.9185C46.9151 31.9406 46.6949 31.676 46.5554 31.419C50.9045 31.3969 55.2536 31.419 59.5957 31.4117ZM54.1666 26.3939C54.3208 26.4012 54.4747 26.4086 54.6293 26.4233C54.563 26.6069 54.372 26.5629 54.2251 26.5555C54.1957 26.5041 54.181 26.4527 54.1666 26.3939ZM54.012 27.6282C53.5861 27.6869 53.1672 27.6575 52.7413 27.6649C52.7413 27.1873 52.7487 26.7098 52.7119 26.2323C53.1083 26.2617 53.5125 26.2102 53.9019 26.2984C54.1515 26.6878 54.0709 27.1873 54.012 27.6282ZM52.7487 28.0175C53.1893 28.0249 53.6229 28.0249 54.0635 28.0395C54.0783 28.6493 54.0783 29.2591 54.0709 29.8689C53.6299 29.8689 53.1967 29.8615 52.763 29.8615C52.763 29.2517 52.7631 28.6346 52.7487 28.0175ZM52.6677 28.0249C52.6456 28.642 52.6604 29.2517 52.653 29.8689C52.2415 29.8762 51.8229 29.8689 51.4114 29.8762C51.3967 29.2958 51.3672 28.7228 51.3599 28.1424C51.7861 28.0469 52.2271 28.0469 52.6677 28.0249ZM52.6604 27.6722C52.2488 27.6796 51.8377 27.6943 51.4261 27.6649C51.404 27.2167 51.2277 26.6217 51.6466 26.2984C51.9698 26.2249 52.3077 26.2617 52.6383 26.2396C52.6309 26.7171 52.6456 27.1947 52.6604 27.6722ZM50.6549 26.4307C50.8383 26.4233 51.0146 26.4307 51.1983 26.438C51.1909 26.482 51.1765 26.5629 51.1688 26.6069C51.0808 26.6217 50.9925 26.6363 50.9119 26.651C50.8162 26.5849 50.7282 26.5115 50.6549 26.4307ZM55.0994 30.7064C54.7909 30.7211 54.4898 30.7211 54.1883 30.6991C54.1372 30.5888 54.1077 30.3905 53.9388 30.4199C53.101 30.3978 52.2635 30.4052 51.4335 30.4199C51.404 30.5007 51.3819 30.5815 51.3378 30.655C51.0514 30.7064 50.7576 30.677 50.4709 30.6844C50.4709 30.508 50.4786 30.3243 50.4856 30.1481C50.6472 30.1554 50.8162 30.1554 50.9781 30.1554C50.9487 29.0167 50.9045 27.8853 50.9119 26.7465C50.9557 26.7612 51.044 26.7906 51.0882 26.8053C51.1029 27.922 51.125 29.0387 51.1541 30.1481C52.2271 30.2068 53.3067 30.1995 54.3867 30.1774C54.3503 29.3399 54.3573 28.5024 54.3573 27.6649C54.3646 27.3123 54.3135 26.9522 54.3867 26.5996C54.5262 26.8053 54.4747 27.0625 54.4898 27.2976C54.5115 28.2453 54.541 29.193 54.5925 30.1407C54.7688 30.1407 54.9378 30.1407 55.1141 30.1407C55.092 30.3391 55.092 30.5227 55.0994 30.7064ZM49.8981 25.4976C51.7567 25.4315 53.6078 25.4462 55.4667 25.4609C55.6504 25.4241 55.7531 25.5858 55.7899 25.7327C55.3346 25.8796 54.8424 25.8723 54.372 25.8943C53.3435 25.9017 52.3077 25.887 51.2792 25.887C50.7945 25.8796 50.3023 25.8943 49.8172 25.8282C49.8392 25.718 49.8687 25.6078 49.8981 25.4976ZM54.0046 25.1964C53.1304 25.1817 52.2562 25.1964 51.3746 25.1744C51.6172 24.6748 52.1019 24.2854 52.6677 24.2634C53.2552 24.278 53.7551 24.6895 54.0046 25.1964ZM52.9099 24.0283C52.1314 23.9328 51.3746 24.4617 51.0956 25.1817C50.9851 25.1817 50.8751 25.1817 50.7724 25.1817C51.0367 24.447 51.7493 23.9034 52.5278 23.852C53.4536 23.7711 54.3135 24.3883 54.7394 25.1744C54.5851 25.1744 54.4383 25.1744 54.284 25.1817C54.0856 24.5793 53.5051 24.1678 52.9099 24.0283ZM52.403 23.2789C52.4104 23.3083 52.4325 23.3671 52.4399 23.3965C52.4767 23.2275 52.6088 23.2569 52.7413 23.2863C53.0204 23.2348 53.292 23.3303 53.5493 23.4332C54.3208 23.7491 54.9451 24.3883 55.2757 25.1523C55.2242 25.1523 55.1215 25.1523 55.0699 25.1523C54.5999 24.3001 53.7698 23.5948 52.7781 23.4773L52.763 23.3671C52.7192 23.4258 52.6751 23.4846 52.6309 23.5434C52.3961 23.4552 52.1608 23.5581 51.9403 23.6316C51.2351 23.8887 50.7135 24.5058 50.4124 25.1744C50.3461 25.1744 50.2066 25.1817 50.1403 25.1817C50.4492 24.2046 51.3529 23.3597 52.403 23.2789ZM52.5429 21.7803C52.6235 22.1624 52.6162 22.5663 52.7487 22.941C52.6235 22.9557 52.5061 22.963 52.381 22.9777C52.4988 22.5884 52.4693 22.1768 52.5429 21.7803ZM57.8469 28.7742C57.6341 28.4877 57.5016 28.1571 57.2958 27.8632C57.4648 27.8779 57.6341 27.8926 57.8031 27.9C57.8174 28.1865 57.8399 28.4804 57.8469 28.7742ZM58.4347 27.371C58.1189 27.6502 57.693 27.6355 57.3035 27.6428C57.1346 27.6796 57.1195 27.4665 57.0389 27.371C57.5016 27.3637 57.972 27.3784 58.4347 27.371ZM46.4303 43.1956C46.636 43.1883 46.8418 43.2544 47.0034 43.394C46.9151 43.4161 46.8271 43.438 46.7317 43.438C45.3724 43.4823 44.0061 43.5117 42.6394 43.4969C42.6394 43.394 42.6394 43.2838 42.6394 43.181C43.9032 43.1516 45.174 43.1589 46.4303 43.1956ZM45.997 42.6667C46.1582 42.6448 46.2687 42.7844 46.3865 42.8797C45.1301 42.9164 43.8738 42.9458 42.6248 42.9534C42.6248 42.8578 42.6175 42.7695 42.6175 42.6742C43.7415 42.6521 44.8655 42.6594 45.997 42.6667ZM26.7413 43.2031C27.9902 43.1737 29.2392 43.1516 30.4881 43.1664C30.4808 43.2693 30.4734 43.3722 30.4661 43.475C28.9967 43.5409 27.5201 43.4896 26.0507 43.438C26.1756 43.1737 26.5063 43.2399 26.7413 43.2031ZM30.4881 42.6594C30.4881 42.7477 30.4881 42.843 30.4881 42.9385C29.2465 42.9534 28.0123 42.9164 26.7707 42.8797C26.9103 42.7695 27.0719 42.6594 27.2629 42.6815C28.3356 42.6815 29.4082 42.6521 30.4881 42.6594ZM26.6605 32.0068C26.6678 32.1096 26.6532 32.2125 26.5724 32.2859C26.3373 32.5357 26.1095 32.8002 25.8303 33.006C26.0434 32.624 26.2491 32.1976 26.6605 32.0068ZM27.7038 32.7268C29.0482 32.7268 30.4 32.7487 31.7517 32.7268C31.6415 32.8883 31.5313 33.05 31.4138 33.2042C29.7608 33.1674 28.1078 33.219 26.4548 33.1456C26.7486 32.7781 27.2482 32.7193 27.7038 32.7268ZM26.5724 26.8567C26.7413 26.8567 26.903 26.8641 27.0719 26.8788C26.9323 27.011 26.6385 27.1065 26.5724 26.8567ZM26.5724 28.5612C26.6311 28.0689 26.5797 27.5474 26.7413 27.0771C26.8001 27.1947 26.8589 27.3123 26.8515 27.4518C26.8515 28.2085 26.8589 28.9726 26.8368 29.7293C26.7119 29.3546 26.5063 28.9799 26.5724 28.5612ZM32.2513 39.9411C32.0162 40.1542 31.7444 40.3159 31.4946 40.514C31.3109 40.6612 31.1273 40.8521 30.8701 40.8521C31.0759 40.6831 31.3036 40.5435 31.5166 40.3893C31.7591 40.2276 31.9722 40.0219 32.2513 39.9411ZM32.5966 29.4869C32.6333 29.8615 32.6848 30.2362 32.7362 30.6109C32.5084 30.6035 32.2807 30.6109 32.0603 30.6109C31.9354 30.2362 31.8178 29.8468 31.5975 29.5089C31.9281 29.4869 32.266 29.4795 32.5966 29.4869ZM41.0894 30.5595C40.9571 30.5668 40.8175 30.5815 40.6852 30.5888C40.6925 30.2215 40.7147 29.8615 40.7074 29.4942C40.9938 29.4869 41.273 29.4942 41.5594 29.5089C41.3391 29.8321 41.1995 30.1921 41.0894 30.5595ZM40.8983 39.919C41.148 40 41.3391 40.1982 41.5522 40.3378C41.7946 40.5216 42.0665 40.6831 42.2868 40.9036C42.0149 40.8375 41.8092 40.6318 41.5889 40.4701C41.3537 40.2865 41.104 40.132 40.8983 39.919ZM36.6886 36.2018C36.6592 35.9667 36.6519 35.7315 36.6446 35.5036C37.0193 35.5185 37.3865 35.5112 37.7613 35.5036C37.7761 36.0768 37.7467 36.6573 37.8053 37.2302C37.46 36.8555 37.0634 36.5396 36.6886 36.2018ZM36.63 33.4026C36.9678 33.4542 37.3941 33.3953 37.6584 33.6523C37.71 34.2328 37.7024 34.8133 37.7467 35.3935C37.3792 35.3862 37.0193 35.3789 36.6519 35.3789C36.6373 34.725 36.6519 34.0638 36.63 33.4026ZM36.6373 36.5177C36.8649 36.7159 37.1222 36.8776 37.3279 37.0979C37.0707 36.9732 36.8357 36.7969 36.6079 36.6278C36.3508 36.7893 36.1008 36.9656 35.8584 37.1495C36.0863 36.9143 36.3654 36.7234 36.6373 36.5177ZM36.5123 35.5112C36.505 35.7461 36.5123 35.974 36.5123 36.2091C36.1524 36.525 35.8144 36.863 35.4251 37.1346C35.4472 36.5911 35.4396 36.0474 35.4472 35.5112C35.7998 35.5112 36.1597 35.5185 36.5123 35.5112ZM36.5196 35.3862C36.167 35.3935 35.8217 35.3935 35.4691 35.3862C35.4691 34.7984 35.4766 34.2034 35.4839 33.6156C35.8144 33.4833 36.167 33.4247 36.5272 33.4099C36.5123 34.0711 36.5272 34.725 36.5196 35.3862ZM37.9964 36.863C37.9891 35.805 37.9891 34.7544 37.9743 33.6966C38.0259 33.3659 37.6365 33.2557 37.4014 33.1528C36.674 32.8443 35.8805 33.1161 35.2048 33.432C35.1972 34.6956 35.212 35.9594 35.212 37.2229C35.2193 37.3185 35.1459 37.3846 35.0946 37.4581C35.0946 36.1575 35.0946 34.8646 35.087 33.5643C35.087 33.4174 35.0798 33.2336 35.2266 33.1456C35.6602 32.8002 36.1524 32.5357 36.6006 32.2198C37.0488 32.5578 37.5628 32.8002 37.967 33.2042C38.0993 33.307 38.0844 33.4833 38.092 33.6305C38.0844 34.9234 38.1066 36.2164 38.1433 37.5021C37.9449 37.3477 38.0185 37.0833 37.9964 36.863ZM39.473 30.6182C39.5173 30.2362 39.5097 29.8468 39.5318 29.4648C39.723 29.4575 39.9212 29.4575 40.1123 29.4648C40.1636 29.8468 40.1636 30.2288 40.1784 30.6182C39.9433 30.6109 39.7082 30.6182 39.473 30.6182ZM38.4079 29.4428C38.6061 29.4501 38.8118 29.4501 39.0102 29.4648C39.0542 29.8468 39.0469 30.2362 39.0542 30.6182C38.7532 30.6109 38.4446 30.6256 38.1506 30.5815C38.2316 30.5742 38.305 30.5668 38.3931 30.5668C38.4225 30.1995 38.4225 29.8175 38.4079 29.4428ZM37.2178 30.6182C37.2912 30.2288 37.2764 29.8248 37.3058 29.4281C37.5042 29.4428 37.7024 29.4501 37.8936 29.4575C37.9524 29.8395 37.9597 30.2288 37.9816 30.6109C37.7245 30.6109 37.4748 30.6109 37.2178 30.6182ZM36.2699 29.4281C36.4389 29.4428 36.6152 29.4501 36.7915 29.4501C36.8136 29.8395 36.8063 30.2288 36.8357 30.6182C36.6373 30.6182 36.4389 30.6182 36.2404 30.6182C36.336 30.2435 36.3654 29.8175 36.2699 29.4281ZM35.381 30.3317C35.3662 30.0378 35.4763 29.7073 35.3001 29.4428C35.4691 29.4501 35.6454 29.4501 35.8217 29.4501C35.8217 29.8395 35.8071 30.2288 35.8365 30.6182C35.6162 30.6109 35.4029 30.6109 35.1826 30.6035C35.2782 30.5374 35.3957 30.4713 35.381 30.3317ZM34.235 29.5897C34.1909 29.5456 34.1467 29.5016 34.1027 29.4575C34.3378 29.4501 34.573 29.4575 34.8079 29.4648C34.8522 29.8468 34.8522 30.2362 34.8961 30.6256C34.661 30.6256 34.4334 30.6182 34.1982 30.6256C34.2717 30.2803 34.235 29.935 34.235 29.5897ZM33.1256 29.4354C33.2872 29.4501 33.4488 29.4575 33.6031 29.4795C33.6839 29.8542 33.6839 30.2362 33.7353 30.6182C33.4856 30.6182 33.2431 30.6182 33.0007 30.6109C33.0594 30.5742 33.1182 30.5301 33.1697 30.486C33.2137 30.1334 33.2211 29.7734 33.1256 29.4354ZM32.0824 33.2703C32.097 32.4622 32.0897 31.6541 32.075 30.846C35.0503 30.846 38.0259 30.8386 40.9938 30.8533C41.016 33.7773 40.9865 36.7013 41.016 39.6253C40.2665 39.1331 39.5318 38.6115 38.7824 38.1193C38.6722 38.0677 38.6576 37.9354 38.6503 37.8252C38.5548 36.356 38.5032 34.8794 38.4298 33.4099C38.4079 33.2263 38.5402 33.0794 38.5693 32.9104C38.011 32.5357 37.3865 32.2638 36.8282 31.8966C36.6813 31.7937 36.674 31.5953 36.5933 31.4484C36.5272 31.5734 36.4829 31.7203 36.3949 31.8377C35.8144 32.2638 35.1237 32.5138 34.5508 32.9398C34.6316 33.1089 34.7639 33.2703 34.7344 33.4687C34.6683 34.9307 34.6097 36.3927 34.5508 37.8547C34.3673 38.0898 34.0881 38.2294 33.8455 38.4057C33.2578 38.8172 32.6627 39.2138 32.0603 39.6031C32.0824 37.4948 32.075 35.3862 32.0824 33.2703ZM36.5639 38.0237C36.1746 38.3469 35.7558 38.626 35.3516 38.9346C34.5214 39.5445 33.728 40.2057 32.8978 40.8154C32.5966 40.9109 32.266 40.8375 31.9501 40.8888C33.3533 39.7354 34.7933 38.6333 36.248 37.5461C36.3654 37.48 36.4829 37.2963 36.63 37.3919C36.8136 37.4948 36.9899 37.6268 37.1589 37.7591C38.4813 38.8096 39.8404 39.8237 41.148 40.8961C40.8469 40.8375 40.5384 40.8742 40.237 40.8302C39.0175 39.8896 37.8274 38.9125 36.5639 38.0237ZM37.8128 40.8302C37.0121 40.8448 36.2113 40.8154 35.4105 40.8302C35.6308 40.5289 35.6454 40.1396 35.6602 39.7794C35.9761 39.6765 36.3066 39.6399 36.63 39.5958C36.9459 39.5958 37.2251 39.7649 37.5409 39.7354C37.5261 40.1175 37.585 40.5216 37.8128 40.8302ZM37.6511 39.537C37.4527 39.4562 37.2764 39.3461 37.0855 39.2505C36.9384 39.3461 36.799 39.449 36.6813 39.5812C36.7108 39.5445 36.762 39.4784 36.7842 39.4417C36.7253 39.2138 36.762 38.9274 36.5785 38.751C36.4904 38.9419 36.4462 39.155 36.417 39.3607C36.3433 39.3682 36.2037 39.3828 36.1303 39.3901C36.1084 39.3607 36.0641 39.2945 36.0423 39.2654C35.8438 39.2432 35.7777 39.4417 35.6748 39.5664C35.4912 39.5737 35.3076 39.5664 35.1237 39.5664C35.1532 39.8677 35.3662 40.1614 35.2193 40.4628C35.1605 40.6612 34.9402 40.7198 34.7566 40.6685C34.6021 40.5362 34.6316 40.2792 34.4626 40.169C34.2128 40.257 34.1248 40.5289 33.9925 40.7274C33.8382 40.8521 33.6105 40.7859 33.4341 40.8154C33.7867 40.4701 34.1909 40.2057 34.5654 39.8823C35.2342 39.3828 35.8732 38.8391 36.5711 38.3836C37.1074 38.7216 37.6144 39.1036 38.092 39.5151C38.6798 39.9266 39.2306 40.3745 39.7889 40.8154C39.6053 40.7932 39.3995 40.8227 39.2306 40.7419C39.0837 40.5289 38.9295 40.3086 38.7016 40.169C38.5032 40.2497 38.4959 40.4995 38.4225 40.6685C38.3636 40.6685 38.2389 40.6685 38.18 40.6685C37.9891 40.4995 37.8641 40.2276 37.9524 39.9779C37.9964 39.8383 38.0404 39.6914 38.0699 39.5518C37.9376 39.5518 37.7907 39.5664 37.6511 39.537ZM46.4008 32.058C46.5186 32.0875 46.6581 32.1169 46.7387 32.2125C46.9519 32.4476 47.1282 32.712 47.2754 32.9911C46.9151 32.7562 46.6434 32.4034 46.4008 32.058ZM46.1144 26.9155C46.276 26.9155 46.4376 26.9229 46.5919 26.9376C46.4892 27.1212 46.2102 27.0992 46.1144 26.9155ZM46.3055 27.2241C46.3423 27.2461 46.4156 27.2828 46.4524 27.2976C46.4965 27.7677 46.5113 28.2379 46.5554 28.7008C46.6066 29.0681 46.3497 29.3766 46.3055 29.7293C46.3346 28.8918 46.2687 28.0616 46.3055 27.2241ZM45.997 32.7635C46.2396 32.8516 46.445 33.0133 46.6508 33.1601C45.0344 33.1674 43.4183 33.1896 41.8019 33.175C41.5816 33.1234 41.442 32.8958 41.317 32.7268C42.6027 32.7414 43.8957 32.7341 45.1813 32.7268C45.4533 32.7341 45.725 32.7193 45.997 32.7635ZM45.9455 29.9056C45.5855 29.9276 45.2181 29.9129 44.8581 29.9129C44.8508 29.3913 44.8581 28.8624 44.8287 28.3408C45.196 28.3628 45.5708 28.3628 45.9381 28.3922C45.9528 28.8991 45.9602 29.3987 45.9455 29.9056ZM45.9013 28.0102C45.5413 28.0763 45.1813 28.0469 44.8213 28.0689C44.8434 27.6282 44.8287 27.1873 44.8068 26.7465C45.189 26.8053 45.6886 26.7025 45.9528 27.0478C46.0044 27.3563 46.0044 27.709 45.9013 28.0102ZM43.7048 28.113C43.7048 27.7971 43.6753 27.4812 43.6975 27.1653C43.8884 26.798 44.3292 26.6804 44.7186 26.7245C44.7407 27.1727 44.7113 27.6282 44.7553 28.0763C44.4027 28.0983 44.0501 28.0983 43.7048 28.113ZM44.7332 29.9424C44.3954 29.9497 44.0574 29.9424 43.7193 29.9644C43.7269 29.3913 43.7193 28.8257 43.7048 28.2526C44.0501 28.2967 44.3954 28.304 44.7332 28.3187C44.7259 28.8624 44.7332 29.406 44.7332 29.9424ZM43.2639 26.9082C43.3962 26.9155 43.5285 26.9229 43.6532 26.9376C43.543 27.011 43.4256 27.0551 43.3006 27.0918C43.2933 27.0404 43.2712 26.9522 43.2639 26.9082ZM43.3889 30.2142C43.4108 29.2665 43.3667 28.3187 43.4035 27.3784C43.4183 27.3343 43.455 27.2461 43.4696 27.1947C43.5506 28.1791 43.4769 29.1709 43.5506 30.1554C44.3071 30.1921 45.0713 30.1921 45.8281 30.2509C45.8645 30.2729 45.9308 30.317 45.9602 30.3391C45.3359 30.3905 44.7113 30.3317 44.0868 30.3391C43.6386 30.3243 43.1832 30.3831 42.735 30.3831C42.9407 30.3097 43.1686 30.2656 43.3889 30.2142ZM37.6878 28.7962C39.2014 28.8036 40.7219 28.7816 42.2355 28.8257C42.0884 29.0167 41.9196 29.2591 41.6477 29.2444C40.1563 29.2885 38.6649 29.2738 37.1735 29.2811C35.3149 29.2517 33.4488 29.3032 31.5901 29.2591C31.4726 29.2517 31.3477 29.2517 31.2375 29.2077C31.1052 29.1048 31.0244 28.9579 30.9362 28.8183C33.1843 28.7816 35.4396 28.7889 37.6878 28.7962ZM36.0717 21.604C34.404 21.6261 32.7362 21.4936 31.0611 21.5304C31.0538 21.4645 31.0391 21.332 31.0391 21.2734C31.8326 21.2219 32.6333 21.2514 33.4268 21.2293C35.3368 21.1998 37.2545 21.1851 39.1644 21.2219C40.1196 21.2366 41.0745 21.1998 42.0298 21.2882C41.9196 21.5083 41.6917 21.6478 41.442 21.6261C39.6493 21.6261 37.8641 21.6261 36.0717 21.604ZM39.598 22.1624C37.2985 22.2062 34.999 22.1624 32.6921 22.2062C32.4791 22.2062 32.2513 22.2357 32.0456 22.1768C31.9428 22.0961 31.884 21.9714 31.8105 21.8683C34.9696 21.8315 38.1287 21.7729 41.2803 21.8683C41.1996 21.9714 41.1407 22.1256 40.9865 22.1403C40.531 22.1768 40.0608 22.155 39.598 22.1624ZM37.1074 23.2128C36.4683 23.2275 35.8365 23.1981 35.1972 23.2201C35.4839 23.1393 35.7777 23.0805 36.0568 22.9557C36.292 22.8602 36.5566 22.7206 36.8063 22.8381C37.1295 22.9703 37.4527 23.0952 37.7613 23.2569C37.5409 23.2348 37.3279 23.2054 37.1074 23.2128ZM35.8584 23.9621C35.5719 24.065 35.212 24.0944 35.043 24.3809C35.1237 24.0797 35.1532 23.7638 35.168 23.4479C36.0862 23.4479 37.0121 23.4699 37.9376 23.4258C37.9524 23.6903 37.967 23.9475 38.0185 24.2119C37.3498 23.896 36.5711 23.7124 35.8584 23.9621ZM36.63 24.2119C37.0121 24.2707 37.4014 24.3148 37.754 24.4764C37.8496 24.8291 37.7761 25.2184 37.7907 25.5858C37.4014 25.6004 37.0193 25.5858 36.63 25.5931C36.63 25.1303 36.6225 24.6748 36.63 24.2119ZM36.6152 25.8576C37.0121 25.8723 37.4087 25.8576 37.8053 25.8723C37.798 26.3792 37.8053 26.8861 37.798 27.393C37.4014 27.393 37.0121 27.393 36.6152 27.4004C36.63 26.8861 36.6225 26.3719 36.6152 25.8576ZM38.136 27.6502C38.1727 27.7457 38.2094 27.8338 38.2535 27.9293C37.1883 27.9367 36.123 27.9514 35.0576 27.9146C35.0725 27.8338 35.0946 27.753 35.1092 27.6722C36.1157 27.6575 37.1295 27.6796 38.136 27.6502ZM36.5123 25.8576C36.5123 26.3719 36.505 26.8788 36.5123 27.393C36.123 27.3857 35.7336 27.393 35.3443 27.3857C35.3443 26.8788 35.3443 26.3719 35.3443 25.865C35.7336 25.865 36.123 25.865 36.5123 25.8576ZM36.5123 25.6004C36.1376 25.6004 35.7631 25.6078 35.3883 25.5858C35.381 25.2111 35.3662 24.8364 35.3883 24.4617C35.7483 24.3295 36.1303 24.2634 36.5196 24.2193C36.505 24.6821 36.5123 25.1376 36.5123 25.6004ZM40.9792 28.5024C38.0259 28.4804 35.0725 28.5024 32.1191 28.5097C32.1411 26.4894 32.1191 24.4617 32.1264 22.4414C33.6325 22.3753 35.1386 22.412 36.6446 22.412C36.3727 22.4708 36.1157 22.5884 35.8511 22.6765C35.4251 22.8234 34.9769 22.8969 34.5581 23.0585C34.5435 23.2495 34.5141 23.4479 34.5876 23.6242C34.6388 23.7711 34.7493 23.9034 34.7272 24.065C34.6904 24.8952 34.6756 25.7327 34.6243 26.5629C34.6021 27.0037 34.5654 27.4518 34.6021 27.8926C34.874 28.0395 35.168 28.1644 35.4839 28.1644C36.3949 28.2012 37.2985 28.1938 38.2094 28.1865C38.4592 28.2306 38.6136 27.9514 38.6209 27.7383C38.5693 26.4453 38.4665 25.1523 38.4373 23.8593C38.5988 23.6389 38.7678 23.2642 38.5107 23.0438C37.9816 22.7793 37.3719 22.7132 36.8503 22.412C37.4454 22.4708 38.0477 22.412 38.6428 22.412C39.4144 22.412 40.1858 22.412 40.9644 22.4194C40.9865 24.4544 40.9717 26.482 40.9792 28.5024ZM28.387 28.3187C28.7396 28.2967 29.0923 28.2893 29.4375 28.2379C29.4082 28.811 29.4155 29.3913 29.4082 29.9644C29.0628 29.9497 28.7176 29.9497 28.3723 29.9497C28.3943 29.406 28.387 28.8624 28.387 28.3187ZM29.4596 28.0983C29.0996 28.0763 28.7396 28.0836 28.387 28.091C28.4017 27.6282 28.4017 27.1727 28.4017 26.7098C28.7176 26.6951 29.0482 26.7465 29.3126 26.9376C29.5184 26.8861 29.7314 26.9008 29.9298 26.9449C29.8122 27.0478 29.6726 27.0551 29.5331 26.989C29.4963 27.0184 29.4596 27.0478 29.4228 27.0771C29.4816 27.4151 29.4449 27.7604 29.4596 28.0983ZM27.4833 30.2362C28.1886 30.1995 28.8939 30.1848 29.5992 30.1774C29.6433 29.8836 29.6286 29.5824 29.6286 29.2885C29.6212 28.7008 29.6506 28.113 29.6433 27.5253C29.6359 27.4151 29.658 27.3123 29.702 27.2167C29.7755 27.4886 29.7387 27.7677 29.7461 28.0395C29.7387 28.7522 29.7388 29.4721 29.7314 30.1848C29.9444 30.2435 30.1575 30.3023 30.3706 30.3684C29.7975 30.3464 29.2245 30.3097 28.6515 30.3243C28.1519 30.3243 27.645 30.3758 27.1454 30.3317C27.2335 30.2435 27.3658 30.2509 27.4833 30.2362ZM28.2841 28.3408C28.2694 28.8698 28.2841 29.3987 28.2621 29.9277C27.9168 29.935 27.5715 29.9424 27.2262 29.9129C27.1895 29.4134 27.1968 28.9065 27.2115 28.4069C27.5641 28.3775 27.9241 28.3775 28.2841 28.3408ZM28.2915 28.0763C27.9315 28.0542 27.5715 28.0763 27.2189 28.0102C27.1821 27.753 27.1601 27.4886 27.1527 27.2314C27.1527 27.1286 27.1748 27.011 27.285 26.9743C27.5862 26.8053 27.9388 26.7465 28.2768 26.7171C28.2988 27.1727 28.2768 27.6208 28.2915 28.0763ZM29.4596 37.7151C29.4596 38.3396 29.4669 38.9641 29.489 39.5885C29.0335 39.6031 28.5853 39.6031 28.1298 39.6031C28.1298 38.9713 28.1151 38.3469 28.1225 37.7151C28.5707 37.7297 29.0114 37.7297 29.4596 37.7151ZM26.6385 37.5609C27.5568 37.5242 28.4751 37.5315 29.3935 37.5609C28.4751 37.5828 27.5568 37.6049 26.6385 37.5609ZM27.9976 39.6031C27.5642 39.6031 27.1307 39.6399 26.6972 39.5885C26.6678 38.9641 26.6752 38.3323 26.6678 37.7078C27.1087 37.7005 27.5494 37.7005 27.9976 37.7078C28.0049 38.3396 27.9902 38.9713 27.9976 39.6031ZM29.4816 37.3771C28.9894 37.4214 28.4972 37.4065 28.0049 37.4138C28.0049 36.7893 28.0196 36.1648 27.9976 35.533C27.9829 35.5406 27.9462 35.5479 27.9315 35.5479C27.88 36.1648 27.9094 36.782 27.9388 37.3992C27.5127 37.3919 27.0866 37.3992 26.6605 37.3846C26.6458 36.7747 26.6458 36.1575 26.6532 35.5479C27.0793 35.5185 27.498 35.5112 27.9241 35.4745C28.431 35.4302 28.9453 35.4818 29.4449 35.3495C28.4898 35.2466 27.5348 35.2539 26.5797 35.2393C26.543 35.019 26.5136 34.7984 26.4915 34.5708C26.9691 34.3429 27.4613 34.1005 27.9976 34.0786C28.3723 34.1299 28.7396 34.2401 29.1069 34.3357C28.5633 34.387 28.0049 34.4237 27.476 34.5927C27.9976 34.5414 28.5192 34.6075 29.0261 34.725C28.5192 34.7617 28.0123 34.7617 27.5054 34.8057C28.1519 35.0557 28.8572 35.063 29.5331 35.1804C29.5037 35.2906 29.4743 35.3935 29.4743 35.5112C29.4816 36.1502 29.5037 36.7674 29.4816 37.3771ZM26.6385 40.5802C27.6009 40.4333 28.5707 40.3599 29.5477 40.3086C29.8416 40.301 30.1061 40.1175 30.2457 39.8677C30.3118 39.6547 30.04 39.618 29.9077 39.5664C29.8343 38.1117 29.8416 36.6497 29.7975 35.1953C29.9077 35.1659 30.0326 35.151 30.1355 35.0997C30.2089 34.938 30.1869 34.7544 30.1795 34.5781C30.1869 34.3945 29.9812 34.3429 29.849 34.2841C29.3273 34.1005 28.8057 33.9315 28.2841 33.7406C28.0564 33.6305 27.836 33.77 27.6229 33.8435C27.0866 34.0638 26.5356 34.2328 25.992 34.4164C25.9332 34.681 25.9626 34.9528 25.992 35.2172C26.0801 35.2615 26.227 35.2687 26.2344 35.3935C26.2785 35.6359 26.2565 35.8857 26.2638 36.1357C26.2491 37.3919 26.2565 38.6482 26.3079 39.9044C27.116 39.919 27.9315 39.8896 28.7396 39.9117C29.2172 39.9266 29.6947 39.8896 30.1649 39.9779C30.1208 40 30.0326 40.0513 29.9885 40.0807C28.6368 40.0219 27.2776 40.0661 25.9185 40.088C25.8744 37.8693 25.6907 35.6581 25.5071 33.4466C27.476 33.432 29.4522 33.4393 31.4211 33.4099C31.5901 33.6229 31.6856 33.8802 31.6636 34.1521C31.6636 36.0695 31.6709 37.9797 31.6709 39.8972C31.2448 40.2276 30.8187 40.5583 30.3926 40.8815C30.0326 41.0284 29.6065 40.8008 29.2539 41.0065C29.2539 41.0357 29.2465 41.1018 29.2392 41.1312C29.5037 41.4253 29.871 41.594 30.1722 41.8513C30.2971 41.9615 30.4514 42.0716 30.4587 42.2628C30.3044 42.2922 30.1502 42.2995 29.9959 42.2995C28.9159 42.2995 27.8433 42.2922 26.7633 42.3141C26.4548 42.3508 26.1903 42.1672 25.9259 42.0349C25.8744 41.7044 25.9259 41.3664 25.9332 41.0357C26.9691 40.9698 28.0049 40.9477 29.0482 40.9622C29.2465 40.955 29.5257 40.9622 29.5918 40.7198C28.5927 40.6245 27.6082 40.6831 26.6385 40.5802ZM31.0098 41.4838C30.8334 41.4838 30.6571 41.4914 30.4808 41.4693C30.3044 41.4693 30.2677 41.2635 30.1942 41.1385C34.448 41.124 38.6943 41.124 42.948 41.1385C42.86 41.2635 42.8011 41.4766 42.6175 41.4766C38.7532 41.5281 34.8813 41.4693 31.0098 41.4838ZM41.9931 42.2774C38.3858 42.2479 34.7785 42.2922 31.1714 42.2701C31.0171 42.1378 30.8849 41.9687 30.7232 41.8364C33.1182 41.9026 35.5133 41.8146 37.9082 41.8513C39.4068 41.8364 40.9058 41.8732 42.4045 41.8292C42.2574 41.9687 42.1105 42.1156 41.9931 42.2774ZM41.5594 53.5544C41.5376 53.4737 41.5155 53.3854 41.4933 53.3047C41.7873 53.2901 42.0884 53.2826 42.3824 53.312C42.3969 53.3854 42.4191 53.4589 42.4337 53.5323C42.1472 53.5471 41.8535 53.5471 41.5594 53.5544ZM41.7725 54.0834C41.7285 53.9732 41.6917 53.863 41.6477 53.7529C41.9196 53.7675 42.1839 53.7529 42.4558 53.7748C42.5365 53.8558 42.5514 53.9805 42.6027 54.0909C42.3235 54.0834 42.0516 54.1055 41.7725 54.0834ZM41.9488 54.6344C41.9048 54.5243 41.8608 54.4068 41.824 54.2891C42.1032 54.2891 42.3896 54.2672 42.6761 54.2891C42.7717 54.3847 42.8524 54.5021 42.9334 54.6198C42.6027 54.605 42.2722 54.6344 41.9488 54.6344ZM42.0149 54.8328C42.353 54.8256 42.6837 54.7961 43.0214 54.818C43.1759 54.8917 43.2344 55.0753 43.3155 55.2076C42.9407 55.1709 42.566 55.2 42.1912 55.2222C42.1326 55.0972 42.0665 54.9724 42.0149 54.8328ZM30.9069 56.2433C32.457 56.2141 34.0072 56.2287 35.5647 56.2287C37.7318 56.2287 39.9066 56.1993 42.0738 56.2433C42.0959 56.3537 42.1254 56.4565 42.1545 56.5667C38.3636 56.5591 34.573 56.5813 30.7893 56.5446C30.8261 56.4417 30.8628 56.3461 30.9069 56.2433ZM30.8114 55.4133C30.7673 55.5159 30.7232 55.6188 30.6791 55.7292C30.2971 55.7292 29.9224 55.7365 29.5404 55.7292C29.5404 55.5969 29.6653 55.5013 29.7755 55.4425C30.1134 55.4133 30.4587 55.4206 30.8114 55.4133ZM31.1493 54.8256C31.0979 54.9357 31.0391 55.0459 30.9803 55.156C30.5983 55.1927 30.2163 55.1854 29.8343 55.2149C29.9224 55.0826 29.9959 54.9357 30.1134 54.8328C30.4587 54.774 30.804 54.8256 31.1493 54.8256ZM31.333 54.2891C31.2962 54.3993 31.2522 54.5169 31.2081 54.6271C30.8775 54.6271 30.5469 54.5977 30.2236 54.6125C30.2824 54.5021 30.3485 54.392 30.422 54.2891C30.7232 54.2891 31.0318 54.3039 31.333 54.2891ZM31.524 53.7602C31.4799 53.863 31.4432 53.9732 31.4065 54.0761C31.1199 54.0982 30.8408 54.0688 30.5542 54.0539C30.591 53.9586 30.6277 53.863 30.6644 53.7675C30.9436 53.7602 31.2375 53.7675 31.524 53.7602ZM31.6709 53.312C31.6415 53.4003 31.6122 53.4883 31.5828 53.5693C31.3036 53.5544 31.0171 53.5839 30.7452 53.5177C30.7452 53.4443 30.7452 53.3782 30.7526 53.312C31.0538 53.3193 31.3624 53.312 31.6709 53.312ZM31.1934 44.1287C31.1052 44.1068 31.0171 44.0919 30.9289 44.0774C30.9289 44.0552 30.9362 44.0185 30.9362 44.0039C31.142 44.0112 31.355 44.0406 31.5607 44.0112C31.5534 44.0479 31.5387 44.1141 31.5387 44.1435C31.4285 44.0919 31.3109 44.1141 31.1934 44.1287ZM31.4285 46.2667C31.4358 47.7433 31.4285 49.2274 31.4505 50.7039C31.2889 50.682 31.1273 50.6672 30.9657 50.6526C30.9363 48.5146 30.9803 46.3768 30.9362 44.2388C31.1052 44.2683 31.2742 44.2831 31.4432 44.2977C31.4065 44.9516 31.4285 45.6128 31.4285 46.2667ZM30.8701 51.0198C31.0685 51.0198 31.2742 51.0198 31.4726 51.0198C31.5019 51.6591 31.5313 52.2909 31.524 52.93C31.3036 52.9373 31.0906 52.9373 30.8775 52.9373C30.8849 52.3055 30.8775 51.6664 30.8701 51.0198ZM31.6856 43.5409C31.6489 43.6437 31.6122 43.7466 31.5754 43.8568C31.377 43.8495 31.1787 43.8495 30.9803 43.8422C30.9803 43.8128 30.973 43.7466 30.973 43.7172C30.9289 43.7687 30.8775 43.8201 30.8334 43.8716C30.8187 43.7834 30.782 43.6146 30.7673 43.5336C31.0759 43.5263 31.377 43.5263 31.6856 43.5409ZM30.8849 43.2177C30.9216 42.9974 30.9142 42.755 31.0318 42.5565C31.1346 42.5125 31.2522 42.5344 31.3624 42.5271C34.5435 42.5344 37.7318 42.5125 40.9131 42.5198C41.3024 42.5271 41.6917 42.4977 42.0811 42.5419C42.2355 42.7255 42.2061 42.9974 42.2649 43.2177C38.474 43.2177 34.6831 43.2031 30.8849 43.2177ZM41.317 51.7032C41.3097 51.7987 41.2876 51.894 41.2584 51.9823C41.1995 51.5487 41.2436 51.1081 41.2141 50.6672C41.1555 48.5589 41.0454 46.4576 41.0306 44.3492C41.0306 44.2021 41.0454 44.0479 41.0821 43.9083C41.2657 43.9745 41.2657 44.2536 41.5009 44.2609C41.4933 46.744 41.4641 49.2274 41.317 51.7032ZM40.9131 51.7766C40.8542 52.1365 40.8248 52.5039 40.8469 52.8787C40.7001 52.8787 40.5605 52.8711 40.4209 52.8711C40.3548 49.9253 40.3181 46.9719 40.3254 44.0258C40.5162 44.0258 40.7001 44.0185 40.891 44.0112C40.8469 46.5971 40.9277 49.1907 40.9131 51.7766ZM39.9727 43.8276C39.7816 43.8201 39.5907 43.8201 39.3995 43.8201C39.3995 43.7466 39.385 43.5852 39.385 43.5117C39.6274 43.5263 39.8626 43.5336 40.1047 43.5409C40.0535 43.6365 40.0094 43.732 39.9727 43.8276ZM40.0167 51.0419C40.0608 51.6591 40.0535 52.2761 40.0681 52.8933C39.8699 52.886 39.6714 52.886 39.473 52.886C39.473 52.2615 39.4657 51.637 39.4657 51.0125C39.6493 51.0125 39.8332 51.0274 40.0167 51.0419ZM39.4363 44.1729C39.6126 44.1729 39.7889 44.1729 39.9652 44.1729C39.9946 46.3474 40.0022 48.5222 40.0094 50.6966C39.8477 50.6893 39.6787 50.6893 39.5173 50.6893C39.5246 48.5735 39.5173 46.4576 39.5391 44.3417C39.5097 44.2831 39.473 44.2242 39.4363 44.1729ZM35.3295 43.6953C34.9107 43.8789 34.5581 44.2169 34.3964 44.6503C34.1688 45.238 34.2277 45.8698 34.2277 46.487C34.2423 48.6175 34.2644 50.7555 34.2277 52.886C34.1761 52.886 34.0732 52.886 34.0219 52.886C34.0072 52.0998 34.0072 51.3065 33.9484 50.5203C33.9264 48.4117 33.8676 46.3107 33.9631 44.2021C34.448 44.1141 34.8889 43.8937 35.3295 43.6953ZM34.7566 43.6219C34.5068 43.7248 34.2495 43.8276 33.9925 43.9229C33.9998 43.776 34.0145 43.6365 34.0219 43.4969C34.6097 43.4969 35.1899 43.4969 35.7777 43.4307C35.4396 43.4823 35.0798 43.475 34.7566 43.6219ZM35.91 45.2969C35.9321 45.0104 35.9907 44.7018 36.2331 44.5107C36.4683 44.2977 36.8576 44.4005 37.0266 44.6576C37.1883 44.8341 37.1956 45.0838 37.203 45.3115C36.762 45.3042 36.336 45.3115 35.91 45.2969ZM38.4665 46.0977C37.1956 46.105 35.9245 46.105 34.6537 46.105C34.6537 45.9141 34.6537 45.7229 34.6537 45.532C35.9245 45.532 37.2029 45.532 38.474 45.5245C38.4665 45.7157 38.4665 45.9065 38.4665 46.0977ZM38.1506 44.4888C38.3636 44.7237 38.4225 45.0472 38.4886 45.3409C38.1506 45.3263 37.8201 45.3263 37.4821 45.3263C37.4821 45.0029 37.4308 44.6503 37.1735 44.4227C36.8798 44.1141 36.38 44.0701 36.035 44.3198C35.7115 44.5401 35.6748 44.9737 35.6235 45.3263C35.2928 45.3188 34.9548 45.3188 34.6243 45.3188C34.6388 44.8193 34.9623 44.3565 35.4178 44.1508C35.954 43.9229 36.5639 43.7834 37.1368 43.9378C37.497 44.0552 37.8863 44.1948 38.1506 44.4888ZM38.1139 43.4602C38.4592 43.4602 38.8045 43.4896 39.1498 43.4969C39.1498 43.6437 39.1571 43.7982 39.1571 43.9524C38.8266 43.7466 38.4592 43.6292 38.1139 43.4602ZM39.172 44.2097C39.2381 45.9508 39.2087 47.6919 39.2233 49.4331C39.2305 50.5865 39.2233 51.7399 39.2233 52.8933C39.1277 52.8933 39.0324 52.9005 38.9368 52.9005C38.9222 50.7112 38.9295 48.5294 38.9001 46.3401C38.8779 45.7451 38.9001 45.1206 38.6576 44.555C38.4665 44.1068 38.0405 43.8128 37.6071 43.6219C38.1506 43.7909 38.6355 44.0701 39.172 44.2097ZM33.2064 43.7909C33.155 43.7026 33.1035 43.6146 33.0521 43.5336C33.3019 43.5336 33.559 43.5336 33.8088 43.5263C33.7941 43.6146 33.7867 43.7026 33.772 43.7909C33.581 43.7982 33.3974 43.7982 33.2064 43.7909ZM33.1109 51.0052C33.3166 51.0052 33.5149 50.9979 33.7206 50.9979C33.75 51.6297 33.728 52.2688 33.7427 52.9005C33.5297 52.8933 33.3092 52.8933 33.0962 52.8933C33.0888 52.2688 33.0962 51.637 33.1109 51.0052ZM33.2137 43.9229C33.3533 43.8937 33.6178 43.8422 33.7133 43.9524C33.5664 43.9818 33.3092 44.0406 33.2137 43.9229ZM33.7133 44.1802C33.6619 45.4143 33.6912 46.6487 33.6766 47.8828C33.6766 48.8159 33.6472 49.7563 33.6839 50.6893C33.5002 50.682 33.3092 50.682 33.1256 50.682C33.1109 48.5146 33.1035 46.3401 33.1035 44.1729C33.3092 44.1948 33.5149 44.1948 33.7133 44.1802ZM34.6021 53.312C36.8063 53.3193 39.0102 53.2826 41.2217 53.3268C41.2657 53.4222 41.3024 53.525 41.3464 53.6206C38.1581 53.6206 34.9696 53.6352 31.7811 53.6206C31.8252 53.525 31.8693 53.4222 31.9134 53.3268C32.8097 53.356 33.7059 53.2974 34.6021 53.312ZM32.2513 45.3115C32.2513 44.8708 32.2293 44.43 32.2807 43.9891C32.4644 44.0185 32.795 44.0112 32.7729 44.2831C32.8097 47.1482 32.7729 50.0209 32.7729 52.8933C32.6186 52.886 32.4717 52.886 32.3174 52.886C32.3248 52.3498 32.2219 51.8133 32.244 51.2696C32.2513 49.2787 32.2513 47.2951 32.2513 45.3115ZM31.7444 44.0992C31.8546 44.0774 31.9648 44.0552 32.075 44.0333C32.097 46.5385 31.9648 49.0511 31.9281 51.5563C31.9207 51.6959 31.9281 51.85 31.8473 51.9677C31.7297 49.6021 31.6636 47.2365 31.6342 44.8708C31.6415 44.6136 31.5975 44.3344 31.7444 44.0992ZM31.5681 54.1935C31.6122 54.0688 31.6562 53.9513 31.7003 53.8336C32.6186 53.8703 33.537 53.8336 34.4553 53.8485C36.7696 53.8485 39.091 53.863 41.4053 53.819C41.4493 53.9438 41.5009 54.0688 41.5449 54.1935C38.2167 54.1862 34.8961 54.1862 31.5681 54.1935ZM31.6709 54.7888C31.5754 54.7813 31.4799 54.7961 31.3844 54.8256C31.3844 54.8034 31.3844 54.7667 31.3844 54.7446C31.4285 54.6344 31.4726 54.5243 31.524 54.4214C34.874 54.3993 38.2316 54.4214 41.5816 54.3993C41.6329 54.5316 41.6844 54.6566 41.7358 54.7888C38.3785 54.7888 35.0209 54.8107 31.6709 54.7888ZM41.912 55.6188C41.9563 55.7438 41.9858 55.8688 42.0298 55.9935C40.7587 55.9568 39.4805 55.9935 38.2094 55.9935C35.7998 55.9862 33.39 56.023 30.9877 55.9789C31.0318 55.8612 31.0685 55.7511 31.1273 55.6409C34.1982 55.6115 37.2764 55.6263 40.3472 55.6188C40.8615 55.6115 41.3832 55.5896 41.912 55.6188ZM32.6186 55.4058C32.1264 55.4279 31.6342 55.369 31.1493 55.4058C31.2155 55.2738 31.2742 55.1487 31.3256 55.0164C34.8006 55.0237 38.2756 55.0313 41.7579 55.0092C41.7946 55.1341 41.8386 55.2589 41.8902 55.3839C38.7972 55.3839 35.7042 55.4133 32.6186 55.4058ZM41.7066 43.8201C41.5668 43.7982 41.5376 43.6292 41.4641 43.5409C41.7652 43.5042 42.0665 43.4969 42.3675 43.4969C42.3602 43.607 42.3457 43.7172 42.3308 43.8349C42.1254 43.8349 41.912 43.8568 41.7066 43.8201ZM41.6696 50.9391C41.8753 50.9391 42.0811 50.9391 42.2868 50.9391C42.2795 51.6076 42.2722 52.2761 42.2722 52.9448C42.0592 52.93 41.8535 52.93 41.6405 52.93C41.655 52.2688 41.6329 51.6076 41.6696 50.9391ZM41.611 44.1435C41.7873 43.9964 42.0225 44.0625 42.2355 44.0406C42.2355 44.0701 42.2355 44.1287 42.2428 44.1581C42.0225 44.1508 41.8167 44.1581 41.611 44.1435ZM42.2061 46.4136C42.2134 47.8315 42.1839 49.2568 42.2207 50.6745C42.0443 50.6745 41.8681 50.6745 41.6991 50.6745C41.6917 48.5294 41.7358 46.3841 41.6844 44.2388C41.8681 44.2536 42.0443 44.2464 42.2279 44.2169C42.1766 44.9516 42.2134 45.6862 42.2061 46.4136ZM43.5579 40.301C44.5495 40.3672 45.556 40.4112 46.5403 40.5729C45.6002 40.6758 44.6524 40.6169 43.712 40.6831C43.6019 40.6831 43.5285 40.7419 43.4845 40.8521C43.9693 40.955 44.4688 40.9182 44.9682 40.9404C45.725 40.9698 46.4892 40.9622 47.2533 41.0432C47.2603 41.3737 47.2603 41.7044 47.2754 42.0276C47.0181 42.1156 46.7976 42.3214 46.5113 42.2922C45.2181 42.2701 43.9251 42.2995 42.6394 42.2628C42.691 42.1451 42.7277 42.013 42.8306 41.932C43.1683 41.6234 43.5873 41.4253 43.9178 41.1018C43.7709 41.0065 43.6165 40.8961 43.4329 40.8961C43.1537 40.8961 42.8378 40.9622 42.6027 40.7641C42.2134 40.4701 41.8019 40.2057 41.4493 39.875C41.3904 38.92 41.4493 37.9575 41.4271 37.0026C41.4271 36.0474 41.4199 35.0924 41.4199 34.1372C41.398 33.8729 41.5449 33.645 41.6917 33.4393C42.0665 33.3805 42.4558 33.4247 42.8378 33.4099C44.4321 33.432 46.0187 33.4099 47.613 33.4466C47.4223 35.6508 47.2165 37.862 47.2018 40.0807C45.8501 40.044 44.4907 39.9852 43.1391 40.0953C43.2566 40.1909 43.3962 40.2792 43.5579 40.301ZM58.1921 32.5945C55.0773 32.5945 51.9698 32.6385 48.8549 32.5945C48.4949 32.5872 48.1419 32.6091 47.7823 32.5651C47.6498 32.499 47.6203 32.3299 47.5471 32.2125C49.773 32.2198 51.9919 32.2052 54.2178 32.2125C55.6651 32.2198 57.1125 32.1903 58.5599 32.2198C58.4642 32.3667 58.413 32.6312 58.1921 32.5945ZM51.1983 37.1052C51.1835 36.5177 51.1835 35.9299 51.1835 35.3349C51.6687 35.3495 52.1461 35.3568 52.6309 35.3716C52.6456 35.974 52.6309 36.5763 52.653 37.1789C52.1682 37.1641 51.6761 37.2156 51.1983 37.1052ZM52.6456 39.1403C52.1903 39.1403 51.7272 39.1403 51.2719 39.1331C51.2572 38.5966 51.2645 38.0604 51.2719 37.5242C51.7346 37.5094 52.1976 37.5242 52.653 37.5094C52.6604 38.0531 52.6456 38.5966 52.6456 39.1403ZM52.7413 37.5021C53.1451 37.5167 53.5567 37.5242 53.9608 37.5021C53.9608 38.0531 53.9531 38.6042 53.9531 39.155C53.5493 39.1625 53.1525 39.155 52.7557 39.155C52.763 38.5966 52.7413 38.0458 52.7413 37.5021ZM52.7487 37.1789C52.7336 36.5763 52.7557 35.974 52.7192 35.3716C53.1378 35.3789 53.564 35.3862 53.9826 35.3935C53.9826 36.0474 54.0194 36.7086 53.9608 37.3625C53.1234 37.3552 52.2856 37.3552 51.4408 37.3625L51.4335 37.3109C52.2341 37.3185 53.0351 37.3185 53.8357 37.3036C53.8357 37.2818 53.8431 37.2448 53.8504 37.2302C53.5051 37.1052 53.1083 37.2081 52.7487 37.1789ZM54.1589 34.2622C53.2478 34.299 52.3372 34.299 51.4261 34.2695C51.8745 34.0125 52.3224 33.6891 52.8367 33.5716C53.292 33.7479 53.7551 33.9682 54.1589 34.2622ZM55.1804 40.1102C55.1877 39.9779 55.1951 39.8529 55.2021 39.7208C55.0626 39.706 54.9304 39.6841 54.7983 39.6766C54.7026 38.9419 54.7394 38.1927 54.7099 37.4505C54.7026 36.5911 54.651 35.7315 54.6731 34.8646C54.7394 34.6002 54.8719 34.3502 54.901 34.0711C54.1957 33.645 53.373 33.4393 52.6972 32.9544C52.1535 33.557 51.3083 33.7258 50.6549 34.1739C50.6549 34.5633 50.9192 34.9161 50.8751 35.3127C50.7867 36.3706 50.8677 37.4286 50.8677 38.4792C50.8898 38.7877 50.8456 39.1109 50.9487 39.4049C51.404 39.449 51.8667 39.4049 52.3224 39.4195C52.9688 39.3974 53.6078 39.4417 54.2546 39.3755C54.2689 37.9135 54.2689 36.444 54.2251 34.982C53.1525 35.0557 52.0725 35.063 50.9925 35.1365C50.9557 35.0997 50.9262 35.0703 50.8972 35.0336C51.0002 34.938 51.0219 34.7839 51.0661 34.6588C52.1976 34.6588 53.3362 34.6588 54.4747 34.6883C54.4604 36.3044 54.4604 37.9281 54.453 39.5445C53.1525 39.5812 51.8524 39.5297 50.5592 39.6766C50.5151 39.8088 50.4856 39.9411 50.4492 40.0807C50.3314 40.0807 50.2066 40.088 50.0888 40.088C50.1109 40.3086 50.1992 40.5362 50.1477 40.7641C50.0745 41.2414 49.7435 41.6234 49.3909 41.932C48.8914 41.9102 48.3845 41.9175 47.885 41.9248C47.8703 38.92 47.885 35.9151 47.8776 32.9104C49.4277 32.9104 50.9851 32.8883 52.5356 32.925C54.3278 32.8958 56.1131 32.9031 57.9058 32.9177C57.9131 34.7766 57.9131 36.6352 57.9058 38.4937C57.252 38.5232 56.5979 38.5013 55.9515 38.5674C56.6056 38.707 57.2667 38.7877 57.9131 38.9346C57.9205 39.9852 57.9058 41.0432 57.9058 42.0937C57.3842 42.0789 56.8626 42.0789 56.3483 42.0716C56.1646 41.8073 55.812 41.8513 55.5404 41.763C55.452 41.2414 55.4962 40.7125 55.4594 40.1836C55.364 40.1614 55.2757 40.1396 55.1804 40.1102ZM50.7356 39.9852C51.7935 39.8896 52.8588 39.9633 53.924 39.9411C54.2767 39.919 54.6588 40 54.9893 39.831C54.9231 39.9266 54.8862 40.088 54.7394 40.0734C53.5125 40.132 52.2856 40.1175 51.0587 40.088C50.9413 40.0734 50.8235 40.0734 50.7356 39.9852ZM55.0773 40.4774C55.092 40.9771 55.004 41.5206 55.2683 41.9761C53.571 41.9982 51.8667 41.9761 50.1698 41.9687C50.4271 41.5133 50.5224 40.9844 50.5224 40.4701C52.0357 40.4554 53.5567 40.4628 55.0773 40.4774ZM58.2146 42.4685C58.1851 42.5932 58.1042 42.7034 57.9647 42.6888C57.3179 42.7255 56.6719 42.6742 56.0178 42.7182C56.1278 42.5932 56.2162 42.3729 56.4216 42.4169C57.0168 42.4318 57.6194 42.3875 58.2146 42.4685ZM61.4321 42.0643C60.5211 42.057 59.6031 42.0716 58.692 42.057C58.5304 42.0643 58.3758 42.0055 58.229 41.9542C58.1995 41.1828 58.229 40.4112 58.2072 39.6399C59.2795 40.4554 60.3595 41.2562 61.4321 42.0643ZM61.5643 42.9312C60.5653 42.9385 59.5663 42.9534 58.5599 42.9607C58.7505 42.843 58.9125 42.6888 58.949 42.4609C59.9701 42.4685 60.9915 42.4463 62.0126 42.4685C61.9169 42.6521 61.829 42.9534 61.5643 42.9312ZM58.244 48.3164C58.244 47.2878 58.244 46.2594 58.251 45.238C58.2584 45.0544 58.2363 44.8633 58.3467 44.7091C58.3615 44.5768 58.3758 44.4445 58.3909 44.3125C58.6552 44.3125 58.6258 44.687 58.42 44.7531C58.4936 44.8047 58.5742 44.856 58.6552 44.9076C58.6552 47.0232 58.6478 49.1391 58.6478 51.2622C58.5231 51.255 58.3979 51.2477 58.2805 51.2404C58.2072 50.2706 58.2658 49.2935 58.244 48.3164ZM58.6258 44.1802C58.4863 44.1581 58.5083 44.0112 58.5083 43.9083C58.8536 43.901 59.1989 43.9083 59.5442 43.901C59.5074 43.9964 59.5 44.1068 59.4267 44.1875C59.1621 44.2169 58.8901 44.2169 58.6258 44.1802ZM58.9269 44.6945C58.9195 44.5917 58.9125 44.4888 58.9051 44.3859C59.052 44.3932 59.1989 44.3932 59.3531 44.4005C59.3237 44.518 59.2942 44.6284 59.2648 44.7458C59.1474 44.7312 59.0369 44.7164 58.9269 44.6945ZM59.331 48.0813C59.3237 49.1464 59.331 50.2117 59.3237 51.2696C59.2136 51.2696 59.1032 51.2696 59.0005 51.2696C59.0152 49.1612 59.0005 47.0526 59.0005 44.937C59.1179 44.937 59.2427 44.9294 59.3605 44.9294C59.3016 45.9799 59.3458 47.0308 59.331 48.0813ZM60.0216 51.3138C59.8453 51.3065 59.6763 51.2917 59.5074 51.2917C59.5074 49.3669 59.5 47.4495 59.5074 45.5245C59.493 45.1206 59.5663 44.7237 59.7131 44.3492C59.7937 44.3859 59.8894 44.4227 59.9263 44.518C60.0731 44.9588 60.0363 45.4292 60.051 45.8919C60.029 47.6992 60.0437 49.5065 60.0216 51.3138ZM60.0584 44.1875C59.9406 44.1214 59.9042 43.9891 59.8453 43.8789C60.1832 43.8862 60.5285 43.8938 60.8664 43.8938C60.8594 44.0039 60.852 44.1141 60.8369 44.2169C60.58 44.2169 60.3153 44.2388 60.0584 44.1875ZM60.2053 44.4154C60.389 44.4227 60.5726 44.4227 60.749 44.43C60.7342 44.5401 60.7195 44.643 60.7048 44.7531C60.58 44.7604 60.4622 44.7753 60.3378 44.7531C60.2421 44.6797 60.2494 44.5255 60.2053 44.4154ZM60.2936 44.9662C60.4552 44.9662 60.6168 44.9516 60.7784 44.9294C60.7931 47.0675 60.7784 49.2052 60.7784 51.3433C60.6315 51.3357 60.4847 51.3284 60.3378 51.3211C60.2642 49.1979 60.3304 47.082 60.2936 44.9662ZM60.9838 43.6513C60.0584 43.7026 59.1253 43.688 58.1995 43.6513C58.2216 43.5409 58.1851 43.4089 58.2584 43.3206C58.5083 43.2104 58.7951 43.2617 59.0664 43.2471C59.7499 43.2766 60.4331 43.225 61.109 43.3352C61.0648 43.438 61.0283 43.5484 60.9838 43.6513ZM14.8544 51.806C13.9949 51.8649 13.1353 51.806 12.2758 51.8649C12.2758 51.7545 12.2831 51.6516 12.2831 51.5487C13.1427 51.5414 14.0022 51.5342 14.8618 51.5195C14.8618 51.593 14.8544 51.7326 14.8544 51.806ZM14.8397 52.8787C14.7001 52.93 14.5459 52.9667 14.421 53.0477C14.3255 53.1284 14.3328 53.2607 14.3034 53.3709C13.6275 53.3782 12.9517 53.3854 12.2831 53.3854C12.2831 52.9154 12.2831 52.4451 12.2905 51.975C13.1427 52.0336 14.0022 52.0336 14.8618 52.0485C14.8544 52.3276 14.8544 52.6068 14.8397 52.8787ZM14.6634 53.9219C13.8406 53.8925 13.0104 53.9365 12.1876 53.8852C12.026 53.9144 12.0407 53.7308 12.026 53.6206C12.621 53.5544 13.2161 53.5985 13.8112 53.5839C14.0977 53.5985 14.4063 53.5471 14.6781 53.6794C14.6781 53.7675 14.6708 53.8485 14.6634 53.9219ZM14.4724 54.7446C13.7524 54.774 13.0325 54.7961 12.3125 54.7667C12.3051 54.6198 12.3125 54.4654 12.3198 54.3185C13.0104 54.2745 13.701 54.2891 14.3842 54.3039C14.4136 54.4435 14.443 54.5977 14.4724 54.7446ZM14.2594 54.1644C13.6936 54.1644 13.1206 54.179 12.5549 54.1644C12.4594 54.1644 12.3712 54.1349 12.2831 54.0909C13.0398 54.0248 13.7965 54.0615 14.5532 54.0467C14.4651 54.0982 14.3769 54.179 14.2594 54.1644ZM14.039 56.6107C13.8847 56.4933 13.7451 56.361 13.6128 56.2214C13.6496 56.4638 13.7083 56.7136 13.6569 56.9633C13.6055 56.9706 13.4953 56.9854 13.4439 56.9927C13.3924 56.7943 13.3777 56.5667 13.2308 56.4123C13.0251 56.5519 12.8488 56.7357 12.6578 56.9045C12.7092 56.5006 12.7019 56.0745 12.5035 55.7071C12.3933 55.4792 12.1582 55.2956 12.1582 55.0237C12.9737 54.9797 13.7892 54.9724 14.6047 55.0018C14.6781 55.5896 14.4136 56.1698 14.039 56.6107ZM11.9084 42.9385C11.7321 42.9312 11.5484 42.9607 11.3795 42.9018C11.2399 42.799 11.1738 42.63 11.0856 42.4831C12.1141 42.4463 13.15 42.4536 14.1859 42.4685C14.1859 42.5198 14.1785 42.6154 14.1712 42.6667C14.3034 42.7768 14.443 42.8873 14.5679 43.012C13.6863 42.9091 12.7974 42.9607 11.9084 42.9385ZM13.4439 43.6732C13.0031 43.6586 12.5623 43.688 12.1288 43.6292C12.0994 43.519 12.07 43.4089 12.048 43.2985C12.9737 43.2693 13.9067 43.2544 14.8324 43.2693C14.8324 43.4013 14.8397 43.5263 14.8397 43.6586C14.3695 43.7099 13.9067 43.6732 13.4439 43.6732ZM14.4944 44.3932C14.5459 44.3711 14.6561 44.3344 14.7075 44.3125C14.8544 44.9076 14.8177 45.5172 14.825 46.1271C14.8177 47.8461 14.825 49.5578 14.8177 51.2771C14.7075 51.2771 14.59 51.2771 14.4798 51.2844C14.443 49.1539 14.4798 47.0232 14.4357 44.8927C14.4798 44.8781 14.5679 44.8487 14.612 44.8341C14.5679 44.6797 14.4798 44.5474 14.4944 44.3932ZM12.2464 44.1948C12.2243 44.0992 12.2023 43.9964 12.1876 43.901C12.5476 43.8938 12.9076 43.901 13.2676 43.9083C13.172 44.0258 13.1059 44.2097 12.9369 44.2242C12.7019 44.2464 12.4741 44.2097 12.2464 44.1948ZM12.79 44.812C12.6504 44.7826 12.5035 44.7531 12.3639 44.7164C12.3492 44.6136 12.3345 44.518 12.3272 44.4154C12.4961 44.4227 12.6725 44.43 12.8415 44.4372C12.8267 44.5695 12.8121 44.6945 12.79 44.812ZM12.768 51.3211C12.6284 51.3284 12.4815 51.3284 12.3419 51.3284C12.3345 49.1979 12.3272 47.0747 12.3345 44.9516C12.4815 44.9662 12.6357 44.9737 12.7827 44.9956C12.8047 46.6412 12.7974 48.287 12.8047 49.9326C12.7974 50.3953 12.8194 50.8584 12.768 51.3211ZM13.0472 45.6128C13.0545 45.194 13.0031 44.7164 13.2969 44.3711C13.319 44.3711 13.3704 44.3859 13.3924 44.3859C13.5614 44.687 13.5908 45.0396 13.5834 45.3849C13.5982 47.3612 13.5908 49.3448 13.5761 51.3211C13.4072 51.3211 13.2455 51.3211 13.0766 51.3211C13.0178 49.4183 13.0692 47.5156 13.0472 45.6128ZM13.5687 44.1948C13.5467 44.0919 13.532 43.9891 13.51 43.8938C13.848 43.8938 14.1932 43.8862 14.5312 43.9157C14.5312 43.9745 14.5385 44.0846 14.5385 44.1435C14.2153 44.2242 13.892 44.1802 13.5687 44.1948ZM13.8332 44.7091C13.7745 44.599 13.7598 44.474 13.7377 44.3638C13.8847 44.3711 14.0316 44.3859 14.1712 44.4005C14.1639 44.5107 14.1639 44.6136 14.1565 44.7237C14.0536 44.7164 13.9287 44.7753 13.8332 44.7091ZM14.1051 51.2844C13.9875 51.2844 13.8626 51.2844 13.7451 51.2844C13.7671 49.1612 13.7671 47.0381 13.7524 44.9149C13.87 44.9294 13.9949 44.9443 14.1198 44.9588C14.1051 47.0675 14.1198 49.1758 14.1051 51.2844ZM14.8618 39.6547C14.8471 40.4406 14.8838 41.2268 14.8471 42.0203C14.6561 42.057 14.4577 42.0716 14.2594 42.0716C13.3998 42.0789 12.5402 42.0716 11.6807 42.0716C12.7459 41.2635 13.8112 40.4701 14.8618 39.6547ZM65.6123 58.0948C65.2453 57.9331 64.9438 57.6612 64.5691 57.5144C64.3416 57.4115 64.1653 57.6467 63.9816 57.742C63.8344 57.6539 63.739 57.4628 63.5553 57.4628C63.3128 57.4409 63.0632 57.4482 62.8206 57.4409C62.8574 57.3526 62.8942 57.2719 62.9237 57.1912C62.6299 57.1763 62.2037 57.0808 62.1595 56.7357C62.38 56.7063 62.6005 56.7282 62.8206 56.7282C62.7326 56.4933 62.5342 56.3315 62.3211 56.2214C62.3874 56.2214 62.5269 56.2141 62.5931 56.2141C62.3137 55.9274 61.8875 55.9641 61.5348 55.8612C61.3294 55.7071 61.2632 55.4279 61.1679 55.2C61.2411 55.1854 61.3953 55.156 61.469 55.1415C61.381 55.0899 61.2853 55.0386 61.1973 54.987C61.1163 54.7151 61.1163 54.4141 61.1896 54.1422C61.3221 53.9438 61.4984 53.7748 61.6011 53.5618C61.4469 53.4297 61.2558 53.3341 61.1531 53.1578C61.1163 52.6068 61.1973 52.0558 61.1601 51.5047C61.1016 51.3138 61.0721 51.1154 61.0795 50.9096C61.0942 48.9188 61.0795 46.9279 61.0942 44.937C61.0721 44.555 61.1973 44.1948 61.2485 43.8276C61.4395 43.6437 61.6817 43.5336 61.8437 43.3206C62.0859 43.0193 62.2696 42.6667 62.4021 42.2995C62.3653 42.1745 62.2258 42.1156 62.1378 42.0349C60.8299 41.0505 59.5294 40.0586 58.2072 39.0964C58.1851 37.1789 58.1995 35.2615 58.1921 33.3365C58.4347 33.0721 58.7362 32.8664 58.9931 32.6166C59.2136 32.3961 59.5147 32.2565 59.6837 31.9846C59.8821 31.6615 60.051 31.331 60.2053 30.9855C59.7937 30.8313 59.3531 30.824 58.942 30.677C58.7362 30.5374 58.6331 30.295 58.501 30.0893C58.3836 29.8689 58.2072 29.6485 58.2146 29.3913C58.229 28.8918 58.1995 28.3995 58.2363 27.9073C58.4789 27.7016 58.7067 27.4812 58.9346 27.2682C58.6405 26.5041 58.339 25.7474 58.0968 24.9687C57.3768 24.954 56.6568 24.954 55.9368 24.954C54.9157 22.9042 53.9167 20.8472 52.9176 18.7902C52.7704 18.4376 52.5278 18.0997 52.5278 17.7029C52.4546 16.4539 52.3961 15.205 52.3372 13.956C52.3372 13.8533 52.3077 13.7576 52.2415 13.677C52.1535 15.0949 52.1903 16.5202 52.1167 17.9377C52.0802 18.2904 51.8962 18.5992 51.7714 18.9224C51.2056 20.2372 50.6255 21.5451 50.0376 22.8454C49.8392 22.75 49.6261 22.6838 49.4424 22.5663L49.5749 22.5369C49.5967 22.052 49.5823 21.5745 49.5893 21.0898C49.5672 20.9278 49.6924 20.803 49.7435 20.6561C49.7218 20.4798 49.6114 20.3256 49.6114 20.1419C49.5967 19.6718 49.5893 19.2014 49.5967 18.7313C49.5823 18.5109 49.8687 18.4302 49.8981 18.2245C49.9276 18.0261 49.8687 17.835 49.8392 17.644C49.964 17.4456 50.2066 17.1886 49.964 16.9829C49.8172 16.9608 49.6703 16.9461 49.5234 16.9093C49.3765 16.5202 49.2514 16.1234 49.1929 15.7118C48.5829 15.7192 47.9807 15.6824 47.3708 15.7045C47.2677 16.0424 47.2828 16.4024 47.3045 16.7477C47.0697 16.8139 46.7755 16.9166 46.7317 17.196C46.7167 17.5118 46.7023 17.8203 46.7167 18.1361C46.8344 18.2392 47.0619 18.2613 47.077 18.4523C47.1724 19.1502 47.1429 19.8629 47.1429 20.5682C47.0619 20.6635 46.9592 20.7518 46.9151 20.8693C46.8933 21.0824 46.9302 21.3025 46.9519 21.5156C45.4092 21.4936 43.859 21.5304 42.3162 21.5009C42.5147 21.2293 42.6983 20.9355 42.948 20.7003C43.029 20.6267 43.1243 20.4798 42.9774 20.4209C42.5441 20.2155 42.037 20.2667 41.5816 20.1419C41.2217 19.4734 40.9425 18.7682 40.6191 18.0776C39.2894 15.1461 37.9743 12.2075 36.6813 9.26163C36.505 8.93108 36.6962 8.57108 36.9459 8.35059C36.8357 8.25488 36.6225 8.19636 36.6519 8.01268C36.7475 7.91697 36.8576 7.85108 36.9678 7.7701C36.6886 6.87378 36.6152 5.93328 36.5123 5.00052C36.4022 5.91157 36.3508 6.84433 36.035 7.71856C36.1084 7.85108 36.2553 7.91697 36.3508 8.0274C36.3949 8.21844 36.1524 8.28433 36.035 8.3874C36.1376 8.4901 36.248 8.58543 36.3287 8.71059C36.4243 8.97488 36.3508 9.26899 36.2331 9.51857C35.2048 11.8843 34.1321 14.235 33.0962 16.5934C32.5672 17.7761 32.0676 18.9739 31.4873 20.1272C31.0097 20.3035 30.444 20.2008 30.018 20.4945C30.253 20.8325 30.5248 21.1556 30.6938 21.5304C29.1731 21.4936 27.6597 21.5304 26.1389 21.523C26.1463 21.332 26.1683 21.1409 26.1683 20.9499C26.1977 20.7371 25.9185 20.6414 25.9259 20.4356C25.9332 19.7745 25.8965 19.1061 25.9993 18.4523C25.9993 18.2392 26.3078 18.2318 26.3078 18.0187C26.3519 17.7544 26.4327 17.4824 26.396 17.2107C26.3519 16.9313 26.0507 16.836 25.823 16.7624C25.823 16.4686 25.8303 16.1675 25.7642 15.8808C25.7422 15.7781 25.6907 15.6529 25.5658 15.6824C25.0075 15.7266 24.4418 15.7045 23.8835 15.7192C23.7806 16.1086 23.7953 16.5493 23.5676 16.8945C23.3766 16.9534 23.09 16.9093 22.9945 17.1224C22.9651 17.3355 23.1268 17.5118 23.2223 17.6882C23.1782 17.8645 23.1268 18.0482 23.1561 18.2318C23.1929 18.3787 23.3398 18.4597 23.4574 18.555C23.4794 19.0545 23.4794 19.5614 23.4721 20.0609C23.4794 20.2667 23.3839 20.4577 23.3325 20.6488C23.3398 20.7662 23.4427 20.8472 23.5161 20.9425C23.5308 21.5083 23.4721 22.0741 23.5529 22.6397L23.6631 22.5663C23.7953 22.0446 23.6998 21.4936 23.7659 20.9572C24.4198 20.9061 25.081 20.8914 25.7348 20.9572C25.7495 21.2661 25.7422 21.5745 25.7716 21.883C24.8679 22.1915 23.9569 22.4928 23.068 22.8381C22.4729 21.4862 21.8631 20.1419 21.2681 18.7902C21.1432 18.4667 20.9668 18.1435 20.9742 17.7835C20.9595 16.8066 20.9228 15.8293 20.9081 14.8523C20.8934 14.4629 20.9154 14.0734 20.8346 13.6917C20.717 13.8312 20.7611 14.0149 20.7465 14.1839C20.7024 15.4402 20.6656 16.6965 20.5628 17.9524C20.4232 18.3861 20.1808 18.7755 19.9971 19.194C19.042 21.1115 18.1164 23.0512 17.1319 24.9613C16.4193 24.954 15.7066 24.976 14.994 24.9907C14.7295 25.7547 14.4503 26.5115 14.1932 27.2755C14.3475 27.4445 14.5165 27.5914 14.6781 27.7383C14.7736 27.8338 14.8985 27.9293 14.8911 28.0763C14.9058 28.5685 14.9132 29.0607 14.8985 29.5456C14.7369 29.935 14.5239 30.3097 14.2447 30.6329C13.8185 30.8166 13.341 30.8533 12.9002 31.0076C13.0913 31.4778 13.2969 31.9773 13.7083 32.3005C14.1051 32.6018 14.4577 32.9544 14.8471 33.2557C14.8911 34.4458 14.8618 35.6359 14.8691 36.826C14.8618 37.5976 14.8838 38.369 14.8471 39.1403C13.532 40.088 12.261 41.0945 10.9607 42.0643C10.8725 42.1451 10.7256 42.2039 10.7036 42.3362C10.8064 42.7109 11.0342 43.0341 11.2619 43.3427C11.4088 43.5484 11.6513 43.6513 11.8497 43.8055C11.8938 43.9451 11.9011 44.0992 11.9378 44.2388C12.0553 44.599 12.0186 44.981 12.0333 45.3557C12.0333 47.2878 12.0407 49.2201 12.0333 51.1594C11.8497 51.8427 12.026 52.5628 11.9378 53.2607C11.7835 53.3854 11.6219 53.4956 11.4823 53.6352C11.6293 53.8485 11.8276 54.0172 11.9452 54.2451C11.9819 54.4875 11.9672 54.7446 11.9378 54.987C11.9305 55.1782 11.7321 55.2589 11.6219 55.3912C11.6807 55.3985 11.7909 55.4133 11.8497 55.4133C11.6072 55.8321 11.1517 56.0302 10.7477 56.2508C10.8872 56.3461 11.1664 56.3094 11.2105 56.5151C10.9607 56.8091 10.5052 56.787 10.1673 56.9266C10.3142 57.0222 10.4685 57.1102 10.6154 57.1985C10.4905 57.2571 10.3656 57.3232 10.2407 57.3821C10.3362 57.4336 10.4244 57.4922 10.5199 57.5438C10.2334 57.5732 10.0056 57.4115 9.77054 57.2792C9.52076 57.3381 9.28567 57.4555 9.03588 57.5071C8.69058 57.5732 8.3453 57.6024 8 57.6761C8.63181 57.823 9.26362 57.9552 9.8734 58.1901C9.58688 58.1683 9.30036 58.124 9.01384 58.1534C9.63095 58.3886 10.2701 58.5649 10.9093 58.756C11.1884 58.8441 11.475 58.7633 11.7541 58.7266C12.5402 58.6016 13.3484 58.5795 14.1418 58.6972C14.8103 58.7852 15.4789 58.9615 16.1621 58.8808C17.1025 58.7706 18.0061 58.4399 18.9539 58.3591C19.8722 58.2711 20.7905 58.418 21.6721 58.6456C22.0835 58.7412 22.5097 58.8662 22.9284 58.7779C23.7953 58.631 24.6328 58.3664 25.4924 58.2123C26.8442 57.9477 28.2327 58.0433 29.5992 57.9552C30.4147 57.9183 31.2228 57.823 32.0309 57.7568C33.8823 57.5732 35.7483 57.5217 37.6071 57.5951C38.4665 57.6318 39.3261 57.6685 40.1784 57.6467C41.5082 57.6318 42.8378 57.7052 44.1457 57.9404C44.5128 58.036 44.8802 57.8815 45.2402 57.823C46.1439 57.6467 47.0619 57.6761 47.9733 57.7347C49.0603 57.8081 50.1183 58.0654 51.1909 58.2417C53.0862 58.5649 55.0258 58.5209 56.9288 58.7928C58.3541 58.9542 59.7643 58.6237 61.1896 58.631C61.9832 58.6164 62.7768 58.6972 63.5553 58.8219C65.0174 59.0498 66.5749 59.2115 68.0001 58.6823C67.1848 58.5797 66.3474 58.4769 65.6123 58.0948Z" fill="white"/>
<path d="M36.7254 19.106C36.7036 18.4815 36.6963 17.8497 36.733 17.2252C36.9679 17.3062 37.2179 17.3648 37.4015 17.5487C37.4749 18.0627 37.4088 18.5916 37.4528 19.106C37.203 19.106 36.9679 19.106 36.7254 19.106ZM36.5786 19.1794C36.564 19.1427 36.5346 19.062 36.5124 19.0179C36.4978 18.4081 36.5273 17.7909 36.4978 17.1812L36.6447 17.2474C36.5859 17.8864 36.6374 18.5403 36.5786 19.1794ZM36.3728 19.1354C36.1452 19.1281 35.9174 19.1354 35.6971 19.1427C35.6822 18.5844 35.6749 18.026 35.7116 17.475C35.9395 17.3502 36.1892 17.2841 36.439 17.2328C36.4317 17.8646 36.439 18.5036 36.3728 19.1354ZM36.2187 16.8065C35.8439 16.8875 35.5353 17.1666 35.403 17.5265C35.3885 17.9747 35.4473 18.4229 35.4252 18.8784C35.4546 18.9002 35.5135 18.937 35.5426 18.9591C35.5135 18.9958 35.4473 19.0547 35.4179 19.0914C35.4619 19.1648 35.5059 19.231 35.5502 19.2971C35.5135 19.2971 35.4325 19.2898 35.3958 19.2823C35.3958 19.3411 35.3958 19.4661 35.3958 19.5247C36.1452 19.5101 36.9017 19.5174 37.6512 19.5174C37.6734 18.9297 37.6658 18.3495 37.6734 17.7617C37.6658 17.6221 37.6879 17.4677 37.6145 17.3429C37.3205 16.8948 36.733 16.645 36.2187 16.8065Z" fill="white"/>
<path d="M45.1524 39.6031C45.1376 38.964 45.1449 38.3323 45.1303 37.6929C45.5712 37.6929 46.0118 37.6929 46.4527 37.6929C46.4527 38.3323 46.4454 38.9713 46.4232 39.6104C45.9972 39.6179 45.5712 39.6104 45.1524 39.6031ZM43.6462 39.6179C43.6462 38.9786 43.6683 38.3468 43.6535 37.7078C44.1016 37.7151 44.5571 37.7224 45.0053 37.7151C45.0053 38.3468 44.9907 38.9786 45.0128 39.6104C44.5571 39.6104 44.1016 39.6179 43.6462 39.6179ZM43.5949 35.1804C44.0063 35.5479 44.5938 35.4083 45.0936 35.4817C45.0863 36.1281 45.1009 36.782 45.0936 37.4286C44.616 37.4213 44.1311 37.4505 43.6535 37.3846C43.5949 36.6424 43.6902 35.9078 43.5949 35.1804ZM44.4469 34.2106C44.785 34.1299 45.1449 34.0271 45.4902 34.1226C45.8576 34.2328 46.2324 34.3578 46.5701 34.5414C46.6511 34.7544 46.5701 35.0041 46.5701 35.2245C45.6813 35.2833 44.785 35.232 43.9035 35.3422C43.8959 35.2906 43.8886 35.232 43.8813 35.1804C44.4324 35.0114 45.0641 35.1291 45.5785 34.8278C45.0495 34.7765 44.5131 34.8133 43.9842 34.7617C44.4837 34.7177 44.9759 34.5633 45.4756 34.5487C44.9245 34.4385 44.3662 34.3284 43.8006 34.4018C43.9988 34.2916 44.2339 34.2768 44.4469 34.2106ZM46.4232 37.5828C45.5342 37.5682 44.6454 37.5828 43.7563 37.5609C44.6381 37.5093 45.5269 37.5461 46.416 37.5388L46.4232 37.5828ZM46.4673 37.4065C46.0412 37.4213 45.6152 37.4138 45.1891 37.4213C45.1964 36.782 45.2037 36.1429 45.1816 35.4963C45.6079 35.5185 46.0412 35.5258 46.4673 35.5552C46.4894 36.1724 46.4821 36.7893 46.4673 37.4065ZM46.8274 39.8823C46.886 38.369 46.842 36.8554 46.8714 35.3422C46.8566 35.3273 46.8347 35.2906 46.8274 35.276C46.9303 35.276 47.0477 35.276 47.136 35.2172C47.18 34.938 47.1652 34.6515 47.1139 34.3797C46.4454 34.2328 45.8355 33.9169 45.1816 33.7112C44.9613 33.6377 44.7482 33.7846 44.5425 33.8362C44.0063 33.9976 43.4847 34.1961 42.9555 34.3797C42.9264 34.5927 42.8969 34.8133 42.9337 35.0263C42.985 35.1731 43.1907 35.1437 43.3084 35.2026C43.2641 36.6573 43.2495 38.1044 43.2201 39.5591C43.11 39.5958 42.9998 39.6325 42.9042 39.6914C42.816 39.787 42.8454 39.9557 42.9631 40.0073C44.2488 39.8088 45.5417 39.9484 46.8274 39.8823Z" fill="white"/>
<path d="M21.9069 37.1049C21.444 37.2444 20.9592 37.1491 20.4816 37.171C20.4669 36.5614 20.489 35.959 20.4816 35.3491C20.9592 35.3564 21.4293 35.3564 21.8995 35.3124C21.9069 35.9075 21.9583 36.5098 21.9069 37.1049ZM21.8554 39.1327C21.3926 39.1473 20.9371 39.1327 20.4743 39.14C20.4816 38.5963 20.4596 38.0528 20.4669 37.509C20.9371 37.5239 21.4073 37.509 21.8701 37.5163C21.8775 38.0601 21.8922 38.5963 21.8554 39.1327ZM19.1519 39.1473C19.1519 38.6038 19.1445 38.0528 19.1298 37.509C19.5412 37.509 19.9453 37.5239 20.3567 37.5163C20.3641 38.0601 20.3641 38.6038 20.3714 39.1473C19.9674 39.14 19.5633 39.14 19.1519 39.1473ZM20.7975 37.3106C21.1281 37.34 21.4661 37.2814 21.7893 37.3473C20.9077 37.3989 20.0188 37.3033 19.1372 37.3694L19.1298 37.2666C19.6882 37.2887 20.2392 37.2593 20.7975 37.3106ZM20.3861 35.3637C20.3641 35.9663 20.3714 36.5687 20.3714 37.171C19.96 37.1564 19.5486 37.171 19.1372 37.1564C19.1225 36.5614 19.1298 35.959 19.1225 35.3637C19.5412 35.3637 19.96 35.3637 20.3861 35.3637ZM22.2301 35.6062C22.2154 35.4666 22.2081 35.327 22.1567 35.195C22.0318 35.1361 21.8848 35.1507 21.7526 35.1288C20.7975 35.0554 19.8425 35.0405 18.8874 34.9598C18.8507 36.0838 18.8654 37.2077 18.858 38.3392C18.858 38.6918 18.8433 39.0444 18.8948 39.3898C20.0041 39.4265 21.1134 39.4559 22.2228 39.4119C22.2668 38.9783 22.2595 38.545 22.2595 38.1189C22.2668 37.2739 22.2889 36.4364 22.2301 35.6062Z" fill="white"/>
<path d="M20.6214 51.0712C21.0916 51.1079 21.5618 51.0858 22.0246 51.0491C22.0467 50.2704 22.0393 49.4915 22.0246 48.7129C21.5545 48.6761 21.0769 48.7201 20.6067 48.6688C20.5847 49.3595 20.5847 50.0498 20.5847 50.7477C20.592 50.8582 20.5627 50.9756 20.6214 51.0712Z" fill="white"/>
<path d="M51.1615 48.7205C51.1541 49.5067 51.132 50.2927 51.1541 51.0716C51.6241 51.0934 52.1018 51.0934 52.5721 51.0862C52.594 50.2854 52.594 49.4773 52.5647 48.6765C52.0944 48.7132 51.6241 48.6838 51.1615 48.7205Z" fill="white"/>
<path d="M29.3713 51.1446C29.3566 50.4318 29.408 49.712 29.2611 49.0141C28.8644 48.9406 28.4603 48.9774 28.0636 48.9552C28.0636 49.6899 28.0342 50.4318 28.0416 51.1667C28.4824 51.1446 28.9305 51.1667 29.3713 51.1446Z" fill="white"/>
<path d="M45.0859 48.941C44.6964 48.9777 44.2997 48.9629 43.9031 48.9996C43.8076 49.1759 43.7781 49.3743 43.7708 49.5728C43.756 50.109 43.7268 50.6379 43.7487 51.1743C44.1969 51.167 44.6378 51.1595 45.0859 51.1743C45.0932 50.4248 45.0859 49.6829 45.0859 48.941Z" fill="white"/>
</g>
<defs>
<linearGradient id="paint0_linear_6693_16805" x1="18.2803" y1="10.2847" x2="54.2803" y2="51.7847" gradientUnits="userSpaceOnUse">
<stop stop-color="#8695F0"/>
<stop offset="1" stop-color="#7AC5EC"/>
</linearGradient>
<clipPath id="clip0_6693_16805">
<rect width="60" height="54.0354" fill="white" transform="translate(8 5)"/>
</clipPath>
</defs>
</svg>
