<svg width="26" height="28" viewBox="0 0 26 28" fill="none" xmlns="http://www.w3.org/2000/svg">
<path d="M25.8411 7.25795C26.1445 6.74967 25.9996 6.09427 25.5189 5.79674C25.1215 5.55127 24.538 5.53392 23.9179 5.74963C23.3765 5.93641 22.8807 6.2604 22.4013 6.5728C22.3522 6.60504 22.3381 6.67033 22.3705 6.71992C22.4025 6.7695 22.4692 6.78438 22.5178 6.7505C22.9864 6.44553 23.4709 6.12981 23.9878 5.95129C24.5472 5.75624 25.0649 5.76616 25.4066 5.97774C25.7403 6.18436 25.9313 6.69017 25.6579 7.14886C25.5277 7.36622 25.231 7.5497 25.074 7.45796C24.9792 7.40176 24.9667 7.25547 24.9967 7.13481C25.0349 6.97943 25.1349 6.82571 25.2314 6.67777C25.308 6.56041 25.1291 6.44222 25.0524 6.56206C24.9512 6.71744 24.8368 6.8943 24.7897 7.08439C24.7097 7.40589 24.8649 7.69434 25.1685 7.69434C25.4145 7.69434 25.6954 7.50093 25.8411 7.25795Z" fill="#606062"/>
<path d="M22.7293 5.14026C22.7463 5.1819 22.7863 5.20605 22.828 5.20605C22.8417 5.20605 22.8554 5.20355 22.8687 5.19856L24.0149 4.72387C24.0694 4.70055 24.0952 4.63893 24.0728 4.58396C24.0499 4.529 23.9869 4.50484 23.9333 4.5265L22.7871 5.00118C22.7326 5.02367 22.7069 5.08613 22.7293 5.14026Z" fill="#606062"/>
<path d="M21.2323 4.72442C21.2415 4.78253 21.2962 4.82183 21.3538 4.81329C22.8803 4.57486 23.8434 3.44681 23.8397 2.46062C23.8362 1.40093 22.6974 0.952278 21.9943 1.52058C21.7213 1.74106 21.5931 2.08887 21.6897 2.34781C21.7985 2.64093 22.2038 2.74691 22.49 2.53924C22.5379 2.5042 22.5483 2.43754 22.5137 2.39054C22.4792 2.34268 22.4122 2.33158 22.3652 2.36661C22.187 2.49651 21.9465 2.42643 21.8894 2.27346C21.8258 2.1034 21.9307 1.84532 22.1283 1.68551C22.6985 1.22489 23.6237 1.59065 23.6266 2.46147C23.6296 3.34255 22.742 4.38087 21.3214 4.6022C21.2631 4.6116 21.2231 4.6663 21.2323 4.72442Z" fill="#606062"/>
<path d="M7.55067 2.54056C9.07233 1.98114 10.6907 2.34631 11.8591 3.3676C11.8707 3.38746 11.887 3.403 11.906 3.41249C12.2616 3.70688 12.749 4.35781 12.954 4.86026L12.9545 4.85939C12.9713 4.93795 14.0758 7.10829 12.572 9.35115C10.5796 12.257 6.28352 11.7244 4.99366 8.45763C4.99323 8.45763 4.99323 8.45763 4.99288 8.45763C4.98269 8.41878 4.98632 8.46713 4.91665 8.27634C4.11214 5.94801 5.29374 3.37537 7.55067 2.54056ZM16.6785 0.866611C17.4289 1.35783 17.9862 2.08042 18.2904 2.9558C19.3033 5.86686 16.9361 8.85907 13.9563 8.42051C14.0154 8.23922 14.0639 8.04843 14.1003 7.8516C16.7228 8.3998 18.8502 5.76068 17.942 3.14314C17.6158 2.20301 16.957 1.45798 16.0863 1.04446C14.2836 0.188061 12.2688 1.09366 11.5704 2.85135C11.3833 2.76329 11.3289 2.70113 10.9822 2.53279C10.9656 2.52502 10.9502 2.5138 10.9334 2.50603C11.9871 0.319281 14.6494 -0.469782 16.6785 0.866611ZM22.6408 14.2478L22.642 17.1131L22.5297 17.8944L20.2027 17.6734C18.2393 17.5007 16.7063 19.6409 17.905 21.2423C18.3254 21.8034 18.9858 22.1617 19.7312 22.2247C22.2409 22.1134 22.3231 22.166 22.6408 22.0667V24.9113C22.6408 26.2149 21.545 27.275 20.1982 27.275H3.42374C1.85011 27.275 0.542898 26.0353 0.509661 24.5125L0.230384 10.4441C0.658064 11.5733 1.97883 11.651 3.1903 11.6648C8.92868 11.531 14.6279 11.5923 20.2465 11.897C20.3055 11.897 20.4657 11.9005 20.6772 11.9393C21.858 12.1673 22.6408 13.1488 22.6408 14.2478ZM23.4594 20.8607C23.3666 21.2906 23.0844 21.648 22.7032 21.8155C22.352 21.9752 22.2454 21.8906 19.7362 22.0115C19.0649 21.9536 18.4594 21.6265 18.0756 21.1137C16.9886 19.6616 18.3995 17.7381 20.1841 17.8849C20.2276 17.8892 22.94 18.1499 22.7719 18.1344C23.1604 18.1698 23.5235 17.9738 23.7391 17.6648C23.7495 18.7456 23.6946 19.7341 23.4594 20.8607ZM14.7498 4.2663C14.8117 4.32414 14.8745 4.38284 14.9305 4.44241C15.1565 4.68414 15.2839 4.93191 15.2788 5.12183C15.2743 5.30572 15.1282 5.43348 14.898 5.45507C14.7665 5.46715 14.6063 5.43953 14.4491 5.386L14.7498 4.2663ZM14.8667 3.00933L14.6376 3.86227C14.1117 3.32875 14.3506 2.96271 14.8667 3.00933ZM14.1456 7.60556C14.1465 7.56239 14.3299 6.61362 13.935 5.46629C13.9165 5.4119 13.8935 5.3601 13.8732 5.30658C13.9667 5.386 14.0782 5.45162 14.1959 5.50773L14.1481 5.68643C14.1297 5.75377 14.1809 5.82024 14.2509 5.82024C14.2979 5.82024 14.3412 5.78917 14.3538 5.74082L14.3944 5.58888C15.0893 5.81938 15.4823 5.51204 15.4919 5.12701C15.5028 4.69536 15.1113 4.3086 14.8129 4.03062L15.0767 3.04818C15.4405 3.15868 15.6138 3.4099 15.594 3.49796C15.5809 3.55494 15.6172 3.61191 15.6746 3.62486C15.7338 3.63695 15.7891 3.60156 15.802 3.54458C15.8528 3.31926 15.6064 3.05854 15.3496 2.92818C15.2797 2.89192 15.2063 2.86516 15.1319 2.84271L15.2106 2.55005C15.2462 2.4171 15.0492 2.35754 15.0062 2.48962L14.9083 2.79782C14.1913 2.71926 13.9334 3.28041 14.2892 3.78285C14.3672 3.89335 14.4695 3.99609 14.5747 4.09709L14.2518 5.29967C14.158 5.25133 14.0689 5.1978 13.9963 5.13391C13.8442 5.00097 13.682 4.73076 13.8451 4.6358C13.8959 4.60645 13.9129 4.54083 13.8833 4.48989C13.8129 4.36903 13.6214 4.47177 13.5789 4.68414C13.2183 4.05652 12.6759 3.4876 12.0259 3.09739C12.3439 2.32646 12.948 1.69452 13.76 1.39754C15.3401 0.81654 17.1036 1.72042 17.684 3.41422C18.5822 6.00154 16.2745 8.19865 14.1456 7.60556ZM0.296598 24.5168C0.332339 26.1553 1.73529 27.4883 3.42374 27.4883H20.1982C21.6627 27.4883 22.8538 26.3323 22.8538 24.9113V21.9718C23.5485 21.6221 23.6483 20.947 23.6684 20.9039C23.9288 19.6547 24.0071 18.1214 23.945 17.0544C23.9449 17.0518 23.945 17.0492 23.9447 17.0475C23.9116 16.5865 23.5125 16.3448 22.8538 16.3543V14.2478C22.8538 13.0841 22.0502 12.03 20.8025 11.7485V9.90022C20.8025 8.56641 19.7188 7.48038 18.3869 7.48038H18.1703C19.1846 6.3296 19.597 4.69708 19.0595 3.13969C18.685 2.03725 17.8792 1.16704 16.7902 0.685318C15.6795 -0.0441723 14.3351 -0.201294 13.0989 0.253666C12.0603 0.63611 11.2284 1.40704 10.741 2.42401C7.47375 1.02719 3.97211 3.87436 4.50598 7.48038H2.41955C0.984046 7.48038 -0.0198033 8.81159 -0.000206327 9.66712C0.0527141 12.2596 0.245059 21.939 0.296598 24.5168Z" fill="#606062"/>
<path d="M20.9909 20.088C20.912 20.2531 20.7347 20.3795 20.5279 20.4206C20.1766 20.4886 19.8012 20.286 19.6894 19.9691C19.5782 19.6522 19.7449 19.2591 20.0611 19.0932C20.1144 19.0655 20.1805 19.0857 20.2087 19.1395C20.2363 19.1918 20.2159 19.2584 20.1626 19.2868C19.9422 19.4026 19.8198 19.6814 19.8957 19.8974C19.9717 20.1126 20.2436 20.2509 20.4862 20.2061C20.6242 20.1792 20.7449 20.0962 20.794 19.9938C20.8665 19.8413 20.7615 19.6522 20.5748 19.7217C20.5301 19.7382 20.4963 19.7681 20.4853 19.8017C20.4393 19.9392 20.2324 19.869 20.2782 19.7322C20.3508 19.5162 20.6472 19.4235 20.8417 19.5386C21.0219 19.6448 21.0876 19.8854 20.9909 20.088ZM19.2981 19.8062C19.2137 20.3996 19.6448 20.9505 20.3071 21.0065C21.3237 21.088 22.0424 19.9721 21.4316 19.2053C20.8103 18.4243 19.4417 18.8032 19.2981 19.8062Z" fill="#606062"/>
<path d="M11.1559 16.3213C11.2141 16.3213 11.262 16.2741 11.2624 16.2154C11.2628 16.1567 11.2158 16.1088 11.1567 16.1088C10.038 16.0981 9.26889 16.0905 8.0099 16.079C7.95162 16.079 7.9037 16.1255 7.90332 16.1842C7.90294 16.2436 7.94994 16.2916 8.00906 16.2923L11.1551 16.3213C11.1551 16.3213 11.1554 16.3213 11.1559 16.3213Z" fill="#606062"/>
<path d="M8.23009 17.1644C8.17141 17.1644 8.12391 17.212 8.12354 17.2701C8.12316 17.329 8.17051 17.3766 8.22926 17.3773L10.1836 17.3887C10.1841 17.3887 10.1845 17.3887 10.1845 17.3887C10.2432 17.3887 10.2906 17.3411 10.2911 17.283C10.2914 17.2241 10.244 17.1765 10.1853 17.1757C10.0735 17.175 8.17119 17.1636 8.23009 17.1644Z" fill="#606062"/>
<path d="M12.5016 19.4072C12.56 19.4072 12.6078 19.3604 12.6082 19.3017C12.6087 19.2431 12.5616 19.1948 12.5025 19.194C12.458 19.194 8.12114 19.1576 8.16423 19.1576C8.10591 19.1576 8.05807 19.2052 8.05762 19.2638C8.05725 19.3218 8.10427 19.3708 8.16333 19.3708L12.5008 19.4072C12.5013 19.4072 12.5013 19.4072 12.5016 19.4072Z" fill="#606062"/>
<path d="M9.96907 20.3946C9.96819 20.3365 9.91947 20.2916 9.86081 20.2901L8.31798 20.3129C8.17837 20.3152 8.1794 20.5264 8.31967 20.5264C8.36258 20.5264 9.90703 20.5028 9.86412 20.5028C9.92285 20.5021 9.96988 20.4535 9.96907 20.3946Z" fill="#606062"/>
<path d="M12.8914 21.6293C12.8364 21.6403 12.7806 21.6073 12.7648 21.5529C12.61 21.398 11.9844 21.5941 12.333 21.7768C12.4409 21.8341 12.6124 21.8693 12.7507 21.92C13.3528 22.141 13.2724 22.6225 12.7288 22.7136L12.7354 22.7525C12.7469 22.8193 12.6955 22.8795 12.628 22.8795C12.5755 22.8795 12.5295 22.842 12.5206 22.7899L12.5094 22.7246C11.8069 22.6842 12.044 22.0999 12.2379 22.2555C12.2848 22.2929 12.2925 22.3619 12.255 22.4089C12.2563 22.4199 12.2968 22.4662 12.3966 22.4926C12.76 22.5895 13.265 22.3414 12.6754 22.1248C12.5368 22.0742 12.3643 22.0404 12.2311 21.9699C11.9572 21.8253 11.9424 21.5478 12.1655 21.3951C12.2006 21.3702 12.247 21.3562 12.2908 21.3393L12.2793 21.2277C12.2655 21.0883 12.4806 21.0545 12.4967 21.2057L12.5054 21.2916C12.5317 21.2887 12.5578 21.2806 12.5836 21.2813C13.0024 21.2931 13.057 21.5963 12.8914 21.6293ZM11.0867 22.0389C11.0388 22.856 11.6318 23.5497 12.4111 23.5872C13.1905 23.6261 13.8613 22.9947 13.9093 22.1777C13.9573 21.3606 13.3644 20.6676 12.585 20.6287C11.8056 20.5905 11.1348 21.2219 11.0867 22.0389Z" fill="#606062"/>
<path d="M17.6843 24.2988C17.8511 24.5155 17.8635 24.8106 18.1475 26.2823C15.8093 26.3413 13.4683 26.4042 11.1302 26.4718C11.2321 25.7627 11.0579 24.7982 10.6219 24.2724C11.0256 24.1847 11.4484 24.1699 11.8606 24.159C13.7858 24.1031 13.3158 24.1233 14.2615 24.1373C14.2924 24.1288 14.3169 24.1272 14.3373 24.107C14.356 24.0891 14.3646 24.0635 14.3666 24.0379C16.3246 23.9851 17.1093 23.9804 17.1849 23.9928C17.4046 24.0464 17.5811 24.1544 17.6843 24.2988ZM7.35076 24.6079C7.13261 23.8267 7.21843 23.5727 7.5335 17.4149C7.60471 16.1894 7.6305 14.8964 6.858 13.9473C8.76839 13.8604 11.0032 13.851 12.9161 13.8922C13.2236 13.8984 13.7784 13.966 14.0381 14.3504C14.2528 14.6805 14.2061 15.1239 14.2083 15.614C14.1875 18.2871 14.1788 21.1015 14.1571 23.9229C13.4642 23.9074 13.5971 23.895 11.8547 23.9462C11.3766 23.9579 10.883 23.9742 10.4084 24.1039C10.1266 23.8375 9.62376 23.8515 9.21363 24.399C8.72048 25.0584 8.93684 25.5259 8.55482 25.7565C8.51848 25.7783 8.47825 25.8024 8.44206 25.8342C8.00086 25.8629 7.47083 25.0242 7.35076 24.6079ZM14.3707 23.8243C14.392 20.9881 14.4006 18.329 14.4206 15.7219H16.2052C16.4032 15.7219 16.5647 15.5604 16.5647 15.3616V14.0172C16.5647 13.8208 16.4032 13.6623 16.2052 13.6623C16.0183 13.6615 4.95359 13.6623 4.76456 13.6623C4.69132 13.6623 4.64178 13.6817 4.58609 13.7128C4.58477 13.7136 4.58439 13.7151 4.58322 13.7159C4.4776 13.7765 4.40918 13.8922 4.40918 14.0172V15.3616C4.40918 15.5604 4.56854 15.7219 4.76456 15.7219H7.31581C7.37988 16.2516 7.35705 16.7773 7.3204 17.4033C7.00626 23.5797 6.91656 23.8468 7.14558 24.6669C7.28824 25.1609 7.84026 26.0136 8.38203 26.0509C8.50194 26.1899 8.89863 26.245 9.05178 26.2808C9.7244 26.4322 10.4689 26.4345 10.9274 26.3499C10.9198 26.4221 10.9121 26.4951 10.8988 26.5611C10.8858 26.6279 10.9363 26.6885 11.0033 26.6885C11.004 26.6885 11.0054 26.6885 11.0062 26.6885C18.7567 26.4648 18.3036 26.5199 18.3581 26.4532C18.4163 26.3809 18.3753 26.4151 18.0871 24.8145C18.0398 24.5846 17.9971 24.3555 17.8553 24.1715C17.7246 23.9882 17.5049 23.8515 17.234 23.7855C17.1392 23.7637 16.1738 23.7762 14.3707 23.8243Z" fill="#606062"/>
<path d="M9.08154 6.90663C9.15757 6.97809 9.23444 7.04955 9.30266 7.12184C10.1066 7.98191 9.57505 8.50376 8.73253 8.20711L9.08154 6.90663ZM8.75455 6.25763C8.46437 5.84713 8.63298 5.43912 9.23809 5.50227L8.96944 6.5036C8.88842 6.42217 8.81371 6.34073 8.75455 6.25763ZM8.48008 8.32593L8.42324 8.53783C8.40786 8.59434 8.4416 8.65334 8.49861 8.6683C8.55478 8.68326 8.61386 8.65001 8.62882 8.59267L8.67843 8.4082C9.45332 8.67245 9.9018 8.33425 9.91276 7.9038C9.92456 7.41269 9.4696 6.97559 9.14469 6.67145L9.44767 5.54299C9.87554 5.6668 10.0784 5.9618 10.0543 6.06817C10.0414 6.1255 10.0772 6.18285 10.1346 6.19614C10.3973 6.25514 10.3322 5.5754 9.50293 5.33691L9.59525 4.99288C9.63106 4.85992 9.43179 4.80093 9.39091 4.93306L9.2774 5.29203C8.4765 5.19896 8.18167 5.81721 8.58054 6.38061C8.66921 6.50609 8.78629 6.62326 8.90653 6.73793L8.53592 8.11819C8.42357 8.06168 8.31654 7.99769 8.2297 7.92207C8.04656 7.7617 7.86806 7.45091 8.06118 7.3379C8.11195 7.30881 8.12899 7.24317 8.09949 7.19248C8.06991 7.14179 8.00451 7.12434 7.95382 7.15426C7.62134 7.34704 7.76735 7.79992 8.0891 8.08162C8.20004 8.17968 8.3369 8.25862 8.48008 8.32593Z" fill="#606062"/>
<path d="M10.4693 3.61972C13.3918 4.8345 13.3632 9.16989 10.4998 10.2292C8.78431 10.8569 6.8768 9.87951 6.2439 8.03705C5.25407 5.20282 7.83182 2.55192 10.4693 3.61972ZM10.5129 10.4337C13.1123 9.4757 13.7436 6.02902 11.8617 4.03872C10.8356 2.93967 9.31077 2.56458 7.9593 3.06131C6.03448 3.76839 5.03916 5.9986 5.74632 8.02438C6.46557 10.1025 8.61459 11.1222 10.5129 10.4337Z" fill="#606062"/>
</svg>
